<svg viewBox="0 0 29 28" fill="none" xmlns="http://www.w3.org/2000/svg"><path d="M25.84 4.48H6.85c-.8.03-1.57.36-2.16.94a3.42 3.42 0 0 0-1 2.18v10.84c0 .87.34 1.7.93 2.3.6.62 1.4.96 2.23.97h7.63l6.47 5.5v-5.5h4.89c.83 0 1.63-.35 2.23-.97.59-.6.92-1.43.93-2.3V7.75c0-.86-.34-1.69-.93-2.3-.6-.61-1.4-.96-2.23-.97Z" fill="#FEEFEF"/><path d="M23.15 1.8V.9v.9Zm-18.99 0V.9h-.02l.02.9ZM1 4.9l-.9-.06v.06H1Zm0 10.84H.1v.01H1Zm3.16 3.27v.9-.9Zm7.63 0 .58-.68-.26-.22h-.32v.9Zm6.47 5.5-.58.68a.9.9 0 0 0 1.47-.68h-.9Zm0-5.5v-.9h-.9v.9h.9Zm4.89 0v.9-.9Zm3.16-3.27.9.01h-.9Zm0-10.69h.9-.9ZM23.15.9H4.16v1.8h18.99V.9ZM4.14.9a4.12 4.12 0 0 0-2.77 1.19l1.26 1.28c.43-.42.98-.66 1.56-.68L4.14.9ZM1.37 2.09A4.32 4.32 0 0 0 .11 4.85l1.78.13c.05-.62.32-1.2.74-1.61L1.37 2.09ZM.1 4.91v10.84h1.8V4.91H.1Zm0 10.85c.01 1.1.44 2.14 1.2 2.92l1.28-1.25a2.45 2.45 0 0 1-.68-1.68l-1.8.01Zm1.2 2.92a4.04 4.04 0 0 0 2.86 1.24l.01-1.8c-.6 0-1.16-.25-1.6-.69L1.3 18.68Zm2.86 1.24h7.63v-1.8H4.16v1.8Zm7.05-.22 6.47 5.5 1.16-1.37-6.47-5.5-1.16 1.37Zm7.94 4.82v-5.5h-1.79v5.5h1.8Zm-.9-4.6h4.9v-1.8h-4.9v1.8Zm4.9 0a4.04 4.04 0 0 0 2.87-1.24l-1.29-1.25c-.43.44-1 .69-1.6.7l.02 1.79Zm2.87-1.24a4.25 4.25 0 0 0 1.19-2.92l-1.8-.01c0 .63-.25 1.24-.68 1.68l1.29 1.25Zm1.19-2.93V5.06h-1.8v10.7h1.8Zm0-10.7c-.01-1.09-.44-2.13-1.2-2.91l-1.28 1.24c.43.45.68 1.05.68 1.69l1.8-.01ZM26 2.15A4.04 4.04 0 0 0 23.16.9l-.01 1.8c.6 0 1.16.24 1.6.68l1.28-1.24Z" fill="#CF6D58"/><path d="M16.34 18s3.74-2.53 4.6-4.16c.87-1.48 1.01-3.56-.86-4.6a2.7 2.7 0 0 0-3.24.48c-.28.28-.5.63-.64 1a2.96 2.96 0 0 0-1.63-1.6 2.79 2.79 0 0 0-2.25.12c-1.73 1.04-1.58 3.12-.86 4.6C12.6 15.47 16.34 18 16.34 18Z" fill="#FEEFEF"/><path d="m13.66 15.3-.5.75.5.34.5-.34-.5-.74Zm4.6-4.15-.78-.45v.02l-.02.01.8.42Zm-.87-4.6.44-.79-.44.79Zm-3.88 1.48-.82.35a.9.9 0 0 0 1.66-.03l-.84-.32ZM9.63 6.55l-.4-.8-.03.01-.03.02.46.77Zm-.86 4.6-.81.4.03.06.04.06.74-.52Zm4.89 4.16.5.74h.01l.03-.03a18.38 18.38 0 0 0 .58-.4c.37-.27.88-.65 1.41-1.08.54-.43 1.11-.92 1.61-1.41a6.9 6.9 0 0 0 1.25-1.56l-1.59-.84c-.15.29-.46.67-.92 1.12-.44.44-.96.89-1.47 1.3a33.59 33.59 0 0 1-1.88 1.39l-.03.02.5.75Zm5.37-3.7c.5-.87.83-1.95.71-3.02a3.6 3.6 0 0 0-1.91-2.83l-.87 1.57c.67.37.94.89 1 1.45.06.6-.12 1.3-.48 1.92l1.55.9Zm-1.2-5.85a3.6 3.6 0 0 0-1.49-.44l-.12 1.8c.25 0 .5.08.74.21l.87-1.57Zm-1.49-.44a3.58 3.58 0 0 0-1.53.23l.64 1.67c.24-.09.5-.13.77-.1l.12-1.8Zm-1.53.23c-.49.19-.93.48-1.3.85l1.28 1.26c.19-.2.41-.34.66-.44l-.64-1.67Zm-1.3.85c-.37.38-.65.83-.84 1.32l1.68.63c.1-.26.25-.5.44-.7L13.5 6.4Zm.83 1.29c-.2-.48-.5-.91-.86-1.27L12.23 7.7c.19.2.35.42.46.68l1.65-.7Zm-.86-1.27c-.37-.36-.8-.64-1.28-.82l-.64 1.67c.24.1.47.24.67.43l1.25-1.28ZM12.2 5.6a3.68 3.68 0 0 0-1.5-.24l.09 1.79c.26-.01.52.03.77.12l.64-1.67Zm-1.5-.24a3.7 3.7 0 0 0-1.47.39l.8 1.6c.24-.12.5-.19.76-.2l-.1-1.8Zm-1.53.42a3.63 3.63 0 0 0-1.78 2.8c-.11 1.05.16 2.1.57 2.96l1.61-.78a3.8 3.8 0 0 1-.4-1.98c.07-.6.33-1.1.92-1.46l-.92-1.54Zm-1.14 5.89c.67.94 2 2.06 3.06 2.88a44.86 44.86 0 0 0 2.02 1.47l.03.02.01.01.5-.74.5-.74v-.01l-.03-.02-.12-.08a38.47 38.47 0 0 1-1.8-1.33c-1.1-.84-2.21-1.8-2.7-2.5l-1.47 1.04Z" fill="#CF6D58"/></svg>