<svg viewBox="0 0 34 32" fill="none" xmlns="http://www.w3.org/2000/svg"><path d="M31.96 4.72a6.66 6.66 0 0 0-9.42-.16L6.9 20.2a6.66 6.66 0 0 0 .15 9.42 6.66 6.66 0 0 0 9.43.16L32.1 14.14c2.6-2.53 2.5-6.78-.15-9.42Z" fill="#FDF4DB"/><path d="M31.96 4.72a6.66 6.66 0 0 0-9.42-.16L17.9 9.2a6.66 6.66 0 0 0 .16 9.43 6.66 6.66 0 0 0 9.42.15l4.63-4.63c2.6-2.53 2.5-6.78-.15-9.42Z" fill="#FDF4DB"/><path d="M30.38 7.09c1.25 1.24 2 2.92 0 4.91Z" fill="#FDF4DB"/><path d="M27.94 3.38a6.66 6.66 0 0 0-9.43-.16L2.87 18.86a6.66 6.66 0 0 0 .16 9.42 6.66 6.66 0 0 0 9.42.16L28.1 12.8c2.59-2.53 2.5-6.78-.15-9.42Z" stroke="#ECC75C" stroke-width="1.81" stroke-miterlimit="10" stroke-linejoin="round"/><path d="M27.94 3.38a6.66 6.66 0 0 0-9.43-.16l-4.63 4.63a6.66 6.66 0 0 0 .16 9.43 6.66 6.66 0 0 0 9.42.15l4.63-4.63c2.59-2.53 2.5-6.78-.15-9.42Z" stroke="#ECC75C" stroke-width="1.81" stroke-miterlimit="10" stroke-linejoin="round"/><path d="M26.36 5.75c1.25 1.24 2 2.92 0 4.91" stroke="#ECC75C" stroke-width="1.81" stroke-miterlimit="10" stroke-linecap="round" stroke-linejoin="round"/></svg>