<?xml version="1.0" standalone="no"?>
<!DOCTYPE svg PUBLIC "-//W3C//DTD SVG 1.1//EN" "http://www.w3.org/Graphics/SVG/1.1/DTD/svg11.dtd" >
<svg xmlns="http://www.w3.org/2000/svg" xmlns:xlink="http://www.w3.org/1999/xlink" version="1.1">
<metadata>
Created by FontForge 20170731 at Sat Mar 21 16:32:03 2020
 By Aleksey,,,
Copyright (c) 2020 by Connary Fagen. All rights reserved.
</metadata>
<defs>
<font id="GreycliffCF-Regular" horiz-adv-x="564" >
  <font-face 
    font-family="Greycliff CF"
    font-weight="400"
    font-stretch="normal"
    units-per-em="1000"
    panose-1="0 0 5 0 0 0 0 0 0 0"
    ascent="781"
    descent="-219"
    x-height="490"
    cap-height="700"
    bbox="-140 -248.025 1075 928"
    underline-thickness="50"
    underline-position="-200"
    unicode-range="U+0020-FEFF"
  />
<missing-glyph horiz-adv-x="495" 
d="M406 800v-990h-314v990h314zM330 734h-164v-33h65v-37h-66v-32h165v32h-66v37h66v33zM264 606h-99v-103h165v34h-66v69zM231 572v-35h-33v35h33zM330 476h-165v-32h66v-37h-66v-33h99v70h66v32zM330 417h-33v-65h-132v-34h165v99zM330 296h-99v-55h33v22h33v-46h-99v79
h-33v-112h165v112zM330 125h-165v-112h165v112zM297 92v-46h-99v46h99zM330 -10h-165v-32h70l-70 -47v-33h165v33h-101l69 47h32v32z" />
    <glyph glyph-name=".notdef" horiz-adv-x="495" 
d="M406 800v-990h-314v990h314zM330 734h-164v-33h65v-37h-66v-32h165v32h-66v37h66v33zM264 606h-99v-103h165v34h-66v69zM231 572v-35h-33v35h33zM330 476h-165v-32h66v-37h-66v-33h99v70h66v32zM330 417h-33v-65h-132v-34h165v99zM330 296h-99v-55h33v22h33v-46h-99v79
h-33v-112h165v112zM330 125h-165v-112h165v112zM297 92v-46h-99v46h99zM330 -10h-165v-32h70l-70 -47v-33h165v33h-101l69 47h32v32z" />
    <glyph glyph-name=".null" horiz-adv-x="0" 
 />
    <glyph glyph-name="nonmarkingreturn" horiz-adv-x="333" 
 />
    <glyph glyph-name="space" unicode=" " horiz-adv-x="200" 
 />
    <glyph glyph-name="exclam" unicode="!" horiz-adv-x="224" 
d="M96 188q-13 0 -13 14l-9 484q0 14 13 14h51q12 0 12 -14l-8 -484q0 -14 -13 -14h-33zM112 -13q-21 0 -36.5 15t-15.5 37q0 21 15.5 36t36.5 15t36 -15t15 -36q0 -22 -15 -37t-36 -15z" />
    <glyph glyph-name="quotedbl" unicode="&#x22;" horiz-adv-x="266" 
d="M64 480q-13 0 -13 13l-6 193q0 14 14 14h40q14 0 14 -14l-6 -193q0 -13 -13 -13h-30zM171 480q-12 0 -12 13l-6 193q0 14 14 14h39q14 0 14 -14l-5 -193q0 -13 -13 -13h-31z" />
    <glyph glyph-name="numbersign" unicode="#" horiz-adv-x="669" 
d="M116 0q-15 0 -10 17l52 196h-86q-14 0 -11 13l5 20q3 13 15 13h89l49 182h-86q-14 0 -11 13l4 20q3 13 15 13h89l53 201q3 12 16 12h21q15 0 10 -17l-52 -196h184l53 201q3 12 16 12h21q15 0 10 -17l-52 -196h86q14 0 11 -13l-4 -20q-3 -13 -15 -13h-89l-49 -182h86
q14 0 11 -13l-5 -20q-3 -13 -15 -13h-89l-53 -201q-3 -12 -16 -12h-21q-15 0 -10 17l52 196h-184l-53 -201q-3 -12 -16 -12h-21zM218 259h184l49 182h-184z" />
    <glyph glyph-name="dollar" unicode="$" horiz-adv-x="442" 
d="M387 234q0 -58 -38.5 -94.5t-98.5 -44.5v-82q0 -13 -13 -13h-29q-13 0 -13 13v81q-83 9 -134 73q-11 12 -2 25l16 21q9 12 22 -1q54 -56 121 -56q44 0 71 20.5t27 57.5q0 32 -19.5 51.5t-57.5 35.5l-58 24q-110 46 -110 131q0 53 35 87.5t89 41.5v82q0 13 13 13h29
q13 0 13 -13v-82q69 -11 114 -65q9 -10 -1 -22l-16 -19q-11 -13 -24 0q-46 47 -100 47q-35 0 -59 -17.5t-24 -50.5q0 -32 19.5 -50t63.5 -36l48 -19q55 -22 85.5 -54t30.5 -85z" />
    <glyph glyph-name="percent" unicode="%" horiz-adv-x="728" 
d="M187 434q-57 0 -97 39t-40 96t40 96.5t97 39.5t97 -39.5t40 -96.5t-40 -96t-97 -39zM149 4l-24 16q-10 8 -3 19l439 652q8 13 18 5l24 -16q10 -8 3 -19l-439 -652q-8 -13 -18 -5zM187 485q36 0 60 24t24 60q0 37 -24 61t-60 24t-60 -24t-24 -61q0 -36 24 -60t60 -24z
M541 -5q-57 0 -97 39t-40 96t40 96.5t97 39.5t97 -39.5t40 -96.5t-40 -96t-97 -39zM541 46q36 0 60 24t24 60q0 37 -24 61t-60 24t-60 -24t-24 -61q0 -36 24 -60t60 -24z" />
    <glyph glyph-name="ampersand" unicode="&#x26;" horiz-adv-x="671" 
d="M257 -13q-90 0 -148 51.5t-58 142.5q0 73 39 121.5t121 101.5q-41 44 -62.5 81t-21.5 79q0 59 42 99.5t110 40.5q67 0 109 -40.5t42 -99.5q0 -52 -31.5 -92.5t-91.5 -80.5l166 -184l68 109q6 9 14 9h50q13 0 5 -13l-94 -154l106 -117q9 -11 -1 -21l-24 -23q-11 -11 -21 0
l-96 108q-93 -118 -223 -118zM265 437q50 33 73.5 60t23.5 63q0 37 -23.5 59.5t-59.5 22.5q-37 0 -60 -22t-23 -58q0 -52 69 -125zM266 53q94 0 170 99l-182 203q-69 -46 -98.5 -80t-29.5 -88q0 -64 40.5 -99t99.5 -35z" />
    <glyph glyph-name="quotesingle" unicode="'" horiz-adv-x="158" 
d="M64 480q-13 0 -13 13l-6 193q0 14 14 14h40q14 0 14 -14l-6 -193q0 -13 -13 -13h-30z" />
    <glyph glyph-name="parenleft" unicode="(" horiz-adv-x="289" 
d="M177 -130q-12 0 -18 10q-99 174 -99 440q0 110 25.5 220.5t73.5 194.5q6 10 18 10h39q19 0 11 -18q-94 -179 -94 -407q0 -242 94 -432q8 -18 -11 -18h-39z" />
    <glyph glyph-name="parenright" unicode=")" horiz-adv-x="289" 
d="M112 -130h-39q-19 0 -11 18q94 190 94 432q0 228 -94 407q-8 18 11 18h39q12 0 18 -10q48 -84 73.5 -194.5t25.5 -220.5q0 -266 -99 -440q-6 -10 -18 -10z" />
    <glyph glyph-name="asterisk" unicode="*" horiz-adv-x="440" 
d="M202 582l-5 118h45l-4 -118h-36zM185 540l-115 31l11 44l116 -37zM255 540l-12 38l116 37l11 -44zM150 412l-37 24l73 98l30 -24zM291 412l-67 98l30 24l74 -98z" />
    <glyph glyph-name="plus" unicode="+" horiz-adv-x="431" 
d="M199 133q-14 0 -14 14v106h-106q-14 0 -14 14v34q0 14 14 14h106v105q0 14 14 14h34q14 0 14 -14v-105h105q14 0 14 -14v-34q0 -14 -14 -14h-105v-106q0 -14 -14 -14h-34z" />
    <glyph glyph-name="comma" unicode="," horiz-adv-x="214" 
d="M45 -125v27q45 1 65 41q14 29 0 40q-3 2 -8 2q-25 -1 -40.5 13.5t-15.5 37.5t16.5 38.5t39.5 15.5q28 0 47.5 -23.5t19.5 -61.5q0 -52 -35 -91.5t-89 -38.5z" />
    <glyph glyph-name="hyphen" unicode="-" horiz-adv-x="435" 
d="M68 251q-13 0 -13 13v37q0 13 13 13h299q13 0 13 -13v-37q0 -13 -13 -13h-299z" />
    <glyph glyph-name="period" unicode="." horiz-adv-x="194" 
d="M97 -13q-21 0 -36.5 15t-15.5 37q0 21 15.5 36t36.5 15t36 -15t15 -36q0 -22 -15 -37t-36 -15z" />
    <glyph glyph-name="slash" unicode="/" horiz-adv-x="441" 
d="M33 -130q-17 0 -11 17l323 846q5 12 17 12h46q17 0 11 -17l-323 -846q-4 -12 -17 -12h-46z" />
    <glyph glyph-name="zero" unicode="0" horiz-adv-x="619" 
d="M309 -13q-119 0 -189 95.5t-70 264.5q0 170 70 265.5t189 95.5q120 0 189.5 -95.5t69.5 -265.5q0 -169 -69.5 -264.5t-189.5 -95.5zM309 55q89 0 138.5 77t49.5 215q0 139 -49.5 216t-138.5 77q-88 0 -138 -77t-50 -216q0 -138 50 -215t138 -77z" />
    <glyph glyph-name="one" unicode="1" horiz-adv-x="297" 
d="M173 0q-13 0 -13 14v622h-108q-12 0 -12 14v36q0 14 12 14h167q13 0 13 -14v-672q0 -14 -13 -14h-46z" />
    <glyph glyph-name="two" unicode="2" horiz-adv-x="500" 
d="M59 0q-14 0 -14 14v38q0 12 7 19l217 260q30 35 45.5 55t32 56.5t16.5 70.5q0 56 -36.5 92t-96.5 36q-35 0 -63.5 -14t-42 -29t-27.5 -37q-8 -13 -19 -2l-28 26q-9 9 -1 22q66 101 185 101q90 0 145 -55t55 -135q0 -41 -18 -83.5t-33.5 -64t-46.5 -58.5l-206 -248h289
q14 0 14 -14v-36q0 -14 -14 -14h-360z" />
    <glyph glyph-name="three" unicode="3" horiz-adv-x="504" 
d="M234 -13q-124 0 -191 97q-7 10 3 18l30 27q8 9 16 -2q55 -73 141 -73q66 0 107 40t41 103q0 67 -45.5 106.5t-111.5 39.5h-17q-14 0 -14 11v37q0 13 14 13h17q58 0 93.5 35.5t35.5 87.5q0 50 -32.5 82t-85.5 32q-77 0 -121 -71q-8 -11 -19 -2l-29 27q-6 6 0 17
q26 42 71.5 69t103.5 27q79 0 130.5 -48.5t51.5 -121.5q0 -109 -105 -161q61 -20 98.5 -68.5t37.5 -117.5q0 -88 -62 -146t-158 -58z" />
    <glyph glyph-name="four" unicode="4" horiz-adv-x="546" 
d="M356 0q-13 0 -13 14v152h-283q-15 0 -15 15v41q0 9 4 15l288 453q7 10 17 10h47q14 0 14 -15v-456h74q12 0 12 -14v-35q0 -14 -12 -14h-74v-152q0 -14 -13 -14h-46zM118 229h225v356z" />
    <glyph glyph-name="five" unicode="5" horiz-adv-x="538" 
d="M252 -13q-65 0 -115 27t-77 64q-9 13 1 20l33 26q9 8 19 -5q55 -65 138 -65q71 0 119 48t48 124q0 73 -46.5 119t-114.5 46q-84 0 -132 -62q-7 -10 -25 -3l-27 11q-13 5 -10 18l71 332q3 13 16 13h279q12 0 12 -14v-36q0 -14 -12 -14h-239l-48 -221q52 40 127 40
q92 0 155 -64t63 -166q0 -107 -68 -172.5t-167 -65.5z" />
    <glyph glyph-name="six" unicode="6" horiz-adv-x="556" 
d="M277 -13q-98 0 -162 66t-64 164q0 88 67 176l241 319q9 12 19 4l34 -29q9 -8 1 -18l-188 -241q24 16 69 16q86 0 148.5 -64t62.5 -161q0 -99 -64.5 -165.5t-163.5 -66.5zM278 54q67 0 112 46t45 118q0 73 -44.5 118t-112.5 45t-112.5 -45t-44.5 -118q0 -72 45 -118
t112 -46z" />
    <glyph glyph-name="seven" unicode="7" horiz-adv-x="499" 
d="M131 0q-17 0 -10 17l261 619h-330q-12 0 -12 14v36q0 14 12 14h406q7 0 10 -5.5t0 -12.5l-276 -667q-7 -15 -17 -15h-44z" />
    <glyph glyph-name="eight" unicode="8" horiz-adv-x="542" 
d="M271 -13q-94 0 -157.5 58.5t-63.5 148.5q0 71 39 122.5t97 71.5q-45 21 -70 61t-25 89q0 71 50 120.5t130 49.5t130 -49.5t50 -120.5q0 -49 -25 -89t-70 -61q58 -20 97 -71.5t39 -122.5q0 -90 -63.5 -148.5t-157.5 -58.5zM271 417q51 0 83.5 33.5t32.5 84.5
q0 50 -32 81.5t-84 31.5t-84 -31.5t-32 -81.5q0 -51 32.5 -84.5t83.5 -33.5zM271 52q67 0 109 40.5t42 105.5t-43.5 106.5t-107.5 41.5q-63 0 -107 -41.5t-44 -106.5q0 -64 42.5 -105t108.5 -41z" />
    <glyph glyph-name="nine" unicode="9" horiz-adv-x="556" 
d="M178 -21l-34 29q-9 8 -1 18l188 241q-24 -16 -69 -16q-87 0 -149 64t-62 161q0 99 64.5 165.5t163.5 66.5q98 0 162 -66t64 -163q0 -89 -67 -177l-241 -319q-9 -12 -19 -4zM278 314q68 0 112.5 45t44.5 118q0 72 -45 118t-112 46t-112 -46t-45 -118q0 -73 44.5 -118
t112.5 -45z" />
    <glyph glyph-name="colon" unicode=":" horiz-adv-x="194" 
d="M97 399q-21 0 -36.5 15t-15.5 36q0 22 15.5 37t36.5 15t36 -15t15 -37t-15 -36.5t-36 -14.5zM97 -12q-21 0 -36.5 15t-15.5 37q0 21 15.5 36t36.5 15t36 -15t15 -36q0 -22 -15 -37t-36 -15z" />
    <glyph glyph-name="semicolon" unicode=";" horiz-adv-x="214" 
d="M98 399q-21 0 -36.5 15t-15.5 36q0 22 15.5 37t36.5 15t36 -15t15 -37t-15 -36.5t-36 -14.5zM45 -125v27q45 1 65 41q14 29 0 40q-3 2 -8 2q-25 -1 -40.5 13.5t-15.5 37.5t16.5 38.5t39.5 15.5q28 0 47.5 -23.5t19.5 -61.5q0 -52 -35 -91.5t-89 -38.5z" />
    <glyph glyph-name="less" unicode="&#x3c;" horiz-adv-x="517" 
d="M439 19l-368 196q-11 5 -11 18v33q0 12 11 18l368 197q7 5 12.5 2t5.5 -11v-39q0 -11 -11 -16l-322 -167l322 -167q11 -6 11 -16v-39q0 -8 -5.5 -11t-12.5 2z" />
    <glyph glyph-name="equal" unicode="=" horiz-adv-x="451" 
d="M79 317q-14 0 -14 14v34q0 14 14 14h293q14 0 14 -14v-34q0 -14 -14 -14h-293zM79 190q-14 0 -14 14v34q0 14 14 14h293q14 0 14 -14v-34q0 -14 -14 -14h-293z" />
    <glyph glyph-name="greater" unicode="&#x3e;" horiz-adv-x="517" 
d="M78 19q-8 -5 -13 -2t-5 11v39q0 10 11 16l322 167l-322 167q-11 5 -11 16v39q0 8 5 11t13 -2l368 -197q11 -6 11 -18v-33q0 -13 -11 -18z" />
    <glyph glyph-name="question" unicode="?" horiz-adv-x="451" 
d="M192 181q-13 0 -13 15v37q0 46 15.5 83t37.5 60.5t44 45.5t37.5 50t15.5 61q0 51 -31 78t-80 27q-88 0 -126 -91q-6 -11 -23 -1l-23 14q-14 9 -9 22q17 51 65 88.5t122 37.5q77 0 127 -43.5t50 -119.5q0 -42 -16 -76t-38.5 -58.5t-45.5 -49t-39.5 -57.5t-17.5 -73l-1 -35
q0 -15 -13 -15h-38zM211 -13q-21 0 -36 15t-15 37q0 21 15 36t36 15q22 0 37 -15t15 -36q0 -22 -15 -37t-37 -15z" />
    <glyph glyph-name="at" unicode="@" horiz-adv-x="849" 
d="M428 -13q-147 0 -254.5 101t-107.5 261q0 108 53 191.5t135 125.5t177 42q147 0 250 -98t103 -258q0 -104 -42.5 -148.5t-99.5 -44.5q-74 0 -92 63q-53 -63 -140 -63q-78 0 -128 53t-50 131q0 79 51 132.5t131 53.5q92 0 140 -71l16 52h42l-22 -221q-7 -75 53 -75
q78 0 78 131q0 145 -85.5 223.5t-203.5 78.5q-77 0 -144.5 -32t-113 -102t-45.5 -164q0 -139 92 -220t211 -81q91 0 156 49l38 -44q-77 -66 -198 -66zM415 215q58 0 92.5 36.5t34.5 92.5t-34.5 92.5t-92.5 36.5q-57 0 -91 -36.5t-34 -92.5t34 -92.5t91 -36.5z" />
    <glyph glyph-name="A" unicode="A" horiz-adv-x="681" 
d="M629 17q7 -17 -11 -17h-50q-12 0 -16 12l-51 145h-320l-51 -145q-4 -12 -17 -12h-49q-18 0 -11 17l242 671q5 12 18 12h55q14 0 18 -12zM205 224h272l-136 387z" />
    <glyph glyph-name="B" unicode="B" horiz-adv-x="585" 
d="M100 0q-14 0 -14 14v672q0 14 14 14h202q98 0 144 -49t46 -120q0 -51 -25.5 -92.5t-75.5 -58.5q67 -16 105 -66t38 -119q0 -89 -60 -142t-175 -53h-199zM160 405h135q58 0 91.5 31.5t33.5 87.5q0 109 -125 109h-135v-228zM160 67h135q80 0 121.5 35t41.5 102
q0 66 -42 103t-121 37h-135v-277z" />
    <glyph glyph-name="C" unicode="C" horiz-adv-x="726" 
d="M421 -13q-154 0 -254.5 103.5t-100.5 256.5t100.5 257t254.5 104q135 0 236 -90q12 -12 3 -24l-28 -31q-10 -10 -22 0q-82 72 -187 72q-121 0 -201 -82t-80 -206t80 -205.5t201 -81.5q105 0 187 72q12 10 21 1l29 -32q10 -10 -3 -23q-101 -91 -236 -91z" />
    <glyph glyph-name="D" unicode="D" horiz-adv-x="669" 
d="M100 0q-14 0 -14 14v672q0 14 14 14h152q176 0 266 -96t90 -254t-90 -254t-266 -96h-152zM161 67h90q142 0 211.5 74t69.5 209t-69.5 209t-211.5 74h-90v-566z" />
    <glyph glyph-name="E" unicode="E" horiz-adv-x="526" 
d="M100 0q-14 0 -14 14v672q0 14 14 14h335q14 0 14 -14v-39q0 -14 -14 -14h-274v-238h260q14 0 14 -14v-39q0 -14 -14 -14h-260v-261h275q14 0 14 -14v-39q0 -14 -14 -14h-336z" />
    <glyph glyph-name="F" unicode="F" horiz-adv-x="510" 
d="M100 0q-14 0 -14 14v672q0 14 14 14h326q14 0 14 -14v-39q0 -14 -14 -14h-265v-232h252q14 0 14 -14v-39q0 -14 -14 -14h-252v-320q0 -14 -14 -14h-47z" />
    <glyph glyph-name="G" unicode="G" horiz-adv-x="803" 
d="M425 -13q-155 0 -257 103.5t-102 256.5t101.5 257t256.5 104q137 0 236 -94q10 -10 2 -17l-31 -36q-7 -9 -17 -1q-84 75 -190 75q-121 0 -201.5 -82t-80.5 -206t80.5 -205.5t202.5 -81.5q110 0 180 66t70 169h-240q-14 0 -14 14v41q0 13 14 13h298q15 0 15 -15v-31
q0 -143 -88.5 -236.5t-234.5 -93.5z" />
    <glyph glyph-name="H" unicode="H" horiz-adv-x="652" 
d="M100 0q-14 0 -14 14v672q0 14 14 14h47q14 0 14 -14v-305h330v305q0 14 14 14h47q14 0 14 -14v-672q0 -14 -14 -14h-47q-14 0 -14 14v300h-330v-300q0 -14 -14 -14h-47z" />
    <glyph glyph-name="I" unicode="I" horiz-adv-x="246" 
d="M100 0q-14 0 -14 14v672q0 14 14 14h47q14 0 14 -14v-672q0 -14 -14 -14h-47z" />
    <glyph glyph-name="J" unicode="J" horiz-adv-x="502" 
d="M215 -13q-94 0 -156 68q-8 11 1 20l25 33q9 10 18 1q18 -16 30 -24.5t34 -16.5t47 -8q127 0 127 167v459q0 14 14 14h47q14 0 14 -14v-461q0 -116 -54 -177t-147 -61z" />
    <glyph glyph-name="K" unicode="K" horiz-adv-x="613" 
d="M100 0q-14 0 -14 14v672q0 14 14 14h47q14 0 14 -14v-381l290 387q7 8 18 8h59q10 0 12 -5t-4 -13l-241 -308l269 -356q5 -8 2.5 -13t-11.5 -5h-55q-12 0 -18 9l-232 308l-89 -115v-188q0 -14 -14 -14h-47z" />
    <glyph glyph-name="L" unicode="L" horiz-adv-x="485" 
d="M415 67q15 0 15 -15v-37q0 -15 -15 -15h-315q-14 0 -14 14v672q0 14 14 14h47q14 0 14 -14v-619h254z" />
    <glyph glyph-name="M" unicode="M" horiz-adv-x="874" 
d="M100 0q-14 0 -14 14v672q0 14 14 14h65q12 0 16 -10l256 -608l256 608q4 10 16 10h65q14 0 14 -14v-672q0 -14 -14 -14h-47q-14 0 -14 14v563l-15 -47l-219 -519q-4 -11 -17 -11h-50q-13 0 -17 11l-219 519l-15 47v-563q0 -14 -14 -14h-47z" />
    <glyph glyph-name="N" unicode="N" horiz-adv-x="669" 
d="M569 700q14 0 14 -14v-672q0 -14 -14 -14h-64q-12 0 -18 10l-326 583v-579q0 -14 -14 -14h-47q-14 0 -14 14v672q0 14 14 14h64q12 0 18 -10l326 -583v579q0 14 14 14h47z" />
    <glyph glyph-name="O" unicode="O" horiz-adv-x="847" 
d="M424 -13q-151 0 -254.5 104t-103.5 256t103.5 256.5t254.5 104.5t254.5 -104.5t103.5 -256.5t-103.5 -256t-254.5 -104zM424 60q120 0 201 82t81 205t-81 205.5t-201 82.5q-121 0 -201.5 -82t-80.5 -206q0 -123 80.5 -205t201.5 -82z" />
    <glyph glyph-name="P" unicode="P" horiz-adv-x="577" 
d="M100 0q-14 0 -14 14v672q0 14 14 14h191q110 0 170 -60t60 -158t-60 -157.5t-170 -59.5h-130v-251q0 -14 -14 -14h-47zM161 332h124q74 0 118.5 36t44.5 114q0 79 -44.5 115t-118.5 36h-124v-301z" />
    <glyph glyph-name="Q" unicode="Q" horiz-adv-x="847" 
d="M777 40q11 -10 1 -20l-31 -31q-10 -10 -21 1l-76 76q-96 -79 -226 -79q-151 0 -254.5 104t-103.5 256t103.5 256.5t254.5 104.5t254.5 -104.5t103.5 -256.5q0 -133 -81 -231zM424 60q100 0 174 58l-93 93q-10 10 -2 20l31 31q10 10 21 -1l93 -93q58 77 58 179
q0 123 -81 205.5t-201 82.5q-121 0 -201.5 -82t-80.5 -206q0 -123 80.5 -205t201.5 -82z" />
    <glyph glyph-name="R" unicode="R" horiz-adv-x="579" 
d="M520 18q11 -18 -10 -18h-50q-12 0 -18 10l-169 255h-112v-251q0 -14 -14 -14h-47q-14 0 -14 14v672q0 14 14 14h191q110 0 170 -60t60 -158q0 -83 -44 -140t-127 -72zM161 633v-301h124q74 0 118.5 36t44.5 114q0 79 -44.5 115t-118.5 36h-124z" />
    <glyph glyph-name="S" unicode="S" horiz-adv-x="539" 
d="M268 -12q-139 0 -208 104q-7 12 2 22l23 26q11 13 23 -1q63 -82 160 -82q67 0 105 33t38 88q0 52 -31 81.5t-96 61.5l-85 41q-123 58 -123 171q0 79 55 127t139 48q113 0 186 -89q11 -12 0 -24l-22 -25q-11 -13 -24 0q-60 69 -138 69q-54 0 -88.5 -27.5t-34.5 -77.5
q0 -38 22 -64.5t69 -49.5l83 -41q37 -18 61 -33t49.5 -39t38 -56t12.5 -72q0 -88 -60.5 -139.5t-155.5 -51.5z" />
    <glyph glyph-name="T" unicode="T" horiz-adv-x="534" 
d="M243 0q-14 0 -14 14v619h-149q-14 0 -14 14v39q0 14 14 14h374q14 0 14 -14v-39q0 -14 -14 -14h-150v-619q0 -14 -14 -14h-47z" />
    <glyph glyph-name="U" unicode="U" horiz-adv-x="629" 
d="M314 -13q-106 0 -169.5 64t-63.5 179v456q0 14 14 14h47q14 0 14 -14v-447q0 -89 43 -134t115 -45q73 0 116 45t43 134v447q0 14 14 14h47q14 0 14 -14v-456q0 -115 -63.5 -179t-170.5 -64z" />
    <glyph glyph-name="V" unicode="V" horiz-adv-x="681" 
d="M313 0q-13 0 -18 12l-242 671q-7 17 11 17h49q13 0 17 -12l211 -599l211 599q4 12 16 12h50q18 0 11 -17l-243 -671q-4 -12 -18 -12h-55z" />
    <glyph glyph-name="W" unicode="W" horiz-adv-x="1081" 
d="M276 0q-13 0 -17 12l-207 671q-5 17 12 17h47q13 0 17 -12l177 -588l193 588q4 12 16 12h53q12 0 16 -12l193 -588l177 588q5 12 17 12h47q17 0 12 -17l-207 -671q-4 -12 -17 -12h-55q-13 0 -17 12l-192 595l-193 -595q-4 -12 -17 -12h-55z" />
    <glyph glyph-name="X" unicode="X" horiz-adv-x="629" 
d="M72 0q-19 0 -8 18l209 341l-199 323q-11 18 8 18h53q9 0 17 -10l163 -265l163 265q6 10 16 10h53q19 0 8 -18l-199 -323l209 -341q11 -18 -8 -18h-51q-11 0 -17 10l-174 282l-175 -282q-6 -10 -17 -10h-51z" />
    <glyph glyph-name="Y" unicode="Y" horiz-adv-x="597" 
d="M275 0q-14 0 -14 14v322l-207 346q-5 8 -2.5 13t11.5 5h52q11 0 17 -10l166 -283l167 283q6 10 17 10h52q9 0 11.5 -5t-2.5 -13l-207 -346v-322q0 -14 -14 -14h-47z" />
    <glyph glyph-name="Z" unicode="Z" horiz-adv-x="566" 
d="M75 0q-14 0 -14 14v44q0 9 6 18l345 557h-327q-14 0 -14 14v39q0 14 14 14h391q14 0 14 -14v-44q0 -9 -6 -18l-345 -557h347q14 0 14 -14v-39q0 -14 -14 -14h-411z" />
    <glyph glyph-name="bracketleft" unicode="[" horiz-adv-x="286" 
d="M73 -130q-13 0 -13 13v849q0 13 13 13h140q13 0 13 -13v-36q0 -13 -13 -13h-78v-751h78q13 0 13 -13v-36q0 -13 -13 -13h-140z" />
    <glyph glyph-name="backslash" unicode="\" horiz-adv-x="441" 
d="M408 -130h-46q-12 0 -17 12l-323 846q-6 17 11 17h46q13 0 17 -12l323 -846q6 -17 -11 -17z" />
    <glyph glyph-name="bracketright" unicode="]" horiz-adv-x="286" 
d="M213 -130h-140q-13 0 -13 13v36q0 13 13 13h78v751h-78q-13 0 -13 13v36q0 13 13 13h140q13 0 13 -13v-849q0 -13 -13 -13z" />
    <glyph glyph-name="asciicircum" unicode="^" horiz-adv-x="588" 
d="M63 321l196 368q5 11 18 11h33q12 0 18 -11l197 -368q5 -7 2 -12.5t-11 -5.5h-39q-11 0 -16 11l-167 322l-167 -322q-6 -11 -16 -11h-39q-8 0 -11 5.5t2 12.5z" />
    <glyph glyph-name="underscore" unicode="_" horiz-adv-x="620" 
d="M73 -63q-13 0 -13 13v37q0 13 13 13h474q13 0 13 -13v-37q0 -13 -13 -13h-474z" />
    <glyph glyph-name="grave" unicode="`" horiz-adv-x="157" 
d="M131 557h-43q-11 0 -16 12l-55 115q-7 16 9 16h44q11 0 16 -12l54 -115q7 -16 -9 -16z" />
    <glyph glyph-name="a" unicode="a" horiz-adv-x="626" 
d="M292 -12q-106 0 -173.5 73t-67.5 184t67.5 184t173.5 73q128 0 188 -108l2 82q0 14 13 14h43q13 0 13 -14v-462q0 -14 -13 -14h-43q-13 0 -13 14l-2 80q-58 -106 -188 -106zM302 55q79 0 128.5 52t49.5 136q0 85 -49.5 138.5t-128.5 53.5t-130 -53t-51 -137
q0 -85 51 -137.5t130 -52.5z" />
    <glyph glyph-name="b" unicode="b" horiz-adv-x="626" 
d="M334 -12q-130 0 -188 106l-2 -80q0 -14 -13 -14h-42q-13 0 -13 14v687q0 14 13 14h46q13 0 13 -14v-304q59 105 186 105q107 0 174.5 -73t67.5 -184t-67.5 -184t-174.5 -73zM324 55q80 0 131 52.5t51 137.5q0 84 -51 137t-131 53q-78 0 -127.5 -53.5t-49.5 -138.5
q0 -84 49.5 -136t127.5 -52z" />
    <glyph glyph-name="c" unicode="c" horiz-adv-x="546" 
d="M306 -12q-109 0 -182 73.5t-73 183.5t73 183.5t182 73.5q115 0 183 -82q9 -13 2 -20l-26 -24q-11 -11 -23 1q-54 58 -133 58q-81 0 -134.5 -53.5t-53.5 -136.5q0 -84 53.5 -137t135.5 -53q79 0 132 57q13 13 24 2l26 -24q7 -7 -2 -20q-68 -82 -184 -82z" />
    <glyph glyph-name="d" unicode="d" horiz-adv-x="626" 
d="M292 -12q-106 0 -173.5 73t-67.5 184t67.5 184t173.5 73q128 0 187 -105v304q0 14 13 14h46q13 0 13 -14v-687q0 -14 -13 -14h-43q-13 0 -13 14l-2 80q-58 -106 -188 -106zM302 55q79 0 128.5 52t49.5 136q0 85 -49.5 138.5t-128.5 53.5t-130 -53t-51 -137
q0 -85 51 -137.5t130 -52.5z" />
    <glyph glyph-name="e" unicode="e" horiz-adv-x="577" 
d="M310 -12q-117 0 -188 74.5t-71 184.5q0 109 69 182t177 73q104 0 166.5 -68.5t62.5 -163.5q0 -28 -7.5 -39.5t-28.5 -11.5h-369q8 -76 58.5 -123t136.5 -47q79 0 141 47q9 7 15 -1l17 -23q7 -10 -4 -21q-66 -63 -175 -63zM121 275h341q-3 74 -47.5 118.5t-118.5 44.5
q-73 0 -120.5 -44t-54.5 -119z" />
    <glyph glyph-name="f" unicode="f" horiz-adv-x="349" 
d="M132 0q-13 0 -13 14v416h-59q-14 0 -14 14v32q0 14 14 14h59v111q0 130 128 130q29 0 48 -8q9 -4 9 -13v-41q0 -9 -12 -7q-20 3 -34 3q-39 0 -53 -21t-14 -59v-95h99q14 0 14 -14v-32q0 -14 -14 -14h-99v-416q0 -14 -13 -14h-46z" />
    <glyph glyph-name="g" unicode="g" horiz-adv-x="621" 
d="M294 -205q-103 0 -171 47q-13 8 -7 20l15 28q7 12 18 5q61 -38 142 -38q80 0 132 39.5t52 126.5v82q-59 -99 -186 -99q-105 0 -171.5 69.5t-66.5 178.5t66.5 178.5t170.5 69.5q128 0 188 -102l1 76q0 14 12 14h43q13 0 13 -14v-457q0 -76 -37 -128t-92 -74t-122 -22z
M299 72q78 0 126.5 49t48.5 131q0 83 -48.5 133.5t-126.5 50.5q-77 0 -127.5 -50t-50.5 -132t50.5 -132t127.5 -50z" />
    <glyph glyph-name="h" unicode="h" 
d="M310 502q82 0 130.5 -52t48.5 -148v-288q0 -14 -13 -14h-47q-12 0 -12 14v281q0 66 -33.5 103t-93.5 37q-62 0 -102 -38t-40 -102v-281q0 -14 -13 -14h-46q-13 0 -13 14v687q0 14 13 14h46q13 0 13 -14v-289q50 90 162 90z" />
    <glyph glyph-name="i" unicode="i" horiz-adv-x="223" 
d="M112 617q-19 0 -32 13t-13 32t13 32.5t32 13.5t32 -13.5t13 -32.5t-13 -32t-32 -13zM89 0q-13 0 -13 14v462q0 14 13 14h46q13 0 13 -14v-462q0 -14 -13 -14h-46z" />
    <glyph glyph-name="j" unicode="j" horiz-adv-x="233" 
d="M122 617q-19 0 -32 13t-13 32t13 32.5t32 13.5t32 -13.5t13 -32.5t-13 -32t-32 -13zM30 -200q-31 0 -48 8q-9 4 -9 13v41q0 9 12 7q19 -3 33 -3q39 0 53.5 21t14.5 59v530q0 14 13 14h46q13 0 13 -14v-546q0 -130 -128 -130z" />
    <glyph glyph-name="k" unicode="k" horiz-adv-x="529" 
d="M89 0q-13 0 -13 14v687q0 14 13 14h46q13 0 13 -14v-471l230 252q7 8 17 8h58q8 0 9.5 -5t-4.5 -10l-181 -194l208 -265q5 -6 2.5 -11t-11.5 -5h-49q-12 0 -18 9l-176 223l-85 -91v-127q0 -14 -13 -14h-46z" />
    <glyph glyph-name="l" unicode="l" horiz-adv-x="223" 
d="M89 0q-13 0 -13 14v687q0 14 13 14h46q13 0 13 -14v-687q0 -14 -13 -14h-46z" />
    <glyph glyph-name="m" unicode="m" horiz-adv-x="822" 
d="M89 0q-13 0 -13 14v462q0 14 13 14h42q14 0 14 -15l2 -56q43 83 139 83q106 0 144 -96q45 96 154 96q77 0 119.5 -50t42.5 -145v-293q0 -14 -13 -14h-46q-13 0 -13 14v285q0 136 -106 136q-55 0 -88 -36.5t-33 -99.5v-285q0 -14 -13 -14h-46q-13 0 -13 14v285
q0 65 -29 100.5t-82 35.5q-55 0 -85.5 -36t-30.5 -100v-285q0 -14 -13 -14h-46z" />
    <glyph glyph-name="n" unicode="n" 
d="M89 0q-13 0 -13 14v462q0 14 13 14h42q14 0 14 -15l3 -63q50 90 162 90q82 0 130.5 -52t48.5 -148v-288q0 -14 -13 -14h-47q-12 0 -12 14v281q0 66 -33.5 103t-93.5 37q-62 0 -102 -38t-40 -102v-281q0 -14 -13 -14h-46z" />
    <glyph glyph-name="o" unicode="o" horiz-adv-x="603" 
d="M302 -12q-107 0 -179 73.5t-72 183.5t72 183.5t179 73.5t178.5 -74t71.5 -183t-71.5 -183t-178.5 -74zM302 55q78 0 129 53.5t51 136.5t-51 136.5t-129 53.5t-129.5 -53.5t-51.5 -136.5t51.5 -136.5t129.5 -53.5z" />
    <glyph glyph-name="p" unicode="p" horiz-adv-x="626" 
d="M89 -190q-13 0 -13 14v652q0 14 13 14h42q13 0 13 -14l2 -82q60 108 188 108q107 0 174.5 -73t67.5 -184t-67.5 -184t-174.5 -73q-127 0 -186 103v-267q0 -14 -13 -14h-46zM324 55q80 0 131 52.5t51 137.5q0 84 -51 137t-131 53q-78 0 -127.5 -53.5t-49.5 -138.5
q0 -84 49.5 -136t127.5 -52z" />
    <glyph glyph-name="q" unicode="q" horiz-adv-x="626" 
d="M492 -190q-13 0 -13 14v267q-59 -103 -187 -103q-106 0 -173.5 73t-67.5 184t67.5 184t173.5 73q128 0 188 -108l2 82q0 14 13 14h43q13 0 13 -14v-652q0 -14 -13 -14h-46zM302 55q79 0 128.5 52t49.5 136q0 85 -49.5 138.5t-128.5 53.5t-130 -53t-51 -137
q0 -85 51 -137.5t130 -52.5z" />
    <glyph glyph-name="r" unicode="r" horiz-adv-x="354" 
d="M89 0q-13 0 -13 14v462q0 14 13 14h42q14 0 14 -15l2 -56q34 83 113 83q30 0 45 -10q8 -5 8 -17v-34q0 -15 -18 -10q-16 5 -35 5q-59 0 -85.5 -41t-26.5 -93v-288q0 -14 -13 -14h-46z" />
    <glyph glyph-name="s" unicode="s" horiz-adv-x="443" 
d="M220 -12q-102 0 -159 74q-10 11 -1 25l15 20q10 13 23 0q52 -56 120 -56q44 0 71 20t27 57q0 32 -19.5 52t-57.5 36l-58 24q-110 46 -110 131q0 59 43.5 95t106.5 36q89 0 143 -68q9 -10 -1 -22l-16 -18q-11 -13 -24 0q-46 47 -99 47q-36 0 -60 -17.5t-24 -50.5
q0 -32 20 -50t64 -36l48 -20q55 -22 85 -53.5t30 -84.5q0 -66 -48.5 -103.5t-118.5 -37.5z" />
    <glyph glyph-name="t" unicode="t" horiz-adv-x="339" 
d="M228 -12q-104 0 -104 106v336h-64q-14 0 -14 14v32q0 14 14 14h64v116q0 14 13 14h46q13 0 13 -14v-116h83q14 0 14 -14v-32q0 -14 -14 -14h-83v-327q0 -52 45 -52q13 0 31 2q19 3 19 -13v-30q0 -22 -63 -22z" />
    <glyph glyph-name="u" unicode="u" 
d="M254 -12q-81 0 -129.5 52t-48.5 148v288q0 14 13 14h46q13 0 13 -14v-281q0 -66 33 -103t93 -37q62 0 102.5 38t40.5 102v281q0 14 12 14h47q13 0 13 -14v-462q0 -14 -13 -14h-43q-14 0 -14 15l-2 63q-50 -90 -163 -90z" />
    <glyph glyph-name="v" unicode="v" horiz-adv-x="545" 
d="M249 0q-13 0 -18 12l-183 461q-6 17 11 17h46q11 0 16 -12l151 -398l152 398q4 12 16 12h46q17 0 11 -17l-183 -461q-4 -12 -18 -12h-47z" />
    <glyph glyph-name="w" unicode="w" horiz-adv-x="870" 
d="M226 0q-14 0 -18 12l-160 461q-6 17 11 17h45q12 0 16 -12l134 -399l138 399q4 12 18 12h50q13 0 18 -12l138 -399l134 399q4 12 15 12h46q17 0 11 -17l-161 -461q-5 -12 -18 -12h-51q-14 0 -18 12l-139 399l-140 -399q-5 -12 -18 -12h-51z" />
    <glyph glyph-name="x" unicode="x" horiz-adv-x="490" 
d="M57 0q-8 0 -10.5 5t2.5 12l153 233l-146 223q-10 17 8 17h51q11 0 17 -10l113 -179l114 179q6 10 17 10h51q18 0 8 -17l-147 -223l154 -233q5 -7 2.5 -12t-10.5 -5h-51q-11 0 -17 10l-121 190l-120 -190q-6 -10 -17 -10h-51z" />
    <glyph glyph-name="y" unicode="y" horiz-adv-x="545" 
d="M177 -190q-17 0 -10 15l69 173l-188 475q-6 17 11 17h46q11 0 16 -12l151 -398l152 398q4 12 16 12h46q17 0 11 -17l-258 -651q-5 -12 -17 -12h-45z" />
    <glyph glyph-name="z" unicode="z" horiz-adv-x="481" 
d="M70 0q-14 0 -14 14v38q0 9 7 18l280 358h-270q-14 0 -14 14v34q0 14 14 14h336q15 0 15 -14v-38q0 -9 -7 -18l-281 -358h275q14 0 14 -14v-34q0 -14 -14 -14h-341z" />
    <glyph glyph-name="braceleft" unicode="{" horiz-adv-x="306" 
d="M174 -130q-32 0 -52 20.5t-20 53.5v281q0 11 -5 19l-33 52q-6 11 -1 20l34 54q5 9 5 19v282q0 33 20 53.5t52 20.5h59q13 0 13 -13v-36q0 -13 -13 -13h-22q-35 0 -35 -35v-264q0 -12 -5 -19l-31 -49q-6 -10 0 -20l31 -47q5 -9 5 -19v-263q0 -35 35 -35h22q13 0 13 -13
v-36q0 -13 -13 -13h-59z" />
    <glyph glyph-name="bar" unicode="|" horiz-adv-x="246" 
d="M100 -190q-14 0 -14 14v962q0 14 14 14h47q14 0 14 -14v-962q0 -14 -14 -14h-47z" />
    <glyph glyph-name="braceright" unicode="}" horiz-adv-x="306" 
d="M132 -130h-59q-13 0 -13 13v36q0 13 13 13h22q35 0 35 35v263q0 10 5 19l31 47q6 10 0 20l-31 49q-5 7 -5 19v264q0 35 -35 35h-22q-13 0 -13 13v36q0 13 13 13h59q32 0 52 -20.5t20 -53.5v-282q0 -10 5 -19l34 -54q5 -9 -1 -20l-33 -52q-5 -8 -5 -19v-281
q0 -33 -20 -53.5t-52 -20.5z" />
    <glyph glyph-name="asciitilde" unicode="~" horiz-adv-x="450" 
d="M299 227q-32 0 -58 18t-49 36t-46 18q-38 0 -46 -33q-3 -10 -12 -10h-18q-12 0 -10 14q3 38 28.5 58.5t61.5 20.5q32 0 58.5 -18t49 -36t45.5 -18q37 0 46 34q3 10 12 10h19q12 0 10 -15q-4 -38 -29.5 -58.5t-61.5 -20.5z" />
    <glyph glyph-name="uni00A0" unicode="&#xa0;" horiz-adv-x="200" 
 />
    <glyph glyph-name="exclamdown" unicode="&#xa1;" horiz-adv-x="224" 
d="M112 533q21 0 36 -15t15 -37q0 -21 -15 -36t-36 -15t-36.5 15t-15.5 36q0 22 15.5 37t36.5 15zM96 332h33q13 0 13 -14l8 -484q0 -14 -12 -14h-51q-13 0 -13 14l9 484q0 14 13 14z" />
    <glyph glyph-name="cent" unicode="&#xa2;" horiz-adv-x="506" 
d="M452 212q7 -7 -1 -18q-59 -69 -155 -73v-108q0 -13 -13 -13h-12q-13 0 -13 13v109q-90 9 -148.5 72.5t-58.5 155.5t58.5 155.5t148.5 72.5v109q0 13 13 13h12q13 0 13 -13v-108q97 -4 154 -73q9 -10 1 -17l-23 -22q-9 -9 -21 1q-45 47 -111 51v-338q67 4 111 51
q13 11 22 2zM115 350q0 -66 39.5 -112t103.5 -55v334q-64 -9 -103.5 -54.5t-39.5 -112.5z" />
    <glyph glyph-name="sterling" unicode="&#xa3;" horiz-adv-x="520" 
d="M69 0q-13 0 -13 14v50q107 61 107 175q0 24 -5 47h-88q-12 0 -12 13v28q0 13 12 13h71q-3 7 -14 29t-15 31t-12 28t-11.5 31.5t-6.5 30t-3 33.5q0 78 54.5 131.5t142.5 53.5q118 0 184 -101q8 -13 -1 -22l-27 -26q-11 -11 -19 2q-15 22 -28.5 36.5t-41.5 29t-63 14.5
q-59 0 -94.5 -35t-35.5 -91q0 -29 9.5 -56t29 -64t27.5 -55h137q13 0 13 -13v-28q0 -13 -13 -13h-125q4 -24 4 -45q0 -62 -24.5 -108t-60.5 -69h295q14 0 14 -14v-36q0 -14 -14 -14h-373z" />
    <glyph glyph-name="currency" unicode="&#xa4;" horiz-adv-x="581" 
d="M103 251l-38 37l49 49q-47 62 -47 139t47 139l-49 49l38 37l49 -49q61 48 139 48q77 0 138 -48l49 49l38 -37l-49 -49q48 -63 48 -139t-48 -139l49 -49l-38 -37l-49 49q-61 -48 -138 -48q-79 0 -139 49zM291 300q72 0 123.5 51t51.5 125t-51.5 125t-123.5 51t-123.5 -51
t-51.5 -125t51 -125t124 -51z" />
    <glyph glyph-name="yen" unicode="&#xa5;" horiz-adv-x="597" 
d="M543 682l-207 -346v-1h89q14 0 14 -14v-27q0 -14 -14 -14h-89v-41h89q14 0 14 -14v-27q0 -14 -14 -14h-89v-170q0 -14 -14 -14h-47q-14 0 -14 14v170h-88q-14 0 -14 14v27q0 14 14 14h88v41h-88q-14 0 -14 14v27q0 14 14 14h88v1l-207 346q-5 8 -2.5 13t11.5 5h52
q11 0 17 -10l166 -283l167 283q6 10 17 10h52q9 0 11.5 -5t-2.5 -13z" />
    <glyph glyph-name="brokenbar" unicode="&#xa6;" horiz-adv-x="246" 
d="M100 490q-14 0 -14 14v282q0 14 14 14h47q14 0 14 -14v-282q0 -14 -14 -14h-47zM100 -190q-14 0 -14 14v282q0 14 14 14h47q14 0 14 -14v-282q0 -14 -14 -14h-47z" />
    <glyph glyph-name="section" unicode="&#xa7;" horiz-adv-x="450" 
d="M226 -33q-102 0 -164 70q-11 13 -1 27l12 19q10 14 27 0q58 -54 124 -54q44 0 70.5 20t26.5 55q0 56 -79 87l-62 25q-52 21 -82 51.5t-30 80.5q0 81 81 116q-78 43 -78 116q0 59 45 94.5t109 35.5q90 0 148 -67q9 -10 -1 -22l-16 -18q-11 -13 -24 0q-46 46 -105 46
q-36 0 -61 -17t-25 -50t19 -49.5t59 -33.5l58 -24q56 -23 87 -53.5t31 -82.5q0 -83 -73 -119q70 -41 70 -114q0 -65 -47.5 -102t-118.5 -37zM229 262q43 1 69 20.5t26 53.5q0 36 -29 58.5t-71 22.5q-36 0 -60.5 -17t-24.5 -50q0 -34 21 -51.5t69 -36.5z" />
    <glyph glyph-name="dieresis" unicode="&#xa8;" horiz-adv-x="297" 
d="M58 621q-18 0 -30.5 12.5t-12.5 29.5t12.5 29.5t30.5 12.5q17 0 30 -12.5t13 -29.5t-13 -29.5t-30 -12.5zM239 621q-17 0 -30 12.5t-13 29.5t13 29.5t30 12.5t30 -12.5t13 -29.5t-13 -29.5t-30 -12.5z" />
    <glyph glyph-name="copyright" unicode="&#xa9;" horiz-adv-x="699" 
d="M350 136q-119 0 -201.5 83.5t-82.5 202.5t82.5 202.5t201.5 83.5t201.5 -83.5t82.5 -202.5t-82.5 -202.5t-201.5 -83.5zM350 188q98 0 164.5 68t66.5 166t-66.5 166t-164.5 68t-165 -68t-67 -166t67 -166t165 -68zM355 261q-68 0 -113.5 46.5t-45.5 114.5q0 70 45.5 116
t113.5 46q72 0 116 -51q7 -7 0 -14l-17 -17q-8 -8 -16 1q-34 34 -80 34q-50 0 -81 -32t-31 -83q0 -50 31.5 -82t80.5 -32q46 0 80 34q8 8 16 1l17 -17q7 -7 0 -14q-44 -51 -116 -51z" />
    <glyph glyph-name="ordfeminine" unicode="&#xaa;" horiz-adv-x="467" 
d="M225 341q-75 0 -124.5 52t-49.5 130t49.5 130t124.5 52q86 0 136 -63l5 58h50v-359h-50l-5 63q-50 -63 -136 -63zM232 395q56 0 93 36.5t37 91.5t-37 91.5t-93 36.5q-55 0 -90.5 -36t-35.5 -92t35.5 -92t90.5 -36z" />
    <glyph glyph-name="guillemotleft" unicode="&#xab;" horiz-adv-x="383" 
d="M167 152l-109 87q-8 7 -8 16v49q0 8 8 15l109 87q5 4 9.5 2t4.5 -9v-39q0 -9 -8 -16l-83 -65l83 -64q8 -7 8 -16v-40q0 -6 -4.5 -8t-9.5 1zM319 152l-109 87q-8 7 -8 16v49q0 8 8 15l109 87q5 4 9.5 2t4.5 -9v-39q0 -9 -8 -16l-83 -65l83 -64q8 -7 8 -16v-40
q0 -6 -4.5 -8t-9.5 1z" />
    <glyph glyph-name="logicalnot" unicode="&#xac;" horiz-adv-x="503" 
d="M385 149q-14 0 -14 14v77h-297q-14 0 -14 14v34q0 14 14 14h355q14 0 14 -14v-125q0 -14 -14 -14h-44z" />
    <glyph glyph-name="uni00AD" unicode="&#xad;" horiz-adv-x="435" 
d="M68 251q-13 0 -13 13v37q0 13 13 13h299q13 0 13 -13v-37q0 -13 -13 -13h-299z" />
    <glyph glyph-name="registered" unicode="&#xae;" horiz-adv-x="699" 
d="M350 136q-119 0 -201.5 83.5t-82.5 202.5t82.5 202.5t201.5 83.5t201.5 -83.5t82.5 -202.5t-82.5 -202.5t-201.5 -83.5zM350 188q98 0 164.5 68t66.5 166t-66.5 166t-164.5 68t-165 -68t-67 -166t67 -166t165 -68zM245 276q-9 0 -9 9v274q0 9 9 9h130q52 0 82 -26t30 -71
q0 -37 -22.5 -61t-62.5 -31l86 -91q4 -4 2.5 -8t-8.5 -4h-37q-7 0 -11 6l-88 95h-62v-92q0 -9 -9 -9h-30zM284 421h94q30 0 44.5 14t14.5 36q0 53 -59 53h-94v-103z" />
    <glyph glyph-name="macron" unicode="&#xaf;" horiz-adv-x="331" 
d="M29 640q-14 0 -14 14v32q0 14 14 14h273q14 0 14 -14v-32q0 -14 -14 -14h-273z" />
    <glyph glyph-name="degree" unicode="&#xb0;" horiz-adv-x="412" 
d="M206 426q-60 0 -103 42t-43 103t43 103t103 42t103 -42t43 -103t-43 -103t-103 -42zM206 478q39 0 65.5 26t26.5 67t-26.5 67t-65.5 26t-65.5 -26t-26.5 -67t26.5 -67t65.5 -26z" />
    <glyph glyph-name="plusminus" unicode="&#xb1;" horiz-adv-x="431" 
d="M199 121q-14 0 -14 14v106h-106q-14 0 -14 14v34q0 14 14 14h106v105q0 14 14 14h34q14 0 14 -14v-105h105q14 0 14 -14v-34q0 -14 -14 -14h-105v-106q0 -14 -14 -14h-34zM78 0q-13 0 -13 13v23q0 13 13 13h275q13 0 13 -13v-23q0 -13 -13 -13h-275z" />
    <glyph glyph-name="uni00B2" unicode="&#xb2;" horiz-adv-x="324" 
d="M43 329v48l98 97l22.5 22.5l19.5 19.5l15.5 15.5t13.5 15.5t8.5 13t7 13.5t3 13t1.5 15.5q0 31 -19.5 46.5t-51.5 15.5q-31 0 -50.5 -17t-19.5 -54v-20h-51v20q0 53 32.5 85t88.5 32q58 0 90 -31t32 -77q0 -27 -16.5 -54.5t-31.5 -43t-62 -61.5l-66 -66h177v-48h-241z
" />
    <glyph glyph-name="uni00B3" unicode="&#xb3;" horiz-adv-x="341" 
d="M170 325q-66 0 -98 34t-32 86h50q0 -33 20 -54.5t59 -21.5q36 0 58 17.5t22 49.5q0 39 -28 54.5t-81 15.5v40q47 0 71 18t24 48q0 53 -70 53q-69 0 -69 -71h-47q-1 54 28.5 85t87.5 31t88.5 -27.5t30.5 -70.5q0 -54 -56 -80q73 -23 73 -96q0 -50 -35.5 -80.5t-95.5 -30.5
z" />
    <glyph glyph-name="acute" unicode="&#xb4;" horiz-adv-x="157" 
d="M26 557q-16 0 -9 16l54 115q5 12 16 12h44q16 0 9 -16l-55 -115q-4 -12 -15 -12h-44z" />
    <glyph glyph-name="uni00B5" unicode="&#xb5;" 
d="M90 -190q-14 0 -14 14v652q0 14 13 14h46q13 0 13 -14v-281q0 -66 33 -103t93 -37q62 0 102.5 38t40.5 102v281q0 14 12 14h47q13 0 13 -14v-462q0 -14 -13 -14h-43q-14 0 -14 15l-2 64q-49 -91 -147 -91q-84 0 -122 57v-221q0 -14 -14 -14h-44z" />
    <glyph glyph-name="paragraph" unicode="&#xb6;" horiz-adv-x="748" 
d="M487 0h-47q-14 0 -14 14v251h-130q-110 0 -170 59.5t-60 157.5t60 158t170 60h191q14 0 14 -14v-672q0 -14 -14 -14zM601 0q-14 0 -14 14v672q0 14 14 14h47q14 0 14 -14v-672q0 -14 -14 -14h-47zM426 332v301h-124q-74 0 -118.5 -36t-44.5 -115q0 -78 44.5 -114
t118.5 -36h124z" />
    <glyph glyph-name="periodcentered" unicode="&#xb7;" horiz-adv-x="203" 
d="M102 238q-22 0 -37 14.5t-15 36.5q0 21 15 36.5t37 15.5q21 0 36 -15.5t15 -36.5q0 -22 -15 -36.5t-36 -14.5z" />
    <glyph glyph-name="cedilla" unicode="&#xb8;" horiz-adv-x="189" 
d="M24 -211q-9 1 -9 11v25q0 10 11 10q91 -7 91 41q0 26 -26.5 36t-63.5 -2q-12 -3 -12 7v23q0 5 5 12l44 48h62l-39 -40q37 -2 62 -22.5t25 -55.5q0 -56 -45 -78.5t-105 -14.5z" />
    <glyph glyph-name="uni00B9" unicode="&#xb9;" horiz-adv-x="197" 
d="M82 323v329h-42v48h92v-377h-50z" />
    <glyph glyph-name="ordmasculine" unicode="&#xba;" horiz-adv-x="468" 
d="M234 341q-77 0 -130 52.5t-53 129.5t53 129.5t130 52.5t130 -52.5t53 -129.5t-53 -129.5t-130 -52.5zM234 395q54 0 91 37t37 91t-37 91t-91 37t-91 -37t-37 -91t37 -91t91 -37z" />
    <glyph glyph-name="guillemotright" unicode="&#xbb;" horiz-adv-x="383" 
d="M64 152q-4 -3 -9 -1t-5 8v40q0 9 8 16l83 64l-83 65q-8 7 -8 16v39q0 7 5 9t9 -2l109 -87q8 -7 8 -15v-49q0 -9 -8 -16zM215 152q-4 -3 -8.5 -1t-4.5 8v40q0 9 8 16l83 64l-83 65q-8 7 -8 16v39q0 7 4.5 9t8.5 -2l110 -87q8 -7 8 -15v-49q0 -9 -8 -16z" />
    <glyph glyph-name="onequarter" unicode="&#xbc;" horiz-adv-x="765" 
d="M72 323v329h-42v48h92v-377h-50zM102 0l416 700h53l-415 -700h-54zM637 0v87h-196l196 290h50v-243h38v-47h-38v-87h-50zM526 134h111v168z" />
    <glyph glyph-name="onehalf" unicode="&#xbd;" horiz-adv-x="755" 
d="M72 323v329h-42v48h92v-377h-50zM102 0l416 700h53l-415 -700h-54zM474 0v48l98 97l22.5 22.5l19.5 19.5l15.5 15.5t13.5 15.5t8.5 13t7 13.5t3 13t1.5 15.5q0 31 -19.5 46.5t-51.5 15.5q-31 0 -50.5 -17t-19.5 -54v-20h-51v20q0 53 32.5 85t88.5 32q58 0 90 -31t32 -77
q0 -27 -16.5 -54.5t-31.5 -43t-62 -61.5l-66 -66h177v-48h-241z" />
    <glyph glyph-name="threequarters" unicode="&#xbe;" horiz-adv-x="844" 
d="M170 325q-66 0 -98 34t-32 86h50q0 -33 20 -54.5t59 -21.5q36 0 58 17.5t22 49.5q0 39 -28 54.5t-81 15.5v40q47 0 71 18t24 48q0 53 -70 53q-69 0 -69 -71h-47q-1 54 28.5 85t87.5 31t88.5 -27.5t30.5 -70.5q0 -54 -56 -80q73 -23 73 -96q0 -50 -35.5 -80.5t-95.5 -30.5
zM181 0l416 700h53l-415 -700h-54zM716 0v87h-196l196 290h50v-243h38v-47h-38v-87h-50zM605 134h111v168z" />
    <glyph glyph-name="questiondown" unicode="&#xbf;" horiz-adv-x="451" 
d="M225 533q21 0 36.5 -15t15.5 -37q0 -21 -15.5 -36t-36.5 -15t-36.5 15t-15.5 36q0 22 15.5 37t36.5 15zM245 339q13 0 13 -15v-37q0 -46 -15.5 -83t-37.5 -60.5t-44 -45.5t-37.5 -50t-15.5 -61q0 -51 30.5 -78t79.5 -27q89 0 127 91q6 11 23 1l22 -14q15 -9 10 -22
q-18 -51 -65.5 -88.5t-121.5 -37.5q-77 0 -127 43.5t-50 119.5q0 42 16 76t38.5 58.5l45 49t39 57.5t17.5 73l1 35q0 15 13 15h39z" />
    <glyph glyph-name="Agrave" unicode="&#xc0;" horiz-adv-x="681" 
d="M300 779l-55 115q-7 16 9 16h45q11 0 15 -12l54 -115q7 -16 -9 -16h-43q-11 0 -16 12zM629 17q7 -17 -11 -17h-50q-12 0 -16 12l-51 145h-320l-51 -145q-4 -12 -17 -12h-49q-18 0 -11 17l242 671q5 12 18 12h55q14 0 18 -12zM205 224h272l-136 387z" />
    <glyph glyph-name="Aacute" unicode="&#xc1;" horiz-adv-x="681" 
d="M323 767q-16 0 -9 16l54 115q5 12 16 12h44q16 0 9 -16l-55 -115q-4 -12 -15 -12h-44zM629 17q7 -17 -11 -17h-50q-12 0 -16 12l-51 145h-320l-51 -145q-4 -12 -17 -12h-49q-18 0 -11 17l242 671q5 12 18 12h55q14 0 18 -12zM205 224h272l-136 387z" />
    <glyph glyph-name="Acircumflex" unicode="&#xc2;" horiz-adv-x="681" 
d="M221 784q-7 0 -9 5t2 9l86 104q7 8 16 8h50q9 0 16 -8l86 -104q4 -4 1.5 -9t-8.5 -5h-40q-9 0 -16 8l-64 80l-65 -80q-7 -8 -16 -8h-39zM629 17q7 -17 -11 -17h-50q-12 0 -16 12l-51 145h-320l-51 -145q-4 -12 -17 -12h-49q-18 0 -11 17l242 671q5 12 18 12h55
q14 0 18 -12zM205 224h272l-136 387z" />
    <glyph glyph-name="Atilde" unicode="&#xc3;" horiz-adv-x="681" 
d="M201 843q-11 0 -9 12q4 35 27 54t56 19q36 0 75.5 -32.5t63.5 -32.5q31 0 42 30q3 9 11 9h15q10 0 10 -10q-4 -36 -26.5 -55t-53.5 -19q-38 0 -78 32t-64 32q-32 0 -43 -30q-3 -9 -11 -9h-15zM629 17q7 -17 -11 -17h-50q-12 0 -16 12l-51 145h-320l-51 -145
q-4 -12 -17 -12h-49q-18 0 -11 17l242 671q5 12 18 12h55q14 0 18 -12zM205 224h272l-136 387z" />
    <glyph glyph-name="Adieresis" unicode="&#xc4;" horiz-adv-x="681" 
d="M251 831q-18 0 -30.5 12.5t-12.5 29.5t12.5 29.5t30.5 12.5q17 0 30 -12.5t13 -29.5t-13 -29.5t-30 -12.5zM432 831q-17 0 -30 12.5t-13 29.5t13 29.5t30 12.5t30 -12.5t13 -29.5t-13 -29.5t-30 -12.5zM629 17q7 -17 -11 -17h-50q-12 0 -16 12l-51 145h-320l-51 -145
q-4 -12 -17 -12h-49q-18 0 -11 17l242 671q5 12 18 12h55q14 0 18 -12zM205 224h272l-136 387z" />
    <glyph glyph-name="Aring" unicode="&#xc5;" horiz-adv-x="681" 
d="M341 772q-34 0 -57 22.5t-23 55.5q0 34 23 56t57 22t57 -22t23 -56q0 -33 -23 -55.5t-57 -22.5zM341 878q-12 0 -20 -8t-8 -20t8 -20t20 -8t20 8t8 20t-8 20t-20 8zM629 17q7 -17 -11 -17h-50q-12 0 -16 12l-51 145h-320l-51 -145q-4 -12 -17 -12h-49q-18 0 -11 17
l242 671q5 12 18 12h55q14 0 18 -12zM205 224h272l-136 387z" />
    <glyph glyph-name="AE" unicode="&#xc6;" horiz-adv-x="876" 
d="M786 67q14 0 14 -14v-39q0 -14 -14 -14h-336q-14 0 -14 14v159h-226l-79 -161q-5 -12 -17 -12h-50q-8 0 -11.5 5t0.5 12l337 671q6 12 18 12h377q14 0 14 -14v-39q0 -14 -14 -14h-274v-238h260q14 0 14 -14v-39q0 -14 -14 -14h-260v-261h275zM243 240h193v395z" />
    <glyph glyph-name="Ccedilla" unicode="&#xc7;" horiz-adv-x="726" 
d="M657 78q-93 -85 -219 -91l-27 -27q37 -2 62 -22.5t25 -55.5q0 -56 -45 -78.5t-105 -14.5q-9 1 -9 11v25q0 10 11 10q91 -7 91 41q0 26 -26.5 36t-63.5 -2q-12 -3 -12 7v23q0 5 5 12l34 37q-137 15 -224.5 115.5t-87.5 242.5q0 153 100.5 257t254.5 104q135 0 236 -90
q12 -12 3 -24l-28 -31q-10 -10 -22 0q-82 72 -187 72q-121 0 -201 -82t-80 -206t80 -205.5t201 -81.5q105 0 187 72q12 10 21 1l29 -32q10 -10 -3 -23z" />
    <glyph glyph-name="Egrave" unicode="&#xc8;" horiz-adv-x="526" 
d="M291 767h-43q-11 0 -16 12l-55 115q-7 16 9 16h45q11 0 15 -12l54 -115q7 -16 -9 -16zM100 0q-14 0 -14 14v672q0 14 14 14h335q14 0 14 -14v-39q0 -14 -14 -14h-274v-238h260q14 0 14 -14v-39q0 -14 -14 -14h-260v-261h275q14 0 14 -14v-39q0 -14 -14 -14h-336z" />
    <glyph glyph-name="Eacute" unicode="&#xc9;" horiz-adv-x="526" 
d="M255 767q-16 0 -9 16l54 115q5 12 16 12h44q16 0 9 -16l-55 -115q-4 -12 -15 -12h-44zM100 0q-14 0 -14 14v672q0 14 14 14h335q14 0 14 -14v-39q0 -14 -14 -14h-274v-238h260q14 0 14 -14v-39q0 -14 -14 -14h-260v-261h275q14 0 14 -14v-39q0 -14 -14 -14h-336z" />
    <glyph glyph-name="Ecircumflex" unicode="&#xca;" horiz-adv-x="526" 
d="M153 784q-7 0 -9 5t2 9l86 104q7 8 16 8h50q9 0 16 -8l86 -104q4 -4 1.5 -9t-8.5 -5h-40q-9 0 -16 8l-64 80l-65 -80q-7 -8 -16 -8h-39zM100 0q-14 0 -14 14v672q0 14 14 14h335q14 0 14 -14v-39q0 -14 -14 -14h-274v-238h260q14 0 14 -14v-39q0 -14 -14 -14h-260v-261
h275q14 0 14 -14v-39q0 -14 -14 -14h-336z" />
    <glyph glyph-name="Edieresis" unicode="&#xcb;" horiz-adv-x="526" 
d="M183 831q-18 0 -30.5 12.5t-12.5 29.5t12.5 29.5t30.5 12.5q17 0 30 -12.5t13 -29.5t-13 -29.5t-30 -12.5zM364 831q-17 0 -30 12.5t-13 29.5t13 29.5t30 12.5t30 -12.5t13 -29.5t-13 -29.5t-30 -12.5zM100 0q-14 0 -14 14v672q0 14 14 14h335q14 0 14 -14v-39
q0 -14 -14 -14h-274v-238h260q14 0 14 -14v-39q0 -14 -14 -14h-260v-261h275q14 0 14 -14v-39q0 -14 -14 -14h-336z" />
    <glyph glyph-name="Igrave" unicode="&#xcc;" horiz-adv-x="246" 
d="M142 767h-43q-11 0 -16 12l-55 115q-7 16 9 16h44q11 0 16 -12l54 -115q7 -16 -9 -16zM100 0q-14 0 -14 14v672q0 14 14 14h47q14 0 14 -14v-672q0 -14 -14 -14h-47z" />
    <glyph glyph-name="Iacute" unicode="&#xcd;" horiz-adv-x="246" 
d="M106 767q-16 0 -9 16l54 115q5 12 16 12h44q16 0 9 -16l-55 -115q-4 -12 -15 -12h-44zM100 0q-14 0 -14 14v672q0 14 14 14h47q14 0 14 -14v-672q0 -14 -14 -14h-47z" />
    <glyph glyph-name="Icircumflex" unicode="&#xce;" horiz-adv-x="246" 
d="M3 784q-7 0 -9 5t2 9l86 104q7 8 16 8h50q9 0 16 -8l86 -104q4 -4 1.5 -9t-8.5 -5h-40q-9 0 -16 8l-64 80l-65 -80q-7 -8 -16 -8h-39zM100 0q-14 0 -14 14v672q0 14 14 14h47q14 0 14 -14v-672q0 -14 -14 -14h-47z" />
    <glyph glyph-name="Idieresis" unicode="&#xcf;" horiz-adv-x="246" 
d="M33 831q-18 0 -30.5 12.5t-12.5 29.5t12.5 29.5t30.5 12.5q17 0 30 -12.5t13 -29.5t-13 -29.5t-30 -12.5zM214 831q-17 0 -30 12.5t-13 29.5t13 29.5t30 12.5t30 -12.5t13 -29.5t-13 -29.5t-30 -12.5zM100 0q-14 0 -14 14v672q0 14 14 14h47q14 0 14 -14v-672
q0 -14 -14 -14h-47z" />
    <glyph glyph-name="Eth" unicode="&#xd0;" horiz-adv-x="677" 
d="M260 700q176 0 266 -96t90 -254t-90 -254t-266 -96h-152q-14 0 -14 14v306h-55q-14 0 -14 14v32q0 14 14 14h55v306q0 14 14 14h152zM259 67q142 0 211.5 74t69.5 209t-69.5 209t-211.5 74h-90v-253h143q14 0 14 -14v-32q0 -14 -14 -14h-143v-253h90z" />
    <glyph glyph-name="Ntilde" unicode="&#xd1;" horiz-adv-x="669" 
d="M195 843q-11 0 -9 12q4 35 27 54t56 19q36 0 75.5 -32.5t63.5 -32.5q31 0 42 30q3 9 11 9h15q10 0 10 -10q-4 -36 -26.5 -55t-53.5 -19q-38 0 -78 32t-64 32q-32 0 -43 -30q-3 -9 -11 -9h-15zM569 700q14 0 14 -14v-672q0 -14 -14 -14h-64q-12 0 -18 10l-326 583v-579
q0 -14 -14 -14h-47q-14 0 -14 14v672q0 14 14 14h64q12 0 18 -10l326 -583v579q0 14 14 14h47z" />
    <glyph glyph-name="Ograve" unicode="&#xd2;" horiz-adv-x="847" 
d="M442 767h-43q-11 0 -16 12l-55 115q-7 16 9 16h45q11 0 15 -12l54 -115q7 -16 -9 -16zM424 -13q-151 0 -254.5 104t-103.5 256t103.5 256.5t254.5 104.5t254.5 -104.5t103.5 -256.5t-103.5 -256t-254.5 -104zM424 60q120 0 201 82t81 205t-81 205.5t-201 82.5
q-121 0 -201.5 -82t-80.5 -206q0 -123 80.5 -205t201.5 -82z" />
    <glyph glyph-name="Oacute" unicode="&#xd3;" horiz-adv-x="847" 
d="M406 767q-16 0 -9 16l54 115q5 12 16 12h44q16 0 9 -16l-55 -115q-4 -12 -15 -12h-44zM424 -13q-151 0 -254.5 104t-103.5 256t103.5 256.5t254.5 104.5t254.5 -104.5t103.5 -256.5t-103.5 -256t-254.5 -104zM424 60q120 0 201 82t81 205t-81 205.5t-201 82.5
q-121 0 -201.5 -82t-80.5 -206q0 -123 80.5 -205t201.5 -82z" />
    <glyph glyph-name="Ocircumflex" unicode="&#xd4;" horiz-adv-x="847" 
d="M304 784q-7 0 -9 5t2 9l86 104q7 8 16 8h50q9 0 16 -8l86 -104q4 -4 1.5 -9t-8.5 -5h-40q-9 0 -16 8l-64 80l-65 -80q-7 -8 -16 -8h-39zM424 -13q-151 0 -254.5 104t-103.5 256t103.5 256.5t254.5 104.5t254.5 -104.5t103.5 -256.5t-103.5 -256t-254.5 -104zM424 60
q120 0 201 82t81 205t-81 205.5t-201 82.5q-121 0 -201.5 -82t-80.5 -206q0 -123 80.5 -205t201.5 -82z" />
    <glyph glyph-name="Otilde" unicode="&#xd5;" horiz-adv-x="847" 
d="M495 818q-38 0 -78 32t-64 32q-32 0 -43 -30q-3 -9 -11 -9h-15q-10 0 -9 12q4 35 27 54t56 19q36 0 75.5 -32.5t63.5 -32.5q31 0 42 30q3 9 11 9h15q10 0 10 -10q-4 -36 -26.5 -55t-53.5 -19zM424 -13q-151 0 -254.5 104t-103.5 256t103.5 256.5t254.5 104.5
t254.5 -104.5t103.5 -256.5t-103.5 -256t-254.5 -104zM424 60q120 0 201 82t81 205t-81 205.5t-201 82.5q-121 0 -201.5 -82t-80.5 -206q0 -123 80.5 -205t201.5 -82z" />
    <glyph glyph-name="Odieresis" unicode="&#xd6;" horiz-adv-x="847" 
d="M334 831q-18 0 -30.5 12.5t-12.5 29.5t12.5 29.5t30.5 12.5q17 0 30 -12.5t13 -29.5t-13 -29.5t-30 -12.5zM515 831q-17 0 -30 12.5t-13 29.5t13 29.5t30 12.5t30 -12.5t13 -29.5t-13 -29.5t-30 -12.5zM424 -13q-151 0 -254.5 104t-103.5 256t103.5 256.5t254.5 104.5
t254.5 -104.5t103.5 -256.5t-103.5 -256t-254.5 -104zM424 60q120 0 201 82t81 205t-81 205.5t-201 82.5q-121 0 -201.5 -82t-80.5 -206q0 -123 80.5 -205t201.5 -82z" />
    <glyph glyph-name="multiply" unicode="&#xd7;" horiz-adv-x="376" 
d="M70 189q-9 9 0 20l75 74l-75 75q-9 9 0 20l24 24q11 9 20 0l75 -75l74 74q9 11 20 0l24 -24q9 -9 0 -20l-74 -74l74 -74q9 -9 0 -19l-24 -25q-11 -9 -20 0l-74 74l-75 -74q-9 -11 -20 0z" />
    <glyph glyph-name="Oslash" unicode="&#xd8;" horiz-adv-x="847" 
d="M596 665q85 -46 135.5 -130.5t50.5 -187.5q0 -152 -103.5 -256t-254.5 -104q-66 0 -123 21l-21 -47q-6 -11 -15 -11h-31q-17 0 -9 18l28 61q-86 46 -136.5 130.5t-50.5 187.5q0 152 103.5 256.5t254.5 104.5q66 0 123 -21l21 47q6 11 15 11h32q17 0 9 -18zM142 347
q0 -82 37.5 -148t102.5 -103l235 524q-43 15 -93 15q-121 0 -201.5 -82t-80.5 -206zM424 60q120 0 201 82t81 205q0 82 -37.5 148t-102.5 103l-235 -523q43 -15 93 -15z" />
    <glyph glyph-name="Ugrave" unicode="&#xd9;" horiz-adv-x="629" 
d="M333 767h-43q-11 0 -16 12l-55 115q-7 16 9 16h45q11 0 15 -12l54 -115q7 -16 -9 -16zM314 -13q-106 0 -169.5 64t-63.5 179v456q0 14 14 14h47q14 0 14 -14v-447q0 -89 43 -134t115 -45q73 0 116 45t43 134v447q0 14 14 14h47q14 0 14 -14v-456q0 -115 -63.5 -179
t-170.5 -64z" />
    <glyph glyph-name="Uacute" unicode="&#xda;" horiz-adv-x="629" 
d="M297 767q-16 0 -9 16l54 115q5 12 16 12h44q16 0 9 -16l-55 -115q-4 -12 -15 -12h-44zM314 -13q-106 0 -169.5 64t-63.5 179v456q0 14 14 14h47q14 0 14 -14v-447q0 -89 43 -134t115 -45q73 0 116 45t43 134v447q0 14 14 14h47q14 0 14 -14v-456q0 -115 -63.5 -179
t-170.5 -64z" />
    <glyph glyph-name="Ucircumflex" unicode="&#xdb;" horiz-adv-x="629" 
d="M195 784q-7 0 -9 5t2 9l86 104q7 8 16 8h50q9 0 16 -8l86 -104q4 -4 1.5 -9t-8.5 -5h-40q-9 0 -16 8l-64 80l-65 -80q-7 -8 -16 -8h-39zM314 -13q-106 0 -169.5 64t-63.5 179v456q0 14 14 14h47q14 0 14 -14v-447q0 -89 43 -134t115 -45q73 0 116 45t43 134v447
q0 14 14 14h47q14 0 14 -14v-456q0 -115 -63.5 -179t-170.5 -64z" />
    <glyph glyph-name="Udieresis" unicode="&#xdc;" horiz-adv-x="629" 
d="M224 831q-18 0 -30.5 12.5t-12.5 29.5t12.5 29.5t30.5 12.5q17 0 30 -12.5t13 -29.5t-13 -29.5t-30 -12.5zM405 831q-17 0 -30 12.5t-13 29.5t13 29.5t30 12.5t30 -12.5t13 -29.5t-13 -29.5t-30 -12.5zM314 -13q-106 0 -169.5 64t-63.5 179v456q0 14 14 14h47
q14 0 14 -14v-447q0 -89 43 -134t115 -45q73 0 116 45t43 134v447q0 14 14 14h47q14 0 14 -14v-456q0 -115 -63.5 -179t-170.5 -64z" />
    <glyph glyph-name="Yacute" unicode="&#xdd;" horiz-adv-x="597" 
d="M281 767q-16 0 -9 16l54 115q5 12 16 12h44q16 0 9 -16l-55 -115q-4 -12 -15 -12h-44zM275 0q-14 0 -14 14v322l-207 346q-5 8 -2.5 13t11.5 5h52q11 0 17 -10l166 -283l167 283q6 10 17 10h52q9 0 11.5 -5t-2.5 -13l-207 -346v-322q0 -14 -14 -14h-47z" />
    <glyph glyph-name="Thorn" unicode="&#xde;" horiz-adv-x="569" 
d="M283 566q111 0 170.5 -59.5t59.5 -156.5t-59.5 -156.5t-170.5 -59.5h-122v-120q0 -14 -14 -14h-47q-14 0 -14 14v672q0 14 14 14h47q14 0 14 -14v-120h122zM277 203q75 0 119 35.5t44 111.5t-44 111.5t-119 35.5h-116v-294h116z" />
    <glyph glyph-name="germandbls" unicode="&#xdf;" horiz-adv-x="578" 
d="M99 0q-13 0 -13 14v513q0 84 49 132.5t152 48.5q97 0 149 -46t52 -126q0 -121 -111 -151q151 -26 151 -192q0 -100 -57 -146.5t-181 -46.5h-62q-13 0 -13 14v32q0 14 13 14h62q88 0 128 32t40 107q0 76 -40 111.5t-129 35.5h-61q-13 0 -13 14v32q0 14 13 14h51
q67 0 103 31.5t36 90.5q0 114 -131 114q-72 0 -100.5 -31t-28.5 -88v-509q0 -14 -13 -14h-46z" />
    <glyph glyph-name="agrave" unicode="&#xe0;" horiz-adv-x="626" 
d="M329 557h-43q-11 0 -16 12l-55 115q-7 16 9 16h45q11 0 15 -12l54 -115q7 -16 -9 -16zM292 -12q-106 0 -173.5 73t-67.5 184t67.5 184t173.5 73q128 0 188 -108l2 82q0 14 13 14h43q13 0 13 -14v-462q0 -14 -13 -14h-43q-13 0 -13 14l-2 80q-58 -106 -188 -106zM302 55
q79 0 128.5 52t49.5 136q0 85 -49.5 138.5t-128.5 53.5t-130 -53t-51 -137q0 -85 51 -137.5t130 -52.5z" />
    <glyph glyph-name="aacute" unicode="&#xe1;" horiz-adv-x="626" 
d="M293 557q-16 0 -9 16l54 115q5 12 16 12h44q16 0 9 -16l-55 -115q-4 -12 -15 -12h-44zM292 -12q-106 0 -173.5 73t-67.5 184t67.5 184t173.5 73q128 0 188 -108l2 82q0 14 13 14h43q13 0 13 -14v-462q0 -14 -13 -14h-43q-13 0 -13 14l-2 80q-58 -106 -188 -106zM302 55
q79 0 128.5 52t49.5 136q0 85 -49.5 138.5t-128.5 53.5t-130 -53t-51 -137q0 -85 51 -137.5t130 -52.5z" />
    <glyph glyph-name="acircumflex" unicode="&#xe2;" horiz-adv-x="626" 
d="M191 574q-7 0 -9 5t2 9l86 104q7 8 16 8h50q9 0 16 -8l86 -104q4 -4 1.5 -9t-8.5 -5h-40q-9 0 -16 8l-64 80l-65 -80q-7 -8 -16 -8h-39zM292 -12q-106 0 -173.5 73t-67.5 184t67.5 184t173.5 73q128 0 188 -108l2 82q0 14 13 14h43q13 0 13 -14v-462q0 -14 -13 -14h-43
q-13 0 -13 14l-2 80q-58 -106 -188 -106zM302 55q79 0 128.5 52t49.5 136q0 85 -49.5 138.5t-128.5 53.5t-130 -53t-51 -137q0 -85 51 -137.5t130 -52.5z" />
    <glyph glyph-name="atilde" unicode="&#xe3;" horiz-adv-x="626" 
d="M382 608q-38 0 -78 32t-64 32q-32 0 -43 -30q-3 -9 -11 -9h-15q-11 0 -9 12q4 35 27 54t56 19q36 0 75.5 -32.5t63.5 -32.5q31 0 42 30q3 9 11 9h15q10 0 10 -10q-4 -36 -26.5 -55t-53.5 -19zM292 -12q-106 0 -173.5 73t-67.5 184t67.5 184t173.5 73q128 0 188 -108l2 82
q0 14 13 14h43q13 0 13 -14v-462q0 -14 -13 -14h-43q-13 0 -13 14l-2 80q-58 -106 -188 -106zM302 55q79 0 128.5 52t49.5 136q0 85 -49.5 138.5t-128.5 53.5t-130 -53t-51 -137q0 -85 51 -137.5t130 -52.5z" />
    <glyph glyph-name="adieresis" unicode="&#xe4;" horiz-adv-x="626" 
d="M220 621q-18 0 -30.5 12.5t-12.5 29.5t12.5 29.5t30.5 12.5q17 0 30 -12.5t13 -29.5t-13 -29.5t-30 -12.5zM401 621q-17 0 -30 12.5t-13 29.5t13 29.5t30 12.5t30 -12.5t13 -29.5t-13 -29.5t-30 -12.5zM292 -12q-106 0 -173.5 73t-67.5 184t67.5 184t173.5 73
q128 0 188 -108l2 82q0 14 13 14h43q13 0 13 -14v-462q0 -14 -13 -14h-43q-13 0 -13 14l-2 80q-58 -106 -188 -106zM302 55q79 0 128.5 52t49.5 136q0 85 -49.5 138.5t-128.5 53.5t-130 -53t-51 -137q0 -85 51 -137.5t130 -52.5z" />
    <glyph glyph-name="aring" unicode="&#xe5;" horiz-adv-x="626" 
d="M310 562q-34 0 -57 22.5t-23 55.5q0 34 23 56t57 22t57 -22t23 -56q0 -33 -23 -55.5t-57 -22.5zM310 612q12 0 20 8t8 20t-8 20t-20 8t-20 -8t-8 -20t8 -20t20 -8zM292 -12q-106 0 -173.5 73t-67.5 184t67.5 184t173.5 73q128 0 188 -108l2 82q0 14 13 14h43q13 0 13 -14
v-462q0 -14 -13 -14h-43q-13 0 -13 14l-2 80q-58 -106 -188 -106zM302 55q79 0 128.5 52t49.5 136q0 85 -49.5 138.5t-128.5 53.5t-130 -53t-51 -137q0 -85 51 -137.5t130 -52.5z" />
    <glyph glyph-name="ae" unicode="&#xe6;" horiz-adv-x="1008" 
d="M957 270q0 -28 -7.5 -39.5t-28.5 -11.5h-369q8 -76 58.5 -123t136.5 -47q79 0 141 47q9 7 15 -1l17 -23q7 -10 -4 -21q-66 -63 -175 -63q-83 0 -144 38.5t-90 103.5q-27 -65 -83.5 -103.5t-132.5 -38.5q-107 0 -173.5 72.5t-66.5 184.5q0 111 67.5 184t173.5 73
q124 0 189 -93l1 67q0 14 13 14h34q13 0 13 -14v-57q69 83 185 83q105 0 167.5 -68.5t62.5 -163.5zM552 275h341q-3 74 -48 118.5t-118 44.5t-120.5 -44t-54.5 -119zM302 55q79 0 128.5 52t49.5 136q0 85 -49.5 138.5t-128.5 53.5t-130 -53t-51 -137q0 -85 51 -137.5
t130 -52.5z" />
    <glyph glyph-name="ccedilla" unicode="&#xe7;" horiz-adv-x="546" 
d="M492 90q7 -7 -2 -20q-65 -78 -172 -82l-28 -28q37 -2 62 -22.5t25 -55.5q0 -56 -45 -78.5t-105 -14.5q-9 1 -9 11v25q0 10 11 10q91 -7 91 41q0 26 -26.5 36t-63.5 -2q-12 -3 -12 7v23q0 5 5 12l37 40q-92 16 -150.5 86t-58.5 167q0 110 73 183.5t182 73.5q115 0 183 -82
q9 -13 2 -20l-26 -24q-11 -11 -23 1q-54 58 -133 58q-81 0 -134.5 -53.5t-53.5 -136.5q0 -84 53.5 -137t135.5 -53q79 0 132 57q13 13 24 2z" />
    <glyph glyph-name="egrave" unicode="&#xe8;" horiz-adv-x="577" 
d="M307 557h-43q-11 0 -16 12l-55 115q-7 16 9 16h45q11 0 15 -12l54 -115q7 -16 -9 -16zM310 -12q-117 0 -188 74.5t-71 184.5q0 109 69 182t177 73q104 0 166.5 -68.5t62.5 -163.5q0 -28 -7.5 -39.5t-28.5 -11.5h-369q8 -76 58.5 -123t136.5 -47q79 0 141 47q9 7 15 -1
l17 -23q7 -10 -4 -21q-66 -63 -175 -63zM121 275h341q-3 74 -47.5 118.5t-118.5 44.5q-73 0 -120.5 -44t-54.5 -119z" />
    <glyph glyph-name="eacute" unicode="&#xe9;" horiz-adv-x="577" 
d="M271 557q-16 0 -9 16l54 115q5 12 16 12h44q16 0 9 -16l-55 -115q-4 -12 -15 -12h-44zM310 -12q-117 0 -188 74.5t-71 184.5q0 109 69 182t177 73q104 0 166.5 -68.5t62.5 -163.5q0 -28 -7.5 -39.5t-28.5 -11.5h-369q8 -76 58.5 -123t136.5 -47q79 0 141 47q9 7 15 -1
l17 -23q7 -10 -4 -21q-66 -63 -175 -63zM121 275h341q-3 74 -47.5 118.5t-118.5 44.5q-73 0 -120.5 -44t-54.5 -119z" />
    <glyph glyph-name="ecircumflex" unicode="&#xea;" horiz-adv-x="577" 
d="M169 574q-7 0 -9 5t2 9l86 104q7 8 16 8h50q9 0 16 -8l86 -104q4 -4 1.5 -9t-8.5 -5h-40q-9 0 -16 8l-64 80l-65 -80q-7 -8 -16 -8h-39zM310 -12q-117 0 -188 74.5t-71 184.5q0 109 69 182t177 73q104 0 166.5 -68.5t62.5 -163.5q0 -28 -7.5 -39.5t-28.5 -11.5h-369
q8 -76 58.5 -123t136.5 -47q79 0 141 47q9 7 15 -1l17 -23q7 -10 -4 -21q-66 -63 -175 -63zM121 275h341q-3 74 -47.5 118.5t-118.5 44.5q-73 0 -120.5 -44t-54.5 -119z" />
    <glyph glyph-name="edieresis" unicode="&#xeb;" horiz-adv-x="577" 
d="M198 621q-18 0 -30.5 12.5t-12.5 29.5t12.5 29.5t30.5 12.5q17 0 30 -12.5t13 -29.5t-13 -29.5t-30 -12.5zM379 621q-17 0 -30 12.5t-13 29.5t13 29.5t30 12.5t30 -12.5t13 -29.5t-13 -29.5t-30 -12.5zM310 -12q-117 0 -188 74.5t-71 184.5q0 109 69 182t177 73
q104 0 166.5 -68.5t62.5 -163.5q0 -28 -7.5 -39.5t-28.5 -11.5h-369q8 -76 58.5 -123t136.5 -47q79 0 141 47q9 7 15 -1l17 -23q7 -10 -4 -21q-66 -63 -175 -63zM121 275h341q-3 74 -47.5 118.5t-118.5 44.5q-73 0 -120.5 -44t-54.5 -119z" />
    <glyph glyph-name="igrave" unicode="&#xec;" horiz-adv-x="192" 
d="M115 557h-43q-11 0 -16 12l-55 115q-7 16 9 16h44q11 0 16 -12l54 -115q7 -16 -9 -16zM73 0q-13 0 -13 14v462q0 14 13 14h46q13 0 13 -14v-462q0 -14 -13 -14h-46z" />
    <glyph glyph-name="iacute" unicode="&#xed;" horiz-adv-x="192" 
d="M79 557q-16 0 -9 16l54 115q5 12 16 12h44q16 0 9 -16l-55 -115q-4 -12 -15 -12h-44zM73 0q-13 0 -13 14v462q0 14 13 14h46q13 0 13 -14v-462q0 -14 -13 -14h-46z" />
    <glyph glyph-name="icircumflex" unicode="&#xee;" horiz-adv-x="192" 
d="M-23 574q-7 0 -9 5t2 9l86 104q7 8 16 8h50q9 0 16 -8l86 -104q4 -4 1.5 -9t-8.5 -5h-40q-9 0 -16 8l-64 80l-65 -80q-7 -8 -16 -8h-39zM73 0q-13 0 -13 14v462q0 14 13 14h46q13 0 13 -14v-462q0 -14 -13 -14h-46z" />
    <glyph glyph-name="idieresis" unicode="&#xef;" horiz-adv-x="192" 
d="M7 621q-18 0 -30.5 12.5t-12.5 29.5t12.5 29.5t30.5 12.5q17 0 30 -12.5t13 -29.5t-13 -29.5t-30 -12.5zM188 621q-17 0 -30 12.5t-13 29.5t13 29.5t30 12.5t30 -12.5t13 -29.5t-13 -29.5t-30 -12.5zM73 0q-13 0 -13 14v462q0 14 13 14h46q13 0 13 -14v-462
q0 -14 -13 -14h-46z" />
    <glyph glyph-name="eth" unicode="&#xf0;" horiz-adv-x="591" 
d="M575 628q16 2 16 -14v-24q0 -14 -14 -16l-26 -4v-556q0 -14 -13 -14h-43q-13 0 -13 14l-2 80q-58 -106 -188 -106q-106 0 -173.5 73t-67.5 184t67.5 184t173.5 73q128 0 187 -105v163l-92 -13q-16 -2 -16 14v24q0 14 14 16l94 13v87q0 14 13 14h46q13 0 13 -14v-76z
M302 55q79 0 128.5 52t49.5 136q0 85 -49.5 138.5t-128.5 53.5t-130 -53t-51 -137q0 -85 51 -137.5t130 -52.5z" />
    <glyph glyph-name="ntilde" unicode="&#xf1;" 
d="M362 608q-38 0 -78 32t-64 32q-32 0 -43 -30q-3 -9 -11 -9h-15q-11 0 -9 12q4 35 27 54t56 19q36 0 75.5 -32.5t63.5 -32.5q31 0 42 30q3 9 11 9h15q10 0 10 -10q-4 -36 -26.5 -55t-53.5 -19zM89 0q-13 0 -13 14v462q0 14 13 14h42q14 0 14 -15l3 -63q50 90 162 90
q82 0 130.5 -52t48.5 -148v-288q0 -14 -13 -14h-47q-12 0 -12 14v281q0 66 -33.5 103t-93.5 37q-62 0 -102 -38t-40 -102v-281q0 -14 -13 -14h-46z" />
    <glyph glyph-name="ograve" unicode="&#xf2;" horiz-adv-x="603" 
d="M320 557h-43q-11 0 -16 12l-55 115q-7 16 9 16h45q11 0 15 -12l54 -115q7 -16 -9 -16zM302 -12q-107 0 -179 73.5t-72 183.5t72 183.5t179 73.5t178.5 -74t71.5 -183t-71.5 -183t-178.5 -74zM302 55q78 0 129 53.5t51 136.5t-51 136.5t-129 53.5t-129.5 -53.5
t-51.5 -136.5t51.5 -136.5t129.5 -53.5z" />
    <glyph glyph-name="oacute" unicode="&#xf3;" horiz-adv-x="603" 
d="M284 557q-16 0 -9 16l54 115q5 12 16 12h44q16 0 9 -16l-55 -115q-4 -12 -15 -12h-44zM302 -12q-107 0 -179 73.5t-72 183.5t72 183.5t179 73.5t178.5 -74t71.5 -183t-71.5 -183t-178.5 -74zM302 55q78 0 129 53.5t51 136.5t-51 136.5t-129 53.5t-129.5 -53.5
t-51.5 -136.5t51.5 -136.5t129.5 -53.5z" />
    <glyph glyph-name="ocircumflex" unicode="&#xf4;" horiz-adv-x="603" 
d="M182 574q-7 0 -9 5t2 9l86 104q7 8 16 8h50q9 0 16 -8l86 -104q4 -4 1.5 -9t-8.5 -5h-40q-9 0 -16 8l-64 80l-65 -80q-7 -8 -16 -8h-39zM302 -12q-107 0 -179 73.5t-72 183.5t72 183.5t179 73.5t178.5 -74t71.5 -183t-71.5 -183t-178.5 -74zM302 55q78 0 129 53.5
t51 136.5t-51 136.5t-129 53.5t-129.5 -53.5t-51.5 -136.5t51.5 -136.5t129.5 -53.5z" />
    <glyph glyph-name="otilde" unicode="&#xf5;" horiz-adv-x="603" 
d="M373 608q-39 0 -78.5 32t-63.5 32q-32 0 -43 -30q-3 -9 -11 -9h-15q-10 0 -9 12q4 35 27 54t56 19q36 0 75.5 -32.5t63.5 -32.5q31 0 42 30q3 9 11 9h15q10 0 10 -10q-4 -36 -26.5 -55t-53.5 -19zM302 -12q-107 0 -179 73.5t-72 183.5t72 183.5t179 73.5t178.5 -74
t71.5 -183t-71.5 -183t-178.5 -74zM302 55q78 0 129 53.5t51 136.5t-51 136.5t-129 53.5t-129.5 -53.5t-51.5 -136.5t51.5 -136.5t129.5 -53.5z" />
    <glyph glyph-name="odieresis" unicode="&#xf6;" horiz-adv-x="603" 
d="M212 621q-18 0 -30.5 12.5t-12.5 29.5t12.5 29.5t30.5 12.5q17 0 30 -12.5t13 -29.5t-13 -29.5t-30 -12.5zM393 621q-17 0 -30 12.5t-13 29.5t13 29.5t30 12.5t30 -12.5t13 -29.5t-13 -29.5t-30 -12.5zM302 -12q-107 0 -179 73.5t-72 183.5t72 183.5t179 73.5t178.5 -74
t71.5 -183t-71.5 -183t-178.5 -74zM302 55q78 0 129 53.5t51 136.5t-51 136.5t-129 53.5t-129.5 -53.5t-51.5 -136.5t51.5 -136.5t129.5 -53.5z" />
    <glyph glyph-name="divide" unicode="&#xf7;" horiz-adv-x="451" 
d="M226 378q-21 0 -35.5 14t-14.5 35q0 20 15 35t35 15t35 -15t15 -35q0 -21 -14.5 -35t-35.5 -14zM80 253q-15 0 -15 15v32q0 15 15 15h291q15 0 15 -15v-32q0 -15 -15 -15h-291zM226 97q-21 0 -35.5 14t-14.5 35q0 20 15 35t35 15t35 -15t15 -35q0 -21 -14.5 -35
t-35.5 -14z" />
    <glyph glyph-name="oslash" unicode="&#xf8;" horiz-adv-x="603" 
d="M428 469q57 -34 90.5 -93t33.5 -131q0 -109 -71.5 -183t-178.5 -74q-44 0 -86 14l-28 -61q-6 -11 -16 -11h-21q-17 0 -9 18l33 73q-57 34 -90.5 93t-33.5 131q0 110 72 183.5t179 73.5q45 0 85 -14l27 59q6 11 16 11h22q17 0 9 -18zM121 245q0 -52 22 -95t60 -67l156 343
q-27 9 -57 9q-78 0 -129.5 -53.5t-51.5 -136.5zM302 55q78 0 129 53.5t51 136.5q0 108 -82 162l-156 -343q27 -9 58 -9z" />
    <glyph glyph-name="ugrave" unicode="&#xf9;" 
d="M302 557h-43q-11 0 -16 12l-55 115q-7 16 9 16h45q11 0 15 -12l54 -115q7 -16 -9 -16zM254 -12q-81 0 -129.5 52t-48.5 148v288q0 14 13 14h46q13 0 13 -14v-281q0 -66 33 -103t93 -37q62 0 102.5 38t40.5 102v281q0 14 12 14h47q13 0 13 -14v-462q0 -14 -13 -14h-43
q-14 0 -14 15l-2 63q-50 -90 -163 -90z" />
    <glyph glyph-name="uacute" unicode="&#xfa;" 
d="M266 557q-16 0 -9 16l54 115q5 12 16 12h44q16 0 9 -16l-55 -115q-4 -12 -15 -12h-44zM254 -12q-81 0 -129.5 52t-48.5 148v288q0 14 13 14h46q13 0 13 -14v-281q0 -66 33 -103t93 -37q62 0 102.5 38t40.5 102v281q0 14 12 14h47q13 0 13 -14v-462q0 -14 -13 -14h-43
q-14 0 -14 15l-2 63q-50 -90 -163 -90z" />
    <glyph glyph-name="ucircumflex" unicode="&#xfb;" 
d="M164 574q-7 0 -9 5t2 9l86 104q7 8 16 8h50q9 0 16 -8l86 -104q4 -4 1.5 -9t-8.5 -5h-40q-9 0 -16 8l-64 80l-65 -80q-7 -8 -16 -8h-39zM254 -12q-81 0 -129.5 52t-48.5 148v288q0 14 13 14h46q13 0 13 -14v-281q0 -66 33 -103t93 -37q62 0 102.5 38t40.5 102v281
q0 14 12 14h47q13 0 13 -14v-462q0 -14 -13 -14h-43q-14 0 -14 15l-2 63q-50 -90 -163 -90z" />
    <glyph glyph-name="udieresis" unicode="&#xfc;" 
d="M194 621q-18 0 -30.5 12.5t-12.5 29.5t12.5 29.5t30.5 12.5q17 0 30 -12.5t13 -29.5t-13 -29.5t-30 -12.5zM375 621q-17 0 -30 12.5t-13 29.5t13 29.5t30 12.5t30 -12.5t13 -29.5t-13 -29.5t-30 -12.5zM254 -12q-81 0 -129.5 52t-48.5 148v288q0 14 13 14h46q13 0 13 -14
v-281q0 -66 33 -103t93 -37q62 0 102.5 38t40.5 102v281q0 14 12 14h47q13 0 13 -14v-462q0 -14 -13 -14h-43q-14 0 -14 15l-2 63q-50 -90 -163 -90z" />
    <glyph glyph-name="yacute" unicode="&#xfd;" horiz-adv-x="545" 
d="M255 557q-16 0 -9 16l54 115q5 12 16 12h44q16 0 9 -16l-55 -115q-4 -12 -15 -12h-44zM177 -190q-17 0 -10 15l69 173l-188 475q-6 17 11 17h46q11 0 16 -12l151 -398l152 398q4 12 16 12h46q17 0 11 -17l-258 -651q-5 -12 -17 -12h-45z" />
    <glyph glyph-name="thorn" unicode="&#xfe;" horiz-adv-x="626" 
d="M89 -190q-13 0 -13 14v877q0 14 13 14h46q13 0 13 -14v-304q58 102 186 105q107 0 174.5 -73t67.5 -184t-67.5 -184t-174.5 -73q-126 0 -186 103v-267q0 -14 -13 -14h-46zM324 55q80 0 131 52.5t51 137.5q0 84 -51 137t-131 53q-78 0 -127.5 -53.5t-49.5 -138.5
q0 -84 49.5 -136t127.5 -52z" />
    <glyph glyph-name="ydieresis" unicode="&#xff;" horiz-adv-x="545" 
d="M183 621q-18 0 -30.5 12.5t-12.5 29.5t12.5 29.5t30.5 12.5q17 0 30 -12.5t13 -29.5t-13 -29.5t-30 -12.5zM364 621q-17 0 -30 12.5t-13 29.5t13 29.5t30 12.5t30 -12.5t13 -29.5t-13 -29.5t-30 -12.5zM177 -190q-17 0 -10 15l69 173l-188 475q-6 17 11 17h46
q11 0 16 -12l151 -398l152 398q4 12 16 12h46q17 0 11 -17l-258 -651q-5 -12 -17 -12h-45z" />
    <glyph glyph-name="Amacron" unicode="&#x100;" horiz-adv-x="681" 
d="M204 850q-14 0 -14 14v32q0 14 14 14h273q14 0 14 -14v-32q0 -14 -14 -14h-273zM629 17q7 -17 -11 -17h-50q-12 0 -16 12l-51 145h-320l-51 -145q-4 -12 -17 -12h-49q-18 0 -11 17l242 671q5 12 18 12h55q14 0 18 -12zM205 224h272l-136 387z" />
    <glyph glyph-name="amacron" unicode="&#x101;" horiz-adv-x="626" 
d="M174 640q-14 0 -14 14v32q0 14 14 14h273q14 0 14 -14v-32q0 -14 -14 -14h-273zM292 -12q-106 0 -173.5 73t-67.5 184t67.5 184t173.5 73q128 0 188 -108l2 82q0 14 13 14h43q13 0 13 -14v-462q0 -14 -13 -14h-43q-13 0 -13 14l-2 80q-58 -106 -188 -106zM302 55
q79 0 128.5 52t49.5 136q0 85 -49.5 138.5t-128.5 53.5t-130 -53t-51 -137q0 -85 51 -137.5t130 -52.5z" />
    <glyph glyph-name="Abreve" unicode="&#x102;" horiz-adv-x="681" 
d="M341 780q-58 0 -94.5 32t-41.5 83q-1 15 14 15h21q13 0 16 -14q6 -30 28.5 -49t56.5 -19t57 19t29 49q3 14 16 14h20q15 0 14 -15q-5 -51 -41.5 -83t-94.5 -32zM629 17q7 -17 -11 -17h-50q-12 0 -16 12l-51 145h-320l-51 -145q-4 -12 -17 -12h-49q-18 0 -11 17l242 671
q5 12 18 12h55q14 0 18 -12zM205 224h272l-136 387z" />
    <glyph glyph-name="abreve" unicode="&#x103;" horiz-adv-x="626" 
d="M310 570q-58 0 -94.5 32t-41.5 83q-2 15 14 15h21q13 0 16 -14q6 -30 28.5 -49t56.5 -19t57 19t29 49q3 14 16 14h20q16 0 14 -15q-5 -51 -41.5 -83t-94.5 -32zM292 -12q-106 0 -173.5 73t-67.5 184t67.5 184t173.5 73q128 0 188 -108l2 82q0 14 13 14h43q13 0 13 -14
v-462q0 -14 -13 -14h-43q-13 0 -13 14l-2 80q-58 -106 -188 -106zM302 55q79 0 128.5 52t49.5 136q0 85 -49.5 138.5t-128.5 53.5t-130 -53t-51 -137q0 -85 51 -137.5t130 -52.5z" />
    <glyph glyph-name="Aogonek" unicode="&#x104;" horiz-adv-x="681" 
d="M629 17q7 -17 -11 -17h-2q-45 -2 -76 -28.5t-31 -66.5q0 -34 24.5 -49t65.5 -6v-48q-19 -9 -44.5 -8.5t-50 9.5t-41 32t-16.5 57q0 46 29.5 79t72.5 50l-48 136h-320l-51 -145q-4 -12 -17 -12h-49q-18 0 -11 17l242 671q5 12 18 12h55q14 0 18 -12zM205 224h272l-136 387
z" />
    <glyph glyph-name="aogonek" unicode="&#x105;" horiz-adv-x="626" 
d="M538 490q13 0 13 -14v-462q0 -14 -13 -14h-3q-46 -2 -77 -28.5t-31 -66.5q0 -35 24 -49.5t66 -5.5v-48q-19 -9 -44.5 -8.5t-50 9.5t-41 32t-16.5 57q0 50 34.5 84t82.5 50l-2 68q-58 -106 -188 -106q-106 0 -173.5 73t-67.5 184t67.5 184t173.5 73q128 0 188 -108l2 82
q0 14 13 14h43zM302 55q79 0 128.5 52t49.5 136q0 85 -49.5 138.5t-128.5 53.5t-130 -53t-51 -137q0 -85 51 -137.5t130 -52.5z" />
    <glyph glyph-name="Cacute" unicode="&#x106;" horiz-adv-x="726" 
d="M399 767q-16 0 -9 16l54 115q5 12 16 12h44q16 0 9 -16l-55 -115q-4 -12 -15 -12h-44zM421 -13q-154 0 -254.5 103.5t-100.5 256.5t100.5 257t254.5 104q135 0 236 -90q12 -12 3 -24l-28 -31q-10 -10 -22 0q-82 72 -187 72q-121 0 -201 -82t-80 -206t80 -205.5t201 -81.5
q105 0 187 72q12 10 21 1l29 -32q10 -10 -3 -23q-101 -91 -236 -91z" />
    <glyph glyph-name="cacute" unicode="&#x107;" horiz-adv-x="546" 
d="M278 557q-16 0 -9 16l54 115q5 12 16 12h44q16 0 9 -16l-55 -115q-4 -12 -15 -12h-44zM306 -12q-109 0 -182 73.5t-73 183.5t73 183.5t182 73.5q115 0 183 -82q9 -13 2 -20l-26 -24q-11 -11 -23 1q-54 58 -133 58q-81 0 -134.5 -53.5t-53.5 -136.5q0 -84 53.5 -137
t135.5 -53q79 0 132 57q13 13 24 2l26 -24q7 -7 -2 -20q-68 -82 -184 -82z" />
    <glyph glyph-name="Cdotaccent" unicode="&#x10a;" horiz-adv-x="726" 
d="M417 827q-19 0 -32.5 13t-13.5 32q0 20 13.5 33t32.5 13t31.5 -13t12.5 -33q0 -19 -12.5 -32t-31.5 -13zM421 -13q-154 0 -254.5 103.5t-100.5 256.5t100.5 257t254.5 104q135 0 236 -90q12 -12 3 -24l-28 -31q-10 -10 -22 0q-82 72 -187 72q-121 0 -201 -82t-80 -206
t80 -205.5t201 -81.5q105 0 187 72q12 10 21 1l29 -32q10 -10 -3 -23q-101 -91 -236 -91z" />
    <glyph glyph-name="cdotaccent" unicode="&#x10b;" horiz-adv-x="546" 
d="M296 617q-19 0 -32.5 13t-13.5 32q0 20 13 33t33 13q19 0 31.5 -13t12.5 -33q0 -19 -12.5 -32t-31.5 -13zM306 -12q-109 0 -182 73.5t-73 183.5t73 183.5t182 73.5q115 0 183 -82q9 -13 2 -20l-26 -24q-11 -11 -23 1q-54 58 -133 58q-81 0 -134.5 -53.5t-53.5 -136.5
q0 -84 53.5 -137t135.5 -53q79 0 132 57q13 13 24 2l26 -24q7 -7 -2 -20q-68 -82 -184 -82z" />
    <glyph glyph-name="Ccaron" unicode="&#x10c;" horiz-adv-x="726" 
d="M297 910h39q9 0 16 -8l65 -80l64 80q7 8 16 8h40q6 0 8.5 -5t-1.5 -9l-86 -104q-7 -8 -16 -8h-50q-9 0 -16 8l-86 104q-4 4 -2 9t9 5zM421 -13q-154 0 -254.5 103.5t-100.5 256.5t100.5 257t254.5 104q135 0 236 -90q12 -12 3 -24l-28 -31q-10 -10 -22 0q-82 72 -187 72
q-121 0 -201 -82t-80 -206t80 -205.5t201 -81.5q105 0 187 72q12 10 21 1l29 -32q10 -10 -3 -23q-101 -91 -236 -91z" />
    <glyph glyph-name="ccaron" unicode="&#x10d;" horiz-adv-x="546" 
d="M176 700h39q9 0 16 -8l65 -80l64 80q7 8 16 8h40q6 0 8.5 -5t-1.5 -9l-86 -104q-7 -8 -16 -8h-50q-9 0 -16 8l-86 104q-4 4 -2 9t9 5zM306 -12q-109 0 -182 73.5t-73 183.5t73 183.5t182 73.5q115 0 183 -82q9 -13 2 -20l-26 -24q-11 -11 -23 1q-54 58 -133 58
q-81 0 -134.5 -53.5t-53.5 -136.5q0 -84 53.5 -137t135.5 -53q79 0 132 57q13 13 24 2l26 -24q7 -7 -2 -20q-68 -82 -184 -82z" />
    <glyph glyph-name="Dcaron" unicode="&#x10e;" horiz-adv-x="669" 
d="M212 910h39q9 0 16 -8l65 -80l64 80q7 8 16 8h40q6 0 8.5 -5t-1.5 -9l-86 -104q-7 -8 -16 -8h-50q-9 0 -16 8l-86 104q-4 4 -2 9t9 5zM100 0q-14 0 -14 14v672q0 14 14 14h152q176 0 266 -96t90 -254t-90 -254t-266 -96h-152zM161 67h90q142 0 211.5 74t69.5 209
t-69.5 209t-211.5 74h-90v-566z" />
    <glyph glyph-name="dcaron" unicode="&#x10f;" horiz-adv-x="664" 
d="M292 -12q-106 0 -173.5 73t-67.5 184t67.5 184t173.5 73q128 0 187 -105v304q0 14 13 14h46q13 0 13 -14v-687q0 -14 -13 -14h-43q-13 0 -13 14l-2 80q-58 -106 -188 -106zM606 544q-16 0 -9 16l54 115q5 12 16 12h44q16 0 9 -16l-54 -115q-5 -12 -16 -12h-44zM302 55
q79 0 128.5 52t49.5 136q0 85 -49.5 138.5t-128.5 53.5t-130 -53t-51 -137q0 -85 51 -137.5t130 -52.5z" />
    <glyph glyph-name="Dcroat" unicode="&#x110;" horiz-adv-x="677" 
d="M260 700q176 0 266 -96t90 -254t-90 -254t-266 -96h-152q-14 0 -14 14v306h-55q-14 0 -14 14v32q0 14 14 14h55v306q0 14 14 14h152zM259 67q142 0 211.5 74t69.5 209t-69.5 209t-211.5 74h-90v-253h143q14 0 14 -14v-32q0 -14 -14 -14h-143v-253h90z" />
    <glyph glyph-name="dcroat" unicode="&#x111;" horiz-adv-x="620" 
d="M591 636q14 0 14 -14v-32q0 -14 -14 -14h-40v-562q0 -14 -13 -14h-43q-13 0 -13 14l-2 80q-58 -106 -188 -106q-106 0 -173.5 73t-67.5 184t67.5 184t173.5 73q128 0 187 -105v179h-161q-14 0 -14 14v32q0 14 14 14h161v65q0 14 13 14h46q13 0 13 -14v-65h40zM302 55
q79 0 128.5 52t49.5 136q0 85 -49.5 138.5t-128.5 53.5t-130 -53t-51 -137q0 -85 51 -137.5t130 -52.5z" />
    <glyph glyph-name="Emacron" unicode="&#x112;" horiz-adv-x="526" 
d="M137 850q-14 0 -14 14v32q0 14 14 14h273q14 0 14 -14v-32q0 -14 -14 -14h-273zM100 0q-14 0 -14 14v672q0 14 14 14h335q14 0 14 -14v-39q0 -14 -14 -14h-274v-238h260q14 0 14 -14v-39q0 -14 -14 -14h-260v-261h275q14 0 14 -14v-39q0 -14 -14 -14h-336z" />
    <glyph glyph-name="emacron" unicode="&#x113;" horiz-adv-x="577" 
d="M152 640q-14 0 -14 14v32q0 14 14 14h273q14 0 14 -14v-32q0 -14 -14 -14h-273zM310 -12q-117 0 -188 74.5t-71 184.5q0 109 69 182t177 73q104 0 166.5 -68.5t62.5 -163.5q0 -28 -7.5 -39.5t-28.5 -11.5h-369q8 -76 58.5 -123t136.5 -47q79 0 141 47q9 7 15 -1l17 -23
q7 -10 -4 -21q-66 -63 -175 -63zM121 275h341q-3 74 -47.5 118.5t-118.5 44.5q-73 0 -120.5 -44t-54.5 -119z" />
    <glyph glyph-name="Edotaccent" unicode="&#x116;" horiz-adv-x="526" 
d="M273 827q-19 0 -32.5 13t-13.5 32q0 20 13.5 33t32.5 13t31.5 -13t12.5 -33q0 -19 -12.5 -32t-31.5 -13zM100 0q-14 0 -14 14v672q0 14 14 14h335q14 0 14 -14v-39q0 -14 -14 -14h-274v-238h260q14 0 14 -14v-39q0 -14 -14 -14h-260v-261h275q14 0 14 -14v-39
q0 -14 -14 -14h-336z" />
    <glyph glyph-name="edotaccent" unicode="&#x117;" horiz-adv-x="577" 
d="M289 617q-19 0 -32.5 13t-13.5 32q0 20 13.5 33t32.5 13t31.5 -13t12.5 -33q0 -19 -12.5 -32t-31.5 -13zM310 -12q-117 0 -188 74.5t-71 184.5q0 109 69 182t177 73q104 0 166.5 -68.5t62.5 -163.5q0 -28 -7.5 -39.5t-28.5 -11.5h-369q8 -76 58.5 -123t136.5 -47
q79 0 141 47q9 7 15 -1l17 -23q7 -10 -4 -21q-66 -63 -175 -63zM121 275h341q-3 74 -47.5 118.5t-118.5 44.5q-73 0 -120.5 -44t-54.5 -119z" />
    <glyph glyph-name="Eogonek" unicode="&#x118;" horiz-adv-x="526" 
d="M436 67q14 0 14 -14v-39q0 -14 -14 -14q-45 -2 -76 -28.5t-31 -66.5q0 -34 24.5 -49t65.5 -6v-48q-19 -9 -44.5 -8.5t-50 9.5t-41 32t-16.5 57q0 65 62 108h-229q-14 0 -14 14v672q0 14 14 14h335q14 0 14 -14v-39q0 -14 -14 -14h-274v-238h260q14 0 14 -14v-39
q0 -14 -14 -14h-260v-261h275z" />
    <glyph glyph-name="eogonek" unicode="&#x119;" horiz-adv-x="577" 
d="M526 270q0 -28 -7.5 -39.5t-28.5 -11.5h-369q8 -76 58.5 -123t136.5 -47q79 0 141 47q9 7 15 -1l17 -23q7 -10 -4 -21q-38 -37 -98 -53q-95 -31 -95 -95q0 -35 24 -48.5t66 -4.5v-48q-19 -9 -44.5 -8.5t-50 9.5t-41 32t-16.5 56q0 58 54 98q-106 9 -169.5 81.5
t-63.5 176.5q0 109 69 182t177 73q104 0 166.5 -68.5t62.5 -163.5zM121 275h341q-3 74 -47.5 118.5t-118.5 44.5q-73 0 -120.5 -44t-54.5 -119z" />
    <glyph glyph-name="Ecaron" unicode="&#x11a;" horiz-adv-x="526" 
d="M153 910h39q9 0 16 -8l65 -80l64 80q7 8 16 8h40q6 0 8.5 -5t-1.5 -9l-86 -104q-7 -8 -16 -8h-50q-9 0 -16 8l-86 104q-4 4 -2 9t9 5zM100 0q-14 0 -14 14v672q0 14 14 14h335q14 0 14 -14v-39q0 -14 -14 -14h-274v-238h260q14 0 14 -14v-39q0 -14 -14 -14h-260v-261h275
q14 0 14 -14v-39q0 -14 -14 -14h-336z" />
    <glyph glyph-name="ecaron" unicode="&#x11b;" horiz-adv-x="577" 
d="M169 700h39q9 0 16 -8l65 -80l64 80q7 8 16 8h40q6 0 8.5 -5t-1.5 -9l-86 -104q-7 -8 -16 -8h-50q-9 0 -16 8l-86 104q-4 4 -2 9t9 5zM310 -12q-117 0 -188 74.5t-71 184.5q0 109 69 182t177 73q104 0 166.5 -68.5t62.5 -163.5q0 -28 -7.5 -39.5t-28.5 -11.5h-369
q8 -76 58.5 -123t136.5 -47q79 0 141 47q9 7 15 -1l17 -23q7 -10 -4 -21q-66 -63 -175 -63zM121 275h341q-3 74 -47.5 118.5t-118.5 44.5q-73 0 -120.5 -44t-54.5 -119z" />
    <glyph glyph-name="Gbreve" unicode="&#x11e;" horiz-adv-x="803" 
d="M421 780q-58 0 -94.5 32t-41.5 83q-1 15 14 15h21q13 0 16 -14q6 -30 28.5 -49t56.5 -19t57 19t29 49q3 14 16 14h20q15 0 14 -15q-5 -51 -41.5 -83t-94.5 -32zM425 -13q-155 0 -257 103.5t-102 256.5t101.5 257t256.5 104q137 0 236 -94q10 -10 2 -17l-31 -36
q-7 -9 -17 -1q-84 75 -190 75q-121 0 -201.5 -82t-80.5 -206t80.5 -205.5t202.5 -81.5q110 0 180 66t70 169h-240q-14 0 -14 14v41q0 13 14 13h298q15 0 15 -15v-31q0 -143 -88.5 -236.5t-234.5 -93.5z" />
    <glyph glyph-name="gbreve" unicode="&#x11f;" horiz-adv-x="621" 
d="M310 570q-58 0 -94.5 32t-41.5 83q-2 15 14 15h21q13 0 16 -14q6 -30 28.5 -49t56.5 -19t57 19t29 49q3 14 16 14h20q16 0 14 -15q-5 -51 -41.5 -83t-94.5 -32zM294 -205q-103 0 -171 47q-13 8 -7 20l15 28q7 12 18 5q61 -38 142 -38q80 0 132 39.5t52 126.5v82
q-59 -99 -186 -99q-105 0 -171.5 69.5t-66.5 178.5t66.5 178.5t170.5 69.5q128 0 188 -102l1 76q0 14 12 14h43q13 0 13 -14v-457q0 -76 -37 -128t-92 -74t-122 -22zM299 72q78 0 126.5 49t48.5 131q0 83 -48.5 133.5t-126.5 50.5q-77 0 -127.5 -50t-50.5 -132t50.5 -132
t127.5 -50z" />
    <glyph glyph-name="Gdotaccent" unicode="&#x120;" horiz-adv-x="803" 
d="M421 827q-19 0 -32.5 13t-13.5 32q0 20 13.5 33t32.5 13t31.5 -13t12.5 -33q0 -19 -12.5 -32t-31.5 -13zM425 -13q-155 0 -257 103.5t-102 256.5t101.5 257t256.5 104q137 0 236 -94q10 -10 2 -17l-31 -36q-7 -9 -17 -1q-84 75 -190 75q-121 0 -201.5 -82t-80.5 -206
t80.5 -205.5t202.5 -81.5q110 0 180 66t70 169h-240q-14 0 -14 14v41q0 13 14 13h298q15 0 15 -15v-31q0 -143 -88.5 -236.5t-234.5 -93.5z" />
    <glyph glyph-name="gdotaccent" unicode="&#x121;" horiz-adv-x="621" 
d="M311 617q-19 0 -32.5 13t-13.5 32q0 20 13.5 33t32.5 13t31.5 -13t12.5 -33q0 -19 -12.5 -32t-31.5 -13zM294 -205q-103 0 -171 47q-13 8 -7 20l15 28q7 12 18 5q61 -38 142 -38q80 0 132 39.5t52 126.5v82q-59 -99 -186 -99q-105 0 -171.5 69.5t-66.5 178.5t66.5 178.5
t170.5 69.5q128 0 188 -102l1 76q0 14 12 14h43q13 0 13 -14v-457q0 -76 -37 -128t-92 -74t-122 -22zM299 72q78 0 126.5 49t48.5 131q0 83 -48.5 133.5t-126.5 50.5q-77 0 -127.5 -50t-50.5 -132t50.5 -132t127.5 -50z" />
    <glyph glyph-name="uni0122" unicode="&#x122;" horiz-adv-x="803" 
d="M425 -13q-155 0 -257 103.5t-102 256.5t101.5 257t256.5 104q137 0 236 -94q10 -10 2 -17l-31 -36q-7 -9 -17 -1q-84 75 -190 75q-121 0 -201.5 -82t-80.5 -206t80.5 -205.5t202.5 -81.5q110 0 180 66t70 169h-240q-14 0 -14 14v41q0 13 14 13h298q15 0 15 -15v-31
q0 -143 -88.5 -236.5t-234.5 -93.5zM360 -248v27q44 1 64 40q15 29 1 40q-3 2 -8 2q-25 -1 -40.5 14t-15.5 38t16.5 38.5t39.5 15.5q28 0 47.5 -23.5t19.5 -61.5q0 -52 -35 -91.5t-89 -38.5z" />
    <glyph glyph-name="uni0123" unicode="&#x123;" horiz-adv-x="621" 
d="M363 766v-27q-45 -1 -65 -41q-14 -29 0 -40q3 -2 8 -2q25 1 40.5 -14t15.5 -38t-16.5 -38t-39.5 -15q-29 0 -48 23t-19 61q0 52 35 91.5t89 39.5zM294 -205q-103 0 -171 47q-13 8 -7 20l15 28q7 12 18 5q61 -38 142 -38q80 0 132 39.5t52 126.5v82q-59 -99 -186 -99
q-105 0 -171.5 69.5t-66.5 178.5t66.5 178.5t170.5 69.5q128 0 188 -102l1 76q0 14 12 14h43q13 0 13 -14v-457q0 -76 -37 -128t-92 -74t-122 -22zM299 72q78 0 126.5 49t48.5 131q0 83 -48.5 133.5t-126.5 50.5q-77 0 -127.5 -50t-50.5 -132t50.5 -132t127.5 -50z" />
    <glyph glyph-name="Hbar" unicode="&#x126;" horiz-adv-x="652" 
d="M552 700q14 0 14 -14v-672q0 -14 -14 -14h-47q-14 0 -14 14v300h-330v-300q0 -14 -14 -14h-47q-14 0 -14 14v672q0 14 14 14h47q14 0 14 -14v-140h330v140q0 14 14 14h47zM161 381h330v100h-330v-100z" />
    <glyph glyph-name="hbar" unicode="&#x127;" horiz-adv-x="569" 
d="M315 502q81 0 129.5 -52t48.5 -148v-288q0 -14 -13 -14h-46q-13 0 -13 14v281q0 66 -33 103t-93 37q-62 0 -102 -38t-40 -102v-281q0 -14 -13 -14h-47q-12 0 -12 14v561h-52q-14 0 -14 14v32q0 14 14 14h52v66q0 14 12 14h47q13 0 13 -14v-66h149q14 0 14 -14v-32
q0 -14 -14 -14h-149v-163q50 90 162 90z" />
    <glyph glyph-name="Imacron" unicode="&#x12a;" horiz-adv-x="246" 
d="M-13 850q-14 0 -14 14v32q0 14 14 14h273q14 0 14 -14v-32q0 -14 -14 -14h-273zM100 0q-14 0 -14 14v672q0 14 14 14h47q14 0 14 -14v-672q0 -14 -14 -14h-47z" />
    <glyph glyph-name="imacron" unicode="&#x12b;" horiz-adv-x="192" 
d="M-40 640q-14 0 -14 14v32q0 14 14 14h273q14 0 14 -14v-32q0 -14 -14 -14h-273zM73 0q-13 0 -13 14v462q0 14 13 14h46q13 0 13 -14v-462q0 -14 -13 -14h-46z" />
    <glyph glyph-name="Iogonek" unicode="&#x12e;" horiz-adv-x="246" 
d="M147 700q14 0 14 -14v-672q0 -14 -14 -14q-45 -2 -76 -28.5t-31 -66.5q0 -34 24.5 -49t65.5 -6v-48q-19 -9 -44.5 -8.5t-50 9.5t-41 32t-16.5 57q0 48 31.5 81.5t76.5 49.5v663q0 14 14 14h47z" />
    <glyph glyph-name="iogonek" unicode="&#x12f;" horiz-adv-x="192" 
d="M97 617q-19 0 -32.5 13t-13.5 32q0 20 13.5 33t32.5 13t31.5 -13t12.5 -33q0 -19 -12.5 -32t-31.5 -13zM119 490q13 0 13 -14v-462q0 -14 -12 -14q-45 -2 -76 -28.5t-31 -66.5q0 -34 24.5 -49t65.5 -6v-48q-19 -9 -44.5 -8.5t-50 9.5t-41 32t-16.5 57q0 48 31.5 81.5
t77.5 50.5v452q0 14 13 14h46z" />
    <glyph glyph-name="Idotaccent" unicode="&#x130;" horiz-adv-x="246" 
d="M124 827q-19 0 -32.5 13t-13.5 32q0 20 13 33t33 13q19 0 31.5 -13t12.5 -33q0 -19 -12.5 -32t-31.5 -13zM100 0q-14 0 -14 14v672q0 14 14 14h47q14 0 14 -14v-672q0 -14 -14 -14h-47z" />
    <glyph glyph-name="dotlessi" unicode="&#x131;" horiz-adv-x="192" 
d="M73 0q-13 0 -13 14v462q0 14 13 14h46q13 0 13 -14v-462q0 -14 -13 -14h-46z" />
    <glyph glyph-name="IJ" unicode="&#x132;" horiz-adv-x="748" 
d="M100 0q-14 0 -14 14v672q0 14 14 14h47q14 0 14 -14v-672q0 -14 -14 -14h-47zM461 -13q-94 0 -156 68q-8 11 1 20l25 33q9 10 18 1q18 -16 30 -24.5t34 -16.5t47 -8q127 0 127 167v459q0 14 14 14h47q14 0 14 -14v-461q0 -116 -54 -177t-147 -61z" />
    <glyph glyph-name="ij" unicode="&#x133;" horiz-adv-x="457" 
d="M112 617q-19 0 -32 13t-13 32t13 32.5t32 13.5t32 -13.5t13 -32.5t-13 -32t-32 -13zM345 617q-19 0 -32 13t-13 32t13 32.5t32 13.5t32 -13.5t13 -32.5t-13 -32t-32 -13zM89 0q-13 0 -13 14v462q0 14 13 14h46q13 0 13 -14v-462q0 -14 -13 -14h-46zM253 -200q-31 0 -48 8
q-9 4 -9 13v41q0 9 12 7q20 -3 33 -3q39 0 53.5 21t14.5 59v530q0 14 13 14h46q13 0 13 -14v-546q0 -130 -128 -130z" />
    <glyph glyph-name="uni0136" unicode="&#x136;" horiz-adv-x="613" 
d="M100 0q-14 0 -14 14v672q0 14 14 14h47q14 0 14 -14v-381l290 387q7 8 18 8h59q10 0 12 -5t-4 -13l-241 -308l269 -356q5 -8 2.5 -13t-11.5 -5h-55q-12 0 -18 9l-232 308l-89 -115v-188q0 -14 -14 -14h-47zM206 -248v27q44 1 64 40q15 29 1 40q-3 2 -8 2q-25 -1 -40.5 14
t-15.5 38t16.5 38.5t39.5 15.5q28 0 47.5 -23.5t19.5 -61.5q0 -52 -35 -91.5t-89 -38.5z" />
    <glyph glyph-name="uni0137" unicode="&#x137;" horiz-adv-x="529" 
d="M89 0q-13 0 -13 14v687q0 14 13 14h46q13 0 13 -14v-471l230 252q7 8 17 8h58q8 0 9.5 -5t-4.5 -10l-181 -194l208 -265q5 -6 2.5 -11t-11.5 -5h-49q-12 0 -18 9l-176 223l-85 -91v-127q0 -14 -13 -14h-46zM209 -248v27q44 1 64 40q15 29 1 40q-3 2 -8 2q-25 -1 -40.5 14
t-15.5 38t16.5 38.5t39.5 15.5q28 0 47.5 -23.5t19.5 -61.5q0 -52 -35 -91.5t-89 -38.5z" />
    <glyph glyph-name="Lacute" unicode="&#x139;" horiz-adv-x="484" 
d="M109 735q-16 0 -9 16l54 115q5 12 16 12h44q16 0 9 -16l-54 -115q-5 -12 -16 -12h-44zM415 67q15 0 15 -15v-37q0 -15 -15 -15h-315q-14 0 -14 14v672q0 14 14 14h47q14 0 14 -14v-619h254z" />
    <glyph glyph-name="lacute" unicode="&#x13a;" horiz-adv-x="223" 
d="M95 783q-16 0 -9 16l54 115q5 12 16 12h44q16 0 9 -16l-55 -115q-4 -12 -15 -12h-44zM89 0q-13 0 -13 14v687q0 14 13 14h46q13 0 13 -14v-687q0 -14 -13 -14h-46z" />
    <glyph glyph-name="uni013B" unicode="&#x13b;" horiz-adv-x="485" 
d="M415 67q15 0 15 -15v-37q0 -15 -15 -15h-315q-14 0 -14 14v672q0 14 14 14h47q14 0 14 -14v-619h254zM248 -33q28 0 47.5 -23.5t19.5 -61.5q0 -52 -35 -91.5t-89 -38.5v27q44 1 64 40q15 29 1 40q-3 2 -8 2q-25 -1 -40.5 14t-15.5 38t16.5 38.5t39.5 15.5z" />
    <glyph glyph-name="uni013C" unicode="&#x13c;" horiz-adv-x="223" 
d="M89 0q-13 0 -13 14v687q0 14 13 14h46q13 0 13 -14v-687q0 -14 -13 -14h-46zM54 -248v27q44 1 64 40q15 29 1 40q-3 2 -8 2q-25 -1 -40.5 14t-15.5 38t16.5 38.5t39.5 15.5q28 0 47.5 -23.5t19.5 -61.5q0 -52 -35 -91.5t-89 -38.5z" />
    <glyph glyph-name="Lcaron" unicode="&#x13d;" horiz-adv-x="485" 
d="M367 625q0 -52 -35 -91.5t-89 -38.5v27q45 1 65 41q14 29 0 40q-3 2 -8 2q-25 -1 -40.5 13.5t-15.5 37.5t16.5 38.5t39.5 15.5q28 0 47.5 -23.5t19.5 -61.5zM415 67q15 0 15 -15v-37q0 -15 -15 -15h-315q-14 0 -14 14v672q0 14 14 14h47q14 0 14 -14v-619h254z" />
    <glyph glyph-name="lcaron" unicode="&#x13e;" horiz-adv-x="308" 
d="M183 535v27q45 1 65 41q14 29 0 40q-3 2 -8 2q-24 -1 -39.5 13.5t-15.5 37.5q0 24 16 39t39 15q28 0 47.5 -23.5t19.5 -61.5q0 -52 -35 -91.5t-89 -38.5zM89 0q-13 0 -13 14v687q0 14 13 14h46q13 0 13 -14v-687q0 -14 -13 -14h-46z" />
    <glyph glyph-name="Ldot" unicode="&#x13f;" horiz-adv-x="483" 
d="M415 67q15 0 15 -15v-37q0 -15 -15 -15h-315q-14 0 -14 14v672q0 14 14 14h47q14 0 14 -14v-619h254zM325 325q-21 0 -36 14.5t-15 36.5q0 21 15 36.5t36 15.5q22 0 37 -15.5t15 -36.5q0 -22 -15 -36.5t-37 -14.5z" />
    <glyph glyph-name="ldot" unicode="&#x140;" horiz-adv-x="231" 
d="M89 0q-13 0 -13 14v687q0 14 13 14h46q13 0 13 -14v-687q0 -14 -13 -14h-46zM238 323q-21 0 -36.5 15t-15.5 36t15.5 36.5t36.5 15.5t36.5 -15.5t15.5 -36.5t-15.5 -36t-36.5 -15z" />
    <glyph glyph-name="Lslash" unicode="&#x141;" horiz-adv-x="501" 
d="M430 67q15 0 15 -15v-37q0 -15 -15 -15h-315q-13 0 -13 14v238l-54 -52q-8 -7 -13 -4.5t-5 12.5v47q0 11 8 19l64 62v350q0 14 13 14h47q14 0 14 -14v-279l95 92q7 7 12.5 4.5t5.5 -12.5v-46q0 -11 -8 -19l-105 -102v-257h254z" />
    <glyph glyph-name="lslash" unicode="&#x142;" horiz-adv-x="251" 
d="M256 465l-95 -103v-348q0 -14 -13 -14h-46q-13 0 -13 14v269l-94 -102v55l94 102v363q0 14 13 14h46q13 0 13 -14v-284l94 102z" />
    <glyph glyph-name="Nacute" unicode="&#x143;" horiz-adv-x="669" 
d="M317 767q-16 0 -9 16l54 115q5 12 16 12h44q16 0 9 -16l-55 -115q-4 -12 -15 -12h-44zM569 700q14 0 14 -14v-672q0 -14 -14 -14h-64q-12 0 -18 10l-326 583v-579q0 -14 -14 -14h-47q-14 0 -14 14v672q0 14 14 14h64q12 0 18 -10l326 -583v579q0 14 14 14h47z" />
    <glyph glyph-name="nacute" unicode="&#x144;" 
d="M272 557q-16 0 -9 16l54 115q5 12 16 12h44q16 0 9 -16l-55 -115q-4 -12 -15 -12h-44zM89 0q-13 0 -13 14v462q0 14 13 14h42q14 0 14 -15l3 -63q50 90 162 90q82 0 130.5 -52t48.5 -148v-288q0 -14 -13 -14h-47q-12 0 -12 14v281q0 66 -33.5 103t-93.5 37
q-62 0 -102 -38t-40 -102v-281q0 -14 -13 -14h-46z" />
    <glyph glyph-name="uni0145" unicode="&#x145;" horiz-adv-x="669" 
d="M569 700q14 0 14 -14v-672q0 -14 -14 -14h-64q-12 0 -18 10l-326 583v-579q0 -14 -14 -14h-47q-14 0 -14 14v672q0 14 14 14h64q12 0 18 -10l326 -583v579q0 14 14 14h47zM333 -33q28 0 47.5 -23.5t19.5 -61.5q0 -52 -35 -91.5t-89 -38.5v27q44 1 64 40q15 29 1 40
q-3 2 -8 2q-25 -1 -40.5 14t-15.5 38t16.5 38.5t39.5 15.5z" />
    <glyph glyph-name="uni0146" unicode="&#x146;" 
d="M89 0q-13 0 -13 14v462q0 14 13 14h42q14 0 14 -15l3 -63q50 90 162 90q82 0 130.5 -52t48.5 -148v-288q0 -14 -13 -14h-47q-12 0 -12 14v281q0 66 -33.5 103t-93.5 37q-62 0 -102 -38t-40 -102v-281q0 -14 -13 -14h-46zM231 -248v27q44 1 64 40q15 29 1 40q-3 2 -8 2
q-25 -1 -40.5 14t-15.5 38t16.5 38.5t39.5 15.5q28 0 47.5 -23.5t19.5 -61.5q0 -52 -35 -91.5t-89 -38.5z" />
    <glyph glyph-name="Ncaron" unicode="&#x147;" horiz-adv-x="669" 
d="M294 792l-86 104q-4 4 -2 9t9 5h39q9 0 16 -8l65 -80l64 80q7 8 16 8h40q6 0 8.5 -5t-1.5 -9l-86 -104q-7 -8 -16 -8h-50q-9 0 -16 8zM569 700q14 0 14 -14v-672q0 -14 -14 -14h-64q-12 0 -18 10l-326 583v-579q0 -14 -14 -14h-47q-14 0 -14 14v672q0 14 14 14h64
q12 0 18 -10l326 -583v579q0 14 14 14h47z" />
    <glyph glyph-name="ncaron" unicode="&#x148;" 
d="M170 700h39q9 0 16 -8l65 -80l64 80q7 8 16 8h40q6 0 8.5 -5t-1.5 -9l-86 -104q-7 -8 -16 -8h-50q-9 0 -16 8l-86 104q-4 4 -2 9t9 5zM89 0q-13 0 -13 14v462q0 14 13 14h42q14 0 14 -15l3 -63q50 90 162 90q82 0 130.5 -52t48.5 -148v-288q0 -14 -13 -14h-47
q-12 0 -12 14v281q0 66 -33.5 103t-93.5 37q-62 0 -102 -38t-40 -102v-281q0 -14 -13 -14h-46z" />
    <glyph glyph-name="Eng" unicode="&#x14a;" horiz-adv-x="669" 
d="M569 700q14 0 14 -14v-704q0 -103 -54.5 -161t-146.5 -58q-94 0 -156 68q-8 11 0 20l26 33q9 10 18 1q18 -16 30 -24.5t34 -16.5t47 -8q60 0 93.5 38t33.5 106v20h-3q-12 0 -18 10l-326 583v-579q0 -14 -14 -14h-47q-14 0 -14 14v672q0 14 14 14h64q12 0 18 -10l326 -583
v579q0 14 14 14h47z" />
    <glyph glyph-name="eng" unicode="&#x14b;" 
d="M310 502q82 0 130.5 -52t48.5 -148v-308q0 -93 -42 -142.5t-119 -49.5q-10 0 -10 9l-13 46q-4 11 9 11q103 0 103 143v284q0 66 -33.5 103t-93.5 37q-62 0 -102 -38t-40 -102v-281q0 -14 -13 -14h-46q-13 0 -13 14v462q0 14 13 14h42q14 0 14 -15l3 -63q50 90 162 90z
" />
    <glyph glyph-name="Omacron" unicode="&#x14c;" horiz-adv-x="847" 
d="M287 850q-14 0 -14 14v32q0 14 14 14h273q14 0 14 -14v-32q0 -14 -14 -14h-273zM424 -13q-151 0 -254.5 104t-103.5 256t103.5 256.5t254.5 104.5t254.5 -104.5t103.5 -256.5t-103.5 -256t-254.5 -104zM424 60q120 0 201 82t81 205t-81 205.5t-201 82.5
q-121 0 -201.5 -82t-80.5 -206q0 -123 80.5 -205t201.5 -82z" />
    <glyph glyph-name="omacron" unicode="&#x14d;" horiz-adv-x="603" 
d="M165 640q-14 0 -14 14v32q0 14 14 14h273q14 0 14 -14v-32q0 -14 -14 -14h-273zM302 -12q-107 0 -179 73.5t-72 183.5t72 183.5t179 73.5t178.5 -74t71.5 -183t-71.5 -183t-178.5 -74zM302 55q78 0 129 53.5t51 136.5t-51 136.5t-129 53.5t-129.5 -53.5t-51.5 -136.5
t51.5 -136.5t129.5 -53.5z" />
    <glyph glyph-name="Ohungarumlaut" unicode="&#x150;" horiz-adv-x="847" 
d="M335 767q-16 0 -9 16l54 115q5 12 16 12h44q16 0 9 -16l-55 -115q-4 -12 -15 -12h-44zM467 767q-15 0 -8 16l53 115q5 12 16 12h45q16 0 9 -16l-55 -115q-5 -12 -16 -12h-44zM424 -13q-151 0 -254.5 104t-103.5 256t103.5 256.5t254.5 104.5t254.5 -104.5t103.5 -256.5
t-103.5 -256t-254.5 -104zM424 60q120 0 201 82t81 205t-81 205.5t-201 82.5q-121 0 -201.5 -82t-80.5 -206q0 -123 80.5 -205t201.5 -82z" />
    <glyph glyph-name="ohungarumlaut" unicode="&#x151;" horiz-adv-x="603" 
d="M213 557q-16 0 -9 16l54 115q5 12 16 12h44q16 0 9 -16l-55 -115q-4 -12 -15 -12h-44zM345 557q-15 0 -8 16l53 115q5 12 16 12h45q16 0 9 -16l-55 -115q-5 -12 -16 -12h-44zM302 -12q-107 0 -179 73.5t-72 183.5t72 183.5t179 73.5t178.5 -74t71.5 -183t-71.5 -183
t-178.5 -74zM302 55q78 0 129 53.5t51 136.5t-51 136.5t-129 53.5t-129.5 -53.5t-51.5 -136.5t51.5 -136.5t129.5 -53.5z" />
    <glyph glyph-name="OE" unicode="&#x152;" horiz-adv-x="1150" 
d="M1061 67q14 0 14 -14v-39q0 -14 -14 -14h-336q-14 0 -14 14v115q-50 -66 -124.5 -104t-162.5 -38q-151 0 -254.5 104t-103.5 256t103.5 256.5t254.5 104.5q88 0 162.5 -38t124.5 -104v120q0 14 14 14h335q14 0 14 -14v-39q0 -14 -14 -14h-274v-238h260q14 0 14 -14v-39
q0 -14 -14 -14h-260v-261h275zM424 60q120 0 201 82t81 205t-81 205.5t-201 82.5q-121 0 -201.5 -82t-80.5 -206q0 -123 80.5 -205t201.5 -82z" />
    <glyph glyph-name="oe" unicode="&#x153;" horiz-adv-x="1010" 
d="M960 270q0 -28 -7.5 -39.5t-29.5 -11.5h-369q8 -76 58.5 -123t136.5 -47q80 0 142 47q9 7 15 -1l17 -23q7 -10 -4 -21q-66 -63 -175 -63q-77 0 -135 33.5t-91 90.5q-33 -57 -90 -90.5t-126 -33.5q-107 0 -179 73.5t-72 183.5t72 183.5t179 73.5q69 0 125.5 -33t89.5 -89
q31 57 86.5 89.5t126.5 32.5q105 0 167.5 -68.5t62.5 -163.5zM554 275h341q-3 74 -47.5 118.5t-117.5 44.5t-120.5 -44t-55.5 -119zM302 55q78 0 129 53.5t51 136.5t-51 136.5t-129 53.5t-129.5 -53.5t-51.5 -136.5t51.5 -136.5t129.5 -53.5z" />
    <glyph glyph-name="Racute" unicode="&#x154;" horiz-adv-x="579" 
d="M266 767q-16 0 -9 16l54 115q5 12 16 12h44q16 0 9 -16l-55 -115q-4 -12 -15 -12h-44zM520 18q11 -18 -10 -18h-50q-12 0 -18 10l-169 255h-112v-251q0 -14 -14 -14h-47q-14 0 -14 14v672q0 14 14 14h191q110 0 170 -60t60 -158q0 -83 -44 -140t-127 -72zM161 633v-301
h124q74 0 118.5 36t44.5 114q0 79 -44.5 115t-118.5 36h-124z" />
    <glyph glyph-name="racute" unicode="&#x155;" horiz-adv-x="354" 
d="M168 557q-16 0 -9 16l54 115q5 12 16 12h44q16 0 9 -16l-55 -115q-4 -12 -15 -12h-44zM89 0q-13 0 -13 14v462q0 14 13 14h42q14 0 14 -15l2 -56q34 83 113 83q30 0 45 -10q8 -5 8 -17v-34q0 -15 -18 -10q-16 5 -35 5q-59 0 -85.5 -41t-26.5 -93v-288q0 -14 -13 -14h-46z
" />
    <glyph glyph-name="uni0156" unicode="&#x156;" horiz-adv-x="579" 
d="M520 18q11 -18 -10 -18h-50q-12 0 -18 10l-169 255h-112v-251q0 -14 -14 -14h-47q-14 0 -14 14v672q0 14 14 14h191q110 0 170 -60t60 -158q0 -83 -44 -140t-127 -72zM161 633v-301h124q74 0 118.5 36t44.5 114q0 79 -44.5 115t-118.5 36h-124zM282 -33q28 0 47.5 -23.5
t19.5 -61.5q0 -52 -35 -91.5t-89 -38.5v27q44 1 64 40q15 29 1 40q-3 2 -8 2q-25 -1 -40.5 14t-15.5 38t16.5 38.5t39.5 15.5z" />
    <glyph glyph-name="uni0157" unicode="&#x157;" horiz-adv-x="354" 
d="M89 0q-13 0 -13 14v462q0 14 13 14h42q14 0 14 -15l2 -56q34 83 113 83q30 0 45 -10q8 -5 8 -17v-34q0 -15 -18 -10q-16 5 -35 5q-59 0 -85.5 -41t-26.5 -93v-288q0 -14 -13 -14h-46zM54 -248v27q44 1 64 40q15 29 1 40q-3 2 -8 2q-25 -1 -40.5 14t-15.5 38t16.5 38.5
t39.5 15.5q28 0 47.5 -23.5t19.5 -61.5q0 -52 -35 -91.5t-89 -38.5z" />
    <glyph glyph-name="Rcaron" unicode="&#x158;" horiz-adv-x="579" 
d="M243 792l-86 104q-4 4 -2 9t9 5h39q9 0 16 -8l65 -80l64 80q7 8 16 8h40q6 0 8.5 -5t-1.5 -9l-86 -104q-7 -8 -16 -8h-50q-9 0 -16 8zM520 18q11 -18 -10 -18h-50q-12 0 -18 10l-169 255h-112v-251q0 -14 -14 -14h-47q-14 0 -14 14v672q0 14 14 14h191q110 0 170 -60
t60 -158q0 -83 -44 -140t-127 -72zM161 633v-301h124q74 0 118.5 36t44.5 114q0 79 -44.5 115t-118.5 36h-124z" />
    <glyph glyph-name="rcaron" unicode="&#x159;" horiz-adv-x="354" 
d="M66 700h39q9 0 16 -8l65 -80l64 80q7 8 16 8h40q6 0 8.5 -5t-1.5 -9l-86 -104q-7 -8 -16 -8h-50q-9 0 -16 8l-86 104q-4 4 -2 9t9 5zM89 0q-13 0 -13 14v462q0 14 13 14h42q14 0 14 -15l2 -56q34 83 113 83q30 0 45 -10q8 -5 8 -17v-34q0 -15 -18 -10q-16 5 -35 5
q-59 0 -85.5 -41t-26.5 -93v-288q0 -14 -13 -14h-46z" />
    <glyph glyph-name="Sacute" unicode="&#x15a;" horiz-adv-x="539" 
d="M240 767q-16 0 -9 16l54 115q5 12 16 12h44q16 0 9 -16l-55 -115q-4 -12 -15 -12h-44zM268 -12q-139 0 -208 104q-7 12 2 22l23 26q11 13 23 -1q63 -82 160 -82q67 0 105 33t38 88q0 52 -31 81.5t-96 61.5l-85 41q-123 58 -123 171q0 79 55 127t139 48q113 0 186 -89
q11 -12 0 -24l-22 -25q-11 -13 -24 0q-60 69 -138 69q-54 0 -88.5 -27.5t-34.5 -77.5q0 -38 22 -64.5t69 -49.5l83 -41q37 -18 61 -33t49.5 -39t38 -56t12.5 -72q0 -88 -60.5 -139.5t-155.5 -51.5z" />
    <glyph glyph-name="sacute" unicode="&#x15b;" horiz-adv-x="443" 
d="M199 557q-16 0 -9 16l54 115q5 12 16 12h44q16 0 9 -16l-55 -115q-4 -12 -15 -12h-44zM220 -12q-102 0 -159 74q-10 11 -1 25l15 20q10 13 23 0q52 -56 120 -56q44 0 71 20t27 57q0 32 -19.5 52t-57.5 36l-58 24q-110 46 -110 131q0 59 43.5 95t106.5 36q89 0 143 -68
q9 -10 -1 -22l-16 -18q-11 -13 -24 0q-46 47 -99 47q-36 0 -60 -17.5t-24 -50.5q0 -32 20 -50t64 -36l48 -20q55 -22 85 -53.5t30 -84.5q0 -66 -48.5 -103.5t-118.5 -37.5z" />
    <glyph glyph-name="Scedilla" unicode="&#x15e;" horiz-adv-x="539" 
d="M484 179q0 -82 -53 -132.5t-139 -57.5l-28 -29q37 -2 62 -22.5t25 -55.5q0 -56 -45 -78.5t-105 -14.5q-9 1 -9 11v25q0 10 11 10q91 -7 91 41q0 26 -26.5 36t-63.5 -2q-12 -3 -12 7v23q0 5 5 12l35 38q-114 14 -172 102q-7 12 2 22l23 26q11 13 23 -1q63 -82 160 -82
q67 0 105 33t38 88q0 52 -31 81.5t-96 61.5l-85 41q-123 58 -123 171q0 79 55 127t139 48q113 0 186 -89q11 -12 0 -24l-22 -25q-11 -13 -24 0q-60 69 -138 69q-54 0 -88.5 -27.5t-34.5 -77.5q0 -38 22 -64.5t69 -49.5l83 -41q37 -18 61 -33t49.5 -39t38 -56t12.5 -72z" />
    <glyph glyph-name="scedilla" unicode="&#x15f;" horiz-adv-x="443" 
d="M387 129q0 -61 -42.5 -98t-105.5 -42l-28 -29q37 -2 62 -22.5t25 -55.5q0 -56 -45 -78.5t-105 -14.5q-9 1 -9 11v25q0 10 11 10q91 -7 91 41q0 26 -26.5 36t-63.5 -2q-12 -3 -12 7v23q0 5 5 12l36 39q-76 15 -119 71q-10 11 -1 25l15 20q10 13 23 0q52 -56 120 -56
q44 0 71 20t27 57q0 32 -19.5 52t-57.5 36l-58 24q-110 46 -110 131q0 59 43.5 95t106.5 36q89 0 143 -68q9 -10 -1 -22l-16 -18q-11 -13 -24 0q-46 47 -99 47q-36 0 -60 -17.5t-24 -50.5q0 -32 20 -50t64 -36l48 -20q55 -22 85 -53.5t30 -84.5z" />
    <glyph glyph-name="Scaron" unicode="&#x160;" horiz-adv-x="539" 
d="M138 910h39q9 0 16 -8l65 -80l64 80q7 8 16 8h40q6 0 8.5 -5t-1.5 -9l-86 -104q-7 -8 -16 -8h-50q-9 0 -16 8l-86 104q-4 4 -2 9t9 5zM268 -12q-139 0 -208 104q-7 12 2 22l23 26q11 13 23 -1q63 -82 160 -82q67 0 105 33t38 88q0 52 -31 81.5t-96 61.5l-85 41
q-123 58 -123 171q0 79 55 127t139 48q113 0 186 -89q11 -12 0 -24l-22 -25q-11 -13 -24 0q-60 69 -138 69q-54 0 -88.5 -27.5t-34.5 -77.5q0 -38 22 -64.5t69 -49.5l83 -41q37 -18 61 -33t49.5 -39t38 -56t12.5 -72q0 -88 -60.5 -139.5t-155.5 -51.5z" />
    <glyph glyph-name="scaron" unicode="&#x161;" horiz-adv-x="443" 
d="M97 700h39q9 0 16 -8l65 -80l64 80q7 8 16 8h40q6 0 8.5 -5t-1.5 -9l-86 -104q-7 -8 -16 -8h-50q-9 0 -16 8l-86 104q-4 4 -2 9t9 5zM220 -12q-102 0 -159 74q-10 11 -1 25l15 20q10 13 23 0q52 -56 120 -56q44 0 71 20t27 57q0 32 -19.5 52t-57.5 36l-58 24
q-110 46 -110 131q0 59 43.5 95t106.5 36q89 0 143 -68q9 -10 -1 -22l-16 -18q-11 -13 -24 0q-46 47 -99 47q-36 0 -60 -17.5t-24 -50.5q0 -32 20 -50t64 -36l48 -20q55 -22 85 -53.5t30 -84.5q0 -66 -48.5 -103.5t-118.5 -37.5z" />
    <glyph glyph-name="uni0162" unicode="&#x162;" horiz-adv-x="534" 
d="M454 700q14 0 14 -14v-39q0 -14 -14 -14h-150v-619q0 -10 -8 -13l-36 -37q37 -2 62 -22.5t25 -55.5q0 -56 -45 -78.5t-105 -14.5q-9 1 -9 11v25q0 10 11 10q91 -7 91 41q0 26 -26.5 36t-63.5 -2q-12 -3 -12 7v23q0 5 5 12l42 46q-6 3 -6 12v619h-149q-14 0 -14 14v39
q0 14 14 14h374z" />
    <glyph glyph-name="uni0163" unicode="&#x163;" horiz-adv-x="339" 
d="M211 -40q37 -2 62 -22.5t25 -55.5q0 -56 -45 -78.5t-105 -14.5q-9 1 -9 11v25q0 10 11 10q91 -7 91 41q0 26 -26.5 36t-63.5 -2q-12 -3 -12 7v23q0 5 5 12l39 42q-59 20 -59 100v336h-64q-14 0 -14 14v32q0 14 14 14h64v116q0 14 13 14h46q13 0 13 -14v-116h83
q14 0 14 -14v-32q0 -14 -14 -14h-83v-327q0 -52 45 -52q13 0 31 2q19 3 19 -13v-30q0 -20 -52 -22z" />
    <glyph glyph-name="Tcaron" unicode="&#x164;" horiz-adv-x="534" 
d="M147 910h39q9 0 16 -8l65 -80l64 80q7 8 16 8h40q6 0 8.5 -5t-1.5 -9l-86 -104q-7 -8 -16 -8h-50q-9 0 -16 8l-86 104q-4 4 -2 9t9 5zM243 0q-14 0 -14 14v619h-149q-14 0 -14 14v39q0 14 14 14h374q14 0 14 -14v-39q0 -14 -14 -14h-150v-619q0 -14 -14 -14h-47z" />
    <glyph glyph-name="tcaron" unicode="&#x165;" horiz-adv-x="368" 
d="M253 530q-16 0 -9 16l53 115q5 12 16 12h45q16 0 9 -16l-55 -115q-5 -12 -16 -12h-43zM228 -12q-104 0 -104 106v336h-64q-14 0 -14 14v32q0 14 14 14h64v116q0 14 13 14h46q13 0 13 -14v-116h83q14 0 14 -14v-32q0 -14 -14 -14h-83v-327q0 -52 45 -52q13 0 31 2
q19 3 19 -13v-30q0 -22 -63 -22z" />
    <glyph glyph-name="Tbar" unicode="&#x166;" horiz-adv-x="534" 
d="M454 700q14 0 14 -14v-39q0 -14 -14 -14h-150v-143h99q14 0 14 -14v-32q0 -14 -14 -14h-99v-416q0 -14 -14 -14h-47q-14 0 -14 14v416h-99q-13 0 -13 14v32q0 14 13 14h99v143h-149q-14 0 -14 14v39q0 14 14 14h374z" />
    <glyph glyph-name="tbar" unicode="&#x167;" horiz-adv-x="339" 
d="M279 430h-83v-74h82q15 0 15 -15v-32q0 -15 -15 -15h-82v-191q0 -52 45 -52q13 0 31 2q19 3 19 -13v-30q0 -22 -63 -22q-104 0 -104 106v200h-63q-15 0 -15 15v32q0 15 15 15h63v74h-64q-14 0 -14 14v32q0 14 14 14h64v116q0 14 13 14h46q13 0 13 -14v-116h83
q14 0 14 -14v-32q0 -14 -14 -14z" />
    <glyph glyph-name="Utilde" unicode="&#x168;" horiz-adv-x="629" 
d="M386 818q-38 0 -78 32t-64 32q-32 0 -43 -30q-3 -9 -11 -9h-15q-11 0 -9 12q4 35 27 54t56 19q36 0 75.5 -32.5t63.5 -32.5q31 0 42 30q3 9 11 9h15q10 0 10 -10q-4 -36 -26.5 -55t-53.5 -19zM314 -13q-106 0 -169.5 64t-63.5 179v456q0 14 14 14h47q14 0 14 -14v-447
q0 -89 43 -134t115 -45q73 0 116 45t43 134v447q0 14 14 14h47q14 0 14 -14v-456q0 -115 -63.5 -179t-170.5 -64z" />
    <glyph glyph-name="utilde" unicode="&#x169;" 
d="M355 608q-31 0 -55.5 16t-45 32t-41.5 16q-32 0 -43 -30q-3 -9 -11 -9h-15q-10 0 -9 12q4 35 27 54t56 19q36 0 75.5 -32.5t63.5 -32.5q31 0 42 30q3 9 11 9h15q10 0 10 -10q-4 -36 -26.5 -55t-53.5 -19zM254 -12q-81 0 -129.5 52t-48.5 148v288q0 14 13 14h46
q13 0 13 -14v-281q0 -66 33 -103t93 -37q62 0 102.5 38t40.5 102v281q0 14 12 14h47q13 0 13 -14v-462q0 -14 -13 -14h-43q-14 0 -14 15l-2 63q-50 -90 -163 -90z" />
    <glyph glyph-name="Umacron" unicode="&#x16a;" horiz-adv-x="629" 
d="M178 850q-14 0 -14 14v32q0 14 14 14h273q14 0 14 -14v-32q0 -14 -14 -14h-273zM314 -13q-106 0 -169.5 64t-63.5 179v456q0 14 14 14h47q14 0 14 -14v-447q0 -89 43 -134t115 -45q73 0 116 45t43 134v447q0 14 14 14h47q14 0 14 -14v-456q0 -115 -63.5 -179t-170.5 -64z
" />
    <glyph glyph-name="umacron" unicode="&#x16b;" 
d="M147 640q-14 0 -14 14v32q0 14 14 14h273q14 0 14 -14v-32q0 -14 -14 -14h-273zM254 -12q-81 0 -129.5 52t-48.5 148v288q0 14 13 14h46q13 0 13 -14v-281q0 -66 33 -103t93 -37q62 0 102.5 38t40.5 102v281q0 14 12 14h47q13 0 13 -14v-462q0 -14 -13 -14h-43
q-14 0 -14 15l-2 63q-50 -90 -163 -90z" />
    <glyph glyph-name="Ubreve" unicode="&#x16c;" horiz-adv-x="629" 
d="M314 780q-58 0 -94.5 32t-41.5 83q-2 15 14 15h21q13 0 16 -14q6 -30 28.5 -49t56.5 -19t57 19t29 49q3 14 16 14h20q16 0 14 -15q-5 -51 -41.5 -83t-94.5 -32zM314 -13q-106 0 -169.5 64t-63.5 179v456q0 14 14 14h47q14 0 14 -14v-447q0 -89 43 -134t115 -45
q73 0 116 45t43 134v447q0 14 14 14h47q14 0 14 -14v-456q0 -115 -63.5 -179t-170.5 -64z" />
    <glyph glyph-name="ubreve" unicode="&#x16d;" 
d="M284 570q-58 0 -94.5 32t-41.5 83q-2 15 14 15h21q13 0 16 -14q6 -30 28.5 -49t56.5 -19t57 19t29 49q3 14 16 14h20q16 0 14 -15q-5 -51 -41.5 -83t-94.5 -32zM254 -12q-81 0 -129.5 52t-48.5 148v288q0 14 13 14h46q13 0 13 -14v-281q0 -66 33 -103t93 -37
q62 0 102.5 38t40.5 102v281q0 14 12 14h47q13 0 13 -14v-462q0 -14 -13 -14h-43q-14 0 -14 15l-2 63q-50 -90 -163 -90z" />
    <glyph glyph-name="Uring" unicode="&#x16e;" horiz-adv-x="629" 
d="M314 772q-34 0 -57 22.5t-23 55.5q0 34 23 56t57 22t57 -22t23 -56q0 -33 -23 -55.5t-57 -22.5zM314 822q12 0 20 8t8 20t-8 20t-20 8t-20 -8t-8 -20t8 -20t20 -8zM314 -13q-106 0 -169.5 64t-63.5 179v456q0 14 14 14h47q14 0 14 -14v-447q0 -89 43 -134t115 -45
q73 0 116 45t43 134v447q0 14 14 14h47q14 0 14 -14v-456q0 -115 -63.5 -179t-170.5 -64z" />
    <glyph glyph-name="uring" unicode="&#x16f;" 
d="M284 562q-34 0 -57 22.5t-23 55.5q0 34 23 56t57 22t57 -22t23 -56q0 -33 -23 -55.5t-57 -22.5zM284 612q12 0 20 8t8 20t-8 20t-20 8t-20 -8t-8 -20t8 -20t20 -8zM254 -12q-81 0 -129.5 52t-48.5 148v288q0 14 13 14h46q13 0 13 -14v-281q0 -66 33 -103t93 -37
q62 0 102.5 38t40.5 102v281q0 14 12 14h47q13 0 13 -14v-462q0 -14 -13 -14h-43q-14 0 -14 15l-2 63q-50 -90 -163 -90z" />
    <glyph glyph-name="Uhungarumlaut" unicode="&#x170;" horiz-adv-x="629" 
d="M226 767q-16 0 -9 16l54 115q5 12 16 12h44q16 0 9 -16l-55 -115q-4 -12 -15 -12h-44zM358 767q-15 0 -8 16l53 115q5 12 16 12h45q16 0 9 -16l-55 -115q-5 -12 -16 -12h-44zM314 -13q-106 0 -169.5 64t-63.5 179v456q0 14 14 14h47q14 0 14 -14v-447q0 -89 43 -134
t115 -45q73 0 116 45t43 134v447q0 14 14 14h47q14 0 14 -14v-456q0 -115 -63.5 -179t-170.5 -64z" />
    <glyph glyph-name="uhungarumlaut" unicode="&#x171;" 
d="M195 557q-16 0 -9 16l54 115q5 12 16 12h44q16 0 9 -16l-55 -115q-4 -12 -15 -12h-44zM327 557q-15 0 -8 16l53 115q5 12 16 12h45q16 0 9 -16l-55 -115q-5 -12 -16 -12h-44zM254 -12q-81 0 -129.5 52t-48.5 148v288q0 14 13 14h46q13 0 13 -14v-281q0 -66 33 -103
t93 -37q62 0 102.5 38t40.5 102v281q0 14 12 14h47q13 0 13 -14v-462q0 -14 -13 -14h-43q-14 0 -14 15l-2 63q-50 -90 -163 -90z" />
    <glyph glyph-name="Uogonek" unicode="&#x172;" horiz-adv-x="629" 
d="M534 700q14 0 14 -14v-456q0 -88 -38 -147t-106 -82q-92 -32 -92 -98q0 -35 24 -48.5t67 -4.5v-48q-19 -9 -44.5 -8.5t-50 9.5t-41 32t-16.5 56q0 57 48 96q-100 5 -159 69t-59 174v456q0 14 14 14h47q14 0 14 -14v-447q0 -89 43 -134t115 -45q73 0 116 45t43 134v447
q0 14 14 14h47z" />
    <glyph glyph-name="uogonek" unicode="&#x173;" 
d="M476 490q13 0 13 -14v-462q0 -14 -13 -14h-1q-45 -2 -76 -28.5t-31 -66.5q0 -34 24.5 -49t65.5 -6v-48q-19 -9 -44.5 -8.5t-50 9.5t-41 32t-16.5 57q0 49 33 83t80 50l-2 53q-50 -90 -163 -90q-81 0 -129.5 52t-48.5 148v288q0 14 13 14h46q13 0 13 -14v-281
q0 -66 33 -103t93 -37q62 0 102.5 38t40.5 102v281q0 14 12 14h47z" />
    <glyph glyph-name="Wcircumflex" unicode="&#x174;" horiz-adv-x="1081" 
d="M421 784q-7 0 -9 5t2 9l86 104q7 8 16 8h50q9 0 16 -8l86 -104q4 -4 1.5 -9t-8.5 -5h-40q-9 0 -16 8l-64 80l-65 -80q-7 -8 -16 -8h-39zM276 0q-13 0 -17 12l-207 671q-5 17 12 17h47q13 0 17 -12l177 -588l193 588q4 12 16 12h53q12 0 16 -12l193 -588l177 588
q5 12 17 12h47q17 0 12 -17l-207 -671q-4 -12 -17 -12h-55q-13 0 -17 12l-192 595l-193 -595q-4 -12 -17 -12h-55z" />
    <glyph glyph-name="wcircumflex" unicode="&#x175;" horiz-adv-x="870" 
d="M315 574q-7 0 -9 5t2 9l86 104q7 8 16 8h50q9 0 16 -8l86 -104q4 -4 1.5 -9t-8.5 -5h-40q-9 0 -16 8l-64 80l-65 -80q-7 -8 -16 -8h-39zM226 0q-14 0 -18 12l-160 461q-6 17 11 17h45q12 0 16 -12l134 -399l138 399q4 12 18 12h50q13 0 18 -12l138 -399l134 399
q4 12 15 12h46q17 0 11 -17l-161 -461q-5 -12 -18 -12h-51q-14 0 -18 12l-139 399l-140 -399q-5 -12 -18 -12h-51z" />
    <glyph glyph-name="Ycircumflex" unicode="&#x176;" horiz-adv-x="597" 
d="M179 784q-7 0 -9 5t2 9l86 104q7 8 16 8h50q9 0 16 -8l86 -104q4 -4 1.5 -9t-8.5 -5h-40q-9 0 -16 8l-64 80l-65 -80q-7 -8 -16 -8h-39zM275 0q-14 0 -14 14v322l-207 346q-5 8 -2.5 13t11.5 5h52q11 0 17 -10l166 -283l167 283q6 10 17 10h52q9 0 11.5 -5t-2.5 -13
l-207 -346v-322q0 -14 -14 -14h-47z" />
    <glyph glyph-name="ycircumflex" unicode="&#x177;" horiz-adv-x="545" 
d="M153 574q-7 0 -9 5t2 9l86 104q7 8 16 8h50q9 0 16 -8l86 -104q4 -4 1.5 -9t-8.5 -5h-40q-9 0 -16 8l-64 80l-65 -80q-7 -8 -16 -8h-39zM177 -190q-17 0 -10 15l69 173l-188 475q-6 17 11 17h46q11 0 16 -12l151 -398l152 398q4 12 16 12h46q17 0 11 -17l-258 -651
q-5 -12 -17 -12h-45z" />
    <glyph glyph-name="Ydieresis" unicode="&#x178;" horiz-adv-x="597" 
d="M208 831q-18 0 -30.5 12.5t-12.5 29.5t12.5 29.5t30.5 12.5q17 0 30 -12.5t13 -29.5t-13 -29.5t-30 -12.5zM389 831q-17 0 -30 12.5t-13 29.5t13 29.5t30 12.5t30 -12.5t13 -29.5t-13 -29.5t-30 -12.5zM275 0q-14 0 -14 14v322l-207 346q-5 8 -2.5 13t11.5 5h52
q11 0 17 -10l166 -283l167 283q6 10 17 10h52q9 0 11.5 -5t-2.5 -13l-207 -346v-322q0 -14 -14 -14h-47z" />
    <glyph glyph-name="Zacute" unicode="&#x179;" horiz-adv-x="566" 
d="M263 767q-16 0 -9 16l54 115q5 12 16 12h44q16 0 9 -16l-55 -115q-4 -12 -15 -12h-44zM75 0q-14 0 -14 14v44q0 9 6 18l345 557h-327q-14 0 -14 14v39q0 14 14 14h391q14 0 14 -14v-44q0 -9 -6 -18l-345 -557h347q14 0 14 -14v-39q0 -14 -14 -14h-411z" />
    <glyph glyph-name="zacute" unicode="&#x17a;" horiz-adv-x="481" 
d="M223 557q-16 0 -9 16l54 115q5 12 16 12h44q16 0 9 -16l-55 -115q-4 -12 -15 -12h-44zM70 0q-14 0 -14 14v38q0 9 7 18l280 358h-270q-14 0 -14 14v34q0 14 14 14h336q15 0 15 -14v-38q0 -9 -7 -18l-281 -358h275q14 0 14 -14v-34q0 -14 -14 -14h-341z" />
    <glyph glyph-name="Zdotaccent" unicode="&#x17b;" horiz-adv-x="566" 
d="M281 827q-19 0 -32.5 13t-13.5 32q0 20 13.5 33t32.5 13t31.5 -13t12.5 -33q0 -19 -12.5 -32t-31.5 -13zM75 0q-14 0 -14 14v44q0 9 6 18l345 557h-327q-14 0 -14 14v39q0 14 14 14h391q14 0 14 -14v-44q0 -9 -6 -18l-345 -557h347q14 0 14 -14v-39q0 -14 -14 -14h-411z
" />
    <glyph glyph-name="zdotaccent" unicode="&#x17c;" horiz-adv-x="481" 
d="M241 617q-19 0 -32.5 13t-13.5 32q0 20 13.5 33t32.5 13t31.5 -13t12.5 -33q0 -19 -12.5 -32t-31.5 -13zM70 0q-14 0 -14 14v38q0 9 7 18l280 358h-270q-14 0 -14 14v34q0 14 14 14h336q15 0 15 -14v-38q0 -9 -7 -18l-281 -358h275q14 0 14 -14v-34q0 -14 -14 -14h-341z
" />
    <glyph glyph-name="Zcaron" unicode="&#x17d;" horiz-adv-x="566" 
d="M161 910h39q9 0 16 -8l65 -80l64 80q7 8 16 8h40q6 0 8.5 -5t-1.5 -9l-86 -104q-7 -8 -16 -8h-50q-9 0 -16 8l-86 104q-4 4 -2 9t9 5zM75 0q-14 0 -14 14v44q0 9 6 18l345 557h-327q-14 0 -14 14v39q0 14 14 14h391q14 0 14 -14v-44q0 -9 -6 -18l-345 -557h347
q14 0 14 -14v-39q0 -14 -14 -14h-411z" />
    <glyph glyph-name="zcaron" unicode="&#x17e;" horiz-adv-x="481" 
d="M121 700h39q9 0 16 -8l65 -80l64 80q7 8 16 8h40q6 0 8.5 -5t-1.5 -9l-86 -104q-7 -8 -16 -8h-50q-9 0 -16 8l-86 104q-4 4 -2 9t9 5zM70 0q-14 0 -14 14v38q0 9 7 18l280 358h-270q-14 0 -14 14v34q0 14 14 14h336q15 0 15 -14v-38q0 -9 -7 -18l-281 -358h275
q14 0 14 -14v-34q0 -14 -14 -14h-341z" />
    <glyph glyph-name="florin" unicode="&#x192;" horiz-adv-x="344" 
d="M57 -190q-29 0 -48 8q-9 4 -9 13v41q0 9 12 7q19 -3 34 -3q39 0 53 21t14 59v472h-60q-13 0 -13 13v36q0 13 13 13h60v111q0 130 128 130q31 0 48 -8q9 -4 9 -13v-41q0 -9 -12 -7q-20 3 -33 3q-39 0 -53.5 -21t-14.5 -59v-95h100q13 0 13 -13v-36q0 -13 -13 -13h-100
v-488q0 -130 -128 -130z" />
    <glyph glyph-name="uni01CD" unicode="&#x1cd;" horiz-adv-x="681" 
d="M300 792l-86 104q-4 4 -2 9t9 5h39q9 0 16 -8l65 -80l64 80q7 8 16 8h40q6 0 8.5 -5t-1.5 -9l-86 -104q-7 -8 -16 -8h-50q-9 0 -16 8zM629 17q7 -17 -11 -17h-50q-12 0 -16 12l-51 145h-320l-51 -145q-4 -12 -17 -12h-49q-18 0 -11 17l242 671q5 12 18 12h55q14 0 18 -12
zM205 224h272l-136 387z" />
    <glyph glyph-name="uni01CE" unicode="&#x1ce;" horiz-adv-x="626" 
d="M191 700h39q9 0 16 -8l65 -80l64 80q7 8 16 8h40q6 0 8.5 -5t-1.5 -9l-86 -104q-7 -8 -16 -8h-50q-9 0 -16 8l-86 104q-4 4 -2 9t9 5zM292 -12q-106 0 -173.5 73t-67.5 184t67.5 184t173.5 73q128 0 188 -108l2 82q0 14 13 14h43q13 0 13 -14v-462q0 -14 -13 -14h-43
q-13 0 -13 14l-2 80q-58 -106 -188 -106zM302 55q79 0 128.5 52t49.5 136q0 85 -49.5 138.5t-128.5 53.5t-130 -53t-51 -137q0 -85 51 -137.5t130 -52.5z" />
    <glyph glyph-name="uni01CF" unicode="&#x1cf;" horiz-adv-x="246" 
d="M3 910h39q9 0 16 -8l65 -80l64 80q7 8 16 8h40q6 0 8.5 -5t-1.5 -9l-86 -104q-7 -8 -16 -8h-50q-9 0 -16 8l-86 104q-4 4 -2 9t9 5zM100 0q-14 0 -14 14v672q0 14 14 14h47q14 0 14 -14v-672q0 -14 -14 -14h-47z" />
    <glyph glyph-name="uni01D0" unicode="&#x1d0;" horiz-adv-x="192" 
d="M-23 700h39q9 0 16 -8l65 -80l64 80q7 8 16 8h40q6 0 8.5 -5t-1.5 -9l-86 -104q-7 -8 -16 -8h-50q-9 0 -16 8l-86 104q-4 4 -2 9t9 5zM73 0q-13 0 -13 14v462q0 14 13 14h46q13 0 13 -14v-462q0 -14 -13 -14h-46z" />
    <glyph glyph-name="uni01D1" unicode="&#x1d1;" horiz-adv-x="847" 
d="M304 910h39q9 0 16 -8l65 -80l64 80q7 8 16 8h40q6 0 8.5 -5t-1.5 -9l-86 -104q-7 -8 -16 -8h-50q-9 0 -16 8l-86 104q-4 4 -2 9t9 5zM424 -13q-151 0 -254.5 104t-103.5 256t103.5 256.5t254.5 104.5t254.5 -104.5t103.5 -256.5t-103.5 -256t-254.5 -104zM424 60
q120 0 201 82t81 205t-81 205.5t-201 82.5q-121 0 -201.5 -82t-80.5 -206q0 -123 80.5 -205t201.5 -82z" />
    <glyph glyph-name="uni01D2" unicode="&#x1d2;" horiz-adv-x="603" 
d="M182 700h39q9 0 16 -8l65 -80l64 80q7 8 16 8h40q6 0 8.5 -5t-1.5 -9l-86 -104q-7 -8 -16 -8h-50q-9 0 -16 8l-86 104q-4 4 -2 9t9 5zM302 -12q-107 0 -179 73.5t-72 183.5t72 183.5t179 73.5t178.5 -74t71.5 -183t-71.5 -183t-178.5 -74zM302 55q78 0 129 53.5t51 136.5
t-51 136.5t-129 53.5t-129.5 -53.5t-51.5 -136.5t51.5 -136.5t129.5 -53.5z" />
    <glyph glyph-name="uni01D3" unicode="&#x1d3;" horiz-adv-x="629" 
d="M195 910h39q9 0 16 -8l65 -80l64 80q7 8 16 8h40q6 0 8.5 -5t-1.5 -9l-86 -104q-7 -8 -16 -8h-50q-9 0 -16 8l-86 104q-4 4 -2 9t9 5zM314 -13q-106 0 -169.5 64t-63.5 179v456q0 14 14 14h47q14 0 14 -14v-447q0 -89 43 -134t115 -45q73 0 116 45t43 134v447q0 14 14 14
h47q14 0 14 -14v-456q0 -115 -63.5 -179t-170.5 -64z" />
    <glyph glyph-name="uni01D4" unicode="&#x1d4;" 
d="M164 700h39q9 0 16 -8l65 -80l64 80q7 8 16 8h40q6 0 8.5 -5t-1.5 -9l-86 -104q-7 -8 -16 -8h-50q-9 0 -16 8l-86 104q-4 4 -2 9t9 5zM254 -12q-81 0 -129.5 52t-48.5 148v288q0 14 13 14h46q13 0 13 -14v-281q0 -66 33 -103t93 -37q62 0 102.5 38t40.5 102v281
q0 14 12 14h47q13 0 13 -14v-462q0 -14 -13 -14h-43q-14 0 -14 15l-2 63q-50 -90 -163 -90z" />
    <glyph glyph-name="uni01EA" unicode="&#x1ea;" horiz-adv-x="847" 
d="M508 -3q-89 -31 -89 -94q0 -35 24 -48.5t67 -4.5v-48q-19 -9 -44.5 -8.5t-50 9.5t-41 32t-16.5 56q0 55 50 96q-145 6 -243.5 109.5t-98.5 250.5q0 152 103.5 256.5t254.5 104.5t254.5 -104.5t103.5 -256.5q0 -129 -77 -225.5t-197 -124.5zM142 347q0 -123 80.5 -205
t201.5 -82q120 0 201 82t81 205t-81 205.5t-201 82.5q-121 0 -201.5 -82t-80.5 -206z" />
    <glyph glyph-name="uni01EB" unicode="&#x1eb;" horiz-adv-x="603" 
d="M366 -4q-86 -30 -86 -93q0 -35 24 -48.5t66 -4.5v-48q-19 -9 -44.5 -8.5t-50 9.5t-41 32t-16.5 56q0 56 55 99q-96 10 -159 81.5t-63 173.5q0 110 72 183.5t179 73.5t178.5 -74t71.5 -183q0 -91 -51.5 -159.5t-134.5 -89.5zM121 245q0 -83 51.5 -136.5t129.5 -53.5
t129 53.5t51 136.5t-51 136.5t-129 53.5t-129.5 -53.5t-51.5 -136.5z" />
    <glyph glyph-name="uni0218" unicode="&#x218;" horiz-adv-x="539" 
d="M268 -12q-139 0 -208 104q-7 12 2 22l23 26q11 13 23 -1q63 -82 160 -82q67 0 105 33t38 88q0 52 -31 81.5t-96 61.5l-85 41q-123 58 -123 171q0 79 55 127t139 48q113 0 186 -89q11 -12 0 -24l-22 -25q-11 -13 -24 0q-60 69 -138 69q-54 0 -88.5 -27.5t-34.5 -77.5
q0 -38 22 -64.5t69 -49.5l83 -41q37 -18 61 -33t49.5 -39t38 -56t12.5 -72q0 -88 -60.5 -139.5t-155.5 -51.5zM211 -248v27q44 1 64 40q15 29 1 40q-3 2 -8 2q-25 -1 -40.5 14t-15.5 38t16.5 38.5t39.5 15.5q28 0 47.5 -23.5t19.5 -61.5q0 -52 -35 -91.5t-89 -38.5z" />
    <glyph glyph-name="uni0219" unicode="&#x219;" horiz-adv-x="443" 
d="M220 -12q-102 0 -159 74q-10 11 -1 25l15 20q10 13 23 0q52 -56 120 -56q44 0 71 20t27 57q0 32 -19.5 52t-57.5 36l-58 24q-110 46 -110 131q0 59 43.5 95t106.5 36q89 0 143 -68q9 -10 -1 -22l-16 -18q-11 -13 -24 0q-46 47 -99 47q-36 0 -60 -17.5t-24 -50.5
q0 -32 20 -50t64 -36l48 -20q55 -22 85 -53.5t30 -84.5q0 -66 -48.5 -103.5t-118.5 -37.5zM158 -248v27q44 1 64 40q15 29 1 40q-3 2 -8 2q-25 -1 -40.5 14t-15.5 38t16.5 38.5t39.5 15.5q28 0 47.5 -23.5t19.5 -61.5q0 -52 -35 -91.5t-89 -38.5z" />
    <glyph glyph-name="uni021A" unicode="&#x21a;" horiz-adv-x="534" 
d="M243 0q-14 0 -14 14v619h-149q-14 0 -14 14v39q0 14 14 14h374q14 0 14 -14v-39q0 -14 -14 -14h-150v-619q0 -14 -14 -14h-47zM207 -244v27q44 1 64 40q15 29 1 40q-3 2 -8 2q-25 -1 -40.5 14t-15.5 38t16.5 38.5t39.5 15.5q28 0 47.5 -23.5t19.5 -61.5q0 -52 -35 -91.5
t-89 -38.5z" />
    <glyph glyph-name="uni021B" unicode="&#x21b;" horiz-adv-x="339" 
d="M228 -12q-104 0 -104 106v336h-64q-14 0 -14 14v32q0 14 14 14h64v116q0 14 13 14h46q13 0 13 -14v-116h83q14 0 14 -14v-32q0 -14 -14 -14h-83v-327q0 -52 45 -52q13 0 31 2q19 3 19 -13v-30q0 -22 -63 -22zM158 -248v27q44 1 64 40q15 29 1 40q-3 2 -8 2
q-25 -1 -40.5 14t-15.5 38t16.5 38.5t39.5 15.5q28 0 47.5 -23.5t19.5 -61.5q0 -52 -35 -91.5t-89 -38.5z" />
    <glyph glyph-name="uni0237" unicode="&#x237;" horiz-adv-x="223" 
d="M-3 -198q-9 0 -11 9l-12 44q-4 11 8 11q54 4 78.5 38t24.5 105v466q0 15 15 15h42q15 0 15 -15v-470q0 -197 -160 -203z" />
    <glyph glyph-name="circumflex" unicode="&#x2c6;" horiz-adv-x="288" 
d="M24 574q-7 0 -9 5t2 9l86 104q7 8 16 8h50q9 0 16 -8l86 -104q4 -4 1.5 -9t-8.5 -5h-40q-9 0 -16 8l-64 80l-65 -80q-7 -8 -16 -8h-39z" />
    <glyph glyph-name="caron" unicode="&#x2c7;" horiz-adv-x="288" 
d="M24 700h39q9 0 16 -8l65 -80l64 80q7 8 16 8h40q6 0 8.5 -5t-1.5 -9l-86 -104q-7 -8 -16 -8h-50q-9 0 -16 8l-86 104q-4 4 -2 9t9 5z" />
    <glyph glyph-name="breve" unicode="&#x2d8;" horiz-adv-x="302" 
d="M151 570q-58 0 -94.5 32t-41.5 83q-1 15 14 15h21q13 0 16 -14q6 -30 28.5 -49t56.5 -19t57 19t29 49q3 14 16 14h20q15 0 14 -15q-5 -51 -41.5 -83t-94.5 -32z" />
    <glyph glyph-name="dotaccent" unicode="&#x2d9;" horiz-adv-x="120" 
d="M61 617q-19 0 -32.5 13t-13.5 32q0 20 13.5 33t32.5 13t31.5 -13t12.5 -33q0 -19 -12.5 -32t-31.5 -13z" />
    <glyph glyph-name="ring" unicode="&#x2da;" horiz-adv-x="190" 
d="M95 562q-34 0 -57 22.5t-23 55.5q0 34 23 56t57 22t57 -22t23 -56q0 -33 -23 -55.5t-57 -22.5zM95 612q12 0 20 8t8 20t-8 20t-20 8t-20 -8t-8 -20t8 -20t20 -8z" />
    <glyph glyph-name="ogonek" unicode="&#x2db;" horiz-adv-x="189" 
d="M162 -198q-19 -9 -44.5 -8.5t-50 9.5t-41 32t-16.5 57q0 66 57 104.5t112 38.5v-35q-45 -2 -76 -28.5t-31 -66.5q0 -34 24.5 -49t65.5 -6v-48z" />
    <glyph glyph-name="tilde" unicode="&#x2dc;" horiz-adv-x="330" 
d="M235 608q-31 0 -55.5 16t-45 32t-41.5 16q-32 0 -43 -30q-3 -9 -11 -9h-15q-10 0 -9 12q4 35 27 54t56 19q36 0 75.5 -32.5t63.5 -32.5q31 0 42 30q3 9 11 9h15q10 0 10 -10q-4 -36 -26.5 -55t-53.5 -19z" />
    <glyph glyph-name="hungarumlaut" unicode="&#x2dd;" horiz-adv-x="290" 
d="M26 557q-16 0 -9 16l54 115q5 12 16 12h44q16 0 9 -16l-55 -115q-4 -12 -15 -12h-44zM158 557q-15 0 -8 16l53 115q5 12 16 12h45q16 0 9 -16l-55 -115q-5 -12 -16 -12h-44z" />
    <glyph glyph-name="uni0326" unicode="&#x326;" horiz-adv-x="0" 
d="M-123 -248v27q44 1 64 40q15 29 1 40q-3 2 -8 2q-25 -1 -40.5 14t-15.5 38t16.5 38.5t39.5 15.5q28 0 48 -23.5t20 -61.5q0 -52 -35.5 -91.5t-89.5 -38.5z" />
    <glyph glyph-name="uni0394" unicode="&#x394;" horiz-adv-x="681" 
d="M64 0q-18 0 -11 17l242 671q5 12 18 12h55q14 0 18 -12l243 -671q7 -17 -11 -17h-554zM147 62h387l-193 549z" />
    <glyph glyph-name="uni03A9" unicode="&#x3a9;" horiz-adv-x="837" 
d="M94 0q-15 0 -15 15v32q0 15 15 15h103v20q-131 109 -131 280q0 148 101.5 247t251.5 99t251 -99t101 -247q0 -173 -131 -280v-20h103q15 0 15 -15v-32q0 -15 -15 -15h-160q-15 0 -15 15v94q59 43 94.5 107.5t35.5 143.5q0 122 -80 199t-199 77t-199 -77t-80 -199
q0 -79 35 -143.5t94 -107.5v-94q0 -15 -15 -15h-160z" />
    <glyph glyph-name="uni03BC" unicode="&#x3bc;" 
d="M90 -190q-14 0 -14 14v652q0 14 13 14h46q13 0 13 -14v-281q0 -66 33 -103t93 -37q62 0 102.5 38t40.5 102v281q0 14 12 14h47q13 0 13 -14v-462q0 -14 -13 -14h-43q-14 0 -14 15l-2 64q-49 -91 -147 -91q-84 0 -122 57v-221q0 -14 -14 -14h-44z" />
    <glyph glyph-name="pi" unicode="&#x3c0;" horiz-adv-x="632" 
d="M514 -7q-99 0 -99 104v330h-188v-413q0 -14 -14 -14h-44q-14 0 -14 14v413h-87q-13 0 -13 14v35q0 14 13 14h505q14 0 14 -14v-35q0 -14 -14 -14h-86v-324q0 -43 39 -43q22 0 38 3q18 3 18 -12v-36q0 -11 -21.5 -16.5t-46.5 -5.5z" />
    <glyph glyph-name="uni0401" unicode="&#x401;" horiz-adv-x="526" 
d="M183 831q-18 0 -30.5 12.5t-12.5 29.5t12.5 29.5t30.5 12.5q17 0 30 -12.5t13 -29.5t-13 -29.5t-30 -12.5zM364 831q-17 0 -30 12.5t-13 29.5t13 29.5t30 12.5t30 -12.5t13 -29.5t-13 -29.5t-30 -12.5zM100 0q-14 0 -14 14v672q0 14 14 14h335q14 0 14 -14v-39
q0 -14 -14 -14h-274v-238h260q14 0 14 -14v-39q0 -14 -14 -14h-260v-261h275q14 0 14 -14v-39q0 -14 -14 -14h-336z" />
    <glyph glyph-name="uni0403" unicode="&#x403;" horiz-adv-x="495" 
d="M225 767q-16 0 -9 16l54 115q5 12 16 12h44q16 0 9 -16l-55 -115q-4 -12 -15 -12h-44zM100 0q-14 0 -14 14v672q0 14 14 14h329q15 0 15 -15v-39q0 -15 -15 -15h-268v-617q0 -14 -14 -14h-47z" />
    <glyph glyph-name="uni0404" unicode="&#x404;" horiz-adv-x="726" 
d="M660 101q10 -10 -3 -23q-101 -91 -236 -91q-154 0 -254.5 103.5t-100.5 256.5t100.5 257t254.5 104q135 0 236 -90q12 -12 3 -24l-28 -31q-10 -10 -22 0q-82 72 -187 72q-111 0 -188.5 -70t-90.5 -180h259q14 0 14 -14v-42q0 -14 -14 -14h-259q11 -112 89 -183.5
t190 -71.5q105 0 187 72q12 10 21 1z" />
    <glyph glyph-name="uni0406" unicode="&#x406;" horiz-adv-x="246" 
d="M100 0q-14 0 -14 14v672q0 14 14 14h47q14 0 14 -14v-672q0 -14 -14 -14h-47z" />
    <glyph glyph-name="uni0407" unicode="&#x407;" horiz-adv-x="246" 
d="M33 831q-18 0 -30.5 12.5t-12.5 29.5t12.5 29.5t30.5 12.5q17 0 30 -12.5t13 -29.5t-13 -29.5t-30 -12.5zM214 831q-17 0 -30 12.5t-13 29.5t13 29.5t30 12.5t30 -12.5t13 -29.5t-13 -29.5t-30 -12.5zM100 0q-14 0 -14 14v672q0 14 14 14h47q14 0 14 -14v-672
q0 -14 -14 -14h-47z" />
    <glyph glyph-name="uni040C" unicode="&#x40c;" horiz-adv-x="613" 
d="M279 767q-16 0 -9 16l54 115q5 12 16 12h44q16 0 9 -16l-55 -115q-4 -12 -15 -12h-44zM100 0q-14 0 -14 14v672q0 14 14 14h47q14 0 14 -14v-381l290 387q7 8 18 8h59q10 0 12 -5t-4 -13l-241 -308l269 -356q5 -8 2.5 -13t-11.5 -5h-55q-12 0 -18 9l-232 308l-89 -115
v-188q0 -14 -14 -14h-47z" />
    <glyph glyph-name="uni040E" unicode="&#x40e;" horiz-adv-x="648" 
d="M324 780q-58 0 -94.5 32t-41.5 83q-2 15 14 15h21q13 0 16 -14q6 -30 28.5 -49t56.5 -19t57 19t29 49q3 14 16 14h20q16 0 14 -15q-5 -51 -41.5 -83t-94.5 -32zM126 0q-19 0 -9 18l168 281l-231 383q-5 8 -2.5 13t11.5 5h50q11 0 17 -10l195 -324l194 324q6 10 17 10h50
q9 0 11.5 -5t-2.5 -13l-402 -672q-6 -10 -17 -10h-50z" />
    <glyph glyph-name="uni0410" unicode="&#x410;" horiz-adv-x="681" 
d="M629 17q7 -17 -11 -17h-50q-12 0 -16 12l-51 145h-320l-51 -145q-4 -12 -17 -12h-49q-18 0 -11 17l242 671q5 12 18 12h55q14 0 18 -12zM205 224h272l-136 387z" />
    <glyph glyph-name="uni0411" unicode="&#x411;" horiz-adv-x="572" 
d="M291 435q110 0 170 -59.5t60 -157.5t-60 -158t-170 -60h-191q-14 0 -14 14v672q0 14 14 14h330q15 0 15 -15v-39q0 -15 -15 -15h-269v-196h130zM285 67q74 0 118.5 36t44.5 115q0 78 -44.5 114t-118.5 36h-124v-301h124z" />
    <glyph glyph-name="uni0412" unicode="&#x412;" horiz-adv-x="585" 
d="M100 0q-14 0 -14 14v672q0 14 14 14h202q98 0 144 -49t46 -120q0 -51 -25.5 -92.5t-75.5 -58.5q67 -16 105 -66t38 -119q0 -89 -60 -142t-175 -53h-199zM160 405h135q58 0 91.5 31.5t33.5 87.5q0 109 -125 109h-135v-228zM160 67h135q80 0 121.5 35t41.5 102
q0 66 -42 103t-121 37h-135v-277z" />
    <glyph glyph-name="uni0413" unicode="&#x413;" horiz-adv-x="495" 
d="M100 0q-14 0 -14 14v672q0 14 14 14h329q15 0 15 -15v-39q0 -15 -15 -15h-268v-617q0 -14 -14 -14h-47z" />
    <glyph glyph-name="uni0414" unicode="&#x414;" horiz-adv-x="708" 
d="M662 69q15 0 15 -15v-108q0 -15 -15 -15h-45q-15 0 -15 15v54h-492v-54q0 -15 -15 -15h-45q-15 0 -15 15v108q0 15 15 15h15q52 0 72 31t20 101v484q0 15 15 15h448q13 0 13 -14v-617h29zM232 174q0 -64 -23 -105h350v562h-327v-457z" />
    <glyph glyph-name="uni0415" unicode="&#x415;" horiz-adv-x="526" 
d="M100 0q-14 0 -14 14v672q0 14 14 14h335q14 0 14 -14v-39q0 -14 -14 -14h-274v-238h260q14 0 14 -14v-39q0 -14 -14 -14h-260v-261h275q14 0 14 -14v-39q0 -14 -14 -14h-336z" />
    <glyph glyph-name="uni0416" unicode="&#x416;" horiz-adv-x="979" 
d="M930 18q5 -8 2.5 -13t-11.5 -5h-55q-12 0 -18 9l-232 308l-89 -115v-188q0 -14 -14 -14h-47q-14 0 -14 14v187l-89 115l-232 -307q-6 -9 -18 -9h-55q-9 0 -11.5 5t2.5 13l267 357l-239 307q-6 8 -4 13t12 5h59q11 0 18 -8l290 -387v381q0 14 14 14h47q14 0 14 -14v-381
l290 387q7 8 18 8h59q10 0 12 -5t-4 -13l-240 -308z" />
    <glyph glyph-name="uni0417" unicode="&#x417;" horiz-adv-x="504" 
d="M234 -13q-124 0 -191 97q-7 10 3 18l30 27q8 9 16 -2q55 -73 141 -73q66 0 107 40t41 103q0 67 -45.5 106.5t-111.5 39.5h-17q-14 0 -14 11v37q0 13 14 13h17q58 0 93.5 35.5t35.5 87.5q0 50 -32.5 82t-85.5 32q-77 0 -121 -71q-8 -11 -19 -2l-29 27q-6 6 0 17
q26 42 71.5 69t103.5 27q79 0 130.5 -48.5t51.5 -121.5q0 -109 -105 -161q61 -20 98.5 -68.5t37.5 -117.5q0 -88 -62 -146t-158 -58z" />
    <glyph glyph-name="uni0418" unicode="&#x418;" horiz-adv-x="669" 
d="M569 700q14 0 14 -14v-672q0 -14 -14 -14h-47q-14 0 -14 14v579l-326 -583q-6 -10 -18 -10h-64q-14 0 -14 14v672q0 14 14 14h47q14 0 14 -14v-579l326 583q6 10 18 10h64z" />
    <glyph glyph-name="uni0419" unicode="&#x419;" horiz-adv-x="669" 
d="M341 779q-58 0 -94.5 32t-41.5 83q-1 15 14 15h20q13 0 16 -14q6 -30 28.5 -49t57.5 -19q34 0 56.5 19t28.5 49q3 14 16 14h21q15 0 14 -15q-5 -51 -41.5 -83t-94.5 -32zM569 700q14 0 14 -14v-672q0 -14 -14 -14h-47q-14 0 -14 14v579l-326 -583q-6 -10 -18 -10h-64
q-14 0 -14 14v672q0 14 14 14h47q14 0 14 -14v-579l326 583q6 10 18 10h64z" />
    <glyph glyph-name="uni041A" unicode="&#x41a;" horiz-adv-x="613" 
d="M100 0q-14 0 -14 14v672q0 14 14 14h47q14 0 14 -14v-381l290 387q7 8 18 8h59q10 0 12 -5t-4 -13l-241 -308l269 -356q5 -8 2.5 -13t-11.5 -5h-55q-12 0 -18 9l-232 308l-89 -115v-188q0 -14 -14 -14h-47z" />
    <glyph glyph-name="uni041B" unicode="&#x41b;" horiz-adv-x="689" 
d="M43 -5q-18 0 -18 13v45q0 11 10 11q52 0 72 31.5t20 102.5v487q0 15 15 15h448q14 0 14 -14v-672q0 -14 -14 -14h-47q-14 0 -14 14v617h-327v-460q0 -87 -40.5 -131.5t-118.5 -44.5z" />
    <glyph glyph-name="uni041C" unicode="&#x41c;" horiz-adv-x="874" 
d="M100 0q-14 0 -14 14v672q0 14 14 14h65q12 0 16 -10l256 -608l256 608q4 10 16 10h65q14 0 14 -14v-672q0 -14 -14 -14h-47q-14 0 -14 14v563l-15 -47l-219 -519q-4 -11 -17 -11h-50q-13 0 -17 11l-219 519l-15 47v-563q0 -14 -14 -14h-47z" />
    <glyph glyph-name="uni041D" unicode="&#x41d;" horiz-adv-x="652" 
d="M100 0q-14 0 -14 14v672q0 14 14 14h47q14 0 14 -14v-305h330v305q0 14 14 14h47q14 0 14 -14v-672q0 -14 -14 -14h-47q-14 0 -14 14v300h-330v-300q0 -14 -14 -14h-47z" />
    <glyph glyph-name="uni041E" unicode="&#x41e;" horiz-adv-x="847" 
d="M424 -13q-151 0 -254.5 104t-103.5 256t103.5 256.5t254.5 104.5t254.5 -104.5t103.5 -256.5t-103.5 -256t-254.5 -104zM424 60q120 0 201 82t81 205t-81 205.5t-201 82.5q-121 0 -201.5 -82t-80.5 -206q0 -123 80.5 -205t201.5 -82z" />
    <glyph glyph-name="uni041F" unicode="&#x41f;" horiz-adv-x="647" 
d="M100 0q-14 0 -14 14v672q0 14 14 14h447q14 0 14 -14v-672q0 -14 -14 -14h-47q-13 0 -13 14v617h-326v-617q0 -14 -14 -14h-47z" />
    <glyph glyph-name="uni0420" unicode="&#x420;" horiz-adv-x="577" 
d="M100 0q-14 0 -14 14v672q0 14 14 14h191q110 0 170 -60t60 -158t-60 -157.5t-170 -59.5h-130v-251q0 -14 -14 -14h-47zM161 332h124q74 0 118.5 36t44.5 114q0 79 -44.5 115t-118.5 36h-124v-301z" />
    <glyph glyph-name="uni0421" unicode="&#x421;" horiz-adv-x="726" 
d="M421 -13q-154 0 -254.5 103.5t-100.5 256.5t100.5 257t254.5 104q135 0 236 -90q12 -12 3 -24l-28 -31q-10 -10 -22 0q-82 72 -187 72q-121 0 -201 -82t-80 -206t80 -205.5t201 -81.5q105 0 187 72q12 10 21 1l29 -32q10 -10 -3 -23q-101 -91 -236 -91z" />
    <glyph glyph-name="uni0422" unicode="&#x422;" horiz-adv-x="534" 
d="M243 0q-14 0 -14 14v619h-149q-14 0 -14 14v39q0 14 14 14h374q14 0 14 -14v-39q0 -14 -14 -14h-150v-619q0 -14 -14 -14h-47z" />
    <glyph glyph-name="uni0423" unicode="&#x423;" horiz-adv-x="648" 
d="M126 0q-19 0 -9 18l168 281l-231 383q-5 8 -2.5 13t11.5 5h50q11 0 17 -10l195 -324l194 324q6 10 17 10h50q9 0 11.5 -5t-2.5 -13l-402 -672q-6 -10 -17 -10h-50z" />
    <glyph glyph-name="uni0424" unicode="&#x424;" horiz-adv-x="848" 
d="M479 640q151 0 229.5 -84t78.5 -206t-78.5 -206t-229.5 -84h-23v-46q0 -14 -14 -14h-47q-14 0 -14 14v46h-23q-151 0 -229 84t-78 206t78 206t229 84h23v46q0 14 14 14h47q14 0 14 -14v-46h23zM360 129h21v442h-21q-117 0 -175 -61.5t-58 -159.5t58 -159.5t175 -61.5z
M478 129q117 0 175 61.5t58 159.5t-58 159.5t-175 61.5h-22v-442h22z" />
    <glyph glyph-name="uni0425" unicode="&#x425;" horiz-adv-x="629" 
d="M72 0q-19 0 -8 18l209 341l-199 323q-11 18 8 18h53q9 0 17 -10l163 -265l163 265q6 10 16 10h53q19 0 8 -18l-199 -323l209 -341q11 -18 -8 -18h-51q-11 0 -17 10l-174 282l-175 -282q-6 -10 -17 -10h-51z" />
    <glyph glyph-name="uni0426" unicode="&#x426;" horiz-adv-x="647" 
d="M603 69q14 0 14 -14v-110q0 -14 -14 -14h-47q-14 0 -14 14v55h-442q-14 0 -14 14v672q0 14 14 14h47q14 0 14 -14v-617h326v617q0 14 13 14h47q14 0 14 -14v-617h42z" />
    <glyph glyph-name="uni0427" unicode="&#x427;" horiz-adv-x="604" 
d="M458 0q-15 0 -15 15v282q-72 -102 -197 -101q-90 2 -145 58.5t-55 153.5v277q0 15 15 15h44q15 0 15 -15v-268q0 -70 42 -109t109 -39q69 0 120.5 40t51.5 108v268q0 15 15 15h45q15 0 15 -15v-670q0 -15 -15 -15h-45z" />
    <glyph glyph-name="uni0428" unicode="&#x428;" horiz-adv-x="962" 
d="M862 700q14 0 14 -14v-672q0 -14 -14 -14h-762q-14 0 -14 14v672q0 14 14 14h47q14 0 14 -14v-617h283v617q0 14 14 14h47q13 0 13 -14v-617h283v617q0 14 14 14h47z" />
    <glyph glyph-name="uni0429" unicode="&#x429;" horiz-adv-x="963" 
d="M919 69q14 0 14 -14v-110q0 -14 -14 -14h-47q-14 0 -14 14v55h-758q-14 0 -14 14v672q0 14 14 14h47q14 0 14 -14v-617h283v617q0 14 14 14h47q13 0 13 -14v-617h283v617q0 14 14 14h47q14 0 14 -14v-617h43z" />
    <glyph glyph-name="uni042A" unicode="&#x42a;" horiz-adv-x="630" 
d="M349 435q110 0 170 -59.5t60 -157.5t-60 -158t-170 -60h-191q-14 0 -14 14v619h-105q-13 0 -13 14v39q0 14 13 14h166q14 0 14 -14v-251h130zM343 67q74 0 118.5 36t44.5 115q0 78 -44.5 114t-118.5 36h-124v-301h124z" />
    <glyph glyph-name="uni042B" unicode="&#x42b;" horiz-adv-x="757" 
d="M100 0q-14 0 -14 14v672q0 14 14 14h47q14 0 14 -14v-251h130q110 0 170 -59.5t60 -157.5t-60 -158t-170 -60h-191zM610 0q-14 0 -14 14v672q0 14 14 14h47q14 0 14 -14v-672q0 -14 -14 -14h-47zM161 67h124q74 0 118.5 36t44.5 115q0 78 -44.5 114t-118.5 36h-124v-301z
" />
    <glyph glyph-name="uni042C" unicode="&#x42c;" horiz-adv-x="577" 
d="M100 0q-14 0 -14 14v672q0 14 14 14h47q14 0 14 -14v-251h130q110 0 170 -59.5t60 -157.5t-60 -158t-170 -60h-191zM161 67h124q74 0 118.5 36t44.5 115q0 78 -44.5 114t-118.5 36h-124v-301z" />
    <glyph glyph-name="uni042D" unicode="&#x42d;" horiz-adv-x="726" 
d="M311 708q153 0 253.5 -104t100.5 -257t-100.5 -256.5t-253.5 -103.5q-136 0 -237 91q-13 13 -3 23l29 32q9 9 21 -1q82 -72 187 -72q112 0 190 71.5t89 183.5h-259q-14 0 -14 14v42q0 14 14 14h259q-13 110 -90.5 180t-188.5 70q-105 0 -187 -72q-12 -10 -22 0l-28 31
q-9 12 3 24q101 90 237 90z" />
    <glyph glyph-name="uni042E" unicode="&#x42e;" horiz-adv-x="1032" 
d="M608 708q151 0 254.5 -104.5t103.5 -256.5t-103.5 -256t-254.5 -104q-142 0 -243.5 94t-113.5 234h-90v-301q0 -14 -14 -14h-47q-14 0 -14 14v672q0 14 14 14h47q14 0 14 -14v-301h91q14 139 115 231t241 92zM608 60q121 0 201.5 82t80.5 205q0 124 -80.5 206t-201.5 82
t-201.5 -82t-80.5 -206q0 -123 80.5 -205t201.5 -82z" />
    <glyph glyph-name="uni042F" unicode="&#x42f;" horiz-adv-x="589" 
d="M489 700q14 0 14 -14v-672q0 -14 -14 -14h-47q-14 0 -14 14v251h-112l-169 -255q-6 -10 -18 -10h-50q-21 0 -10 18l170 252q-83 15 -127 72t-44 140q0 98 60 158t170 60h191zM428 332v301h-124q-74 0 -118.5 -36t-44.5 -115q0 -78 44.5 -114t118.5 -36h124z" />
    <glyph glyph-name="uni0430" unicode="&#x430;" horiz-adv-x="626" 
d="M292 -12q-106 0 -173.5 73t-67.5 184t67.5 184t173.5 73q128 0 188 -108l2 82q0 14 13 14h43q13 0 13 -14v-462q0 -14 -13 -14h-43q-13 0 -13 14l-2 80q-58 -106 -188 -106zM302 55q79 0 128.5 52t49.5 136q0 85 -49.5 138.5t-128.5 53.5t-130 -53t-51 -137
q0 -85 51 -137.5t130 -52.5z" />
    <glyph glyph-name="uni0431" unicode="&#x431;" horiz-adv-x="626" 
d="M334 -12q-130 0 -188 106l-2 -80q0 -14 -13 -14h-42q-13 0 -13 14v526q0 81 37.5 120.5t121.5 39.5h178q36 0 39 20h57v-15q0 -68 -81 -68h-182q-53 0 -75.5 -24t-22.5 -79v-137q59 105 186 105q107 0 174.5 -73t67.5 -184t-67.5 -184t-174.5 -73zM324 55q80 0 131 52.5
t51 137.5q0 84 -51 137t-131 53q-78 0 -127.5 -53.5t-49.5 -138.5q0 -84 49.5 -136t127.5 -52z" />
    <glyph glyph-name="uni0432" unicode="&#x432;" horiz-adv-x="519" 
d="M366 266q48 -11 75 -44t27 -81q0 -61 -45.5 -101t-137.5 -40h-196q-13 0 -13 14v462q0 14 13 14h201q67 0 105 -33t38 -87q0 -38 -19 -66t-48 -38zM367 361q0 67 -81 67h-138v-139h138q41 0 61 20t20 52zM279 62q121 0 121 84q0 90 -131 90h-121v-174h131z" />
    <glyph glyph-name="uni0433" unicode="&#x433;" horiz-adv-x="419" 
d="M91 0q-15 0 -15 15v460q0 15 15 15h273q15 0 15 -15v-32q0 -15 -15 -15h-216v-413q0 -15 -15 -15h-42z" />
    <glyph glyph-name="uni0434" unicode="&#x434;" horiz-adv-x="633" 
d="M588 62q14 0 14 -14v-104q0 -14 -14 -14h-44q-14 0 -14 14v56h-423v-56q0 -14 -14 -14h-44q-14 0 -14 14v110q0 9 10 9q48 0 68 31t20 89v292q0 15 15 15h386q12 0 12 -14v-414h42zM205 428v-258q0 -71 -35 -108h304v366h-269z" />
    <glyph glyph-name="uni0435" unicode="&#x435;" horiz-adv-x="577" 
d="M310 -12q-117 0 -188 74.5t-71 184.5q0 109 69 182t177 73q104 0 166.5 -68.5t62.5 -163.5q0 -28 -7.5 -39.5t-28.5 -11.5h-369q8 -76 58.5 -123t136.5 -47q79 0 141 47q9 7 15 -1l17 -23q7 -10 -4 -21q-66 -63 -175 -63zM121 275h341q-3 74 -47.5 118.5t-118.5 44.5
q-73 0 -120.5 -44t-54.5 -119z" />
    <glyph glyph-name="uni0436" unicode="&#x436;" horiz-adv-x="832" 
d="M796 18q7 -7 5 -12.5t-12 -5.5h-54q-11 0 -18 8l-198 216l-67 -69v-141q0 -14 -13 -14h-46q-13 0 -13 14v141l-67 69l-198 -216q-7 -8 -18 -8h-54q-10 0 -12.5 5.5t4.5 12.5l232 254l-197 200q-7 8 -5 13t12 5h56q11 0 19 -8l228 -237v231q0 14 13 14h46q13 0 13 -14
v-231l228 237q8 8 19 8h55q10 0 12 -5t-5 -13l-196 -200z" />
    <glyph glyph-name="uni0437" unicode="&#x437;" horiz-adv-x="411" 
d="M192 -10q-93 0 -145 65q-12 14 -1 25l20 22q9 10 23 -6q42 -42 101 -42q46 0 74 24t28 62q0 42 -35.5 67.5t-92.5 25.5q-12 0 -12 13v30q0 12 12 12q49 0 79 21t30 57q0 33 -24.5 52.5t-62.5 19.5q-47 0 -89 -39q-16 -14 -25 0l-15 19q-9 10 3 23q51 60 136 60
q65 0 105 -37t40 -89q0 -70 -75 -111q44 -17 69 -50.5t25 -77.5q0 -63 -47 -104.5t-121 -41.5z" />
    <glyph glyph-name="uni0438" unicode="&#x438;" horiz-adv-x="579" 
d="M490 490q13 0 13 -14v-462q0 -14 -13 -14h-46q-13 0 -13 14v388l-257 -392q-7 -10 -19 -10h-66q-13 0 -13 14v462q0 14 13 14h46q13 0 13 -14v-395l262 399q7 10 19 10h61z" />
    <glyph glyph-name="uni0439" unicode="&#x439;" horiz-adv-x="579" 
d="M292 570q-58 0 -94.5 32t-41.5 83q-2 15 14 15h21q13 0 16 -14q6 -30 28.5 -49t56.5 -19t57 19t29 49q3 14 16 14h20q16 0 14 -15q-5 -51 -41.5 -83t-94.5 -32zM490 490q13 0 13 -14v-462q0 -14 -13 -14h-46q-13 0 -13 14v388l-257 -392q-7 -10 -19 -10h-66q-13 0 -13 14
v462q0 14 13 14h46q13 0 13 -14v-395l262 399q7 10 19 10h61z" />
    <glyph glyph-name="uni043A" unicode="&#x43a;" horiz-adv-x="528" 
d="M492 18q7 -7 5 -12.5t-12 -5.5h-54q-11 0 -18 8l-198 216l-67 -69v-141q0 -14 -13 -14h-46q-13 0 -13 14v462q0 14 13 14h46q13 0 13 -14v-231l228 237q8 8 19 8h55q10 0 12 -5t-5 -13l-196 -200z" />
    <glyph glyph-name="uni043B" unicode="&#x43b;" horiz-adv-x="560" 
d="M-15 -5q-12 0 -12 8v48q0 9 10 9q48 0 68 31t20 90v294q0 15 15 15h385q13 0 13 -14v-462q0 -14 -13 -14h-46q-13 0 -13 14v414h-269v-259q0 -87 -41 -130.5t-117 -43.5z" />
    <glyph glyph-name="uni043C" unicode="&#x43c;" horiz-adv-x="729" 
d="M640 490q13 0 13 -14v-462q0 -14 -13 -14h-46q-13 0 -13 14v356l-174 -359q-5 -11 -17 -11h-51q-12 0 -17 11l-174 359v-356q0 -14 -13 -14h-46q-13 0 -13 14v462q0 14 13 14h62q12 0 17 -11l196 -405l197 405q6 11 17 11h62z" />
    <glyph glyph-name="uni043D" unicode="&#x43d;" horiz-adv-x="584" 
d="M496 490q13 0 13 -14v-462q0 -14 -13 -14h-47q-12 0 -12 14v189h-289v-189q0 -14 -13 -14h-46q-13 0 -13 14v462q0 14 13 14h46q13 0 13 -14v-210h289v210q0 14 12 14h47z" />
    <glyph glyph-name="uni043E" unicode="&#x43e;" horiz-adv-x="603" 
d="M302 -12q-107 0 -179 73.5t-72 183.5t72 183.5t179 73.5t178.5 -74t71.5 -183t-71.5 -183t-178.5 -74zM302 55q78 0 129 53.5t51 136.5t-51 136.5t-129 53.5t-129.5 -53.5t-51.5 -136.5t51.5 -136.5t129.5 -53.5z" />
    <glyph glyph-name="uni043F" unicode="&#x43f;" horiz-adv-x="595" 
d="M506 490q13 0 13 -14v-462q0 -14 -13 -14h-46q-13 0 -13 14v413h-299v-413q0 -14 -13 -14h-46q-13 0 -13 14v462q0 14 13 14h417z" />
    <glyph glyph-name="uni0440" unicode="&#x440;" horiz-adv-x="626" 
d="M89 -190q-13 0 -13 14v652q0 14 13 14h42q13 0 13 -14l2 -82q60 108 188 108q107 0 174.5 -73t67.5 -184t-67.5 -184t-174.5 -73q-127 0 -186 103v-267q0 -14 -13 -14h-46zM324 55q80 0 131 52.5t51 137.5q0 84 -51 137t-131 53q-78 0 -127.5 -53.5t-49.5 -138.5
q0 -84 49.5 -136t127.5 -52z" />
    <glyph glyph-name="uni0441" unicode="&#x441;" horiz-adv-x="546" 
d="M306 -12q-109 0 -182 73.5t-73 183.5t73 183.5t182 73.5q115 0 183 -82q9 -13 2 -20l-26 -24q-11 -11 -23 1q-54 58 -133 58q-81 0 -134.5 -53.5t-53.5 -136.5q0 -84 53.5 -137t135.5 -53q79 0 132 57q13 13 24 2l26 -24q7 -7 -2 -20q-68 -82 -184 -82z" />
    <glyph glyph-name="uni0442" unicode="&#x442;" horiz-adv-x="452" 
d="M205 0q-15 0 -15 15v412h-130q-15 0 -15 15v33q0 15 15 15h332q15 0 15 -15v-33q0 -15 -15 -15h-130v-412q0 -15 -15 -15h-42z" />
    <glyph glyph-name="uni0443" unicode="&#x443;" horiz-adv-x="545" 
d="M177 -190q-17 0 -10 15l69 173l-188 475q-6 17 11 17h46q11 0 16 -12l151 -398l152 398q4 12 16 12h46q17 0 11 -17l-258 -651q-5 -12 -17 -12h-45z" />
    <glyph glyph-name="uni0444" unicode="&#x444;" horiz-adv-x="975" 
d="M465 -190q-14 0 -14 14v259q-60 -95 -172 -95q-99 0 -163.5 74t-64.5 182t64.5 182t163.5 74q112 0 172 -95v259q0 14 14 14h45q13 0 13 -14v-259q62 95 173 95q99 0 163.5 -74t64.5 -182t-64.5 -182t-163.5 -74q-111 0 -173 95v-259q0 -14 -13 -14h-45zM285 53
q72 0 119 55.5t47 134.5t-47 135.5t-119 56.5q-71 0 -118 -55t-47 -137t47 -136t118 -54zM690 53q71 0 118 54t47 136t-47 137t-118 55q-72 0 -119.5 -56.5t-47.5 -135.5t47.5 -134.5t119.5 -55.5z" />
    <glyph glyph-name="uni0445" unicode="&#x445;" horiz-adv-x="490" 
d="M57 0q-8 0 -10.5 5t2.5 12l153 233l-146 223q-10 17 8 17h51q11 0 17 -10l113 -179l114 179q6 10 17 10h51q18 0 8 -17l-147 -223l154 -233q5 -7 2.5 -12t-10.5 -5h-51q-11 0 -17 10l-121 190l-120 -190q-6 -10 -17 -10h-51z" />
    <glyph glyph-name="uni0446" unicode="&#x446;" horiz-adv-x="593" 
d="M549 62q14 0 14 -14v-104q0 -14 -14 -14h-41q-14 0 -14 14v56h-405q-13 0 -13 14v462q0 14 13 14h46q13 0 13 -14v-413h299v413q0 14 13 14h46q13 0 13 -14v-414h30z" />
    <glyph glyph-name="uni0447" unicode="&#x447;" horiz-adv-x="543" 
d="M455 490q13 0 13 -14v-462q0 -14 -13 -14h-47q-12 0 -12 14v173q-23 -35 -65.5 -56t-95.5 -21q-75 0 -129.5 46.5t-54.5 149.5v170q0 14 13 14h46q13 0 13 -14v-162q0 -68 34 -102.5t94 -34.5q61 0 103 35t42 102v162q0 14 12 14h47z" />
    <glyph glyph-name="uni0448" unicode="&#x448;" horiz-adv-x="712" 
d="M623 490q13 0 13 -14v-462q0 -14 -13 -14h-534q-13 0 -13 14v462q0 14 13 14h46q13 0 13 -14v-413h172v413q0 14 13 14h46q13 0 13 -14v-413h172v413q0 14 13 14h46z" />
    <glyph glyph-name="uni0449" unicode="&#x449;" horiz-adv-x="705" 
d="M661 62q14 0 14 -14v-104q0 -14 -14 -14h-44q-14 0 -14 14v56h-514q-13 0 -13 14v462q0 14 13 14h46q13 0 13 -14v-413h172v413q0 14 13 14h46q13 0 13 -14v-413h172v413q0 14 13 14h46q13 0 13 -14v-414h25z" />
    <glyph glyph-name="uni044A" unicode="&#x44a;" horiz-adv-x="570" 
d="M342 321q88 0 132.5 -41.5t44.5 -119.5t-44.5 -119t-132.5 -41h-239q-12 0 -12 14v414h-51q-14 0 -14 14v34q0 14 14 14h110q12 0 12 -14v-155h180zM338 61q111 0 111 99q0 100 -111 100h-176v-199h176z" />
    <glyph glyph-name="uni044B" unicode="&#x44b;" horiz-adv-x="727" 
d="M89 0q-13 0 -13 14v462q0 14 13 14h46q13 0 13 -14v-155h180q176 0 176 -161q0 -160 -176 -160h-239zM592 0q-13 0 -13 14v462q0 14 13 14h46q13 0 13 -14v-462q0 -14 -13 -14h-46zM148 61h175q111 0 111 99q0 100 -111 100h-175v-199z" />
    <glyph glyph-name="uni044C" unicode="&#x44c;" horiz-adv-x="555" 
d="M89 0q-13 0 -13 14v462q0 14 13 14h46q13 0 13 -14v-155h180q176 0 176 -161q0 -160 -176 -160h-239zM148 61h175q111 0 111 99q0 100 -111 100h-175v-199z" />
    <glyph glyph-name="uni044D" unicode="&#x44d;" horiz-adv-x="546" 
d="M241 502q108 0 181.5 -73.5t73.5 -183.5t-73 -183.5t-182 -73.5q-117 0 -185 82q-9 12 -1 20l25 24q11 11 24 -2q53 -57 133 -57q74 0 125.5 44.5t60.5 116.5h-189q-13 0 -13 14v28q0 14 13 14h189q-8 73 -59.5 118t-125.5 45q-80 0 -134 -58q-12 -12 -23 -1l-25 24
q-8 8 1 20q68 82 184 82z" />
    <glyph glyph-name="uni044E" unicode="&#x44e;" horiz-adv-x="779" 
d="M478 502q107 0 178.5 -74t71.5 -183t-71.5 -183t-178.5 -74q-99 0 -168.5 64t-80.5 162h-81v-201q0 -14 -13 -14h-46q-13 0 -13 14v462q0 14 13 14h46q13 0 13 -14v-200h81q10 99 80 163t169 64zM478 55q78 0 129 53.5t51 136.5t-51 136.5t-129 53.5t-129.5 -53.5
t-51.5 -136.5t51.5 -136.5t129.5 -53.5z" />
    <glyph glyph-name="uni044F" unicode="&#x44f;" horiz-adv-x="555" 
d="M466 490q13 0 13 -14v-462q0 -14 -13 -14h-46q-13 0 -13 14v155h-126l-142 -161q-7 -8 -17 -8h-50q-10 0 -12 5t5 13l137 152q-151 12 -151 160q0 160 176 160h239zM407 230v199h-176q-110 0 -110 -99q0 -100 110 -100h176z" />
    <glyph glyph-name="uni0451" unicode="&#x451;" horiz-adv-x="577" 
d="M199 621q-18 0 -30.5 12.5t-12.5 29.5t12.5 29.5t30.5 12.5q17 0 30 -12.5t13 -29.5t-13 -29.5t-30 -12.5zM380 621q-17 0 -30 12.5t-13 29.5t13 29.5t30 12.5t30 -12.5t13 -29.5t-13 -29.5t-30 -12.5zM310 -12q-117 0 -188 74.5t-71 184.5q0 109 69 182t177 73
q104 0 166.5 -68.5t62.5 -163.5q0 -28 -7.5 -39.5t-28.5 -11.5h-369q8 -76 58.5 -123t136.5 -47q79 0 141 47q9 7 15 -1l17 -23q7 -10 -4 -21q-66 -63 -175 -63zM121 275h341q-3 74 -47.5 118.5t-118.5 44.5q-73 0 -120.5 -44t-54.5 -119z" />
    <glyph glyph-name="uni0453" unicode="&#x453;" horiz-adv-x="419" 
d="M205 557q-16 0 -9 16l54 115q5 12 16 12h44q16 0 9 -16l-55 -115q-4 -12 -15 -12h-44zM91 0q-15 0 -15 15v460q0 15 15 15h273q15 0 15 -15v-32q0 -15 -15 -15h-216v-413q0 -15 -15 -15h-42z" />
    <glyph glyph-name="uni0454" unicode="&#x454;" horiz-adv-x="546" 
d="M492 90q7 -7 -2 -20q-68 -82 -184 -82q-109 0 -182 73.5t-73 183.5t73 183.5t182 73.5q115 0 183 -82q9 -13 2 -20l-26 -24q-11 -11 -23 1q-54 58 -133 58q-74 0 -126 -45t-60 -118h190q13 0 13 -14v-28q0 -14 -13 -14h-190q9 -72 61 -116.5t126 -44.5q79 0 132 57
q13 13 24 2z" />
    <glyph glyph-name="uni0456" unicode="&#x456;" horiz-adv-x="223" 
d="M112 617q-19 0 -32 13t-13 32t13 32.5t32 13.5t32 -13.5t13 -32.5t-13 -32t-32 -13zM89 0q-13 0 -13 14v462q0 14 13 14h46q13 0 13 -14v-462q0 -14 -13 -14h-46z" />
    <glyph glyph-name="uni0457" unicode="&#x457;" horiz-adv-x="192" 
d="M7 621q-18 0 -30.5 12.5t-12.5 29.5t12.5 29.5t30.5 12.5q17 0 30 -12.5t13 -29.5t-13 -29.5t-30 -12.5zM188 621q-17 0 -30 12.5t-13 29.5t13 29.5t30 12.5t30 -12.5t13 -29.5t-13 -29.5t-30 -12.5zM73 0q-13 0 -13 14v462q0 14 13 14h46q13 0 13 -14v-462
q0 -14 -13 -14h-46z" />
    <glyph glyph-name="uni045C" unicode="&#x45c;" horiz-adv-x="528" 
d="M258 557q-16 0 -9 16l54 115q5 12 16 12h44q16 0 9 -16l-55 -115q-4 -12 -15 -12h-44zM492 18q7 -7 5 -12.5t-12 -5.5h-54q-11 0 -18 8l-198 216l-67 -69v-141q0 -14 -13 -14h-46q-13 0 -13 14v462q0 14 13 14h46q13 0 13 -14v-231l228 237q8 8 19 8h55q10 0 12 -5
t-5 -13l-196 -200z" />
    <glyph glyph-name="uni045E" unicode="&#x45e;" horiz-adv-x="545" 
d="M265 570q-58 0 -94.5 32t-41.5 83q-1 15 14 15h21q13 0 16 -14q6 -30 28.5 -49t56.5 -19t57 19t29 49q3 14 16 14h20q15 0 14 -15q-5 -51 -41.5 -83t-94.5 -32zM177 -190q-17 0 -10 15l69 173l-188 475q-6 17 11 17h46q11 0 16 -12l151 -398l152 398q4 12 16 12h46
q17 0 11 -17l-258 -651q-5 -12 -17 -12h-45z" />
    <glyph glyph-name="uni0490" unicode="&#x490;" horiz-adv-x="496" 
d="M430 751q15 0 15 -15v-90h-1q0 -15 -15 -15h-268v-617q0 -14 -14 -14h-47q-14 0 -14 14v672q0 14 14 14h276v36q0 15 15 15h39z" />
    <glyph glyph-name="uni0491" unicode="&#x491;" horiz-adv-x="419" 
d="M364 552q15 0 15 -15v-94q0 -15 -15 -15h-216v-413q0 -15 -15 -15h-42q-15 0 -15 15v460q0 15 15 15h216v47q0 15 15 15h42z" />
    <glyph glyph-name="Wgrave" unicode="&#x1e80;" horiz-adv-x="1081" 
d="M560 767h-43q-11 0 -16 12l-55 115q-7 16 9 16h45q11 0 15 -12l54 -115q7 -16 -9 -16zM276 0q-13 0 -17 12l-207 671q-5 17 12 17h47q13 0 17 -12l177 -588l193 588q4 12 16 12h53q12 0 16 -12l193 -588l177 588q5 12 17 12h47q17 0 12 -17l-207 -671q-4 -12 -17 -12h-55
q-13 0 -17 12l-192 595l-193 -595q-4 -12 -17 -12h-55z" />
    <glyph glyph-name="wgrave" unicode="&#x1e81;" horiz-adv-x="870" 
d="M453 557h-43q-11 0 -16 12l-55 115q-7 16 9 16h45q11 0 15 -12l54 -115q7 -16 -9 -16zM226 0q-14 0 -18 12l-160 461q-6 17 11 17h45q12 0 16 -12l134 -399l138 399q4 12 18 12h50q13 0 18 -12l138 -399l134 399q4 12 15 12h46q17 0 11 -17l-161 -461q-5 -12 -18 -12h-51
q-14 0 -18 12l-139 399l-140 -399q-5 -12 -18 -12h-51z" />
    <glyph glyph-name="Wacute" unicode="&#x1e82;" horiz-adv-x="1081" 
d="M523 767q-16 0 -9 16l54 115q5 12 16 12h44q16 0 9 -16l-55 -115q-4 -12 -15 -12h-44zM276 0q-13 0 -17 12l-207 671q-5 17 12 17h47q13 0 17 -12l177 -588l193 588q4 12 16 12h53q12 0 16 -12l193 -588l177 588q5 12 17 12h47q17 0 12 -17l-207 -671q-4 -12 -17 -12h-55
q-13 0 -17 12l-192 595l-193 -595q-4 -12 -17 -12h-55z" />
    <glyph glyph-name="wacute" unicode="&#x1e83;" horiz-adv-x="870" 
d="M417 557q-16 0 -9 16l54 115q5 12 16 12h44q16 0 9 -16l-55 -115q-4 -12 -15 -12h-44zM226 0q-14 0 -18 12l-160 461q-6 17 11 17h45q12 0 16 -12l134 -399l138 399q4 12 18 12h50q13 0 18 -12l138 -399l134 399q4 12 15 12h46q17 0 11 -17l-161 -461q-5 -12 -18 -12h-51
q-14 0 -18 12l-139 399l-140 -399q-5 -12 -18 -12h-51z" />
    <glyph glyph-name="Wdieresis" unicode="&#x1e84;" horiz-adv-x="1081" 
d="M451 831q-18 0 -30.5 12.5t-12.5 29.5t12.5 29.5t30.5 12.5q17 0 30 -12.5t13 -29.5t-13 -29.5t-30 -12.5zM632 831q-17 0 -30 12.5t-13 29.5t13 29.5t30 12.5t30 -12.5t13 -29.5t-13 -29.5t-30 -12.5zM276 0q-13 0 -17 12l-207 671q-5 17 12 17h47q13 0 17 -12l177 -588
l193 588q4 12 16 12h53q12 0 16 -12l193 -588l177 588q5 12 17 12h47q17 0 12 -17l-207 -671q-4 -12 -17 -12h-55q-13 0 -17 12l-192 595l-193 -595q-4 -12 -17 -12h-55z" />
    <glyph glyph-name="wdieresis" unicode="&#x1e85;" horiz-adv-x="870" 
d="M345 621q-18 0 -30.5 12.5t-12.5 29.5t12.5 29.5t30.5 12.5q17 0 30 -12.5t13 -29.5t-13 -29.5t-30 -12.5zM526 621q-17 0 -30 12.5t-13 29.5t13 29.5t30 12.5t30 -12.5t13 -29.5t-13 -29.5t-30 -12.5zM226 0q-14 0 -18 12l-160 461q-6 17 11 17h45q12 0 16 -12l134 -399
l138 399q4 12 18 12h50q13 0 18 -12l138 -399l134 399q4 12 15 12h46q17 0 11 -17l-161 -461q-5 -12 -18 -12h-51q-14 0 -18 12l-139 399l-140 -399q-5 -12 -18 -12h-51z" />
    <glyph glyph-name="uni1E9E" unicode="&#x1e9e;" horiz-adv-x="623" 
d="M392 -12q-102 0 -162 77q-10 11 -1 22l19 24q10 13 22 0q53 -55 119 -55q49 0 78.5 26t29.5 71q0 37 -20.5 63t-60.5 48l-58 32q-53 29 -81 61.5t-28 84.5q0 67 46 104t117 38q-34 49 -114 49q-137 0 -137 -134v-485q0 -14 -13 -14h-49q-13 0 -13 14v500q0 89 57.5 137.5
t150.5 48.5q129 0 178 -89v-88h-53q-42 0 -70 -19.5t-28 -60.5q0 -32 20 -52.5t63 -43.5l48 -27q57 -31 88.5 -69.5t31.5 -97.5q0 -75 -52 -120t-128 -45z" />
    <glyph glyph-name="Ygrave" unicode="&#x1ef2;" horiz-adv-x="597" 
d="M317 767h-43q-11 0 -16 12l-55 115q-7 16 9 16h45q11 0 15 -12l54 -115q7 -16 -9 -16zM275 0q-14 0 -14 14v322l-207 346q-5 8 -2.5 13t11.5 5h52q11 0 17 -10l166 -283l167 283q6 10 17 10h52q9 0 11.5 -5t-2.5 -13l-207 -346v-322q0 -14 -14 -14h-47z" />
    <glyph glyph-name="ygrave" unicode="&#x1ef3;" horiz-adv-x="545" 
d="M291 557h-43q-11 0 -16 12l-55 115q-7 16 9 16h45q11 0 15 -12l54 -115q7 -16 -9 -16zM177 -190q-17 0 -10 15l69 173l-188 475q-6 17 11 17h46q11 0 16 -12l151 -398l152 398q4 12 16 12h46q17 0 11 -17l-258 -651q-5 -12 -17 -12h-45z" />
    <glyph glyph-name="endash" unicode="&#x2013;" horiz-adv-x="621" 
d="M68 251q-13 0 -13 13v37q0 13 13 13h484q13 0 13 -13v-37q0 -13 -13 -13h-484z" />
    <glyph glyph-name="emdash" unicode="&#x2014;" horiz-adv-x="681" 
d="M68 251q-13 0 -13 13v37q0 13 13 13h544q13 0 13 -13v-37q0 -13 -13 -13h-544z" />
    <glyph glyph-name="quoteleft" unicode="&#x2018;" horiz-adv-x="194" 
d="M159 715v-27q-45 -1 -65 -41q-14 -29 0 -40q3 -2 8 -2q25 1 40.5 -13.5t15.5 -37.5t-16.5 -38.5t-39.5 -15.5q-28 0 -47.5 23.5t-19.5 61.5q0 52 35 91.5t89 38.5z" />
    <glyph glyph-name="quoteright" unicode="&#x2019;" horiz-adv-x="194" 
d="M35 503v27q45 1 65 41q14 29 0 40q-3 2 -8 2q-25 -1 -40.5 13.5t-15.5 37.5t16.5 38.5t39.5 15.5q28 0 47.5 -23.5t19.5 -61.5q0 -52 -35 -91.5t-89 -38.5z" />
    <glyph glyph-name="quotesinglbase" unicode="&#x201a;" horiz-adv-x="214" 
d="M45 -125v27q45 1 65 41q14 29 0 40q-3 2 -8 2q-25 -1 -40.5 13.5t-15.5 37.5t16.5 38.5t39.5 15.5q28 0 47.5 -23.5t19.5 -61.5q0 -52 -35 -91.5t-89 -38.5z" />
    <glyph glyph-name="quotedblleft" unicode="&#x201c;" horiz-adv-x="345" 
d="M159 715v-27q-45 -1 -65 -41q-14 -29 0 -40q3 -2 8 -2q25 1 40.5 -13.5t15.5 -37.5t-16.5 -38.5t-39.5 -15.5q-28 0 -47.5 23.5t-19.5 61.5q0 52 35 91.5t89 38.5zM310 715v-27q-45 -1 -65 -41q-14 -29 0 -40q3 -2 8 -2q25 1 40.5 -13.5t15.5 -37.5q0 -24 -16 -39
t-40 -15q-28 0 -47.5 23.5t-19.5 61.5q0 52 35 91.5t89 38.5z" />
    <glyph glyph-name="quotedblright" unicode="&#x201d;" horiz-adv-x="345" 
d="M35 503v27q45 1 65 41q14 29 0 40q-3 2 -8 2q-25 -1 -40.5 13.5t-15.5 37.5t16.5 38.5t39.5 15.5q28 0 47.5 -23.5t19.5 -61.5q0 -52 -35 -91.5t-89 -38.5zM186 503v27q45 1 65 41q14 29 0 40q-3 2 -8 2q-24 -1 -39.5 13.5t-15.5 37.5q0 24 16 39t39 15q28 0 47.5 -23.5
t19.5 -61.5q0 -52 -35 -91.5t-89 -38.5z" />
    <glyph glyph-name="quotedblbase" unicode="&#x201e;" horiz-adv-x="365" 
d="M45 -125v27q45 1 65 41q14 29 0 40q-3 2 -8 2q-25 -1 -40.5 13.5t-15.5 37.5t16.5 38.5t39.5 15.5q28 0 47.5 -23.5t19.5 -61.5q0 -52 -35 -91.5t-89 -38.5zM196 -125v27q45 1 65 41q14 29 0 40q-3 2 -8 2q-24 -1 -39.5 13.5t-15.5 37.5q0 24 16 39t39 15
q28 0 47.5 -23.5t19.5 -61.5q0 -52 -35 -91.5t-89 -38.5z" />
    <glyph glyph-name="dagger" unicode="&#x2020;" horiz-adv-x="431" 
d="M199 399q-14 0 -14 14v106h-106q-14 0 -14 14v34q0 14 14 14h106v105q0 14 14 14h34q14 0 14 -14v-105h105q14 0 14 -14v-34q0 -14 -14 -14h-105v-106q0 -14 -14 -14h-34z" />
    <glyph glyph-name="daggerdbl" unicode="&#x2021;" horiz-adv-x="431" 
d="M199 399q-14 0 -14 14v106h-106q-14 0 -14 14v34q0 14 14 14h106v105q0 14 14 14h34q14 0 14 -14v-105h105q14 0 14 -14v-34q0 -14 -14 -14h-105v-106q0 -14 -14 -14h-34zM199 41q-14 0 -14 14v106h-106q-14 0 -14 14v34q0 14 14 14h106v105q0 14 14 14h34q14 0 14 -14
v-105h105q14 0 14 -14v-34q0 -14 -14 -14h-105v-106q0 -14 -14 -14h-34z" />
    <glyph glyph-name="bullet" unicode="&#x2022;" horiz-adv-x="264" 
d="M132 209q-28 0 -47.5 19t-19.5 47t19.5 47t47.5 19t47.5 -19t19.5 -47t-19.5 -47t-47.5 -19z" />
    <glyph glyph-name="ellipsis" unicode="&#x2026;" horiz-adv-x="543" 
d="M97 -13q-21 0 -36.5 15t-15.5 37q0 21 15.5 36t36.5 15t36 -15t15 -36q0 -22 -15 -37t-36 -15zM271 -13q-21 0 -36 15t-15 37q0 21 15 36t36 15q22 0 37 -15t15 -36q0 -22 -15 -37t-37 -15zM446 -13q-21 0 -36.5 15t-15.5 37q0 21 15.5 36t36.5 15t36.5 -15t15.5 -36
q0 -22 -15.5 -37t-36.5 -15z" />
    <glyph glyph-name="perthousand" unicode="&#x2030;" horiz-adv-x="1040" 
d="M187 434q-57 0 -97 39t-40 96t40 96.5t97 39.5t97 -39.5t40 -96.5t-40 -96t-97 -39zM149 4l-24 16q-10 8 -3 19l439 652q8 13 18 5l24 -16q10 -8 3 -19l-439 -652q-8 -13 -18 -5zM187 485q36 0 60 24t24 60q0 37 -24 61t-60 24t-60 -24t-24 -61q0 -36 24 -60t60 -24z
M541 -5q-57 0 -97 39t-40 96t40 96.5t97 39.5t97 -39.5t40 -96.5t-40 -96t-97 -39zM853 -5q-57 0 -97 39t-40 96t40 96.5t97 39.5q56 0 96.5 -39.5t40.5 -96.5q0 -56 -40.5 -95.5t-96.5 -39.5zM541 46q36 0 60 24t24 60q0 37 -24 61t-60 24t-60 -24t-24 -61q0 -36 24 -60
t60 -24zM853 46q35 0 59 24t24 60q0 37 -24 61t-59 24q-36 0 -60 -24t-24 -61q0 -36 24 -60t60 -24z" />
    <glyph glyph-name="guilsinglleft" unicode="&#x2039;" horiz-adv-x="231" 
d="M167 152l-109 87q-8 7 -8 16v49q0 8 8 15l109 87q5 4 9.5 2t4.5 -9v-39q0 -9 -8 -16l-83 -65l83 -64q8 -7 8 -16v-40q0 -6 -4.5 -8t-9.5 1z" />
    <glyph glyph-name="guilsinglright" unicode="&#x203a;" horiz-adv-x="231" 
d="M64 152q-4 -3 -9 -1t-5 8v40q0 9 8 16l83 64l-83 65q-8 7 -8 16v39q0 7 5 9t9 -2l109 -87q8 -7 8 -15v-49q0 -9 -8 -16z" />
    <glyph glyph-name="fraction" unicode="&#x2044;" horiz-adv-x="189" 
d="M-140 0l416 700h53l-415 -700h-54z" />
    <glyph glyph-name="Euro" unicode="&#x20ac;" horiz-adv-x="761" 
d="M695 101q10 -10 -3 -23q-101 -91 -236 -91q-132 0 -227 78.5t-120 202.5h-55q-14 0 -14 13v26q0 13 14 13h48q-1 9 -1 27v20h-47q-14 0 -14 13v26q0 13 14 13h53q24 127 119 208t230 81t236 -90q12 -12 3 -24l-28 -31q-10 -10 -22 0q-82 72 -187 72q-102 0 -176.5 -59.5
t-96.5 -156.5h162q14 0 14 -13v-26q0 -13 -14 -13h-169q-1 -7 -1 -20q0 -18 1 -27h169q14 0 14 -13v-26q0 -13 -14 -13h-160q23 -94 97 -151t174 -57q105 0 187 72q12 10 21 1z" />
    <glyph glyph-name="trademark" unicode="&#x2122;" horiz-adv-x="545" 
d="M139 520q-5 0 -5 5v146h-64q-5 0 -5 5v19q0 5 5 5h161q5 0 5 -5v-19q0 -5 -5 -5h-64v-146q0 -5 -5 -5h-23zM274 520q-5 0 -5 5v170q0 5 5 5h26q4 0 6 -4l68 -138l68 138q2 4 6 4h27q5 0 5 -5v-170q0 -5 -5 -5h-23q-5 0 -5 5v117l-57 -118q-2 -4 -6 -4h-19q-4 0 -6 4
l-58 118v-117q0 -5 -5 -5h-22z" />
    <glyph glyph-name="oneeighth" unicode="&#x215b;" horiz-adv-x="763" 
d="M72 323v329h-42v48h92v-377h-50zM102 0l416 700h53l-415 -700h-54zM597 -4q-53 0 -89.5 31t-36.5 81q0 71 61 100q-41 28 -41 78q0 39 28 67t78 28q49 0 77.5 -28t28.5 -67q0 -50 -42 -78q29 -14 45.5 -40.5t16.5 -59.5q0 -51 -36 -81.5t-90 -30.5zM597 230
q26 0 42.5 15.5t16.5 38.5q0 24 -15.5 39.5t-43.5 15.5t-43 -15.5t-15 -39.5q0 -23 16 -38.5t42 -15.5zM597 38q32 0 54.5 20.5t22.5 51.5q0 35 -22 55.5t-55 20.5t-55 -20.5t-22 -55.5q0 -31 22.5 -51.5t54.5 -20.5z" />
    <glyph glyph-name="threeeighths" unicode="&#x215c;" horiz-adv-x="843" 
d="M170 325q-66 0 -98 34t-32 86h50q0 -33 20 -54.5t59 -21.5q36 0 58 17.5t22 49.5q0 39 -28 54.5t-81 15.5v40q47 0 71 18t24 48q0 53 -70 53q-69 0 -69 -71h-47q-1 54 28.5 85t87.5 31t88.5 -27.5t30.5 -70.5q0 -54 -56 -80q73 -23 73 -96q0 -50 -35.5 -80.5t-95.5 -30.5
zM181 0l416 700h53l-415 -700h-54zM676 -4q-53 0 -89.5 31t-36.5 81q0 71 61 100q-41 28 -41 78q0 39 28 67t78 28q49 0 77.5 -28t28.5 -67q0 -50 -42 -78q29 -14 45.5 -40.5t16.5 -59.5q0 -51 -36 -81.5t-90 -30.5zM676 230q26 0 42.5 15.5t16.5 38.5q0 24 -15.5 39.5
t-43.5 15.5t-43 -15.5t-15 -39.5q0 -23 16 -38.5t42 -15.5zM676 38q32 0 54.5 20.5t22.5 51.5q0 35 -22 55.5t-55 20.5t-55 -20.5t-22 -55.5q0 -31 22.5 -51.5t54.5 -20.5z" />
    <glyph glyph-name="fiveeighths" unicode="&#x215d;" horiz-adv-x="869" 
d="M170 317q-53 0 -87 25.5t-43 63.5l44 22q6 -27 28.5 -46t57.5 -19q38 0 63 24t25 64t-24.5 62.5t-62.5 22.5q-50 0 -77 -42l-43 13l26 193h196v-49h-155l-13 -93q27 24 75 24q55 0 91 -36.5t36 -94.5q0 -60 -37.5 -97t-99.5 -37zM207 0l416 700h53l-415 -700h-54zM702 -4
q-53 0 -89.5 31t-36.5 81q0 71 61 100q-41 28 -41 78q0 39 28 67t78 28q49 0 77.5 -28t28.5 -67q0 -50 -42 -78q29 -14 45.5 -40.5t16.5 -59.5q0 -51 -36 -81.5t-90 -30.5zM702 230q26 0 42.5 15.5t16.5 38.5q0 24 -15.5 39.5t-43.5 15.5t-43 -15.5t-15 -39.5
q0 -23 16 -38.5t42 -15.5zM702 38q32 0 54.5 20.5t22.5 51.5q0 35 -22 55.5t-55 20.5t-55 -20.5t-22 -55.5q0 -31 22.5 -51.5t54.5 -20.5z" />
    <glyph glyph-name="seveneighths" unicode="&#x215e;" horiz-adv-x="834" 
d="M64 323l143 329h-167v48h238l-160 -377h-54zM173 0l416 700h53l-415 -700h-54zM668 -4q-53 0 -89.5 31t-36.5 81q0 71 61 100q-41 28 -41 78q0 39 28 67t78 28q49 0 77.5 -28t28.5 -67q0 -50 -42 -78q29 -14 45.5 -40.5t16.5 -59.5q0 -51 -36 -81.5t-90 -30.5zM668 230
q26 0 42.5 15.5t16.5 38.5q0 24 -15.5 39.5t-43.5 15.5t-43 -15.5t-15 -39.5q0 -23 16 -38.5t42 -15.5zM668 38q32 0 54.5 20.5t22.5 51.5q0 35 -22 55.5t-55 20.5t-55 -20.5t-22 -55.5q0 -31 22.5 -51.5t54.5 -20.5z" />
    <glyph glyph-name="partialdiff" unicode="&#x2202;" horiz-adv-x="556" 
d="M279 -13q-99 0 -163.5 66.5t-64.5 165.5q0 98 62 161.5t149 63.5q45 0 69 -16l-188 241q-8 10 1 18l34 29q10 8 19 -4l241 -319q67 -88 67 -176q0 -98 -64 -164t-162 -66zM278 54q67 0 112 46t45 118q0 73 -44.5 118t-112.5 45t-112.5 -45t-44.5 -118q0 -72 45 -118
t112 -46z" />
    <glyph glyph-name="product" unicode="&#x220f;" horiz-adv-x="670" 
d="M74 -190q-14 0 -14 14v862q0 14 14 14h521q14 0 14 -14v-862q0 -14 -14 -14h-43q-14 0 -14 14v806h-406v-806q0 -14 -12 -14h-46z" />
    <glyph glyph-name="summation" unicode="&#x2211;" horiz-adv-x="649" 
d="M75 -190q-15 0 -15 15v44q0 9 6 18l269 368l-269 368q-6 9 -6 18v44q0 15 15 15h498q15 0 15 -15v-40q0 -15 -15 -15h-424l268 -365q7 -10 0 -20l-268 -365h424q15 0 15 -15v-40q0 -15 -15 -15h-498z" />
    <glyph glyph-name="minus" unicode="&#x2212;" horiz-adv-x="451" 
d="M79 253q-14 0 -14 14v34q0 14 14 14h293q14 0 14 -14v-34q0 -14 -14 -14h-293z" />
    <glyph glyph-name="radical" unicode="&#x221a;" horiz-adv-x="633" 
d="M298 -190q-14 0 -17 13l-116 440h-99q-15 0 -15 15v39q0 15 15 15h136q14 0 17 -13l110 -425l187 793q3 13 16 13h37q16 0 13 -17l-204 -860q-3 -13 -16 -13h-64z" />
    <glyph glyph-name="infinity" unicode="&#x221e;" horiz-adv-x="836" 
d="M227 97q-69 0 -115 46.5t-46 117.5t46 117t115 46q99 0 191 -122q92 122 192 122q68 0 114 -46t46 -117t-46 -117.5t-114 -46.5q-100 0 -192 122q-92 -122 -191 -122zM229 148q46 0 81.5 29.5t72.5 83.5q-36 53 -72 82.5t-82 29.5q-47 0 -77 -31.5t-30 -80.5
q0 -48 30 -80.5t77 -32.5zM607 148q47 0 77 32.5t30 80.5q0 49 -30 80.5t-77 31.5q-46 0 -82 -29.5t-72 -82.5q37 -54 72.5 -83.5t81.5 -29.5z" />
    <glyph glyph-name="integral" unicode="&#x222b;" horiz-adv-x="389" 
d="M103 -190q-31 0 -48 8q-9 4 -9 13v41q0 9 12 7q19 -3 33 -3q39 0 53.5 21t14.5 59v645q0 130 128 130q29 0 48 -8q9 -4 9 -13v-41q0 -9 -12 -7q-19 3 -34 3q-39 0 -53 -21t-14 -59v-645q0 -130 -128 -130z" />
    <glyph glyph-name="approxequal" unicode="&#x2248;" horiz-adv-x="450" 
d="M299 295q-32 0 -58 18t-49 36t-46 18q-38 0 -46 -33q-3 -10 -12 -10h-18q-12 0 -10 14q3 38 28.5 58.5t61.5 20.5q32 0 58.5 -18t49 -36t45.5 -18q37 0 46 34q3 10 12 10h19q12 0 10 -15q-4 -38 -29.5 -58.5t-61.5 -20.5zM299 135q-32 0 -58 18t-49 36t-46 18
q-38 0 -46 -33q-3 -10 -12 -10h-18q-12 0 -10 14q3 38 28.5 58.5t61.5 20.5q32 0 58.5 -18t49 -36t45.5 -18q37 0 46 34q3 10 12 10h19q12 0 10 -15q-4 -38 -29.5 -58.5t-61.5 -20.5z" />
    <glyph glyph-name="notequal" unicode="&#x2260;" horiz-adv-x="451" 
d="M372 317h-105l-24 -65h129q14 0 14 -14v-34q0 -14 -14 -14h-152l-67 -178q-5 -12 -18 -12h-26q-17 0 -11 17l65 173h-84q-14 0 -14 14v34q0 14 14 14h107l24 65h-131q-14 0 -14 14v34q0 14 14 14h154l64 170q5 12 18 12h26q17 0 11 -17l-62 -165h82q14 0 14 -14v-34
q0 -14 -14 -14z" />
    <glyph glyph-name="lessequal" unicode="&#x2264;" horiz-adv-x="456" 
d="M376 174l-301 178q-9 4 -9 16v30q0 11 9 17l301 178q6 4 10.5 2t4.5 -10v-35q0 -10 -9 -15l-264 -151l264 -152q9 -7 9 -14v-36q0 -7 -4.5 -9.5t-10.5 1.5zM78 0q-13 0 -13 13v23q0 13 13 13h300q13 0 13 -13v-23q0 -13 -13 -13h-300z" />
    <glyph glyph-name="greaterequal" unicode="&#x2265;" horiz-adv-x="455" 
d="M80 174q-15 -8 -15 8v36q0 8 9 14l263 152l-263 151q-9 5 -9 15v35q0 18 15 8l301 -178q9 -6 9 -17v-30q0 -12 -9 -16zM377 0h-299q-13 0 -13 13v23q0 13 13 13h299q13 0 13 -13v-23q0 -13 -13 -13z" />
    <glyph glyph-name="lozenge" unicode="&#x25ca;" horiz-adv-x="529" 
d="M227 0q-13 0 -17 11l-146 329q-4 10 0 20l146 329q4 11 17 11h75q13 0 17 -11l146 -329q4 -10 0 -20l-146 -329q-4 -11 -17 -11h-75zM264 45l135 305l-135 305l-134 -305z" />
    <glyph glyph-name="uni2713" unicode="&#x2713;" horiz-adv-x="816" 
d="M272 113l-221 223q-9 11 0 20l35 34q10 10 19 0l178 -180l429 431q10 10 20 0l33 -33q10 -10 0 -20l-473 -475q-10 -10 -20 0z" />
    <glyph glyph-name="uniFEFF" unicode="&#xfeff;" horiz-adv-x="200" 
 />
    <glyph glyph-name="i.loclTRK" horiz-adv-x="192" 
d="M97 617q-19 0 -32.5 13t-13.5 32q0 20 13.5 33t32.5 13t31.5 -13t12.5 -33q0 -19 -12.5 -32t-31.5 -13zM73 0q-13 0 -13 14v462q0 14 13 14h46q13 0 13 -14v-462q0 -14 -13 -14h-46z" />
    <glyph glyph-name="a.ss01" horiz-adv-x="549" 
d="M197 -13q-73 0 -112 38.5t-39 103.5q0 122 157 137l186 17v54q0 55 -28 79t-96 24q-119 0 -127 -80q-2 -12 -14 -12h-40q-14 0 -13 15q8 139 195 139q105 0 150 -41t45 -119v-248q0 -30 15 -39q12 -7 12 -15v-30q0 -14 -27 -14q-34 0 -53 22.5t-19 59.5
q-34 -44 -86 -67.5t-106 -23.5zM217 50q111 0 172 90v89l-176 -17q-53 -5 -73.5 -25t-20.5 -53q0 -84 98 -84z" />
    <glyph glyph-name="aacute.ss01" horiz-adv-x="549" 
d="M249 557q-16 0 -9 16l54 115q5 12 16 12h44q16 0 9 -16l-55 -115q-4 -12 -15 -12h-44zM197 -13q-73 0 -112 38.5t-39 103.5q0 122 157 137l186 17v54q0 55 -28 79t-96 24q-119 0 -127 -80q-2 -12 -14 -12h-40q-14 0 -13 15q8 139 195 139q105 0 150 -41t45 -119v-248
q0 -30 15 -39q12 -7 12 -15v-30q0 -14 -27 -14q-34 0 -53 22.5t-19 59.5q-34 -44 -86 -67.5t-106 -23.5zM217 50q111 0 172 90v89l-176 -17q-53 -5 -73.5 -25t-20.5 -53q0 -84 98 -84z" />
    <glyph glyph-name="abreve.ss01" horiz-adv-x="549" 
d="M267 570q-58 0 -94.5 32t-41.5 83q-1 15 14 15h21q13 0 16 -14q6 -30 28.5 -49t56.5 -19t57 19t29 49q3 14 16 14h20q15 0 14 -15q-5 -51 -41.5 -83t-94.5 -32zM197 -13q-73 0 -112 38.5t-39 103.5q0 122 157 137l186 17v54q0 55 -28 79t-96 24q-119 0 -127 -80
q-2 -12 -14 -12h-40q-14 0 -13 15q8 139 195 139q105 0 150 -41t45 -119v-248q0 -30 15 -39q12 -7 12 -15v-30q0 -14 -27 -14q-34 0 -53 22.5t-19 59.5q-34 -44 -86 -67.5t-106 -23.5zM217 50q111 0 172 90v89l-176 -17q-53 -5 -73.5 -25t-20.5 -53q0 -84 98 -84z" />
    <glyph glyph-name="uni01CE.ss01" horiz-adv-x="549" 
d="M147 700h39q9 0 16 -8l65 -80l64 80q7 8 16 8h40q6 0 8.5 -5t-1.5 -9l-86 -104q-7 -8 -16 -8h-50q-9 0 -16 8l-86 104q-4 4 -2 9t9 5zM197 -13q-73 0 -112 38.5t-39 103.5q0 122 157 137l186 17v54q0 55 -28 79t-96 24q-119 0 -127 -80q-2 -12 -14 -12h-40q-14 0 -13 15
q8 139 195 139q105 0 150 -41t45 -119v-248q0 -30 15 -39q12 -7 12 -15v-30q0 -14 -27 -14q-34 0 -53 22.5t-19 59.5q-34 -44 -86 -67.5t-106 -23.5zM217 50q111 0 172 90v89l-176 -17q-53 -5 -73.5 -25t-20.5 -53q0 -84 98 -84z" />
    <glyph glyph-name="acircumflex.ss01" horiz-adv-x="549" 
d="M147 574q-7 0 -9 5t2 9l86 104q7 8 16 8h50q9 0 16 -8l86 -104q4 -4 1.5 -9t-8.5 -5h-40q-9 0 -16 8l-64 80l-65 -80q-7 -8 -16 -8h-39zM197 -13q-73 0 -112 38.5t-39 103.5q0 122 157 137l186 17v54q0 55 -28 79t-96 24q-119 0 -127 -80q-2 -12 -14 -12h-40
q-14 0 -13 15q8 139 195 139q105 0 150 -41t45 -119v-248q0 -30 15 -39q12 -7 12 -15v-30q0 -14 -27 -14q-34 0 -53 22.5t-19 59.5q-34 -44 -86 -67.5t-106 -23.5zM217 50q111 0 172 90v89l-176 -17q-53 -5 -73.5 -25t-20.5 -53q0 -84 98 -84z" />
    <glyph glyph-name="adieresis.ss01" horiz-adv-x="549" 
d="M177 621q-18 0 -30.5 12.5t-12.5 29.5t12.5 29.5t30.5 12.5q17 0 30 -12.5t13 -29.5t-13 -29.5t-30 -12.5zM358 621q-17 0 -30 12.5t-13 29.5t13 29.5t30 12.5t30 -12.5t13 -29.5t-13 -29.5t-30 -12.5zM197 -13q-73 0 -112 38.5t-39 103.5q0 122 157 137l186 17v54
q0 55 -28 79t-96 24q-119 0 -127 -80q-2 -12 -14 -12h-40q-14 0 -13 15q8 139 195 139q105 0 150 -41t45 -119v-248q0 -30 15 -39q12 -7 12 -15v-30q0 -14 -27 -14q-34 0 -53 22.5t-19 59.5q-34 -44 -86 -67.5t-106 -23.5zM217 50q111 0 172 90v89l-176 -17
q-53 -5 -73.5 -25t-20.5 -53q0 -84 98 -84z" />
    <glyph glyph-name="agrave.ss01" horiz-adv-x="549" 
d="M285 557h-43q-11 0 -16 12l-55 115q-7 16 9 16h45q11 0 15 -12l54 -115q7 -16 -9 -16zM197 -13q-73 0 -112 38.5t-39 103.5q0 122 157 137l186 17v54q0 55 -28 79t-96 24q-119 0 -127 -80q-2 -12 -14 -12h-40q-14 0 -13 15q8 139 195 139q105 0 150 -41t45 -119v-248
q0 -30 15 -39q12 -7 12 -15v-30q0 -14 -27 -14q-34 0 -53 22.5t-19 59.5q-34 -44 -86 -67.5t-106 -23.5zM217 50q111 0 172 90v89l-176 -17q-53 -5 -73.5 -25t-20.5 -53q0 -84 98 -84z" />
    <glyph glyph-name="amacron.ss01" horiz-adv-x="549" 
d="M131 640q-14 0 -14 14v32q0 14 14 14h273q14 0 14 -14v-32q0 -14 -14 -14h-273zM197 -13q-73 0 -112 38.5t-39 103.5q0 122 157 137l186 17v54q0 55 -28 79t-96 24q-119 0 -127 -80q-2 -12 -14 -12h-40q-14 0 -13 15q8 139 195 139q105 0 150 -41t45 -119v-248
q0 -30 15 -39q12 -7 12 -15v-30q0 -14 -27 -14q-34 0 -53 22.5t-19 59.5q-34 -44 -86 -67.5t-106 -23.5zM217 50q111 0 172 90v89l-176 -17q-53 -5 -73.5 -25t-20.5 -53q0 -84 98 -84z" />
    <glyph glyph-name="aogonek.ss01" horiz-adv-x="549" 
d="M476 55q12 -7 12 -15v-30q0 -14 -26 -14q-45 -1 -76 -26t-31 -65q0 -34 24.5 -49t65.5 -6v-48q-19 -9 -44.5 -8.5t-50 9.5t-41 32t-16.5 57q0 49 33 82t79 48q-16 20 -16 56q-34 -44 -86 -67.5t-106 -23.5q-73 0 -112 38.5t-39 103.5q0 122 157 137l186 17v54
q0 55 -28 79t-96 24q-119 0 -127 -80q-2 -12 -14 -12h-40q-14 0 -13 15q8 139 195 139q105 0 150 -41t45 -119v-248q0 -30 15 -39zM389 140v89l-176 -17q-53 -5 -73.5 -25t-20.5 -53q0 -84 98 -84q111 0 172 90z" />
    <glyph glyph-name="aring.ss01" horiz-adv-x="549" 
d="M267 562q-34 0 -57 22.5t-23 55.5q0 34 23 56t57 22t57 -22t23 -56q0 -33 -23 -55.5t-57 -22.5zM267 612q12 0 20 8t8 20t-8 20t-20 8t-20 -8t-8 -20t8 -20t20 -8zM197 -13q-73 0 -112 38.5t-39 103.5q0 122 157 137l186 17v54q0 55 -28 79t-96 24q-119 0 -127 -80
q-2 -12 -14 -12h-40q-14 0 -13 15q8 139 195 139q105 0 150 -41t45 -119v-248q0 -30 15 -39q12 -7 12 -15v-30q0 -14 -27 -14q-34 0 -53 22.5t-19 59.5q-34 -44 -86 -67.5t-106 -23.5zM217 50q111 0 172 90v89l-176 -17q-53 -5 -73.5 -25t-20.5 -53q0 -84 98 -84z" />
    <glyph glyph-name="atilde.ss01" horiz-adv-x="549" 
d="M338 608q-38 0 -78 32t-64 32q-32 0 -43 -30q-3 -9 -11 -9h-15q-11 0 -9 12q4 35 27 54t56 19q36 0 75.5 -32.5t63.5 -32.5q31 0 42 30q3 9 11 9h15q10 0 10 -10q-4 -36 -26.5 -55t-53.5 -19zM197 -13q-73 0 -112 38.5t-39 103.5q0 122 157 137l186 17v54q0 55 -28 79
t-96 24q-119 0 -127 -80q-2 -12 -14 -12h-40q-14 0 -13 15q8 139 195 139q105 0 150 -41t45 -119v-248q0 -30 15 -39q12 -7 12 -15v-30q0 -14 -27 -14q-34 0 -53 22.5t-19 59.5q-34 -44 -86 -67.5t-106 -23.5zM217 50q111 0 172 90v89l-176 -17q-53 -5 -73.5 -25t-20.5 -53
q0 -84 98 -84z" />
    <glyph glyph-name="t.ss02" horiz-adv-x="354" 
d="M156 0q-15 0 -15 15v413h-80q-15 0 -15 15v32q0 15 15 15h80v135q0 15 15 15h42q15 0 15 -15v-135h80q15 0 15 -15v-32q0 -15 -15 -15h-80v-413q0 -15 -15 -15h-42z" />
    <glyph glyph-name="zero.tf" horiz-adv-x="730" 
d="M368 -13q-119 0 -189 95.5t-70 264.5q0 170 70 265.5t189 95.5t189 -95.5t70 -265.5q0 -169 -70 -264.5t-189 -95.5zM368 55q89 0 138.5 77t49.5 215q0 139 -49.5 216t-138.5 77t-138.5 -77t-49.5 -216q0 -138 49.5 -215t138.5 -77z" />
    <glyph glyph-name="one.tf" horiz-adv-x="730" 
d="M423 0q-13 0 -13 14v622h-108q-12 0 -12 14v36q0 14 12 14h167q13 0 13 -14v-672q0 -14 -13 -14h-46z" />
    <glyph glyph-name="two.tf" horiz-adv-x="730" 
d="M162 0q-14 0 -14 14v38q0 12 7 19l217 260q30 35 45.5 55t32 56.5t16.5 70.5q0 56 -36.5 92t-96.5 36q-36 0 -64.5 -14.5t-41.5 -28.5t-28 -37q-8 -13 -19 -2l-27 26q-9 9 -1 22q66 101 185 101q90 0 145 -55t55 -135q0 -41 -17.5 -83t-34 -64.5t-47.5 -58.5l-205 -248
h289q14 0 14 -14v-36q0 -14 -14 -14h-360z" />
    <glyph glyph-name="three.tf" horiz-adv-x="730" 
d="M337 -13q-124 0 -191 97q-7 10 3 18l29 27q9 9 17 -2q55 -73 140 -73q66 0 107 40t41 103q0 67 -45.5 106.5t-110.5 39.5h-18q-14 0 -14 11v37q0 13 14 13h18q58 0 93.5 35.5t35.5 87.5q0 49 -33 81.5t-86 32.5q-77 0 -121 -71q-8 -11 -19 -2l-28 27q-7 7 -1 17
q27 42 72 69t103 27q80 0 131.5 -48.5t51.5 -121.5q0 -108 -105 -161q60 -20 97.5 -68.5t37.5 -117.5q0 -88 -61.5 -146t-157.5 -58z" />
    <glyph glyph-name="four.tf" horiz-adv-x="730" 
d="M449 0q-13 0 -13 14v152h-283q-15 0 -15 15v41q0 9 4 15l288 453q7 10 17 10h47q14 0 14 -15v-456h74q12 0 12 -14v-35q0 -14 -12 -14h-74v-152q0 -14 -12 -14h-47zM212 229h224v356z" />
    <glyph glyph-name="five.tf" horiz-adv-x="730" 
d="M345 -13q-64 0 -114.5 27t-77.5 64q-8 13 2 20l32 26q11 8 20 -5q52 -65 137 -65q71 0 119.5 48t48.5 124q0 73 -46.5 119t-114.5 46q-85 0 -132 -62q-7 -10 -25 -3l-27 11q-13 5 -10 18l71 332q3 13 16 13h279q12 0 12 -14v-36q0 -14 -12 -14h-239l-48 -221
q50 40 127 40q92 0 155 -64t63 -166q0 -107 -68 -172.5t-168 -65.5z" />
    <glyph glyph-name="six.tf" horiz-adv-x="730" 
d="M378 -13q-98 0 -162 66t-64 164q0 90 67 176l240 319q9 12 19 4l35 -29q8 -7 0 -18l-188 -241q26 16 70 16q86 0 148.5 -64t62.5 -161q0 -99 -65 -165.5t-163 -66.5zM379 54q67 0 112 46t45 118q0 73 -44.5 118t-112.5 45t-112.5 -45t-44.5 -118q0 -72 45 -118t112 -46z
" />
    <glyph glyph-name="seven.tf" horiz-adv-x="730" 
d="M237 0q-17 0 -10 17l260 619h-329q-12 0 -12 14v36q0 14 12 14h405q7 0 10 -5.5t0 -12.5l-275 -667q-7 -15 -17 -15h-44z" />
    <glyph glyph-name="eight.tf" horiz-adv-x="730" 
d="M365 -13q-94 0 -157.5 58.5t-63.5 148.5q0 71 39 122.5t97 71.5q-45 21 -70 61t-25 89q0 71 50 120.5t130 49.5t130 -49.5t50 -120.5q0 -49 -25 -89t-70 -61q58 -20 97 -71.5t39 -122.5q0 -90 -63.5 -148.5t-157.5 -58.5zM365 417q51 0 83.5 33.5t32.5 84.5
q0 50 -32 81.5t-84 31.5t-84 -31.5t-32 -81.5q0 -51 32.5 -84.5t83.5 -33.5zM365 52q66 0 108.5 41t42.5 105q0 65 -44 106.5t-107 41.5t-107 -41.5t-44 -106.5q0 -64 42.5 -105t108.5 -41z" />
    <glyph glyph-name="nine.tf" horiz-adv-x="730" 
d="M278 -21l-34 29q-9 8 -1 18l188 241q-26 -16 -69 -16q-87 0 -149 64t-62 161q0 99 64.5 165.5t163.5 66.5q97 0 161.5 -66t64.5 -163q0 -89 -67 -177l-241 -319q-9 -12 -19 -4zM378 314q68 0 112.5 45t44.5 118q0 72 -45 118t-112 46t-112 -46t-45 -118q0 -73 44.5 -118
t112.5 -45z" />
    <glyph glyph-name="zero.dnom" horiz-adv-x="383" 
d="M192 -2q-69 0 -110.5 50t-41.5 131v19q0 82 41.5 132.5t110.5 50.5q67 0 109 -50.5t42 -132.5v-19q0 -80 -42 -130.5t-109 -50.5zM192 46q43 0 71 35.5t28 97.5v19q0 64 -28 99t-71 35t-72 -35.5t-29 -98.5v-19q0 -62 29 -97.5t72 -35.5z" />
    <glyph glyph-name="one.dnom" horiz-adv-x="182" 
d="M72 0v329h-42v48h92v-377h-50z" />
    <glyph glyph-name="two.dnom" horiz-adv-x="324" 
d="M43 0v48l98 97l22.5 22.5l19.5 19.5l15.5 15.5t13.5 15.5t8.5 13t7 13.5t3 13t1.5 15.5q0 31 -19.5 46.5t-51.5 15.5q-31 0 -50.5 -17t-19.5 -54v-20h-51v20q0 53 32.5 85t88.5 32q58 0 90 -31t32 -77q0 -27 -16.5 -54.5t-31.5 -43t-62 -61.5l-66 -66h177v-48h-241z" />
    <glyph glyph-name="three.dnom" horiz-adv-x="341" 
d="M170 -4q-66 0 -98 34t-32 86h50q0 -33 20 -54.5t59 -21.5q36 0 58 17.5t22 49.5q0 39 -28 54.5t-81 15.5v40q47 0 71 18t24 48q0 53 -70 53q-69 0 -69 -71h-47q-1 54 28.5 85t87.5 31t88.5 -27.5t30.5 -70.5q0 -54 -56 -80q73 -23 73 -96q0 -50 -35.5 -80.5t-95.5 -30.5z
" />
    <glyph glyph-name="four.dnom" horiz-adv-x="354" 
d="M226 0v87h-196l196 290h50v-243h38v-47h-38v-87h-50zM115 134h111v168z" />
    <glyph glyph-name="five.dnom" horiz-adv-x="347" 
d="M170 -4q-53 0 -87 25.5t-43 63.5l44 22q6 -27 28.5 -46t57.5 -19q38 0 63 24t25 64t-24.5 62.5t-62.5 22.5q-50 0 -77 -42l-43 13l26 193h196v-49h-155l-13 -93q27 24 75 24q55 0 91 -36.5t36 -94.5q0 -60 -37.5 -97t-99.5 -37z" />
    <glyph glyph-name="six.dnom" horiz-adv-x="332" 
d="M166 -4q-54 0 -90 35t-36 86q0 9 1 18.5t2.5 16.5t5 16t5 14.5t7.5 15t8 13t9 13.5t9 12.5t10.5 14t10.5 13.5l88 115h59l-110 -144q8 5 27 5q50 0 85 -35.5t35 -87.5q0 -51 -35.5 -86t-90.5 -35zM165 41q33 0 55.5 22t22.5 56q0 33 -22.5 55t-55.5 22t-54 -22t-21 -55
q0 -34 21 -56t54 -22z" />
    <glyph glyph-name="seven.dnom" horiz-adv-x="313" 
d="M64 0l143 329h-167v48h238l-160 -377h-54z" />
    <glyph glyph-name="eight.dnom" horiz-adv-x="332" 
d="M166 -4q-53 0 -89.5 31t-36.5 81q0 71 61 100q-41 28 -41 78q0 39 28 67t78 28q49 0 77.5 -28t28.5 -67q0 -50 -42 -78q29 -14 45.5 -40.5t16.5 -59.5q0 -51 -36 -81.5t-90 -30.5zM166 230q26 0 42.5 15.5t16.5 38.5q0 24 -15.5 39.5t-43.5 15.5t-43 -15.5t-15 -39.5
q0 -23 16 -38.5t42 -15.5zM166 38q32 0 54.5 20.5t22.5 51.5q0 35 -22 55.5t-55 20.5t-55 -20.5t-22 -55.5q0 -31 22.5 -51.5t54.5 -20.5z" />
    <glyph glyph-name="nine.dnom" horiz-adv-x="332" 
d="M78 -1l110 144q-6 -5 -28 -5q-49 0 -84.5 35.5t-35.5 87.5q0 51 35.5 86t89.5 35q55 0 91 -35t36 -86q0 -15 -3 -30t-6.5 -25t-12.5 -25.5t-12.5 -21.5t-16.5 -24t-16 -22l-88 -114h-59zM166 182q33 0 55 22t22 55q0 34 -22 56t-55 22q-32 0 -54 -22t-22 -56
q0 -33 22 -55t54 -22z" />
    <glyph glyph-name="zero.numr" horiz-adv-x="383" 
d="M192 327q-69 0 -110.5 50t-41.5 131v19q0 82 41.5 132.5t110.5 50.5q67 0 109 -50.5t42 -132.5v-19q0 -80 -42 -130.5t-109 -50.5zM192 375q43 0 71 35.5t28 97.5v19q0 64 -28 99t-71 35t-72 -35.5t-29 -98.5v-19q0 -62 29 -97.5t72 -35.5z" />
    <glyph glyph-name="one.numr" horiz-adv-x="182" 
d="M72 323v329h-42v48h92v-377h-50z" />
    <glyph glyph-name="two.numr" horiz-adv-x="324" 
d="M43 329v48l98 97l22.5 22.5l19.5 19.5l15.5 15.5t13.5 15.5t8.5 13t7 13.5t3 13t1.5 15.5q0 31 -19.5 46.5t-51.5 15.5q-31 0 -50.5 -17t-19.5 -54v-20h-51v20q0 53 32.5 85t88.5 32q58 0 90 -31t32 -77q0 -27 -16.5 -54.5t-31.5 -43t-62 -61.5l-66 -66h177v-48h-241z
" />
    <glyph glyph-name="three.numr" horiz-adv-x="341" 
d="M170 325q-66 0 -98 34t-32 86h50q0 -33 20 -54.5t59 -21.5q36 0 58 17.5t22 49.5q0 39 -28 54.5t-81 15.5v40q47 0 71 18t24 48q0 53 -70 53q-69 0 -69 -71h-47q-1 54 28.5 85t87.5 31t88.5 -27.5t30.5 -70.5q0 -54 -56 -80q73 -23 73 -96q0 -50 -35.5 -80.5t-95.5 -30.5
z" />
    <glyph glyph-name="four.numr" horiz-adv-x="354" 
d="M226 323v87h-196l196 290h50v-243h38v-47h-38v-87h-50zM115 457h111v168z" />
    <glyph glyph-name="five.numr" horiz-adv-x="347" 
d="M170 317q-53 0 -87 25.5t-43 63.5l44 22q6 -27 28.5 -46t57.5 -19q38 0 63 24t25 64t-24.5 62.5t-62.5 22.5q-50 0 -77 -42l-43 13l26 193h196v-49h-155l-13 -93q27 24 75 24q55 0 91 -36.5t36 -94.5q0 -60 -37.5 -97t-99.5 -37z" />
    <glyph glyph-name="six.numr" horiz-adv-x="332" 
d="M166 317q-54 0 -90 35t-36 86q0 9 1 18.5t2.5 16.5t5 16t5 14.5t7.5 15t8 13t9 13.5t9 12.5t10.5 14t10.5 13.5l88 115h59l-110 -144q8 5 27 5q50 0 85 -35.5t35 -87.5q0 -51 -35.5 -86t-90.5 -35zM165 362q33 0 55.5 22t22.5 56q0 33 -22.5 55t-55.5 22t-54 -22t-21 -55
q0 -34 21 -56t54 -22z" />
    <glyph glyph-name="seven.numr" horiz-adv-x="313" 
d="M64 323l143 329h-167v48h238l-160 -377h-54z" />
    <glyph glyph-name="eight.numr" horiz-adv-x="332" 
d="M166 325q-53 0 -89.5 31t-36.5 81q0 71 61 100q-41 28 -41 78q0 39 28 67t78 28q49 0 77.5 -28t28.5 -67q0 -49 -42 -78q29 -14 45.5 -40.5t16.5 -59.5q0 -51 -36 -81.5t-90 -30.5zM166 559q26 0 42.5 15.5t16.5 38.5q0 24 -15.5 39.5t-43.5 15.5t-43 -15.5t-15 -39.5
q0 -23 16 -38.5t42 -15.5zM166 367q32 0 54.5 20.5t22.5 51.5q0 35 -22 55.5t-55 20.5t-55 -20.5t-22 -55.5q0 -31 22.5 -51.5t54.5 -20.5z" />
    <glyph glyph-name="nine.numr" horiz-adv-x="332" 
d="M78 327l110 144q-6 -5 -28 -5q-49 0 -84.5 35.5t-35.5 87.5q0 51 35.5 86t89.5 35q55 0 91 -35t36 -86q0 -15 -3 -30t-6.5 -25t-12.5 -25.5t-12.5 -21.5t-16.5 -24t-16 -22l-88 -114h-59zM166 510q33 0 55 22t22 55q0 34 -22 56t-55 22q-32 0 -54 -22t-22 -56
q0 -33 22 -55t54 -22z" />
    <glyph glyph-name="Aacutecy" horiz-adv-x="650" 
d="M314 746q-15 0 -8 16l53 115q5 12 16 12h45q16 0 9 -16l-55 -115q-5 -12 -16 -12h-44zM629 17q7 -17 -11 -17h-50q-12 0 -16 12l-51 145h-320l-51 -145q-4 -12 -17 -12h-49q-18 0 -11 17l242 671q5 12 18 12h55q14 0 18 -12zM205 224h272l-136 387z" />
    <glyph glyph-name="Ieacutecy" horiz-adv-x="505" 
d="M247 746q-16 0 -9 16l54 115q5 12 16 12h44q16 0 9 -16l-55 -115q-5 -12 -16 -12h-43zM100 0q-14 0 -14 14v672q0 14 14 14h335q14 0 14 -14v-39q0 -14 -14 -14h-274v-238h260q14 0 14 -14v-39q0 -14 -14 -14h-260v-261h275q14 0 14 -14v-39q0 -14 -14 -14h-336z" />
    <glyph glyph-name="Iiacutecy" horiz-adv-x="654" 
d="M322 746q-16 0 -9 16l54 115q5 12 16 12h44q16 0 9 -16l-55 -115q-5 -12 -16 -12h-43zM569 700q14 0 14 -14v-672q0 -14 -14 -14h-47q-14 0 -14 14v579l-326 -583q-6 -10 -18 -10h-64q-14 0 -14 14v672q0 14 14 14h47q14 0 14 -14v-579l326 583q6 10 18 10h64z" />
    <glyph glyph-name="Oacutecy" horiz-adv-x="815" 
d="M397 746q-15 0 -8 16l53 115q5 12 16 12h45q16 0 9 -16l-55 -115q-5 -12 -16 -12h-44zM424 -13q-151 0 -254.5 104t-103.5 256t103.5 256.5t254.5 104.5t254.5 -104.5t103.5 -256.5t-103.5 -256t-254.5 -104zM424 60q120 0 201 82t81 205t-81 205.5t-201 82.5
q-121 0 -201.5 -82t-80.5 -206q0 -123 80.5 -205t201.5 -82z" />
    <glyph glyph-name="Uacutecy" horiz-adv-x="639" 
d="M310 746q-16 0 -9 16l53 115q5 12 16 12h45q16 0 9 -16l-55 -115q-5 -12 -16 -12h-43zM126 0q-19 0 -9 18l168 281l-231 383q-5 8 -2.5 13t11.5 5h50q11 0 17 -10l195 -324l194 324q6 10 17 10h50q9 0 11.5 -5t-2.5 -13l-402 -672q-6 -10 -17 -10h-50z" />
    <glyph glyph-name="Yeruacutecy" horiz-adv-x="784" 
d="M375 746q-16 0 -9 16l54 115q5 12 16 12h45q16 0 9 -16l-55 -115q-5 -12 -16 -12h-44zM100 0q-14 0 -14 14v672q0 14 14 14h47q14 0 14 -14v-251h130q110 0 170 -59.5t60 -157.5t-60 -158t-170 -60h-191zM610 0q-14 0 -14 14v672q0 14 14 14h47q14 0 14 -14v-672
q0 -14 -14 -14h-47zM161 67h124q74 0 118.5 36t44.5 115q0 78 -44.5 114t-118.5 36h-124v-301z" />
    <glyph glyph-name="Ereversedacutecy" horiz-adv-x="688" 
d="M339 746q-16 0 -9 16l54 115q5 12 16 12h45q15 0 9 -16l-55 -115q-5 -12 -16 -12h-44zM311 708q153 0 253.5 -104t100.5 -257t-100.5 -256.5t-253.5 -103.5q-136 0 -237 91q-13 13 -3 23l29 32q9 9 21 -1q82 -72 187 -72q112 0 190 71.5t89 183.5h-259q-14 0 -14 14v42
q0 14 14 14h259q-13 110 -90.5 180t-188.5 70q-105 0 -187 -72q-12 -10 -22 0l-28 31q-9 12 3 24q101 90 237 90z" />
    <glyph glyph-name="Iuacutecy" horiz-adv-x="999" 
d="M485 746q-16 0 -9 16l54 115q5 12 16 12h44q16 0 9 -16l-55 -115q-5 -12 -16 -12h-43zM608 708q151 0 254.5 -104.5t103.5 -256.5t-103.5 -256t-254.5 -104q-142 0 -243.5 94t-113.5 234h-90v-301q0 -14 -14 -14h-47q-14 0 -14 14v672q0 14 14 14h47q14 0 14 -14v-301h91
q14 139 115 231t241 92zM608 60q121 0 201.5 82t80.5 205q0 124 -80.5 206t-201.5 82t-201.5 -82t-80.5 -206q0 -123 80.5 -205t201.5 -82z" />
    <glyph glyph-name="Iaacutecy" horiz-adv-x="561" 
d="M283 746q-16 0 -9 16l54 115q5 12 16 12h44q16 0 9 -16l-55 -115q-5 -12 -16 -12h-43zM489 700q14 0 14 -14v-672q0 -14 -14 -14h-47q-14 0 -14 14v251h-112l-169 -255q-6 -10 -18 -10h-50q-21 0 -10 18l170 252q-83 15 -127 72t-44 140q0 98 60 158t170 60h191zM428 332
v301h-124q-74 0 -118.5 -36t-44.5 -115q0 -78 44.5 -114t118.5 -36h124z" />
    <glyph glyph-name="aacutecy" horiz-adv-x="592" 
d="M283 557q-16 0 -9 16l54 115q5 12 16 12h45q15 0 8 -16l-54 -115q-5 -12 -16 -12h-44zM292 -12q-106 0 -173.5 73t-67.5 184t67.5 184t173.5 73q128 0 188 -108l2 82q0 14 13 14h43q13 0 13 -14v-462q0 -14 -13 -14h-43q-13 0 -13 14l-2 80q-58 -106 -188 -106zM302 55
q79 0 128.5 52t49.5 136q0 85 -49.5 138.5t-128.5 53.5t-130 -53t-51 -137q0 -85 51 -137.5t130 -52.5z" />
    <glyph glyph-name="ieacutecy" horiz-adv-x="560" 
d="M283 557q-15 0 -9 16l54 115q5 12 16 12h45q16 0 9 -16l-55 -115q-5 -12 -16 -12h-44zM310 -12q-117 0 -188 74.5t-71 184.5q0 109 69 182t177 73q104 0 166.5 -68.5t62.5 -163.5q0 -28 -7.5 -39.5t-28.5 -11.5h-369q8 -76 58.5 -123t136.5 -47q79 0 141 47q9 7 15 -1
l17 -23q7 -10 -4 -21q-66 -63 -175 -63zM121 275h341q-3 74 -47.5 118.5t-118.5 44.5q-73 0 -120.5 -44t-54.5 -119z" />
    <glyph glyph-name="iiacutecy" horiz-adv-x="568" 
d="M266 557q-16 0 -9 16l54 115q5 12 16 12h44q16 0 9 -16l-55 -115q-5 -12 -16 -12h-43zM490 490q13 0 13 -14v-462q0 -14 -13 -14h-46q-13 0 -13 14v388l-257 -392q-7 -10 -19 -10h-66q-13 0 -13 14v462q0 14 13 14h46q13 0 13 -14v-395l262 399q7 10 19 10h61z" />
    <glyph glyph-name="oacutecy" horiz-adv-x="586" 
d="M283 557q-16 0 -9 16l54 115q5 12 16 12h44q16 0 9 -16l-55 -115q-5 -12 -16 -12h-43zM302 -12q-107 0 -179 73.5t-72 183.5t72 183.5t179 73.5t178.5 -74t71.5 -183t-71.5 -183t-178.5 -74zM302 55q78 0 129 53.5t51 136.5t-51 136.5t-129 53.5t-129.5 -53.5
t-51.5 -136.5t51.5 -136.5t129.5 -53.5z" />
    <glyph glyph-name="uacutecy" horiz-adv-x="525" 
d="M251 557q-16 0 -9 16l54 115q5 12 16 12h45q16 0 9 -16l-55 -115q-5 -12 -16 -12h-44zM177 -190q-17 0 -10 15l69 173l-188 475q-6 17 11 17h46q11 0 16 -12l151 -398l152 398q4 12 16 12h46q17 0 11 -17l-258 -651q-5 -12 -17 -12h-45z" />
    <glyph glyph-name="yeruacutecy" horiz-adv-x="733" 
d="M351 557q-16 0 -9 16l54 115q5 12 16 12h44q16 0 9 -16l-55 -115q-5 -12 -16 -12h-43zM89 0q-13 0 -13 14v462q0 14 13 14h46q13 0 13 -14v-155h180q176 0 176 -161q0 -160 -176 -160h-239zM592 0q-13 0 -13 14v462q0 14 13 14h46q13 0 13 -14v-462q0 -14 -13 -14h-46z
M148 61h175q111 0 111 99q0 100 -111 100h-175v-199z" />
    <glyph glyph-name="ereversedacutecy" horiz-adv-x="525" 
d="M248 557q-16 0 -9 16l54 115q5 12 16 12h44q16 0 9 -16l-55 -115q-5 -12 -16 -12h-43zM241 502q108 0 181.5 -73.5t73.5 -183.5t-73 -183.5t-182 -73.5q-117 0 -185 82q-9 12 -1 20l25 24q11 11 24 -2q53 -57 133 -57q74 0 125.5 44.5t60.5 116.5h-189q-13 0 -13 14v28
q0 14 13 14h189q-8 73 -59.5 118t-125.5 45q-80 0 -134 -58q-12 -12 -23 -1l-25 24q-8 8 1 20q68 82 184 82z" />
    <glyph glyph-name="iuacutecy" horiz-adv-x="748" 
d="M363 557q-15 0 -9 16l54 115q5 12 16 12h45q16 0 9 -16l-55 -115q-5 -12 -16 -12h-44zM478 502q107 0 178.5 -74t71.5 -183t-71.5 -183t-178.5 -74q-99 0 -168.5 64t-80.5 162h-81v-201q0 -14 -13 -14h-46q-13 0 -13 14v462q0 14 13 14h46q13 0 13 -14v-200h81
q10 99 80 163t169 64zM478 55q78 0 129 53.5t51 136.5t-51 136.5t-129 53.5t-129.5 -53.5t-51.5 -136.5t51.5 -136.5t129.5 -53.5z" />
    <glyph glyph-name="iaacutecy" horiz-adv-x="537" 
d="M259 557q-16 0 -9 16l54 115q5 12 16 12h44q16 0 9 -16l-55 -115q-5 -12 -16 -12h-43zM466 490q13 0 13 -14v-462q0 -14 -13 -14h-46q-13 0 -13 14v155h-126l-142 -161q-7 -8 -17 -8h-50q-10 0 -12 5t5 13l137 152q-151 12 -151 160q0 160 176 160h239zM407 230v199h-176
q-110 0 -110 -99q0 -100 110 -100h176z" />
    </font>
</defs>
</svg>
