<svg viewBox="0 0 23 39" fill="none" xmlns="http://www.w3.org/2000/svg"><rect x="4.38" y="4.27" width="18.62" height="33.85" rx="3.38" fill="#D4E7DD"/><path d="M16.25.8H4.45A3.54 3.54 0 0 0 .92 4.33V31.5a3.54 3.54 0 0 0 3.53 3.54h11.72a3.54 3.54 0 0 0 3.53-3.54V4.34A3.54 3.54 0 0 0 16.25.8ZM4.45 2.33h11.72c1.1 0 2 .9 2 2v.88H2.44v-.88c0-1.1.9-2 2.01-2Zm13.72 4.4V29.1H2.44V6.74h15.73Zm-2 26.77H4.45c-1.1 0-2-.9-2-2v-.89h15.73v.88c0 1.1-.9 2.01-2.01 2.01Z" fill="#4F6258" stroke="#4F6258" stroke-width=".17"/><path d="M11.48 32.06a1.18 1.18 0 1 1-2.35 0 1.18 1.18 0 0 1 2.35 0Z" fill="#4F6258"/></svg>