<svg viewBox="0 0 29 34" fill="none" xmlns="http://www.w3.org/2000/svg"><path d="M22.78 14.65s-.57-2.2-1.17-2.79c-.59-.6-1.92-.6-1.92-.6s-4-.14-5.64-1.78c-1.63-1.63-.59-2.97-.14-4.46.44-1.33-.9-1.04-.9-1.04-3.4.75-6.66 4.46-6.66 4.46L5 8.9c-1.33.9-1.48 1.49-1.18 3.12.3 1.64 2.81 3.87 2.81 3.87l15.71 15.01s3.86 4.46 6.08 2.23c0 0 .89-.74.45-1.63-.45-.9-4.75-10.56-4.75-10.56" fill="#E2EEFF"/><path d="M22.69 14.62s.15-2.83-.3-4.61c0 0 0-.6-1.04-.3a7.4 7.4 0 0 0-2.52 1.64M28.91 31.71s-1.18 1.94-2.22 1.04c-1.04-.89-6.23-5.5-8.45-8.47a262.3 262.3 0 0 0-6.82-8.77c-2.07-2.53-4.74-5.95-4.89-7.14" fill="#E2EEFF"/><path d="M10.68 14.77s1.19-1.94.45-4.02c-.74-2.08-1.34-3.86-1.34-5.2" fill="#E2EEFF"/><path d="M13.44 18.82s4.88.15 6.8 0c1.93-.3 1.49-1.63 1.49-1.63l-.1-.56-1.55-4.68s-.57-2.2-1.17-2.79c-.59-.6-1.92-.6-1.92-.6s-4-.14-5.64-1.78c-1.63-1.63-.59-2.97-.14-4.46.44-1.33-.9-1.04-.9-1.04-3.4.75-6.66 4.46-6.66 4.46L2.3 6.2C.98 7.09.83 7.68 1.13 9.3c.3 1.64 2.81 3.87 2.81 3.87l15.71 15.01s3.86 4.46 6.08 2.23c0 0 .89-.74.45-1.64-.45-.89-4.75-10.55-4.75-10.55" stroke="#408BFC" stroke-width="1.44" stroke-miterlimit="10"/><path d="M19.99 11.92s.15-2.83-.3-4.61c0 0 0-.6-1.04-.3a7.4 7.4 0 0 0-2.52 1.64M26.21 29.01s-1.18 1.93-2.22 1.04c-1.04-.89-6.23-5.5-8.45-8.47a262.56 262.56 0 0 0-6.82-8.77c-2.07-2.53-4.74-5.95-4.89-7.14" stroke="#408BFC" stroke-width="1.44" stroke-miterlimit="10"/><path d="M7.98 12.06s1.19-1.93.45-4c-.74-2.09-1.34-3.87-1.34-5.21M20.96 14.82l-2.82.45M20.37 12.5l-2.82.44" stroke="#408BFC" stroke-width="1.44" stroke-miterlimit="10"/></svg>