<svg viewBox="0 0 29 30" fill="none" xmlns="http://www.w3.org/2000/svg"><path d="M12.8 11.62v-5.4c0-.75.6-1.35 1.35-1.35h5.4c.75 0 1.35.6 1.35 1.35v5.4c0 .74.6 1.35 1.35 1.35h5.4c.75 0 1.35.6 1.35 1.35v5.4c0 .74-.6 1.35-1.35 1.35h-5.4c-.75 0-1.35.6-1.35 1.35v5.4c0 .74-.6 1.35-1.35 1.35h-5.4c-.75 0-1.35-.6-1.35-1.35v-5.4c0-.75-.6-1.35-1.35-1.35h-5.4c-.75 0-1.35-.6-1.35-1.35v-5.4c0-.75.6-1.35 1.35-1.35h5.4c.75 0 1.35-.6 1.35-1.35Z" fill="#E6E6F8"/><path d="M10.1 8.58v-5.4c0-.74.6-1.35 1.35-1.35h5.4c.75 0 1.35.6 1.35 1.35v5.4c0 .75.6 1.35 1.35 1.35h5.4c.75 0 1.35.6 1.35 1.35v5.4c0 .75-.6 1.35-1.35 1.35h-5.4c-.75 0-1.35.6-1.35 1.35v5.4c0 .75-.6 1.35-1.35 1.35h-5.4c-.75 0-1.35-.6-1.35-1.35v-5.4c0-.74-.6-1.35-1.35-1.35h-5.4c-.75 0-1.35-.6-1.35-1.35v-5.4c0-.74.6-1.35 1.35-1.35h5.4c.75 0 1.35-.6 1.35-1.35Z" stroke="#5A58CF" stroke-width="2.7" stroke-linejoin="round"/></svg>