<?xml version="1.0" standalone="no"?>
<!DOCTYPE svg PUBLIC "-//W3C//DTD SVG 1.1//EN" "http://www.w3.org/Graphics/SVG/1.1/DTD/svg11.dtd" >
<svg xmlns="http://www.w3.org/2000/svg" xmlns:xlink="http://www.w3.org/1999/xlink" version="1.1">
<metadata>
Created by FontForge 20170731 at Sat Mar 21 16:32:03 2020
 By Aleksey,,,
Copyright (c) 2020 by Connary Fagen. All rights reserved.
</metadata>
<defs>
<font id="GreycliffCF-DemiBold" horiz-adv-x="573" >
  <font-face 
    font-family="Greycliff CF Demi Bold"
    font-weight="400"
    font-stretch="normal"
    units-per-em="1000"
    panose-1="0 0 7 0 0 0 0 0 0 0"
    ascent="781"
    descent="-219"
    x-height="490"
    cap-height="700"
    bbox="-152 -282.087 1043 941"
    underline-thickness="50"
    underline-position="-200"
    unicode-range="U+0020-FEFF"
  />
<missing-glyph horiz-adv-x="495" 
d="M406 800v-990h-314v990h314zM330 734h-164v-33h65v-37h-66v-32h165v32h-66v37h66v33zM264 606h-99v-103h165v34h-66v69zM231 572v-35h-33v35h33zM330 476h-165v-32h66v-37h-66v-33h99v70h66v32zM330 417h-33v-65h-132v-34h165v99zM330 296h-99v-55h33v22h33v-46h-99v79
h-33v-112h165v112zM330 125h-165v-112h165v112zM297 92v-46h-99v46h99zM330 -10h-165v-32h70l-70 -47v-33h165v33h-101l69 47h32v32z" />
    <glyph glyph-name=".notdef" horiz-adv-x="495" 
d="M406 800v-990h-314v990h314zM330 734h-164v-33h65v-37h-66v-32h165v32h-66v37h66v33zM264 606h-99v-103h165v34h-66v69zM231 572v-35h-33v35h33zM330 476h-165v-32h66v-37h-66v-33h99v70h66v32zM330 417h-33v-65h-132v-34h165v99zM330 296h-99v-55h33v22h33v-46h-99v79
h-33v-112h165v112zM330 125h-165v-112h165v112zM297 92v-46h-99v46h99zM330 -10h-165v-32h70l-70 -47v-33h165v33h-101l69 47h32v32z" />
    <glyph glyph-name=".null" horiz-adv-x="0" 
 />
    <glyph glyph-name="nonmarkingreturn" horiz-adv-x="333" 
 />
    <glyph glyph-name="space" unicode=" " horiz-adv-x="197" 
 />
    <glyph glyph-name="exclam" unicode="!" horiz-adv-x="251" 
d="M97 203q-15 0 -15 14l-12 468q0 15 14 15h84q14 0 14 -15l-13 -468q0 -14 -14 -14h-58zM126 -13q-29 0 -49 20t-20 48q0 29 20.5 49t48.5 20t48 -20.5t20 -48.5t-20 -48t-48 -20z" />
    <glyph glyph-name="quotedbl" unicode="&#x22;" horiz-adv-x="319" 
d="M65 477q-12 0 -14 14l-9 194q0 15 15 15h68q15 0 15 -15l-9 -194q-2 -14 -14 -14h-52zM202 477q-12 0 -14 14l-9 194q0 15 15 15h68q15 0 15 -15l-9 -194q-2 -14 -14 -14h-52z" />
    <glyph glyph-name="numbersign" unicode="#" horiz-adv-x="660" 
d="M113 0q-16 0 -11 17l52 196h-85q-14 0 -11 14l7 31q3 14 15 14h89l42 156h-85q-15 0 -12 14l8 31q3 14 15 14h89l53 201q3 12 17 12h32q16 0 11 -17l-52 -196h158l53 201q3 12 17 12h32q16 0 11 -17l-52 -196h85q15 0 12 -14l-8 -31q-3 -14 -15 -14h-89l-42 -156h85
q15 0 12 -14l-7 -31q-3 -14 -15 -14h-90l-53 -201q-3 -12 -17 -12h-32q-16 0 -11 17l52 196h-158l-53 -201q-3 -12 -17 -12h-32zM231 272h157l42 156h-158z" />
    <glyph glyph-name="dollar" unicode="$" horiz-adv-x="452" 
d="M290 376q113 -47 112 -140q0 -59 -38.5 -96.5t-98.5 -46.5v-79q0 -14 -14 -14h-46q-14 0 -14 14v78q-88 13 -137 76q-10 12 1 26l26 37q10 14 24 2q59 -52 116 -52q34 0 54 14.5t20 42.5q0 24 -15 39t-47 29l-61 25q-108 44 -108 132q0 56 35.5 92.5t91.5 45.5v85
q0 14 14 14h46q14 0 14 -14v-86q70 -12 115 -68q8 -9 -1 -22l-31 -37q-11 -12 -24 0q-45 44 -93 44q-29 0 -46.5 -14t-17.5 -38t15.5 -38t48.5 -27z" />
    <glyph glyph-name="percent" unicode="%" horiz-adv-x="728" 
d="M187 433q-57 0 -97 39.5t-40 96.5t40 96.5t97 39.5t97 -39.5t40 -96.5t-40 -96.5t-97 -39.5zM163 6l-40 27q-11 8 -4 20l427 636q8 13 19 5l40 -27q11 -8 4 -20l-427 -636q-8 -13 -19 -5zM187 505q27 0 45 18t18 46t-18 46t-45 18t-45 -18t-18 -46t18 -46t45 -18zM541 -5
q-57 0 -97 39.5t-40 96.5t40 96.5t97 39.5t97 -39.5t40 -96.5t-40 -96.5t-97 -39.5zM541 67q27 0 45 18t18 46t-18 46t-45 18t-45 -18t-18 -46t18 -46t45 -18z" />
    <glyph glyph-name="ampersand" unicode="&#x26;" horiz-adv-x="668" 
d="M256 -13q-92 0 -153 52.5t-61 145.5q0 39 10.5 70.5t33 56.5t45 43t58.5 40q-77 84 -77 155q0 66 47 110t122 44t122 -44t47 -110q0 -53 -31 -92t-88 -78l132 -143l58 90q8 13 19 13h77q6 0 8 -4.5t-2 -10.5l-97 -156l100 -108q10 -11 0 -21l-43 -44q-11 -12 -22 -1
l-90 99q-93 -107 -215 -107zM270 445q40 26 60 48.5t20 52.5q0 31 -19 50t-50 19t-50 -19t-19 -49q0 -42 58 -102zM271 84q74 0 137 76l-155 167q-51 -34 -75.5 -62.5t-24.5 -70.5q0 -50 34 -80t84 -30z" />
    <glyph glyph-name="quotesingle" unicode="'" horiz-adv-x="182" 
d="M65 477q-12 0 -14 14l-9 194q0 15 15 15h68q15 0 15 -15l-9 -194q-2 -14 -14 -14h-52z" />
    <glyph glyph-name="parenleft" unicode="(" horiz-adv-x="323" 
d="M178 -130q-12 0 -18 10q-103 182 -103 440q0 241 103 415q6 10 18 10h75q19 0 11 -18q-96 -178 -96 -407q0 -240 96 -432q8 -18 -11 -18h-75z" />
    <glyph glyph-name="parenright" unicode=")" horiz-adv-x="323" 
d="M146 -130h-76q-19 0 -11 18q96 192 96 432q0 228 -95 407q-4 8 -1 13t11 5h76q12 0 18 -10q102 -175 102 -415q0 -260 -102 -440q-6 -10 -18 -10z" />
    <glyph glyph-name="asterisk" unicode="*" horiz-adv-x="461" 
d="M211 574l-5 126h47l-4 -126h-38zM193 529l-123 33l12 47l123 -40zM268 529l-12 40l123 40l12 -47zM154 392l-38 27l78 103l31 -25zM306 392l-71 105l32 25l78 -103z" />
    <glyph glyph-name="plus" unicode="+" horiz-adv-x="460" 
d="M203 119q-15 0 -15 15v109h-108q-15 0 -15 14v55q0 14 15 14h108v109q0 14 15 14h55q14 0 14 -14v-109h108q15 0 15 -14v-55q0 -14 -15 -14h-108v-109q0 -15 -14 -15h-55z" />
    <glyph glyph-name="comma" unicode="," horiz-adv-x="237" 
d="M43 -127v30q48 -1 74 42q17 29 4 39q-3 3 -8 3q-30 -1 -50 19t-20 49t21 49t50 20q34 0 57.5 -26.5t23.5 -72.5q0 -67 -47 -110.5t-105 -41.5z" />
    <glyph glyph-name="hyphen" unicode="-" horiz-adv-x="432" 
d="M66 235q-14 0 -14 14v61q0 14 14 14h300q14 0 14 -14v-61q0 -14 -14 -14h-300z" />
    <glyph glyph-name="period" unicode="." horiz-adv-x="221" 
d="M111 -13q-29 0 -49 20t-20 48q0 29 20 49t49 20q28 0 48 -20.5t20 -48.5t-20 -48t-48 -20z" />
    <glyph glyph-name="slash" unicode="/" horiz-adv-x="481" 
d="M34 -130q-18 0 -12 17l326 846q4 12 17 12h83q17 0 11 -17l-325 -846q-4 -12 -18 -12h-82z" />
    <glyph glyph-name="zero" unicode="0" horiz-adv-x="637" 
d="M318 -13q-119 0 -195 93t-76 267t76 267.5t195 93.5t195 -93.5t76 -267.5t-75.5 -267t-195.5 -93zM318 88q81 0 123.5 69t42.5 190t-42.5 190.5t-123.5 69.5q-80 0 -122.5 -69.5t-42.5 -190.5t42.5 -190t122.5 -69z" />
    <glyph glyph-name="one" unicode="1" horiz-adv-x="333" 
d="M177 0q-14 0 -14 15v592h-112q-14 0 -14 15v63q0 15 14 15h206q14 0 14 -15v-670q0 -15 -14 -15h-80z" />
    <glyph glyph-name="two" unicode="2" horiz-adv-x="517" 
d="M62 0q-15 0 -15 15v64q0 11 7 19l213 238q55 62 70 95q17 34 17 67q0 49 -31.5 79.5t-84.5 30.5q-44 0 -72 -20t-51 -53q-10 -12 -21 -1l-46 45q-10 10 -2 22q72 107 200 107q96 0 155 -57.5t59 -143.5q0 -33 -8.5 -63.5t-27.5 -59t-28.5 -40.5t-31.5 -37l-188 -214h269
q15 0 15 -15v-63q0 -15 -15 -15h-383z" />
    <glyph glyph-name="three" unicode="3" horiz-adv-x="512" 
d="M242 -13q-133 0 -202 102q-7 12 3 20l50 45q10 10 19 -2q51 -65 125 -65q56 0 90 33.5t34 84.5q0 52 -35.5 85t-93.5 33h-22q-15 0 -15 14v61q0 14 15 14h22q49 0 77.5 29.5t28.5 70.5q0 42 -28.5 69t-73.5 27q-68 0 -107 -63q-8 -12 -20 -2l-47 46q-10 8 -2 19
q28 44 76.5 72t110.5 28q83 0 139.5 -49.5t56.5 -128.5q0 -55 -28 -95t-74 -61q57 -20 93 -66.5t36 -114.5q0 -90 -64.5 -148t-163.5 -58z" />
    <glyph glyph-name="four" unicode="4" horiz-adv-x="570" 
d="M353 0q-14 0 -14 15v134h-282q-15 0 -15 15v67q0 9 5 17l286 442q7 10 18 10h82q14 0 14 -15v-445h67q14 0 14 -15v-61q0 -15 -14 -15h-67v-134q0 -15 -14 -15h-80zM149 240h190v296z" />
    <glyph glyph-name="five" unicode="5" horiz-adv-x="540" 
d="M254 -13q-70 0 -122.5 29.5t-78.5 69.5q-7 14 4 22l54 42q12 9 22 -5q46 -58 119 -58q62 0 102 40.5t40 102.5q0 61 -39.5 100t-98.5 39q-67 0 -108 -49q-10 -12 -25 -5l-53 21q-13 5 -10 18l73 333q3 13 16 13h290q14 0 14 -15v-63q0 -15 -14 -15h-225l-38 -173
q46 27 104 27q94 0 156 -66t62 -167q0 -108 -70 -174.5t-174 -66.5z" />
    <glyph glyph-name="six" unicode="6" horiz-adv-x="560" 
d="M280 -13q-102 0 -170 68t-68 168q0 95 77 192l232 298q10 12 20 3l56 -49q10 -8 2 -19l-162 -200q14 8 42 8q83 0 146.5 -67t63.5 -166q0 -101 -68.5 -168.5t-170.5 -67.5zM280 87q58 0 96 39t38 100q0 60 -38 99t-96 39q-57 0 -95 -39t-38 -99q0 -61 38 -100t95 -39z
" />
    <glyph glyph-name="seven" unicode="7" horiz-adv-x="512" 
d="M117 0q-17 0 -11 18l244 589h-299q-14 0 -14 15v63q0 15 14 15h419q8 0 11 -5.5t0 -13.5l-269 -666q-5 -15 -18 -15h-77z" />
    <glyph glyph-name="eight" unicode="8" horiz-adv-x="562" 
d="M281 -13q-97 0 -165.5 59.5t-68.5 154.5q0 68 35.5 118.5t90.5 72.5q-82 48 -82 143q0 73 52.5 123t137.5 50q84 0 137 -50.5t53 -122.5q0 -94 -83 -143q55 -22 90.5 -72.5t35.5 -118.5q0 -95 -68.5 -154.5t-164.5 -59.5zM281 432q41 0 67.5 27.5t26.5 68.5
q0 40 -26.5 66.5t-67.5 26.5q-42 0 -68 -26.5t-26 -66.5q0 -41 26.5 -68.5t67.5 -27.5zM281 85q55 0 90.5 33.5t35.5 88.5q0 56 -37 90t-89 34t-89.5 -34t-37.5 -90q0 -54 36 -88t91 -34z" />
    <glyph glyph-name="nine" unicode="9" horiz-adv-x="560" 
d="M189 -21l-55 49q-11 8 -2 19l162 200q-16 -8 -43 -8q-82 0 -145.5 67.5t-63.5 165.5q0 101 68.5 168.5t170.5 67.5q101 0 169.5 -68t68.5 -167q0 -95 -78 -193l-231 -298q-10 -12 -21 -3zM280 331q58 0 96 39t38 99q0 61 -38 100t-96 39t-95.5 -39t-37.5 -100
q0 -60 38 -99t95 -39z" />
    <glyph glyph-name="colon" unicode=":" horiz-adv-x="221" 
d="M111 365q-29 0 -49 20t-20 48q0 29 20 49t49 20q28 0 48 -20.5t20 -48.5t-20 -48t-48 -20zM111 -12q-29 0 -49 20t-20 48t20 48.5t49 20.5q28 0 48 -20.5t20 -48.5t-20 -48t-48 -20z" />
    <glyph glyph-name="semicolon" unicode=";" horiz-adv-x="237" 
d="M112 365q-29 0 -49 20t-20 48q0 29 20.5 49t48.5 20t48 -20.5t20 -48.5t-20 -48t-48 -20zM43 -127v30q48 -1 74 42q17 29 4 39q-3 3 -8 3q-30 -1 -50 19t-20 49t21 49t50 20q34 0 57.5 -26.5t23.5 -72.5q0 -67 -47 -110.5t-105 -41.5z" />
    <glyph glyph-name="less" unicode="&#x3c;" horiz-adv-x="517" 
d="M439 18l-368 187q-11 5 -11 17v54q0 12 11 18l368 187q18 9 18 -9v-67q0 -10 -11 -15l-288 -141l288 -140q11 -5 11 -15v-67q0 -8 -5.5 -10.5t-12.5 1.5z" />
    <glyph glyph-name="equal" unicode="=" horiz-adv-x="480" 
d="M80 316q-15 0 -15 14v55q0 15 15 15h320q15 0 15 -15v-55q0 -14 -15 -14h-320zM80 170q-15 0 -15 14v55q0 15 15 15h320q15 0 15 -15v-55q0 -14 -15 -14h-320z" />
    <glyph glyph-name="greater" unicode="&#x3e;" horiz-adv-x="517" 
d="M78 18q-8 -4 -13 -1.5t-5 10.5v67q0 10 11 15l288 140l-288 141q-11 5 -11 15v67q0 18 18 9l368 -187q11 -6 11 -18v-54q0 -12 -11 -17z" />
    <glyph glyph-name="question" unicode="?" horiz-adv-x="458" 
d="M186 200q-15 0 -15 15v38q-1 44 13 77.5t34.5 54.5t40.5 39.5t34.5 41.5t14.5 52q0 41 -25.5 63t-65.5 22q-74 0 -109 -82q-7 -13 -23 -3l-44 27q-18 11 -13 26q20 59 72 98t128 39q79 0 133.5 -44t54.5 -125q0 -41 -15 -74t-36 -55.5t-43 -44t-38 -50t-18 -63.5l-2 -37
q0 -15 -14 -15h-64zM219 -13q-29 0 -49 20t-20 48q0 29 20 49t49 20q28 0 48 -20.5t20 -48.5t-20 -48t-48 -20z" />
    <glyph glyph-name="at" unicode="@" horiz-adv-x="832" 
d="M422 -13q-96 0 -178.5 43.5t-134.5 127.5t-52 191q0 108 53 191.5t135.5 125.5t177.5 42q146 0 249 -95.5t103 -249.5q0 -100 -44.5 -149.5t-108.5 -49.5q-70 0 -90 54q-49 -54 -126 -54t-125.5 52t-48.5 129t49 129t127 52q77 0 124 -55l15 35h50l-20 -202
q-5 -63 44 -63q65 0 65 113q0 125 -76.5 197t-185.5 72q-112 0 -194.5 -74.5t-82.5 -199.5q0 -126 82.5 -201.5t194.5 -75.5q82 0 141 41l51 -61q-29 -28 -81 -46.5t-113 -18.5zM412 241q45 0 73.5 29.5t28.5 74.5t-28.5 74.5t-73.5 29.5t-73 -29t-28 -75t28 -75t73 -29z
" />
    <glyph glyph-name="A" unicode="A" horiz-adv-x="690" 
d="M647 17q7 -17 -12 -17h-87q-13 0 -17 12l-41 122h-290l-42 -122q-4 -12 -17 -12h-86q-19 0 -12 17l238 671q5 12 18 12h91q14 0 19 -12zM234 234h222l-111 327z" />
    <glyph glyph-name="B" unicode="B" horiz-adv-x="589" 
d="M91 0q-14 0 -14 15v670q0 15 14 15h221q94 0 142.5 -50t48.5 -123q0 -52 -26 -92t-70 -57q63 -15 101.5 -63t38.5 -118q0 -90 -61.5 -143.5t-179.5 -53.5h-215zM187 414h106q49 0 76.5 25t27.5 72q0 90 -104 90h-106v-187zM187 99h112q134 0 134 113q0 56 -34.5 85
t-99.5 29h-112v-227z" />
    <glyph glyph-name="C" unicode="C" horiz-adv-x="714" 
d="M415 -13q-152 0 -255 103.5t-103 256.5t103 257t255 104q140 0 241 -96q11 -11 1 -22l-51 -55q-9 -10 -21 -1q-74 64 -169 64q-105 0 -175.5 -71.5t-70.5 -179.5t70.5 -179t175.5 -71q95 0 169 64q11 10 21 0l51 -56q11 -9 -1 -21q-100 -97 -241 -97z" />
    <glyph glyph-name="D" unicode="D" horiz-adv-x="681" 
d="M91 0q-14 0 -14 15v670q0 15 14 15h182q172 0 264 -97.5t92 -252.5t-92 -252.5t-264 -97.5h-182zM189 100h82q122 0 183.5 64.5t61.5 185.5t-61.5 185.5t-183.5 64.5h-82v-500z" />
    <glyph glyph-name="E" unicode="E" horiz-adv-x="520" 
d="M91 0q-14 0 -14 15v670q0 15 14 15h347q14 0 14 -15v-70q0 -15 -14 -15h-249v-192h235q15 0 15 -15v-71q0 -14 -15 -14h-235v-208h249q15 0 15 -15v-70q0 -15 -15 -15h-347z" />
    <glyph glyph-name="F" unicode="F" horiz-adv-x="507" 
d="M91 0q-14 0 -14 15v670q0 15 14 15h340q15 0 15 -15v-70q0 -15 -15 -15h-242v-187h229q15 0 15 -15v-70q0 -15 -15 -15h-229v-298q0 -15 -15 -15h-83z" />
    <glyph glyph-name="G" unicode="G" horiz-adv-x="787" 
d="M418 -13q-154 0 -257.5 103.5t-103.5 256.5t103.5 257t255.5 104q143 0 240 -97q11 -10 1 -22l-51 -55q-9 -11 -19 -1q-76 65 -171 65q-105 0 -175.5 -71.5t-70.5 -179.5t71 -179t180 -71q94 0 152 52.5t60 132.5h-208q-14 0 -14 14v72q0 14 14 14h300q15 0 15 -15v-49
q0 -142 -87.5 -236.5t-234.5 -94.5z" />
    <glyph glyph-name="H" unicode="H" horiz-adv-x="668" 
d="M91 0q-14 0 -14 15v670q0 15 14 15h83q15 0 15 -15v-290h290v290q0 15 15 15h83q14 0 14 -15v-670q0 -15 -14 -15h-83q-15 0 -15 15v281h-290v-281q0 -15 -15 -15h-83z" />
    <glyph glyph-name="I" unicode="I" horiz-adv-x="266" 
d="M91 0q-14 0 -14 15v670q0 15 14 15h83q15 0 15 -15v-670q0 -15 -15 -15h-83z" />
    <glyph glyph-name="J" unicode="J" horiz-adv-x="527" 
d="M225 -13q-107 0 -171 72q-9 12 0 23l44 58q9 11 19 1q17 -14 27 -21t31.5 -15t46.5 -8q116 0 116 148v440q0 15 14 15h83q15 0 15 -15v-438q0 -127 -61.5 -193.5t-163.5 -66.5z" />
    <glyph glyph-name="K" unicode="K" horiz-adv-x="643" 
d="M91 0q-14 0 -14 15v670q0 15 14 15h83q15 0 15 -15v-341l258 348q7 8 18 8h102q9 0 11.5 -5.5t-3.5 -12.5l-236 -300l264 -364q5 -8 2.5 -13t-11.5 -5h-97q-12 0 -18 9l-208 286l-82 -104v-176q0 -15 -15 -15h-83z" />
    <glyph glyph-name="L" unicode="L" horiz-adv-x="482" 
d="M421 100q15 0 15 -15v-70q0 -15 -15 -15h-330q-14 0 -14 15v670q0 15 14 15h83q15 0 15 -15v-585h232z" />
    <glyph glyph-name="M" unicode="M" horiz-adv-x="878" 
d="M91 0q-14 0 -14 15v670q0 15 14 15h101q13 0 17 -10l230 -563l231 563q4 10 16 10h101q15 0 15 -15v-670q0 -15 -15 -15h-83q-14 0 -14 15v483l-14 -45l-181 -441q-5 -12 -17 -12h-77q-13 0 -18 12l-180 441l-14 45v-483q0 -15 -15 -15h-83z" />
    <glyph glyph-name="N" unicode="N" horiz-adv-x="684" 
d="M593 700q15 0 15 -15v-670q0 -15 -15 -15h-102q-12 0 -18 10l-284 517v-512q0 -15 -15 -15h-83q-14 0 -14 15v670q0 15 14 15h102q12 0 18 -10l284 -517v512q0 15 15 15h83z" />
    <glyph glyph-name="O" unicode="O" horiz-adv-x="832" 
d="M416 -13q-150 0 -254.5 104.5t-104.5 255.5q0 152 104.5 256.5t254.5 104.5t254.5 -104.5t104.5 -256.5q0 -151 -104.5 -255.5t-254.5 -104.5zM416 97q105 0 175 71.5t70 178.5q0 108 -70 179.5t-175 71.5t-175.5 -71.5t-70.5 -179.5q0 -107 70.5 -178.5t175.5 -71.5z
" />
    <glyph glyph-name="P" unicode="P" horiz-adv-x="579" 
d="M91 0q-14 0 -14 15v670q0 15 14 15h202q116 0 177.5 -60.5t61.5 -162.5t-61.5 -162.5t-177.5 -60.5h-104v-239q0 -15 -15 -15h-83zM189 354h99q136 0 136 123t-136 123h-99v-246z" />
    <glyph glyph-name="Q" unicode="Q" horiz-adv-x="832" 
d="M770 64q10 -10 0 -21l-55 -55q-11 -10 -21 0l-66 67q-95 -68 -212 -68q-150 0 -254.5 104.5t-104.5 255.5q0 152 104.5 256.5t254.5 104.5t254.5 -104.5t104.5 -256.5q0 -122 -71 -217zM416 97q74 0 133 37l-86 86q-11 10 -1 20l56 56q10 10 21 -1l85 -85q37 63 37 137
q0 108 -70 179.5t-175 71.5t-175.5 -71.5t-70.5 -179.5q0 -107 70.5 -178.5t175.5 -71.5z" />
    <glyph glyph-name="R" unicode="R" horiz-adv-x="591" 
d="M541 18q11 -18 -10 -18h-88q-12 0 -18 10l-157 244h-79v-239q0 -15 -15 -15h-83q-14 0 -14 15v670q0 15 14 15h202q116 0 177.5 -60.5t61.5 -162.5q0 -80 -39 -135.5t-114 -76.5zM189 600v-246h99q136 0 136 123t-136 123h-99z" />
    <glyph glyph-name="S" unicode="S" horiz-adv-x="548" 
d="M272 -12q-74 0 -129.5 30t-88.5 77q-8 11 2 22l42 48q11 13 23 1q65 -75 150 -75q55 0 86.5 25.5t31.5 70.5q0 41 -24.5 64t-78.5 48l-85 40q-133 63 -133 182q0 86 59 136.5t147 50.5q117 0 197 -91q11 -11 0 -23l-41 -49q-10 -13 -23 -2q-62 62 -129 62q-45 0 -73 -22
t-28 -62q0 -33 20 -54t66 -43l77 -36q75 -36 116.5 -80t41.5 -121q0 -94 -65 -146.5t-161 -52.5z" />
    <glyph glyph-name="T" unicode="T" horiz-adv-x="540" 
d="M228 0q-14 0 -14 15v585h-143q-14 0 -14 15v70q0 15 14 15h397q15 0 15 -15v-70q0 -15 -15 -15h-142v-585q0 -15 -15 -15h-83z" />
    <glyph glyph-name="U" unicode="U" horiz-adv-x="644" 
d="M322 -13q-113 0 -181.5 68.5t-68.5 194.5v435q0 15 14 15h83q15 0 15 -15v-430q0 -78 36.5 -118t101.5 -40t101.5 40t36.5 118v430q0 15 15 15h83q15 0 15 -15v-435q0 -126 -68.5 -194.5t-182.5 -68.5z" />
    <glyph glyph-name="V" unicode="V" horiz-adv-x="690" 
d="M299 0q-13 0 -18 12l-238 671q-7 17 12 17h86q13 0 17 -12l187 -549l186 549q4 12 17 12h87q19 0 12 -17l-238 -671q-5 -12 -19 -12h-91z" />
    <glyph glyph-name="W" unicode="W" horiz-adv-x="1081" 
d="M264 0q-15 0 -18 12l-203 671q-5 17 12 17h85q14 0 17 -12l156 -537l169 537q4 12 17 12h83q13 0 17 -12l169 -537l156 537q4 12 17 12h85q17 0 12 -17l-203 -671q-3 -12 -18 -12h-90q-15 0 -18 12l-168 548l-169 -548q-3 -12 -18 -12h-90z" />
    <glyph glyph-name="X" unicode="X" horiz-adv-x="641" 
d="M64 0q-19 0 -9 18l204 340l-194 324q-10 18 9 18h90q11 0 18 -10l139 -230l139 230q6 10 17 10h90q19 0 9 -18l-194 -324l204 -340q10 -18 -9 -18h-90q-11 0 -18 10l-148 247l-149 -247q-7 -10 -18 -10h-90z" />
    <glyph glyph-name="Y" unicode="Y" horiz-adv-x="613" 
d="M265 0q-14 0 -14 15v315l-206 352q-10 18 9 18h88q12 0 18 -10l147 -257l147 257q6 10 17 10h88q20 0 10 -18l-206 -353v-314q0 -15 -15 -15h-83z" />
    <glyph glyph-name="Z" unicode="Z" horiz-adv-x="560" 
d="M66 0q-14 0 -14 15v75q0 9 6 18l320 492h-302q-14 0 -14 15v70q0 15 14 15h402q15 0 15 -15v-75q0 -9 -6 -18l-321 -492h322q15 0 15 -15v-70q0 -15 -15 -15h-422z" />
    <glyph glyph-name="bracketleft" unicode="[" horiz-adv-x="311" 
d="M71 -130q-14 0 -14 14v847q0 14 14 14h169q14 0 14 -14v-61q0 -14 -14 -14h-71v-697h71q14 0 14 -14v-61q0 -14 -14 -14h-169z" />
    <glyph glyph-name="backslash" unicode="\" horiz-adv-x="481" 
d="M448 -130h-83q-13 0 -17 12l-326 846q-6 17 12 17h82q14 0 18 -12l325 -846q6 -17 -11 -17z" />
    <glyph glyph-name="bracketright" unicode="]" horiz-adv-x="311" 
d="M240 -130h-169q-14 0 -14 14v61q0 14 14 14h71v697h-71q-14 0 -14 14v61q0 14 14 14h169q14 0 14 -14v-847q0 -14 -14 -14z" />
    <glyph glyph-name="asciicircum" unicode="^" horiz-adv-x="588" 
d="M62 321l187 368q6 11 18 11h54q11 0 17 -11l188 -368q9 -18 -9 -18h-67q-11 0 -16 11l-140 288l-140 -288q-6 -11 -16 -11h-67q-18 0 -9 18z" />
    <glyph glyph-name="underscore" unicode="_" horiz-adv-x="620" 
d="M74 -90q-14 0 -14 14v62q0 14 14 14h472q14 0 14 -14v-62q0 -14 -14 -14h-472z" />
    <glyph glyph-name="grave" unicode="`" horiz-adv-x="191" 
d="M163 557h-72q-11 0 -16 12l-58 114q-9 17 11 17h73q11 0 16 -12l57 -114q8 -17 -11 -17z" />
    <glyph glyph-name="a" unicode="a" horiz-adv-x="621" 
d="M278 -12q-104 0 -170 73t-66 184q0 110 66 183.5t170 73.5q118 0 173 -93l2 66q0 15 14 15h73q14 0 14 -15v-460q0 -15 -14 -15h-73q-14 0 -14 15l-2 65q-56 -92 -173 -92zM299 87q66 0 107 43.5t41 113.5q0 71 -41 115t-107 44t-109 -44t-43 -114q0 -71 42.5 -114.5
t109.5 -43.5z" />
    <glyph glyph-name="b" unicode="b" horiz-adv-x="621" 
d="M343 -12q-117 0 -173 92l-2 -65q0 -15 -14 -15h-73q-14 0 -14 15v685q0 15 14 15h80q14 0 14 -15v-283q56 85 168 85q104 0 170 -73.5t66 -183.5q0 -111 -66 -184t-170 -73zM322 87q67 0 109.5 43.5t42.5 114.5q0 70 -43 114t-109 44t-107 -44t-41 -115q0 -70 41 -113.5
t107 -43.5z" />
    <glyph glyph-name="c" unicode="c" horiz-adv-x="531" 
d="M299 -12q-110 0 -183.5 74t-73.5 184t73 183t182 73q118 0 187 -85q9 -12 0 -21l-45 -43q-12 -12 -24 1q-48 48 -113 48q-69 0 -112.5 -44t-43.5 -112t44 -113t114 -45q65 0 111 48q13 13 25 1l45 -43q9 -9 0 -21q-69 -85 -186 -85z" />
    <glyph glyph-name="d" unicode="d" horiz-adv-x="621" 
d="M278 -12q-104 0 -170 73t-66 184q0 110 66 183.5t170 73.5q112 0 168 -85v283q0 15 14 15h80q14 0 14 -15v-685q0 -15 -14 -15h-73q-14 0 -14 15l-2 65q-56 -92 -173 -92zM299 87q66 0 107 43.5t41 113.5q0 71 -41 115t-107 44t-109 -44t-43 -114q0 -71 42.5 -114.5
t109.5 -43.5z" />
    <glyph glyph-name="e" unicode="e" horiz-adv-x="565" 
d="M306 -12q-118 0 -191 74t-73 185q0 110 69.5 182.5t179.5 72.5q106 0 169 -68.5t63 -164.5q0 -34 -9.5 -49t-36.5 -15h-330q10 -60 53.5 -95t114.5 -35q69 0 126 38q10 6 16 -3l28 -38q8 -10 -4 -22q-63 -62 -175 -62zM146 283h281q-4 60 -41 94t-95 34t-97.5 -34
t-47.5 -94z" />
    <glyph glyph-name="f" unicode="f" horiz-adv-x="368" 
d="M124 0q-14 0 -14 15v389h-59q-14 0 -14 15v56q0 15 14 15h59v92q0 149 150 149q38 0 62 -12q9 -4 9 -14v-68q0 -9 -12 -7q-30 4 -38 4q-36 0 -49.5 -18t-13.5 -52v-74h99q14 0 14 -15v-56q0 -15 -14 -15h-99v-389q0 -15 -14 -15h-80z" />
    <glyph glyph-name="g" unicode="g" horiz-adv-x="614" 
d="M292 -205q-110 0 -182 52q-14 9 -7 25l23 43q8 14 22 6q62 -37 135 -37q68 0 114 34t46 108v66q-53 -84 -167 -84q-104 0 -169 69t-65 178t65 178t168 69q116 0 169 -86l2 59q0 15 14 15h73q14 0 14 -15v-452q0 -80 -39 -133t-94 -74t-122 -21zM295 106q65 0 105 40
t40 108t-40.5 109t-104.5 41t-106 -41t-42 -108q0 -68 42 -108.5t106 -40.5z" />
    <glyph glyph-name="h" unicode="h" 
d="M329 502q80 0 129 -53t49 -148v-286q0 -15 -15 -15h-79q-14 0 -14 15v266q0 58 -27.5 89.5t-79.5 31.5q-53 0 -85 -32t-32 -89v-266q0 -15 -14 -15h-80q-14 0 -14 15v685q0 15 14 15h80q14 0 14 -15v-286q49 88 154 88z" />
    <glyph glyph-name="i" unicode="i" horiz-adv-x="243" 
d="M122 595q-27 0 -45 18.5t-18 44.5t18 44t45 18q26 0 44 -18t18 -44t-18 -44.5t-44 -18.5zM81 0q-14 0 -14 15v460q0 15 14 15h81q14 0 14 -15v-460q0 -15 -14 -15h-81z" />
    <glyph glyph-name="j" unicode="j" horiz-adv-x="252" 
d="M131 595q-27 0 -45 18.5t-18 44.5t18 44t45 18q26 0 44 -18t18 -44t-18 -44.5t-44 -18.5zM35 -200q-38 0 -63 12q-9 4 -9 14v68q0 9 13 7q28 -4 37 -4q36 0 49.5 18t13.5 52v508q0 15 14 15h81q14 0 14 -15v-526q0 -149 -150 -149z" />
    <glyph glyph-name="k" unicode="k" horiz-adv-x="547" 
d="M81 0q-14 0 -14 15v685q0 15 14 15h80q14 0 14 -15v-436l193 218q7 8 17 8h94q9 0 10.5 -5t-4.5 -12l-173 -191l200 -265q5 -7 2.5 -12t-11.5 -5h-86q-12 0 -18 9l-152 199l-72 -79v-114q0 -15 -14 -15h-80z" />
    <glyph glyph-name="l" unicode="l" horiz-adv-x="242" 
d="M81 0q-14 0 -14 15v685q0 15 14 15h80q14 0 14 -15v-685q0 -15 -14 -15h-80z" />
    <glyph glyph-name="m" unicode="m" horiz-adv-x="838" 
d="M81 0q-14 0 -14 15v460q0 15 14 15h76q14 0 14 -16l3 -53q44 81 138 81q102 0 141 -91q48 91 153 91q78 0 122 -51t44 -147v-289q0 -15 -14 -15h-80q-14 0 -14 15v269q0 118 -91 118q-46 0 -73 -31t-27 -87v-269q0 -15 -14 -15h-79q-15 0 -15 15v269q0 118 -93 118
q-46 0 -71.5 -31t-25.5 -87v-269q0 -15 -14 -15h-80z" />
    <glyph glyph-name="n" unicode="n" 
d="M81 0q-14 0 -14 15v460q0 15 14 15h76q14 0 14 -16l4 -60q49 88 154 88q80 0 129 -53t49 -148v-286q0 -15 -15 -15h-79q-14 0 -14 15v266q0 58 -27.5 89.5t-79.5 31.5q-53 0 -85 -32t-32 -89v-266q0 -15 -14 -15h-80z" />
    <glyph glyph-name="o" unicode="o" horiz-adv-x="591" 
d="M296 -12q-109 0 -181.5 74t-72.5 183t72.5 183t181.5 74q108 0 180.5 -74t72.5 -183t-72.5 -183t-180.5 -74zM296 88q64 0 106.5 43.5t42.5 113.5t-42.5 113.5t-106.5 43.5q-65 0 -107.5 -43.5t-42.5 -113.5t42.5 -113.5t107.5 -43.5z" />
    <glyph glyph-name="p" unicode="p" horiz-adv-x="621" 
d="M81 -190q-14 0 -14 15v650q0 15 14 15h73q14 0 14 -15l2 -66q55 93 173 93q104 0 170 -73.5t66 -183.5q0 -111 -66 -184t-170 -73q-112 0 -168 85v-248q0 -15 -14 -15h-80zM322 87q67 0 109.5 43.5t42.5 114.5q0 70 -43 114t-109 44t-107 -44t-41 -115q0 -70 41 -113.5
t107 -43.5z" />
    <glyph glyph-name="q" unicode="q" horiz-adv-x="621" 
d="M460 -190q-14 0 -14 15v248q-56 -85 -168 -85q-104 0 -170 73t-66 184q0 110 66 183.5t170 73.5q118 0 173 -93l2 66q0 15 14 15h73q14 0 14 -15v-650q0 -15 -14 -15h-80zM299 87q66 0 107 43.5t41 113.5q0 71 -41 115t-107 44t-109 -44t-43 -114q0 -71 42.5 -114.5
t109.5 -43.5z" />
    <glyph glyph-name="r" unicode="r" horiz-adv-x="372" 
d="M81 0q-14 0 -14 15v460q0 15 14 15h76q14 0 14 -16l3 -59q32 87 109 87q30 0 45 -11q9 -6 9 -19v-62q0 -16 -19 -11q-20 5 -36 5q-54 0 -80.5 -36t-26.5 -89v-264q0 -15 -14 -15h-80z" />
    <glyph glyph-name="s" unicode="s" horiz-adv-x="446" 
d="M223 -12q-107 0 -172 78q-10 11 1 27l26 36q10 14 24 2q60 -52 116 -52q34 0 54.5 15t20.5 43q0 24 -15 39t-48 29l-60 24q-109 44 -109 133q0 64 47 102t115 38q96 0 154 -72q9 -11 -1 -21l-31 -37q-11 -12 -24 0q-46 43 -93 43q-29 0 -46.5 -14t-17.5 -38t16 -38
t48 -27l59 -24q113 -45 113 -140q-1 -69 -52 -107.5t-125 -38.5z" />
    <glyph glyph-name="t" unicode="t" horiz-adv-x="354" 
d="M242 -12q-59 0 -93.5 30.5t-34.5 95.5v290h-63q-14 0 -14 15v56q0 15 14 15h63v115q0 15 14 15h81q14 0 14 -15v-115h79q15 0 15 -15v-56q0 -15 -15 -15h-79v-278q0 -47 44 -47q9 0 31 2q18 1 18 -14v-53q0 -26 -74 -26z" />
    <glyph glyph-name="u" unicode="u" 
d="M244 -12q-80 0 -128.5 53t-48.5 148v286q0 15 14 15h80q14 0 14 -15v-266q0 -58 27.5 -89.5t79.5 -31.5t84.5 32t32.5 89v266q0 15 14 15h79q15 0 15 -15v-460q0 -15 -15 -15h-75q-15 0 -15 16l-3 60q-49 -88 -155 -88z" />
    <glyph glyph-name="v" unicode="v" horiz-adv-x="559" 
d="M239 0q-14 0 -18 12l-183 461q-6 17 12 17h81q13 0 17 -12l132 -355l131 355q5 12 18 12h80q18 0 12 -17l-183 -461q-4 -12 -18 -12h-81z" />
    <glyph glyph-name="w" unicode="w" horiz-adv-x="876" 
d="M213 0q-13 0 -18 12l-157 461q-6 17 12 17h77q13 0 18 -12l114 -355l121 355q4 12 18 12h80q13 0 18 -12l121 -355l114 355q5 12 17 12h78q17 0 11 -17l-156 -461q-5 -12 -18 -12h-84q-13 0 -18 12l-123 355l-123 -355q-5 -12 -18 -12h-84z" />
    <glyph glyph-name="x" unicode="x" horiz-adv-x="510" 
d="M49 0q-9 0 -11.5 5t2.5 13l150 233l-144 221q-4 8 -1.5 13t10.5 5h88q11 0 17 -10l95 -153l94 153q6 10 18 10h87q9 0 11.5 -5t-2.5 -13l-143 -221l150 -233q5 -8 2 -13t-11 -5h-88q-11 0 -17 10l-101 164l-101 -164q-6 -10 -18 -10h-87z" />
    <glyph glyph-name="y" unicode="y" horiz-adv-x="560" 
d="M168 -190q-19 0 -11 16l70 173l-189 474q-6 17 12 17h81q13 0 17 -12l132 -354l133 354q5 12 17 12h81q17 0 11 -17l-258 -651q-4 -12 -18 -12h-78z" />
    <glyph glyph-name="z" unicode="z" horiz-adv-x="475" 
d="M61 0q-14 0 -14 15v64q0 11 7 18l252 304h-242q-14 0 -14 14v60q0 15 14 15h348q15 0 15 -15v-64q0 -9 -7 -18l-253 -304h246q15 0 15 -14v-60q0 -15 -15 -15h-352z" />
    <glyph glyph-name="braceleft" unicode="{" horiz-adv-x="338" 
d="M186 -130q-36 0 -61.5 22t-25.5 66v267q0 11 -5 19l-33 52q-6 11 -1 20l34 54q5 9 5 19v268q0 43 25.5 65.5t61.5 22.5h81q14 0 14 -14v-61q0 -14 -14 -14h-21q-35 0 -35 -34v-238q0 -9 -6 -18l-33 -49q-7 -11 0 -21l33 -48q6 -9 6 -18v-237q0 -34 35 -34h21q14 0 14 -14
v-61q0 -14 -14 -14h-81z" />
    <glyph glyph-name="bar" unicode="|" horiz-adv-x="266" 
d="M91 -190q-14 0 -14 15v960q0 15 14 15h83q15 0 15 -15v-960q0 -15 -15 -15h-83z" />
    <glyph glyph-name="braceright" unicode="}" horiz-adv-x="338" 
d="M152 -130h-81q-14 0 -14 14v61q0 14 14 14h21q35 0 35 34v237q0 9 6 18l34 48q6 11 0 21l-34 49q-6 9 -6 18v238q0 34 -35 34h-21q-14 0 -14 14v61q0 14 14 14h81q36 0 61.5 -22.5t25.5 -65.5v-268q0 -10 5 -19l34 -54q5 -9 -1 -20l-33 -52q-5 -8 -5 -19v-267
q0 -44 -25.5 -66t-61.5 -22z" />
    <glyph glyph-name="asciitilde" unicode="~" horiz-adv-x="491" 
d="M327 214q-35 0 -65 19t-55.5 37.5t-48.5 18.5q-39 0 -49 -32q-3 -9 -12 -9h-26q-11 0 -11 12q1 48 30.5 73.5t73.5 25.5q28 0 53 -11.5t40.5 -26t36 -26t39.5 -11.5q38 0 49 32q3 9 12 9h26q11 0 11 -12q-1 -48 -30.5 -73.5t-73.5 -25.5z" />
    <glyph glyph-name="uni00A0" unicode="&#xa0;" horiz-adv-x="197" 
 />
    <glyph glyph-name="exclamdown" unicode="&#xa1;" horiz-adv-x="251" 
d="M126 533q28 0 48 -20t20 -48t-20 -48.5t-48 -20.5t-48.5 20t-20.5 49q0 28 20 48t49 20zM97 317h58q14 0 14 -14l13 -468q0 -15 -14 -15h-84q-14 0 -14 15l12 468q0 14 15 14z" />
    <glyph glyph-name="cent" unicode="&#xa2;" horiz-adv-x="491" 
d="M445 216q7 -9 0 -19q-56 -69 -150 -75v-108q0 -14 -14 -14h-18q-14 0 -14 14v108q-90 10 -148.5 74t-58.5 155t58.5 154.5t148.5 72.5v108q0 14 14 14h18q14 0 14 -14v-108q94 -7 149 -75q8 -10 0 -18l-41 -38q-10 -12 -22 0q-38 38 -86 42v-278q50 4 86 42q13 11 23 1z
M137 351q0 -53 30.5 -90.5t81.5 -47.5v275q-50 -9 -81 -46.5t-31 -90.5z" />
    <glyph glyph-name="sterling" unicode="&#xa3;" horiz-adv-x="535" 
d="M64 0q-14 0 -14 15v78q105 56 105 153q0 7 -3 31h-87q-14 0 -14 14v46q0 15 14 15h60q-18 34 -26.5 50.5t-17.5 48t-9 60.5q0 84 59 140.5t153 56.5q126 0 198 -107q10 -13 -2 -23l-46 -44q-12 -12 -20 1q-16 22 -29 35t-38.5 25.5t-55.5 12.5q-51 0 -82 -30.5t-31 -78.5
q0 -25 8 -47.5t26.5 -55t24.5 -45.5h142q14 0 14 -14v-46q0 -14 -14 -14h-125q3 -11 3 -33q0 -90 -78 -151h278q15 0 15 -15v-63q0 -15 -15 -15h-393z" />
    <glyph glyph-name="currency" unicode="&#xa4;" horiz-adv-x="592" 
d="M119 249l-57 55l48 48q-39 57 -39 124t39 124l-48 48l57 55l46 -45q58 42 130 42q73 0 132 -43l47 46l56 -55l-48 -49q37 -56 37 -123t-37 -123l48 -49l-56 -55l-47 46q-59 -43 -132 -43t-130 43zM295 324q67 0 109 46t42 106t-42 106t-109 46q-66 0 -108.5 -46.5
t-42.5 -105.5q0 -60 42.5 -106t108.5 -46z" />
    <glyph glyph-name="yen" unicode="&#xa5;" horiz-adv-x="613" 
d="M559 700q20 0 10 -18l-206 -353h84q15 0 15 -15v-46q0 -14 -15 -14h-84v-36h84q15 0 15 -14v-46q0 -14 -15 -14h-84v-129q0 -15 -15 -15h-83q-14 0 -14 15v129h-84q-15 0 -15 14v46q0 14 15 14h84v36h-84q-15 0 -15 14v46q0 15 15 15h84v1l-206 352q-10 18 9 18h88
q12 0 18 -10l147 -257l147 257q6 10 17 10h88z" />
    <glyph glyph-name="brokenbar" unicode="&#xa6;" horiz-adv-x="266" 
d="M91 490q-14 0 -14 15v280q0 15 14 15h83q15 0 15 -15v-280q0 -15 -15 -15h-83zM91 -190q-14 0 -14 15v280q0 15 14 15h83q15 0 15 -15v-280q0 -15 -15 -15h-83z" />
    <glyph glyph-name="section" unicode="&#xa7;" horiz-adv-x="461" 
d="M231 -18q-111 0 -177 75q-8 11 0 24l28 41q9 12 24 0q65 -49 119 -49q34 0 54 14t20 40q0 25 -16 40t-49 28l-61 24q-110 44 -110 134q0 74 64 112q-58 41 -58 105t48 102t116 38q96 0 158 -71q8 -10 -1 -21l-32 -37q-10 -11 -23 0q-49 42 -97 42q-30 0 -48 -13.5
t-18 -37.5t15.5 -37t46.5 -26l64 -26q53 -21 83 -52t30 -86q0 -74 -58 -113q52 -39 52 -105q0 -70 -49.5 -107.5t-124.5 -37.5zM232 290q33 0 53.5 14.5t20.5 39.5q0 29 -22 45.5t-52 16.5t-48 -13.5t-18 -37.5q0 -23 16 -37t50 -28z" />
    <glyph glyph-name="dieresis" unicode="&#xa8;" horiz-adv-x="347" 
d="M72 591q-23 0 -40 16.5t-17 40.5t17 40.5t40 16.5t40 -16.5t17 -40.5t-17 -40.5t-40 -16.5zM274 591q-23 0 -40 16.5t-17 40.5t17 40.5t40 16.5q24 0 41 -16.5t17 -40.5t-17 -40.5t-41 -16.5z" />
    <glyph glyph-name="copyright" unicode="&#xa9;" horiz-adv-x="683" 
d="M341 136q-118 0 -201 83.5t-83 202.5t83 202.5t201 83.5q119 0 202 -83.5t83 -202.5t-83 -202.5t-202 -83.5zM341 203q91 0 153.5 63.5t62.5 155.5t-62.5 155.5t-153.5 63.5t-153 -63.5t-62 -155.5t62 -155.5t153 -63.5zM347 271q-64 0 -106.5 43.5t-42.5 107.5
q0 65 42.5 108t106.5 43q71 0 110 -49q6 -7 0 -13l-26 -25q-6 -8 -14 0q-30 28 -66 28q-40 0 -65 -26t-25 -66t25 -65.5t65 -25.5q35 0 66 27q7 8 14 1l26 -25q7 -6 0 -13q-40 -50 -110 -50z" />
    <glyph glyph-name="ordfeminine" unicode="&#xaa;" horiz-adv-x="449" 
d="M211 341q-73 0 -121 52t-48 130t48 130t121 52q71 0 120 -49l6 44h70v-359h-70l-6 49q-49 -49 -120 -49zM224 418q45 0 75.5 30t30.5 75t-30.5 75t-75.5 30t-74.5 -29.5t-29.5 -75.5t29.5 -75.5t74.5 -29.5z" />
    <glyph glyph-name="guillemotleft" unicode="&#xab;" horiz-adv-x="410" 
d="M176 135l-121 90q-8 7 -8 17v68q0 9 8 16l121 90q5 5 10.5 3t5.5 -10v-57q0 -12 -8 -17l-84 -59l84 -59q8 -7 8 -17v-58q0 -8 -5.5 -9.5t-10.5 2.5zM346 135l-120 90q-8 7 -8 17v68q0 9 8 16l120 90q5 5 11 3t6 -10v-57q0 -12 -8 -17l-84 -59l84 -59q8 -7 8 -17v-58
q0 -8 -6 -9.5t-11 2.5z" />
    <glyph glyph-name="logicalnot" unicode="&#xac;" horiz-adv-x="527" 
d="M375 137q-15 0 -15 15v66h-285q-15 0 -15 15v60q0 15 15 15h377q15 0 15 -15v-141q0 -15 -15 -15h-77z" />
    <glyph glyph-name="uni00AD" unicode="&#xad;" horiz-adv-x="432" 
d="M66 235q-14 0 -14 14v61q0 14 14 14h300q14 0 14 -14v-61q0 -14 -14 -14h-300z" />
    <glyph glyph-name="registered" unicode="&#xae;" horiz-adv-x="683" 
d="M341 136q-118 0 -201 83.5t-83 202.5t83 202.5t201 83.5q119 0 202 -83.5t83 -202.5t-83 -202.5t-202 -83.5zM341 203q91 0 153.5 63.5t62.5 155.5t-62.5 155.5t-153.5 63.5t-153 -63.5t-62 -155.5t62 -155.5t153 -63.5zM240 286q-8 0 -8 9v255q0 9 8 9h124
q51 0 81.5 -23.5t30.5 -69.5q0 -72 -74 -88l74 -81q3 -4 1.5 -7.5t-6.5 -3.5h-51q-6 0 -11 5l-74 83h-43v-79q0 -9 -8 -9h-44zM292 425h74q48 0 48 41q0 42 -48 42h-74v-83z" />
    <glyph glyph-name="macron" unicode="&#xaf;" horiz-adv-x="349" 
d="M30 614q-15 0 -15 15v56q0 15 15 15h289q15 0 15 -15v-56q0 -15 -15 -15h-289z" />
    <glyph glyph-name="degree" unicode="&#xb0;" horiz-adv-x="414" 
d="M207 424q-61 0 -104 42.5t-43 103.5t43 103.5t104 42.5t104 -42.5t43 -103.5t-43 -103.5t-104 -42.5zM207 493q34 0 55 23t21 54t-21 54t-55 23t-55 -23t-21 -54t21 -54t55 -23z" />
    <glyph glyph-name="plusminus" unicode="&#xb1;" horiz-adv-x="460" 
d="M203 131q-15 0 -15 14v109h-108q-15 0 -15 15v54q0 15 15 15h108v108q0 15 15 15h55q14 0 14 -15v-108h108q15 0 15 -15v-54q0 -15 -15 -15h-108v-109q0 -14 -14 -14h-55zM79 0q-14 0 -14 14v41q0 14 14 14h302q14 0 14 -14v-41q0 -14 -14 -14h-302z" />
    <glyph glyph-name="uni00B2" unicode="&#xb2;" horiz-adv-x="334" 
d="M43 329v61l98 92q7 6 19 17t16.5 15.5t13.5 13t12.5 12.5t9 11t7.5 11.5t4.5 11t3.5 12t1 12.5q0 26 -17.5 40.5t-45.5 14.5q-26 0 -43 -16t-17 -45v-20h-65v20q0 54 33 86t92 32q60 0 94.5 -31.5t34.5 -77.5q0 -26 -14 -51t-31 -42.5t-56 -53.5q-7 -7 -11 -10l-57 -54
h167v-61h-249z" />
    <glyph glyph-name="uni00B3" unicode="&#xb3;" horiz-adv-x="356" 
d="M176 325q-69 0 -102.5 34.5t-33.5 91.5h64q0 -32 18.5 -51t54.5 -19q32 0 52.5 15.5t20.5 43.5q0 33 -25 46t-77 13v49q88 0 88 58q0 22 -17.5 35t-46.5 13q-63 0 -63 -66h-63q-1 58 32 90t95 32q60 0 93.5 -27.5t33.5 -71.5q0 -55 -56 -79q72 -24 72 -94
q0 -52 -38.5 -82.5t-101.5 -30.5z" />
    <glyph glyph-name="acute" unicode="&#xb4;" horiz-adv-x="191" 
d="M28 557q-20 0 -11 17l57 114q5 12 16 12h73q19 0 11 -17l-58 -114q-5 -12 -16 -12h-72z" />
    <glyph glyph-name="uni00B5" unicode="&#xb5;" 
d="M81 -190q-14 0 -14 15v650q0 15 14 15h80q14 0 14 -15v-266q0 -58 27.5 -89.5t79.5 -31.5t84.5 32t32.5 89v266q0 15 14 15h79q15 0 15 -15v-460q0 -15 -15 -15h-75q-15 0 -15 16l-3 60q-39 -88 -129 -88q-66 0 -95 41v-204q0 -15 -15 -15h-79z" />
    <glyph glyph-name="paragraph" unicode="&#xb6;" horiz-adv-x="778" 
d="M497 0h-83q-14 0 -14 15v239h-105q-116 0 -177 60.5t-61 162.5t61 162.5t177 60.5h202q15 0 15 -15v-670q0 -15 -15 -15zM603 0q-14 0 -14 15v670q0 15 14 15h83q15 0 15 -15v-670q0 -15 -15 -15h-83zM400 354v246h-99q-136 0 -136 -123t136 -123h99z" />
    <glyph glyph-name="periodcentered" unicode="&#xb7;" horiz-adv-x="237" 
d="M118 220q-28 0 -48 20t-20 48t20 48.5t48 20.5t48.5 -20.5t20.5 -48.5t-20 -48t-49 -20z" />
    <glyph glyph-name="cedilla" unicode="&#xb8;" horiz-adv-x="204" 
d="M24 -214q-9 2 -9 11v37q0 10 11 10q87 -8 87 33q0 20 -25 27.5t-61 -3.5q-12 -3 -12 7v38q0 7 5 12l41 42h78l-38 -36q36 -2 62 -23.5t26 -57.5q0 -59 -49 -83t-116 -14z" />
    <glyph glyph-name="uni00B9" unicode="&#xb9;" horiz-adv-x="205" 
d="M79 323v315h-42v62h105v-377h-63z" />
    <glyph glyph-name="ordmasculine" unicode="&#xba;" horiz-adv-x="450" 
d="M225 341q-78 0 -130.5 52t-52.5 130t52.5 130t130.5 52t130.5 -52t52.5 -130t-52.5 -130t-130.5 -52zM225 418q44 0 74.5 30.5t30.5 74.5t-30.5 74.5t-74.5 30.5q-45 0 -75 -30.5t-30 -74.5t30 -74.5t75 -30.5z" />
    <glyph glyph-name="guillemotright" unicode="&#xbb;" horiz-adv-x="410" 
d="M63 135q-5 -4 -10.5 -2.5t-5.5 9.5v58q0 10 8 17l84 59l-84 59q-8 5 -8 17v57q0 8 5.5 10t10.5 -3l121 -90q8 -7 8 -16v-68q0 -10 -8 -17zM234 135q-5 -4 -10.5 -2.5t-5.5 9.5v58q0 10 8 17l83 59l-83 59q-8 5 -8 17v57q0 8 5.5 10t10.5 -3l121 -90q8 -7 8 -16v-68
q0 -10 -8 -17z" />
    <glyph glyph-name="onequarter" unicode="&#xbc;" horiz-adv-x="801" 
d="M71 323v315h-41v62h105v-377h-64zM115 0l408 700h69l-408 -700h-69zM660 0v82h-198l198 295h63v-234h39v-61h-39v-82h-63zM568 143h92v142z" />
    <glyph glyph-name="onehalf" unicode="&#xbd;" horiz-adv-x="786" 
d="M71 323v315h-41v62h105v-377h-64zM115 0l408 700h69l-408 -700h-69zM495 0v61l98 92q7 6 19 17t16.5 15.5t13.5 13t12.5 12.5t9 11t7.5 11.5t4.5 11t3.5 12t1 12.5q0 26 -17.5 40.5t-45.5 14.5q-26 0 -43 -16t-17 -45v-20h-65v20q0 54 33 86t92 32q60 0 94.5 -31.5
t34.5 -77.5q0 -26 -14 -51t-31 -42.5t-56 -53.5l-3.5 -3.5t-3.5 -3t-4 -3.5l-57 -54h167v-61h-249z" />
    <glyph glyph-name="threequarters" unicode="&#xbe;" horiz-adv-x="882" 
d="M176 325q-69 0 -102.5 34.5t-33.5 91.5h64q0 -32 18.5 -51t54.5 -19q32 0 52.5 15.5t20.5 43.5q0 33 -25 46t-77 13v49q88 0 88 58q0 22 -17.5 35t-46.5 13q-63 0 -63 -66h-63q-1 58 32 90t95 32q60 0 93.5 -27.5t33.5 -71.5q0 -55 -56 -79q72 -24 72 -94
q0 -52 -38.5 -82.5t-101.5 -30.5zM196 0l408 700h69l-408 -700h-69zM741 0v82h-198l198 295h63v-234h39v-61h-39v-82h-63zM649 143h92v142z" />
    <glyph glyph-name="questiondown" unicode="&#xbf;" horiz-adv-x="458" 
d="M224 533q29 0 49 -20t20 -48q0 -29 -20.5 -49t-48.5 -20t-48 20.5t-20 48.5t20 48t48 20zM258 320q14 0 14 -15v-38q1 -44 -13 -77.5t-34.5 -54.5t-40.5 -39.5t-34.5 -41.5t-14.5 -52q0 -41 25.5 -63t65.5 -22q74 0 109 82q7 13 23 3l44 -27q18 -11 13 -26
q-20 -59 -72 -98t-128 -39q-79 0 -133.5 44t-54.5 125q0 41 15 74t36 55.5t43 44t38 50t18 63.5l2 37q0 15 14 15h65z" />
    <glyph glyph-name="Agrave" unicode="&#xc0;" horiz-adv-x="690" 
d="M290 779l-58 114q-9 17 11 17h73q11 0 16 -12l57 -114q8 -17 -11 -17h-72q-11 0 -16 12zM647 17q7 -17 -12 -17h-87q-13 0 -17 12l-41 122h-290l-42 -122q-4 -12 -17 -12h-86q-19 0 -12 17l238 671q5 12 18 12h91q14 0 19 -12zM234 234h222l-111 327z" />
    <glyph glyph-name="Aacute" unicode="&#xc1;" horiz-adv-x="690" 
d="M313 767q-20 0 -11 17l57 114q5 12 16 12h73q19 0 11 -17l-58 -114q-5 -12 -16 -12h-72zM647 17q7 -17 -12 -17h-87q-13 0 -17 12l-41 122h-290l-42 -122q-4 -12 -17 -12h-86q-19 0 -12 17l238 671q5 12 18 12h91q14 0 19 -12zM234 234h222l-111 327z" />
    <glyph glyph-name="Acircumflex" unicode="&#xc2;" horiz-adv-x="690" 
d="M211 779q-8 0 -10 5.5t3 10.5l89 107q7 8 16 8h71q10 0 17 -8l88 -107q5 -5 3 -10.5t-10 -5.5h-57q-10 0 -17 8l-59 72l-59 -72q-7 -8 -17 -8h-58zM647 17q7 -17 -12 -17h-87q-13 0 -17 12l-41 122h-290l-42 -122q-4 -12 -17 -12h-86q-19 0 -12 17l238 671q5 12 18 12h91
q14 0 19 -12zM234 234h222l-111 327z" />
    <glyph glyph-name="Atilde" unicode="&#xc3;" horiz-adv-x="690" 
d="M187 829q-10 0 -10 13q4 43 30 65.5t66 22.5t84.5 -34t68.5 -34q32 0 44 29q3 9 11 9h24q10 0 10 -10q-4 -45 -30 -68t-65 -23q-41 0 -85.5 34t-68.5 34q-33 0 -45 -29q-3 -9 -11 -9h-23zM647 17q7 -17 -12 -17h-87q-13 0 -17 12l-41 122h-290l-42 -122q-4 -12 -17 -12
h-86q-19 0 -12 17l238 671q5 12 18 12h91q14 0 19 -12zM234 234h222l-111 327z" />
    <glyph glyph-name="Adieresis" unicode="&#xc4;" horiz-adv-x="690" 
d="M244 801q-23 0 -40 16.5t-17 40.5t17 40.5t40 16.5t40 -16.5t17 -40.5t-17 -40.5t-40 -16.5zM446 801q-23 0 -40 16.5t-17 40.5t17 40.5t40 16.5q24 0 41 -16.5t17 -40.5t-17 -40.5t-41 -16.5zM647 17q7 -17 -12 -17h-87q-13 0 -17 12l-41 122h-290l-42 -122
q-4 -12 -17 -12h-86q-19 0 -12 17l238 671q5 12 18 12h91q14 0 19 -12zM234 234h222l-111 327z" />
    <glyph glyph-name="Aring" unicode="&#xc5;" horiz-adv-x="690" 
d="M345 759q-41 0 -67 26t-26 64q0 39 26 65.5t67 26.5q40 0 66 -26.5t26 -65.5q0 -38 -26 -64t-66 -26zM345 876q-11 0 -18.5 -7.5t-7.5 -18.5t7.5 -18.5t18.5 -7.5q10 0 17.5 7.5t7.5 18.5t-7.5 18.5t-17.5 7.5zM647 17q7 -17 -12 -17h-87q-13 0 -17 12l-41 122h-290
l-42 -122q-4 -12 -17 -12h-86q-19 0 -12 17l238 671q5 12 18 12h91q14 0 19 -12zM234 234h222l-111 327z" />
    <glyph glyph-name="AE" unicode="&#xc6;" horiz-adv-x="867" 
d="M785 600h-249v-192h236q14 0 14 -15v-71q0 -14 -14 -14h-236v-208h249q15 0 15 -15v-70q0 -15 -15 -15h-346q-15 0 -15 15v141h-200l-65 -144q-5 -12 -17 -12h-87q-19 0 -12 17l315 671q4 12 17 12h410q15 0 15 -15v-70q0 -15 -15 -15zM266 253h158v353z" />
    <glyph glyph-name="Ccedilla" unicode="&#xc7;" horiz-adv-x="714" 
d="M656 84q-92 -89 -218 -96l-25 -24q36 -2 62 -23.5t26 -57.5q0 -59 -49 -83t-116 -14q-9 2 -9 11v37q0 10 11 10q87 -8 87 33q0 20 -25 27.5t-61 -3.5q-12 -3 -12 7v38q0 7 5 12l32 32q-134 18 -220.5 118t-86.5 239q0 153 103 257t255 104q140 0 241 -96q11 -11 1 -22
l-51 -55q-9 -10 -21 -1q-74 64 -169 64q-105 0 -175.5 -71.5t-70.5 -179.5t70.5 -179t175.5 -71q95 0 169 64q11 10 21 0l51 -56q11 -9 -1 -21z" />
    <glyph glyph-name="Egrave" unicode="&#xc8;" horiz-adv-x="520" 
d="M306 767h-72q-11 0 -16 12l-58 114q-9 17 11 17h73q11 0 16 -12l57 -114q8 -17 -11 -17zM91 0q-14 0 -14 15v670q0 15 14 15h347q14 0 14 -15v-70q0 -15 -14 -15h-249v-192h235q15 0 15 -15v-71q0 -14 -15 -14h-235v-208h249q15 0 15 -15v-70q0 -15 -15 -15h-347z" />
    <glyph glyph-name="Eacute" unicode="&#xc9;" horiz-adv-x="520" 
d="M241 767q-20 0 -11 17l57 114q5 12 16 12h73q19 0 11 -17l-58 -114q-5 -12 -16 -12h-72zM91 0q-14 0 -14 15v670q0 15 14 15h347q14 0 14 -15v-70q0 -15 -14 -15h-249v-192h235q15 0 15 -15v-71q0 -14 -15 -14h-235v-208h249q15 0 15 -15v-70q0 -15 -15 -15h-347z" />
    <glyph glyph-name="Ecircumflex" unicode="&#xca;" horiz-adv-x="520" 
d="M139 779q-8 0 -10 5.5t3 10.5l89 107q7 8 16 8h71q10 0 17 -8l88 -107q5 -5 3 -10.5t-10 -5.5h-57q-10 0 -17 8l-59 72l-59 -72q-7 -8 -17 -8h-58zM91 0q-14 0 -14 15v670q0 15 14 15h347q14 0 14 -15v-70q0 -15 -14 -15h-249v-192h235q15 0 15 -15v-71q0 -14 -15 -14
h-235v-208h249q15 0 15 -15v-70q0 -15 -15 -15h-347z" />
    <glyph glyph-name="Edieresis" unicode="&#xcb;" horiz-adv-x="520" 
d="M172 801q-23 0 -40 16.5t-17 40.5t17 40.5t40 16.5t40 -16.5t17 -40.5t-17 -40.5t-40 -16.5zM374 801q-23 0 -40 16.5t-17 40.5t17 40.5t40 16.5q24 0 41 -16.5t17 -40.5t-17 -40.5t-41 -16.5zM91 0q-14 0 -14 15v670q0 15 14 15h347q14 0 14 -15v-70q0 -15 -14 -15h-249
v-192h235q15 0 15 -15v-71q0 -14 -15 -14h-235v-208h249q15 0 15 -15v-70q0 -15 -15 -15h-347z" />
    <glyph glyph-name="Igrave" unicode="&#xcc;" horiz-adv-x="266" 
d="M166 767h-72q-11 0 -16 12l-58 114q-9 17 11 17h73q11 0 16 -12l57 -114q8 -17 -11 -17zM91 0q-14 0 -14 15v670q0 15 14 15h83q15 0 15 -15v-670q0 -15 -15 -15h-83z" />
    <glyph glyph-name="Iacute" unicode="&#xcd;" horiz-adv-x="266" 
d="M101 767q-20 0 -11 17l57 114q5 12 16 12h73q19 0 11 -17l-58 -114q-5 -12 -16 -12h-72zM91 0q-14 0 -14 15v670q0 15 14 15h83q15 0 15 -15v-670q0 -15 -15 -15h-83z" />
    <glyph glyph-name="Icircumflex" unicode="&#xce;" horiz-adv-x="266" 
d="M-1 779q-8 0 -10 5.5t3 10.5l89 107q7 8 16 8h71q10 0 17 -8l88 -107q5 -5 3 -10.5t-10 -5.5h-57q-10 0 -17 8l-59 72l-59 -72q-7 -8 -17 -8h-58zM91 0q-14 0 -14 15v670q0 15 14 15h83q15 0 15 -15v-670q0 -15 -15 -15h-83z" />
    <glyph glyph-name="Idieresis" unicode="&#xcf;" horiz-adv-x="266" 
d="M32 801q-23 0 -40 16.5t-17 40.5t17 40.5t40 16.5t40 -16.5t17 -40.5t-17 -40.5t-40 -16.5zM234 801q-23 0 -40 16.5t-17 40.5t17 40.5t40 16.5q24 0 41 -16.5t17 -40.5t-17 -40.5t-41 -16.5zM91 0q-14 0 -14 15v670q0 15 14 15h83q15 0 15 -15v-670q0 -15 -15 -15h-83z
" />
    <glyph glyph-name="Eth" unicode="&#xd0;" horiz-adv-x="689" 
d="M281 700q172 0 264 -97.5t92 -252.5t-92 -252.5t-264 -97.5h-182q-14 0 -14 15v289h-45q-15 0 -15 15v56q0 15 15 15h45v295q0 15 14 15h182zM279 100q122 0 183.5 64.5t61.5 185.5t-61.5 185.5t-183.5 64.5h-82v-210h132q15 0 15 -15v-56q0 -15 -15 -15h-132v-204h82z
" />
    <glyph glyph-name="Ntilde" unicode="&#xd1;" horiz-adv-x="684" 
d="M184 829q-10 0 -10 13q4 43 30 65.5t66 22.5t84.5 -34t68.5 -34q32 0 44 29q3 9 11 9h24q10 0 10 -10q-4 -45 -30 -68t-65 -23q-41 0 -85.5 34t-68.5 34q-33 0 -45 -29q-3 -9 -11 -9h-23zM593 700q15 0 15 -15v-670q0 -15 -15 -15h-102q-12 0 -18 10l-284 517v-512
q0 -15 -15 -15h-83q-14 0 -14 15v670q0 15 14 15h102q12 0 18 -10l284 -517v512q0 15 15 15h83z" />
    <glyph glyph-name="Ograve" unicode="&#xd2;" horiz-adv-x="832" 
d="M449 767h-72q-11 0 -16 12l-58 114q-9 17 11 17h73q11 0 16 -12l57 -114q8 -17 -11 -17zM416 -13q-150 0 -254.5 104.5t-104.5 255.5q0 152 104.5 256.5t254.5 104.5t254.5 -104.5t104.5 -256.5q0 -151 -104.5 -255.5t-254.5 -104.5zM416 97q105 0 175 71.5t70 178.5
q0 108 -70 179.5t-175 71.5t-175.5 -71.5t-70.5 -179.5q0 -107 70.5 -178.5t175.5 -71.5z" />
    <glyph glyph-name="Oacute" unicode="&#xd3;" horiz-adv-x="832" 
d="M384 767q-20 0 -11 17l57 114q5 12 16 12h73q19 0 11 -17l-58 -114q-5 -12 -16 -12h-72zM416 -13q-150 0 -254.5 104.5t-104.5 255.5q0 152 104.5 256.5t254.5 104.5t254.5 -104.5t104.5 -256.5q0 -151 -104.5 -255.5t-254.5 -104.5zM416 97q105 0 175 71.5t70 178.5
q0 108 -70 179.5t-175 71.5t-175.5 -71.5t-70.5 -179.5q0 -107 70.5 -178.5t175.5 -71.5z" />
    <glyph glyph-name="Ocircumflex" unicode="&#xd4;" horiz-adv-x="832" 
d="M282 779q-8 0 -10 5.5t3 10.5l89 107q7 8 16 8h71q10 0 17 -8l88 -107q5 -5 3 -10.5t-10 -5.5h-57q-10 0 -17 8l-59 72l-59 -72q-7 -8 -17 -8h-58zM416 -13q-150 0 -254.5 104.5t-104.5 255.5q0 152 104.5 256.5t254.5 104.5t254.5 -104.5t104.5 -256.5
q0 -151 -104.5 -255.5t-254.5 -104.5zM416 97q105 0 175 71.5t70 178.5q0 108 -70 179.5t-175 71.5t-175.5 -71.5t-70.5 -179.5q0 -107 70.5 -178.5t175.5 -71.5z" />
    <glyph glyph-name="Otilde" unicode="&#xd5;" horiz-adv-x="832" 
d="M491 799q-41 0 -85.5 34t-68.5 34q-33 0 -45 -29q-3 -9 -11 -9h-23q-10 0 -10 13q4 43 30 65.5t66 22.5t84.5 -34t68.5 -34q32 0 44 29q3 9 11 9h24q10 0 10 -10q-4 -45 -30 -68t-65 -23zM416 -13q-150 0 -254.5 104.5t-104.5 255.5q0 152 104.5 256.5t254.5 104.5
t254.5 -104.5t104.5 -256.5q0 -151 -104.5 -255.5t-254.5 -104.5zM416 97q105 0 175 71.5t70 178.5q0 108 -70 179.5t-175 71.5t-175.5 -71.5t-70.5 -179.5q0 -107 70.5 -178.5t175.5 -71.5z" />
    <glyph glyph-name="Odieresis" unicode="&#xd6;" horiz-adv-x="832" 
d="M315 801q-23 0 -40 16.5t-17 40.5t17 40.5t40 16.5t40 -16.5t17 -40.5t-17 -40.5t-40 -16.5zM517 801q-23 0 -40 16.5t-17 40.5t17 40.5t40 16.5q24 0 41 -16.5t17 -40.5t-17 -40.5t-41 -16.5zM416 -13q-150 0 -254.5 104.5t-104.5 255.5q0 152 104.5 256.5t254.5 104.5
t254.5 -104.5t104.5 -256.5q0 -151 -104.5 -255.5t-254.5 -104.5zM416 97q105 0 175 71.5t70 178.5q0 108 -70 179.5t-175 71.5t-175.5 -71.5t-70.5 -179.5q0 -107 70.5 -178.5t175.5 -71.5z" />
    <glyph glyph-name="multiply" unicode="&#xd7;" horiz-adv-x="411" 
d="M70 187q-12 10 0 20l77 77l-77 77q-10 11 0 21l39 38q10 12 20 0l77 -76l77 76q10 12 20 0l39 -39q10 -10 0 -20l-77 -77l77 -76q9 -10 0 -21l-39 -38q-10 -12 -20 0l-77 76l-77 -77q-10 -10 -20 0z" />
    <glyph glyph-name="Oslash" unicode="&#xd8;" horiz-adv-x="832" 
d="M598 659q81 -47 129 -129.5t48 -182.5q0 -151 -104.5 -255.5t-254.5 -104.5q-60 0 -117 19l-21 -45q-5 -11 -16 -11h-49q-18 0 -10 18l31 68q-81 47 -129 129t-48 182q0 152 104.5 256.5t254.5 104.5q60 0 117 -19l21 45q5 11 16 11h49q18 0 10 -18zM170 347
q0 -67 29.5 -122t80.5 -89l207 452q-31 10 -71 10q-105 0 -175.5 -71.5t-70.5 -179.5zM416 97q105 0 175 71.5t70 178.5q0 67 -29 123t-80 89l-207 -452q31 -10 71 -10z" />
    <glyph glyph-name="Ugrave" unicode="&#xd9;" horiz-adv-x="644" 
d="M355 767h-72q-11 0 -16 12l-58 114q-9 17 11 17h73q11 0 16 -12l57 -114q8 -17 -11 -17zM322 -13q-113 0 -181.5 68.5t-68.5 194.5v435q0 15 14 15h83q15 0 15 -15v-430q0 -78 36.5 -118t101.5 -40t101.5 40t36.5 118v430q0 15 15 15h83q15 0 15 -15v-435
q0 -126 -68.5 -194.5t-182.5 -68.5z" />
    <glyph glyph-name="Uacute" unicode="&#xda;" horiz-adv-x="644" 
d="M290 767q-20 0 -11 17l57 114q5 12 16 12h73q19 0 11 -17l-58 -114q-5 -12 -16 -12h-72zM322 -13q-113 0 -181.5 68.5t-68.5 194.5v435q0 15 14 15h83q15 0 15 -15v-430q0 -78 36.5 -118t101.5 -40t101.5 40t36.5 118v430q0 15 15 15h83q15 0 15 -15v-435
q0 -126 -68.5 -194.5t-182.5 -68.5z" />
    <glyph glyph-name="Ucircumflex" unicode="&#xdb;" horiz-adv-x="644" 
d="M188 779q-8 0 -10 5.5t3 10.5l89 107q7 8 16 8h71q10 0 17 -8l88 -107q5 -5 3 -10.5t-10 -5.5h-57q-10 0 -17 8l-59 72l-59 -72q-7 -8 -17 -8h-58zM322 -13q-113 0 -181.5 68.5t-68.5 194.5v435q0 15 14 15h83q15 0 15 -15v-430q0 -78 36.5 -118t101.5 -40t101.5 40
t36.5 118v430q0 15 15 15h83q15 0 15 -15v-435q0 -126 -68.5 -194.5t-182.5 -68.5z" />
    <glyph glyph-name="Udieresis" unicode="&#xdc;" horiz-adv-x="644" 
d="M221 801q-23 0 -40 16.5t-17 40.5t17 40.5t40 16.5t40 -16.5t17 -40.5t-17 -40.5t-40 -16.5zM423 801q-23 0 -40 16.5t-17 40.5t17 40.5t40 16.5q24 0 41 -16.5t17 -40.5t-17 -40.5t-41 -16.5zM322 -13q-113 0 -181.5 68.5t-68.5 194.5v435q0 15 14 15h83q15 0 15 -15
v-430q0 -78 36.5 -118t101.5 -40t101.5 40t36.5 118v430q0 15 15 15h83q15 0 15 -15v-435q0 -126 -68.5 -194.5t-182.5 -68.5z" />
    <glyph glyph-name="Yacute" unicode="&#xdd;" horiz-adv-x="613" 
d="M275 767q-20 0 -11 17l57 114q5 12 16 12h73q19 0 11 -17l-58 -114q-5 -12 -16 -12h-72zM265 0q-14 0 -14 15v315l-206 352q-10 18 9 18h88q12 0 18 -10l147 -257l147 257q6 10 17 10h88q20 0 10 -18l-206 -353v-314q0 -15 -15 -15h-83z" />
    <glyph glyph-name="Thorn" unicode="&#xde;" horiz-adv-x="581" 
d="M290 574q118 0 181 -60.5t63 -163.5t-63 -163.5t-181 -60.5h-101v-111q0 -15 -15 -15h-83q-14 0 -14 15v670q0 15 14 15h83q15 0 15 -15v-111h101zM281 227q145 0 145 123t-145 123h-92v-246h92z" />
    <glyph glyph-name="germandbls" unicode="&#xdf;" horiz-adv-x="599" 
d="M91 0q-14 0 -14 15v497q0 94 59.5 145t163.5 51q99 0 159.5 -48t60.5 -133q0 -63 -31.5 -102.5t-83.5 -49.5q71 -10 112 -55.5t41 -127.5q0 -95 -59.5 -143.5t-188.5 -48.5h-57q-15 0 -15 15v57q0 14 15 14h53q78 0 113 26.5t35 89.5q0 64 -35 91t-114 27h-52
q-15 0 -15 14v57q0 15 15 15h39q123 0 123 102q0 101 -116 101q-114 0 -114 -102v-492q0 -15 -14 -15h-80z" />
    <glyph glyph-name="agrave" unicode="&#xe0;" horiz-adv-x="621" 
d="M340 557h-72q-11 0 -16 12l-58 114q-9 17 11 17h73q11 0 16 -12l57 -114q8 -17 -11 -17zM278 -12q-104 0 -170 73t-66 184q0 110 66 183.5t170 73.5q118 0 173 -93l2 66q0 15 14 15h73q14 0 14 -15v-460q0 -15 -14 -15h-73q-14 0 -14 15l-2 65q-56 -92 -173 -92zM299 87
q66 0 107 43.5t41 113.5q0 71 -41 115t-107 44t-109 -44t-43 -114q0 -71 42.5 -114.5t109.5 -43.5z" />
    <glyph glyph-name="aacute" unicode="&#xe1;" horiz-adv-x="621" 
d="M275 557q-20 0 -11 17l57 114q5 12 16 12h73q19 0 11 -17l-58 -114q-5 -12 -16 -12h-72zM278 -12q-104 0 -170 73t-66 184q0 110 66 183.5t170 73.5q118 0 173 -93l2 66q0 15 14 15h73q14 0 14 -15v-460q0 -15 -14 -15h-73q-14 0 -14 15l-2 65q-56 -92 -173 -92zM299 87
q66 0 107 43.5t41 113.5q0 71 -41 115t-107 44t-109 -44t-43 -114q0 -71 42.5 -114.5t109.5 -43.5z" />
    <glyph glyph-name="acircumflex" unicode="&#xe2;" horiz-adv-x="621" 
d="M174 569q-8 0 -10 5.5t3 10.5l89 107q7 8 16 8h71q10 0 17 -8l88 -107q5 -5 3 -10.5t-10 -5.5h-57q-10 0 -17 8l-59 72l-59 -72q-7 -8 -17 -8h-58zM278 -12q-104 0 -170 73t-66 184q0 110 66 183.5t170 73.5q118 0 173 -93l2 66q0 15 14 15h73q14 0 14 -15v-460
q0 -15 -14 -15h-73q-14 0 -14 15l-2 65q-56 -92 -173 -92zM299 87q66 0 107 43.5t41 113.5q0 71 -41 115t-107 44t-109 -44t-43 -114q0 -71 42.5 -114.5t109.5 -43.5z" />
    <glyph glyph-name="atilde" unicode="&#xe3;" horiz-adv-x="621" 
d="M382 589q-41 0 -85.5 34t-68.5 34q-33 0 -45 -29q-3 -9 -11 -9h-23q-10 0 -10 13q4 43 30 65.5t66 22.5t84.5 -34t68.5 -34q32 0 44 29q3 9 11 9h24q10 0 10 -10q-4 -45 -30 -68t-65 -23zM278 -12q-104 0 -170 73t-66 184q0 110 66 183.5t170 73.5q118 0 173 -93l2 66
q0 15 14 15h73q14 0 14 -15v-460q0 -15 -14 -15h-73q-14 0 -14 15l-2 65q-56 -92 -173 -92zM299 87q66 0 107 43.5t41 113.5q0 71 -41 115t-107 44t-109 -44t-43 -114q0 -71 42.5 -114.5t109.5 -43.5z" />
    <glyph glyph-name="adieresis" unicode="&#xe4;" horiz-adv-x="621" 
d="M206 591q-23 0 -40 16.5t-17 40.5t17 40.5t40 16.5t40 -16.5t17 -40.5t-17 -40.5t-40 -16.5zM408 591q-23 0 -40 16.5t-17 40.5t17 40.5t40 16.5q24 0 41 -16.5t17 -40.5t-17 -40.5t-41 -16.5zM278 -12q-104 0 -170 73t-66 184q0 110 66 183.5t170 73.5q118 0 173 -93
l2 66q0 15 14 15h73q14 0 14 -15v-460q0 -15 -14 -15h-73q-14 0 -14 15l-2 65q-56 -92 -173 -92zM299 87q66 0 107 43.5t41 113.5q0 71 -41 115t-107 44t-109 -44t-43 -114q0 -71 42.5 -114.5t109.5 -43.5z" />
    <glyph glyph-name="aring" unicode="&#xe5;" horiz-adv-x="621" 
d="M308 549q-41 0 -67 26t-26 64q0 39 26 65.5t67 26.5q40 0 66 -26.5t26 -65.5q0 -38 -26 -64t-66 -26zM308 614q10 0 17.5 7.5t7.5 18.5t-7.5 18.5t-17.5 7.5q-11 0 -18.5 -7.5t-7.5 -18.5t7.5 -18.5t18.5 -7.5zM278 -12q-104 0 -170 73t-66 184q0 110 66 183.5t170 73.5
q118 0 173 -93l2 66q0 15 14 15h73q14 0 14 -15v-460q0 -15 -14 -15h-73q-14 0 -14 15l-2 65q-56 -92 -173 -92zM299 87q66 0 107 43.5t41 113.5q0 71 -41 115t-107 44t-109 -44t-43 -114q0 -71 42.5 -114.5t109.5 -43.5z" />
    <glyph glyph-name="ae" unicode="&#xe6;" horiz-adv-x="973" 
d="M931 269q0 -34 -9.5 -49t-36.5 -15h-330q10 -60 53 -95t114 -35q70 0 127 38q9 6 16 -3l28 -38q7 -10 -5 -22q-63 -62 -174 -62q-78 0 -137.5 33t-92.5 91q-30 -58 -83 -91t-122 -33q-105 0 -171 73t-66 184q0 110 66 183.5t170 73.5q105 0 169 -72l1 45q0 15 14 15h56
q14 0 14 -15v-33q68 60 166 60q107 0 170 -68.5t63 -164.5zM554 283h281q-5 60 -41.5 94t-94.5 34q-59 0 -98 -34t-47 -94zM299 87q66 0 107 43.5t41 113.5q0 71 -41 115t-107 44t-109 -44t-43 -114q0 -71 42.5 -114.5t109.5 -43.5z" />
    <glyph glyph-name="ccedilla" unicode="&#xe7;" horiz-adv-x="531" 
d="M485 94q9 -9 0 -21q-63 -78 -170 -85l-26 -24q36 -2 62 -23.5t26 -57.5q0 -59 -49 -83t-116 -14q-9 2 -9 11v37q0 10 11 10q87 -8 87 33q0 20 -25 27.5t-61 -3.5q-12 -3 -12 7v38q0 7 5 12l35 36q-89 18 -145 87.5t-56 164.5q0 110 73 183t182 73q118 0 187 -85
q9 -12 0 -21l-45 -43q-12 -12 -24 1q-48 48 -113 48q-69 0 -112.5 -44t-43.5 -112t44 -113t114 -45q65 0 111 48q13 13 25 1z" />
    <glyph glyph-name="egrave" unicode="&#xe8;" horiz-adv-x="565" 
d="M318 557h-72q-11 0 -16 12l-58 114q-9 17 11 17h73q11 0 16 -12l57 -114q8 -17 -11 -17zM306 -12q-118 0 -191 74t-73 185q0 110 69.5 182.5t179.5 72.5q106 0 169 -68.5t63 -164.5q0 -34 -9.5 -49t-36.5 -15h-330q10 -60 53.5 -95t114.5 -35q69 0 126 38q10 6 16 -3
l28 -38q8 -10 -4 -22q-63 -62 -175 -62zM146 283h281q-4 60 -41 94t-95 34t-97.5 -34t-47.5 -94z" />
    <glyph glyph-name="eacute" unicode="&#xe9;" horiz-adv-x="565" 
d="M253 557q-20 0 -11 17l57 114q5 12 16 12h73q19 0 11 -17l-58 -114q-5 -12 -16 -12h-72zM306 -12q-118 0 -191 74t-73 185q0 110 69.5 182.5t179.5 72.5q106 0 169 -68.5t63 -164.5q0 -34 -9.5 -49t-36.5 -15h-330q10 -60 53.5 -95t114.5 -35q69 0 126 38q10 6 16 -3
l28 -38q8 -10 -4 -22q-63 -62 -175 -62zM146 283h281q-4 60 -41 94t-95 34t-97.5 -34t-47.5 -94z" />
    <glyph glyph-name="ecircumflex" unicode="&#xea;" horiz-adv-x="565" 
d="M152 569q-8 0 -10 5.5t3 10.5l89 107q7 8 16 8h71q10 0 17 -8l88 -107q5 -5 3 -10.5t-10 -5.5h-57q-10 0 -17 8l-59 72l-59 -72q-7 -8 -17 -8h-58zM306 -12q-118 0 -191 74t-73 185q0 110 69.5 182.5t179.5 72.5q106 0 169 -68.5t63 -164.5q0 -34 -9.5 -49t-36.5 -15
h-330q10 -60 53.5 -95t114.5 -35q69 0 126 38q10 6 16 -3l28 -38q8 -10 -4 -22q-63 -62 -175 -62zM146 283h281q-4 60 -41 94t-95 34t-97.5 -34t-47.5 -94z" />
    <glyph glyph-name="edieresis" unicode="&#xeb;" horiz-adv-x="565" 
d="M184 591q-23 0 -40 16.5t-17 40.5t17 40.5t40 16.5t40 -16.5t17 -40.5t-17 -40.5t-40 -16.5zM386 591q-23 0 -40 16.5t-17 40.5t17 40.5t40 16.5q24 0 41 -16.5t17 -40.5t-17 -40.5t-41 -16.5zM306 -12q-118 0 -191 74t-73 185q0 110 69.5 182.5t179.5 72.5
q106 0 169 -68.5t63 -164.5q0 -34 -9.5 -49t-36.5 -15h-330q10 -60 53.5 -95t114.5 -35q69 0 126 38q10 6 16 -3l28 -38q8 -10 -4 -22q-63 -62 -175 -62zM146 283h281q-4 60 -41 94t-95 34t-97.5 -34t-47.5 -94z" />
    <glyph glyph-name="igrave" unicode="&#xec;" horiz-adv-x="223" 
d="M145 557h-72q-11 0 -16 12l-58 114q-9 17 11 17h73q11 0 16 -12l57 -114q8 -17 -11 -17zM71 0q-14 0 -14 15v460q0 15 14 15h81q14 0 14 -15v-460q0 -15 -14 -15h-81z" />
    <glyph glyph-name="iacute" unicode="&#xed;" horiz-adv-x="223" 
d="M80 557q-20 0 -11 17l57 114q5 12 16 12h73q19 0 11 -17l-58 -114q-5 -12 -16 -12h-72zM71 0q-14 0 -14 15v460q0 15 14 15h81q14 0 14 -15v-460q0 -15 -14 -15h-81z" />
    <glyph glyph-name="icircumflex" unicode="&#xee;" horiz-adv-x="223" 
d="M-21 569q-8 0 -10 5.5t3 10.5l89 107q7 8 16 8h71q10 0 17 -8l88 -107q5 -5 3 -10.5t-10 -5.5h-57q-10 0 -17 8l-59 72l-59 -72q-7 -8 -17 -8h-58zM71 0q-14 0 -14 15v460q0 15 14 15h81q14 0 14 -15v-460q0 -15 -14 -15h-81z" />
    <glyph glyph-name="idieresis" unicode="&#xef;" horiz-adv-x="223" 
d="M11 591q-23 0 -40 16.5t-17 40.5t17 40.5t40 16.5t40 -16.5t17 -40.5t-17 -40.5t-40 -16.5zM213 591q-23 0 -40 16.5t-17 40.5t17 40.5t40 16.5q24 0 41 -16.5t17 -40.5t-17 -40.5t-41 -16.5zM71 0q-14 0 -14 15v460q0 15 14 15h81q14 0 14 -15v-460q0 -15 -14 -15h-81z
" />
    <glyph glyph-name="eth" unicode="&#xf0;" horiz-adv-x="593" 
d="M577 641q16 2 16 -14v-42q0 -14 -14 -16l-25 -3v-551q0 -15 -14 -15h-73q-14 0 -14 15l-2 65q-56 -92 -173 -92q-104 0 -170 73t-66 184q0 110 66 183.5t170 73.5q112 0 168 -85v135l-75 -10q-16 -2 -16 14v42q0 14 14 16l77 10v76q0 15 14 15h80q14 0 14 -15v-62z
M299 87q66 0 107 43.5t41 113.5q0 71 -41 115t-107 44t-109 -44t-43 -114q0 -71 42.5 -114.5t109.5 -43.5z" />
    <glyph glyph-name="ntilde" unicode="&#xf1;" 
d="M367 589q-41 0 -85.5 34t-68.5 34q-33 0 -45 -29q-3 -9 -11 -9h-23q-10 0 -10 13q4 43 30 65.5t66 22.5t84.5 -34t68.5 -34q32 0 44 29q3 9 11 9h24q10 0 10 -10q-4 -45 -30 -68t-65 -23zM81 0q-14 0 -14 15v460q0 15 14 15h76q14 0 14 -16l4 -60q49 88 154 88
q80 0 129 -53t49 -148v-286q0 -15 -15 -15h-79q-14 0 -14 15v266q0 58 -27.5 89.5t-79.5 31.5q-53 0 -85 -32t-32 -89v-266q0 -15 -14 -15h-80z" />
    <glyph glyph-name="ograve" unicode="&#xf2;" horiz-adv-x="591" 
d="M329 557h-72q-11 0 -16 12l-58 114q-9 17 11 17h73q11 0 16 -12l57 -114q8 -17 -11 -17zM296 -12q-109 0 -181.5 74t-72.5 183t72.5 183t181.5 74q108 0 180.5 -74t72.5 -183t-72.5 -183t-180.5 -74zM296 88q64 0 106.5 43.5t42.5 113.5t-42.5 113.5t-106.5 43.5
q-65 0 -107.5 -43.5t-42.5 -113.5t42.5 -113.5t107.5 -43.5z" />
    <glyph glyph-name="oacute" unicode="&#xf3;" horiz-adv-x="591" 
d="M264 557q-20 0 -11 17l57 114q5 12 16 12h73q19 0 11 -17l-58 -114q-5 -12 -16 -12h-72zM296 -12q-109 0 -181.5 74t-72.5 183t72.5 183t181.5 74q108 0 180.5 -74t72.5 -183t-72.5 -183t-180.5 -74zM296 88q64 0 106.5 43.5t42.5 113.5t-42.5 113.5t-106.5 43.5
q-65 0 -107.5 -43.5t-42.5 -113.5t42.5 -113.5t107.5 -43.5z" />
    <glyph glyph-name="ocircumflex" unicode="&#xf4;" horiz-adv-x="591" 
d="M162 569q-8 0 -10 5.5t3 10.5l89 107q7 8 16 8h71q10 0 17 -8l88 -107q5 -5 3 -10.5t-10 -5.5h-57q-10 0 -17 8l-59 72l-59 -72q-7 -8 -17 -8h-58zM296 -12q-109 0 -181.5 74t-72.5 183t72.5 183t181.5 74q108 0 180.5 -74t72.5 -183t-72.5 -183t-180.5 -74zM296 88
q64 0 106.5 43.5t42.5 113.5t-42.5 113.5t-106.5 43.5q-65 0 -107.5 -43.5t-42.5 -113.5t42.5 -113.5t107.5 -43.5z" />
    <glyph glyph-name="otilde" unicode="&#xf5;" horiz-adv-x="591" 
d="M370 589q-41 0 -85.5 34t-68.5 34q-33 0 -45 -29q-3 -9 -11 -9h-23q-10 0 -10 13q4 43 30 65.5t66 22.5t84.5 -34t68.5 -34q32 0 44 29q3 9 11 9h24q10 0 10 -10q-4 -45 -30 -68t-65 -23zM296 -12q-109 0 -181.5 74t-72.5 183t72.5 183t181.5 74q108 0 180.5 -74
t72.5 -183t-72.5 -183t-180.5 -74zM296 88q64 0 106.5 43.5t42.5 113.5t-42.5 113.5t-106.5 43.5q-65 0 -107.5 -43.5t-42.5 -113.5t42.5 -113.5t107.5 -43.5z" />
    <glyph glyph-name="odieresis" unicode="&#xf6;" horiz-adv-x="591" 
d="M194 591q-23 0 -40 16.5t-17 40.5t17 40.5t40 16.5t40 -16.5t17 -40.5t-17 -40.5t-40 -16.5zM396 591q-23 0 -40 16.5t-17 40.5t17 40.5t40 16.5q24 0 41 -16.5t17 -40.5t-17 -40.5t-41 -16.5zM296 -12q-109 0 -181.5 74t-72.5 183t72.5 183t181.5 74q108 0 180.5 -74
t72.5 -183t-72.5 -183t-180.5 -74zM296 88q64 0 106.5 43.5t42.5 113.5t-42.5 113.5t-106.5 43.5q-65 0 -107.5 -43.5t-42.5 -113.5t42.5 -113.5t107.5 -43.5z" />
    <glyph glyph-name="divide" unicode="&#xf7;" horiz-adv-x="480" 
d="M241 387q-25 0 -42 17t-17 42t17 42.5t42 17.5t42.5 -17.5t17.5 -42.5t-17.5 -42t-42.5 -17zM80 243q-15 0 -15 15v53q0 15 15 15h320q15 0 15 -15v-53q0 -15 -15 -15h-320zM241 74q-25 0 -42 17t-17 42t17 42.5t42 17.5t42.5 -17.5t17.5 -42.5t-17.5 -42t-42.5 -17z" />
    <glyph glyph-name="oslash" unicode="&#xf8;" horiz-adv-x="591" 
d="M427 467q56 -33 89 -92t33 -130q0 -109 -72.5 -183t-180.5 -74q-43 0 -79 12l-27 -59q-5 -11 -16 -11h-33q-18 0 -10 18l34 75q-57 33 -90 92t-33 130q0 109 72.5 183t181.5 74q43 0 79 -12l26 57q5 11 16 11h34q17 0 9 -18zM146 245q0 -84 61 -129l127 282q-24 4 -38 4
q-65 0 -107.5 -43.5t-42.5 -113.5zM296 88q64 0 106.5 43.5t42.5 113.5q0 84 -60 129l-127 -282q24 -4 38 -4z" />
    <glyph glyph-name="ugrave" unicode="&#xf9;" 
d="M321 557h-72q-11 0 -16 12l-58 114q-9 17 11 17h73q11 0 16 -12l57 -114q8 -17 -11 -17zM244 -12q-80 0 -128.5 53t-48.5 148v286q0 15 14 15h80q14 0 14 -15v-266q0 -58 27.5 -89.5t79.5 -31.5t84.5 32t32.5 89v266q0 15 14 15h79q15 0 15 -15v-460q0 -15 -15 -15h-75
q-15 0 -15 16l-3 60q-49 -88 -155 -88z" />
    <glyph glyph-name="uacute" unicode="&#xfa;" 
d="M257 557q-20 0 -11 17l57 114q5 12 16 12h73q19 0 11 -17l-58 -114q-5 -12 -16 -12h-72zM244 -12q-80 0 -128.5 53t-48.5 148v286q0 15 14 15h80q14 0 14 -15v-266q0 -58 27.5 -89.5t79.5 -31.5t84.5 32t32.5 89v266q0 15 14 15h79q15 0 15 -15v-460q0 -15 -15 -15h-75
q-15 0 -15 16l-3 60q-49 -88 -155 -88z" />
    <glyph glyph-name="ucircumflex" unicode="&#xfb;" 
d="M155 569q-8 0 -10 5.5t3 10.5l89 107q7 8 16 8h71q10 0 17 -8l88 -107q5 -5 3 -10.5t-10 -5.5h-57q-10 0 -17 8l-59 72l-59 -72q-7 -8 -17 -8h-58zM244 -12q-80 0 -128.5 53t-48.5 148v286q0 15 14 15h80q14 0 14 -15v-266q0 -58 27.5 -89.5t79.5 -31.5t84.5 32t32.5 89
v266q0 15 14 15h79q15 0 15 -15v-460q0 -15 -15 -15h-75q-15 0 -15 16l-3 60q-49 -88 -155 -88z" />
    <glyph glyph-name="udieresis" unicode="&#xfc;" 
d="M187 591q-23 0 -40 16.5t-17 40.5t17 40.5t40 16.5t40 -16.5t17 -40.5t-17 -40.5t-40 -16.5zM389 591q-23 0 -40 16.5t-17 40.5t17 40.5t40 16.5q24 0 41 -16.5t17 -40.5t-17 -40.5t-41 -16.5zM244 -12q-80 0 -128.5 53t-48.5 148v286q0 15 14 15h80q14 0 14 -15v-266
q0 -58 27.5 -89.5t79.5 -31.5t84.5 32t32.5 89v266q0 15 14 15h79q15 0 15 -15v-460q0 -15 -15 -15h-75q-15 0 -15 16l-3 60q-49 -88 -155 -88z" />
    <glyph glyph-name="yacute" unicode="&#xfd;" horiz-adv-x="560" 
d="M248 557q-20 0 -11 17l57 114q5 12 16 12h73q19 0 11 -17l-58 -114q-5 -12 -16 -12h-72zM168 -190q-19 0 -11 16l70 173l-189 474q-6 17 12 17h81q13 0 17 -12l132 -354l133 354q5 12 17 12h81q17 0 11 -17l-258 -651q-4 -12 -18 -12h-78z" />
    <glyph glyph-name="thorn" unicode="&#xfe;" horiz-adv-x="621" 
d="M81 -190q-14 0 -14 15v875q0 15 14 15h80q14 0 14 -15v-283q56 84 167 85q104 0 170.5 -73.5t66.5 -183.5q0 -111 -66 -184t-170 -73q-111 0 -168 85v-248q0 -15 -14 -15h-80zM322 87q67 0 109.5 43.5t42.5 114.5q0 70 -43 114t-109 44t-107 -44t-41 -115
q0 -70 41 -113.5t107 -43.5z" />
    <glyph glyph-name="ydieresis" unicode="&#xff;" horiz-adv-x="560" 
d="M179 591q-23 0 -40 16.5t-17 40.5t17 40.5t40 16.5t40 -16.5t17 -40.5t-17 -40.5t-40 -16.5zM381 591q-23 0 -40 16.5t-17 40.5t17 40.5t40 16.5q24 0 41 -16.5t17 -40.5t-17 -40.5t-41 -16.5zM168 -190q-19 0 -11 16l70 173l-189 474q-6 17 12 17h81q13 0 17 -12
l132 -354l133 354q5 12 17 12h81q17 0 11 -17l-258 -651q-4 -12 -18 -12h-78z" />
    <glyph glyph-name="Amacron" unicode="&#x100;" horiz-adv-x="690" 
d="M201 824q-15 0 -15 15v56q0 15 15 15h289q15 0 15 -15v-56q0 -15 -15 -15h-289zM647 17q7 -17 -12 -17h-87q-13 0 -17 12l-41 122h-290l-42 -122q-4 -12 -17 -12h-86q-19 0 -12 17l238 671q5 12 18 12h91q14 0 19 -12zM234 234h222l-111 327z" />
    <glyph glyph-name="amacron" unicode="&#x101;" horiz-adv-x="621" 
d="M163 614q-15 0 -15 15v56q0 15 15 15h289q15 0 15 -15v-56q0 -15 -15 -15h-289zM278 -12q-104 0 -170 73t-66 184q0 110 66 183.5t170 73.5q118 0 173 -93l2 66q0 15 14 15h73q14 0 14 -15v-460q0 -15 -14 -15h-73q-14 0 -14 15l-2 65q-56 -92 -173 -92zM299 87
q66 0 107 43.5t41 113.5q0 71 -41 115t-107 44t-109 -44t-43 -114q0 -71 42.5 -114.5t109.5 -43.5z" />
    <glyph glyph-name="Abreve" unicode="&#x102;" horiz-adv-x="690" 
d="M344 772q-63 0 -102.5 35t-44.5 88q-1 15 14 15h39q13 0 16 -14q6 -25 26.5 -42t51.5 -17q32 0 52.5 17t26.5 42q3 14 16 14h39q16 0 14 -15q-5 -53 -44.5 -88t-103.5 -35zM647 17q7 -17 -12 -17h-87q-13 0 -17 12l-41 122h-290l-42 -122q-4 -12 -17 -12h-86
q-19 0 -12 17l238 671q5 12 18 12h91q14 0 19 -12zM234 234h222l-111 327z" />
    <glyph glyph-name="abreve" unicode="&#x103;" horiz-adv-x="621" 
d="M307 562q-63 0 -102.5 35t-44.5 88q-2 15 14 15h39q13 0 16 -14q6 -25 26.5 -42t51.5 -17q32 0 52.5 17t26.5 42q3 14 16 14h39q15 0 14 -15q-5 -53 -44.5 -88t-103.5 -35zM278 -12q-104 0 -170 73t-66 184q0 110 66 183.5t170 73.5q118 0 173 -93l2 66q0 15 14 15h73
q14 0 14 -15v-460q0 -15 -14 -15h-73q-14 0 -14 15l-2 65q-56 -92 -173 -92zM299 87q66 0 107 43.5t41 113.5q0 71 -41 115t-107 44t-109 -44t-43 -114q0 -71 42.5 -114.5t109.5 -43.5z" />
    <glyph glyph-name="Aogonek" unicode="&#x104;" horiz-adv-x="690" 
d="M647 17q7 -17 -12 -17h-4q-43 -1 -70.5 -25.5t-27.5 -58.5q0 -27 20 -40t57 -5v-69q-21 -9 -49 -9t-54.5 9t-44.5 33t-18 59q0 79 85 123l-39 117h-290l-42 -122q-4 -12 -17 -12h-86q-19 0 -12 17l238 671q5 12 18 12h91q14 0 19 -12zM234 234h222l-111 327z" />
    <glyph glyph-name="aogonek" unicode="&#x105;" horiz-adv-x="621" 
d="M540 490q14 0 14 -15v-460q0 -15 -14 -15h-1q-42 -1 -69 -25.5t-27 -58.5q0 -27 19.5 -40t56.5 -5v-69q-21 -9 -48.5 -9t-54 9t-44.5 33t-18 59q0 85 99 130l-2 56q-56 -92 -173 -92q-104 0 -170 73t-66 184q0 110 66 183.5t170 73.5q118 0 173 -93l2 66q0 15 14 15h73z
M299 87q66 0 107 43.5t41 113.5q0 71 -41 115t-107 44t-109 -44t-43 -114q0 -71 42.5 -114.5t109.5 -43.5z" />
    <glyph glyph-name="Cacute" unicode="&#x106;" horiz-adv-x="714" 
d="M377 767q-20 0 -11 17l57 114q5 12 16 12h73q19 0 11 -17l-58 -114q-5 -12 -16 -12h-72zM415 -13q-152 0 -255 103.5t-103 256.5t103 257t255 104q140 0 241 -96q11 -11 1 -22l-51 -55q-9 -10 -21 -1q-74 64 -169 64q-105 0 -175.5 -71.5t-70.5 -179.5t70.5 -179
t175.5 -71q95 0 169 64q11 10 21 0l51 -56q11 -9 -1 -21q-100 -97 -241 -97z" />
    <glyph glyph-name="cacute" unicode="&#x107;" horiz-adv-x="531" 
d="M253 557q-20 0 -11 17l57 114q5 12 16 12h73q19 0 11 -17l-58 -114q-5 -12 -16 -12h-72zM299 -12q-110 0 -183.5 74t-73.5 184t73 183t182 73q118 0 187 -85q9 -12 0 -21l-45 -43q-12 -12 -24 1q-48 48 -113 48q-69 0 -112.5 -44t-43.5 -112t44 -113t114 -45q65 0 111 48
q13 13 25 1l45 -43q9 -9 0 -21q-69 -85 -186 -85z" />
    <glyph glyph-name="Cdotaccent" unicode="&#x10a;" horiz-adv-x="714" 
d="M408 805q-26 0 -44 18.5t-18 44.5t18 44t44 18q27 0 44.5 -18t17.5 -44q0 -27 -17.5 -45t-44.5 -18zM415 -13q-152 0 -255 103.5t-103 256.5t103 257t255 104q140 0 241 -96q11 -11 1 -22l-51 -55q-9 -10 -21 -1q-74 64 -169 64q-105 0 -175.5 -71.5t-70.5 -179.5
t70.5 -179t175.5 -71q95 0 169 64q11 10 21 0l51 -56q11 -9 -1 -21q-100 -97 -241 -97z" />
    <glyph glyph-name="cdotaccent" unicode="&#x10b;" horiz-adv-x="531" 
d="M285 595q-26 0 -44 18.5t-18 44.5t18 44t44 18q27 0 44.5 -18t17.5 -44q0 -27 -17.5 -45t-44.5 -18zM299 -12q-110 0 -183.5 74t-73.5 184t73 183t182 73q118 0 187 -85q9 -12 0 -21l-45 -43q-12 -12 -24 1q-48 48 -113 48q-69 0 -112.5 -44t-43.5 -112t44 -113t114 -45
q65 0 111 48q13 13 25 1l45 -43q9 -9 0 -21q-69 -85 -186 -85z" />
    <glyph glyph-name="Ccaron" unicode="&#x10c;" horiz-adv-x="714" 
d="M275 911h58q10 0 17 -8l59 -73l59 73q7 8 17 8h57q8 0 10 -6t-3 -11l-88 -106q-7 -8 -17 -8h-71q-9 0 -16 8l-89 106q-5 5 -3 11t10 6zM415 -13q-152 0 -255 103.5t-103 256.5t103 257t255 104q140 0 241 -96q11 -11 1 -22l-51 -55q-9 -10 -21 -1q-74 64 -169 64
q-105 0 -175.5 -71.5t-70.5 -179.5t70.5 -179t175.5 -71q95 0 169 64q11 10 21 0l51 -56q11 -9 -1 -21q-100 -97 -241 -97z" />
    <glyph glyph-name="ccaron" unicode="&#x10d;" horiz-adv-x="531" 
d="M151 701h58q10 0 17 -8l59 -73l59 73q7 8 17 8h57q8 0 10 -6t-3 -11l-88 -106q-7 -8 -17 -8h-71q-9 0 -16 8l-89 106q-5 5 -3 11t10 6zM299 -12q-110 0 -183.5 74t-73.5 184t73 183t182 73q118 0 187 -85q9 -12 0 -21l-45 -43q-12 -12 -24 1q-48 48 -113 48
q-69 0 -112.5 -44t-43.5 -112t44 -113t114 -45q65 0 111 48q13 13 25 1l45 -43q9 -9 0 -21q-69 -85 -186 -85z" />
    <glyph glyph-name="Dcaron" unicode="&#x10e;" horiz-adv-x="681" 
d="M202 911h58q10 0 17 -8l59 -73l59 73q7 8 17 8h57q8 0 10 -6t-3 -11l-88 -106q-7 -8 -17 -8h-71q-9 0 -16 8l-89 106q-5 5 -3 11t10 6zM91 0q-14 0 -14 15v670q0 15 14 15h182q172 0 264 -97.5t92 -252.5t-92 -252.5t-264 -97.5h-182zM189 100h82q122 0 183.5 64.5
t61.5 185.5t-61.5 185.5t-183.5 64.5h-82v-500z" />
    <glyph glyph-name="dcaron" unicode="&#x10f;" horiz-adv-x="673" 
d="M278 -12q-104 0 -170 73t-66 184q0 110 66 183.5t170 73.5q112 0 168 -85v283q0 15 14 15h80q14 0 14 -15v-685q0 -15 -14 -15h-73q-14 0 -14 15l-2 65q-56 -92 -173 -92zM607 544q-19 0 -11 17l57 114q7 12 17 12h73q19 0 10 -17l-57 -114q-7 -12 -17 -12h-72zM299 87
q66 0 107 43.5t41 113.5q0 71 -41 115t-107 44t-109 -44t-43 -114q0 -71 42.5 -114.5t109.5 -43.5z" />
    <glyph glyph-name="Dcroat" unicode="&#x110;" horiz-adv-x="689" 
d="M281 700q172 0 264 -97.5t92 -252.5t-92 -252.5t-264 -97.5h-182q-14 0 -14 15v289h-45q-15 0 -15 15v56q0 15 15 15h45v295q0 15 14 15h182zM279 100q122 0 183.5 64.5t61.5 185.5t-61.5 185.5t-183.5 64.5h-82v-210h132q15 0 15 -15v-56q0 -15 -15 -15h-132v-204h82z
" />
    <glyph glyph-name="dcroat" unicode="&#x111;" horiz-adv-x="621" 
d="M592 642q14 0 14 -15v-57q0 -14 -14 -14h-38v-541q0 -15 -14 -15h-73q-14 0 -14 15l-2 65q-56 -92 -173 -92q-104 0 -170 73t-66 184q0 110 66 183.5t170 73.5q112 0 168 -85v139h-144q-14 0 -14 14v57q0 15 14 15h144v58q0 15 14 15h80q14 0 14 -15v-58h38zM299 87
q66 0 107 43.5t41 113.5q0 71 -41 115t-107 44t-109 -44t-43 -114q0 -71 42.5 -114.5t109.5 -43.5z" />
    <glyph glyph-name="Emacron" unicode="&#x112;" horiz-adv-x="520" 
d="M129 824q-15 0 -15 15v56q0 15 15 15h289q15 0 15 -15v-56q0 -15 -15 -15h-289zM91 0q-14 0 -14 15v670q0 15 14 15h347q14 0 14 -15v-70q0 -15 -14 -15h-249v-192h235q15 0 15 -15v-71q0 -14 -15 -14h-235v-208h249q15 0 15 -15v-70q0 -15 -15 -15h-347z" />
    <glyph glyph-name="emacron" unicode="&#x113;" horiz-adv-x="565" 
d="M141 614q-15 0 -15 15v56q0 15 15 15h289q15 0 15 -15v-56q0 -15 -15 -15h-289zM306 -12q-118 0 -191 74t-73 185q0 110 69.5 182.5t179.5 72.5q106 0 169 -68.5t63 -164.5q0 -34 -9.5 -49t-36.5 -15h-330q10 -60 53.5 -95t114.5 -35q69 0 126 38q10 6 16 -3l28 -38
q8 -10 -4 -22q-63 -62 -175 -62zM146 283h281q-4 60 -41 94t-95 34t-97.5 -34t-47.5 -94z" />
    <glyph glyph-name="Edotaccent" unicode="&#x116;" horiz-adv-x="520" 
d="M273 805q-26 0 -44 18.5t-18 44.5t18 44t44 18q27 0 44.5 -18t17.5 -44q0 -27 -17.5 -45t-44.5 -18zM91 0q-14 0 -14 15v670q0 15 14 15h347q14 0 14 -15v-70q0 -15 -14 -15h-249v-192h235q15 0 15 -15v-71q0 -14 -15 -14h-235v-208h249q15 0 15 -15v-70q0 -15 -15 -15
h-347z" />
    <glyph glyph-name="edotaccent" unicode="&#x117;" horiz-adv-x="565" 
d="M285 595q-26 0 -44 18.5t-18 44.5t18 44t44 18q27 0 44.5 -18t17.5 -44q0 -27 -17.5 -45t-44.5 -18zM306 -12q-118 0 -191 74t-73 185q0 110 69.5 182.5t179.5 72.5q106 0 169 -68.5t63 -164.5q0 -34 -9.5 -49t-36.5 -15h-330q10 -60 53.5 -95t114.5 -35q69 0 126 38
q10 6 16 -3l28 -38q8 -10 -4 -22q-63 -62 -175 -62zM146 283h281q-4 60 -41 94t-95 34t-97.5 -34t-47.5 -94z" />
    <glyph glyph-name="Eogonek" unicode="&#x118;" horiz-adv-x="520" 
d="M438 100q15 0 15 -15v-70q0 -15 -14 -15q-43 -1 -70.5 -25.5t-27.5 -58.5q0 -27 20 -40t57 -5v-69q-21 -9 -49 -9t-54.5 9t-44.5 33t-18 59q0 62 58 106h-219q-14 0 -14 15v670q0 15 14 15h347q14 0 14 -15v-70q0 -15 -14 -15h-249v-192h235q15 0 15 -15v-71
q0 -14 -15 -14h-235v-208h249z" />
    <glyph glyph-name="eogonek" unicode="&#x119;" horiz-adv-x="565" 
d="M523 269q0 -34 -9.5 -49t-36.5 -15h-330q10 -60 53.5 -95t114.5 -35q69 0 126 38q10 6 16 -3l28 -38q8 -10 -4 -22q-37 -36 -91 -51q-85 -29 -85 -83q0 -28 19.5 -40.5t56.5 -4.5v-69q-21 -9 -48.5 -9t-54 9t-44.5 33t-18 59q0 56 50 96q-102 13 -163 84.5t-61 172.5
q0 110 69.5 182.5t179.5 72.5q106 0 169 -68.5t63 -164.5zM146 283h281q-4 60 -41 94t-95 34t-97.5 -34t-47.5 -94z" />
    <glyph glyph-name="Ecaron" unicode="&#x11a;" horiz-adv-x="520" 
d="M139 911h58q10 0 17 -8l59 -73l59 73q7 8 17 8h57q8 0 10 -6t-3 -11l-88 -106q-7 -8 -17 -8h-71q-9 0 -16 8l-89 106q-5 5 -3 11t10 6zM91 0q-14 0 -14 15v670q0 15 14 15h347q14 0 14 -15v-70q0 -15 -14 -15h-249v-192h235q15 0 15 -15v-71q0 -14 -15 -14h-235v-208h249
q15 0 15 -15v-70q0 -15 -15 -15h-347z" />
    <glyph glyph-name="ecaron" unicode="&#x11b;" horiz-adv-x="565" 
d="M152 701h58q10 0 17 -8l59 -73l59 73q7 8 17 8h57q8 0 10 -6t-3 -11l-88 -106q-7 -8 -17 -8h-71q-9 0 -16 8l-89 106q-5 5 -3 11t10 6zM306 -12q-118 0 -191 74t-73 185q0 110 69.5 182.5t179.5 72.5q106 0 169 -68.5t63 -164.5q0 -34 -9.5 -49t-36.5 -15h-330
q10 -60 53.5 -95t114.5 -35q69 0 126 38q10 6 16 -3l28 -38q8 -10 -4 -22q-63 -62 -175 -62zM146 283h281q-4 60 -41 94t-95 34t-97.5 -34t-47.5 -94z" />
    <glyph glyph-name="Gbreve" unicode="&#x11e;" horiz-adv-x="787" 
d="M413 772q-63 0 -102.5 35t-44.5 88q-2 15 14 15h39q13 0 16 -14q6 -25 26.5 -42t51.5 -17q32 0 52.5 17t26.5 42q3 14 16 14h39q15 0 14 -15q-5 -53 -44.5 -88t-103.5 -35zM418 -13q-154 0 -257.5 103.5t-103.5 256.5t103.5 257t255.5 104q143 0 240 -97q11 -10 1 -22
l-51 -55q-9 -11 -19 -1q-76 65 -171 65q-105 0 -175.5 -71.5t-70.5 -179.5t71 -179t180 -71q94 0 152 52.5t60 132.5h-208q-14 0 -14 14v72q0 14 14 14h300q15 0 15 -15v-49q0 -142 -87.5 -236.5t-234.5 -94.5z" />
    <glyph glyph-name="gbreve" unicode="&#x11f;" horiz-adv-x="614" 
d="M307 562q-63 0 -102.5 35t-44.5 88q-2 15 14 15h39q13 0 16 -14q6 -25 26.5 -42t51.5 -17q32 0 52.5 17t26.5 42q3 14 16 14h39q15 0 14 -15q-5 -53 -44.5 -88t-103.5 -35zM292 -205q-110 0 -182 52q-14 9 -7 25l23 43q8 14 22 6q62 -37 135 -37q68 0 114 34t46 108v66
q-53 -84 -167 -84q-104 0 -169 69t-65 178t65 178t168 69q116 0 169 -86l2 59q0 15 14 15h73q14 0 14 -15v-452q0 -80 -39 -133t-94 -74t-122 -21zM295 106q65 0 105 40t40 108t-40.5 109t-104.5 41t-106 -41t-42 -108q0 -68 42 -108.5t106 -40.5z" />
    <glyph glyph-name="Gdotaccent" unicode="&#x120;" horiz-adv-x="787" 
d="M413 805q-26 0 -44 18.5t-18 44.5t18 44t44 18q27 0 44.5 -18t17.5 -44q0 -27 -17.5 -45t-44.5 -18zM418 -13q-154 0 -257.5 103.5t-103.5 256.5t103.5 257t255.5 104q143 0 240 -97q11 -10 1 -22l-51 -55q-9 -11 -19 -1q-76 65 -171 65q-105 0 -175.5 -71.5
t-70.5 -179.5t71 -179t180 -71q94 0 152 52.5t60 132.5h-208q-14 0 -14 14v72q0 14 14 14h300q15 0 15 -15v-49q0 -142 -87.5 -236.5t-234.5 -94.5z" />
    <glyph glyph-name="gdotaccent" unicode="&#x121;" horiz-adv-x="614" 
d="M307 595q-26 0 -44 18.5t-18 44.5t18 44t44 18q27 0 44.5 -18t17.5 -44q0 -27 -17.5 -45t-44.5 -18zM292 -205q-110 0 -182 52q-14 9 -7 25l23 43q8 14 22 6q62 -37 135 -37q68 0 114 34t46 108v66q-53 -84 -167 -84q-104 0 -169 69t-65 178t65 178t168 69q116 0 169 -86
l2 59q0 15 14 15h73q14 0 14 -15v-452q0 -80 -39 -133t-94 -74t-122 -21zM295 106q65 0 105 40t40 108t-40.5 109t-104.5 41t-106 -41t-42 -108q0 -68 42 -108.5t106 -40.5z" />
    <glyph glyph-name="uni0122" unicode="&#x122;" horiz-adv-x="787" 
d="M418 -13q-154 0 -257.5 103.5t-103.5 256.5t103.5 257t255.5 104q143 0 240 -97q11 -10 1 -22l-51 -55q-9 -11 -19 -1q-76 65 -171 65q-105 0 -175.5 -71.5t-70.5 -179.5t71 -179t180 -71q94 0 152 52.5t60 132.5h-208q-14 0 -14 14v72q0 14 14 14h300q15 0 15 -15v-49
q0 -142 -87.5 -236.5t-234.5 -94.5zM337 -282v30q47 0 73 42q17 29 4 39l-8 3q-29 0 -49.5 20t-20.5 48q0 30 20.5 50t50.5 20q34 0 58 -26.5t24 -73.5q0 -66 -47 -110t-105 -42z" />
    <glyph glyph-name="uni0123" unicode="&#x123;" horiz-adv-x="614" 
d="M378 796v-30q-47 0 -73 -42q-17 -29 -4 -40q3 -2 8 -2q29 0 49.5 -20t20.5 -49t-21 -49t-50 -20q-34 0 -58 26.5t-24 73.5q0 66 47 110t105 42zM292 -205q-110 0 -182 52q-14 9 -7 25l23 43q8 14 22 6q62 -37 135 -37q68 0 114 34t46 108v66q-53 -84 -167 -84
q-104 0 -169 69t-65 178t65 178t168 69q116 0 169 -86l2 59q0 15 14 15h73q14 0 14 -15v-452q0 -80 -39 -133t-94 -74t-122 -21zM295 106q65 0 105 40t40 108t-40.5 109t-104.5 41t-106 -41t-42 -108q0 -68 42 -108.5t106 -40.5z" />
    <glyph glyph-name="Hbar" unicode="&#x126;" horiz-adv-x="668" 
d="M577 700q14 0 14 -15v-670q0 -15 -14 -15h-83q-15 0 -15 15v281h-290v-281q0 -15 -15 -15h-83q-14 0 -14 15v670q0 15 14 15h83q15 0 15 -15v-118h290v118q0 15 15 15h83zM189 395h290v80h-290v-80z" />
    <glyph glyph-name="hbar" unicode="&#x127;" horiz-adv-x="581" 
d="M337 502q80 0 128.5 -53t48.5 -148v-286q0 -15 -14 -15h-80q-14 0 -14 15v266q0 58 -27.5 89.5t-79.5 31.5t-84 -32t-32 -89v-266q0 -15 -15 -15h-79q-14 0 -14 15v534h-45q-15 0 -15 15v56q0 15 15 15h45v65q0 15 14 15h79q15 0 15 -15v-65h136q15 0 15 -15v-56
q0 -15 -15 -15h-136v-135q49 88 154 88z" />
    <glyph glyph-name="Imacron" unicode="&#x12a;" horiz-adv-x="266" 
d="M-11 824q-15 0 -15 15v56q0 15 15 15h289q15 0 15 -15v-56q0 -15 -15 -15h-289zM91 0q-14 0 -14 15v670q0 15 14 15h83q15 0 15 -15v-670q0 -15 -15 -15h-83z" />
    <glyph glyph-name="imacron" unicode="&#x12b;" horiz-adv-x="223" 
d="M-32 614q-15 0 -15 15v56q0 15 15 15h289q15 0 15 -15v-56q0 -15 -15 -15h-289zM71 0q-14 0 -14 15v460q0 15 14 15h81q14 0 14 -15v-460q0 -15 -14 -15h-81z" />
    <glyph glyph-name="Iogonek" unicode="&#x12e;" horiz-adv-x="266" 
d="M174 700q15 0 15 -15v-670q0 -15 -14 -15q-43 -1 -70.5 -25.5t-27.5 -58.5q0 -27 20 -40t57 -5v-69q-21 -9 -49 -9t-54.5 9t-44.5 33t-18 59q0 80 89 125v666q0 15 14 15h83z" />
    <glyph glyph-name="iogonek" unicode="&#x12f;" horiz-adv-x="223" 
d="M112 595q-26 0 -44 18.5t-18 44.5t18 44t44 18q27 0 44.5 -18t17.5 -44q0 -27 -17.5 -45t-44.5 -18zM152 490q14 0 14 -15v-460q0 -15 -14 -15q-43 -1 -70.5 -25.5t-27.5 -58.5q0 -27 20 -40t57 -5v-69q-21 -9 -49 -9t-54.5 9t-44.5 33t-18 59q0 82 92 127v454
q0 15 14 15h81z" />
    <glyph glyph-name="Idotaccent" unicode="&#x130;" horiz-adv-x="266" 
d="M132 805q-26 0 -44 18.5t-18 44.5t18 44t44 18q27 0 44.5 -18t17.5 -44q0 -27 -17.5 -45t-44.5 -18zM91 0q-14 0 -14 15v670q0 15 14 15h83q15 0 15 -15v-670q0 -15 -15 -15h-83z" />
    <glyph glyph-name="dotlessi" unicode="&#x131;" horiz-adv-x="223" 
d="M71 0q-14 0 -14 15v460q0 15 14 15h81q14 0 14 -15v-460q0 -15 -14 -15h-81z" />
    <glyph glyph-name="IJ" unicode="&#x132;" horiz-adv-x="792" 
d="M91 0q-14 0 -14 15v670q0 15 14 15h83q15 0 15 -15v-670q0 -15 -15 -15h-83zM491 -13q-107 0 -171 72q-9 12 0 23l44 58q9 11 19 1q17 -14 27 -21t31.5 -15t46.5 -8q116 0 116 148v440q0 15 14 15h83q15 0 15 -15v-438q0 -127 -61.5 -193.5t-163.5 -66.5z" />
    <glyph glyph-name="ij" unicode="&#x133;" horiz-adv-x="495" 
d="M122 595q-27 0 -45 18.5t-18 44.5t18 44t45 18q26 0 44 -18t18 -44t-18 -44.5t-44 -18.5zM374 595q-27 0 -45 18.5t-18 44.5t18 44t45 18q26 0 44 -18t18 -44t-18 -44.5t-44 -18.5zM81 0q-14 0 -14 15v460q0 15 14 15h81q14 0 14 -15v-460q0 -15 -14 -15h-81zM278 -200
q-38 0 -63 12q-9 4 -9 14v68q0 9 13 7q28 -4 37 -4q36 0 49.5 18t13.5 52v508q0 15 14 15h81q14 0 14 -15v-526q0 -149 -150 -149z" />
    <glyph glyph-name="uni0136" unicode="&#x136;" horiz-adv-x="643" 
d="M91 0q-14 0 -14 15v670q0 15 14 15h83q15 0 15 -15v-341l258 348q7 8 18 8h102q9 0 11.5 -5.5t-3.5 -12.5l-236 -300l264 -364q5 -8 2.5 -13t-11.5 -5h-97q-12 0 -18 9l-208 286l-82 -104v-176q0 -15 -15 -15h-83zM243 -282v30q47 0 73 42q17 29 4 39l-8 3
q-29 0 -49.5 20t-20.5 48q0 30 20.5 50t50.5 20q34 0 57.5 -26.5t23.5 -73.5q0 -66 -46.5 -110t-104.5 -42z" />
    <glyph glyph-name="uni0137" unicode="&#x137;" horiz-adv-x="547" 
d="M81 0q-14 0 -14 15v685q0 15 14 15h80q14 0 14 -15v-436l193 218q7 8 17 8h94q9 0 10.5 -5t-4.5 -12l-173 -191l200 -265q5 -7 2.5 -12t-11.5 -5h-86q-12 0 -18 9l-152 199l-72 -79v-114q0 -15 -14 -15h-80zM208 -282v30q47 0 73 42q17 29 4 39l-8 3q-29 0 -49.5 20
t-20.5 48q0 30 20.5 50t50.5 20q34 0 58 -26.5t24 -73.5q0 -66 -47 -110t-105 -42z" />
    <glyph glyph-name="Lacute" unicode="&#x139;" horiz-adv-x="493" 
d="M110 735q-19 0 -11 17l57 114q7 12 17 12h73q19 0 10 -17l-57 -114q-7 -12 -17 -12h-72zM421 100q15 0 15 -15v-70q0 -15 -15 -15h-330q-14 0 -14 15v670q0 15 14 15h83q15 0 15 -15v-585h232z" />
    <glyph glyph-name="lacute" unicode="&#x13a;" horiz-adv-x="242" 
d="M89 783q-20 0 -11 17l57 114q5 12 16 12h73q19 0 11 -17l-58 -114q-5 -12 -16 -12h-72zM81 0q-14 0 -14 15v685q0 15 14 15h80q14 0 14 -15v-685q0 -15 -14 -15h-80z" />
    <glyph glyph-name="uni013B" unicode="&#x13b;" horiz-adv-x="482" 
d="M421 100q15 0 15 -15v-70q0 -15 -15 -15h-330q-14 0 -14 15v670q0 15 14 15h83q15 0 15 -15v-585h232zM246 -30q34 0 58 -26.5t24 -73.5q0 -66 -47 -110t-105 -42v30q47 0 73 42q17 29 4 39l-8 3q-29 0 -49.5 20t-20.5 48q0 30 20.5 50t50.5 20z" />
    <glyph glyph-name="uni013C" unicode="&#x13c;" horiz-adv-x="242" 
d="M81 0q-14 0 -14 15v685q0 15 14 15h80q14 0 14 -15v-685q0 -15 -14 -15h-80zM48 -282v30q47 0 73 42q17 29 4 39l-8 3q-29 0 -49.5 20t-20.5 48q0 30 20.5 50t50.5 20q34 0 58 -26.5t24 -73.5q0 -66 -47 -110t-105 -42z" />
    <glyph glyph-name="Lcaron" unicode="&#x13d;" horiz-adv-x="490" 
d="M334 572q-29 0 -49.5 20t-20.5 49t21 49t50 20q34 0 58 -26.5t24 -73.5q0 -66 -47 -110t-105 -42v30q47 0 73 42q17 29 4 40q-3 2 -8 2zM421 100q15 0 15 -15v-70q0 -15 -15 -15h-330q-14 0 -14 15v670q0 15 14 15h83q15 0 15 -15v-585h232z" />
    <glyph glyph-name="lcaron" unicode="&#x13e;" horiz-adv-x="372" 
d="M215 498v30q47 0 73 42q17 29 4 40q-3 2 -8 2q-29 0 -49.5 20t-20.5 49t21 49t50 20q34 0 57.5 -26.5t23.5 -73.5q0 -66 -46.5 -110t-104.5 -42zM81 0q-14 0 -14 15v685q0 15 14 15h80q14 0 14 -15v-685q0 -15 -14 -15h-80z" />
    <glyph glyph-name="Ldot" unicode="&#x13f;" horiz-adv-x="506" 
d="M421 100q15 0 15 -15v-70q0 -15 -15 -15h-330q-14 0 -14 15v670q0 15 14 15h83q15 0 15 -15v-585h232zM369 307q-29 0 -48.5 19.5t-19.5 48.5t20 49t48 20q29 0 49 -20t20 -49q0 -28 -20 -48t-49 -20z" />
    <glyph glyph-name="ldot" unicode="&#x140;" horiz-adv-x="285" 
d="M81 0q-14 0 -14 15v685q0 15 14 15h80q14 0 14 -15v-685q0 -15 -14 -15h-80zM287 305q-29 0 -48.5 19.5t-19.5 48.5t20 49t48 20q29 0 49 -20t20 -49q0 -28 -20 -48t-49 -20z" />
    <glyph glyph-name="Lslash" unicode="&#x141;" horiz-adv-x="501" 
d="M439 100q15 0 15 -15v-70q0 -15 -15 -15h-329q-14 0 -14 15v214l-48 -47q-8 -7 -13 -4.5t-5 12.5v71q0 11 8 19l58 56v349q0 15 14 15h83q15 0 15 -15v-240l92 90q8 7 13 4.5t5 -12.5v-70q0 -11 -8 -19l-102 -100v-238h231z" />
    <glyph glyph-name="lslash" unicode="&#x142;" horiz-adv-x="257" 
d="M262 465l-79 -88v-362q0 -15 -14 -15h-81q-14 0 -14 15v242l-79 -88v73l79 88v370q0 15 14 15h81q14 0 14 -15v-250l78 87z" />
    <glyph glyph-name="Nacute" unicode="&#x143;" horiz-adv-x="684" 
d="M310 767q-20 0 -11 17l57 114q5 12 16 12h73q19 0 11 -17l-58 -114q-5 -12 -16 -12h-72zM593 700q15 0 15 -15v-670q0 -15 -15 -15h-102q-12 0 -18 10l-284 517v-512q0 -15 -15 -15h-83q-14 0 -14 15v670q0 15 14 15h102q12 0 18 -10l284 -517v512q0 15 15 15h83z" />
    <glyph glyph-name="nacute" unicode="&#x144;" 
d="M260 557q-20 0 -11 17l57 114q5 12 16 12h73q19 0 11 -17l-58 -114q-5 -12 -16 -12h-72zM81 0q-14 0 -14 15v460q0 15 14 15h76q14 0 14 -16l4 -60q49 88 154 88q80 0 129 -53t49 -148v-286q0 -15 -15 -15h-79q-14 0 -14 15v266q0 58 -27.5 89.5t-79.5 31.5
q-53 0 -85 -32t-32 -89v-266q0 -15 -14 -15h-80z" />
    <glyph glyph-name="uni0145" unicode="&#x145;" horiz-adv-x="684" 
d="M593 700q15 0 15 -15v-670q0 -15 -15 -15h-102q-12 0 -18 10l-284 517v-512q0 -15 -15 -15h-83q-14 0 -14 15v670q0 15 14 15h102q12 0 18 -10l284 -517v512q0 15 15 15h83zM339 -30q34 0 58 -26.5t24 -73.5q0 -66 -47 -110t-105 -42v30q47 0 73 42q17 29 4 39l-8 3
q-29 0 -49.5 20t-20.5 48q0 30 20.5 50t50.5 20z" />
    <glyph glyph-name="uni0146" unicode="&#x146;" 
d="M81 0q-14 0 -14 15v460q0 15 14 15h76q14 0 14 -16l4 -60q49 88 154 88q80 0 129 -53t49 -148v-286q0 -15 -15 -15h-79q-14 0 -14 15v266q0 58 -27.5 89.5t-79.5 31.5q-53 0 -85 -32t-32 -89v-266q0 -15 -14 -15h-80zM219 -282v30q47 0 73 42q17 29 4 39l-8 3
q-29 0 -49.5 20t-20.5 48q0 30 20.5 50t50.5 20q34 0 58 -26.5t24 -73.5q0 -66 -47 -110t-105 -42z" />
    <glyph glyph-name="Ncaron" unicode="&#x147;" horiz-adv-x="684" 
d="M290 788l-89 106q-5 5 -3 11t10 6h58q10 0 17 -8l59 -73l59 73q7 8 17 8h57q8 0 10 -6t-3 -11l-88 -106q-7 -8 -17 -8h-71q-9 0 -16 8zM593 700q15 0 15 -15v-670q0 -15 -15 -15h-102q-12 0 -18 10l-284 517v-512q0 -15 -15 -15h-83q-14 0 -14 15v670q0 15 14 15h102
q12 0 18 -10l284 -517v512q0 15 15 15h83z" />
    <glyph glyph-name="ncaron" unicode="&#x148;" 
d="M158 701h58q10 0 17 -8l59 -73l59 73q7 8 17 8h57q8 0 10 -6t-3 -11l-88 -106q-7 -8 -17 -8h-71q-9 0 -16 8l-89 106q-5 5 -3 11t10 6zM81 0q-14 0 -14 15v460q0 15 14 15h76q14 0 14 -16l4 -60q49 88 154 88q80 0 129 -53t49 -148v-286q0 -15 -15 -15h-79q-14 0 -14 15
v266q0 58 -27.5 89.5t-79.5 31.5q-53 0 -85 -32t-32 -89v-266q0 -15 -14 -15h-80z" />
    <glyph glyph-name="Eng" unicode="&#x14a;" horiz-adv-x="684" 
d="M593 700q15 0 15 -15v-699q0 -110 -62 -172.5t-163 -62.5q-109 0 -171 72q-9 12 -1 23l44 58q9 11 20 1q17 -14 27 -21t31.5 -15t45.5 -8q54 0 85 32t31 89v18h-4q-12 0 -18 10l-284 517v-512q0 -15 -15 -15h-83q-14 0 -14 15v670q0 15 14 15h102q12 0 18 -10l284 -517
v512q0 15 15 15h83z" />
    <glyph glyph-name="eng" unicode="&#x14b;" 
d="M329 502q80 0 129 -53t49 -148v-312q0 -89 -49.5 -138t-134.5 -49q-9 0 -11 8l-24 80q-4 11 8 11q46 0 74.5 29.5t28.5 81.5v269q0 58 -27.5 89.5t-79.5 31.5q-53 0 -85 -32t-32 -89v-266q0 -15 -14 -15h-80q-14 0 -14 15v460q0 15 14 15h76q14 0 14 -16l4 -60
q49 88 154 88z" />
    <glyph glyph-name="Omacron" unicode="&#x14c;" horiz-adv-x="832" 
d="M272 824q-15 0 -15 15v56q0 15 15 15h289q15 0 15 -15v-56q0 -15 -15 -15h-289zM416 -13q-150 0 -254.5 104.5t-104.5 255.5q0 152 104.5 256.5t254.5 104.5t254.5 -104.5t104.5 -256.5q0 -151 -104.5 -255.5t-254.5 -104.5zM416 97q105 0 175 71.5t70 178.5
q0 108 -70 179.5t-175 71.5t-175.5 -71.5t-70.5 -179.5q0 -107 70.5 -178.5t175.5 -71.5z" />
    <glyph glyph-name="omacron" unicode="&#x14d;" horiz-adv-x="591" 
d="M151 614q-15 0 -15 15v56q0 15 15 15h289q15 0 15 -15v-56q0 -15 -15 -15h-289zM296 -12q-109 0 -181.5 74t-72.5 183t72.5 183t181.5 74q108 0 180.5 -74t72.5 -183t-72.5 -183t-180.5 -74zM296 88q64 0 106.5 43.5t42.5 113.5t-42.5 113.5t-106.5 43.5
q-65 0 -107.5 -43.5t-42.5 -113.5t42.5 -113.5t107.5 -43.5z" />
    <glyph glyph-name="Ohungarumlaut" unicode="&#x150;" horiz-adv-x="832" 
d="M308 767q-20 0 -11 17l57 114q5 12 16 12h73q19 0 11 -17l-58 -114q-5 -12 -16 -12h-72zM470 767q-19 0 -10 17l56 114q7 12 17 12h73q19 0 10 -17l-57 -114q-7 -12 -17 -12h-72zM416 -13q-150 0 -254.5 104.5t-104.5 255.5q0 152 104.5 256.5t254.5 104.5t254.5 -104.5
t104.5 -256.5q0 -151 -104.5 -255.5t-254.5 -104.5zM416 97q105 0 175 71.5t70 178.5q0 108 -70 179.5t-175 71.5t-175.5 -71.5t-70.5 -179.5q0 -107 70.5 -178.5t175.5 -71.5z" />
    <glyph glyph-name="ohungarumlaut" unicode="&#x151;" horiz-adv-x="591" 
d="M188 557q-20 0 -11 17l57 114q5 12 16 12h73q19 0 11 -17l-58 -114q-5 -12 -16 -12h-72zM350 557q-19 0 -10 17l56 114q7 12 17 12h73q19 0 10 -17l-57 -114q-7 -12 -17 -12h-72zM296 -12q-109 0 -181.5 74t-72.5 183t72.5 183t181.5 74q108 0 180.5 -74t72.5 -183
t-72.5 -183t-180.5 -74zM296 88q64 0 106.5 43.5t42.5 113.5t-42.5 113.5t-106.5 43.5q-65 0 -107.5 -43.5t-42.5 -113.5t42.5 -113.5t107.5 -43.5z" />
    <glyph glyph-name="OE" unicode="&#x152;" horiz-adv-x="1110" 
d="M1028 600h-248v-192h235q15 0 15 -15v-71q0 -14 -15 -14h-235v-208h249q14 0 14 -15v-70q0 -15 -14 -15h-347q-15 0 -15 15v73q-103 -101 -251 -101q-150 0 -254.5 104.5t-104.5 255.5q0 152 104.5 256.5t254.5 104.5q148 0 251 -101v78q0 15 15 15h346q15 0 15 -15v-70
q0 -15 -15 -15zM416 97q105 0 175 71.5t70 178.5q0 108 -70 179.5t-175 71.5t-175.5 -71.5t-70.5 -179.5q0 -107 70.5 -178.5t175.5 -71.5z" />
    <glyph glyph-name="oe" unicode="&#x153;" horiz-adv-x="970" 
d="M928 269q0 -34 -9.5 -49t-35.5 -15h-331q10 -60 53.5 -95t114.5 -35q69 0 126 38q10 6 16 -3l28 -38q8 -10 -4 -22q-63 -62 -175 -62q-138 0 -213 99q-73 -99 -202 -99q-109 0 -181.5 74t-72.5 183t72.5 183t181.5 74q127 0 200 -97q71 97 200 97q106 0 169 -68.5
t63 -164.5zM551 283h281q-4 60 -41 94t-95 34t-97.5 -34t-47.5 -94zM296 88q64 0 106.5 43.5t42.5 113.5t-42.5 113.5t-106.5 43.5q-65 0 -107.5 -43.5t-42.5 -113.5t42.5 -113.5t107.5 -43.5z" />
    <glyph glyph-name="Racute" unicode="&#x154;" horiz-adv-x="591" 
d="M255 767q-20 0 -11 17l57 114q5 12 16 12h73q19 0 11 -17l-58 -114q-5 -12 -16 -12h-72zM541 18q11 -18 -10 -18h-88q-12 0 -18 10l-157 244h-79v-239q0 -15 -15 -15h-83q-14 0 -14 15v670q0 15 14 15h202q116 0 177.5 -60.5t61.5 -162.5q0 -80 -39 -135.5t-114 -76.5z
M189 600v-246h99q136 0 136 123t-136 123h-99z" />
    <glyph glyph-name="racute" unicode="&#x155;" horiz-adv-x="372" 
d="M166 557q-20 0 -11 17l57 114q5 12 16 12h73q19 0 11 -17l-58 -114q-5 -12 -16 -12h-72zM81 0q-14 0 -14 15v460q0 15 14 15h76q14 0 14 -16l3 -59q32 87 109 87q30 0 45 -11q9 -6 9 -19v-62q0 -16 -19 -11q-20 5 -36 5q-54 0 -80.5 -36t-26.5 -89v-264q0 -15 -14 -15
h-80z" />
    <glyph glyph-name="uni0156" unicode="&#x156;" horiz-adv-x="591" 
d="M541 18q11 -18 -10 -18h-88q-12 0 -18 10l-157 244h-79v-239q0 -15 -15 -15h-83q-14 0 -14 15v670q0 15 14 15h202q116 0 177.5 -60.5t61.5 -162.5q0 -80 -39 -135.5t-114 -76.5zM189 600v-246h99q136 0 136 123t-136 123h-99zM284 -30q34 0 58 -26.5t24 -73.5
q0 -66 -47 -110t-105 -42v30q47 0 73 42q17 29 4 39l-8 3q-29 0 -49.5 20t-20.5 48q0 30 20.5 50t50.5 20z" />
    <glyph glyph-name="uni0157" unicode="&#x157;" horiz-adv-x="372" 
d="M81 0q-14 0 -14 15v460q0 15 14 15h76q14 0 14 -16l3 -59q32 87 109 87q30 0 45 -11q9 -6 9 -19v-62q0 -16 -19 -11q-20 5 -36 5q-54 0 -80.5 -36t-26.5 -89v-264q0 -15 -14 -15h-80zM48 -282v30q47 0 73 42q17 29 4 39l-8 3q-29 0 -49.5 20t-20.5 48q0 30 20.5 50
t50.5 20q34 0 58 -26.5t24 -73.5q0 -66 -47 -110t-105 -42z" />
    <glyph glyph-name="Rcaron" unicode="&#x158;" horiz-adv-x="591" 
d="M235 788l-89 106q-5 5 -3 11t10 6h58q10 0 17 -8l59 -73l59 73q7 8 17 8h57q8 0 10 -6t-3 -11l-88 -106q-7 -8 -17 -8h-71q-9 0 -16 8zM541 18q11 -18 -10 -18h-88q-12 0 -18 10l-157 244h-79v-239q0 -15 -15 -15h-83q-14 0 -14 15v670q0 15 14 15h202q116 0 177.5 -60.5
t61.5 -162.5q0 -80 -39 -135.5t-114 -76.5zM189 600v-246h99q136 0 136 123t-136 123h-99z" />
    <glyph glyph-name="rcaron" unicode="&#x159;" horiz-adv-x="372" 
d="M64 701h58q10 0 17 -8l59 -73l59 73q7 8 17 8h57q8 0 10 -6t-3 -11l-88 -106q-7 -8 -17 -8h-71q-9 0 -16 8l-89 106q-5 5 -3 11t10 6zM81 0q-14 0 -14 15v460q0 15 14 15h76q14 0 14 -16l3 -59q32 87 109 87q30 0 45 -11q9 -6 9 -19v-62q0 -16 -19 -11q-20 5 -36 5
q-54 0 -80.5 -36t-26.5 -89v-264q0 -15 -14 -15h-80z" />
    <glyph glyph-name="Sacute" unicode="&#x15a;" horiz-adv-x="548" 
d="M231 767q-20 0 -11 17l57 114q5 12 16 12h73q19 0 11 -17l-58 -114q-5 -12 -16 -12h-72zM272 -12q-74 0 -129.5 30t-88.5 77q-8 11 2 22l42 48q11 13 23 1q65 -75 150 -75q55 0 86.5 25.5t31.5 70.5q0 41 -24.5 64t-78.5 48l-85 40q-133 63 -133 182q0 86 59 136.5
t147 50.5q117 0 197 -91q11 -11 0 -23l-41 -49q-10 -13 -23 -2q-62 62 -129 62q-45 0 -73 -22t-28 -62q0 -33 20 -54t66 -43l77 -36q75 -36 116.5 -80t41.5 -121q0 -94 -65 -146.5t-161 -52.5z" />
    <glyph glyph-name="sacute" unicode="&#x15b;" horiz-adv-x="446" 
d="M191 557q-20 0 -11 17l57 114q5 12 16 12h73q19 0 11 -17l-58 -114q-5 -12 -16 -12h-72zM223 -12q-107 0 -172 78q-10 11 1 27l26 36q10 14 24 2q60 -52 116 -52q34 0 54.5 15t20.5 43q0 24 -15 39t-48 29l-60 24q-109 44 -109 133q0 64 47 102t115 38q96 0 154 -72
q9 -11 -1 -21l-31 -37q-11 -12 -24 0q-46 43 -93 43q-29 0 -46.5 -14t-17.5 -38t16 -38t48 -27l59 -24q113 -45 113 -140q-1 -69 -52 -107.5t-125 -38.5z" />
    <glyph glyph-name="Scedilla" unicode="&#x15e;" horiz-adv-x="548" 
d="M498 187q0 -85 -53.5 -136.5t-137.5 -60.5l-27 -26q36 -2 62 -23.5t26 -57.5q0 -59 -49 -83t-116 -14q-9 2 -9 11v37q0 10 11 10q87 -8 87 33q0 20 -25 27.5t-61 -3.5q-12 -3 -12 7v38q0 7 5 12l32 33q-113 15 -177 104q-8 11 2 22l42 48q11 13 23 1q65 -75 150 -75
q55 0 86.5 25.5t31.5 70.5q0 41 -24.5 64t-78.5 48l-85 40q-133 63 -133 182q0 86 59 136.5t147 50.5q117 0 197 -91q11 -11 0 -23l-41 -49q-10 -13 -23 -2q-62 62 -129 62q-45 0 -73 -22t-28 -62q0 -33 20 -54t66 -43l77 -36q75 -36 116.5 -80t41.5 -121z" />
    <glyph glyph-name="scedilla" unicode="&#x15f;" horiz-adv-x="446" 
d="M400 134q-1 -61 -41.5 -98.5t-104.5 -45.5l-27 -26q36 -2 62 -23.5t26 -57.5q0 -59 -49 -83t-116 -14q-9 2 -9 11v37q0 10 11 10q87 -8 87 33q0 20 -25 27.5t-61 -3.5q-12 -3 -12 7v38q0 7 5 12l33 34q-79 14 -128 74q-10 11 1 27l26 36q10 14 24 2q60 -52 116 -52
q34 0 54.5 15t20.5 43q0 24 -15 39t-48 29l-60 24q-109 44 -109 133q0 64 47 102t115 38q96 0 154 -72q9 -11 -1 -21l-31 -37q-11 -12 -24 0q-46 43 -93 43q-29 0 -46.5 -14t-17.5 -38t16 -38t48 -27l59 -24q113 -45 113 -140z" />
    <glyph glyph-name="Scaron" unicode="&#x160;" horiz-adv-x="548" 
d="M129 911h58q10 0 17 -8l59 -73l59 73q7 8 17 8h57q8 0 10 -6t-3 -11l-88 -106q-7 -8 -17 -8h-71q-9 0 -16 8l-89 106q-5 5 -3 11t10 6zM272 -12q-74 0 -129.5 30t-88.5 77q-8 11 2 22l42 48q11 13 23 1q65 -75 150 -75q55 0 86.5 25.5t31.5 70.5q0 41 -24.5 64t-78.5 48
l-85 40q-133 63 -133 182q0 86 59 136.5t147 50.5q117 0 197 -91q11 -11 0 -23l-41 -49q-10 -13 -23 -2q-62 62 -129 62q-45 0 -73 -22t-28 -62q0 -33 20 -54t66 -43l77 -36q75 -36 116.5 -80t41.5 -121q0 -94 -65 -146.5t-161 -52.5z" />
    <glyph glyph-name="scaron" unicode="&#x161;" horiz-adv-x="446" 
d="M89 701h58q10 0 17 -8l59 -73l59 73q7 8 17 8h57q8 0 10 -6t-3 -11l-88 -106q-7 -8 -17 -8h-71q-9 0 -16 8l-89 106q-5 5 -3 11t10 6zM223 -12q-107 0 -172 78q-10 11 1 27l26 36q10 14 24 2q60 -52 116 -52q34 0 54.5 15t20.5 43q0 24 -15 39t-48 29l-60 24
q-109 44 -109 133q0 64 47 102t115 38q96 0 154 -72q9 -11 -1 -21l-31 -37q-11 -12 -24 0q-46 43 -93 43q-29 0 -46.5 -14t-17.5 -38t16 -38t48 -27l59 -24q113 -45 113 -140q-1 -69 -52 -107.5t-125 -38.5z" />
    <glyph glyph-name="uni0162" unicode="&#x162;" horiz-adv-x="540" 
d="M468 700q15 0 15 -15v-70q0 -15 -15 -15h-142v-585q0 -15 -15 -15h-2l-35 -33q36 -2 62 -23.5t26 -57.5q0 -59 -49 -83t-116 -14q-9 1 -9 11v37q0 10 11 10q87 -8 87 33q0 20 -25 27.5t-61 -3.5q-12 -3 -12 7v38q0 7 5 12l38 39h-3q-14 0 -14 15v585h-143q-14 0 -14 15
v70q0 15 14 15h397z" />
    <glyph glyph-name="uni0163" unicode="&#x163;" horiz-adv-x="354" 
d="M230 -34q36 -2 62 -23.5t26 -57.5q0 -59 -49 -83t-116 -14q-9 2 -9 11v37q0 10 11 10q87 -8 87 33q0 20 -25 27.5t-61 -3.5q-12 -3 -12 7v38q0 7 5 12l36 37q-71 25 -71 117v290h-63q-14 0 -14 15v56q0 15 14 15h63v115q0 15 14 15h81q14 0 14 -15v-115h79q15 0 15 -15
v-56q0 -15 -15 -15h-79v-278q0 -47 44 -47q9 0 31 2q18 1 18 -14v-53q0 -22 -62 -26z" />
    <glyph glyph-name="Tcaron" unicode="&#x164;" horiz-adv-x="540" 
d="M136 911h58q10 0 17 -8l59 -73l59 73q7 8 17 8h57q8 0 10 -6t-3 -11l-88 -106q-7 -8 -17 -8h-71q-9 0 -16 8l-89 106q-5 5 -3 11t10 6zM228 0q-14 0 -14 15v585h-143q-14 0 -14 15v70q0 15 14 15h397q15 0 15 -15v-70q0 -15 -15 -15h-142v-585q0 -15 -15 -15h-83z" />
    <glyph glyph-name="tcaron" unicode="&#x165;" horiz-adv-x="438" 
d="M282 529q-19 0 -11 17l57 114q7 12 17 12h72q20 0 11 -16l-58 -115q-5 -12 -16 -12h-72zM242 -12q-59 0 -93.5 30.5t-34.5 95.5v290h-63q-14 0 -14 15v56q0 15 14 15h63v115q0 15 14 15h81q14 0 14 -15v-115h79q15 0 15 -15v-56q0 -15 -15 -15h-79v-278q0 -47 44 -47
q9 0 31 2q18 1 18 -14v-53q0 -26 -74 -26z" />
    <glyph glyph-name="Tbar" unicode="&#x166;" horiz-adv-x="540" 
d="M468 700q15 0 15 -15v-70q0 -15 -15 -15h-142v-110h88q15 0 15 -15v-56q0 -15 -15 -15h-88v-389q0 -15 -15 -15h-83q-14 0 -14 15v389h-89q-14 0 -14 15v56q0 15 14 15h89v110h-143q-14 0 -14 15v70q0 15 14 15h397z" />
    <glyph glyph-name="tbar" unicode="&#x167;" horiz-adv-x="354" 
d="M302 404h-79v-61h79q15 0 15 -15v-59q0 -15 -15 -15h-79v-128q0 -47 44 -47q9 0 31 2q18 1 18 -14v-53q0 -26 -74 -26q-59 0 -93.5 30.5t-34.5 95.5v140h-62q-15 0 -15 15v59q0 15 15 15h62v61h-63q-14 0 -14 15v56q0 15 14 15h63v115q0 15 14 15h81q14 0 14 -15v-115h79
q15 0 15 -15v-56q0 -15 -15 -15z" />
    <glyph glyph-name="Utilde" unicode="&#x168;" horiz-adv-x="644" 
d="M397 799q-41 0 -85.5 34t-68.5 34q-33 0 -45 -29q-3 -9 -11 -9h-23q-10 0 -10 13q4 43 30 65.5t66 22.5t84.5 -34t68.5 -34q32 0 44 29q3 9 11 9h24q10 0 10 -10q-4 -45 -30 -68t-65 -23zM322 -13q-113 0 -181.5 68.5t-68.5 194.5v435q0 15 14 15h83q15 0 15 -15v-430
q0 -78 36.5 -118t101.5 -40t101.5 40t36.5 118v430q0 15 15 15h83q15 0 15 -15v-435q0 -126 -68.5 -194.5t-182.5 -68.5z" />
    <glyph glyph-name="utilde" unicode="&#x169;" 
d="M363 589q-41 0 -85.5 34t-68.5 34q-33 0 -45 -29q-3 -9 -11 -9h-23q-10 0 -10 13q4 43 30 65.5t66 22.5t84.5 -34t68.5 -34q32 0 44 29q3 9 11 9h24q10 0 10 -10q-4 -45 -30 -68t-65 -23zM244 -12q-80 0 -128.5 53t-48.5 148v286q0 15 14 15h80q14 0 14 -15v-266
q0 -58 27.5 -89.5t79.5 -31.5t84.5 32t32.5 89v266q0 15 14 15h79q15 0 15 -15v-460q0 -15 -15 -15h-75q-15 0 -15 16l-3 60q-49 -88 -155 -88z" />
    <glyph glyph-name="Umacron" unicode="&#x16a;" horiz-adv-x="644" 
d="M178 824q-15 0 -15 15v56q0 15 15 15h289q15 0 15 -15v-56q0 -15 -15 -15h-289zM322 -13q-113 0 -181.5 68.5t-68.5 194.5v435q0 15 14 15h83q15 0 15 -15v-430q0 -78 36.5 -118t101.5 -40t101.5 40t36.5 118v430q0 15 15 15h83q15 0 15 -15v-435q0 -126 -68.5 -194.5
t-182.5 -68.5z" />
    <glyph glyph-name="umacron" unicode="&#x16b;" 
d="M144 614q-15 0 -15 15v56q0 15 15 15h289q15 0 15 -15v-56q0 -15 -15 -15h-289zM244 -12q-80 0 -128.5 53t-48.5 148v286q0 15 14 15h80q14 0 14 -15v-266q0 -58 27.5 -89.5t79.5 -31.5t84.5 32t32.5 89v266q0 15 14 15h79q15 0 15 -15v-460q0 -15 -15 -15h-75
q-15 0 -15 16l-3 60q-49 -88 -155 -88z" />
    <glyph glyph-name="Ubreve" unicode="&#x16c;" horiz-adv-x="644" 
d="M322 772q-63 0 -102.5 35t-44.5 88q-1 15 14 15h39q13 0 16 -14q6 -25 26.5 -42t51.5 -17q32 0 52.5 17t26.5 42q3 14 16 14h39q16 0 14 -15q-5 -53 -44.5 -88t-103.5 -35zM322 -13q-113 0 -181.5 68.5t-68.5 194.5v435q0 15 14 15h83q15 0 15 -15v-430q0 -78 36.5 -118
t101.5 -40t101.5 40t36.5 118v430q0 15 15 15h83q15 0 15 -15v-435q0 -126 -68.5 -194.5t-182.5 -68.5z" />
    <glyph glyph-name="ubreve" unicode="&#x16d;" 
d="M288 562q-63 0 -102.5 35t-44.5 88q-1 15 14 15h39q13 0 16 -14q6 -25 26.5 -42t51.5 -17q32 0 52.5 17t26.5 42q3 14 16 14h39q16 0 14 -15q-5 -53 -44.5 -88t-103.5 -35zM244 -12q-80 0 -128.5 53t-48.5 148v286q0 15 14 15h80q14 0 14 -15v-266q0 -58 27.5 -89.5
t79.5 -31.5t84.5 32t32.5 89v266q0 15 14 15h79q15 0 15 -15v-460q0 -15 -15 -15h-75q-15 0 -15 16l-3 60q-49 -88 -155 -88z" />
    <glyph glyph-name="Uring" unicode="&#x16e;" horiz-adv-x="644" 
d="M323 759q-41 0 -67 26t-26 64q0 39 26 65.5t67 26.5q40 0 66 -26.5t26 -65.5q0 -38 -26 -64t-66 -26zM323 824q10 0 17.5 7.5t7.5 18.5t-7.5 18.5t-17.5 7.5q-11 0 -18.5 -7.5t-7.5 -18.5t7.5 -18.5t18.5 -7.5zM322 -13q-113 0 -181.5 68.5t-68.5 194.5v435q0 15 14 15
h83q15 0 15 -15v-430q0 -78 36.5 -118t101.5 -40t101.5 40t36.5 118v430q0 15 15 15h83q15 0 15 -15v-435q0 -126 -68.5 -194.5t-182.5 -68.5z" />
    <glyph glyph-name="uring" unicode="&#x16f;" 
d="M289 549q-41 0 -67 26t-26 64q0 39 26 65.5t67 26.5q40 0 66 -26.5t26 -65.5q0 -38 -26 -64t-66 -26zM289 614q10 0 17.5 7.5t7.5 18.5t-7.5 18.5t-17.5 7.5q-11 0 -18.5 -7.5t-7.5 -18.5t7.5 -18.5t18.5 -7.5zM244 -12q-80 0 -128.5 53t-48.5 148v286q0 15 14 15h80
q14 0 14 -15v-266q0 -58 27.5 -89.5t79.5 -31.5t84.5 32t32.5 89v266q0 15 14 15h79q15 0 15 -15v-460q0 -15 -15 -15h-75q-15 0 -15 16l-3 60q-49 -88 -155 -88z" />
    <glyph glyph-name="Uhungarumlaut" unicode="&#x170;" horiz-adv-x="644" 
d="M214 767q-20 0 -11 17l57 114q5 12 16 12h73q19 0 11 -17l-58 -114q-5 -12 -16 -12h-72zM376 767q-19 0 -10 17l56 114q7 12 17 12h73q19 0 10 -17l-57 -114q-7 -12 -17 -12h-72zM322 -13q-113 0 -181.5 68.5t-68.5 194.5v435q0 15 14 15h83q15 0 15 -15v-430
q0 -78 36.5 -118t101.5 -40t101.5 40t36.5 118v430q0 15 15 15h83q15 0 15 -15v-435q0 -126 -68.5 -194.5t-182.5 -68.5z" />
    <glyph glyph-name="uhungarumlaut" unicode="&#x171;" 
d="M181 557q-20 0 -11 17l57 114q5 12 16 12h73q19 0 11 -17l-58 -114q-5 -12 -16 -12h-72zM343 557q-19 0 -10 17l56 114q7 12 17 12h73q19 0 10 -17l-57 -114q-7 -12 -17 -12h-72zM244 -12q-80 0 -128.5 53t-48.5 148v286q0 15 14 15h80q14 0 14 -15v-266
q0 -58 27.5 -89.5t79.5 -31.5t84.5 32t32.5 89v266q0 15 14 15h79q15 0 15 -15v-460q0 -15 -15 -15h-75q-15 0 -15 16l-3 60q-49 -88 -155 -88z" />
    <glyph glyph-name="Uogonek" unicode="&#x172;" horiz-adv-x="644" 
d="M558 700q15 0 15 -15v-435q0 -99 -43.5 -163.5t-119.5 -87.5q-79 -30 -79 -83q0 -28 19.5 -40.5t56.5 -4.5v-69q-21 -9 -48.5 -9t-54 9t-44.5 33t-18 59q0 56 46 95q-99 10 -157.5 77.5t-58.5 183.5v435q0 15 14 15h83q15 0 15 -15v-430q0 -78 36.5 -118t101.5 -40
t101.5 40t36.5 118v430q0 15 15 15h83z" />
    <glyph glyph-name="uogonek" unicode="&#x173;" 
d="M492 490q15 0 15 -15v-460q0 -15 -15 -15q-43 -1 -70.5 -25.5t-27.5 -58.5q0 -27 20 -40t57 -5v-69q-21 -9 -49 -9t-54.5 9t-44.5 33t-18 59q0 85 97 129l-3 53q-49 -88 -155 -88q-80 0 -128.5 53t-48.5 148v286q0 15 14 15h80q14 0 14 -15v-266q0 -58 27.5 -89.5
t79.5 -31.5t84.5 32t32.5 89v266q0 15 14 15h79z" />
    <glyph glyph-name="Wcircumflex" unicode="&#x174;" horiz-adv-x="1081" 
d="M407 779q-8 0 -10 5.5t3 10.5l89 107q7 8 16 8h71q10 0 17 -8l88 -107q5 -5 3 -10.5t-10 -5.5h-57q-10 0 -17 8l-59 72l-59 -72q-7 -8 -17 -8h-58zM264 0q-15 0 -18 12l-203 671q-5 17 12 17h85q14 0 17 -12l156 -537l169 537q4 12 17 12h83q13 0 17 -12l169 -537
l156 537q4 12 17 12h85q17 0 12 -17l-203 -671q-3 -12 -18 -12h-90q-15 0 -18 12l-168 548l-169 -548q-3 -12 -18 -12h-90z" />
    <glyph glyph-name="wcircumflex" unicode="&#x175;" horiz-adv-x="876" 
d="M304 569q-8 0 -10 5.5t3 10.5l89 107q7 8 16 8h71q10 0 17 -8l88 -107q5 -5 3 -10.5t-10 -5.5h-57q-10 0 -17 8l-59 72l-59 -72q-7 -8 -17 -8h-58zM213 0q-13 0 -18 12l-157 461q-6 17 12 17h77q13 0 18 -12l114 -355l121 355q4 12 18 12h80q13 0 18 -12l121 -355
l114 355q5 12 17 12h78q17 0 11 -17l-156 -461q-5 -12 -18 -12h-84q-13 0 -18 12l-123 355l-123 -355q-5 -12 -18 -12h-84z" />
    <glyph glyph-name="Ycircumflex" unicode="&#x176;" horiz-adv-x="613" 
d="M173 779q-8 0 -10 5.5t3 10.5l89 107q7 8 16 8h71q10 0 17 -8l88 -107q5 -5 3 -10.5t-10 -5.5h-57q-10 0 -17 8l-59 72l-59 -72q-7 -8 -17 -8h-58zM265 0q-14 0 -14 15v315l-206 352q-10 18 9 18h88q12 0 18 -10l147 -257l147 257q6 10 17 10h88q20 0 10 -18l-206 -353
v-314q0 -15 -15 -15h-83z" />
    <glyph glyph-name="ycircumflex" unicode="&#x177;" horiz-adv-x="560" 
d="M146 569q-8 0 -10 5.5t3 10.5l89 107q7 8 16 8h71q10 0 17 -8l88 -107q5 -5 3 -10.5t-10 -5.5h-57q-10 0 -17 8l-59 72l-59 -72q-7 -8 -17 -8h-58zM168 -190q-19 0 -11 16l70 173l-189 474q-6 17 12 17h81q13 0 17 -12l132 -354l133 354q5 12 17 12h81q17 0 11 -17
l-258 -651q-4 -12 -18 -12h-78z" />
    <glyph glyph-name="Ydieresis" unicode="&#x178;" horiz-adv-x="613" 
d="M206 801q-23 0 -40 16.5t-17 40.5t17 40.5t40 16.5t40 -16.5t17 -40.5t-17 -40.5t-40 -16.5zM408 801q-23 0 -40 16.5t-17 40.5t17 40.5t40 16.5q24 0 41 -16.5t17 -40.5t-17 -40.5t-41 -16.5zM265 0q-14 0 -14 15v315l-206 352q-10 18 9 18h88q12 0 18 -10l147 -257
l147 257q6 10 17 10h88q20 0 10 -18l-206 -353v-314q0 -15 -15 -15h-83z" />
    <glyph glyph-name="Zacute" unicode="&#x179;" horiz-adv-x="560" 
d="M245 767q-20 0 -11 17l57 114q5 12 16 12h73q19 0 11 -17l-58 -114q-5 -12 -16 -12h-72zM66 0q-14 0 -14 15v75q0 9 6 18l320 492h-302q-14 0 -14 15v70q0 15 14 15h402q15 0 15 -15v-75q0 -9 -6 -18l-321 -492h322q15 0 15 -15v-70q0 -15 -15 -15h-422z" />
    <glyph glyph-name="zacute" unicode="&#x17a;" horiz-adv-x="475" 
d="M205 557q-20 0 -11 17l57 114q5 12 16 12h73q19 0 11 -17l-58 -114q-5 -12 -16 -12h-72zM61 0q-14 0 -14 15v64q0 11 7 18l252 304h-242q-14 0 -14 14v60q0 15 14 15h348q15 0 15 -15v-64q0 -9 -7 -18l-253 -304h246q15 0 15 -14v-60q0 -15 -15 -15h-352z" />
    <glyph glyph-name="Zdotaccent" unicode="&#x17b;" horiz-adv-x="560" 
d="M277 805q-26 0 -44 18.5t-18 44.5t18 44t44 18q27 0 44.5 -18t17.5 -44q0 -27 -17.5 -45t-44.5 -18zM66 0q-14 0 -14 15v75q0 9 6 18l320 492h-302q-14 0 -14 15v70q0 15 14 15h402q15 0 15 -15v-75q0 -9 -6 -18l-321 -492h322q15 0 15 -15v-70q0 -15 -15 -15h-422z" />
    <glyph glyph-name="zdotaccent" unicode="&#x17c;" horiz-adv-x="475" 
d="M237 595q-26 0 -44 18.5t-18 44.5t18 44t44 18q27 0 44.5 -18t17.5 -44q0 -27 -17.5 -45t-44.5 -18zM61 0q-14 0 -14 15v64q0 11 7 18l252 304h-242q-14 0 -14 14v60q0 15 14 15h348q15 0 15 -15v-64q0 -9 -7 -18l-253 -304h246q15 0 15 -14v-60q0 -15 -15 -15h-352z" />
    <glyph glyph-name="Zcaron" unicode="&#x17d;" horiz-adv-x="560" 
d="M144 911h58q10 0 17 -8l59 -73l59 73q7 8 17 8h57q8 0 10 -6t-3 -11l-88 -106q-7 -8 -17 -8h-71q-9 0 -16 8l-89 106q-5 5 -3 11t10 6zM66 0q-14 0 -14 15v75q0 9 6 18l320 492h-302q-14 0 -14 15v70q0 15 14 15h402q15 0 15 -15v-75q0 -9 -6 -18l-321 -492h322
q15 0 15 -15v-70q0 -15 -15 -15h-422z" />
    <glyph glyph-name="zcaron" unicode="&#x17e;" horiz-adv-x="475" 
d="M104 701h58q10 0 17 -8l59 -73l59 73q7 8 17 8h57q8 0 10 -6t-3 -11l-88 -106q-7 -8 -17 -8h-71q-9 0 -16 8l-89 106q-5 5 -3 11t10 6zM61 0q-14 0 -14 15v64q0 11 7 18l252 304h-242q-14 0 -14 14v60q0 15 14 15h348q15 0 15 -15v-64q0 -9 -7 -18l-253 -304h246
q15 0 15 -14v-60q0 -15 -15 -15h-352z" />
    <glyph glyph-name="florin" unicode="&#x192;" horiz-adv-x="369" 
d="M69 -190q-38 0 -63 12q-9 4 -9 14v68q0 9 13 7q28 -4 37 -4q36 0 49.5 18t13.5 52v424h-59q-14 0 -14 14v61q0 14 14 14h59v92q0 149 150 149q38 0 63 -12q9 -5 9 -14v-68q0 -9 -13 -7q-28 4 -37 4q-36 0 -49.5 -18t-13.5 -52v-74h99q14 0 14 -14v-61q0 -14 -14 -14h-99
v-442q0 -149 -150 -149z" />
    <glyph glyph-name="uni01CD" unicode="&#x1cd;" horiz-adv-x="690" 
d="M293 788l-89 106q-5 5 -3 11t10 6h58q10 0 17 -8l59 -73l59 73q7 8 17 8h57q8 0 10 -6t-3 -11l-88 -106q-7 -8 -17 -8h-71q-9 0 -16 8zM647 17q7 -17 -12 -17h-87q-13 0 -17 12l-41 122h-290l-42 -122q-4 -12 -17 -12h-86q-19 0 -12 17l238 671q5 12 18 12h91
q14 0 19 -12zM234 234h222l-111 327z" />
    <glyph glyph-name="uni01CE" unicode="&#x1ce;" horiz-adv-x="621" 
d="M174 701h58q10 0 17 -8l59 -73l59 73q7 8 17 8h57q8 0 10 -6t-3 -11l-88 -106q-7 -8 -17 -8h-71q-9 0 -16 8l-89 106q-5 5 -3 11t10 6zM278 -12q-104 0 -170 73t-66 184q0 110 66 183.5t170 73.5q118 0 173 -93l2 66q0 15 14 15h73q14 0 14 -15v-460q0 -15 -14 -15h-73
q-14 0 -14 15l-2 65q-56 -92 -173 -92zM299 87q66 0 107 43.5t41 113.5q0 71 -41 115t-107 44t-109 -44t-43 -114q0 -71 42.5 -114.5t109.5 -43.5z" />
    <glyph glyph-name="uni01CF" unicode="&#x1cf;" horiz-adv-x="266" 
d="M-1 911h58q10 0 17 -8l59 -73l59 73q7 8 17 8h57q8 0 10 -6t-3 -11l-88 -106q-7 -8 -17 -8h-71q-9 0 -16 8l-89 106q-5 5 -3 11t10 6zM91 0q-14 0 -14 15v670q0 15 14 15h83q15 0 15 -15v-670q0 -15 -15 -15h-83z" />
    <glyph glyph-name="uni01D0" unicode="&#x1d0;" horiz-adv-x="223" 
d="M-21 701h58q10 0 17 -8l59 -73l59 73q7 8 17 8h57q8 0 10 -6t-3 -11l-88 -106q-7 -8 -17 -8h-71q-9 0 -16 8l-89 106q-5 5 -3 11t10 6zM71 0q-14 0 -14 15v460q0 15 14 15h81q14 0 14 -15v-460q0 -15 -14 -15h-81z" />
    <glyph glyph-name="uni01D1" unicode="&#x1d1;" horiz-adv-x="832" 
d="M282 911h58q10 0 17 -8l59 -73l59 73q7 8 17 8h57q8 0 10 -6t-3 -11l-88 -106q-7 -8 -17 -8h-71q-9 0 -16 8l-89 106q-5 5 -3 11t10 6zM416 -13q-150 0 -254.5 104.5t-104.5 255.5q0 152 104.5 256.5t254.5 104.5t254.5 -104.5t104.5 -256.5q0 -151 -104.5 -255.5
t-254.5 -104.5zM416 97q105 0 175 71.5t70 178.5q0 108 -70 179.5t-175 71.5t-175.5 -71.5t-70.5 -179.5q0 -107 70.5 -178.5t175.5 -71.5z" />
    <glyph glyph-name="uni01D2" unicode="&#x1d2;" horiz-adv-x="591" 
d="M162 701h58q10 0 17 -8l59 -73l59 73q7 8 17 8h57q8 0 10 -6t-3 -11l-88 -106q-7 -8 -17 -8h-71q-9 0 -16 8l-89 106q-5 5 -3 11t10 6zM296 -12q-109 0 -181.5 74t-72.5 183t72.5 183t181.5 74q108 0 180.5 -74t72.5 -183t-72.5 -183t-180.5 -74zM296 88q64 0 106.5 43.5
t42.5 113.5t-42.5 113.5t-106.5 43.5q-65 0 -107.5 -43.5t-42.5 -113.5t42.5 -113.5t107.5 -43.5z" />
    <glyph glyph-name="uni01D3" unicode="&#x1d3;" horiz-adv-x="644" 
d="M188 911h58q10 0 17 -8l59 -73l59 73q7 8 17 8h57q8 0 10 -6t-3 -11l-88 -106q-7 -8 -17 -8h-71q-9 0 -16 8l-89 106q-5 5 -3 11t10 6zM322 -13q-113 0 -181.5 68.5t-68.5 194.5v435q0 15 14 15h83q15 0 15 -15v-430q0 -78 36.5 -118t101.5 -40t101.5 40t36.5 118v430
q0 15 15 15h83q15 0 15 -15v-435q0 -126 -68.5 -194.5t-182.5 -68.5z" />
    <glyph glyph-name="uni01D4" unicode="&#x1d4;" 
d="M155 701h58q10 0 17 -8l59 -73l59 73q7 8 17 8h57q8 0 10 -6t-3 -11l-88 -106q-7 -8 -17 -8h-71q-9 0 -16 8l-89 106q-5 5 -3 11t10 6zM244 -12q-80 0 -128.5 53t-48.5 148v286q0 15 14 15h80q14 0 14 -15v-266q0 -58 27.5 -89.5t79.5 -31.5t84.5 32t32.5 89v266
q0 15 14 15h79q15 0 15 -15v-460q0 -15 -15 -15h-75q-15 0 -15 16l-3 60q-49 -88 -155 -88z" />
    <glyph glyph-name="uni01EA" unicode="&#x1ea;" horiz-adv-x="832" 
d="M507 -2q-80 -27 -80 -82q0 -28 19.5 -40.5t56.5 -4.5v-69q-21 -9 -49 -9t-54.5 9t-44.5 33t-18 59q0 55 47 94q-139 12 -233 114t-94 245q0 152 104.5 256.5t254.5 104.5t254.5 -104.5t104.5 -256.5q0 -126 -75 -222.5t-193 -126.5zM170 347q0 -107 70.5 -178.5
t175.5 -71.5t175 71.5t70 178.5q0 108 -70 179.5t-175 71.5t-175.5 -71.5t-70.5 -179.5z" />
    <glyph glyph-name="uni01EB" unicode="&#x1eb;" horiz-adv-x="591" 
d="M369 -2q-78 -26 -78 -82q0 -28 19.5 -40.5t56.5 -4.5v-69q-21 -9 -48.5 -9t-54 9t-44.5 33t-18 59q0 56 50 97q-92 15 -151 86t-59 168q0 109 72.5 183t181.5 74q108 0 180.5 -74t72.5 -183q0 -89 -49.5 -156.5t-130.5 -90.5zM146 245q0 -70 42.5 -113.5t107.5 -43.5
q64 0 106.5 43.5t42.5 113.5t-42.5 113.5t-106.5 43.5q-65 0 -107.5 -43.5t-42.5 -113.5z" />
    <glyph glyph-name="uni0218" unicode="&#x218;" horiz-adv-x="548" 
d="M272 -12q-74 0 -129.5 30t-88.5 77q-8 11 2 22l42 48q11 13 23 1q65 -75 150 -75q55 0 86.5 25.5t31.5 70.5q0 41 -24.5 64t-78.5 48l-85 40q-133 63 -133 182q0 86 59 136.5t147 50.5q117 0 197 -91q11 -11 0 -23l-41 -49q-10 -13 -23 -2q-62 62 -129 62q-45 0 -73 -22
t-28 -62q0 -33 20 -54t66 -43l77 -36q75 -36 116.5 -80t41.5 -121q0 -94 -65 -146.5t-161 -52.5zM203 -282v30q47 0 73 42q17 29 4 39l-8 3q-29 0 -49.5 20t-20.5 48q0 30 20.5 50t50.5 20q34 0 58 -26.5t24 -73.5q0 -66 -47 -110t-105 -42z" />
    <glyph glyph-name="uni0219" unicode="&#x219;" horiz-adv-x="446" 
d="M223 -12q-107 0 -172 78q-10 11 1 27l26 36q10 14 24 2q60 -52 116 -52q34 0 54.5 15t20.5 43q0 24 -15 39t-48 29l-60 24q-109 44 -109 133q0 64 47 102t115 38q96 0 154 -72q9 -11 -1 -21l-31 -37q-11 -12 -24 0q-46 43 -93 43q-29 0 -46.5 -14t-17.5 -38t16 -38
t48 -27l59 -24q113 -45 113 -140q-1 -69 -52 -107.5t-125 -38.5zM150 -282v30q47 0 73 42q17 29 4 39l-8 3q-29 0 -49.5 20t-20.5 48q0 30 20.5 50t50.5 20q34 0 58 -26.5t24 -73.5q0 -66 -47 -110t-105 -42z" />
    <glyph glyph-name="uni021A" unicode="&#x21a;" horiz-adv-x="540" 
d="M228 0q-14 0 -14 15v585h-143q-14 0 -14 15v70q0 15 14 15h397q15 0 15 -15v-70q0 -15 -15 -15h-142v-585q0 -15 -15 -15h-83zM197 -279v30q47 0 73 42q17 29 4 39l-8 3q-29 0 -49.5 20t-20.5 48q0 30 20.5 50t50.5 20q34 0 58 -26.5t24 -73.5q0 -66 -47 -110t-105 -42z
" />
    <glyph glyph-name="uni021B" unicode="&#x21b;" horiz-adv-x="354" 
d="M242 -12q-59 0 -93.5 30.5t-34.5 95.5v290h-63q-14 0 -14 15v56q0 15 14 15h63v115q0 15 14 15h81q14 0 14 -15v-115h79q15 0 15 -15v-56q0 -15 -15 -15h-79v-278q0 -47 44 -47q9 0 31 2q18 1 18 -14v-53q0 -26 -74 -26zM153 -280v30q47 0 73 42q17 29 4 39l-8 3
q-29 0 -49.5 20t-20.5 48q0 30 20.5 50t50.5 20q34 0 58 -26.5t24 -73.5q0 -66 -47 -110t-105 -42z" />
    <glyph glyph-name="uni0237" unicode="&#x237;" horiz-adv-x="243" 
d="M0 -198q-10 0 -12 8l-24 80q-4 11 8 11q103 9 103 123v451q0 15 15 15h78q15 0 15 -15v-467q0 -100 -48.5 -151.5t-134.5 -54.5z" />
    <glyph glyph-name="circumflex" unicode="&#x2c6;" horiz-adv-x="318" 
d="M25 569q-8 0 -10 5.5t3 10.5l89 107q7 8 16 8h71q10 0 17 -8l88 -107q5 -5 3 -10.5t-10 -5.5h-57q-10 0 -17 8l-59 72l-59 -72q-7 -8 -17 -8h-58z" />
    <glyph glyph-name="caron" unicode="&#x2c7;" horiz-adv-x="318" 
d="M25 701h58q10 0 17 -8l59 -73l59 73q7 8 17 8h57q8 0 10 -6t-3 -11l-88 -106q-7 -8 -17 -8h-71q-9 0 -16 8l-89 106q-5 5 -3 11t10 6z" />
    <glyph glyph-name="breve" unicode="&#x2d8;" horiz-adv-x="325" 
d="M162 562q-63 0 -102.5 35t-44.5 88q-1 15 14 15h39q13 0 16 -14q6 -25 26.5 -42t51.5 -17q32 0 52.5 17t26.5 42q3 14 16 14h39q16 0 14 -15q-5 -53 -44.5 -88t-103.5 -35z" />
    <glyph glyph-name="dotaccent" unicode="&#x2d9;" horiz-adv-x="154" 
d="M77 595q-26 0 -44 18.5t-18 44.5t18 44t44 18q27 0 44.5 -18t17.5 -44q0 -27 -17.5 -45t-44.5 -18z" />
    <glyph glyph-name="ring" unicode="&#x2da;" horiz-adv-x="215" 
d="M108 549q-41 0 -67 26t-26 64q0 39 26 65.5t67 26.5q40 0 66 -26.5t26 -65.5q0 -38 -26 -64t-66 -26zM108 614q10 0 17.5 7.5t7.5 18.5t-7.5 18.5t-17.5 7.5q-11 0 -18.5 -7.5t-7.5 -18.5t7.5 -18.5t18.5 -7.5z" />
    <glyph glyph-name="ogonek" unicode="&#x2db;" horiz-adv-x="207" 
d="M176 -198q-21 -9 -49 -9t-54.5 9t-44.5 33t-18 59q0 48 34.5 84.5t76 51.5t76.5 15v-45q-43 -1 -70.5 -25.5t-27.5 -58.5q0 -27 20 -40t57 -5v-69z" />
    <glyph glyph-name="tilde" unicode="&#x2dc;" horiz-adv-x="368" 
d="M258 589q-41 0 -85.5 34t-68.5 34q-33 0 -45 -29q-3 -9 -11 -9h-23q-10 0 -10 13q4 43 30 65.5t66 22.5t84.5 -34t68.5 -34q32 0 44 29q3 9 11 9h24q10 0 10 -10q-4 -45 -30 -68t-65 -23z" />
    <glyph glyph-name="hungarumlaut" unicode="&#x2dd;" horiz-adv-x="353" 
d="M28 557q-20 0 -11 17l57 114q5 12 16 12h73q19 0 11 -17l-58 -114q-5 -12 -16 -12h-72zM190 557q-19 0 -10 17l56 114q7 12 17 12h73q19 0 10 -17l-57 -114q-7 -12 -17 -12h-72z" />
    <glyph glyph-name="uni0326" unicode="&#x326;" horiz-adv-x="0" 
d="M-151 -282v30q47 0 73 42q17 29 4 39l-8 3q-29 0 -49.5 20t-20.5 48q0 30 20.5 50t50.5 20q34 0 58.5 -26.5t24.5 -73.5q0 -66 -47.5 -110t-105.5 -42z" />
    <glyph glyph-name="uni0394" unicode="&#x394;" horiz-adv-x="690" 
d="M55 0q-19 0 -12 17l238 671q5 12 18 12h91q14 0 19 -12l238 -671q7 -17 -12 -17h-580zM184 89h322l-161 472z" />
    <glyph glyph-name="uni03A9" unicode="&#x3a9;" horiz-adv-x="824" 
d="M78 0q-15 0 -15 15v59q0 15 15 15h102v18q-61 46 -92 114.5t-31 143.5q0 146 102.5 244.5t252.5 98.5t252.5 -98.5t102.5 -244.5q0 -75 -31 -143.5t-92 -114.5v-18h102q15 0 15 -15v-59q0 -15 -15 -15h-198q-15 0 -15 15v128q56 34 89.5 91.5t33.5 127.5q0 104 -70.5 171
t-173.5 67t-173.5 -67t-70.5 -171q0 -70 33.5 -127.5t89.5 -91.5v-128q0 -15 -15 -15h-198z" />
    <glyph glyph-name="uni03BC" unicode="&#x3bc;" 
d="M81 -190q-14 0 -14 15v650q0 15 14 15h80q14 0 14 -15v-266q0 -58 27.5 -89.5t79.5 -31.5t84.5 32t32.5 89v266q0 15 14 15h79q15 0 15 -15v-460q0 -15 -15 -15h-75q-15 0 -15 16l-3 60q-39 -88 -129 -88q-66 0 -95 41v-204q0 -15 -15 -15h-79z" />
    <glyph glyph-name="pi" unicode="&#x3c0;" horiz-adv-x="671" 
d="M553 -7q-55 0 -88.5 30t-33.5 95v281h-166v-384q0 -15 -14 -15h-79q-15 0 -15 15v384h-82q-14 0 -14 14v62q0 15 14 15h537q15 0 15 -15v-62q0 -14 -15 -14h-73v-265q0 -44 39 -44q25 0 36 2q18 3 18 -13v-60q0 -26 -79 -26z" />
    <glyph glyph-name="uni0401" unicode="&#x401;" horiz-adv-x="520" 
d="M172 801q-23 0 -40 16.5t-17 40.5t17 40.5t40 16.5t40 -16.5t17 -40.5t-17 -40.5t-40 -16.5zM374 801q-23 0 -40 16.5t-17 40.5t17 40.5t40 16.5q24 0 41 -16.5t17 -40.5t-17 -40.5t-41 -16.5zM91 0q-14 0 -14 15v670q0 15 14 15h347q14 0 14 -15v-70q0 -15 -14 -15h-249
v-192h235q15 0 15 -15v-71q0 -14 -15 -14h-235v-208h249q15 0 15 -15v-70q0 -15 -15 -15h-347z" />
    <glyph glyph-name="uni0403" unicode="&#x403;" horiz-adv-x="498" 
d="M217 767q-20 0 -11 17l57 114q5 12 16 12h73q19 0 11 -17l-58 -114q-5 -12 -16 -12h-72zM91 0q-14 0 -14 15v670q0 15 14 15h350q15 0 15 -15v-71q0 -15 -15 -15h-252v-584q0 -15 -15 -15h-83z" />
    <glyph glyph-name="uni0404" unicode="&#x404;" horiz-adv-x="714" 
d="M657 105q11 -9 -1 -21q-100 -97 -241 -97q-152 0 -255 103.5t-103 256.5t103 257t255 104q140 0 241 -96q11 -11 1 -22l-51 -55q-9 -10 -21 -1q-74 64 -169 64q-91 0 -157.5 -55t-83.5 -143h241q14 0 14 -14v-72q0 -14 -14 -14h-242q15 -90 82 -146.5t160 -56.5
q95 0 169 64q11 10 21 0z" />
    <glyph glyph-name="uni0406" unicode="&#x406;" horiz-adv-x="266" 
d="M91 0q-14 0 -14 15v670q0 15 14 15h83q15 0 15 -15v-670q0 -15 -15 -15h-83z" />
    <glyph glyph-name="uni0407" unicode="&#x407;" horiz-adv-x="266" 
d="M32 801q-23 0 -40 16.5t-17 40.5t17 40.5t40 16.5t40 -16.5t17 -40.5t-17 -40.5t-40 -16.5zM234 801q-23 0 -40 16.5t-17 40.5t17 40.5t40 16.5q24 0 41 -16.5t17 -40.5t-17 -40.5t-41 -16.5zM91 0q-14 0 -14 15v670q0 15 14 15h83q15 0 15 -15v-670q0 -15 -15 -15h-83z
" />
    <glyph glyph-name="uni040C" unicode="&#x40c;" horiz-adv-x="643" 
d="M283 767q-20 0 -11 17l57 114q5 12 16 12h73q19 0 11 -17l-58 -114q-5 -12 -16 -12h-72zM91 0q-14 0 -14 15v670q0 15 14 15h83q15 0 15 -15v-341l258 348q7 8 18 8h102q9 0 11.5 -5.5t-3.5 -12.5l-236 -300l264 -364q5 -8 2.5 -13t-11.5 -5h-97q-12 0 -18 9l-208 286
l-82 -104v-176q0 -15 -15 -15h-83z" />
    <glyph glyph-name="uni040E" unicode="&#x40e;" horiz-adv-x="669" 
d="M334 772q-63 0 -102.5 35t-44.5 88q-1 15 14 15h39q13 0 16 -14q6 -25 26.5 -42t51.5 -17q32 0 52.5 17t26.5 42q3 14 16 14h39q16 0 14 -15q-5 -53 -44.5 -88t-103.5 -35zM124 0q-20 0 -10 18l162 276l-231 388q-5 8 -2.5 13t11.5 5h88q12 0 18 -10l175 -296l175 296
q6 10 17 10h88q9 0 12 -5t-2 -13l-396 -672q-6 -10 -18 -10h-87z" />
    <glyph glyph-name="uni0410" unicode="&#x410;" horiz-adv-x="690" 
d="M647 17q7 -17 -12 -17h-87q-13 0 -17 12l-41 122h-290l-42 -122q-4 -12 -17 -12h-86q-19 0 -12 17l238 671q5 12 18 12h91q14 0 19 -12zM234 234h222l-111 327z" />
    <glyph glyph-name="uni0411" unicode="&#x411;" horiz-adv-x="574" 
d="M293 446q116 0 177.5 -60.5t61.5 -162.5t-61.5 -162.5t-177.5 -60.5h-202q-14 0 -14 15v670q0 15 14 15h352q15 0 15 -15v-71q0 -15 -15 -15h-254v-153h104zM288 100q136 0 136 123t-136 123h-99v-246h99z" />
    <glyph glyph-name="uni0412" unicode="&#x412;" horiz-adv-x="589" 
d="M91 0q-14 0 -14 15v670q0 15 14 15h221q94 0 142.5 -50t48.5 -123q0 -52 -26 -92t-70 -57q63 -15 101.5 -63t38.5 -118q0 -90 -61.5 -143.5t-179.5 -53.5h-215zM187 414h106q49 0 76.5 25t27.5 72q0 90 -104 90h-106v-187zM187 99h112q134 0 134 113q0 56 -34.5 85
t-99.5 29h-112v-227z" />
    <glyph glyph-name="uni0413" unicode="&#x413;" horiz-adv-x="498" 
d="M91 0q-14 0 -14 15v670q0 15 14 15h350q15 0 15 -15v-71q0 -15 -15 -15h-252v-584q0 -15 -15 -15h-83z" />
    <glyph glyph-name="uni0414" unicode="&#x414;" horiz-adv-x="738" 
d="M698 101q15 0 15 -15v-140q0 -15 -15 -15h-82q-15 0 -15 15v54h-454v-54q0 -15 -15 -15h-82q-15 0 -15 15v140q0 15 15 15h32q72 9 72 116v468q0 15 15 15h469q14 0 14 -14v-585h46zM266 191q0 -54 -16 -90h290v499h-274v-409z" />
    <glyph glyph-name="uni0415" unicode="&#x415;" horiz-adv-x="520" 
d="M91 0q-14 0 -14 15v670q0 15 14 15h347q14 0 14 -15v-70q0 -15 -14 -15h-249v-192h235q15 0 15 -15v-71q0 -14 -15 -14h-235v-208h249q15 0 15 -15v-70q0 -15 -15 -15h-347z" />
    <glyph glyph-name="uni0416" unicode="&#x416;" horiz-adv-x="1019" 
d="M980 18q5 -8 2.5 -13t-11.5 -5h-97q-12 0 -18 9l-208 286l-82 -104v-176q0 -15 -15 -15h-83q-14 0 -14 15v176l-82 103l-208 -285q-6 -9 -18 -9h-97q-9 0 -11.5 5t2.5 13l263 364l-235 300q-6 7 -4 12.5t12 5.5h102q11 0 18 -8l258 -348v341q0 15 14 15h83q15 0 15 -15
v-341l258 348q7 8 18 8h102q9 0 11.5 -5.5t-3.5 -12.5l-236 -300z" />
    <glyph glyph-name="uni0417" unicode="&#x417;" horiz-adv-x="512" 
d="M242 -13q-133 0 -202 102q-7 12 3 20l50 45q10 10 19 -2q51 -65 125 -65q56 0 90 33.5t34 84.5q0 52 -35.5 85t-93.5 33h-22q-15 0 -15 14v61q0 14 15 14h22q49 0 77.5 29.5t28.5 70.5q0 42 -28.5 69t-73.5 27q-68 0 -107 -63q-8 -12 -20 -2l-47 46q-10 8 -2 19
q28 44 76.5 72t110.5 28q83 0 139.5 -49.5t56.5 -128.5q0 -55 -28 -95t-74 -61q57 -20 93 -66.5t36 -114.5q0 -90 -64.5 -148t-163.5 -58z" />
    <glyph glyph-name="uni0418" unicode="&#x418;" horiz-adv-x="684" 
d="M593 700q15 0 15 -15v-670q0 -15 -15 -15h-83q-15 0 -15 15v512l-284 -517q-6 -10 -18 -10h-102q-14 0 -14 15v670q0 15 14 15h83q15 0 15 -15v-512l284 517q6 10 18 10h102z" />
    <glyph glyph-name="uni0419" unicode="&#x419;" horiz-adv-x="684" 
d="M345 771q-63 0 -103 35t-45 88q-1 15 14 15h39q13 0 16 -14q6 -25 26.5 -42t52.5 -17t52 17t27 42q3 14 16 14h38q16 0 14 -15q-5 -53 -44.5 -88t-102.5 -35zM593 700q15 0 15 -15v-670q0 -15 -15 -15h-83q-15 0 -15 15v512l-284 -517q-6 -10 -18 -10h-102q-14 0 -14 15
v670q0 15 14 15h83q15 0 15 -15v-512l284 517q6 10 18 10h102z" />
    <glyph glyph-name="uni041A" unicode="&#x41a;" horiz-adv-x="643" 
d="M91 0q-14 0 -14 15v670q0 15 14 15h83q15 0 15 -15v-341l258 348q7 8 18 8h102q9 0 11.5 -5.5t-3.5 -12.5l-236 -300l264 -364q5 -8 2.5 -13t-11.5 -5h-97q-12 0 -18 9l-208 286l-82 -104v-176q0 -15 -15 -15h-83z" />
    <glyph glyph-name="uni041B" unicode="&#x41b;" horiz-adv-x="698" 
d="M49 -5q-24 0 -24 16v75q0 11 11 11q87 0 87 118v470q0 15 15 15h469q15 0 15 -15v-670q0 -15 -15 -15h-83q-15 0 -15 15v584h-274v-410q0 -95 -50 -144.5t-136 -49.5z" />
    <glyph glyph-name="uni041C" unicode="&#x41c;" horiz-adv-x="878" 
d="M91 0q-14 0 -14 15v670q0 15 14 15h101q13 0 17 -10l230 -563l231 563q4 10 16 10h101q15 0 15 -15v-670q0 -15 -15 -15h-83q-14 0 -14 15v483l-14 -45l-181 -441q-5 -12 -17 -12h-77q-13 0 -18 12l-180 441l-14 45v-483q0 -15 -15 -15h-83z" />
    <glyph glyph-name="uni041D" unicode="&#x41d;" horiz-adv-x="668" 
d="M91 0q-14 0 -14 15v670q0 15 14 15h83q15 0 15 -15v-290h290v290q0 15 15 15h83q14 0 14 -15v-670q0 -15 -14 -15h-83q-15 0 -15 15v281h-290v-281q0 -15 -15 -15h-83z" />
    <glyph glyph-name="uni041E" unicode="&#x41e;" horiz-adv-x="832" 
d="M416 -13q-150 0 -254.5 104.5t-104.5 255.5q0 152 104.5 256.5t254.5 104.5t254.5 -104.5t104.5 -256.5q0 -151 -104.5 -255.5t-254.5 -104.5zM416 97q105 0 175 71.5t70 178.5q0 108 -70 179.5t-175 71.5t-175.5 -71.5t-70.5 -179.5q0 -107 70.5 -178.5t175.5 -71.5z
" />
    <glyph glyph-name="uni041F" unicode="&#x41f;" horiz-adv-x="657" 
d="M91 0q-14 0 -14 15v670q0 15 14 15h475q15 0 15 -15v-670q0 -15 -15 -15h-83q-14 0 -14 15v584h-280v-584q0 -15 -15 -15h-83z" />
    <glyph glyph-name="uni0420" unicode="&#x420;" horiz-adv-x="579" 
d="M91 0q-14 0 -14 15v670q0 15 14 15h202q116 0 177.5 -60.5t61.5 -162.5t-61.5 -162.5t-177.5 -60.5h-104v-239q0 -15 -15 -15h-83zM189 354h99q136 0 136 123t-136 123h-99v-246z" />
    <glyph glyph-name="uni0421" unicode="&#x421;" horiz-adv-x="714" 
d="M415 -13q-152 0 -255 103.5t-103 256.5t103 257t255 104q140 0 241 -96q11 -11 1 -22l-51 -55q-9 -10 -21 -1q-74 64 -169 64q-105 0 -175.5 -71.5t-70.5 -179.5t70.5 -179t175.5 -71q95 0 169 64q11 10 21 0l51 -56q11 -9 -1 -21q-100 -97 -241 -97z" />
    <glyph glyph-name="uni0422" unicode="&#x422;" horiz-adv-x="540" 
d="M228 0q-14 0 -14 15v585h-143q-14 0 -14 15v70q0 15 14 15h397q15 0 15 -15v-70q0 -15 -15 -15h-142v-585q0 -15 -15 -15h-83z" />
    <glyph glyph-name="uni0423" unicode="&#x423;" horiz-adv-x="669" 
d="M124 0q-20 0 -10 18l162 276l-231 388q-5 8 -2.5 13t11.5 5h88q12 0 18 -10l175 -296l175 296q6 10 17 10h88q9 0 12 -5t-2 -13l-396 -672q-6 -10 -18 -10h-87z" />
    <glyph glyph-name="uni0424" unicode="&#x424;" horiz-adv-x="878" 
d="M514 640q150 0 231 -85t81 -205t-81 -205t-231 -85h-24v-45q0 -15 -15 -15h-83q-14 0 -14 15v45h-25q-149 0 -230 85t-81 205t81 205t230 85h25v45q0 15 14 15h83q15 0 15 -15v-45h24zM354 161h24v378h-24q-99 0 -149 -52.5t-50 -136.5t50 -136.5t149 -52.5zM514 161
q99 0 148.5 52t49.5 137t-49.5 137t-148.5 52h-24v-378h24z" />
    <glyph glyph-name="uni0425" unicode="&#x425;" horiz-adv-x="641" 
d="M64 0q-19 0 -9 18l204 340l-194 324q-10 18 9 18h90q11 0 18 -10l139 -230l139 230q6 10 17 10h90q19 0 9 -18l-194 -324l204 -340q10 -18 -9 -18h-90q-11 0 -18 10l-148 247l-149 -247q-7 -10 -18 -10h-90z" />
    <glyph glyph-name="uni0426" unicode="&#x426;" horiz-adv-x="680" 
d="M641 101q15 0 15 -15v-140q0 -15 -15 -15h-83q-14 0 -14 15v54h-453q-14 0 -14 15v670q0 15 14 15h83q15 0 15 -15v-584h280v584q0 15 14 15h83q15 0 15 -15v-584h60z" />
    <glyph glyph-name="uni0427" unicode="&#x427;" horiz-adv-x="622" 
d="M448 0q-15 0 -15 15v273q-70 -97 -190 -97q-91 1 -147 60t-56 159v275q0 15 15 15h82q15 0 15 -15v-248q0 -66 37.5 -101t96.5 -35q60 0 103.5 35.5t43.5 100.5v248q0 15 15 15h82q15 0 15 -15v-670q0 -15 -15 -15h-82z" />
    <glyph glyph-name="uni0428" unicode="&#x428;" horiz-adv-x="938" 
d="M847 700q14 0 14 -15v-670q0 -15 -14 -15h-756q-14 0 -14 15v670q0 15 14 15h83q15 0 15 -15v-584h224v584q0 15 15 15h83q14 0 14 -15v-584h224v584q0 15 15 15h83z" />
    <glyph glyph-name="uni0429" unicode="&#x429;" horiz-adv-x="962" 
d="M923 101q14 0 14 -15v-140q0 -15 -14 -15h-83q-15 0 -15 15v54h-734q-14 0 -14 15v670q0 15 14 15h83q15 0 15 -15v-584h224v584q0 15 15 15h83q14 0 14 -15v-584h224v584q0 15 15 15h83q14 0 14 -15v-584h62z" />
    <glyph glyph-name="uni042A" unicode="&#x42a;" horiz-adv-x="633" 
d="M352 446q116 0 177.5 -60.5t61.5 -162.5t-61.5 -162.5t-177.5 -60.5h-202q-14 0 -14 15v585h-102q-14 0 -14 15v70q0 15 14 15h199q15 0 15 -15v-239h104zM347 100q136 0 136 123t-136 123h-99v-246h99z" />
    <glyph glyph-name="uni042B" unicode="&#x42b;" horiz-adv-x="793" 
d="M91 0q-14 0 -14 15v670q0 15 14 15h83q15 0 15 -15v-239h104q116 0 177.5 -60.5t61.5 -162.5t-61.5 -162.5t-177.5 -60.5h-202zM619 0q-15 0 -15 15v670q0 15 15 15h83q14 0 14 -15v-670q0 -15 -14 -15h-83zM189 100h99q136 0 136 123t-136 123h-99v-246z" />
    <glyph glyph-name="uni042C" unicode="&#x42c;" horiz-adv-x="579" 
d="M91 0q-14 0 -14 15v670q0 15 14 15h83q15 0 15 -15v-239h104q116 0 177.5 -60.5t61.5 -162.5t-61.5 -162.5t-177.5 -60.5h-202zM189 100h99q136 0 136 123t-136 123h-99v-246z" />
    <glyph glyph-name="uni042D" unicode="&#x42d;" horiz-adv-x="714" 
d="M305 708q151 0 254 -104t103 -257t-102.5 -256.5t-254.5 -103.5q-142 0 -242 97q-12 12 -1 21l51 56q10 10 21 0q74 -64 169 -64q93 0 160 56.5t82 146.5h-242q-14 0 -14 14v72q0 14 14 14h241q-17 88 -83.5 143t-157.5 55q-95 0 -169 -64q-12 -9 -21 1l-51 55
q-10 11 1 22q101 96 242 96z" />
    <glyph glyph-name="uni042E" unicode="&#x42e;" horiz-adv-x="1034" 
d="M618 708q150 0 254.5 -104.5t104.5 -256.5q0 -151 -104.5 -255.5t-254.5 -104.5q-138 0 -238.5 89t-117.5 224h-73v-285q0 -15 -15 -15h-83q-14 0 -14 15v670q0 15 14 15h83q15 0 15 -15v-285h74q19 133 119 220.5t236 87.5zM618 97q105 0 175.5 71.5t70.5 178.5
q0 108 -70.5 179.5t-175.5 71.5t-175 -71.5t-70 -179.5q0 -107 70.5 -178.5t174.5 -71.5z" />
    <glyph glyph-name="uni042F" unicode="&#x42f;" horiz-adv-x="601" 
d="M510 700q14 0 14 -15v-670q0 -15 -14 -15h-83q-15 0 -15 15v239h-79l-157 -244q-6 -10 -18 -10h-88q-21 0 -10 18l162 247q-75 21 -114 76.5t-39 135.5q0 102 61.5 162.5t177.5 60.5h202zM412 354v246h-99q-136 0 -136 -123t136 -123h99z" />
    <glyph glyph-name="uni0430" unicode="&#x430;" horiz-adv-x="621" 
d="M278 -12q-104 0 -170 73t-66 184q0 110 66 183.5t170 73.5q118 0 173 -93l2 66q0 15 14 15h73q14 0 14 -15v-460q0 -15 -14 -15h-73q-14 0 -14 15l-2 65q-56 -92 -173 -92zM299 87q66 0 107 43.5t41 113.5q0 71 -41 115t-107 44t-109 -44t-43 -114q0 -71 42.5 -114.5
t109.5 -43.5z" />
    <glyph glyph-name="uni0431" unicode="&#x431;" horiz-adv-x="621" 
d="M343 -12q-117 0 -173 92l-2 -65q0 -15 -14 -15h-73q-14 0 -14 15v512q0 173 164 173h154q24 0 33.5 4.5t11.5 15.5h87v-18q0 -54 -26 -75t-83 -21h-152q-44 0 -62.5 -20.5t-18.5 -65.5l1 -103q55 85 167 85q104 0 170 -73.5t66 -183.5q0 -111 -66 -184t-170 -73zM322 87
q67 0 109.5 43.5t42.5 114.5q0 70 -43 114t-109 44t-107 -44t-41 -115q0 -70 41 -113.5t107 -43.5z" />
    <glyph glyph-name="uni0432" unicode="&#x432;" horiz-adv-x="534" 
d="M391 263q48 -11 74.5 -43t26.5 -80q0 -65 -51 -102.5t-142 -37.5h-218q-14 0 -14 15v460q0 15 14 15h223q70 0 112.5 -34t42.5 -91q0 -37 -19 -64t-49 -38zM361 348q0 53 -63 53h-123v-109h123q33 0 48 16t15 40zM302 89q87 0 87 65q0 66 -91 66h-123v-131h127z" />
    <glyph glyph-name="uni0433" unicode="&#x433;" horiz-adv-x="431" 
d="M82 0q-15 0 -15 15v460q0 15 15 15h297q15 0 15 -15v-59q0 -15 -15 -15h-204v-386q0 -15 -15 -15h-78z" />
    <glyph glyph-name="uni0434" unicode="&#x434;" horiz-adv-x="663" 
d="M623 89q15 0 15 -14v-124q0 -15 -15 -15h-78q-15 0 -15 15v49h-387v-49q0 -15 -15 -15h-78q-15 0 -15 15v129q0 10 10 10q83 0 83 113v272q0 15 15 15h409q14 0 14 -15v-386h57zM236 401v-207q0 -65 -32 -105h253v312h-221z" />
    <glyph glyph-name="uni0435" unicode="&#x435;" horiz-adv-x="565" 
d="M306 -12q-118 0 -191 74t-73 185q0 110 69.5 182.5t179.5 72.5q106 0 169 -68.5t63 -164.5q0 -34 -9.5 -49t-36.5 -15h-330q10 -60 53.5 -95t114.5 -35q69 0 126 38q10 6 16 -3l28 -38q8 -10 -4 -22q-63 -62 -175 -62zM146 283h281q-4 60 -41 94t-95 34t-97.5 -34
t-47.5 -94z" />
    <glyph glyph-name="uni0436" unicode="&#x436;" horiz-adv-x="874" 
d="M839 18q7 -8 4.5 -13t-12.5 -5h-94q-11 0 -18 8l-172 196l-56 -58v-131q0 -15 -14 -15h-80q-14 0 -14 15v131l-57 58l-171 -196q-7 -8 -18 -8h-94q-10 0 -12.5 5t3.5 13l224 258l-190 196q-7 8 -4.5 13t12.5 5h96q11 0 19 -8l192 -203v196q0 15 14 15h80q14 0 14 -15
v-196l192 203q7 8 19 8h96q10 0 12 -5t-5 -13l-189 -196z" />
    <glyph glyph-name="uni0437" unicode="&#x437;" horiz-adv-x="410" 
d="M190 -9q-95 0 -147 65q-11 14 1 28l29 34q10 12 25 -1q38 -36 88 -36q36 0 60 18.5t24 49.5t-28.5 51.5t-80.5 20.5q-18 0 -18 17v40q0 18 18 18q44 0 67.5 16t23.5 43q0 25 -19.5 39.5t-50.5 14.5q-33 0 -75 -29q-19 -13 -29 0l-23 31q-11 14 1 27q51 60 141 60
q65 0 109.5 -36.5t44.5 -92.5q0 -65 -69 -106q86 -38 86 -124q0 -67 -50 -107.5t-128 -40.5z" />
    <glyph glyph-name="uni0438" unicode="&#x438;" horiz-adv-x="594" 
d="M513 490q15 0 15 -15v-460q0 -15 -15 -15h-80q-14 0 -14 15v336l-220 -341q-7 -10 -19 -10h-99q-14 0 -14 15v460q0 15 14 15h80q14 0 14 -15v-340l223 345q7 10 19 10h96z" />
    <glyph glyph-name="uni0439" unicode="&#x439;" horiz-adv-x="594" 
d="M305 562q-63 0 -102.5 35t-44.5 88q-2 15 14 15h39q13 0 16 -14q6 -25 26.5 -42t51.5 -17q32 0 52.5 17t26.5 42q3 14 16 14h39q15 0 14 -15q-5 -53 -44.5 -88t-103.5 -35zM513 490q15 0 15 -15v-460q0 -15 -15 -15h-80q-14 0 -14 15v336l-220 -341q-7 -10 -19 -10h-99
q-14 0 -14 15v460q0 15 14 15h80q14 0 14 -15v-340l223 345q7 10 19 10h96z" />
    <glyph glyph-name="uni043A" unicode="&#x43a;" horiz-adv-x="558" 
d="M523 18q7 -8 4.5 -13t-12.5 -5h-94q-11 0 -18 8l-172 196l-56 -58v-131q0 -15 -14 -15h-80q-14 0 -14 15v460q0 15 14 15h80q14 0 14 -15v-196l192 203q7 8 19 8h96q10 0 12 -5t-5 -13l-189 -196z" />
    <glyph glyph-name="uni043B" unicode="&#x43b;" horiz-adv-x="561" 
d="M-24 -5q-13 0 -13 9v75q0 10 10 10q83 0 83 113v273q0 15 15 15h409q14 0 14 -15v-460q0 -15 -14 -15h-81q-14 0 -14 15v386h-221v-224q0 -91 -49.5 -136.5t-138.5 -45.5z" />
    <glyph glyph-name="uni043C" unicode="&#x43c;" horiz-adv-x="744" 
d="M663 490q15 0 15 -15v-460q0 -15 -15 -15h-80q-14 0 -14 15v288l-137 -292q-5 -11 -17 -11h-86q-12 0 -17 11l-137 292v-288q0 -15 -14 -15h-80q-14 0 -14 15v460q0 15 14 15h99q12 0 17 -11l175 -367l175 367q5 11 17 11h99z" />
    <glyph glyph-name="uni043D" unicode="&#x43d;" horiz-adv-x="593" 
d="M512 490q15 0 15 -15v-460q0 -15 -15 -15h-80q-14 0 -14 15v174h-243v-174q0 -15 -14 -15h-80q-14 0 -14 15v460q0 15 14 15h80q14 0 14 -15v-196h243v196q0 15 14 15h80z" />
    <glyph glyph-name="uni043E" unicode="&#x43e;" horiz-adv-x="591" 
d="M296 -12q-109 0 -181.5 74t-72.5 183t72.5 183t181.5 74q108 0 180.5 -74t72.5 -183t-72.5 -183t-180.5 -74zM296 88q64 0 106.5 43.5t42.5 113.5t-42.5 113.5t-106.5 43.5q-65 0 -107.5 -43.5t-42.5 -113.5t42.5 -113.5t107.5 -43.5z" />
    <glyph glyph-name="uni043F" unicode="&#x43f;" horiz-adv-x="601" 
d="M520 490q14 0 14 -15v-460q0 -15 -14 -15h-81q-14 0 -14 15v383h-250v-383q0 -15 -14 -15h-80q-14 0 -14 15v460q0 15 14 15h439z" />
    <glyph glyph-name="uni0440" unicode="&#x440;" horiz-adv-x="621" 
d="M81 -190q-14 0 -14 15v650q0 15 14 15h73q14 0 14 -15l2 -66q55 93 173 93q104 0 170 -73.5t66 -183.5q0 -111 -66 -184t-170 -73q-112 0 -168 85v-248q0 -15 -14 -15h-80zM322 87q67 0 109.5 43.5t42.5 114.5q0 70 -43 114t-109 44t-107 -44t-41 -115q0 -70 41 -113.5
t107 -43.5z" />
    <glyph glyph-name="uni0441" unicode="&#x441;" horiz-adv-x="531" 
d="M299 -12q-110 0 -183.5 74t-73.5 184t73 183t182 73q118 0 187 -85q9 -12 0 -21l-45 -43q-12 -12 -24 1q-48 48 -113 48q-69 0 -112.5 -44t-43.5 -112t44 -113t114 -45q65 0 111 48q13 13 25 1l45 -43q9 -9 0 -21q-69 -85 -186 -85z" />
    <glyph glyph-name="uni0442" unicode="&#x442;" horiz-adv-x="463" 
d="M192 0q-15 0 -15 15v383h-120q-15 0 -15 15v62q0 15 15 15h349q15 0 15 -15v-62q0 -15 -15 -15h-121v-383q0 -15 -15 -15h-78z" />
    <glyph glyph-name="uni0443" unicode="&#x443;" horiz-adv-x="560" 
d="M168 -190q-19 0 -11 16l70 173l-189 474q-6 17 12 17h81q13 0 17 -12l132 -354l133 354q5 12 17 12h81q17 0 11 -17l-258 -651q-4 -12 -18 -12h-78z" />
    <glyph glyph-name="uni0444" unicode="&#x444;" horiz-adv-x="952" 
d="M437 -190q-15 0 -15 15v238q-58 -74 -154 -74q-97 0 -161.5 74t-64.5 182t64.5 182.5t161.5 74.5q95 0 154 -76v239q0 14 15 14h79q14 0 14 -14v-239q61 76 154 76q97 0 161.5 -74.5t64.5 -182.5t-64.5 -182t-161.5 -74q-95 0 -154 74v-238q0 -15 -14 -15h-79zM284 87
q61 0 99.5 46t38.5 111q0 67 -38.5 113t-99.5 46q-59 0 -98.5 -45.5t-39.5 -113.5q0 -67 39.5 -112t98.5 -45zM668 87q59 0 98.5 45t39.5 112q0 68 -39.5 113.5t-98.5 45.5q-61 0 -99.5 -46t-38.5 -113q0 -65 38.5 -111t99.5 -46z" />
    <glyph glyph-name="uni0445" unicode="&#x445;" horiz-adv-x="510" 
d="M49 0q-9 0 -11.5 5t2.5 13l150 233l-144 221q-4 8 -1.5 13t10.5 5h88q11 0 17 -10l95 -153l94 153q6 10 18 10h87q9 0 11.5 -5t-2.5 -13l-143 -221l150 -233q5 -8 2 -13t-11 -5h-88q-11 0 -17 10l-101 164l-101 -164q-6 -10 -18 -10h-87z" />
    <glyph glyph-name="uni0446" unicode="&#x446;" horiz-adv-x="614" 
d="M575 89q15 0 15 -14v-124q0 -15 -15 -15h-76q-14 0 -14 15v49h-404q-14 0 -14 15v460q0 15 14 15h80q14 0 14 -15v-383h250v383q0 15 14 15h81q14 0 14 -15v-386h41z" />
    <glyph glyph-name="uni0447" unicode="&#x447;" horiz-adv-x="564" 
d="M483 490q15 0 15 -15v-460q0 -15 -15 -15h-80q-14 0 -14 15v152q-52 -69 -156 -69q-83 0 -137 51t-54 159v167q0 15 14 15h80q14 0 14 -15v-157q0 -58 29.5 -90t84.5 -32q56 0 90.5 33t34.5 89v157q0 15 14 15h80z" />
    <glyph glyph-name="uni0448" unicode="&#x448;" horiz-adv-x="751" 
d="M670 490q14 0 14 -15v-460q0 -15 -14 -15h-589q-14 0 -14 15v460q0 15 14 15h80q14 0 14 -15v-383h146v383q0 15 14 15h81q14 0 14 -15v-383h145v383q0 15 15 15h80z" />
    <glyph glyph-name="uni0449" unicode="&#x449;" horiz-adv-x="762" 
d="M723 89q14 0 14 -14v-124q0 -15 -14 -15h-78q-14 0 -14 15v49h-550q-14 0 -14 15v460q0 15 14 15h80q14 0 14 -15v-383h146v383q0 15 14 15h81q14 0 14 -15v-383h145v383q0 15 15 15h80q14 0 14 -15v-386h39z" />
    <glyph glyph-name="uni044A" unicode="&#x44a;" horiz-adv-x="576" 
d="M350 334q184 0 184 -167t-184 -167h-251q-14 0 -14 15v386h-54q-14 0 -14 14v60q0 15 14 15h148q14 0 14 -15v-141h157zM337 87q93 0 93 80t-93 80h-144v-160h144z" />
    <glyph glyph-name="uni044B" unicode="&#x44b;" horiz-adv-x="766" 
d="M81 0q-14 0 -14 15v460q0 15 14 15h80q14 0 14 -15v-141h157q184 0 184 -167t-184 -167h-251zM605 0q-15 0 -15 15v460q0 15 15 15h80q14 0 14 -15v-460q0 -15 -14 -15h-80zM175 87h144q93 0 93 80t-93 80h-144v-160z" />
    <glyph glyph-name="uni044C" unicode="&#x44c;" horiz-adv-x="558" 
d="M81 0q-14 0 -14 15v460q0 15 14 15h80q14 0 14 -15v-141h157q184 0 184 -167t-184 -167h-251zM175 87h144q93 0 93 80t-93 80h-144v-160z" />
    <glyph glyph-name="uni044D" unicode="&#x44d;" horiz-adv-x="531" 
d="M234 502q110 0 183 -73t73 -183t-73.5 -184t-184.5 -74q-117 0 -186 85q-9 12 0 21l45 43q12 12 25 -1q46 -48 112 -48q57 0 98 32t54 84h-166q-14 0 -14 15v50q0 15 14 15h167q-11 53 -52.5 85.5t-99.5 32.5q-66 0 -112 -48q-13 -13 -25 -1l-45 43q-9 9 0 21
q69 85 187 85z" />
    <glyph glyph-name="uni044E" unicode="&#x44e;" horiz-adv-x="791" 
d="M496 502q108 0 180.5 -74t72.5 -183t-72.5 -183t-180.5 -74q-97 0 -166.5 59.5t-83.5 152.5h-71v-186q0 -15 -14 -15h-80q-14 0 -14 15v460q0 15 14 15h80q14 0 14 -15v-185h70q15 93 84.5 153t166.5 60zM496 88q64 0 106.5 43.5t42.5 113.5t-42.5 113.5t-106.5 43.5
q-65 0 -107.5 -43.5t-42.5 -113.5t42.5 -113.5t107.5 -43.5z" />
    <glyph glyph-name="uni044F" unicode="&#x44f;" horiz-adv-x="560" 
d="M479 490q14 0 14 -15v-460q0 -15 -14 -15h-80q-14 0 -14 15v141h-100l-126 -148q-7 -8 -17 -8h-84q-10 0 -12 5t4 13l124 142q-130 23 -130 163q0 167 184 167h251zM385 243v160h-144q-93 0 -93 -80t93 -80h144z" />
    <glyph glyph-name="uni0451" unicode="&#x451;" horiz-adv-x="565" 
d="M181 591q-23 0 -40 16.5t-17 40.5t17 40.5t40 16.5t40 -16.5t17 -40.5t-17 -40.5t-40 -16.5zM383 591q-23 0 -40 16.5t-17 40.5t17 40.5t40 16.5q24 0 41 -16.5t17 -40.5t-17 -40.5t-41 -16.5zM306 -12q-118 0 -191 74t-73 185q0 110 69.5 182.5t179.5 72.5
q106 0 169 -68.5t63 -164.5q0 -34 -9.5 -49t-36.5 -15h-330q10 -60 53.5 -95t114.5 -35q69 0 126 38q10 6 16 -3l28 -38q8 -10 -4 -22q-63 -62 -175 -62zM146 283h281q-4 60 -41 94t-95 34t-97.5 -34t-47.5 -94z" />
    <glyph glyph-name="uni0453" unicode="&#x453;" horiz-adv-x="431" 
d="M191 557q-20 0 -11 17l57 114q5 12 16 12h73q19 0 11 -17l-58 -114q-5 -12 -16 -12h-72zM82 0q-15 0 -15 15v460q0 15 15 15h297q15 0 15 -15v-59q0 -15 -15 -15h-204v-386q0 -15 -15 -15h-78z" />
    <glyph glyph-name="uni0454" unicode="&#x454;" horiz-adv-x="531" 
d="M485 94q9 -9 0 -21q-69 -85 -186 -85q-110 0 -183.5 74t-73.5 184t73 183t182 73q118 0 187 -85q9 -12 0 -21l-45 -43q-12 -12 -24 1q-48 48 -113 48q-58 0 -99.5 -32.5t-52.5 -85.5h167q15 0 15 -15v-50q0 -15 -15 -15h-166q13 -52 54 -84t99 -32q65 0 111 48
q13 13 25 1z" />
    <glyph glyph-name="uni0456" unicode="&#x456;" horiz-adv-x="243" 
d="M122 595q-27 0 -45 18.5t-18 44.5t18 44t45 18q26 0 44 -18t18 -44t-18 -44.5t-44 -18.5zM81 0q-14 0 -14 15v460q0 15 14 15h81q14 0 14 -15v-460q0 -15 -14 -15h-81z" />
    <glyph glyph-name="uni0457" unicode="&#x457;" horiz-adv-x="223" 
d="M11 591q-23 0 -40 16.5t-17 40.5t17 40.5t40 16.5t40 -16.5t17 -40.5t-17 -40.5t-40 -16.5zM213 591q-23 0 -40 16.5t-17 40.5t17 40.5t40 16.5q24 0 41 -16.5t17 -40.5t-17 -40.5t-41 -16.5zM71 0q-14 0 -14 15v460q0 15 14 15h81q14 0 14 -15v-460q0 -15 -14 -15h-81z
" />
    <glyph glyph-name="uni045C" unicode="&#x45c;" horiz-adv-x="558" 
d="M257 557q-20 0 -11 17l57 114q5 12 16 12h73q19 0 11 -17l-58 -114q-5 -12 -16 -12h-72zM523 18q7 -8 4.5 -13t-12.5 -5h-94q-11 0 -18 8l-172 196l-56 -58v-131q0 -15 -14 -15h-80q-14 0 -14 15v460q0 15 14 15h80q14 0 14 -15v-196l192 203q7 8 19 8h96q10 0 12 -5
t-5 -13l-189 -196z" />
    <glyph glyph-name="uni045E" unicode="&#x45e;" horiz-adv-x="560" 
d="M279 562q-63 0 -102.5 35t-44.5 88q-2 15 14 15h39q13 0 16 -14q6 -25 26.5 -42t51.5 -17q32 0 52.5 17t26.5 42q3 14 16 14h39q15 0 14 -15q-5 -53 -44.5 -88t-103.5 -35zM168 -190q-19 0 -11 16l70 173l-189 474q-6 17 12 17h81q13 0 17 -12l132 -354l133 354
q5 12 17 12h81q17 0 11 -17l-258 -651q-4 -12 -18 -12h-78z" />
    <glyph glyph-name="uni0490" unicode="&#x490;" horiz-adv-x="500" 
d="M458 736v-118h-2v-4q0 -15 -15 -15h-252v-584q0 -15 -15 -15h-83q-14 0 -14 15v670q0 15 14 15h267v36q0 15 15 15h70q15 0 15 -15z" />
    <glyph glyph-name="uni0491" unicode="&#x491;" horiz-adv-x="431" 
d="M379 552q15 0 15 -15v-121q0 -15 -15 -15h-204v-386q0 -15 -15 -15h-78q-15 0 -15 15v460q0 15 15 15h204v47q0 15 15 15h78z" />
    <glyph glyph-name="Wgrave" unicode="&#x1e80;" horiz-adv-x="1081" 
d="M574 767h-72q-11 0 -16 12l-58 114q-9 17 11 17h72q12 0 17 -12l57 -114q8 -17 -11 -17zM264 0q-15 0 -18 12l-203 671q-5 17 12 17h85q14 0 17 -12l156 -537l169 537q4 12 17 12h83q13 0 17 -12l169 -537l156 537q4 12 17 12h85q17 0 12 -17l-203 -671q-3 -12 -18 -12
h-90q-15 0 -18 12l-168 548l-169 -548q-3 -12 -18 -12h-90z" />
    <glyph glyph-name="wgrave" unicode="&#x1e81;" horiz-adv-x="876" 
d="M471 557h-72q-11 0 -16 12l-58 114q-9 17 11 17h73q11 0 16 -12l57 -114q8 -17 -11 -17zM213 0q-13 0 -18 12l-157 461q-6 17 12 17h77q13 0 18 -12l114 -355l121 355q4 12 18 12h80q13 0 18 -12l121 -355l114 355q5 12 17 12h78q17 0 11 -17l-156 -461q-5 -12 -18 -12
h-84q-13 0 -18 12l-123 355l-123 -355q-5 -12 -18 -12h-84z" />
    <glyph glyph-name="Wacute" unicode="&#x1e82;" horiz-adv-x="1081" 
d="M509 767q-20 0 -11 17l57 114q5 12 16 12h73q19 0 11 -17l-58 -114q-5 -12 -16 -12h-72zM264 0q-15 0 -18 12l-203 671q-5 17 12 17h85q14 0 17 -12l156 -537l169 537q4 12 17 12h83q13 0 17 -12l169 -537l156 537q4 12 17 12h85q17 0 12 -17l-203 -671q-3 -12 -18 -12
h-90q-15 0 -18 12l-168 548l-169 -548q-3 -12 -18 -12h-90z" />
    <glyph glyph-name="wacute" unicode="&#x1e83;" horiz-adv-x="876" 
d="M406 557q-20 0 -11 17l57 114q5 12 16 12h73q19 0 11 -17l-58 -114q-5 -12 -16 -12h-72zM213 0q-13 0 -18 12l-157 461q-6 17 12 17h77q13 0 18 -12l114 -355l121 355q4 12 18 12h80q13 0 18 -12l121 -355l114 355q5 12 17 12h78q17 0 11 -17l-156 -461q-5 -12 -18 -12
h-84q-13 0 -18 12l-123 355l-123 -355q-5 -12 -18 -12h-84z" />
    <glyph glyph-name="Wdieresis" unicode="&#x1e84;" horiz-adv-x="1081" 
d="M439 801q-23 0 -40 16.5t-17 40.5t17 40.5t40 16.5t40 -16.5t17 -40.5t-17 -40.5t-40 -16.5zM641 801q-23 0 -40 16.5t-17 40.5t17 40.5t40 16.5q24 0 41 -16.5t17 -40.5t-17 -40.5t-41 -16.5zM264 0q-15 0 -18 12l-203 671q-5 17 12 17h85q14 0 17 -12l156 -537l169 537
q4 12 17 12h83q13 0 17 -12l169 -537l156 537q4 12 17 12h85q17 0 12 -17l-203 -671q-3 -12 -18 -12h-90q-15 0 -18 12l-168 548l-169 -548q-3 -12 -18 -12h-90z" />
    <glyph glyph-name="wdieresis" unicode="&#x1e85;" horiz-adv-x="876" 
d="M337 591q-23 0 -40 16.5t-17 40.5t17 40.5t40 16.5t40 -16.5t17 -40.5t-17 -40.5t-40 -16.5zM539 591q-23 0 -40 16.5t-17 40.5t17 40.5t40 16.5q24 0 41 -16.5t17 -40.5t-17 -40.5t-41 -16.5zM213 0q-13 0 -18 12l-157 461q-6 17 12 17h77q13 0 18 -12l114 -355l121 355
q4 12 18 12h80q13 0 18 -12l121 -355l114 355q5 12 17 12h78q17 0 11 -17l-156 -461q-5 -12 -18 -12h-84q-13 0 -18 12l-123 355l-123 -355q-5 -12 -18 -12h-84z" />
    <glyph glyph-name="uni1E9E" unicode="&#x1e9e;" horiz-adv-x="650" 
d="M420 -12q-109 0 -175 81q-9 13 0 26l31 39q11 15 23 3q60 -52 114 -52q37 0 60 19.5t23 54.5q0 28 -16 47t-50 37l-61 35q-53 30 -79.5 63t-26.5 85q0 61 39.5 99t101.5 46q-33 34 -91 34q-57 0 -90.5 -29.5t-33.5 -91.5v-469q0 -15 -14 -15h-84q-14 0 -14 15v488
q0 96 63.5 146.5t164.5 50.5q128 0 191 -79v-132h-49q-34 0 -56 -16.5t-22 -45.5q0 -26 15 -41.5t48 -32.5l59 -33q55 -30 86 -68t31 -97q0 -77 -54.5 -122t-133.5 -45z" />
    <glyph glyph-name="Ygrave" unicode="&#x1ef2;" horiz-adv-x="613" 
d="M340 767h-72q-11 0 -16 12l-58 114q-9 17 11 17h73q11 0 16 -12l57 -114q8 -17 -11 -17zM265 0q-14 0 -14 15v315l-206 352q-10 18 9 18h88q12 0 18 -10l147 -257l147 257q6 10 17 10h88q20 0 10 -18l-206 -353v-314q0 -15 -15 -15h-83z" />
    <glyph glyph-name="ygrave" unicode="&#x1ef3;" horiz-adv-x="560" 
d="M313 557h-72q-11 0 -16 12l-58 114q-9 17 11 17h73q11 0 16 -12l57 -114q8 -17 -11 -17zM168 -190q-19 0 -11 16l70 173l-189 474q-6 17 12 17h81q13 0 17 -12l132 -354l133 354q5 12 17 12h81q17 0 11 -17l-258 -651q-4 -12 -18 -12h-78z" />
    <glyph glyph-name="endash" unicode="&#x2013;" horiz-adv-x="615" 
d="M66 235q-14 0 -14 14v61q0 14 14 14h482q14 0 14 -14v-61q0 -14 -14 -14h-482z" />
    <glyph glyph-name="emdash" unicode="&#x2014;" horiz-adv-x="675" 
d="M66 235q-14 0 -14 14v61q0 14 14 14h542q14 0 14 -14v-61q0 -14 -14 -14h-542z" />
    <glyph glyph-name="quoteleft" unicode="&#x2018;" horiz-adv-x="217" 
d="M184 715v-30q-47 0 -73 -42q-17 -29 -4 -39q3 -3 8 -3q29 1 49.5 -19t20.5 -49t-21 -49.5t-51 -20.5q-33 0 -57 27t-24 73q0 66 47.5 110t104.5 42z" />
    <glyph glyph-name="quoteright" unicode="&#x2019;" horiz-adv-x="217" 
d="M33 466v30q48 0 74 42q17 29 4 40q-3 2 -8 2q-30 0 -50 20t-20 49t21 49t50 20q34 0 57.5 -26.5t23.5 -73.5q0 -66 -47 -110t-105 -42z" />
    <glyph glyph-name="quotesinglbase" unicode="&#x201a;" horiz-adv-x="237" 
d="M43 -127v30q48 -1 74 42q17 29 4 39q-3 3 -8 3q-30 -1 -50 19t-20 49t21 49t50 20q34 0 57.5 -26.5t23.5 -72.5q0 -67 -47 -110.5t-105 -41.5z" />
    <glyph glyph-name="quotedblleft" unicode="&#x201c;" horiz-adv-x="402" 
d="M184 715v-30q-47 0 -73 -42q-17 -29 -4 -39q3 -3 8 -3q29 1 49.5 -19t20.5 -49t-21 -49.5t-51 -20.5q-33 0 -57 27t-24 73q0 66 47.5 110t104.5 42zM369 715v-30q-47 0 -73 -42q-17 -29 -5 -39q3 -3 8 -3q30 1 50.5 -19t20.5 -49t-21 -49.5t-51 -20.5q-33 0 -57 26.5
t-24 73.5q0 67 47 110.5t105 41.5z" />
    <glyph glyph-name="quotedblright" unicode="&#x201d;" horiz-adv-x="402" 
d="M33 466v30q48 0 74 42q17 29 4 40q-3 2 -8 2q-30 0 -50 20t-20 49t21 49t50 20q34 0 57.5 -26.5t23.5 -73.5q0 -66 -47 -110t-105 -42zM218 466v30q47 0 73 42q17 29 5 40q-3 2 -8 2q-30 0 -50 20t-20 49t21 49t50 20q34 0 57.5 -26.5t23.5 -73.5q0 -66 -47 -110
t-105 -42z" />
    <glyph glyph-name="quotedblbase" unicode="&#x201e;" horiz-adv-x="422" 
d="M43 -127v30q48 -1 74 42q17 29 4 39q-3 3 -8 3q-30 -1 -50 19t-20 49t21 49t50 20q34 0 57.5 -26.5t23.5 -72.5q0 -67 -47 -110.5t-105 -41.5zM228 -127v30q47 -1 73 42q17 28 5 39q-3 3 -8 3q-30 -1 -50 19t-20 49t21 49t50 20q34 0 57.5 -26.5t23.5 -72.5
q0 -67 -47 -110.5t-105 -41.5z" />
    <glyph glyph-name="dagger" unicode="&#x2020;" horiz-adv-x="460" 
d="M203 370q-15 0 -15 15v108h-108q-15 0 -15 15v55q0 14 15 14h108v108q0 15 15 15h55q14 0 14 -15v-108h108q15 0 15 -14v-55q0 -15 -15 -15h-108v-108q0 -15 -14 -15h-55z" />
    <glyph glyph-name="daggerdbl" unicode="&#x2021;" horiz-adv-x="460" 
d="M203 370q-15 0 -15 15v108h-108q-15 0 -15 15v55q0 14 15 14h108v108q0 15 15 15h55q14 0 14 -15v-108h108q15 0 15 -14v-55q0 -15 -15 -15h-108v-108q0 -15 -14 -15h-55zM203 -20q-15 0 -15 15v109h-108q-15 0 -15 14v55q0 15 15 15h108v108q0 14 15 14h55q14 0 14 -14
v-108h108q15 0 15 -15v-55q0 -14 -15 -14h-108v-109q0 -15 -14 -15h-55z" />
    <glyph glyph-name="bullet" unicode="&#x2022;" horiz-adv-x="302" 
d="M151 189q-35 0 -60.5 25.5t-25.5 60.5t25.5 60.5t60.5 25.5t60.5 -25.5t25.5 -60.5t-25.5 -60.5t-60.5 -25.5z" />
    <glyph glyph-name="ellipsis" unicode="&#x2026;" horiz-adv-x="629" 
d="M111 -13q-29 0 -49 20t-20 48q0 29 20 49t49 20q28 0 48 -20.5t20 -48.5t-20 -48t-48 -20zM315 -13q-29 0 -49 20t-20 48q0 29 20 49t49 20q28 0 48 -20.5t20 -48.5t-20 -48t-48 -20zM519 -13q-29 0 -49 20t-20 48q0 29 20 49t49 20q28 0 48 -20.5t20 -48.5t-20 -48
t-48 -20z" />
    <glyph glyph-name="perthousand" unicode="&#x2030;" horiz-adv-x="1046" 
d="M187 433q-57 0 -97 39.5t-40 96.5t40 96.5t97 39.5t97 -39.5t40 -96.5t-40 -96.5t-97 -39.5zM163 6l-40 27q-11 8 -4 20l427 636q8 13 19 5l40 -27q11 -8 4 -20l-427 -636q-8 -13 -19 -5zM187 505q27 0 45 18t18 46t-18 46t-45 18t-45 -18t-18 -46t18 -46t45 -18zM541 -5
q-57 0 -97 39.5t-40 96.5t40 96.5t97 39.5t97 -39.5t40 -96.5t-40 -96.5t-97 -39.5zM859 -5q-58 0 -97.5 39t-39.5 97t39.5 97t97.5 39q57 0 97 -39.5t40 -96.5t-40 -96.5t-97 -39.5zM541 67q27 0 45 18t18 46t-18 46t-45 18t-45 -18t-18 -46t18 -46t45 -18zM859 67
q27 0 45 18.5t18 45.5t-18 45.5t-45 18.5t-45.5 -18t-18.5 -46t18.5 -46t45.5 -18z" />
    <glyph glyph-name="guilsinglleft" unicode="&#x2039;" horiz-adv-x="239" 
d="M176 135l-121 90q-8 7 -8 17v68q0 9 8 16l121 90q5 5 10.5 3t5.5 -10v-57q0 -12 -8 -17l-84 -59l84 -59q8 -7 8 -17v-58q0 -8 -5.5 -9.5t-10.5 2.5z" />
    <glyph glyph-name="guilsinglright" unicode="&#x203a;" horiz-adv-x="239" 
d="M63 135q-5 -4 -10.5 -2.5t-5.5 9.5v58q0 10 8 17l84 59l-84 59q-8 5 -8 17v57q0 8 5.5 10t10.5 -3l121 -90q8 -7 8 -16v-68q0 -10 -8 -17z" />
    <glyph glyph-name="fraction" unicode="&#x2044;" horiz-adv-x="197" 
d="M-140 0l408 700h69l-408 -700h-69z" />
    <glyph glyph-name="Euro" unicode="&#x20ac;" horiz-adv-x="749" 
d="M692 105q11 -9 -1 -21q-100 -97 -241 -97q-128 0 -223 74.5t-124 194.5h-48q-15 0 -15 14v39q0 14 15 14h38q-1 8 -1 24v17h-37q-15 0 -15 14v39q0 14 15 14h46q27 123 123.5 200t225.5 77q140 0 241 -96q11 -11 1 -22l-51 -55q-9 -10 -21 -1q-74 64 -169 64
q-83 0 -146 -45.5t-87 -121.5h152q14 0 14 -14v-39q0 -14 -14 -14h-165v-17q0 -16 1 -24h164q14 0 14 -14v-39q0 -14 -14 -14h-150q26 -73 88 -116t143 -43q95 0 169 64q11 10 21 0z" />
    <glyph glyph-name="trademark" unicode="&#x2122;" horiz-adv-x="548" 
d="M136 520q-5 0 -5 5v140h-61q-5 0 -5 5v25q0 5 5 5h162q5 0 5 -5v-25q0 -5 -5 -5h-61v-140q0 -5 -5 -5h-30zM275 520q-5 0 -5 5v170q0 5 5 5h34q5 0 6 -3l61 -128l61 128q1 3 6 3h35q5 0 5 -5v-170q0 -5 -5 -5h-31q-5 0 -5 5v106l-49 -108q-1 -3 -6 -3h-22q-5 0 -6 3
l-49 108v-106q0 -5 -5 -5h-30z" />
    <glyph glyph-name="oneeighth" unicode="&#x215b;" horiz-adv-x="795" 
d="M71 323v315h-41v62h105v-377h-64zM115 0l408 700h69l-408 -700h-69zM624 -4q-55 0 -93.5 30t-38.5 82q0 34 17.5 60.5t46.5 38.5q-45 26 -45 77q0 40 29.5 68.5t83.5 28.5q53 0 82 -28.5t29 -68.5q0 -51 -44 -77q29 -12 46.5 -38.5t17.5 -60.5q0 -52 -38 -82t-93 -30z
M624 234q23 0 37 14t14 34t-13.5 33.5t-37.5 13.5t-37.5 -13.5t-13.5 -33.5t14 -34t37 -14zM624 50q29 0 48 17.5t19 45.5q0 29 -19 47t-48 18q-30 0 -49 -18t-19 -47q0 -28 19.5 -45.5t48.5 -17.5z" />
    <glyph glyph-name="threeeighths" unicode="&#x215c;" horiz-adv-x="876" 
d="M176 325q-69 0 -102.5 34.5t-33.5 91.5h64q0 -32 18.5 -51t54.5 -19q32 0 52.5 15.5t20.5 43.5q0 33 -25 46t-77 13v49q88 0 88 58q0 22 -17.5 35t-46.5 13q-63 0 -63 -66h-63q-1 58 32 90t95 32q60 0 93.5 -27.5t33.5 -71.5q0 -55 -56 -79q72 -24 72 -94
q0 -52 -38.5 -82.5t-101.5 -30.5zM196 0l408 700h69l-408 -700h-69zM705 -4q-55 0 -93.5 30t-38.5 82q0 34 17.5 60.5t46.5 38.5q-45 26 -45 77q0 40 29.5 68.5t83.5 28.5q53 0 82 -28.5t29 -68.5q0 -51 -44 -77q29 -12 46.5 -38.5t17.5 -60.5q0 -52 -38 -82t-93 -30z
M705 234q23 0 37 14t14 34t-13.5 33.5t-37.5 13.5t-37.5 -13.5t-13.5 -33.5t14 -34t37 -14zM705 50q29 0 48 17.5t19 45.5q0 29 -19 47t-48 18q-30 0 -49 -18t-19 -47q0 -28 19.5 -45.5t48.5 -17.5z" />
    <glyph glyph-name="fiveeighths" unicode="&#x215d;" horiz-adv-x="896" 
d="M173 317q-53 0 -88.5 26t-44.5 63l56 26q6 -25 26.5 -41.5t50.5 -16.5q34 0 55.5 20.5t21.5 54.5q0 35 -21.5 55.5t-55.5 20.5q-44 0 -68 -38l-55 15l26 198h206v-62h-155l-9 -76q22 19 65 19q57 0 95 -36.5t38 -94.5q0 -60 -40 -96.5t-103 -36.5zM216 0l408 700h69
l-408 -700h-69zM725 -4q-55 0 -93.5 30t-38.5 82q0 34 17.5 60.5t46.5 38.5q-45 26 -45 77q0 40 29.5 68.5t83.5 28.5q53 0 82 -28.5t29 -68.5q0 -51 -44 -77q29 -12 46.5 -38.5t17.5 -60.5q0 -52 -38 -82t-93 -30zM725 234q23 0 37 14t14 34t-13.5 33.5t-37.5 13.5
t-37.5 -13.5t-13.5 -33.5t14 -34t37 -14zM725 50q29 0 48 17.5t19 45.5q0 29 -19 47t-48 18q-30 0 -49 -18t-19 -47q0 -28 19.5 -45.5t48.5 -17.5z" />
    <glyph glyph-name="seveneighths" unicode="&#x215e;" horiz-adv-x="866" 
d="M64 323l135 315h-159v62h251l-157 -377h-70zM186 0l408 700h69l-408 -700h-69zM695 -4q-55 0 -93.5 30t-38.5 82q0 34 17.5 60.5t46.5 38.5q-45 26 -45 77q0 40 29.5 68.5t83.5 28.5q53 0 82 -28.5t29 -68.5q0 -51 -44 -77q29 -12 46.5 -38.5t17.5 -60.5q0 -52 -38 -82
t-93 -30zM695 234q23 0 37 14t14 34t-13.5 33.5t-37.5 13.5t-37.5 -13.5t-13.5 -33.5t14 -34t37 -14zM695 50q29 0 48 17.5t19 45.5q0 29 -19 47t-48 18q-30 0 -49 -18t-19 -47q0 -28 19.5 -45.5t48.5 -17.5z" />
    <glyph glyph-name="partialdiff" unicode="&#x2202;" horiz-adv-x="560" 
d="M281 -13q-102 0 -170.5 67.5t-68.5 168.5q0 98 63.5 165.5t145.5 67.5q27 0 43 -8l-162 200q-9 11 2 19l55 49q11 9 21 -3l231 -298q78 -98 78 -192q0 -100 -68.5 -168t-169.5 -68zM280 87q58 0 96 39t38 100q0 60 -38 99t-96 39q-57 0 -95 -39t-38 -99q0 -61 37.5 -100
t95.5 -39z" />
    <glyph glyph-name="product" unicode="&#x220f;" horiz-adv-x="698" 
d="M72 -190q-15 0 -15 15v860q0 15 15 15h555q14 0 14 -15v-860q0 -15 -14 -15h-73q-15 0 -15 15v774h-380v-774q0 -15 -13 -15h-74z" />
    <glyph glyph-name="summation" unicode="&#x2211;" horiz-adv-x="667" 
d="M72 -190q-15 0 -15 15v76q0 9 6 18l269 336l-269 336q-6 9 -6 18v76q0 15 15 15h522q15 0 15 -15v-72q0 -15 -15 -15h-408l268 -332q9 -11 0 -22l-268 -332h408q15 0 15 -15v-72q0 -15 -15 -15h-522z" />
    <glyph glyph-name="minus" unicode="&#x2212;" horiz-adv-x="480" 
d="M80 243q-15 0 -15 14v55q0 14 15 14h320q15 0 15 -14v-55q0 -14 -15 -14h-320z" />
    <glyph glyph-name="radical" unicode="&#x221a;" horiz-adv-x="656" 
d="M283 -190q-14 0 -17 12l-110 409h-99q-15 0 -15 15v70q0 15 15 15h156q14 0 17 -13l100 -389l189 758q3 13 16 13h66q16 0 13 -17l-218 -860q-3 -13 -16 -13h-97z" />
    <glyph glyph-name="infinity" unicode="&#x221e;" horiz-adv-x="837" 
d="M228 95q-72 0 -121.5 46.5t-49.5 120.5q0 72 49.5 118t121.5 46q101 0 191 -107q90 107 191 107q71 0 120.5 -46.5t49.5 -117.5q0 -74 -49.5 -120.5t-120.5 -46.5q-101 0 -191 107q-90 -107 -191 -107zM233 167q70 0 138 94q-67 93 -138 93q-42 0 -68.5 -26.5
t-26.5 -66.5t26.5 -67t68.5 -27zM604 167q42 0 68.5 27t26.5 67t-26.5 66.5t-68.5 26.5q-71 0 -138 -93q68 -94 138 -94z" />
    <glyph glyph-name="integral" unicode="&#x222b;" horiz-adv-x="408" 
d="M109 -190q-39 0 -63 12q-9 4 -9 14v68q0 9 12 7q30 -4 38 -4q36 0 49.5 18t13.5 52v605q0 149 150 149q38 0 62 -12q9 -4 9 -14v-68q0 -9 -12 -7q-30 4 -38 4q-36 0 -49.5 -18t-13.5 -52v-605q0 -74 -38.5 -111.5t-110.5 -37.5z" />
    <glyph glyph-name="approxequal" unicode="&#x2248;" horiz-adv-x="491" 
d="M327 282q-35 0 -65 19t-55.5 37.5t-48.5 18.5q-39 0 -49 -32q-3 -9 -12 -9h-26q-11 0 -11 12q1 48 30.5 73.5t73.5 25.5q28 0 53 -11.5t40.5 -26t36 -26t39.5 -11.5q38 0 49 32q3 9 12 9h26q11 0 11 -12q-1 -48 -30.5 -73.5t-73.5 -25.5zM327 122q-35 0 -65 19
t-55.5 37.5t-48.5 18.5q-39 0 -49 -32q-3 -9 -12 -9h-26q-11 0 -11 12q1 48 30.5 73.5t73.5 25.5q28 0 53 -11.5t40.5 -26t36 -26t39.5 -11.5q38 0 49 32q3 9 12 9h26q11 0 11 -12q-1 -48 -30.5 -73.5t-73.5 -25.5z" />
    <glyph glyph-name="notequal" unicode="&#x2260;" horiz-adv-x="480" 
d="M400 316h-111l-23 -62h134q15 0 15 -15v-55q0 -14 -15 -14h-165l-59 -158q-4 -12 -18 -12h-40q-17 0 -11 17l57 153h-84q-15 0 -15 14v55q0 15 15 15h115l23 62h-138q-15 0 -15 14v55q0 15 15 15h169l55 149q4 12 18 12h40q18 0 12 -17l-54 -144h80q15 0 15 -15v-55
q0 -14 -15 -14z" />
    <glyph glyph-name="lessequal" unicode="&#x2264;" horiz-adv-x="470" 
d="M392 173l-320 170q-9 5 -9 15v50q0 10 9 15l320 170q15 9 15 -8v-61q0 -10 -9 -14l-250 -127l250 -127q9 -4 9 -14v-61q0 -17 -15 -8zM76 0q-14 0 -14 14v41q0 14 14 14h317q14 0 14 -14v-41q0 -14 -14 -14h-317z" />
    <glyph glyph-name="greaterequal" unicode="&#x2265;" horiz-adv-x="475" 
d="M81 173q-16 -9 -16 8v61q0 9 10 14l250 127l-250 127q-10 5 -10 14v61q0 17 16 8l319 -170q10 -5 10 -15v-50q0 -10 -10 -15zM396 0h-317q-14 0 -14 14v41q0 14 14 14h317q14 0 14 -14v-41q0 -14 -14 -14z" />
    <glyph glyph-name="lozenge" unicode="&#x25ca;" horiz-adv-x="571" 
d="M227 0q-13 0 -17 11l-146 329q-4 10 0 20l146 329q4 11 17 11h117q13 0 17 -11l146 -329q4 -10 0 -20l-146 -329q-4 -11 -17 -11h-117zM285 66l126 284l-126 284l-125 -284z" />
    <glyph glyph-name="uni2713" unicode="&#x2713;" horiz-adv-x="810" 
d="M274 101l-233 233q-10 11 0 21l60 60q11 9 20 0l164 -165l404 405q11 9 21 0l58 -59q10 -10 0 -21l-474 -474q-10 -10 -20 0z" />
    <glyph glyph-name="uniFEFF" unicode="&#xfeff;" horiz-adv-x="197" 
 />
    <glyph glyph-name="i.loclTRK" horiz-adv-x="223" 
d="M112 595q-26 0 -44 18.5t-18 44.5t18 44t44 18q27 0 44.5 -18t17.5 -44q0 -27 -17.5 -45t-44.5 -18zM71 0q-14 0 -14 15v460q0 15 14 15h81q14 0 14 -15v-460q0 -15 -14 -15h-81z" />
    <glyph glyph-name="a.ss01" horiz-adv-x="552" 
d="M189 -13q-72 0 -112 38.5t-40 105.5q0 64 39 99t124 44l163 16v41q0 44 -23 63.5t-78 19.5q-96 0 -102 -65q-2 -11 -14 -11h-71q-15 0 -14 15q7 149 204 149q109 0 158 -42.5t49 -131.5v-207q0 -31 16 -40q13 -7 13 -17v-52q0 -12 -9 -14.5t-30 -2.5q-37 0 -62.5 19
t-32.5 54q-67 -81 -178 -81zM225 76q87 0 138 66v74l-149 -16q-38 -4 -53.5 -19t-15.5 -41q0 -64 80 -64z" />
    <glyph glyph-name="aacute.ss01" horiz-adv-x="552" 
d="M237 557q-20 0 -11 17l57 114q5 12 16 12h73q19 0 11 -17l-58 -114q-5 -12 -16 -12h-72zM189 -13q-72 0 -112 38.5t-40 105.5q0 64 39 99t124 44l163 16v41q0 44 -23 63.5t-78 19.5q-96 0 -102 -65q-2 -11 -14 -11h-71q-15 0 -14 15q7 149 204 149q109 0 158 -42.5
t49 -131.5v-207q0 -31 16 -40q13 -7 13 -17v-52q0 -12 -9 -14.5t-30 -2.5q-37 0 -62.5 19t-32.5 54q-67 -81 -178 -81zM225 76q87 0 138 66v74l-149 -16q-38 -4 -53.5 -19t-15.5 -41q0 -64 80 -64z" />
    <glyph glyph-name="abreve.ss01" horiz-adv-x="552" 
d="M269 562q-63 0 -102.5 35t-44.5 88q-2 15 14 15h39q13 0 16 -14q6 -25 26.5 -42t51.5 -17q32 0 52.5 17t26.5 42q3 14 16 14h39q15 0 14 -15q-5 -53 -44.5 -88t-103.5 -35zM189 -13q-72 0 -112 38.5t-40 105.5q0 64 39 99t124 44l163 16v41q0 44 -23 63.5t-78 19.5
q-96 0 -102 -65q-2 -11 -14 -11h-71q-15 0 -14 15q7 149 204 149q109 0 158 -42.5t49 -131.5v-207q0 -31 16 -40q13 -7 13 -17v-52q0 -12 -9 -14.5t-30 -2.5q-37 0 -62.5 19t-32.5 54q-67 -81 -178 -81zM225 76q87 0 138 66v74l-149 -16q-38 -4 -53.5 -19t-15.5 -41
q0 -64 80 -64z" />
    <glyph glyph-name="uni01CE.ss01" horiz-adv-x="552" 
d="M135 701h58q10 0 17 -8l59 -73l59 73q7 8 17 8h57q8 0 10 -6t-3 -11l-88 -106q-7 -8 -17 -8h-71q-9 0 -16 8l-89 106q-5 5 -3 11t10 6zM189 -13q-72 0 -112 38.5t-40 105.5q0 64 39 99t124 44l163 16v41q0 44 -23 63.5t-78 19.5q-96 0 -102 -65q-2 -11 -14 -11h-71
q-15 0 -14 15q7 149 204 149q109 0 158 -42.5t49 -131.5v-207q0 -31 16 -40q13 -7 13 -17v-52q0 -12 -9 -14.5t-30 -2.5q-37 0 -62.5 19t-32.5 54q-67 -81 -178 -81zM225 76q87 0 138 66v74l-149 -16q-38 -4 -53.5 -19t-15.5 -41q0 -64 80 -64z" />
    <glyph glyph-name="acircumflex.ss01" horiz-adv-x="552" 
d="M135 569q-8 0 -10 5.5t3 10.5l89 107q7 8 16 8h71q10 0 17 -8l88 -107q5 -5 3 -10.5t-10 -5.5h-57q-10 0 -17 8l-59 72l-59 -72q-7 -8 -17 -8h-58zM189 -13q-72 0 -112 38.5t-40 105.5q0 64 39 99t124 44l163 16v41q0 44 -23 63.5t-78 19.5q-96 0 -102 -65
q-2 -11 -14 -11h-71q-15 0 -14 15q7 149 204 149q109 0 158 -42.5t49 -131.5v-207q0 -31 16 -40q13 -7 13 -17v-52q0 -12 -9 -14.5t-30 -2.5q-37 0 -62.5 19t-32.5 54q-67 -81 -178 -81zM225 76q87 0 138 66v74l-149 -16q-38 -4 -53.5 -19t-15.5 -41q0 -64 80 -64z" />
    <glyph glyph-name="adieresis.ss01" horiz-adv-x="552" 
d="M168 591q-23 0 -40 16.5t-17 40.5t17 40.5t40 16.5t40 -16.5t17 -40.5t-17 -40.5t-40 -16.5zM370 591q-23 0 -40 16.5t-17 40.5t17 40.5t40 16.5q24 0 41 -16.5t17 -40.5t-17 -40.5t-41 -16.5zM189 -13q-72 0 -112 38.5t-40 105.5q0 64 39 99t124 44l163 16v41
q0 44 -23 63.5t-78 19.5q-96 0 -102 -65q-2 -11 -14 -11h-71q-15 0 -14 15q7 149 204 149q109 0 158 -42.5t49 -131.5v-207q0 -31 16 -40q13 -7 13 -17v-52q0 -12 -9 -14.5t-30 -2.5q-37 0 -62.5 19t-32.5 54q-67 -81 -178 -81zM225 76q87 0 138 66v74l-149 -16
q-38 -4 -53.5 -19t-15.5 -41q0 -64 80 -64z" />
    <glyph glyph-name="agrave.ss01" horiz-adv-x="552" 
d="M302 557h-72q-11 0 -16 12l-58 114q-9 17 11 17h73q11 0 16 -12l57 -114q8 -17 -11 -17zM189 -13q-72 0 -112 38.5t-40 105.5q0 64 39 99t124 44l163 16v41q0 44 -23 63.5t-78 19.5q-96 0 -102 -65q-2 -11 -14 -11h-71q-15 0 -14 15q7 149 204 149q109 0 158 -42.5
t49 -131.5v-207q0 -31 16 -40q13 -7 13 -17v-52q0 -12 -9 -14.5t-30 -2.5q-37 0 -62.5 19t-32.5 54q-67 -81 -178 -81zM225 76q87 0 138 66v74l-149 -16q-38 -4 -53.5 -19t-15.5 -41q0 -64 80 -64z" />
    <glyph glyph-name="amacron.ss01" horiz-adv-x="552" 
d="M125 614q-15 0 -15 15v56q0 15 15 15h289q15 0 15 -15v-56q0 -15 -15 -15h-289zM189 -13q-72 0 -112 38.5t-40 105.5q0 64 39 99t124 44l163 16v41q0 44 -23 63.5t-78 19.5q-96 0 -102 -65q-2 -11 -14 -11h-71q-15 0 -14 15q7 149 204 149q109 0 158 -42.5t49 -131.5
v-207q0 -31 16 -40q13 -7 13 -17v-52q0 -12 -9 -14.5t-30 -2.5q-37 0 -62.5 19t-32.5 54q-67 -81 -178 -81zM225 76q87 0 138 66v74l-149 -16q-38 -4 -53.5 -19t-15.5 -41q0 -64 80 -64z" />
    <glyph glyph-name="aogonek.ss01" horiz-adv-x="552" 
d="M488 81q13 -7 13 -17v-52q0 -17 -32 -17q-38 0 -64 -22t-26 -55q0 -28 19.5 -41.5t56.5 -5.5v-69q-21 -9 -48.5 -9t-54 9t-44.5 33t-18 59q0 86 100 128q-17 19 -23 46q-67 -81 -178 -81q-72 0 -112 38.5t-40 105.5q0 64 39 99t124 44l163 16v41q0 44 -23 63.5t-78 19.5
q-96 0 -102 -65q-2 -11 -14 -11h-71q-15 0 -14 15q7 149 204 149q109 0 158 -42.5t49 -131.5v-207q0 -31 16 -40zM363 142v74l-149 -16q-38 -4 -53.5 -19t-15.5 -41q0 -64 80 -64q87 0 138 66z" />
    <glyph glyph-name="aring.ss01" horiz-adv-x="552" 
d="M270 549q-41 0 -67 26t-26 64q0 39 26 65.5t67 26.5q40 0 66 -26.5t26 -65.5q0 -38 -26 -64t-66 -26zM270 614q10 0 17.5 7.5t7.5 18.5t-7.5 18.5t-17.5 7.5q-11 0 -18.5 -7.5t-7.5 -18.5t7.5 -18.5t18.5 -7.5zM189 -13q-72 0 -112 38.5t-40 105.5q0 64 39 99t124 44
l163 16v41q0 44 -23 63.5t-78 19.5q-96 0 -102 -65q-2 -11 -14 -11h-71q-15 0 -14 15q7 149 204 149q109 0 158 -42.5t49 -131.5v-207q0 -31 16 -40q13 -7 13 -17v-52q0 -12 -9 -14.5t-30 -2.5q-37 0 -62.5 19t-32.5 54q-67 -81 -178 -81zM225 76q87 0 138 66v74l-149 -16
q-38 -4 -53.5 -19t-15.5 -41q0 -64 80 -64z" />
    <glyph glyph-name="atilde.ss01" horiz-adv-x="552" 
d="M344 589q-41 0 -85.5 34t-68.5 34q-33 0 -45 -29q-3 -9 -11 -9h-23q-10 0 -10 13q4 43 30 65.5t66 22.5t84.5 -34t68.5 -34q32 0 44 29q3 9 11 9h24q10 0 10 -10q-4 -45 -30 -68t-65 -23zM189 -13q-72 0 -112 38.5t-40 105.5q0 64 39 99t124 44l163 16v41q0 44 -23 63.5
t-78 19.5q-96 0 -102 -65q-2 -11 -14 -11h-71q-15 0 -14 15q7 149 204 149q109 0 158 -42.5t49 -131.5v-207q0 -31 16 -40q13 -7 13 -17v-52q0 -12 -9 -14.5t-30 -2.5q-37 0 -62.5 19t-32.5 54q-67 -81 -178 -81zM225 76q87 0 138 66v74l-149 -16q-38 -4 -53.5 -19
t-15.5 -41q0 -64 80 -64z" />
    <glyph glyph-name="t.ss02" horiz-adv-x="372" 
d="M147 0q-15 0 -15 15v386h-80q-15 0 -15 15v59q0 15 15 15h80v135q0 15 15 15h78q15 0 15 -15v-135h80q15 0 15 -15v-59q0 -15 -15 -15h-80v-386q0 -15 -15 -15h-78z" />
    <glyph glyph-name="zero.tf" horiz-adv-x="730" 
d="M368 -13q-119 0 -195 93t-76 267t76 267.5t195 93.5t195 -93.5t76 -267.5t-75.5 -267t-195.5 -93zM368 88q80 0 123 69t43 190t-43 190.5t-123 69.5t-123 -69.5t-43 -190.5t43 -190t123 -69z" />
    <glyph glyph-name="one.tf" horiz-adv-x="730" 
d="M403 0q-14 0 -14 15v592h-112q-13 0 -13 15v63q0 15 13 15h206q14 0 14 -15v-670q0 -15 -14 -15h-80z" />
    <glyph glyph-name="two.tf" horiz-adv-x="730" 
d="M167 0q-15 0 -15 15v64q0 11 7 19l214 238q28 32 40.5 47t29 49.5t16.5 65.5q0 49 -31.5 79.5t-84.5 30.5q-44 0 -72 -20t-51 -53q-9 -13 -21 -1l-46 45q-10 10 -2 22q72 107 200 107q96 0 155 -57.5t59 -143.5q0 -41 -17 -82t-31.5 -61t-40.5 -50l-3.5 -3.5t-2.5 -3.5
l-189 -214h269q15 0 15 -15v-63q0 -15 -15 -15h-383z" />
    <glyph glyph-name="three.tf" horiz-adv-x="730" 
d="M339 -13q-133 0 -202 102q-7 12 3 20l50 45q10 10 19 -2q51 -65 125 -65q56 0 90 33.5t34 84.5q0 52 -35.5 85t-93.5 33h-22q-15 0 -15 14v61q0 14 15 14h22q49 0 77.5 29.5t28.5 70.5q0 42 -28.5 69t-73.5 27q-68 0 -107 -63q-8 -12 -20 -2l-47 46q-10 8 -2 19
q28 44 76.5 72t110.5 28q83 0 139.5 -49.5t56.5 -128.5q0 -54 -28 -94t-73 -62q56 -20 92 -66.5t36 -114.5q0 -90 -64.5 -148t-163.5 -58z" />
    <glyph glyph-name="four.tf" horiz-adv-x="730" 
d="M434 0q-14 0 -14 15v134h-282q-15 0 -15 15v67q0 11 4 17l287 442q6 10 17 10h82q15 0 15 -15v-445h67q13 0 13 -15v-61q0 -15 -13 -15h-67v-134q0 -15 -14 -15h-80zM230 240h190v296z" />
    <glyph glyph-name="five.tf" horiz-adv-x="730" 
d="M341 -13q-69 0 -121.5 29.5t-79.5 69.5q-7 13 5 22l53 42q13 9 23 -5q44 -58 119 -58q62 0 102 40.5t40 102.5q0 61 -39.5 100t-98.5 39q-68 0 -109 -49q-8 -12 -25 -5l-53 21q-13 6 -10 18l73 333q3 13 16 13h291q14 0 14 -15v-63q0 -15 -14 -15h-225l-39 -173
q48 27 104 27q94 0 156.5 -66t62.5 -167q0 -108 -70.5 -174.5t-174.5 -66.5z" />
    <glyph glyph-name="six.tf" horiz-adv-x="730" 
d="M371 -13q-101 0 -169.5 68t-68.5 168q0 93 77 192l232 298q11 12 20 3l56 -49q11 -8 2 -19l-162 -200q14 8 43 8q82 0 145.5 -67.5t63.5 -165.5q0 -101 -68.5 -168.5t-170.5 -67.5zM371 87q58 0 96 39t38 100q0 60 -38 99t-96 39q-57 0 -95 -39t-38 -99q0 -61 38 -100
t95 -39z" />
    <glyph glyph-name="seven.tf" horiz-adv-x="730" 
d="M217 0q-17 0 -11 18l244 589h-299q-14 0 -14 15v63q0 15 14 15h419q8 0 11 -5.5t0 -13.5l-269 -666q-5 -15 -18 -15h-77z" />
    <glyph glyph-name="eight.tf" horiz-adv-x="730" 
d="M366 -13q-96 0 -164.5 59.5t-68.5 154.5q0 68 35.5 118.5t90.5 72.5q-83 49 -83 143q0 72 53 122.5t137 50.5q85 0 137.5 -50t52.5 -123q0 -95 -83 -143q55 -22 91 -72.5t36 -118.5q0 -95 -68.5 -154.5t-165.5 -59.5zM366 432q41 0 67.5 27.5t26.5 68.5q0 40 -26.5 66.5
t-67.5 26.5t-67.5 -26.5t-26.5 -66.5q0 -41 26.5 -68.5t67.5 -27.5zM366 85q55 0 91 33.5t36 88.5q0 56 -37.5 90t-89.5 34t-89 -34t-37 -90q0 -54 35.5 -88t90.5 -34z" />
    <glyph glyph-name="nine.tf" horiz-adv-x="730" 
d="M292 -21l-56 49q-11 8 -2 19l162 200q-14 -8 -43 -8q-82 0 -145.5 67.5t-63.5 165.5q0 101 68.5 168.5t170.5 67.5q101 0 169.5 -68t68.5 -167q0 -94 -77 -193l-232 -298q-11 -12 -20 -3zM382 331q58 0 96 39t38 99q0 61 -38 100t-96 39t-95.5 -39t-37.5 -100
q0 -60 38 -99t95 -39z" />
    <glyph glyph-name="zero.dnom" horiz-adv-x="392" 
d="M195 -2q-70 0 -112.5 50t-42.5 131v19q0 82 42.5 132.5t112.5 50.5t113.5 -50.5t43.5 -132.5v-19q0 -80 -43.5 -130.5t-113.5 -50.5zM195 56q41 0 66 33.5t25 89.5v19q0 57 -25 90t-66 33q-40 0 -65 -33t-25 -90v-19q0 -56 25 -89.5t65 -33.5z" />
    <glyph glyph-name="one.dnom" horiz-adv-x="195" 
d="M71 0v315h-41v62h105v-377h-64z" />
    <glyph glyph-name="two.dnom" horiz-adv-x="334" 
d="M43 0v61l98 92q7 6 19 17t16.5 15.5t13.5 13t12.5 12.5t9 11t7.5 11.5t4.5 11t3.5 12t1 12.5q0 26 -17.5 40.5t-45.5 14.5q-26 0 -43 -16t-17 -45v-20h-65v20q0 54 33 86t92 32q60 0 94.5 -31.5t34.5 -77.5q0 -26 -14 -51t-31 -42.5t-56 -53.5q-7 -7 -11 -10l-57 -54h167
v-61h-249z" />
    <glyph glyph-name="three.dnom" horiz-adv-x="356" 
d="M176 -4q-69 0 -102.5 34.5t-33.5 91.5h64q0 -32 18.5 -51t54.5 -19q32 0 52.5 15.5t20.5 43.5q0 33 -25 46t-77 13v49q88 0 88 58q0 22 -17.5 35t-46.5 13q-63 0 -63 -66h-63q-1 58 32 90t95 32q60 0 93.5 -27.5t33.5 -71.5q0 -55 -56 -79q72 -24 72 -94
q0 -52 -38.5 -82.5t-101.5 -30.5z" />
    <glyph glyph-name="four.dnom" horiz-adv-x="370" 
d="M228 0v82h-198l198 295h63v-234h39v-61h-39v-82h-63zM136 143h92v142z" />
    <glyph glyph-name="five.dnom" horiz-adv-x="356" 
d="M173 -4q-53 0 -88.5 26t-44.5 63l56 26q6 -25 26.5 -41.5t50.5 -16.5q34 0 55.5 20.5t21.5 54.5q0 35 -21.5 55.5t-55.5 20.5q-44 0 -68 -38l-55 15l26 198h206v-62h-155l-9 -76q22 19 65 19q57 0 95 -36.5t38 -94.5q0 -60 -40 -96.5t-103 -36.5z" />
    <glyph glyph-name="six.dnom" horiz-adv-x="339" 
d="M170 -4q-55 0 -92.5 35t-37.5 87q0 10 1 20t4 19.5t5 16.5t7.5 16.5t8 14.5t10 15.5t10.5 14t12 15t11 14.5l90 115h71l-109 -142q7 3 19 3q47 0 83 -35t36 -87t-37 -87t-92 -35zM169 52q29 0 48.5 19t19.5 48q0 28 -19.5 47t-48.5 19t-47.5 -18.5t-18.5 -47.5t19 -48
t47 -19z" />
    <glyph glyph-name="seven.dnom" horiz-adv-x="326" 
d="M64 0l135 315h-159v62h251l-157 -377h-70z" />
    <glyph glyph-name="eight.dnom" horiz-adv-x="343" 
d="M172 -4q-55 0 -93.5 30t-38.5 82q0 34 17.5 60.5t46.5 38.5q-45 26 -45 77q0 40 29.5 68.5t83.5 28.5q53 0 82 -28.5t29 -68.5q0 -51 -44 -77q29 -12 46.5 -38.5t17.5 -60.5q0 -52 -38 -82t-93 -30zM172 234q23 0 37 14t14 34t-13.5 33.5t-37.5 13.5t-37.5 -13.5
t-13.5 -33.5t14 -34t37 -14zM172 50q29 0 48 17.5t19 45.5q0 29 -19 47t-48 18q-30 0 -49 -18t-19 -47q0 -28 19.5 -45.5t48.5 -17.5z" />
    <glyph glyph-name="nine.dnom" horiz-adv-x="339" 
d="M69 0l109 141q-5 -2 -19 -2q-47 0 -83 34.5t-36 86.5q0 53 36.5 88t91.5 35q56 0 93.5 -35t37.5 -88q0 -10 -1 -20t-4 -19.5t-5 -16.5t-7.5 -16.5t-8 -14.5t-10 -15.5t-10.5 -14t-12 -15t-11 -14.5l-90 -114h-71zM169 193q29 0 48.5 19t19.5 48t-19.5 48t-48.5 19
q-28 0 -47 -19t-19 -48q0 -28 19 -47.5t47 -19.5z" />
    <glyph glyph-name="zero.numr" horiz-adv-x="392" 
d="M195 327q-70 0 -112.5 50t-42.5 131v19q0 82 42.5 132.5t112.5 50.5t113.5 -50.5t43.5 -132.5v-19q0 -80 -43.5 -130.5t-113.5 -50.5zM195 385q41 0 66 33.5t25 89.5v19q0 57 -25 90t-66 33q-40 0 -65 -33t-25 -90v-19q0 -56 25 -89.5t65 -33.5z" />
    <glyph glyph-name="one.numr" horiz-adv-x="195" 
d="M71 323v315h-41v62h105v-377h-64z" />
    <glyph glyph-name="two.numr" horiz-adv-x="334" 
d="M43 329v61l98 92q7 6 19 17t16.5 15.5t13.5 13t12.5 12.5t9 11t7.5 11.5t4.5 11t3.5 12t1 12.5q0 26 -17.5 40.5t-45.5 14.5q-26 0 -43 -16t-17 -45v-20h-65v20q0 54 33 86t92 32q60 0 94.5 -31.5t34.5 -77.5q0 -26 -14 -51t-31 -42.5t-56 -53.5q-7 -7 -11 -10l-57 -54
h167v-61h-249z" />
    <glyph glyph-name="three.numr" horiz-adv-x="356" 
d="M176 325q-69 0 -102.5 34.5t-33.5 91.5h64q0 -32 18.5 -51t54.5 -19q32 0 52.5 15.5t20.5 43.5q0 33 -25 46t-77 13v49q88 0 88 58q0 22 -17.5 35t-46.5 13q-63 0 -63 -66h-63q-1 58 32 90t95 32q60 0 93.5 -27.5t33.5 -71.5q0 -55 -56 -79q72 -24 72 -94
q0 -52 -38.5 -82.5t-101.5 -30.5z" />
    <glyph glyph-name="four.numr" horiz-adv-x="370" 
d="M228 323v82h-198l198 295h63v-234h39v-61h-39v-82h-63zM136 466h92v142z" />
    <glyph glyph-name="five.numr" horiz-adv-x="356" 
d="M173 317q-53 0 -88.5 26t-44.5 63l56 26q6 -25 26.5 -41.5t50.5 -16.5q34 0 55.5 20.5t21.5 54.5q0 35 -21.5 55.5t-55.5 20.5q-44 0 -68 -38l-55 15l26 198h206v-62h-155l-9 -76q22 19 65 19q57 0 95 -36.5t38 -94.5q0 -60 -40 -96.5t-103 -36.5z" />
    <glyph glyph-name="six.numr" horiz-adv-x="339" 
d="M170 317q-55 0 -92.5 35t-37.5 87q0 10 1 20t4 19.5t5 16.5t7.5 16.5t8 14.5t10 15.5t10.5 14t12 15t11 14.5l90 115h71l-109 -142q7 3 19 3q47 0 83 -35t36 -87t-37 -87t-92 -35zM169 373q29 0 48.5 19t19.5 48q0 28 -19.5 47t-48.5 19t-47.5 -19t-18.5 -47
q0 -29 19 -48t47 -19z" />
    <glyph glyph-name="seven.numr" horiz-adv-x="326" 
d="M64 323l135 315h-159v62h251l-157 -377h-70z" />
    <glyph glyph-name="eight.numr" horiz-adv-x="343" 
d="M172 325q-55 0 -93.5 30t-38.5 82q0 35 17.5 61t46.5 38q-45 26 -45 77q0 40 29.5 68.5t83.5 28.5q53 0 82 -28.5t29 -68.5q0 -51 -44 -77q29 -12 46.5 -38t17.5 -61q0 -52 -38 -82t-93 -30zM172 563q23 0 37 14t14 34t-13.5 33.5t-37.5 13.5t-37.5 -13.5t-13.5 -33.5
t14 -34t37 -14zM172 379q29 0 48 17.5t19 45.5q0 29 -19 47t-48 18q-30 0 -49 -18t-19 -47q0 -28 19.5 -45.5t48.5 -17.5z" />
    <glyph glyph-name="nine.numr" horiz-adv-x="339" 
d="M69 327l109 141q-5 -2 -19 -2q-47 0 -83 34.5t-36 86.5q0 53 36.5 88t91.5 35q56 0 93.5 -35t37.5 -88q0 -10 -1 -20t-4 -19.5t-5 -16.5t-7.5 -16.5t-8 -14.5t-10 -15.5t-10.5 -14t-12 -15t-11 -14.5l-90 -114h-71zM169 520q29 0 48.5 19t19.5 48t-19.5 48t-48.5 19
q-28 0 -47 -19t-19 -48q0 -28 19 -47.5t47 -19.5z" />
    <glyph glyph-name="Aacutecy" horiz-adv-x="676" 
d="M309 758q-19 0 -11 17l57 114q7 12 17 12h73q19 0 10 -17l-58 -114q-5 -12 -16 -12h-72zM647 17q7 -17 -12 -17h-87q-13 0 -17 12l-41 122h-290l-42 -122q-4 -12 -17 -12h-86q-19 0 -12 17l238 671q5 12 18 12h91q14 0 19 -12zM234 234h222l-111 327z" />
    <glyph glyph-name="Ieacutecy" horiz-adv-x="511" 
d="M237 758q-19 0 -10 17l56 114q7 12 17 12h73q19 0 10 -17l-57 -114q-7 -12 -17 -12h-72zM91 0q-14 0 -14 15v670q0 15 14 15h347q14 0 14 -15v-70q0 -15 -14 -15h-249v-192h235q15 0 15 -15v-71q0 -14 -15 -14h-235v-208h249q15 0 15 -15v-70q0 -15 -15 -15h-347z" />
    <glyph glyph-name="Iiacutecy" horiz-adv-x="678" 
d="M313 758q-19 0 -11 17l57 114q5 12 16 12h73q19 0 11 -17l-58 -114q-5 -12 -16 -12h-72zM593 700q15 0 15 -15v-670q0 -15 -15 -15h-83q-15 0 -15 15v512l-284 -517q-6 -10 -18 -10h-102q-14 0 -14 15v670q0 15 14 15h83q15 0 15 -15v-512l284 517q6 10 18 10h102z" />
    <glyph glyph-name="Oacutecy" horiz-adv-x="818" 
d="M380 758q-19 0 -11 17l57 114q7 12 17 12h73q19 0 10 -17l-58 -114q-5 -12 -16 -12h-72zM416 -13q-150 0 -254.5 104.5t-104.5 255.5q0 152 104.5 256.5t254.5 104.5t254.5 -104.5t104.5 -256.5q0 -151 -104.5 -255.5t-254.5 -104.5zM416 97q105 0 175 71.5t70 178.5
q0 108 -70 179.5t-175 71.5t-175.5 -71.5t-70.5 -179.5q0 -107 70.5 -178.5t175.5 -71.5z" />
    <glyph glyph-name="Uacutecy" horiz-adv-x="665" 
d="M304 758q-20 0 -11 17l57 114q5 12 16 12h73q19 0 11 -17l-58 -114q-7 -12 -17 -12h-71zM124 0q-20 0 -10 18l162 276l-231 388q-5 8 -2.5 13t11.5 5h88q12 0 18 -10l175 -296l175 296q6 10 17 10h88q9 0 12 -5t-2 -13l-396 -672q-6 -10 -18 -10h-87z" />
    <glyph glyph-name="Yeruacutecy" horiz-adv-x="805" 
d="M385 758q-19 0 -11 17l57 114q5 12 16 12h73q20 0 11 -17l-58 -114q-5 -12 -16 -12h-72zM91 0q-14 0 -14 15v670q0 15 14 15h83q15 0 15 -15v-239h104q116 0 177.5 -60.5t61.5 -162.5t-61.5 -162.5t-177.5 -60.5h-202zM619 0q-15 0 -15 15v670q0 15 15 15h83q14 0 14 -15
v-670q0 -15 -14 -15h-83zM189 100h99q136 0 136 123t-136 123h-99v-246z" />
    <glyph glyph-name="Ereversedacutecy" horiz-adv-x="698" 
d="M325 758q-19 0 -10 17l56 114q7 12 17 12h73q19 0 11 -17l-58 -114q-7 -12 -17 -12h-72zM305 708q151 0 254 -104t103 -257t-102.5 -256.5t-254.5 -103.5q-142 0 -242 97q-12 12 -1 21l51 56q10 10 21 0q74 -64 169 -64q93 0 160 56.5t82 146.5h-242q-14 0 -14 14v72
q0 14 14 14h241q-17 88 -83.5 143t-157.5 55q-95 0 -169 -64q-12 -9 -21 1l-51 55q-10 11 1 22q101 96 242 96z" />
    <glyph glyph-name="Iuacutecy" horiz-adv-x="1020" 
d="M476 758q-19 0 -10 17l56 114q7 12 17 12h73q19 0 10 -17l-57 -114q-7 -12 -17 -12h-72zM618 708q150 0 254.5 -104.5t104.5 -256.5q0 -151 -104.5 -255.5t-254.5 -104.5q-138 0 -238.5 89t-117.5 224h-73v-285q0 -15 -15 -15h-83q-14 0 -14 15v670q0 15 14 15h83
q15 0 15 -15v-285h74q19 133 119 220.5t236 87.5zM618 97q105 0 175.5 71.5t70.5 178.5q0 108 -70.5 179.5t-175.5 71.5t-175 -71.5t-70 -179.5q0 -107 70.5 -178.5t174.5 -71.5z" />
    <glyph glyph-name="Iaacutecy" horiz-adv-x="583" 
d="M274 758q-19 0 -10 17l56 114q7 12 17 12h73q19 0 10 -17l-57 -114q-7 -12 -17 -12h-72zM510 700q14 0 14 -15v-670q0 -15 -14 -15h-83q-15 0 -15 15v239h-79l-157 -244q-6 -10 -18 -10h-88q-21 0 -10 18l162 247q-75 21 -114 76.5t-39 135.5q0 102 61.5 162.5
t177.5 60.5h202zM412 354v246h-99q-136 0 -136 -123t136 -123h99z" />
    <glyph glyph-name="aacutecy" horiz-adv-x="606" 
d="M271 557q-19 0 -11 17l57 114q7 12 17 12h73q19 0 10 -17l-58 -114q-5 -12 -16 -12h-72zM278 -12q-104 0 -170 73t-66 184q0 110 66 183.5t170 73.5q118 0 173 -93l2 66q0 15 14 15h73q14 0 14 -15v-460q0 -15 -14 -15h-73q-14 0 -14 15l-2 65q-56 -92 -173 -92zM299 87
q66 0 107 43.5t41 113.5q0 71 -41 115t-107 44t-109 -44t-43 -114q0 -71 42.5 -114.5t109.5 -43.5z" />
    <glyph glyph-name="ieacutecy" horiz-adv-x="558" 
d="M256 557q-19 0 -11 17l57 114q5 12 16 12h73q19 0 11 -17l-58 -114q-5 -12 -16 -12h-72zM306 -12q-118 0 -191 74t-73 185q0 110 69.5 182.5t179.5 72.5q106 0 169 -68.5t63 -164.5q0 -34 -9.5 -49t-36.5 -15h-330q10 -60 53.5 -95t114.5 -35q69 0 126 38q10 6 16 -3
l28 -38q8 -10 -4 -22q-63 -62 -175 -62zM146 283h281q-4 60 -41 94t-95 34t-97.5 -34t-47.5 -94z" />
    <glyph glyph-name="iiacutecy" horiz-adv-x="590" 
d="M269 557q-19 0 -10 17l56 114q7 12 17 12h73q19 0 10 -17l-57 -114q-7 -12 -17 -12h-72zM513 490q15 0 15 -15v-460q0 -15 -15 -15h-80q-14 0 -14 15v336l-220 -341q-7 -10 -19 -10h-99q-14 0 -14 15v460q0 15 14 15h80q14 0 14 -15v-340l223 345q7 10 19 10h96z" />
    <glyph glyph-name="oacutecy" horiz-adv-x="584" 
d="M263 557q-19 0 -11 17l57 114q7 12 17 12h72q20 0 11 -17l-58 -114q-5 -12 -16 -12h-72zM296 -12q-109 0 -181.5 74t-72.5 183t72.5 183t181.5 74q108 0 180.5 -74t72.5 -183t-72.5 -183t-180.5 -74zM296 88q64 0 106.5 43.5t42.5 113.5t-42.5 113.5t-106.5 43.5
q-65 0 -107.5 -43.5t-42.5 -113.5t42.5 -113.5t107.5 -43.5z" />
    <glyph glyph-name="uacutecy" horiz-adv-x="552" 
d="M249 557q-19 0 -11 17l57 114q5 12 16 12h73q20 0 11 -17l-58 -114q-5 -12 -16 -12h-72zM168 -190q-19 0 -11 16l70 173l-189 474q-6 17 12 17h81q13 0 17 -12l132 -354l133 354q5 12 17 12h81q17 0 11 -17l-258 -651q-4 -12 -18 -12h-78z" />
    <glyph glyph-name="yeruacutecy" horiz-adv-x="768" 
d="M353 557q-19 0 -10 17l56 114q7 12 17 12h73q19 0 10 -17l-57 -114q-7 -12 -17 -12h-72zM81 0q-14 0 -14 15v460q0 15 14 15h80q14 0 14 -15v-141h157q184 0 184 -167t-184 -167h-251zM605 0q-15 0 -15 15v460q0 15 15 15h80q14 0 14 -15v-460q0 -15 -14 -15h-80zM175 87
h144q93 0 93 80t-93 80h-144v-160z" />
    <glyph glyph-name="ereversedacutecy" horiz-adv-x="522" 
d="M227 557q-19 0 -10 17l56 114q7 12 17 12h73q19 0 10 -17l-57 -114q-7 -12 -17 -12h-72zM234 502q110 0 183 -73t73 -183t-73.5 -184t-184.5 -74q-117 0 -186 85q-9 12 0 21l45 43q12 12 25 -1q46 -48 112 -48q57 0 98 32t54 84h-166q-14 0 -14 15v50q0 15 14 15h167
q-11 53 -52.5 85.5t-99.5 32.5q-66 0 -112 -48q-13 -13 -25 -1l-45 43q-9 9 0 21q69 85 187 85z" />
    <glyph glyph-name="iuacutecy" horiz-adv-x="778" 
d="M360 557q-20 0 -11 17l57 114q5 12 16 12h73q19 0 11 -17l-58 -114q-5 -12 -16 -12h-72zM496 502q108 0 180.5 -74t72.5 -183t-72.5 -183t-180.5 -74q-97 0 -166.5 59.5t-83.5 152.5h-71v-186q0 -15 -14 -15h-80q-14 0 -14 15v460q0 15 14 15h80q14 0 14 -15v-185h70
q15 93 84.5 153t166.5 60zM496 88q64 0 106.5 43.5t42.5 113.5t-42.5 113.5t-106.5 43.5q-65 0 -107.5 -43.5t-42.5 -113.5t42.5 -113.5t107.5 -43.5z" />
    <glyph glyph-name="iaacutecy" horiz-adv-x="552" 
d="M239 557q-19 0 -11 17l57 114q7 12 17 12h72q20 0 11 -17l-58 -114q-5 -12 -16 -12h-72zM479 490q14 0 14 -15v-460q0 -15 -14 -15h-80q-14 0 -14 15v141h-100l-126 -148q-7 -8 -17 -8h-84q-10 0 -12 5t4 13l124 142q-130 23 -130 163q0 167 184 167h251zM385 243v160
h-144q-93 0 -93 -80t93 -80h144z" />
    </font>
</defs>
</svg>
