<?xml version="1.0" standalone="no"?>
<!DOCTYPE svg PUBLIC "-//W3C//DTD SVG 1.1//EN" "http://www.w3.org/Graphics/SVG/1.1/DTD/svg11.dtd" >
<svg xmlns="http://www.w3.org/2000/svg" xmlns:xlink="http://www.w3.org/1999/xlink" version="1.1">
<metadata>
Created by FontForge 20170731 at Sat Mar 21 16:32:19 2020
 By Aleksey,,,
Copyright (c) 2020 by Connary Fagen. All rights reserved.
</metadata>
<defs>
<font id="GreycliffCF-Bold" horiz-adv-x="581" >
  <font-face 
    font-family="Greycliff CF Bold"
    font-weight="400"
    font-stretch="normal"
    units-per-em="1000"
    panose-1="0 0 8 0 0 0 0 0 0 0"
    ascent="781"
    descent="-219"
    x-height="490"
    cap-height="700"
    bbox="-177 -310.18 1047.14 951"
    underline-thickness="50"
    underline-position="-200"
    unicode-range="U+0020-FEFF"
  />
<missing-glyph horiz-adv-x="495" 
d="M406 800v-990h-314v990h314zM330 734h-164v-33h65v-37h-66v-32h165v32h-66v37h66v33zM264 606h-99v-103h165v34h-66v69zM231 572v-35h-33v35h33zM330 476h-165v-32h66v-37h-66v-33h99v70h66v32zM330 417h-33v-65h-132v-34h165v99zM330 296h-99v-55h33v22h33v-46h-99v79
h-33v-112h165v112zM330 125h-165v-112h165v112zM297 92v-46h-99v46h99zM330 -10h-165v-32h70l-70 -47v-33h165v33h-101l69 47h32v32z" />
    <glyph glyph-name=".notdef" horiz-adv-x="495" 
d="M406 800v-990h-314v990h314zM330 734h-164v-33h65v-37h-66v-32h165v32h-66v37h66v33zM264 606h-99v-103h165v34h-66v69zM231 572v-35h-33v35h33zM330 476h-165v-32h66v-37h-66v-33h99v70h66v32zM330 417h-33v-65h-132v-34h165v99zM330 296h-99v-55h33v22h33v-46h-99v79
h-33v-112h165v112zM330 125h-165v-112h165v112zM297 92v-46h-99v46h99zM330 -10h-165v-32h70l-70 -47v-33h165v33h-101l69 47h32v32z" />
    <glyph glyph-name=".null" horiz-adv-x="0" 
 />
    <glyph glyph-name="nonmarkingreturn" horiz-adv-x="333" 
 />
    <glyph glyph-name="space" unicode=" " horiz-adv-x="195" 
 />
    <glyph glyph-name="exclam" unicode="!" horiz-adv-x="274" 
d="M97 215q-15 0 -15 15l-15 455q0 15 15 15h111q15 0 15 -15l-16 -455q0 -15 -15 -15h-80zM137 -13q-34 0 -58 24t-24 58q0 35 24 59.5t58 24.5t58.5 -24.5t24.5 -59.5q0 -34 -24.5 -58t-58.5 -24z" />
    <glyph glyph-name="quotedbl" unicode="&#x22;" horiz-adv-x="363" 
d="M66 475q-13 0 -15 15l-11 195q-1 7 3.5 11t11.5 4h92q7 0 11.5 -4t3.5 -11l-11 -195q-2 -15 -15 -15h-70zM228 475q-13 0 -16 15l-11 195q-1 7 3.5 11t11.5 4h93q7 0 11.5 -4t3.5 -11l-12 -195q-2 -15 -15 -15h-69z" />
    <glyph glyph-name="numbersign" unicode="#" horiz-adv-x="653" 
d="M111 0q-17 0 -12 17l52 196h-84q-15 0 -12 15l9 40q3 15 15 15h90l35 134h-84q-15 0 -12 15l10 40q3 15 15 15h90l53 201q3 12 18 12h41q17 0 12 -17l-52 -196h136l53 201q3 12 18 12h41q17 0 12 -17l-52 -196h84q15 0 12 -15l-10 -40q-3 -15 -15 -15h-90l-35 -134h84
q15 0 12 -15l-9 -40q-3 -15 -15 -15h-90l-53 -201q-3 -12 -18 -12h-41q-17 0 -12 17l52 196h-136l-53 -201q-3 -12 -18 -12h-41zM241 283h136l35 134h-136z" />
    <glyph glyph-name="dollar" unicode="$" horiz-adv-x="460" 
d="M306 378q110 -45 109 -141q-1 -60 -39 -97.5t-98 -48.5v-76q0 -15 -15 -15h-61q-15 0 -15 15v76q-84 14 -139 77q-8 12 3 28l35 50q10 15 25 4q62 -48 112 -48q55 0 55 40q0 31 -50 52l-63 25q-107 42 -107 134q0 57 36 95t93 49v88q0 15 15 15h61q15 0 15 -15v-89
q70 -16 115 -71q8 -10 -1 -21l-44 -52q-9 -11 -23 0q-49 41 -88 41q-24 0 -36 -11t-12 -28q0 -30 48 -48z" />
    <glyph glyph-name="percent" unicode="%" horiz-adv-x="728" 
d="M187 433q-58 0 -97.5 39t-39.5 97t39.5 97t97.5 39t97.5 -39t39.5 -97t-39.5 -97t-97.5 -39zM174 8l-52 35q-13 9 -5 21l417 624q8 13 20 4l52 -35q13 -9 5 -21l-417 -624q-8 -13 -20 -4zM187 522q20 0 33 13.5t13 33.5t-13 33.5t-33 13.5t-33 -13.5t-13 -33.5t13 -33.5
t33 -13.5zM541 -5q-58 0 -97.5 39t-39.5 97t39.5 97t97.5 39t97.5 -39t39.5 -97t-39.5 -97t-97.5 -39zM541 84q20 0 33 13.5t13 33.5t-13 33.5t-33 13.5t-33 -13.5t-13 -33.5t13 -33.5t33 -13.5z" />
    <glyph glyph-name="ampersand" unicode="&#x26;" horiz-adv-x="665" 
d="M256 -13q-94 0 -158 53.5t-64 147.5q0 52 21.5 92t47 61t68.5 47q-72 81 -72 151q0 71 51.5 118t131.5 47q81 0 133 -46.5t52 -118.5q0 -55 -31 -93.5t-85 -75.5l103 -108l50 75q10 15 24 15h99q7 0 9 -5t-2 -11l-100 -157l96 -101q11 -11 0 -22l-59 -61q-11 -11 -22 -1
l-86 90q-91 -97 -207 -97zM274 451q31 19 48.5 38.5t17.5 45.5q0 25 -16 41t-42 16t-41.5 -16.5t-15.5 -40.5q0 -33 49 -84zM275 110q57 0 110 56l-132 138q-37 -25 -57 -48.5t-20 -55.5q0 -39 28.5 -64.5t70.5 -25.5z" />
    <glyph glyph-name="quotesingle" unicode="'" horiz-adv-x="202" 
d="M66 475q-13 0 -15 15l-11 195q-1 7 3.5 11t11.5 4h92q7 0 11.5 -4t3.5 -11l-11 -195q-2 -15 -15 -15h-70z" />
    <glyph glyph-name="parenleft" unicode="(" horiz-adv-x="352" 
d="M178 -130q-12 0 -18 10q-105 187 -105 440q0 240 105 415q6 10 18 10h106q8 0 11 -5t-1 -13q-96 -178 -96 -407q0 -241 97 -432q8 -18 -11 -18h-106z" />
    <glyph glyph-name="parenright" unicode=")" horiz-adv-x="352" 
d="M174 -130h-106q-19 0 -11 18q97 191 97 432q0 229 -96 407q-4 8 -1 13t11 5h106q12 0 18 -10q105 -175 105 -415q0 -253 -105 -440q-6 -10 -18 -10z" />
    <glyph glyph-name="asterisk" unicode="*" horiz-adv-x="478" 
d="M219 568l-5 132h49l-4 -132h-40zM199 520l-129 34l13 50l129 -42zM279 520l-13 42l129 42l13 -50zM158 376l-40 29l82 107l33 -26zM319 376l-74 110l33 26l81 -107z" />
    <glyph glyph-name="plus" unicode="+" horiz-adv-x="484" 
d="M206 108q-15 0 -15 15v111h-111q-15 0 -15 15v72q0 15 15 15h111v111q0 15 15 15h72q15 0 15 -15v-111h111q15 0 15 -15v-72q0 -15 -15 -15h-111v-111q0 -15 -15 -15h-72z" />
    <glyph glyph-name="comma" unicode="," horiz-adv-x="257" 
d="M42 -129v32q49 -1 79 41q21 29 10 41q-3 3 -9 3q-34 0 -58 24.5t-24 58.5t24.5 58t59.5 24q38 0 65.5 -29t27.5 -83q0 -79 -56.5 -126t-118.5 -44z" />
    <glyph glyph-name="hyphen" unicode="-" horiz-adv-x="430" 
d="M65 221q-15 0 -15 15v82q0 15 15 15h300q15 0 15 -15v-82q0 -15 -15 -15h-300z" />
    <glyph glyph-name="period" unicode="." horiz-adv-x="244" 
d="M122 -13q-34 0 -58 24t-24 58q0 35 24 59.5t58 24.5t58.5 -24.5t24.5 -59.5q0 -34 -24.5 -58t-58.5 -24z" />
    <glyph glyph-name="slash" unicode="/" horiz-adv-x="515" 
d="M34 -130q-18 0 -12 17l328 846q4 12 18 12h113q18 0 12 -17l-328 -846q-5 -12 -18 -12h-113z" />
    <glyph glyph-name="zero" unicode="0" horiz-adv-x="652" 
d="M326 -13q-57 0 -106.5 21.5t-89 64t-62.5 113t-23 161.5t23 162t62.5 113.5t89 64t106.5 21.5t106.5 -21.5t89 -64t62.5 -113.5t23 -162t-23 -161.5t-62.5 -113t-89 -64t-106.5 -21.5zM326 115q74 0 110.5 63t36.5 169t-36.5 169.5t-110.5 63.5t-110.5 -63t-36.5 -170
t36.5 -169.5t110.5 -62.5z" />
    <glyph glyph-name="one" unicode="1" horiz-adv-x="363" 
d="M180 0q-15 0 -15 15v568h-115q-15 0 -15 15v87q0 15 15 15h238q15 0 15 -15v-670q0 -15 -15 -15h-108z" />
    <glyph glyph-name="two" unicode="2" horiz-adv-x="531" 
d="M64 0q-15 0 -15 15v86q0 11 7 19l210 220q1 1 12 12.5t14 15.5t12.5 15.5t13.5 18t11 18.5t10 21t5.5 21t2.5 24q0 42 -28 68.5t-74 26.5q-65 0 -115 -68q-11 -12 -23 0l-61 61q-10 10 -2 22q77 112 212 112q100 0 163 -59.5t63 -150.5q0 -46 -20 -90t-33.5 -60.5
t-40.5 -44.5l-174 -186h253q15 0 15 -15v-87q0 -15 -15 -15h-403z" />
    <glyph glyph-name="three" unicode="3" horiz-adv-x="519" 
d="M249 -13q-72 0 -126 29t-85 77q-7 13 3 22l66 60q11 11 22 -2q48 -59 111 -59q48 0 76 28t28 69q0 39 -27 67.5t-78 28.5h-27q-16 0 -16 16v81q0 15 16 15h26q43 0 65 24t22 57q0 36 -25 58.5t-63 22.5q-62 0 -95 -56q-8 -14 -22 -2l-62 61q-12 10 -3 21q29 46 80.5 74.5
t116.5 28.5q87 0 147 -50.5t60 -133.5q0 -55 -28 -94t-70 -58q53 -21 88 -65.5t35 -111.5q0 -92 -67 -150t-168 -58z" />
    <glyph glyph-name="four" unicode="4" horiz-adv-x="590" 
d="M351 0q-15 0 -15 15v120h-281q-15 0 -15 15v89q0 10 5 19l285 432q6 10 18 10h111q15 0 15 -15v-436h61q15 0 15 -15v-84q0 -15 -15 -15h-61v-120q0 -15 -15 -15h-108zM175 249h161v246z" />
    <glyph glyph-name="five" unicode="5" horiz-adv-x="542" 
d="M255 -13q-73 0 -127.5 31.5t-80.5 74.5q-6 14 7 24l71 54q14 10 25 -4q39 -53 103 -53q54 0 87.5 34.5t33.5 84.5q0 51 -33.5 84t-84.5 33q-54 0 -89 -38q-11 -12 -25 -7l-75 30q-13 6 -10 18l75 334q3 13 16 13h300q15 0 15 -15v-87q0 -15 -15 -15h-214l-30 -133
q46 16 85 16q95 0 157 -67.5t62 -168.5q0 -109 -72.5 -176t-180.5 -67z" />
    <glyph glyph-name="six" unicode="6" horiz-adv-x="564" 
d="M282 -13q-104 0 -176 69.5t-72 171.5q0 98 86 205l224 280q10 12 21 3l74 -65q12 -11 3 -21l-140 -165q1 0 8 0.5t12 0.5q79 0 143.5 -70t64.5 -169q0 -102 -71.5 -171t-176.5 -69zM282 114q50 0 82 33.5t32 84.5q0 50 -32.5 84t-81.5 34t-81.5 -34t-32.5 -84
q0 -51 32.5 -84.5t81.5 -33.5z" />
    <glyph glyph-name="seven" unicode="7" horiz-adv-x="522" 
d="M105 0q-7 0 -11 5t0 13l230 565h-274q-15 0 -15 15v87q0 15 15 15h430q8 0 11 -5.5t0 -13.5l-262 -666q-5 -15 -19 -15h-105z" />
    <glyph glyph-name="eight" unicode="8" horiz-adv-x="578" 
d="M289 -13q-99 0 -171.5 60t-72.5 160q0 65 32.5 114.5t85.5 74.5q-72 52 -72 137q0 74 54.5 124.5t143.5 50.5q88 0 143 -50.5t55 -124.5q0 -85 -72 -137q53 -25 85.5 -75t32.5 -114q0 -99 -72.5 -159.5t-171.5 -60.5zM289 445q33 0 54.5 22.5t21.5 54.5q0 33 -21.5 55
t-54.5 22t-54.5 -22t-21.5 -55q0 -32 21.5 -54.5t54.5 -22.5zM289 113q45 0 75.5 27.5t30.5 73.5q0 48 -31.5 76.5t-74.5 28.5t-74.5 -28.5t-31.5 -76.5q0 -46 30 -73.5t76 -27.5z" />
    <glyph glyph-name="nine" unicode="9" horiz-adv-x="564" 
d="M199 -21l-74 65q-12 11 -3 21l141 165q-2 0 -9 -0.5t-12 -0.5q-79 0 -143.5 70.5t-64.5 168.5q0 102 72 171t176 69t176 -69t72 -171q0 -99 -86 -206l-224 -280q-10 -12 -21 -3zM282 345q49 0 81.5 34t32.5 84q0 51 -32.5 84.5t-81.5 33.5q-50 0 -82 -33.5t-32 -84.5
q0 -50 32.5 -84t81.5 -34z" />
    <glyph glyph-name="colon" unicode=":" horiz-adv-x="244" 
d="M122 336q-34 0 -58 24t-24 59q0 34 24 58.5t58 24.5t58.5 -24.5t24.5 -58.5q0 -35 -24.5 -59t-58.5 -24zM122 -12q-34 0 -58 24t-24 58q0 35 24 59.5t58 24.5t58.5 -24.5t24.5 -59.5q0 -34 -24.5 -58t-58.5 -24z" />
    <glyph glyph-name="semicolon" unicode=";" horiz-adv-x="257" 
d="M123 336q-34 0 -58 24t-24 59q0 34 24 58.5t58 24.5t58.5 -24.5t24.5 -58.5q0 -35 -24 -59t-59 -24zM42 -129v32q49 -1 79 41q21 29 10 41q-3 3 -9 3q-34 0 -58 24.5t-24 58.5t24.5 58t59.5 24q38 0 65.5 -29t27.5 -83q0 -79 -56.5 -126t-118.5 -44z" />
    <glyph glyph-name="less" unicode="&#x3c;" horiz-adv-x="517" 
d="M439 17l-368 179q-11 6 -11 17v72q0 11 11 17l368 179q18 9 18 -9v-90q0 -10 -11 -15l-260 -118l260 -118q11 -5 11 -15v-90q0 -18 -18 -9z" />
    <glyph glyph-name="equal" unicode="=" horiz-adv-x="504" 
d="M80 315q-15 0 -15 15v72q0 15 15 15h344q15 0 15 -15v-72q0 -15 -15 -15h-344zM80 153q-15 0 -15 15v72q0 15 15 15h344q15 0 15 -15v-72q0 -15 -15 -15h-344z" />
    <glyph glyph-name="greater" unicode="&#x3e;" horiz-adv-x="517" 
d="M78 17q-18 -9 -18 9v90q0 10 11 15l260 118l-260 118q-11 5 -11 15v90q0 18 18 9l368 -179q11 -6 11 -17v-72q0 -11 -11 -17z" />
    <glyph glyph-name="question" unicode="?" horiz-adv-x="464" 
d="M181 216q-16 0 -16 15l-1 38q-1 42 11.5 73t31 49.5t37.5 34t32.5 35t13.5 44.5q0 32 -21 50.5t-53 18.5q-62 0 -94 -75q-8 -14 -24 -4l-61 38q-22 12 -17 29q22 65 77.5 105.5t134.5 40.5q81 0 139 -44.5t58 -129.5q0 -41 -14 -72.5t-34.5 -52.5t-41 -40t-36.5 -44
t-18 -56l-3 -38q-2 -15 -15 -15h-86zM225 -13q-34 0 -58.5 24t-24.5 58q0 35 24.5 59.5t58.5 24.5t58 -24.5t24 -59.5q0 -34 -24 -58t-58 -24z" />
    <glyph glyph-name="at" unicode="@" horiz-adv-x="818" 
d="M417 -13q-149 0 -258.5 100.5t-109.5 261.5q0 81 31 150t82.5 114t117.5 70t137 25q145 0 248 -93.5t103 -241.5q0 -98 -46 -151.5t-116 -53.5q-67 0 -89 47q-45 -47 -114 -47q-76 0 -123.5 51t-47.5 127t47.5 127t123.5 51q65 0 110 -43l14 22h58l-18 -186
q-6 -54 35 -54q54 0 54 98q0 109 -68.5 175.5t-170.5 66.5q-105 0 -180 -70.5t-75 -183.5q0 -114 74.5 -185.5t180.5 -71.5q73 0 128 34l62 -75q-22 -25 -74 -44.5t-116 -19.5zM409 263q35 0 58 23.5t23 59.5t-23 59.5t-58 23.5q-36 0 -58.5 -23.5t-22.5 -59.5t22.5 -59.5
t58.5 -23.5z" />
    <glyph glyph-name="A" unicode="A" horiz-adv-x="697" 
d="M662 17q3 -7 -1 -12t-12 -5h-118q-13 0 -17 12l-34 103h-264l-34 -103q-4 -12 -17 -12h-118q-19 0 -12 17l234 671q5 12 19 12h121q15 0 19 -12zM257 242h182l-91 278z" />
    <glyph glyph-name="B" unicode="B" horiz-adv-x="592" 
d="M84 0q-15 0 -15 15v670q0 15 15 15h236q92 0 142.5 -50.5t50.5 -125.5q0 -53 -26 -91t-66 -56q59 -15 98 -61t39 -118q0 -91 -62.5 -144.5t-183.5 -53.5h-228zM210 422h82q86 0 86 79q0 73 -86 73h-82v-152zM210 126h92q111 0 111 93q0 92 -111 92h-92v-185z" />
    <glyph glyph-name="C" unicode="C" horiz-adv-x="704" 
d="M410 -13q-151 0 -256 103.5t-105 256.5t105 257t256 104q144 0 245 -101q10 -10 0 -21l-70 -75q-9 -11 -21 -1q-70 58 -154 58q-92 0 -154 -63t-62 -158t61.5 -157.5t154.5 -62.5q84 0 154 58q12 10 21 -1l70 -75q10 -10 0 -20q-100 -102 -245 -102z" />
    <glyph glyph-name="D" unicode="D" horiz-adv-x="691" 
d="M84 0q-15 0 -15 15v670q0 15 15 15h206q170 0 263.5 -98t93.5 -252t-93.5 -252t-263.5 -98h-206zM212 127h76q106 0 160 57t54 166t-54 166t-160 57h-76v-446z" />
    <glyph glyph-name="E" unicode="E" horiz-adv-x="515" 
d="M84 0q-15 0 -15 15v670q0 15 15 15h356q15 0 15 -15v-97q0 -15 -15 -15h-228v-155h215q15 0 15 -15v-97q0 -15 -15 -15h-215v-164h228q15 0 15 -15v-97q0 -15 -15 -15h-356z" />
    <glyph glyph-name="F" unicode="F" horiz-adv-x="505" 
d="M84 0q-15 0 -15 15v670q0 15 15 15h351q16 0 16 -15v-97q0 -15 -16 -15h-223v-150h210q16 0 16 -15v-97q0 -15 -16 -15h-210v-281q0 -15 -15 -15h-113z" />
    <glyph glyph-name="G" unicode="G" horiz-adv-x="774" 
d="M412 -13q-152 0 -257.5 103.5t-105.5 256.5t105 257t255 104q147 0 244 -99q12 -12 0 -26l-67 -71q-10 -12 -22 -2q-70 58 -154 58q-92 0 -154 -63t-62 -158t63 -157.5t160 -62.5q80 0 128 41t53 103h-181q-15 0 -15 15v97q0 15 15 15h302q15 0 15 -15v-65
q0 -142 -87.5 -236.5t-234.5 -94.5z" />
    <glyph glyph-name="H" unicode="H" horiz-adv-x="681" 
d="M84 0q-15 0 -15 15v670q0 15 15 15h113q15 0 15 -15v-278h257v278q0 15 15 15h113q15 0 15 -15v-670q0 -15 -15 -15h-113q-15 0 -15 15v266h-257v-266q0 -15 -15 -15h-113z" />
    <glyph glyph-name="I" unicode="I" horiz-adv-x="282" 
d="M84 0q-15 0 -15 15v670q0 15 15 15h113q15 0 15 -15v-670q0 -15 -15 -15h-113z" />
    <glyph glyph-name="J" unicode="J" horiz-adv-x="547" 
d="M233 -13q-119 0 -183 76q-10 12 -1 25l59 78q9 11 21 1q50 -40 99 -40q107 0 107 133v425q0 15 15 15h113q15 0 15 -15v-419q0 -136 -67 -207.5t-178 -71.5z" />
    <glyph glyph-name="K" unicode="K" horiz-adv-x="668" 
d="M84 0q-15 0 -15 15v670q0 15 15 15h113q15 0 15 -15v-309l232 316q7 8 18 8h137q9 0 11.5 -5.5t-3.5 -12.5l-232 -294l260 -370q5 -8 2.5 -13t-11.5 -5h-131q-12 0 -18 9l-189 267l-76 -95v-166q0 -15 -15 -15h-113z" />
    <glyph glyph-name="L" unicode="L" horiz-adv-x="480" 
d="M426 127q15 0 15 -15v-97q0 -15 -15 -15h-342q-15 0 -15 15v670q0 15 15 15h113q15 0 15 -15v-558h214z" />
    <glyph glyph-name="M" unicode="M" horiz-adv-x="882" 
d="M84 0q-15 0 -15 15v670q0 15 15 15h131q13 0 17 -10l209 -525l209 525q4 10 17 10h131q15 0 15 -15v-670q0 -15 -15 -15h-113q-15 0 -15 15v417l-13 -43l-148 -377q-5 -12 -18 -12h-100q-13 0 -18 12l-148 377l-13 43v-417q0 -15 -15 -15h-113z" />
    <glyph glyph-name="N" unicode="N" horiz-adv-x="697" 
d="M613 700q15 0 15 -15v-670q0 -15 -15 -15h-133q-12 0 -18 10l-250 461v-456q0 -15 -15 -15h-113q-15 0 -15 15v670q0 15 15 15h133q12 0 18 -10l250 -461v456q0 15 15 15h113z" />
    <glyph glyph-name="O" unicode="O" horiz-adv-x="819" 
d="M409 -13q-150 0 -255 104.5t-105 255.5q0 152 105 256.5t255 104.5t255 -104.5t105 -256.5q0 -151 -105 -255.5t-255 -104.5zM409 127q92 0 153.5 63t61.5 157q0 95 -61.5 158t-153.5 63t-153.5 -63.5t-61.5 -157.5t61.5 -157t153.5 -63z" />
    <glyph glyph-name="P" unicode="P" horiz-adv-x="580" 
d="M84 0q-15 0 -15 15v670q0 15 15 15h211q121 0 183.5 -61.5t62.5 -165.5q0 -105 -62.5 -166.5t-183.5 -61.5h-83v-230q0 -15 -15 -15h-113zM212 372h78q114 0 114 101q0 100 -114 100h-78v-201z" />
    <glyph glyph-name="Q" unicode="Q" horiz-adv-x="819" 
d="M764 84q10 -10 0 -21l-76 -76q-10 -11 -21 0l-59 59q-91 -59 -199 -59q-150 0 -255 104.5t-105 255.5q0 152 105 256.5t255 104.5t255 -104.5t105 -256.5q0 -114 -63 -205zM409 127q51 0 97 22l-78 78q-10 11 0 21l76 76q10 10 21 0l77 -77q22 47 22 100q0 95 -61.5 158
t-153.5 63t-153.5 -63.5t-61.5 -157.5t61.5 -157t153.5 -63z" />
    <glyph glyph-name="R" unicode="R" horiz-adv-x="601" 
d="M559 18q11 -18 -10 -18h-120q-12 0 -18 10l-148 235h-51v-230q0 -15 -15 -15h-113q-15 0 -15 15v670q0 15 15 15h211q121 0 183.5 -61.5t62.5 -165.5q0 -163 -139 -212zM212 573v-201h78q114 0 114 101q0 100 -114 100h-78z" />
    <glyph glyph-name="S" unicode="S" horiz-adv-x="555" 
d="M276 -12q-76 0 -134.5 31t-92.5 78q-8 11 2 22l58 67q11 13 23 2q67 -69 141 -69q45 0 71.5 19t26.5 56q0 32 -19.5 49t-64.5 37l-85 40q-140 64 -140 191q0 92 61.5 144.5t154.5 52.5q119 0 205 -92q10 -10 1 -23l-57 -69q-10 -13 -22 -4q-65 57 -122 57
q-38 0 -60.5 -18t-22.5 -49q0 -29 18 -45t64 -37l72 -33q34 -16 57 -30.5t48.5 -38.5t38 -57t12.5 -75q0 -100 -68.5 -153t-165.5 -53z" />
    <glyph glyph-name="T" unicode="T" horiz-adv-x="545" 
d="M216 0q-15 0 -15 15v558h-137q-15 0 -15 15v97q0 15 15 15h416q15 0 15 -15v-97q0 -15 -15 -15h-136v-558q0 -15 -15 -15h-113z" />
    <glyph glyph-name="U" unicode="U" horiz-adv-x="657" 
d="M329 -13q-120 0 -192.5 72.5t-72.5 206.5v419q0 15 15 15h113q15 0 15 -15v-416q0 -69 32 -105.5t90 -36.5q57 0 89 37t32 105v416q0 15 15 15h113q15 0 15 -15v-419q0 -134 -72.5 -206.5t-191.5 -72.5z" />
    <glyph glyph-name="V" unicode="V" horiz-adv-x="697" 
d="M288 0q-14 0 -19 12l-234 671q-7 17 12 17h118q13 0 17 -12l166 -508l166 508q4 12 17 12h118q8 0 12 -5t1 -12l-234 -671q-4 -12 -19 -12h-121z" />
    <glyph glyph-name="W" unicode="W" horiz-adv-x="1081" 
d="M254 0q-16 0 -19 12l-200 671q-5 17 12 17h117q16 0 17 -12l138 -494l150 494q4 12 17 12h109q13 0 17 -12l150 -494l138 494q3 12 17 12h117q17 0 12 -17l-200 -671q-3 -12 -19 -12h-119q-16 0 -19 12l-148 508l-149 -508q-3 -12 -19 -12h-119z" />
    <glyph glyph-name="X" unicode="X" horiz-adv-x="651" 
d="M57 0q-20 0 -10 18l201 340l-191 324q-10 18 10 18h121q13 0 19 -10l119 -201l119 201q4 10 18 10h121q20 0 10 -18l-191 -324l201 -340q10 -18 -10 -18h-123q-12 0 -18 10l-127 217l-128 -217q-6 -10 -18 -10h-123z" />
    <glyph glyph-name="Y" unicode="Y" horiz-adv-x="627" 
d="M257 0q-15 0 -15 15v310l-205 357q-10 18 10 18h118q12 0 18 -10l131 -235l130 235q6 10 18 10h118q20 0 10 -18l-205 -359v-308q0 -15 -15 -15h-113z" />
    <glyph glyph-name="Z" unicode="Z" horiz-adv-x="555" 
d="M59 0q-15 0 -15 15v102q0 9 6 18l300 438h-281q-15 0 -15 15v97q0 15 15 15h411q15 0 15 -15v-102q0 -9 -6 -18l-300 -438h301q15 0 15 -15v-97q0 -15 -15 -15h-431z" />
    <glyph glyph-name="bracketleft" unicode="[" horiz-adv-x="332" 
d="M70 -130q-15 0 -15 15v845q0 15 15 15h192q15 0 15 -15v-82q0 -15 -15 -15h-64v-651h64q15 0 15 -15v-82q0 -15 -15 -15h-192z" />
    <glyph glyph-name="backslash" unicode="\" horiz-adv-x="515" 
d="M481 -130h-113q-14 0 -18 12l-328 846q-6 17 12 17h113q13 0 18 -12l328 -846q6 -17 -12 -17z" />
    <glyph glyph-name="bracketright" unicode="]" horiz-adv-x="332" 
d="M262 -130h-192q-15 0 -15 15v82q0 15 15 15h64v651h-64q-15 0 -15 15v82q0 15 15 15h192q15 0 15 -15v-845q0 -15 -15 -15z" />
    <glyph glyph-name="asciicircum" unicode="^" horiz-adv-x="588" 
d="M62 321l179 368q6 11 17 11h72q11 0 17 -11l179 -368q9 -18 -9 -18h-90q-10 0 -15 11l-118 260l-118 -260q-5 -11 -15 -11h-90q-18 0 -9 18z" />
    <glyph glyph-name="underscore" unicode="_" horiz-adv-x="620" 
d="M75 -112q-15 0 -15 15v82q0 15 15 15h470q15 0 15 -15v-82q0 -15 -15 -15h-470z" />
    <glyph glyph-name="grave" unicode="`" horiz-adv-x="219" 
d="M190 557h-96q-10 0 -17 12l-60 114q-9 17 12 17h97q10 0 17 -12l59 -114q9 -17 -12 -17z" />
    <glyph glyph-name="a" unicode="a" horiz-adv-x="617" 
d="M267 -12q-103 0 -168 73t-65 184q0 110 65.5 183.5t167.5 73.5q108 0 160 -81l2 54q0 15 15 15h98q15 0 15 -15v-460q0 -15 -16 -15h-97q-15 0 -15 15l-2 54q-55 -81 -160 -81zM296 114q55 0 89.5 36t34.5 95t-34.5 95t-89.5 36t-91 -36.5t-36 -94.5q0 -59 36 -95t91 -36
z" />
    <glyph glyph-name="b" unicode="b" horiz-adv-x="617" 
d="M350 -12q-105 0 -160 81l-2 -54q0 -15 -15 -15h-98q-16 0 -16 15v685q0 15 15 15h109q15 0 15 -15v-267q52 69 152 69q102 0 167 -73.5t65 -183.5q0 -111 -65 -184t-167 -73zM321 114q55 0 90.5 36t35.5 95q0 58 -35.5 94.5t-90.5 36.5q-56 0 -90.5 -36t-34.5 -95
t34.5 -95t90.5 -36z" />
    <glyph glyph-name="c" unicode="c" horiz-adv-x="519" 
d="M293 -12q-111 0 -185 74t-74 185q0 109 73 182t183 73q122 0 190 -88q9 -10 -2 -21l-60 -59q-13 -13 -26 0q-41 41 -96 41q-58 0 -93.5 -36.5t-35.5 -91.5q0 -56 36.5 -94t95.5 -38q53 0 94 41q13 13 26 0l60 -59q11 -11 2 -21q-68 -88 -188 -88z" />
    <glyph glyph-name="d" unicode="d" horiz-adv-x="617" 
d="M267 -12q-103 0 -168 73t-65 184q0 110 65.5 183.5t167.5 73.5q99 0 151 -69v267q0 15 15 15h109q15 0 15 -15v-685q0 -15 -16 -15h-97q-15 0 -15 15l-2 54q-55 -81 -160 -81zM296 114q55 0 89.5 36t34.5 95t-34.5 95t-89.5 36t-91 -36.5t-36 -94.5q0 -59 36 -95t91 -36z
" />
    <glyph glyph-name="e" unicode="e" horiz-adv-x="555" 
d="M303 -12q-119 0 -194 73.5t-75 185.5q0 110 70 182.5t182 72.5q108 0 171.5 -68.5t63.5 -165.5q0 -38 -11.5 -56.5t-42.5 -18.5h-298q23 -96 145 -96q62 0 114 30q10 6 17 -4l37 -51q8 -11 -5 -22q-62 -62 -174 -62zM167 290h231q-6 48 -36 73t-75 25q-47 0 -79 -25
t-41 -73z" />
    <glyph glyph-name="f" unicode="f" horiz-adv-x="384" 
d="M117 0q-15 0 -15 15v368h-58q-15 0 -15 15v77q0 15 15 15h58v76q0 165 168 165q45 0 75 -15q9 -4 9 -15v-91q0 -9 -13 -7q-27 5 -40 5q-34 0 -47 -15.5t-13 -45.5v-57h98q15 0 15 -15v-77q0 -15 -15 -15h-98v-368q0 -15 -15 -15h-109z" />
    <glyph glyph-name="g" unicode="g" horiz-adv-x="608" 
d="M290 -205q-116 0 -191 56q-16 11 -6 29l29 55q8 17 25 8q65 -36 130 -36q59 0 99.5 29t40.5 92v53q-50 -71 -152 -71q-103 0 -167 68.5t-64 177.5t64 177.5t167 68.5q104 0 153 -72l2 45q0 15 16 15h98q15 0 15 -15v-448q0 -63 -23 -110t-61.5 -72.5t-82.5 -37.5t-92 -12
zM292 134q53 0 86.5 33t33.5 89t-33.5 89t-86.5 33q-54 0 -88.5 -33.5t-34.5 -88.5t34.5 -88.5t88.5 -33.5z" />
    <glyph glyph-name="h" unicode="h" 
d="M345 502q78 0 127.5 -54t49.5 -148v-285q0 -15 -16 -15h-107q-15 0 -15 15v254q0 106 -91 106q-44 0 -70 -27.5t-26 -78.5v-254q0 -15 -15 -15h-108q-15 0 -15 15v685q0 15 15 15h108q15 0 15 -15v-284q48 86 148 86z" />
    <glyph glyph-name="i" unicode="i" horiz-adv-x="260" 
d="M130 577q-33 0 -55 22.5t-22 54.5t22 54t55 22t54.5 -22t21.5 -54q0 -33 -21.5 -55t-54.5 -22zM75 0q-15 0 -15 15v460q0 15 15 15h109q15 0 15 -15v-460q0 -15 -15 -15h-109z" />
    <glyph glyph-name="j" unicode="j" horiz-adv-x="268" 
d="M138 577q-33 0 -55 22.5t-22 54.5t22 54t55 22t54.5 -22t21.5 -54q0 -33 -21.5 -55t-54.5 -22zM39 -200q-44 0 -75 15q-9 5 -9 15v91q0 9 13 7q27 -5 41 -5q34 0 46.5 15.5t12.5 45.5v491q0 15 15 15h109q15 0 15 -15v-510q0 -165 -168 -165z" />
    <glyph glyph-name="k" unicode="k" horiz-adv-x="562" 
d="M74 0q-15 0 -15 15v685q0 15 15 15h109q15 0 15 -15v-408l161 190q7 8 18 8h123q10 0 12 -5t-4 -13l-166 -189l192 -265q5 -8 2.5 -13t-11.5 -5h-116q-12 0 -18 9l-132 179l-61 -69v-104q0 -15 -15 -15h-109z" />
    <glyph glyph-name="l" unicode="l" horiz-adv-x="258" 
d="M74 0q-15 0 -15 15v685q0 15 15 15h109q15 0 15 -15v-685q0 -15 -15 -15h-109z" />
    <glyph glyph-name="m" unicode="m" horiz-adv-x="852" 
d="M74 0q-15 0 -15 15v460q0 15 15 15h104q15 0 15 -16l3 -52q47 80 138 80q98 0 139 -87q47 87 151 87q79 0 124 -52.5t45 -147.5v-287q0 -15 -15 -15h-108q-15 0 -15 15v257q0 103 -78 103q-39 0 -60.5 -26.5t-21.5 -76.5v-257q0 -15 -15 -15h-107q-16 0 -16 15v257
q0 103 -78 103q-39 0 -60.5 -26.5t-21.5 -76.5v-257q0 -15 -15 -15h-108z" />
    <glyph glyph-name="n" unicode="n" 
d="M74 0q-15 0 -15 15v460q0 15 15 15h104q15 0 15 -16l4 -58q48 86 148 86q78 0 127.5 -54t49.5 -148v-285q0 -15 -16 -15h-107q-15 0 -15 15v254q0 106 -91 106q-44 0 -70 -27.5t-26 -78.5v-254q0 -15 -15 -15h-108z" />
    <glyph glyph-name="o" unicode="o" 
d="M291 -12q-110 0 -183.5 74t-73.5 183t73.5 183t183.5 74t183 -74t73 -183t-73 -183t-183 -74zM291 115q53 0 88 35.5t35 94.5t-35 94.5t-88 35.5q-54 0 -89 -35.5t-35 -94.5t35 -94.5t89 -35.5z" />
    <glyph glyph-name="p" unicode="p" horiz-adv-x="617" 
d="M74 -190q-15 0 -15 15v650q0 15 15 15h99q15 0 15 -15l2 -54q52 81 160 81q102 0 167 -73.5t65 -183.5q0 -111 -65 -184t-167 -73q-98 0 -152 70v-233q0 -15 -15 -15h-109zM321 114q55 0 90.5 36t35.5 95q0 58 -35.5 94.5t-90.5 36.5q-56 0 -90.5 -36t-34.5 -95t34.5 -95
t90.5 -36z" />
    <glyph glyph-name="q" unicode="q" horiz-adv-x="617" 
d="M433 -190q-15 0 -15 15v233q-54 -70 -151 -70q-103 0 -168 73t-65 184q0 110 65.5 183.5t167.5 73.5q108 0 160 -81l2 54q0 15 15 15h98q15 0 15 -15v-650q0 -15 -15 -15h-109zM296 114q55 0 89.5 36t34.5 95t-34.5 95t-89.5 36t-91 -36.5t-36 -94.5q0 -59 36 -95t91 -36
z" />
    <glyph glyph-name="r" unicode="r" horiz-adv-x="387" 
d="M74 0q-15 0 -15 15v460q0 15 15 15h104q15 0 15 -16l4 -63q30 91 106 91q29 0 45 -12q9 -6 9 -20v-86q0 -17 -20 -12q-18 5 -36 5q-50 0 -77 -31.5t-27 -85.5v-245q0 -15 -15 -15h-108z" />
    <glyph glyph-name="s" unicode="s" horiz-adv-x="449" 
d="M226 -12q-114 0 -183 81q-9 11 2 29l35 49q10 15 25 4q63 -48 113 -48q55 0 55 41q0 17 -11.5 28t-39.5 23l-62 25q-107 42 -107 134q0 68 50 108t121 40q101 0 164 -75q8 -10 -1 -21l-44 -53q-9 -11 -23 0q-49 41 -89 41q-23 0 -35 -11t-12 -28q0 -31 47 -48l69 -27
q111 -45 110 -142q-1 -71 -53.5 -110.5t-130.5 -39.5z" />
    <glyph glyph-name="t" unicode="t" horiz-adv-x="366" 
d="M254 -12q-65 0 -106.5 34t-41.5 109v252h-62q-15 0 -15 15v77q0 15 15 15h62v115q0 15 15 15h109q15 0 15 -15v-115h77q15 0 15 -15v-77q0 -15 -15 -15h-77v-237q0 -43 43 -43q19 0 31 1q18 2 18 -14v-73q0 -29 -83 -29z" />
    <glyph glyph-name="u" unicode="u" 
d="M236 -12q-79 0 -128 54t-49 148v285q0 15 15 15h108q15 0 15 -15v-254q0 -106 91 -106q44 0 70 27.5t26 78.5v254q0 15 15 15h107q16 0 16 -15v-460q0 -15 -16 -15h-103q-15 0 -15 16l-4 58q-48 -86 -148 -86z" />
    <glyph glyph-name="v" unicode="v" horiz-adv-x="571" 
d="M231 0q-13 0 -18 12l-183 461q-6 17 12 17h110q14 0 18 -12l116 -319l115 319q5 12 18 12h110q18 0 12 -17l-183 -461q-4 -12 -18 -12h-109z" />
    <glyph glyph-name="w" unicode="w" horiz-adv-x="881" 
d="M202 0q-14 0 -18 12l-154 461q-6 17 12 17h105q13 0 18 -12l98 -318l107 318q4 12 18 12h105q13 0 18 -12l106 -318l98 318q5 12 19 12h104q18 0 12 -17l-153 -461q-5 -12 -18 -12h-111q-14 0 -18 12l-110 318l-109 -318q-5 -12 -18 -12h-111z" />
    <glyph glyph-name="x" unicode="x" horiz-adv-x="526" 
d="M42 0q-9 0 -12 5t2 13l148 233l-142 221q-5 8 -2 13t12 5h118q12 0 18 -10l79 -131l78 131q6 10 18 10h118q9 0 12 -5t-2 -13l-141 -221l147 -233q5 -8 2 -13t-12 -5h-118q-12 0 -18 10l-84 143l-85 -143q-6 -10 -18 -10h-118z" />
    <glyph glyph-name="y" unicode="y" horiz-adv-x="573" 
d="M160 -190q-20 0 -12 17l71 172l-189 474q-6 17 12 17h110q14 0 18 -12l117 -318l116 318q4 12 18 12h110q18 0 12 -17l-259 -651q-4 -12 -18 -12h-106z" />
    <glyph glyph-name="z" unicode="z" horiz-adv-x="470" 
d="M54 0q-15 0 -15 15v86q0 12 7 19l230 258h-219q-15 0 -15 15v82q0 15 15 15h357q15 0 15 -15v-86q0 -12 -7 -19l-229 -258h222q15 0 15 -15v-82q0 -15 -15 -15h-361z" />
    <glyph glyph-name="braceleft" unicode="{" horiz-adv-x="365" 
d="M196 -130q-40 0 -69.5 23.5t-29.5 76.5v255q0 11 -5 19l-33 52q-6 11 -1 20l34 54q5 9 5 19v256q0 53 30 76.5t69 23.5h99q15 0 15 -15v-82q0 -15 -15 -15h-20q-35 0 -35 -32v-217q0 -9 -6 -18l-36 -49q-8 -11 0 -21l36 -48q6 -9 6 -18v-216q0 -32 35 -32h20q15 0 15 -15
v-82q0 -15 -15 -15h-99z" />
    <glyph glyph-name="bar" unicode="|" horiz-adv-x="282" 
d="M84 -190q-15 0 -15 15v960q0 15 15 15h113q15 0 15 -15v-960q0 -15 -15 -15h-113z" />
    <glyph glyph-name="braceright" unicode="}" horiz-adv-x="365" 
d="M169 -130h-99q-15 0 -15 15v82q0 15 15 15h20q35 0 35 32v216q0 9 6 18l36 48q7 10 0 21l-36 49q-6 9 -6 18v217q0 32 -35 32h-20q-15 0 -15 15v82q0 15 15 15h99q39 0 69 -23.5t30 -76.5v-256q0 -10 5 -19l34 -54q5 -9 -1 -20l-33 -52q-5 -8 -5 -19v-255
q0 -53 -29.5 -76.5t-69.5 -23.5z" />
    <glyph glyph-name="asciitilde" unicode="~" horiz-adv-x="525" 
d="M351 204q-38 0 -71.5 19.5t-61 38.5t-50.5 19q-39 0 -51 -31q-5 -9 -12 -9h-34q-11 0 -11 11q0 55 32.5 85t82.5 30q38 0 71 -19.5t60.5 -38.5t51.5 -19q18 0 32 9t19 21q5 9 12 9h33q11 0 11 -10q1 -56 -31.5 -85.5t-82.5 -29.5z" />
    <glyph glyph-name="uni00A0" unicode="&#xa0;" horiz-adv-x="195" 
 />
    <glyph glyph-name="exclamdown" unicode="&#xa1;" horiz-adv-x="274" 
d="M137 533q34 0 58.5 -24t24.5 -58q0 -35 -24.5 -59.5t-58.5 -24.5t-58 24.5t-24 59.5q0 34 24 58t58 24zM97 305h80q15 0 15 -15l16 -455q0 -15 -15 -15h-111q-15 0 -15 15l15 455q0 15 15 15z" />
    <glyph glyph-name="cent" unicode="&#xa2;" horiz-adv-x="478" 
d="M439 219q8 -10 1 -19q-56 -69 -146 -78v-107q0 -15 -15 -15h-22q-15 0 -15 15v107q-92 10 -150 74.5t-58 155.5q0 90 58.5 153.5t149.5 72.5v107q0 15 15 15h22q15 0 15 -15v-107q93 -10 145 -77q7 -11 -1 -19l-55 -52q-13 -13 -24 0q-30 29 -65 34v-229q35 5 66 36
q11 11 24 0zM155 352q0 -41 23.5 -72.5t63.5 -41.5v225q-40 -9 -63.5 -39.5t-23.5 -71.5z" />
    <glyph glyph-name="sterling" unicode="&#xa3;" horiz-adv-x="548" 
d="M60 0q-15 0 -15 15v102q103 51 103 135q0 5 -0.5 10.5t-0.5 6.5h-86q-16 0 -16 15v62q0 16 16 16h50q-45 78 -45 139q0 89 63 148t162 59q131 0 210 -112q9 -13 -3 -24l-62 -59q-12 -12 -22 0q-50 68 -113 68q-44 0 -72 -26t-28 -69q0 -18 5.5 -35.5t12 -29t18 -30.5
t17.5 -30h147q15 0 15 -15v-62q0 -15 -15 -15h-125q2 -6 2 -23q0 -64 -72 -129h264q15 0 15 -15v-87q0 -15 -15 -15h-410z" />
    <glyph glyph-name="currency" unicode="&#xa4;" horiz-adv-x="602" 
d="M132 247l-72 71l46 46q-31 51 -31 112t31 112l-46 46l72 71l43 -42q58 37 124 37q71 0 127 -39l44 44l72 -71l-48 -48q29 -49 29 -110t-29 -110l48 -48l-72 -71l-44 44q-56 -39 -127 -39q-67 0 -124 38zM299 344q62 0 96.5 41.5t34.5 90.5q0 48 -34.5 90t-96.5 42
q-61 0 -96 -42t-35 -90t35 -90t96 -42z" />
    <glyph glyph-name="yen" unicode="&#xa5;" horiz-adv-x="627" 
d="M580 700q20 0 10 -18l-204 -358h80q15 0 15 -16v-61q0 -15 -15 -15h-81v-31h81q15 0 15 -15v-61q0 -15 -15 -15h-81v-95q0 -15 -15 -15h-113q-15 0 -15 15v95h-80q-16 0 -16 15v61q0 15 16 15h80v31h-80q-16 0 -16 15v61q0 16 16 16h80v1l-205 357q-10 18 10 18h118
q12 0 18 -10l131 -235l130 235q6 10 18 10h118z" />
    <glyph glyph-name="brokenbar" unicode="&#xa6;" horiz-adv-x="282" 
d="M84 490q-15 0 -15 15v280q0 15 15 15h113q15 0 15 -15v-280q0 -15 -15 -15h-113zM84 -190q-15 0 -15 15v280q0 15 15 15h113q15 0 15 -15v-280q0 -15 -15 -15h-113z" />
    <glyph glyph-name="section" unicode="&#xa7;" horiz-adv-x="470" 
d="M235 -6q-119 0 -187 80q-7 10 0 21l41 60q7 10 22 0q69 -46 115 -46q55 0 55 37q0 19 -12 29.5t-42 22.5l-60 24q-108 43 -108 135q0 69 50 109q-41 38 -41 96q0 68 50 108t122 40q101 0 166 -74q7 -9 -1 -21l-45 -53q-9 -11 -23 0q-51 39 -90 39q-24 0 -36.5 -10.5
t-12.5 -26.5q0 -28 49 -47l69 -27q51 -21 80 -52t29 -88q0 -68 -46 -108q37 -37 37 -97q0 -73 -52 -112t-129 -39zM235 313q25 0 40.5 10t15.5 28q0 22 -16 33.5t-37 11.5q-24 0 -37 -10.5t-13 -26.5q0 -26 47 -46z" />
    <glyph glyph-name="dieresis" unicode="&#xa8;" horiz-adv-x="388" 
d="M84 566q-28 0 -48.5 20t-20.5 50q0 29 20.5 49t48.5 20q29 0 49 -20t20 -49q0 -30 -20 -50t-49 -20zM304 566q-29 0 -49 20t-20 50q0 29 20 49t49 20t49 -20t20 -49q0 -30 -20 -50t-49 -20z" />
    <glyph glyph-name="copyright" unicode="&#xa9;" horiz-adv-x="669" 
d="M334 136q-118 0 -201.5 83t-83.5 203t83.5 203t201.5 83t201.5 -83t83.5 -203t-83.5 -203t-201.5 -83zM334 216q86 0 144.5 59.5t58.5 146.5t-58.5 146.5t-144.5 59.5q-85 0 -143.5 -59.5t-58.5 -146.5t58.5 -146.5t143.5 -59.5zM341 280q-60 0 -101 41t-41 101t41 101
t101 41q68 0 105 -48q5 -7 0 -12l-34 -32q-6 -6 -13 0q-25 22 -54 22q-31 0 -51 -20.5t-20 -51.5t20 -51.5t51 -20.5q29 0 54 22q7 6 13 0l34 -32q5 -5 0 -12q-37 -48 -105 -48z" />
    <glyph glyph-name="ordfeminine" unicode="&#xaa;" horiz-adv-x="434" 
d="M200 341q-72 0 -119 52t-47 130t47 130t119 52q58 0 106 -38l7 33h86v-359h-86l-7 38q-48 -38 -106 -38zM217 438q37 0 61.5 24t24.5 61t-24.5 61.5t-61.5 24.5t-61 -24.5t-24 -61.5t24 -61t61 -24z" />
    <glyph glyph-name="guillemotleft" unicode="&#xab;" horiz-adv-x="432" 
d="M183 121l-130 93q-8 7 -8 17v84q0 10 8 17l130 93q6 5 12 3.5t6 -10.5v-73q0 -13 -8 -18l-84 -54l84 -55q8 -5 8 -18v-72q0 -9 -6 -10.5t-12 3.5zM369 121l-130 93q-8 7 -8 17v84q0 10 8 17l130 93q6 5 12.5 3.5t6.5 -10.5v-73q0 -13 -8 -18l-85 -54l85 -55q8 -5 8 -18
v-72q0 -9 -6.5 -10.5t-12.5 3.5z" />
    <glyph glyph-name="logicalnot" unicode="&#xac;" horiz-adv-x="547" 
d="M366 127q-15 0 -15 15v58h-276q-15 0 -15 15v82q0 16 15 16h397q15 0 15 -16v-155q0 -15 -15 -15h-106z" />
    <glyph glyph-name="uni00AD" unicode="&#xad;" horiz-adv-x="430" 
d="M65 221q-15 0 -15 15v82q0 15 15 15h300q15 0 15 -15v-82q0 -15 -15 -15h-300z" />
    <glyph glyph-name="registered" unicode="&#xae;" horiz-adv-x="669" 
d="M334 136q-118 0 -201.5 83t-83.5 203t83.5 203t201.5 83t201.5 -83t83.5 -203t-83.5 -203t-201.5 -83zM334 216q85 0 144 59.5t59 146.5t-59 146.5t-144 59.5t-143.5 -59.5t-58.5 -146.5t58.5 -146.5t143.5 -59.5zM236 295q-8 0 -8 8v240q0 8 8 8h119q112 0 112 -89
q0 -66 -65 -85l64 -72q3 -4 1.5 -7t-5.5 -3h-63q-6 0 -10 4l-63 73h-28v-69q0 -8 -7 -8h-55zM298 429h58q38 0 38 33q0 32 -38 32h-58v-65z" />
    <glyph glyph-name="macron" unicode="&#xaf;" horiz-adv-x="364" 
d="M30 593q-15 0 -15 15v77q0 15 15 15h303q16 0 16 -15v-77q0 -15 -16 -15h-303z" />
    <glyph glyph-name="degree" unicode="&#xb0;" horiz-adv-x="416" 
d="M208 422q-62 0 -105 43t-43 105q0 61 43 103.5t105 42.5t105 -42.5t43 -103.5q0 -62 -43 -105t-105 -43zM208 505q30 0 46.5 20.5t16.5 44.5q0 23 -16.5 43t-46.5 20t-46.5 -20t-16.5 -43q0 -24 16.5 -44.5t46.5 -20.5z" />
    <glyph glyph-name="plusminus" unicode="&#xb1;" horiz-adv-x="484" 
d="M206 139q-15 0 -15 15v111h-111q-15 0 -15 15v72q0 15 15 15h111v111q0 15 15 15h72q15 0 15 -15v-111h111q15 0 15 -15v-72q0 -15 -15 -15h-111v-111q0 -15 -15 -15h-72zM80 0q-15 0 -15 15v56q0 15 15 15h324q15 0 15 -15v-56q0 -15 -15 -15h-324z" />
    <glyph glyph-name="uni00B2" unicode="&#xb2;" horiz-adv-x="343" 
d="M43 329v71l98 88q7 6 21.5 19t19.5 17.5t15 14t13 14t7.5 12.5t6 14.5t1.5 14.5q0 22 -15.5 35.5t-40.5 13.5q-23 0 -38 -14t-15 -38v-20h-76v21q0 54 34 86t95 32q62 0 98 -31.5t36 -77.5q0 -29 -16 -56t-33 -43t-65 -58l-49 -44h158v-71h-255z" />
    <glyph glyph-name="uni00B3" unicode="&#xb3;" horiz-adv-x="368" 
d="M181 325q-72 0 -106.5 34.5t-34.5 96.5h75q0 -65 68 -65q30 0 49 14t19 39q0 28 -23 38.5t-73 10.5v57q46 0 63.5 13t17.5 38q0 19 -15 31t-43 12q-59 0 -59 -61h-75q-1 62 35 94.5t101 32.5q60 0 96.5 -27.5t36.5 -72.5q0 -55 -55 -78q70 -25 70 -92q0 -54 -40 -84.5
t-107 -30.5z" />
    <glyph glyph-name="acute" unicode="&#xb4;" horiz-adv-x="219" 
d="M29 557q-21 0 -12 17l59 114q7 12 17 12h97q21 0 12 -17l-60 -114q-7 -12 -18 -12h-95z" />
    <glyph glyph-name="uni00B5" unicode="&#xb5;" 
d="M74 -190q-15 0 -15 15v650q0 15 15 15h108q15 0 15 -15v-254q0 -106 91 -106q44 0 70 27.5t26 78.5v254q0 15 15 15h107q16 0 16 -15v-460q0 -15 -16 -15h-103q-15 0 -15 16l-4 58q-31 -86 -114 -86q-50 0 -73 28v-191q0 -15 -15 -15h-108z" />
    <glyph glyph-name="paragraph" unicode="&#xb6;" horiz-adv-x="803" 
d="M506 0h-113q-15 0 -15 15v230h-83q-121 0 -183.5 61.5t-62.5 166.5q0 104 62.5 165.5t183.5 61.5h211q15 0 15 -15v-670q0 -15 -15 -15zM605 0q-15 0 -15 15v670q0 15 15 15h113q15 0 15 -15v-670q0 -15 -15 -15h-113zM378 372v201h-78q-114 0 -114 -100q0 -101 114 -101
h78z" />
    <glyph glyph-name="periodcentered" unicode="&#xb7;" horiz-adv-x="265" 
d="M132 205q-34 0 -58 24t-24 58t24 58.5t58 24.5t58.5 -24t24.5 -59q0 -34 -24 -58t-59 -24z" />
    <glyph glyph-name="cedilla" unicode="&#xb8;" horiz-adv-x="216" 
d="M24 -217q-9 1 -9 11v48q0 10 11 10q83 -9 83 26q0 14 -23.5 20.5t-58.5 -4.5q-12 -5 -12 7v50q0 9 5 12l39 37h90l-37 -33q36 -3 62.5 -25t26.5 -58q0 -42 -26.5 -68t-65.5 -33t-85 0z" />
    <glyph glyph-name="uni00B9" unicode="&#xb9;" horiz-adv-x="211" 
d="M76 323v304h-41v73h116v-377h-75z" />
    <glyph glyph-name="ordmasculine" unicode="&#xba;" horiz-adv-x="435" 
d="M217 341q-78 0 -130.5 52t-52.5 130t52.5 130t130.5 52t130.5 -52t52.5 -130t-52.5 -130t-130.5 -52zM217 438q37 0 61.5 24t24.5 61t-24.5 61.5t-61.5 24.5t-61 -24.5t-24 -61.5t24 -61t61 -24z" />
    <glyph glyph-name="guillemotright" unicode="&#xbb;" horiz-adv-x="432" 
d="M63 121q-6 -5 -12 -3.5t-6 10.5v72q0 13 8 18l84 55l-84 54q-8 5 -8 18v73q0 9 6 10.5t12 -3.5l130 -93q8 -7 8 -17v-84q0 -10 -8 -17zM250 121q-7 -5 -13 -3.5t-6 10.5v72q0 13 8 18l84 55l-84 54q-8 5 -8 18v73q0 9 6 10.5t13 -3.5l130 -93q8 -7 8 -17v-84
q0 -10 -8 -17z" />
    <glyph glyph-name="onequarter" unicode="&#xbc;" horiz-adv-x="832" 
d="M71 323v304h-41v73h116v-377h-75zM126 0l401 700h82l-402 -700h-81zM678 0v78h-199l199 299h75v-226h39v-73h-39v-78h-75zM602 151h76v120z" />
    <glyph glyph-name="onehalf" unicode="&#xbd;" horiz-adv-x="812" 
d="M71 323v304h-41v73h116v-377h-75zM126 0l401 700h82l-402 -700h-81zM512 0v71l98 88q7 6 21.5 19t19.5 17.5t15 14t13 14t7.5 12.5t6 14.5t1.5 14.5q0 22 -15.5 35.5t-40.5 13.5q-23 0 -38 -14t-15 -38v-20h-76v21q0 54 34 86t95 32q62 0 98 -31.5t36 -77.5
q0 -29 -16 -56t-33 -43t-65 -58l-49 -44h158v-71h-255z" />
    <glyph glyph-name="threequarters" unicode="&#xbe;" horiz-adv-x="914" 
d="M181 325q-72 0 -106.5 34.5t-34.5 96.5h75q0 -65 68 -65q30 0 49 14t19 39q0 28 -23 38.5t-73 10.5v57q46 0 63.5 13t17.5 38q0 19 -15 31t-43 12q-59 0 -59 -61h-75q-1 62 35 94.5t101 32.5q60 0 96.5 -27.5t36.5 -72.5q0 -55 -55 -78q70 -25 70 -92q0 -54 -40 -84.5
t-107 -30.5zM208 0l401 700h82l-402 -700h-81zM760 0v78h-199l199 299h75v-226h39v-73h-39v-78h-75zM684 151h76v120z" />
    <glyph glyph-name="questiondown" unicode="&#xbf;" horiz-adv-x="464" 
d="M224 533q34 0 58 -24t24 -58q0 -35 -24 -59.5t-58 -24.5t-58 24.5t-24 59.5q0 34 24 58t58 24zM268 304q15 0 15 -15l1 -38q1 -42 -11.5 -73t-31 -49.5t-37.5 -34t-32.5 -35t-13.5 -44.5q0 -32 21 -50.5t54 -18.5q61 0 93 75q8 14 24 4l62 -38q21 -12 16 -29
q-21 -65 -76.5 -105.5t-135.5 -40.5q-81 0 -139 44.5t-58 129.5q0 41 14 72.5t34.5 52.5t41 40t36.5 44t19 56l3 38q2 15 15 15h86z" />
    <glyph glyph-name="Agrave" unicode="&#xc0;" horiz-adv-x="697" 
d="M281 779l-60 114q-9 17 12 17h97q10 0 17 -12l59 -114q9 -17 -12 -17h-96q-10 0 -17 12zM662 17q3 -7 -1 -12t-12 -5h-118q-13 0 -17 12l-34 103h-264l-34 -103q-4 -12 -17 -12h-118q-19 0 -12 17l234 671q5 12 19 12h121q15 0 19 -12zM257 242h182l-91 278z" />
    <glyph glyph-name="Aacute" unicode="&#xc1;" horiz-adv-x="697" 
d="M304 767q-21 0 -12 17l59 114q7 12 17 12h97q21 0 12 -17l-60 -114q-7 -12 -17 -12h-96zM662 17q3 -7 -1 -12t-12 -5h-118q-13 0 -17 12l-34 103h-264l-34 -103q-4 -12 -17 -12h-118q-19 0 -12 17l234 671q5 12 19 12h121q15 0 19 -12zM257 242h182l-91 278z" />
    <glyph glyph-name="Acircumflex" unicode="&#xc2;" horiz-adv-x="697" 
d="M203 775q-9 0 -11 6t4 12l91 109q7 8 17 8h88q10 0 17 -8l91 -109q4 -4 4.5 -8t-2.5 -7t-9 -3h-72q-11 0 -18 8l-55 66l-54 -66q-7 -8 -18 -8h-73zM662 17q3 -7 -1 -12t-12 -5h-118q-13 0 -17 12l-34 103h-264l-34 -103q-4 -12 -17 -12h-118q-19 0 -12 17l234 671
q5 12 19 12h121q15 0 19 -12zM257 242h182l-91 278z" />
    <glyph glyph-name="Atilde" unicode="&#xc3;" horiz-adv-x="697" 
d="M174 818q-10 0 -10 13q4 50 33 75.5t74 25.5q43 0 91.5 -35t72.5 -35q34 0 46 28q3 8 11 8h31q10 0 10 -10q-3 -51 -32.5 -78t-74.5 -27q-27 0 -51.5 11t-40 24.5t-35 24.5t-37.5 11q-34 0 -46 -28q-3 -8 -11 -8h-31zM662 17q3 -7 -1 -12t-12 -5h-118q-13 0 -17 12
l-34 103h-264l-34 -103q-4 -12 -17 -12h-118q-19 0 -12 17l234 671q5 12 19 12h121q15 0 19 -12zM257 242h182l-91 278z" />
    <glyph glyph-name="Adieresis" unicode="&#xc4;" horiz-adv-x="697" 
d="M238 776q-28 0 -48.5 20t-20.5 50q0 29 20.5 49t48.5 20q29 0 49 -20t20 -49q0 -30 -20 -50t-49 -20zM458 776q-29 0 -49 20t-20 50q0 29 20 49t49 20t49 -20t20 -49q0 -30 -20 -50t-49 -20zM662 17q3 -7 -1 -12t-12 -5h-118q-13 0 -17 12l-34 103h-264l-34 -103
q-4 -12 -17 -12h-118q-19 0 -12 17l234 671q5 12 19 12h121q15 0 19 -12zM257 242h182l-91 278z" />
    <glyph glyph-name="Aring" unicode="&#xc5;" horiz-adv-x="697" 
d="M348 749q-46 0 -74.5 28.5t-28.5 71.5q0 42 29 72t74 30t74 -30t29 -72q0 -43 -28.5 -71.5t-74.5 -28.5zM348 874q-10 0 -17 -7t-7 -17t7 -17t17 -7t17 7t7 17t-7 17t-17 7zM662 17q3 -7 -1 -12t-12 -5h-118q-13 0 -17 12l-34 103h-264l-34 -103q-4 -12 -17 -12h-118
q-19 0 -12 17l234 671q5 12 19 12h121q15 0 19 -12zM257 242h182l-91 278z" />
    <glyph glyph-name="AE" unicode="&#xc6;" horiz-adv-x="859" 
d="M785 573h-228v-155h215q15 0 15 -15v-97q0 -15 -15 -15h-215v-164h228q15 0 15 -15v-97q0 -15 -15 -15h-356q-15 0 -15 15v127h-178l-53 -130q-5 -12 -17 -12h-119q-19 0 -12 17l296 671q5 12 17 12h437q15 0 15 -15v-97q0 -15 -15 -15zM286 263h128v314z" />
    <glyph glyph-name="Ccedilla" unicode="&#xc7;" horiz-adv-x="704" 
d="M585 184l70 -75q10 -10 0 -20q-91 -92 -217 -101l-24 -21q36 -3 62.5 -25t26.5 -58q0 -42 -26.5 -68t-65.5 -33t-85 0q-9 1 -9 11v48q0 10 11 10q83 -9 83 26q0 14 -23.5 20.5t-58.5 -4.5q-12 -5 -12 7v50q0 9 5 12l30 28q-131 21 -217 120t-86 236q0 153 105 257
t256 104q144 0 245 -101q10 -10 0 -21l-70 -75q-9 -11 -21 -1q-70 58 -154 58q-92 0 -154 -63t-62 -158t61.5 -157.5t154.5 -62.5q84 0 154 58q12 10 21 -1z" />
    <glyph glyph-name="Egrave" unicode="&#xc8;" horiz-adv-x="515" 
d="M319 767h-96q-10 0 -17 12l-60 114q-9 17 12 17h97q10 0 17 -12l59 -114q9 -17 -12 -17zM84 0q-15 0 -15 15v670q0 15 15 15h356q15 0 15 -15v-97q0 -15 -15 -15h-228v-155h215q15 0 15 -15v-97q0 -15 -15 -15h-215v-164h228q15 0 15 -15v-97q0 -15 -15 -15h-356z" />
    <glyph glyph-name="Eacute" unicode="&#xc9;" horiz-adv-x="515" 
d="M229 767q-21 0 -12 17l59 114q7 12 17 12h97q21 0 12 -17l-60 -114q-7 -12 -17 -12h-96zM84 0q-15 0 -15 15v670q0 15 15 15h356q15 0 15 -15v-97q0 -15 -15 -15h-228v-155h215q15 0 15 -15v-97q0 -15 -15 -15h-215v-164h228q15 0 15 -15v-97q0 -15 -15 -15h-356z" />
    <glyph glyph-name="Ecircumflex" unicode="&#xca;" horiz-adv-x="515" 
d="M128 775q-9 0 -11 6t4 12l91 109q7 8 17 8h88q10 0 17 -8l91 -109q4 -4 4.5 -8t-2.5 -7t-9 -3h-72q-11 0 -18 8l-55 66l-54 -66q-7 -8 -18 -8h-73zM84 0q-15 0 -15 15v670q0 15 15 15h356q15 0 15 -15v-97q0 -15 -15 -15h-228v-155h215q15 0 15 -15v-97q0 -15 -15 -15
h-215v-164h228q15 0 15 -15v-97q0 -15 -15 -15h-356z" />
    <glyph glyph-name="Edieresis" unicode="&#xcb;" horiz-adv-x="515" 
d="M163 776q-28 0 -48.5 20t-20.5 50q0 29 20.5 49t48.5 20q29 0 49 -20t20 -49q0 -30 -20 -50t-49 -20zM383 776q-29 0 -49 20t-20 50q0 29 20 49t49 20t49 -20t20 -49q0 -30 -20 -50t-49 -20zM84 0q-15 0 -15 15v670q0 15 15 15h356q15 0 15 -15v-97q0 -15 -15 -15h-228
v-155h215q15 0 15 -15v-97q0 -15 -15 -15h-215v-164h228q15 0 15 -15v-97q0 -15 -15 -15h-356z" />
    <glyph glyph-name="Igrave" unicode="&#xcc;" horiz-adv-x="282" 
d="M186 767h-96q-10 0 -17 12l-60 114q-9 17 12 17h97q10 0 17 -12l59 -114q9 -17 -12 -17zM84 0q-15 0 -15 15v670q0 15 15 15h113q15 0 15 -15v-670q0 -15 -15 -15h-113z" />
    <glyph glyph-name="Iacute" unicode="&#xcd;" horiz-adv-x="282" 
d="M96 767q-21 0 -12 17l59 114q7 12 17 12h97q21 0 12 -17l-60 -114q-7 -12 -17 -12h-96zM84 0q-15 0 -15 15v670q0 15 15 15h113q15 0 15 -15v-670q0 -15 -15 -15h-113z" />
    <glyph glyph-name="Icircumflex" unicode="&#xce;" horiz-adv-x="282" 
d="M-4 775q-9 0 -11 6t4 12l91 109q7 8 17 8h88q10 0 17 -8l91 -109q4 -4 4.5 -8t-2.5 -7t-9 -3h-72q-11 0 -18 8l-55 66l-54 -66q-7 -8 -18 -8h-73zM84 0q-15 0 -15 15v670q0 15 15 15h113q15 0 15 -15v-670q0 -15 -15 -15h-113z" />
    <glyph glyph-name="Idieresis" unicode="&#xcf;" horiz-adv-x="282" 
d="M31 776q-28 0 -48.5 20t-20.5 50q0 29 20.5 49t48.5 20q29 0 49 -20t20 -49q0 -30 -20 -50t-49 -20zM251 776q-29 0 -49 20t-20 50q0 29 20 49t49 20t49 -20t20 -49q0 -30 -20 -50t-49 -20zM84 0q-15 0 -15 15v670q0 15 15 15h113q15 0 15 -15v-670q0 -15 -15 -15h-113z
" />
    <glyph glyph-name="Eth" unicode="&#xd0;" horiz-adv-x="699" 
d="M298 700q170 0 263.5 -98t93.5 -252t-93.5 -252t-263.5 -98h-206q-15 0 -15 15v276h-37q-15 0 -15 15v77q0 15 15 15h37v287q0 15 15 15h206zM296 127q106 0 160 57t54 166t-54 166t-160 57h-76v-175h123q16 0 16 -15v-77q0 -15 -16 -15h-123v-164h76z" />
    <glyph glyph-name="Ntilde" unicode="&#xd1;" horiz-adv-x="697" 
d="M174 818q-10 0 -10 13q4 50 33 75.5t74 25.5q43 0 91.5 -35t72.5 -35q34 0 46 28q3 8 11 8h31q10 0 10 -10q-3 -51 -32.5 -78t-74.5 -27q-27 0 -51.5 11t-40 24.5t-35 24.5t-37.5 11q-34 0 -46 -28q-3 -8 -11 -8h-31zM613 700q15 0 15 -15v-670q0 -15 -15 -15h-133
q-12 0 -18 10l-250 461v-456q0 -15 -15 -15h-113q-15 0 -15 15v670q0 15 15 15h133q12 0 18 -10l250 -461v456q0 15 15 15h113z" />
    <glyph glyph-name="Ograve" unicode="&#xd2;" horiz-adv-x="819" 
d="M455 767h-96q-10 0 -17 12l-60 114q-9 17 12 17h97q10 0 17 -12l59 -114q9 -17 -12 -17zM409 -13q-150 0 -255 104.5t-105 255.5q0 152 105 256.5t255 104.5t255 -104.5t105 -256.5q0 -151 -105 -255.5t-255 -104.5zM409 127q92 0 153.5 63t61.5 157q0 95 -61.5 158
t-153.5 63t-153.5 -63.5t-61.5 -157.5t61.5 -157t153.5 -63z" />
    <glyph glyph-name="Oacute" unicode="&#xd3;" horiz-adv-x="819" 
d="M365 767q-21 0 -12 17l59 114q7 12 17 12h97q21 0 12 -17l-60 -114q-7 -12 -17 -12h-96zM409 -13q-150 0 -255 104.5t-105 255.5q0 152 105 256.5t255 104.5t255 -104.5t105 -256.5q0 -151 -105 -255.5t-255 -104.5zM409 127q92 0 153.5 63t61.5 157q0 95 -61.5 158
t-153.5 63t-153.5 -63.5t-61.5 -157.5t61.5 -157t153.5 -63z" />
    <glyph glyph-name="Ocircumflex" unicode="&#xd4;" horiz-adv-x="819" 
d="M264 775q-9 0 -11 6t4 12l91 109q7 8 17 8h88q10 0 17 -8l91 -109q4 -4 4.5 -8t-2.5 -7t-9 -3h-72q-11 0 -18 8l-55 66l-54 -66q-7 -8 -18 -8h-73zM409 -13q-150 0 -255 104.5t-105 255.5q0 152 105 256.5t255 104.5t255 -104.5t105 -256.5q0 -151 -105 -255.5
t-255 -104.5zM409 127q92 0 153.5 63t61.5 157q0 95 -61.5 158t-153.5 63t-153.5 -63.5t-61.5 -157.5t61.5 -157t153.5 -63z" />
    <glyph glyph-name="Otilde" unicode="&#xd5;" horiz-adv-x="819" 
d="M487 783q-27 0 -51.5 11t-40 24.5t-35 24.5t-37.5 11q-34 0 -46 -28q-3 -8 -11 -8h-31q-10 0 -10 13q4 50 33 75.5t74 25.5q43 0 91.5 -35t72.5 -35q34 0 46 28q3 8 11 8h31q10 0 10 -10q-3 -51 -32.5 -78t-74.5 -27zM409 -13q-150 0 -255 104.5t-105 255.5
q0 152 105 256.5t255 104.5t255 -104.5t105 -256.5q0 -151 -105 -255.5t-255 -104.5zM409 127q92 0 153.5 63t61.5 157q0 95 -61.5 158t-153.5 63t-153.5 -63.5t-61.5 -157.5t61.5 -157t153.5 -63z" />
    <glyph glyph-name="Odieresis" unicode="&#xd6;" horiz-adv-x="819" 
d="M299 776q-28 0 -48.5 20t-20.5 50q0 29 20.5 49t48.5 20q29 0 49 -20t20 -49q0 -30 -20 -50t-49 -20zM519 776q-29 0 -49 20t-20 50q0 29 20 49t49 20t49 -20t20 -49q0 -30 -20 -50t-49 -20zM409 -13q-150 0 -255 104.5t-105 255.5q0 152 105 256.5t255 104.5t255 -104.5
t105 -256.5q0 -151 -105 -255.5t-255 -104.5zM409 127q92 0 153.5 63t61.5 157q0 95 -61.5 158t-153.5 63t-153.5 -63.5t-61.5 -157.5t61.5 -157t153.5 -63z" />
    <glyph glyph-name="multiply" unicode="&#xd7;" horiz-adv-x="441" 
d="M70 185q-11 11 0 22l78 78l-78 79q-12 10 0 21l50 51q11 9 22 0l78 -79l79 79q11 10 21 0l51 -51q11 -11 0 -21l-79 -79l79 -78q9 -11 0 -22l-51 -50q-10 -12 -21 0l-79 78l-78 -78q-11 -11 -22 0z" />
    <glyph glyph-name="Oslash" unicode="&#xd8;" horiz-adv-x="819" 
d="M599 654q78 -48 124 -129t46 -178q0 -151 -105 -255.5t-255 -104.5q-58 0 -112 17l-20 -43q-5 -11 -17 -11h-64q-19 0 -11 18l34 72q-78 48 -124 129t-46 178q0 152 105 256.5t255 104.5q59 0 113 -18l20 44q5 11 17 11h63q19 0 11 -18zM194 347q0 -113 85 -177l183 392
q-25 6 -53 6q-92 0 -153.5 -63.5t-61.5 -157.5zM409 127q92 0 153.5 63t61.5 157q0 114 -85 178l-182 -392q25 -6 52 -6z" />
    <glyph glyph-name="Ugrave" unicode="&#xd9;" horiz-adv-x="657" 
d="M374 767h-96q-10 0 -17 12l-60 114q-9 17 12 17h97q10 0 17 -12l59 -114q9 -17 -12 -17zM329 -13q-120 0 -192.5 72.5t-72.5 206.5v419q0 15 15 15h113q15 0 15 -15v-416q0 -69 32 -105.5t90 -36.5q57 0 89 37t32 105v416q0 15 15 15h113q15 0 15 -15v-419
q0 -134 -72.5 -206.5t-191.5 -72.5z" />
    <glyph glyph-name="Uacute" unicode="&#xda;" horiz-adv-x="657" 
d="M284 767q-21 0 -12 17l59 114q7 12 17 12h97q21 0 12 -17l-60 -114q-7 -12 -17 -12h-96zM329 -13q-120 0 -192.5 72.5t-72.5 206.5v419q0 15 15 15h113q15 0 15 -15v-416q0 -69 32 -105.5t90 -36.5q57 0 89 37t32 105v416q0 15 15 15h113q15 0 15 -15v-419
q0 -134 -72.5 -206.5t-191.5 -72.5z" />
    <glyph glyph-name="Ucircumflex" unicode="&#xdb;" horiz-adv-x="657" 
d="M183 775q-9 0 -11 6t4 12l91 109q7 8 17 8h88q10 0 17 -8l91 -109q4 -4 4.5 -8t-2.5 -7t-9 -3h-72q-11 0 -18 8l-55 66l-54 -66q-7 -8 -18 -8h-73zM329 -13q-120 0 -192.5 72.5t-72.5 206.5v419q0 15 15 15h113q15 0 15 -15v-416q0 -69 32 -105.5t90 -36.5q57 0 89 37
t32 105v416q0 15 15 15h113q15 0 15 -15v-419q0 -134 -72.5 -206.5t-191.5 -72.5z" />
    <glyph glyph-name="Udieresis" unicode="&#xdc;" horiz-adv-x="657" 
d="M219 776q-28 0 -48.5 20t-20.5 50q0 29 20.5 49t48.5 20q29 0 49 -20t20 -49q0 -30 -20 -50t-49 -20zM439 776q-29 0 -49 20t-20 50q0 29 20 49t49 20t49 -20t20 -49q0 -30 -20 -50t-49 -20zM329 -13q-120 0 -192.5 72.5t-72.5 206.5v419q0 15 15 15h113q15 0 15 -15
v-416q0 -69 32 -105.5t90 -36.5q57 0 89 37t32 105v416q0 15 15 15h113q15 0 15 -15v-419q0 -134 -72.5 -206.5t-191.5 -72.5z" />
    <glyph glyph-name="Yacute" unicode="&#xdd;" horiz-adv-x="627" 
d="M269 767q-21 0 -12 17l59 114q7 12 17 12h97q21 0 12 -17l-60 -114q-7 -12 -17 -12h-96zM257 0q-15 0 -15 15v310l-205 357q-10 18 10 18h118q12 0 18 -10l131 -235l130 235q6 10 18 10h118q20 0 10 -18l-205 -359v-308q0 -15 -15 -15h-113z" />
    <glyph glyph-name="Thorn" unicode="&#xde;" horiz-adv-x="591" 
d="M296 580q123 0 189.5 -60.5t66.5 -169.5t-66.5 -169.5t-189.5 -60.5h-84v-105q0 -15 -15 -15h-113q-15 0 -15 15v670q0 15 15 15h113q15 0 15 -15v-105h84zM285 247q64 0 97 22.5t33 80.5t-33 80.5t-97 22.5h-73v-206h73z" />
    <glyph glyph-name="germandbls" unicode="&#xdf;" horiz-adv-x="617" 
d="M84 0q-15 0 -15 15v485q0 102 69 155t172 53q101 0 169 -49.5t68 -139.5q0 -68 -36 -107.5t-83 -44.5q68 -8 111.5 -51t43.5 -125q0 -191 -256 -191h-54q-15 0 -15 15v78q0 15 15 15h46q69 0 100 22.5t31 74.5q0 53 -30.5 73t-100.5 20h-46q-15 0 -15 15v78q0 15 15 15
h30q110 0 110 86q0 90 -104 90q-101 0 -101 -89v-478q0 -15 -15 -15h-109z" />
    <glyph glyph-name="agrave" unicode="&#xe0;" horiz-adv-x="617" 
d="M350 557h-96q-10 0 -17 12l-60 114q-9 17 12 17h97q10 0 17 -12l59 -114q9 -17 -12 -17zM267 -12q-103 0 -168 73t-65 184q0 110 65.5 183.5t167.5 73.5q108 0 160 -81l2 54q0 15 15 15h98q15 0 15 -15v-460q0 -15 -16 -15h-97q-15 0 -15 15l-2 54q-55 -81 -160 -81z
M296 114q55 0 89.5 36t34.5 95t-34.5 95t-89.5 36t-91 -36.5t-36 -94.5q0 -59 36 -95t91 -36z" />
    <glyph glyph-name="aacute" unicode="&#xe1;" horiz-adv-x="617" 
d="M260 557q-21 0 -12 17l59 114q7 12 17 12h97q21 0 12 -17l-60 -114q-7 -12 -17 -12h-96zM267 -12q-103 0 -168 73t-65 184q0 110 65.5 183.5t167.5 73.5q108 0 160 -81l2 54q0 15 15 15h98q15 0 15 -15v-460q0 -15 -16 -15h-97q-15 0 -15 15l-2 54q-55 -81 -160 -81z
M296 114q55 0 89.5 36t34.5 95t-34.5 95t-89.5 36t-91 -36.5t-36 -94.5q0 -59 36 -95t91 -36z" />
    <glyph glyph-name="acircumflex" unicode="&#xe2;" horiz-adv-x="617" 
d="M160 565q-9 0 -11 6t4 12l91 109q7 8 17 8h88q10 0 17 -8l91 -109q4 -4 4.5 -8t-2.5 -7t-9 -3h-72q-11 0 -18 8l-55 66l-54 -66q-7 -8 -18 -8h-73zM267 -12q-103 0 -168 73t-65 184q0 110 65.5 183.5t167.5 73.5q108 0 160 -81l2 54q0 15 15 15h98q15 0 15 -15v-460
q0 -15 -16 -15h-97q-15 0 -15 15l-2 54q-55 -81 -160 -81zM296 114q55 0 89.5 36t34.5 95t-34.5 95t-89.5 36t-91 -36.5t-36 -94.5q0 -59 36 -95t91 -36z" />
    <glyph glyph-name="atilde" unicode="&#xe3;" horiz-adv-x="617" 
d="M382 573q-27 0 -51.5 11t-40 24.5t-35 24.5t-37.5 11q-34 0 -46 -28q-3 -8 -11 -8h-31q-10 0 -10 13q4 50 33 75.5t74 25.5q43 0 91.5 -35t72.5 -35q34 0 46 28q3 8 11 8h31q10 0 10 -10q-3 -51 -32.5 -78t-74.5 -27zM267 -12q-103 0 -168 73t-65 184q0 110 65.5 183.5
t167.5 73.5q108 0 160 -81l2 54q0 15 15 15h98q15 0 15 -15v-460q0 -15 -16 -15h-97q-15 0 -15 15l-2 54q-55 -81 -160 -81zM296 114q55 0 89.5 36t34.5 95t-34.5 95t-89.5 36t-91 -36.5t-36 -94.5q0 -59 36 -95t91 -36z" />
    <glyph glyph-name="adieresis" unicode="&#xe4;" horiz-adv-x="617" 
d="M195 566q-28 0 -48.5 20t-20.5 50q0 29 20.5 49t48.5 20q29 0 49 -20t20 -49q0 -30 -20 -50t-49 -20zM415 566q-29 0 -49 20t-20 50q0 29 20 49t49 20t49 -20t20 -49q0 -30 -20 -50t-49 -20zM267 -12q-103 0 -168 73t-65 184q0 110 65.5 183.5t167.5 73.5q108 0 160 -81
l2 54q0 15 15 15h98q15 0 15 -15v-460q0 -15 -16 -15h-97q-15 0 -15 15l-2 54q-55 -81 -160 -81zM296 114q55 0 89.5 36t34.5 95t-34.5 95t-89.5 36t-91 -36.5t-36 -94.5q0 -59 36 -95t91 -36z" />
    <glyph glyph-name="aring" unicode="&#xe5;" horiz-adv-x="617" 
d="M305 539q-46 0 -74.5 28.5t-28.5 71.5q0 42 29 72t74 30t74 -30t29 -72q0 -43 -28.5 -71.5t-74.5 -28.5zM305 616q10 0 17 7t7 17t-7 17t-17 7t-17 -7t-7 -17t7 -17t17 -7zM267 -12q-103 0 -168 73t-65 184q0 110 65.5 183.5t167.5 73.5q108 0 160 -81l2 54q0 15 15 15
h98q15 0 15 -15v-460q0 -15 -16 -15h-97q-15 0 -15 15l-2 54q-55 -81 -160 -81zM296 114q55 0 89.5 36t34.5 95t-34.5 95t-89.5 36t-91 -36.5t-36 -94.5q0 -59 36 -95t91 -36z" />
    <glyph glyph-name="ae" unicode="&#xe6;" horiz-adv-x="943" 
d="M909 268q0 -38 -11.5 -56.5t-42.5 -18.5h-298q25 -96 145 -96q62 0 114 30q10 6 17 -4l37 -51q8 -11 -5 -22q-62 -62 -174 -62q-74 0 -132.5 29.5t-93.5 81.5q-30 -52 -81 -81.5t-115 -29.5q-104 0 -169.5 73t-65.5 184q0 110 65.5 183.5t167.5 73.5q87 0 151 -54l1 27
q0 15 15 15h75q15 0 15 -15v-18q66 45 150 45q108 0 171.5 -68.5t63.5 -165.5zM555 290h231q-6 48 -36 73t-75 25q-47 0 -79 -25t-41 -73zM296 114q54 0 89 36t35 95t-34.5 95t-89.5 36t-91 -36.5t-36 -94.5q0 -59 36 -95t91 -36z" />
    <glyph glyph-name="ccedilla" unicode="&#xe7;" horiz-adv-x="519" 
d="M479 97q11 -11 2 -21q-62 -79 -169 -87l-24 -22q36 -3 62.5 -25t26.5 -58q0 -42 -26.5 -68t-65.5 -33t-85 0q-9 1 -9 11v48q0 10 11 10q83 -9 83 26q0 14 -23.5 20.5t-58.5 -4.5q-12 -5 -12 7v50q0 9 5 12l34 32q-87 20 -141.5 89.5t-54.5 162.5q0 109 73 182t183 73
q122 0 190 -88q9 -10 -2 -21l-60 -59q-13 -13 -26 0q-41 41 -96 41q-58 0 -93.5 -36.5t-35.5 -91.5q0 -56 36.5 -94t95.5 -38q53 0 94 41q13 13 26 0z" />
    <glyph glyph-name="egrave" unicode="&#xe8;" horiz-adv-x="555" 
d="M328 557h-96q-10 0 -17 12l-60 114q-9 17 12 17h97q10 0 17 -12l59 -114q9 -17 -12 -17zM303 -12q-119 0 -194 73.5t-75 185.5q0 110 70 182.5t182 72.5q108 0 171.5 -68.5t63.5 -165.5q0 -38 -11.5 -56.5t-42.5 -18.5h-298q23 -96 145 -96q62 0 114 30q10 6 17 -4
l37 -51q8 -11 -5 -22q-62 -62 -174 -62zM167 290h231q-6 48 -36 73t-75 25q-47 0 -79 -25t-41 -73z" />
    <glyph glyph-name="eacute" unicode="&#xe9;" horiz-adv-x="555" 
d="M238 557q-21 0 -12 17l59 114q7 12 17 12h97q21 0 12 -17l-60 -114q-7 -12 -17 -12h-96zM303 -12q-119 0 -194 73.5t-75 185.5q0 110 70 182.5t182 72.5q108 0 171.5 -68.5t63.5 -165.5q0 -38 -11.5 -56.5t-42.5 -18.5h-298q23 -96 145 -96q62 0 114 30q10 6 17 -4
l37 -51q8 -11 -5 -22q-62 -62 -174 -62zM167 290h231q-6 48 -36 73t-75 25q-47 0 -79 -25t-41 -73z" />
    <glyph glyph-name="ecircumflex" unicode="&#xea;" horiz-adv-x="555" 
d="M138 565q-9 0 -11 6t4 12l91 109q7 8 17 8h88q10 0 17 -8l91 -109q4 -4 4.5 -8t-2.5 -7t-9 -3h-72q-11 0 -18 8l-55 66l-54 -66q-7 -8 -18 -8h-73zM303 -12q-119 0 -194 73.5t-75 185.5q0 110 70 182.5t182 72.5q108 0 171.5 -68.5t63.5 -165.5q0 -38 -11.5 -56.5
t-42.5 -18.5h-298q23 -96 145 -96q62 0 114 30q10 6 17 -4l37 -51q8 -11 -5 -22q-62 -62 -174 -62zM167 290h231q-6 48 -36 73t-75 25q-47 0 -79 -25t-41 -73z" />
    <glyph glyph-name="edieresis" unicode="&#xeb;" horiz-adv-x="555" 
d="M173 566q-28 0 -48.5 20t-20.5 50q0 29 20.5 49t48.5 20q29 0 49 -20t20 -49q0 -30 -20 -50t-49 -20zM393 566q-29 0 -49 20t-20 50q0 29 20 49t49 20t49 -20t20 -49q0 -30 -20 -50t-49 -20zM303 -12q-119 0 -194 73.5t-75 185.5q0 110 70 182.5t182 72.5
q108 0 171.5 -68.5t63.5 -165.5q0 -38 -11.5 -56.5t-42.5 -18.5h-298q23 -96 145 -96q62 0 114 30q10 6 17 -4l37 -51q8 -11 -5 -22q-62 -62 -174 -62zM167 290h231q-6 48 -36 73t-75 25q-47 0 -79 -25t-41 -73z" />
    <glyph glyph-name="igrave" unicode="&#xec;" horiz-adv-x="249" 
d="M171 557h-96q-10 0 -17 12l-60 114q-9 17 12 17h97q10 0 17 -12l59 -114q9 -17 -12 -17zM70 0q-15 0 -15 15v460q0 15 15 15h109q15 0 15 -15v-460q0 -15 -15 -15h-109z" />
    <glyph glyph-name="iacute" unicode="&#xed;" horiz-adv-x="249" 
d="M81 557q-21 0 -12 17l59 114q7 12 17 12h97q21 0 12 -17l-60 -114q-7 -12 -17 -12h-96zM70 0q-15 0 -15 15v460q0 15 15 15h109q15 0 15 -15v-460q0 -15 -15 -15h-109z" />
    <glyph glyph-name="icircumflex" unicode="&#xee;" horiz-adv-x="249" 
d="M-20 565q-9 0 -11 6t4 12l91 109q7 8 17 8h88q10 0 17 -8l91 -109q4 -4 4.5 -8t-2.5 -7t-9 -3h-72q-11 0 -18 8l-55 66l-54 -66q-7 -8 -18 -8h-73zM70 0q-15 0 -15 15v460q0 15 15 15h109q15 0 15 -15v-460q0 -15 -15 -15h-109z" />
    <glyph glyph-name="idieresis" unicode="&#xef;" horiz-adv-x="249" 
d="M15 566q-28 0 -48.5 20t-20.5 50q0 29 20.5 49t48.5 20q29 0 49 -20t20 -49q0 -30 -20 -50t-49 -20zM235 566q-29 0 -49 20t-20 50q0 29 20 49t49 20t49 -20t20 -49q0 -30 -20 -50t-49 -20zM70 0q-15 0 -15 15v460q0 15 15 15h109q15 0 15 -15v-460q0 -15 -15 -15h-109z
" />
    <glyph glyph-name="eth" unicode="&#xf0;" horiz-adv-x="594" 
d="M578 652q16 2 16 -14v-57q0 -14 -14 -16l-23 -3v-547q0 -15 -16 -15h-97q-15 0 -15 15l-2 54q-55 -81 -160 -81q-103 0 -168 73t-65 184q0 110 65.5 183.5t167.5 73.5q99 0 151 -69v112l-60 -7q-16 -2 -16 14v57q0 14 14 16l62 8v67q0 15 15 15h109q15 0 15 -15v-51z
M296 114q55 0 89.5 36t34.5 95t-34.5 95t-89.5 36t-91 -36.5t-36 -94.5q0 -59 36 -95t91 -36z" />
    <glyph glyph-name="ntilde" unicode="&#xf1;" 
d="M371 573q-27 0 -51.5 11t-40 24.5t-35 24.5t-37.5 11q-34 0 -46 -28q-3 -8 -11 -8h-31q-10 0 -10 13q4 50 33 75.5t74 25.5q43 0 91.5 -35t72.5 -35q34 0 46 28q3 8 11 8h31q10 0 10 -10q-3 -51 -32.5 -78t-74.5 -27zM74 0q-15 0 -15 15v460q0 15 15 15h104q15 0 15 -16
l4 -58q48 86 148 86q78 0 127.5 -54t49.5 -148v-285q0 -15 -16 -15h-107q-15 0 -15 15v254q0 106 -91 106q-44 0 -70 -27.5t-26 -78.5v-254q0 -15 -15 -15h-108z" />
    <glyph glyph-name="ograve" unicode="&#xf2;" 
d="M336 557h-96q-10 0 -17 12l-60 114q-9 17 12 17h97q10 0 17 -12l59 -114q9 -17 -12 -17zM291 -12q-110 0 -183.5 74t-73.5 183t73.5 183t183.5 74t183 -74t73 -183t-73 -183t-183 -74zM291 115q53 0 88 35.5t35 94.5t-35 94.5t-88 35.5q-54 0 -89 -35.5t-35 -94.5
t35 -94.5t89 -35.5z" />
    <glyph glyph-name="oacute" unicode="&#xf3;" 
d="M246 557q-21 0 -12 17l59 114q7 12 17 12h97q21 0 12 -17l-60 -114q-7 -12 -17 -12h-96zM291 -12q-110 0 -183.5 74t-73.5 183t73.5 183t183.5 74t183 -74t73 -183t-73 -183t-183 -74zM291 115q53 0 88 35.5t35 94.5t-35 94.5t-88 35.5q-54 0 -89 -35.5t-35 -94.5
t35 -94.5t89 -35.5z" />
    <glyph glyph-name="ocircumflex" unicode="&#xf4;" 
d="M145 565q-9 0 -11 6t4 12l91 109q7 8 17 8h88q10 0 17 -8l91 -109q4 -4 4.5 -8t-2.5 -7t-9 -3h-72q-11 0 -18 8l-55 66l-54 -66q-7 -8 -18 -8h-73zM291 -12q-110 0 -183.5 74t-73.5 183t73.5 183t183.5 74t183 -74t73 -183t-73 -183t-183 -74zM291 115q53 0 88 35.5
t35 94.5t-35 94.5t-88 35.5q-54 0 -89 -35.5t-35 -94.5t35 -94.5t89 -35.5z" />
    <glyph glyph-name="otilde" unicode="&#xf5;" 
d="M368 573q-27 0 -51.5 11t-40 24.5t-35 24.5t-37.5 11q-34 0 -46 -28q-3 -8 -11 -8h-31q-10 0 -10 13q4 50 33 75.5t74 25.5q43 0 91.5 -35t72.5 -35q34 0 46 28q3 8 11 8h31q10 0 10 -10q-3 -51 -32.5 -78t-74.5 -27zM291 -12q-110 0 -183.5 74t-73.5 183t73.5 183
t183.5 74t183 -74t73 -183t-73 -183t-183 -74zM291 115q53 0 88 35.5t35 94.5t-35 94.5t-88 35.5q-54 0 -89 -35.5t-35 -94.5t35 -94.5t89 -35.5z" />
    <glyph glyph-name="odieresis" unicode="&#xf6;" 
d="M180 566q-28 0 -48.5 20t-20.5 50q0 29 20.5 49t48.5 20q29 0 49 -20t20 -49q0 -30 -20 -50t-49 -20zM400 566q-29 0 -49 20t-20 50q0 29 20 49t49 20t49 -20t20 -49q0 -30 -20 -50t-49 -20zM291 -12q-110 0 -183.5 74t-73.5 183t73.5 183t183.5 74t183 -74t73 -183
t-73 -183t-183 -74zM291 115q53 0 88 35.5t35 94.5t-35 94.5t-88 35.5q-54 0 -89 -35.5t-35 -94.5t35 -94.5t89 -35.5z" />
    <glyph glyph-name="divide" unicode="&#xf7;" horiz-adv-x="504" 
d="M252 394q-28 0 -47 19t-19 47q0 27 19 46.5t47 19.5q27 0 46 -19.5t19 -46.5q0 -28 -19 -47t-46 -19zM80 234q-15 0 -15 15v72q0 15 15 15h344q15 0 15 -15v-72q0 -15 -15 -15h-344zM252 55q-28 0 -47 19t-19 46t19 46.5t47 19.5q27 0 46 -19.5t19 -46.5t-19 -46t-46 -19
z" />
    <glyph glyph-name="oslash" unicode="&#xf8;" 
d="M427 465q56 -33 88 -91.5t32 -128.5q0 -109 -73 -183t-183 -74q-40 0 -74 10l-25 -57q-5 -11 -17 -11h-43q-18 0 -10 18l34 76q-57 33 -89.5 91.5t-32.5 129.5q0 109 73.5 183t183.5 74q36 0 74 -10l25 55q5 11 17 11h43q18 0 10 -18zM167 245q0 -66 43 -101l102 229
q-14 2 -21 2q-54 0 -89 -35.5t-35 -94.5zM291 115q53 0 88 35.5t35 94.5q0 64 -41 100l-102 -229q3 0 9.5 -0.5t10.5 -0.5z" />
    <glyph glyph-name="ugrave" unicode="&#xf9;" 
d="M338 557h-96q-10 0 -17 12l-60 114q-9 17 12 17h97q10 0 17 -12l59 -114q9 -17 -12 -17zM236 -12q-79 0 -128 54t-49 148v285q0 15 15 15h108q15 0 15 -15v-254q0 -106 91 -106q44 0 70 27.5t26 78.5v254q0 15 15 15h107q16 0 16 -15v-460q0 -15 -16 -15h-103
q-15 0 -15 16l-4 58q-48 -86 -148 -86z" />
    <glyph glyph-name="uacute" unicode="&#xfa;" 
d="M248 557q-21 0 -12 17l59 114q7 12 17 12h97q21 0 12 -17l-60 -114q-7 -12 -17 -12h-96zM236 -12q-79 0 -128 54t-49 148v285q0 15 15 15h108q15 0 15 -15v-254q0 -106 91 -106q44 0 70 27.5t26 78.5v254q0 15 15 15h107q16 0 16 -15v-460q0 -15 -16 -15h-103
q-15 0 -15 16l-4 58q-48 -86 -148 -86z" />
    <glyph glyph-name="ucircumflex" unicode="&#xfb;" 
d="M147 565q-9 0 -11 6t4 12l91 109q7 8 17 8h88q10 0 17 -8l91 -109q4 -4 4.5 -8t-2.5 -7t-9 -3h-72q-11 0 -18 8l-55 66l-54 -66q-7 -8 -18 -8h-73zM236 -12q-79 0 -128 54t-49 148v285q0 15 15 15h108q15 0 15 -15v-254q0 -106 91 -106q44 0 70 27.5t26 78.5v254
q0 15 15 15h107q16 0 16 -15v-460q0 -15 -16 -15h-103q-15 0 -15 16l-4 58q-48 -86 -148 -86z" />
    <glyph glyph-name="udieresis" unicode="&#xfc;" 
d="M182 566q-28 0 -48.5 20t-20.5 50q0 29 20.5 49t48.5 20q29 0 49 -20t20 -49q0 -30 -20 -50t-49 -20zM402 566q-29 0 -49 20t-20 50q0 29 20 49t49 20t49 -20t20 -49q0 -30 -20 -50t-49 -20zM236 -12q-79 0 -128 54t-49 148v285q0 15 15 15h108q15 0 15 -15v-254
q0 -106 91 -106q44 0 70 27.5t26 78.5v254q0 15 15 15h107q16 0 16 -15v-460q0 -15 -16 -15h-103q-15 0 -15 16l-4 58q-48 -86 -148 -86z" />
    <glyph glyph-name="yacute" unicode="&#xfd;" horiz-adv-x="573" 
d="M241 557q-21 0 -12 17l59 114q7 12 17 12h97q21 0 12 -17l-60 -114q-7 -12 -17 -12h-96zM160 -190q-20 0 -12 17l71 172l-189 474q-6 17 12 17h110q14 0 18 -12l117 -318l116 318q4 12 18 12h110q18 0 12 -17l-259 -651q-4 -12 -18 -12h-106z" />
    <glyph glyph-name="thorn" unicode="&#xfe;" horiz-adv-x="617" 
d="M74 -190q-15 0 -15 15v875q0 15 15 15h109q15 0 15 -15v-267q53 69 151 69q102 0 167.5 -73.5t65.5 -183.5q0 -111 -65 -184t-167 -73q-97 0 -152 70v-233q0 -15 -15 -15h-109zM321 114q55 0 90.5 36t35.5 95q0 58 -35.5 94.5t-90.5 36.5q-56 0 -90.5 -36t-34.5 -95
t34.5 -95t90.5 -36z" />
    <glyph glyph-name="ydieresis" unicode="&#xff;" horiz-adv-x="573" 
d="M175 566q-28 0 -48.5 20t-20.5 50q0 29 20.5 49t48.5 20q29 0 49 -20t20 -49q0 -30 -20 -50t-49 -20zM395 566q-29 0 -49 20t-20 50q0 29 20 49t49 20t49 -20t20 -49q0 -30 -20 -50t-49 -20zM160 -190q-20 0 -12 17l71 172l-189 474q-6 17 12 17h110q14 0 18 -12
l117 -318l116 318q4 12 18 12h110q18 0 12 -17l-259 -651q-4 -12 -18 -12h-106z" />
    <glyph glyph-name="Amacron" unicode="&#x100;" horiz-adv-x="697" 
d="M197 803q-15 0 -15 15v77q0 15 15 15h303q16 0 16 -15v-77q0 -15 -16 -15h-303zM662 17q3 -7 -1 -12t-12 -5h-118q-13 0 -17 12l-34 103h-264l-34 -103q-4 -12 -17 -12h-118q-19 0 -12 17l234 671q5 12 19 12h121q15 0 19 -12zM257 242h182l-91 278z" />
    <glyph glyph-name="amacron" unicode="&#x101;" horiz-adv-x="617" 
d="M153 593q-15 0 -15 15v77q0 15 15 15h303q16 0 16 -15v-77q0 -15 -16 -15h-303zM267 -12q-103 0 -168 73t-65 184q0 110 65.5 183.5t167.5 73.5q108 0 160 -81l2 54q0 15 15 15h98q15 0 15 -15v-460q0 -15 -16 -15h-97q-15 0 -15 15l-2 54q-55 -81 -160 -81zM296 114
q55 0 89.5 36t34.5 95t-34.5 95t-89.5 36t-91 -36.5t-36 -94.5q0 -59 36 -95t91 -36z" />
    <glyph glyph-name="Abreve" unicode="&#x102;" horiz-adv-x="697" 
d="M348 766q-68 0 -109.5 37t-47.5 92q-1 15 14 15h54q13 0 16 -14q5 -21 24 -36t49 -15t48.5 15t24.5 36q3 14 16 14h54q15 0 14 -15q-6 -55 -47.5 -92t-109.5 -37zM662 17q3 -7 -1 -12t-12 -5h-118q-13 0 -17 12l-34 103h-264l-34 -103q-4 -12 -17 -12h-118q-19 0 -12 17
l234 671q5 12 19 12h121q15 0 19 -12zM257 242h182l-91 278z" />
    <glyph glyph-name="abreve" unicode="&#x103;" horiz-adv-x="617" 
d="M305 556q-68 0 -109.5 37t-47.5 92q-2 15 14 15h54q13 0 16 -14q5 -21 24 -36t49 -15t48.5 15t24.5 36q3 14 16 14h54q16 0 14 -15q-6 -55 -47.5 -92t-109.5 -37zM267 -12q-103 0 -168 73t-65 184q0 110 65.5 183.5t167.5 73.5q108 0 160 -81l2 54q0 15 15 15h98
q15 0 15 -15v-460q0 -15 -16 -15h-97q-15 0 -15 15l-2 54q-55 -81 -160 -81zM296 114q55 0 89.5 36t34.5 95t-34.5 95t-89.5 36t-91 -36.5t-36 -94.5q0 -59 36 -95t91 -36z" />
    <glyph glyph-name="Aogonek" unicode="&#x104;" horiz-adv-x="697" 
d="M662 17q3 -7 -1 -12t-12 -5h-6q-41 0 -65.5 -23t-24.5 -51q0 -22 16 -33.5t49 -4.5v-86q-22 -10 -52 -10t-58 9t-47.5 34t-19.5 61q0 71 73 117l-34 102h-264l-34 -103q-4 -12 -17 -12h-118q-19 0 -12 17l234 671q5 12 19 12h121q15 0 19 -12zM257 242h182l-91 278z" />
    <glyph glyph-name="aogonek" unicode="&#x105;" horiz-adv-x="617" 
d="M542 490q15 0 15 -15v-460q0 -13 -14 -15q-39 0 -63 -23t-24 -51q0 -22 16 -33.5t49 -4.5v-86q-22 -10 -52 -10t-58 9t-47.5 34t-19.5 61q0 77 85 125l-2 48q-55 -81 -160 -81q-103 0 -168 73t-65 184q0 110 65.5 183.5t167.5 73.5q108 0 160 -81l2 54q0 15 15 15h98z
M296 114q55 0 89.5 36t34.5 95t-34.5 95t-89.5 36t-91 -36.5t-36 -94.5q0 -59 36 -95t91 -36z" />
    <glyph glyph-name="Cacute" unicode="&#x106;" horiz-adv-x="704" 
d="M358 767q-21 0 -12 17l59 114q7 12 17 12h97q21 0 12 -17l-60 -114q-7 -12 -17 -12h-96zM410 -13q-151 0 -256 103.5t-105 256.5t105 257t256 104q144 0 245 -101q10 -10 0 -21l-70 -75q-9 -11 -21 -1q-70 58 -154 58q-92 0 -154 -63t-62 -158t61.5 -157.5t154.5 -62.5
q84 0 154 58q12 10 21 -1l70 -75q10 -10 0 -20q-100 -102 -245 -102z" />
    <glyph glyph-name="cacute" unicode="&#x107;" horiz-adv-x="519" 
d="M232 557q-21 0 -12 17l59 114q7 12 17 12h97q21 0 12 -17l-60 -114q-7 -12 -17 -12h-96zM293 -12q-111 0 -185 74t-74 185q0 109 73 182t183 73q122 0 190 -88q9 -10 -2 -21l-60 -59q-13 -13 -26 0q-41 41 -96 41q-58 0 -93.5 -36.5t-35.5 -91.5q0 -56 36.5 -94t95.5 -38
q53 0 94 41q13 13 26 0l60 -59q11 -11 2 -21q-68 -88 -188 -88z" />
    <glyph glyph-name="Cdotaccent" unicode="&#x10a;" horiz-adv-x="704" 
d="M402 787q-32 0 -54 22.5t-22 54.5t22 54t54 22q33 0 55 -22t22 -54t-22 -54.5t-55 -22.5zM410 -13q-151 0 -256 103.5t-105 256.5t105 257t256 104q144 0 245 -101q10 -10 0 -21l-70 -75q-9 -11 -21 -1q-70 58 -154 58q-92 0 -154 -63t-62 -158t61.5 -157.5t154.5 -62.5
q84 0 154 58q12 10 21 -1l70 -75q10 -10 0 -20q-100 -102 -245 -102z" />
    <glyph glyph-name="cdotaccent" unicode="&#x10b;" horiz-adv-x="519" 
d="M276 577q-32 0 -54 22.5t-22 54.5t22 54t54 22q33 0 55 -22t22 -54t-22 -54.5t-55 -22.5zM293 -12q-111 0 -185 74t-74 185q0 109 73 182t183 73q122 0 190 -88q9 -10 -2 -21l-60 -59q-13 -13 -26 0q-41 41 -96 41q-58 0 -93.5 -36.5t-35.5 -91.5q0 -56 36.5 -94
t95.5 -38q53 0 94 41q13 13 26 0l60 -59q11 -11 2 -21q-68 -88 -188 -88z" />
    <glyph glyph-name="Ccaron" unicode="&#x10c;" horiz-adv-x="704" 
d="M257 911h73q11 0 18 -8l54 -66l55 66q7 8 18 8h72q9 0 11 -6t-4 -12l-91 -109q-7 -8 -17 -8h-88q-10 0 -17 8l-91 109q-6 6 -4 12t11 6zM410 -13q-151 0 -256 103.5t-105 256.5t105 257t256 104q144 0 245 -101q10 -10 0 -21l-70 -75q-9 -11 -21 -1q-70 58 -154 58
q-92 0 -154 -63t-62 -158t61.5 -157.5t154.5 -62.5q84 0 154 58q12 10 21 -1l70 -75q10 -10 0 -20q-100 -102 -245 -102z" />
    <glyph glyph-name="ccaron" unicode="&#x10d;" horiz-adv-x="519" 
d="M131 701h73q11 0 18 -8l54 -66l55 66q7 8 18 8h72q9 0 11 -6t-4 -12l-91 -109q-7 -8 -17 -8h-88q-10 0 -17 8l-91 109q-6 6 -4 12t11 6zM293 -12q-111 0 -185 74t-74 185q0 109 73 182t183 73q122 0 190 -88q9 -10 -2 -21l-60 -59q-13 -13 -26 0q-41 41 -96 41
q-58 0 -93.5 -36.5t-35.5 -91.5q0 -56 36.5 -94t95.5 -38q53 0 94 41q13 13 26 0l60 -59q11 -11 2 -21q-68 -88 -188 -88z" />
    <glyph glyph-name="Dcaron" unicode="&#x10e;" horiz-adv-x="691" 
d="M193 911h73q11 0 18 -8l54 -66l55 66q7 8 18 8h72q9 0 11 -6t-4 -12l-91 -109q-7 -8 -17 -8h-88q-10 0 -17 8l-91 109q-6 6 -4 12t11 6zM84 0q-15 0 -15 15v670q0 15 15 15h206q170 0 263.5 -98t93.5 -252t-93.5 -252t-263.5 -98h-206zM212 127h76q106 0 160 57t54 166
t-54 166t-160 57h-76v-446z" />
    <glyph glyph-name="dcaron" unicode="&#x10f;" horiz-adv-x="681" 
d="M267 -12q-103 0 -168 73t-65 184q0 110 65.5 183.5t167.5 73.5q99 0 151 -69v267q0 15 15 15h109q15 0 15 -15v-685q0 -15 -16 -15h-97q-15 0 -15 15l-2 54q-55 -81 -160 -81zM608 544q-21 0 -12 17l59 114q7 12 17 12h97q21 0 12 -17l-60 -114q-8 -12 -18 -12h-95z
M296 114q55 0 89.5 36t34.5 95t-34.5 95t-89.5 36t-91 -36.5t-36 -94.5q0 -59 36 -95t91 -36z" />
    <glyph glyph-name="Dcroat" unicode="&#x110;" horiz-adv-x="699" 
d="M298 700q170 0 263.5 -98t93.5 -252t-93.5 -252t-263.5 -98h-206q-15 0 -15 15v276h-37q-15 0 -15 15v77q0 15 15 15h37v287q0 15 15 15h206zM296 127q106 0 160 57t54 166t-54 166t-160 57h-76v-175h123q16 0 16 -15v-77q0 -15 -16 -15h-123v-164h76z" />
    <glyph glyph-name="dcroat" unicode="&#x111;" horiz-adv-x="622" 
d="M592 647q15 0 15 -16v-77q0 -15 -15 -15h-35v-524q0 -15 -16 -15h-97q-15 0 -15 15l-2 54q-55 -81 -160 -81q-103 0 -168 73t-65 184q0 110 65.5 183.5t167.5 73.5q99 0 151 -69v106h-129q-15 0 -15 15v77q0 16 15 16h129v53q0 15 15 15h109q15 0 15 -15v-53h35zM296 114
q55 0 89.5 36t34.5 95t-34.5 95t-89.5 36t-91 -36.5t-36 -94.5q0 -59 36 -95t91 -36z" />
    <glyph glyph-name="Emacron" unicode="&#x112;" horiz-adv-x="515" 
d="M121 803q-15 0 -15 15v77q0 15 15 15h303q16 0 16 -15v-77q0 -15 -16 -15h-303zM84 0q-15 0 -15 15v670q0 15 15 15h356q15 0 15 -15v-97q0 -15 -15 -15h-228v-155h215q15 0 15 -15v-97q0 -15 -15 -15h-215v-164h228q15 0 15 -15v-97q0 -15 -15 -15h-356z" />
    <glyph glyph-name="emacron" unicode="&#x113;" horiz-adv-x="555" 
d="M131 593q-15 0 -15 15v77q0 15 15 15h303q16 0 16 -15v-77q0 -15 -16 -15h-303zM303 -12q-119 0 -194 73.5t-75 185.5q0 110 70 182.5t182 72.5q108 0 171.5 -68.5t63.5 -165.5q0 -38 -11.5 -56.5t-42.5 -18.5h-298q23 -96 145 -96q62 0 114 30q10 6 17 -4l37 -51
q8 -11 -5 -22q-62 -62 -174 -62zM167 290h231q-6 48 -36 73t-75 25q-47 0 -79 -25t-41 -73z" />
    <glyph glyph-name="Edotaccent" unicode="&#x116;" horiz-adv-x="515" 
d="M273 787q-32 0 -54 22.5t-22 54.5t22 54t54 22q33 0 55 -22t22 -54t-22 -54.5t-55 -22.5zM84 0q-15 0 -15 15v670q0 15 15 15h356q15 0 15 -15v-97q0 -15 -15 -15h-228v-155h215q15 0 15 -15v-97q0 -15 -15 -15h-215v-164h228q15 0 15 -15v-97q0 -15 -15 -15h-356z" />
    <glyph glyph-name="edotaccent" unicode="&#x117;" horiz-adv-x="555" 
d="M282 577q-32 0 -54 22.5t-22 54.5t22 54t54 22q33 0 55 -22t22 -54t-22 -54.5t-55 -22.5zM303 -12q-119 0 -194 73.5t-75 185.5q0 110 70 182.5t182 72.5q108 0 171.5 -68.5t63.5 -165.5q0 -38 -11.5 -56.5t-42.5 -18.5h-298q23 -96 145 -96q62 0 114 30q10 6 17 -4
l37 -51q8 -11 -5 -22q-62 -62 -174 -62zM167 290h231q-6 48 -36 73t-75 25q-47 0 -79 -25t-41 -73z" />
    <glyph glyph-name="Eogonek" unicode="&#x118;" horiz-adv-x="515" 
d="M440 573h-228v-155h215q15 0 15 -15v-97q0 -15 -15 -15h-215v-164h228q15 0 15 -15v-97q0 -15 -14 -15q-41 0 -65.5 -23t-24.5 -51q0 -22 16 -33.5t49 -4.5v-86q-22 -10 -52 -10t-58 9t-47.5 34t-19.5 61q0 60 54 104h-209q-15 0 -15 15v670q0 15 15 15h356q15 0 15 -15
v-97q0 -15 -15 -15z" />
    <glyph glyph-name="eogonek" unicode="&#x119;" horiz-adv-x="555" 
d="M521 268q0 -38 -11.5 -56.5t-42.5 -18.5h-298q23 -96 145 -96q62 0 114 30q10 6 17 -4l37 -51q8 -11 -5 -22q-34 -34 -84 -49q-77 -28 -77 -75q0 -22 16 -33.5t49 -4.5v-86q-22 -10 -52 -10t-58 9t-47.5 34t-19.5 61q0 56 47 96q-99 16 -158 86t-59 169q0 110 70 182.5
t182 72.5q108 0 171.5 -68.5t63.5 -165.5zM167 290h231q-6 48 -36 73t-75 25q-47 0 -79 -25t-41 -73z" />
    <glyph glyph-name="Ecaron" unicode="&#x11a;" horiz-adv-x="515" 
d="M128 911h73q11 0 18 -8l54 -66l55 66q7 8 18 8h72q9 0 11 -6t-4 -12l-91 -109q-7 -8 -17 -8h-88q-10 0 -17 8l-91 109q-6 6 -4 12t11 6zM84 0q-15 0 -15 15v670q0 15 15 15h356q15 0 15 -15v-97q0 -15 -15 -15h-228v-155h215q15 0 15 -15v-97q0 -15 -15 -15h-215v-164
h228q15 0 15 -15v-97q0 -15 -15 -15h-356z" />
    <glyph glyph-name="ecaron" unicode="&#x11b;" horiz-adv-x="555" 
d="M138 701h73q11 0 18 -8l54 -66l55 66q7 8 18 8h72q9 0 11 -6t-4 -12l-91 -109q-7 -8 -17 -8h-88q-10 0 -17 8l-91 109q-6 6 -4 12t11 6zM303 -12q-119 0 -194 73.5t-75 185.5q0 110 70 182.5t182 72.5q108 0 171.5 -68.5t63.5 -165.5q0 -38 -11.5 -56.5t-42.5 -18.5h-298
q23 -96 145 -96q62 0 114 30q10 6 17 -4l37 -51q8 -11 -5 -22q-62 -62 -174 -62zM167 290h231q-6 48 -36 73t-75 25q-47 0 -79 -25t-41 -73z" />
    <glyph glyph-name="Gbreve" unicode="&#x11e;" horiz-adv-x="774" 
d="M407 766q-68 0 -109.5 37t-47.5 92q-2 15 14 15h54q13 0 16 -14q5 -21 24 -36t49 -15t48.5 15t24.5 36q3 14 16 14h54q16 0 14 -15q-6 -55 -47.5 -92t-109.5 -37zM412 -13q-152 0 -257.5 103.5t-105.5 256.5t105 257t255 104q147 0 244 -99q12 -12 0 -26l-67 -71
q-10 -12 -22 -2q-70 58 -154 58q-92 0 -154 -63t-62 -158t63 -157.5t160 -62.5q80 0 128 41t53 103h-181q-15 0 -15 15v97q0 15 15 15h302q15 0 15 -15v-65q0 -142 -87.5 -236.5t-234.5 -94.5z" />
    <glyph glyph-name="gbreve" unicode="&#x11f;" horiz-adv-x="608" 
d="M305 556q-68 0 -109.5 37t-47.5 92q-2 15 14 15h54q13 0 16 -14q5 -21 24 -36t49 -15t48.5 15t24.5 36q3 14 16 14h54q16 0 14 -15q-6 -55 -47.5 -92t-109.5 -37zM290 -205q-116 0 -191 56q-16 11 -6 29l29 55q8 17 25 8q65 -36 130 -36q59 0 99.5 29t40.5 92v53
q-50 -71 -152 -71q-103 0 -167 68.5t-64 177.5t64 177.5t167 68.5q104 0 153 -72l2 45q0 15 16 15h98q15 0 15 -15v-448q0 -63 -23 -110t-61.5 -72.5t-82.5 -37.5t-92 -12zM292 134q53 0 86.5 33t33.5 89t-33.5 89t-86.5 33q-54 0 -88.5 -33.5t-34.5 -88.5t34.5 -88.5
t88.5 -33.5z" />
    <glyph glyph-name="Gdotaccent" unicode="&#x120;" horiz-adv-x="774" 
d="M407 787q-32 0 -54 22.5t-22 54.5t22 54t54 22q33 0 55 -22t22 -54t-22 -54.5t-55 -22.5zM412 -13q-152 0 -257.5 103.5t-105.5 256.5t105 257t255 104q147 0 244 -99q12 -12 0 -26l-67 -71q-10 -12 -22 -2q-70 58 -154 58q-92 0 -154 -63t-62 -158t63 -157.5t160 -62.5
q80 0 128 41t53 103h-181q-15 0 -15 15v97q0 15 15 15h302q15 0 15 -15v-65q0 -142 -87.5 -236.5t-234.5 -94.5z" />
    <glyph glyph-name="gdotaccent" unicode="&#x121;" horiz-adv-x="608" 
d="M304 577q-32 0 -54 22.5t-22 54.5t22 54t54 22q33 0 55 -22t22 -54t-22 -54.5t-55 -22.5zM290 -205q-116 0 -191 56q-16 11 -6 29l29 55q8 17 25 8q65 -36 130 -36q59 0 99.5 29t40.5 92v53q-50 -71 -152 -71q-103 0 -167 68.5t-64 177.5t64 177.5t167 68.5
q104 0 153 -72l2 45q0 15 16 15h98q15 0 15 -15v-448q0 -63 -23 -110t-61.5 -72.5t-82.5 -37.5t-92 -12zM292 134q53 0 86.5 33t33.5 89t-33.5 89t-86.5 33q-54 0 -88.5 -33.5t-34.5 -88.5t34.5 -88.5t88.5 -33.5z" />
    <glyph glyph-name="uni0122" unicode="&#x122;" horiz-adv-x="774" 
d="M412 -13q-152 0 -257.5 103.5t-105.5 256.5t105 257t255 104q147 0 244 -99q12 -12 0 -26l-67 -71q-10 -12 -22 -2q-70 58 -154 58q-92 0 -154 -63t-62 -158t63 -157.5t160 -62.5q80 0 128 41t53 103h-181q-15 0 -15 15v97q0 15 15 15h302q15 0 15 -15v-65
q0 -142 -87.5 -236.5t-234.5 -94.5zM317 -310v32q49 -1 80 42q21 30 8 41q-3 3 -8 3q-33 0 -57.5 24t-24.5 58t24.5 58t59.5 24q39 0 66.5 -29t27.5 -83q0 -79 -57 -126t-119 -44z" />
    <glyph glyph-name="uni0123" unicode="&#x123;" horiz-adv-x="608" 
d="M391 821v-33q-49 1 -79 -41q-21 -29 -10 -41q3 -3 9 -3q34 0 58 -24t24 -58q0 -35 -24.5 -59t-59.5 -24q-38 0 -65.5 29.5t-27.5 83.5q0 79 56.5 126t118.5 44zM290 -205q-116 0 -191 56q-16 11 -6 29l29 55q8 17 25 8q65 -36 130 -36q59 0 99.5 29t40.5 92v53
q-50 -71 -152 -71q-103 0 -167 68.5t-64 177.5t64 177.5t167 68.5q104 0 153 -72l2 45q0 15 16 15h98q15 0 15 -15v-448q0 -63 -23 -110t-61.5 -72.5t-82.5 -37.5t-92 -12zM292 134q53 0 86.5 33t33.5 89t-33.5 89t-86.5 33q-54 0 -88.5 -33.5t-34.5 -88.5t34.5 -88.5
t88.5 -33.5z" />
    <glyph glyph-name="Hbar" unicode="&#x126;" horiz-adv-x="681" 
d="M597 700q15 0 15 -15v-670q0 -15 -15 -15h-113q-15 0 -15 15v266h-257v-266q0 -15 -15 -15h-113q-15 0 -15 15v670q0 15 15 15h113q15 0 15 -15v-100h257v100q0 15 15 15h113zM212 407h257v63h-257v-63z" />
    <glyph glyph-name="hbar" unicode="&#x127;" horiz-adv-x="591" 
d="M355 502q79 0 128 -54t49 -148v-285q0 -15 -15 -15h-108q-15 0 -15 15v254q0 106 -91 106q-44 0 -69.5 -27.5t-25.5 -78.5v-254q0 -15 -16 -15h-107q-15 0 -15 15v513h-40q-15 0 -15 15v77q0 15 15 15h40v65q0 15 15 15h107q16 0 16 -15v-65h125q16 0 16 -15v-77
q0 -15 -16 -15h-125v-112q48 86 147 86z" />
    <glyph glyph-name="Imacron" unicode="&#x12a;" horiz-adv-x="282" 
d="M-11 803q-15 0 -15 15v77q0 15 15 15h303q16 0 16 -15v-77q0 -15 -16 -15h-303zM84 0q-15 0 -15 15v670q0 15 15 15h113q15 0 15 -15v-670q0 -15 -15 -15h-113z" />
    <glyph glyph-name="imacron" unicode="&#x12b;" horiz-adv-x="249" 
d="M-26 593q-15 0 -15 15v77q0 15 15 15h303q16 0 16 -15v-77q0 -15 -16 -15h-303zM70 0q-15 0 -15 15v460q0 15 15 15h109q15 0 15 -15v-460q0 -15 -15 -15h-109z" />
    <glyph glyph-name="Iogonek" unicode="&#x12e;" horiz-adv-x="282" 
d="M197 700q15 0 15 -15v-670q0 -15 -14 -15q-41 0 -65.5 -23t-24.5 -51q0 -22 16 -33.5t49 -4.5v-86q-22 -10 -52 -10t-58 9t-47.5 34t-19.5 61q0 72 73 118v1v670q0 15 15 15h113z" />
    <glyph glyph-name="iogonek" unicode="&#x12f;" horiz-adv-x="249" 
d="M125 577q-32 0 -54 22.5t-22 54.5t22 54t54 22q33 0 55 -22t22 -54t-22 -54.5t-55 -22.5zM179 490q15 0 15 -15v-460q0 -15 -15 -15q-41 0 -65.5 -23t-24.5 -51q0 -22 16 -33.5t49 -4.5v-86q-22 -10 -52 -10t-58 9t-47.5 34t-19.5 61q0 74 78 121v458q0 15 15 15h109z
" />
    <glyph glyph-name="Idotaccent" unicode="&#x130;" horiz-adv-x="282" 
d="M140 787q-32 0 -54 22.5t-22 54.5t22 54t54 22q33 0 55 -22t22 -54t-22 -54.5t-55 -22.5zM84 0q-15 0 -15 15v670q0 15 15 15h113q15 0 15 -15v-670q0 -15 -15 -15h-113z" />
    <glyph glyph-name="dotlessi" unicode="&#x131;" horiz-adv-x="249" 
d="M70 0q-15 0 -15 15v460q0 15 15 15h109q15 0 15 -15v-460q0 -15 -15 -15h-109z" />
    <glyph glyph-name="IJ" unicode="&#x132;" horiz-adv-x="829" 
d="M84 0q-15 0 -15 15v670q0 15 15 15h113q15 0 15 -15v-670q0 -15 -15 -15h-113zM515 -13q-119 0 -183 76q-10 12 -1 25l59 78q9 11 21 1q50 -40 99 -40q107 0 107 133v425q0 15 15 15h113q15 0 15 -15v-419q0 -136 -67 -207.5t-178 -71.5z" />
    <glyph glyph-name="ij" unicode="&#x133;" horiz-adv-x="527" 
d="M130 577q-33 0 -55 22.5t-22 54.5t22 54t55 22t54.5 -22t21.5 -54q0 -33 -21.5 -55t-54.5 -22zM398 577q-33 0 -55 22.5t-22 54.5t22 54t55 22t54.5 -22t21.5 -54q0 -33 -21.5 -55t-54.5 -22zM75 0q-15 0 -15 15v460q0 15 15 15h109q15 0 15 -15v-460q0 -15 -15 -15h-109
zM299 -200q-44 0 -75 15q-9 5 -9 15v91q0 9 13 7q27 -5 41 -5q34 0 46.5 15.5t12.5 45.5v491q0 15 15 15h109q15 0 15 -15v-510q0 -165 -168 -165z" />
    <glyph glyph-name="uni0136" unicode="&#x136;" horiz-adv-x="668" 
d="M84 0q-15 0 -15 15v670q0 15 15 15h113q15 0 15 -15v-309l232 316q7 8 18 8h137q9 0 11.5 -5.5t-3.5 -12.5l-232 -294l260 -370q5 -8 2.5 -13t-11.5 -5h-131q-12 0 -18 9l-189 267l-76 -95v-166q0 -15 -15 -15h-113zM273 -310v32q49 -1 80 42q21 30 8 41q-3 3 -8 3
q-33 0 -57.5 24t-24.5 58t24.5 58t59.5 24q38 0 65.5 -29t27.5 -83q0 -79 -56.5 -126t-118.5 -44z" />
    <glyph glyph-name="uni0137" unicode="&#x137;" horiz-adv-x="562" 
d="M74 0q-15 0 -15 15v685q0 15 15 15h109q15 0 15 -15v-408l161 190q7 8 18 8h123q10 0 12 -5t-4 -13l-166 -189l192 -265q5 -8 2.5 -13t-11.5 -5h-116q-12 0 -18 9l-132 179l-61 -69v-104q0 -15 -15 -15h-109zM206 -310v32q49 -1 80 42q21 30 8 41q-3 3 -8 3
q-33 0 -57.5 24t-24.5 58t24.5 58t59.5 24q39 0 66.5 -29t27.5 -83q0 -79 -57 -126t-119 -44z" />
    <glyph glyph-name="Lacute" unicode="&#x139;" horiz-adv-x="501" 
d="M111 735q-21 0 -12 17l59 114q7 12 17 12h97q21 0 12 -17l-60 -114q-8 -12 -18 -12h-95zM426 127q15 0 15 -15v-97q0 -15 -15 -15h-342q-15 0 -15 15v670q0 15 15 15h113q15 0 15 -15v-558h214z" />
    <glyph glyph-name="lacute" unicode="&#x13a;" horiz-adv-x="258" 
d="M84 783q-21 0 -12 17l59 114q7 12 17 12h97q21 0 12 -17l-60 -114q-7 -12 -17 -12h-96zM74 0q-15 0 -15 15v685q0 15 15 15h109q15 0 15 -15v-685q0 -15 -15 -15h-109z" />
    <glyph glyph-name="uni013B" unicode="&#x13b;" horiz-adv-x="480" 
d="M426 127q15 0 15 -15v-97q0 -15 -15 -15h-342q-15 0 -15 15v670q0 15 15 15h113q15 0 15 -15v-558h214zM245 -28q39 0 66.5 -29t27.5 -83q0 -79 -57 -126t-119 -44v32q49 -1 80 42q21 30 8 41q-3 3 -8 3q-33 0 -57.5 24t-24.5 58t24.5 58t59.5 24z" />
    <glyph glyph-name="uni013C" unicode="&#x13c;" horiz-adv-x="258" 
d="M74 0q-15 0 -15 15v685q0 15 15 15h109q15 0 15 -15v-685q0 -15 -15 -15h-109zM43 -310v32q49 -1 80 42q21 30 8 41q-3 3 -8 3q-33 0 -57.5 24t-24.5 58t24.5 58t59.5 24q39 0 66.5 -29t27.5 -83q0 -79 -57 -126t-119 -44z" />
    <glyph glyph-name="Lcaron" unicode="&#x13d;" horiz-adv-x="494" 
d="M363 545q-34 0 -58 24.5t-24 58.5t24.5 58t59.5 24q38 0 65.5 -29t27.5 -83q0 -79 -56.5 -126t-118.5 -44v32q49 -1 79 41q21 29 10 41q-3 3 -9 3zM426 127q15 0 15 -15v-97q0 -15 -15 -15h-342q-15 0 -15 15v670q0 15 15 15h113q15 0 15 -15v-558h214z" />
    <glyph glyph-name="lcaron" unicode="&#x13e;" horiz-adv-x="425" 
d="M241 468v32q49 -1 79 41q21 29 10 41q-3 3 -9 3q-34 0 -58.5 24.5t-24.5 58.5t25 58t60 24q38 0 65.5 -29t27.5 -83q0 -79 -56.5 -126t-118.5 -44zM74 0q-15 0 -15 15v685q0 15 15 15h109q15 0 15 -15v-685q0 -15 -15 -15h-109z" />
    <glyph glyph-name="Ldot" unicode="&#x13f;" horiz-adv-x="525" 
d="M426 127q15 0 15 -15v-97q0 -15 -15 -15h-342q-15 0 -15 15v670q0 15 15 15h113q15 0 15 -15v-558h214zM406 457q34 0 58 -24.5t24 -58.5t-24 -58t-58 -24q-35 0 -59 24t-24 58t24.5 58.5t58.5 24.5z" />
    <glyph glyph-name="ldot" unicode="&#x140;" horiz-adv-x="330" 
d="M74 0q-15 0 -15 15v685q0 15 15 15h109q15 0 15 -15v-685q0 -15 -15 -15h-109zM328 290q-34 0 -58 24t-24 58q0 35 24 59t58 24t58.5 -24.5t24.5 -58.5t-24 -58t-59 -24z" />
    <glyph glyph-name="Lslash" unicode="&#x141;" horiz-adv-x="501" 
d="M447 127q15 0 15 -15v-97q0 -15 -15 -15h-341q-15 0 -15 15v194l-43 -42q-8 -7 -13 -4.5t-5 12.5v91q0 11 8 19l53 52v348q0 15 15 15h113q15 0 15 -15v-208l90 88q8 7 13 4.5t5 -12.5v-90q0 -11 -8 -19l-100 -98v-223h213z" />
    <glyph glyph-name="lslash" unicode="&#x142;" horiz-adv-x="262" 
d="M267 465l-66 -74v-376q0 -15 -15 -15h-109q-15 0 -15 15v219l-67 -75v88l67 75v378q0 15 15 15h109q15 0 15 -15v-221l65 73z" />
    <glyph glyph-name="Nacute" unicode="&#x143;" horiz-adv-x="697" 
d="M304 767q-21 0 -12 17l59 114q7 12 17 12h97q21 0 12 -17l-60 -114q-7 -12 -17 -12h-96zM613 700q15 0 15 -15v-670q0 -15 -15 -15h-133q-12 0 -18 10l-250 461v-456q0 -15 -15 -15h-113q-15 0 -15 15v670q0 15 15 15h133q12 0 18 -10l250 -461v456q0 15 15 15h113z" />
    <glyph glyph-name="nacute" unicode="&#x144;" 
d="M249 557q-21 0 -12 17l59 114q7 12 17 12h97q21 0 12 -17l-60 -114q-7 -12 -17 -12h-96zM74 0q-15 0 -15 15v460q0 15 15 15h104q15 0 15 -16l4 -58q48 86 148 86q78 0 127.5 -54t49.5 -148v-285q0 -15 -16 -15h-107q-15 0 -15 15v254q0 106 -91 106q-44 0 -70 -27.5
t-26 -78.5v-254q0 -15 -15 -15h-108z" />
    <glyph glyph-name="uni0145" unicode="&#x145;" horiz-adv-x="697" 
d="M613 700q15 0 15 -15v-670q0 -15 -15 -15h-133q-12 0 -18 10l-250 461v-456q0 -15 -15 -15h-113q-15 0 -15 15v670q0 15 15 15h133q12 0 18 -10l250 -461v456q0 15 15 15h113zM345 -28q39 0 66.5 -29t27.5 -83q0 -79 -57 -126t-119 -44v32q49 -1 80 42q21 30 8 41
q-3 3 -8 3q-33 0 -57.5 24t-24.5 58t24.5 58t59.5 24z" />
    <glyph glyph-name="uni0146" unicode="&#x146;" 
d="M74 0q-15 0 -15 15v460q0 15 15 15h104q15 0 15 -16l4 -58q48 86 148 86q78 0 127.5 -54t49.5 -148v-285q0 -15 -16 -15h-107q-15 0 -15 15v254q0 106 -91 106q-44 0 -70 -27.5t-26 -78.5v-254q0 -15 -15 -15h-108zM208 -310v32q49 -1 80 42q21 30 8 41q-3 3 -8 3
q-33 0 -57.5 24t-24.5 58t24.5 58t59.5 24q39 0 66.5 -29t27.5 -83q0 -79 -57 -126t-119 -44z" />
    <glyph glyph-name="Ncaron" unicode="&#x147;" horiz-adv-x="697" 
d="M287 784l-91 109q-6 6 -4 12t11 6h73q11 0 18 -8l54 -66l55 66q7 8 18 8h72q9 0 11 -6t-4 -12l-91 -109q-7 -8 -17 -8h-88q-10 0 -17 8zM613 700q15 0 15 -15v-670q0 -15 -15 -15h-133q-12 0 -18 10l-250 461v-456q0 -15 -15 -15h-113q-15 0 -15 15v670q0 15 15 15h133
q12 0 18 -10l250 -461v456q0 15 15 15h113z" />
    <glyph glyph-name="ncaron" unicode="&#x148;" 
d="M148 701h73q11 0 18 -8l54 -66l55 66q7 8 18 8h72q9 0 11 -6t-4 -12l-91 -109q-7 -8 -17 -8h-88q-10 0 -17 8l-91 109q-6 6 -4 12t11 6zM74 0q-15 0 -15 15v460q0 15 15 15h104q15 0 15 -16l4 -58q48 86 148 86q78 0 127.5 -54t49.5 -148v-285q0 -15 -16 -15h-107
q-15 0 -15 15v254q0 106 -91 106q-44 0 -70 -27.5t-26 -78.5v-254q0 -15 -15 -15h-108z" />
    <glyph glyph-name="Eng" unicode="&#x14a;" horiz-adv-x="697" 
d="M613 700q15 0 15 -15v-696q0 -116 -68 -182t-177 -66q-119 0 -183 76q-10 12 -1 25l59 78q9 11 21 1q50 -40 99 -40t78 27t29 75v17h-5q-12 0 -18 10l-250 461v-456q0 -15 -15 -15h-113q-15 0 -15 15v670q0 15 15 15h133q12 0 18 -10l250 -461v456q0 15 15 15h113z" />
    <glyph glyph-name="eng" unicode="&#x14b;" 
d="M345 502q78 0 127.5 -54t49.5 -148v-315q0 -85 -56 -134t-147 -49q-9 0 -12 8l-33 108q-4 11 7 11q41 0 72 23.5t31 60.5v256q0 106 -91 106q-44 0 -70 -27.5t-26 -78.5v-254q0 -15 -15 -15h-108q-15 0 -15 15v460q0 15 15 15h104q15 0 15 -16l4 -58q48 86 148 86z" />
    <glyph glyph-name="Omacron" unicode="&#x14c;" horiz-adv-x="819" 
d="M258 803q-15 0 -15 15v77q0 15 15 15h303q16 0 16 -15v-77q0 -15 -16 -15h-303zM409 -13q-150 0 -255 104.5t-105 255.5q0 152 105 256.5t255 104.5t255 -104.5t105 -256.5q0 -151 -105 -255.5t-255 -104.5zM409 127q92 0 153.5 63t61.5 157q0 95 -61.5 158t-153.5 63
t-153.5 -63.5t-61.5 -157.5t61.5 -157t153.5 -63z" />
    <glyph glyph-name="omacron" unicode="&#x14d;" 
d="M139 593q-15 0 -15 15v77q0 15 15 15h303q16 0 16 -15v-77q0 -15 -16 -15h-303zM291 -12q-110 0 -183.5 74t-73.5 183t73.5 183t183.5 74t183 -74t73 -183t-73 -183t-183 -74zM291 115q53 0 88 35.5t35 94.5t-35 94.5t-88 35.5q-54 0 -89 -35.5t-35 -94.5t35 -94.5
t89 -35.5z" />
    <glyph glyph-name="Ohungarumlaut" unicode="&#x150;" horiz-adv-x="819" 
d="M285 767q-21 0 -12 17l59 114q7 12 17 12h97q21 0 12 -17l-60 -114q-7 -12 -17 -12h-96zM473 767q-9 0 -13 4.5t1 12.5l59 114q7 12 17 12h96q21 0 12 -17l-60 -114q-7 -12 -17 -12h-95zM409 -13q-150 0 -255 104.5t-105 255.5q0 152 105 256.5t255 104.5t255 -104.5
t105 -256.5q0 -151 -105 -255.5t-255 -104.5zM409 127q92 0 153.5 63t61.5 157q0 95 -61.5 158t-153.5 63t-153.5 -63.5t-61.5 -157.5t61.5 -157t153.5 -63z" />
    <glyph glyph-name="ohungarumlaut" unicode="&#x151;" 
d="M166 557q-21 0 -12 17l59 114q7 12 17 12h97q21 0 12 -17l-60 -114q-7 -12 -17 -12h-96zM354 557q-9 0 -13 4.5t1 12.5l59 114q7 12 17 12h96q21 0 12 -17l-60 -114q-7 -12 -17 -12h-95zM291 -12q-110 0 -183.5 74t-73.5 183t73.5 183t183.5 74t183 -74t73 -183t-73 -183
t-183 -74zM291 115q53 0 88 35.5t35 94.5t-35 94.5t-88 35.5q-54 0 -89 -35.5t-35 -94.5t35 -94.5t89 -35.5z" />
    <glyph glyph-name="OE" unicode="&#x152;" horiz-adv-x="1077" 
d="M1002 573h-227v-155h214q16 0 16 -15v-97q0 -15 -16 -15h-214v-164h227q15 0 15 -15v-97q0 -15 -15 -15h-356q-15 0 -15 15v48q-97 -76 -222 -76q-150 0 -255 104.5t-105 255.5q0 152 105 256.5t255 104.5q125 0 222 -76v53q0 15 15 15h356q15 0 15 -15v-97
q0 -15 -15 -15zM409 127q92 0 153.5 63t61.5 157q0 95 -61.5 158t-153.5 63t-153.5 -63.5t-61.5 -157.5t61.5 -157t153.5 -63z" />
    <glyph glyph-name="oe" unicode="&#x153;" horiz-adv-x="937" 
d="M902 268q0 -38 -11.5 -56.5t-41.5 -18.5h-298q23 -96 145 -96q61 0 113 30q10 6 17 -4l37 -51q8 -11 -5 -22q-62 -62 -174 -62q-126 0 -202 82q-74 -82 -191 -82q-110 0 -183.5 74t-73.5 183t73.5 183t183.5 74q116 0 188 -80q72 80 188 80q108 0 171.5 -68.5
t63.5 -165.5zM549 290h231q-6 47 -36 72.5t-76 25.5t-78 -25t-41 -73zM291 115q53 0 88 35.5t35 94.5t-35 94.5t-88 35.5q-54 0 -89 -35.5t-35 -94.5t35 -94.5t89 -35.5z" />
    <glyph glyph-name="Racute" unicode="&#x154;" horiz-adv-x="601" 
d="M245 767q-21 0 -12 17l59 114q7 12 17 12h97q21 0 12 -17l-60 -114q-7 -12 -17 -12h-96zM559 18q11 -18 -10 -18h-120q-12 0 -18 10l-148 235h-51v-230q0 -15 -15 -15h-113q-15 0 -15 15v670q0 15 15 15h211q121 0 183.5 -61.5t62.5 -165.5q0 -163 -139 -212zM212 573
v-201h78q114 0 114 101q0 100 -114 100h-78z" />
    <glyph glyph-name="racute" unicode="&#x155;" horiz-adv-x="387" 
d="M163 557q-21 0 -12 17l59 114q7 12 17 12h97q21 0 12 -17l-60 -114q-7 -12 -17 -12h-96zM74 0q-15 0 -15 15v460q0 15 15 15h104q15 0 15 -16l4 -63q30 91 106 91q29 0 45 -12q9 -6 9 -20v-86q0 -17 -20 -12q-18 5 -36 5q-50 0 -77 -31.5t-27 -85.5v-245q0 -15 -15 -15
h-108z" />
    <glyph glyph-name="uni0156" unicode="&#x156;" horiz-adv-x="601" 
d="M559 18q11 -18 -10 -18h-120q-12 0 -18 10l-148 235h-51v-230q0 -15 -15 -15h-113q-15 0 -15 15v670q0 15 15 15h211q121 0 183.5 -61.5t62.5 -165.5q0 -163 -139 -212zM212 573v-201h78q114 0 114 101q0 100 -114 100h-78zM286 -28q39 0 66.5 -29t27.5 -83
q0 -79 -57 -126t-119 -44v32q49 -1 80 42q21 30 8 41q-3 3 -8 3q-33 0 -57.5 24t-24.5 58t24.5 58t59.5 24z" />
    <glyph glyph-name="uni0157" unicode="&#x157;" horiz-adv-x="387" 
d="M74 0q-15 0 -15 15v460q0 15 15 15h104q15 0 15 -16l4 -63q30 91 106 91q29 0 45 -12q9 -6 9 -20v-86q0 -17 -20 -12q-18 5 -36 5q-50 0 -77 -31.5t-27 -85.5v-245q0 -15 -15 -15h-108zM42 -310v32q49 -1 80 42q21 30 8 41q-3 3 -8 3q-33 0 -57.5 24t-24.5 58t24.5 58
t59.5 24q39 0 66.5 -29t27.5 -83q0 -79 -57 -126t-119 -44z" />
    <glyph glyph-name="Rcaron" unicode="&#x158;" horiz-adv-x="601" 
d="M228 784l-91 109q-6 6 -4 12t11 6h73q11 0 18 -8l54 -66l55 66q7 8 18 8h72q9 0 11 -6t-4 -12l-91 -109q-7 -8 -17 -8h-88q-10 0 -17 8zM559 18q11 -18 -10 -18h-120q-12 0 -18 10l-148 235h-51v-230q0 -15 -15 -15h-113q-15 0 -15 15v670q0 15 15 15h211
q121 0 183.5 -61.5t62.5 -165.5q0 -163 -139 -212zM212 573v-201h78q114 0 114 101q0 100 -114 100h-78z" />
    <glyph glyph-name="rcaron" unicode="&#x159;" horiz-adv-x="387" 
d="M62 701h73q11 0 18 -8l54 -66l55 66q7 8 18 8h72q9 0 11 -6t-4 -12l-91 -109q-7 -8 -17 -8h-88q-10 0 -17 8l-91 109q-6 6 -4 12t11 6zM74 0q-15 0 -15 15v460q0 15 15 15h104q15 0 15 -16l4 -63q30 91 106 91q29 0 45 -12q9 -6 9 -20v-86q0 -17 -20 -12q-18 5 -36 5
q-50 0 -77 -31.5t-27 -85.5v-245q0 -15 -15 -15h-108z" />
    <glyph glyph-name="Sacute" unicode="&#x15a;" horiz-adv-x="555" 
d="M223 767q-21 0 -12 17l59 114q7 12 17 12h97q21 0 12 -17l-60 -114q-7 -12 -17 -12h-96zM276 -12q-76 0 -134.5 31t-92.5 78q-8 11 2 22l58 67q11 13 23 2q67 -69 141 -69q45 0 71.5 19t26.5 56q0 32 -19.5 49t-64.5 37l-85 40q-140 64 -140 191q0 92 61.5 144.5
t154.5 52.5q119 0 205 -92q10 -10 1 -23l-57 -69q-10 -13 -22 -4q-65 57 -122 57q-38 0 -60.5 -18t-22.5 -49q0 -29 18 -45t64 -37l72 -33q34 -16 57 -30.5t48.5 -38.5t38 -57t12.5 -75q0 -100 -68.5 -153t-165.5 -53z" />
    <glyph glyph-name="sacute" unicode="&#x15b;" horiz-adv-x="449" 
d="M183 557q-21 0 -12 17l59 114q7 12 17 12h97q21 0 12 -17l-60 -114q-7 -12 -17 -12h-96zM226 -12q-114 0 -183 81q-9 11 2 29l35 49q10 15 25 4q63 -48 113 -48q55 0 55 41q0 17 -11.5 28t-39.5 23l-62 25q-107 42 -107 134q0 68 50 108t121 40q101 0 164 -75
q8 -10 -1 -21l-44 -53q-9 -11 -23 0q-49 41 -89 41q-23 0 -35 -11t-12 -28q0 -31 47 -48l69 -27q111 -45 110 -142q-1 -71 -53.5 -110.5t-130.5 -39.5z" />
    <glyph glyph-name="Scedilla" unicode="&#x15e;" horiz-adv-x="555" 
d="M510 194q0 -88 -54 -140t-137 -63l-27 -24q36 -3 62.5 -25t26.5 -58q0 -42 -26.5 -68t-65.5 -33t-85 0q-9 1 -9 11v48q0 10 11 10q83 -9 83 26q0 14 -23.5 20.5t-58.5 -4.5q-12 -5 -12 7v50q0 9 5 12l30 28q-117 18 -181 106q-8 11 2 22l58 67q11 13 23 2q67 -69 141 -69
q45 0 71.5 19t26.5 56q0 32 -19.5 49t-64.5 37l-85 40q-140 64 -140 191q0 92 61.5 144.5t154.5 52.5q119 0 205 -92q10 -10 1 -23l-57 -69q-10 -13 -22 -4q-65 57 -122 57q-38 0 -60.5 -18t-22.5 -49q0 -29 18 -45t64 -37l72 -33q34 -16 57 -30.5t48.5 -38.5t38 -57
t12.5 -75z" />
    <glyph glyph-name="scedilla" unicode="&#x15f;" horiz-adv-x="449" 
d="M300 280q111 -45 110 -142q-1 -61 -41 -99.5t-103 -47.5l-27 -24q36 -3 62.5 -25t26.5 -58q0 -42 -26.5 -68t-65.5 -33t-85 0q-9 1 -9 11v48q0 10 11 10q83 -9 83 26q0 14 -23.5 20.5t-58.5 -4.5q-12 -5 -12 7v50q0 9 5 12l31 29q-84 16 -135 77q-9 11 2 29l35 49
q10 15 25 4q63 -48 113 -48q55 0 55 41q0 17 -11.5 28t-39.5 23l-62 25q-107 42 -107 134q0 68 50 108t121 40q101 0 164 -75q8 -10 -1 -21l-44 -53q-9 -11 -23 0q-49 41 -89 41q-23 0 -35 -11t-12 -28q0 -31 47 -48z" />
    <glyph glyph-name="Scaron" unicode="&#x160;" horiz-adv-x="555" 
d="M122 911h73q11 0 18 -8l54 -66l55 66q7 8 18 8h72q9 0 11 -6t-4 -12l-91 -109q-7 -8 -17 -8h-88q-10 0 -17 8l-91 109q-6 6 -4 12t11 6zM276 -12q-76 0 -134.5 31t-92.5 78q-8 11 2 22l58 67q11 13 23 2q67 -69 141 -69q45 0 71.5 19t26.5 56q0 32 -19.5 49t-64.5 37
l-85 40q-140 64 -140 191q0 92 61.5 144.5t154.5 52.5q119 0 205 -92q10 -10 1 -23l-57 -69q-10 -13 -22 -4q-65 57 -122 57q-38 0 -60.5 -18t-22.5 -49q0 -29 18 -45t64 -37l72 -33q34 -16 57 -30.5t48.5 -38.5t38 -57t12.5 -75q0 -100 -68.5 -153t-165.5 -53z" />
    <glyph glyph-name="scaron" unicode="&#x161;" horiz-adv-x="449" 
d="M82 701h73q11 0 18 -8l54 -66l55 66q7 8 18 8h72q9 0 11 -6t-4 -12l-91 -109q-7 -8 -17 -8h-88q-10 0 -17 8l-91 109q-6 6 -4 12t11 6zM226 -12q-114 0 -183 81q-9 11 2 29l35 49q10 15 25 4q63 -48 113 -48q55 0 55 41q0 17 -11.5 28t-39.5 23l-62 25q-107 42 -107 134
q0 68 50 108t121 40q101 0 164 -75q8 -10 -1 -21l-44 -53q-9 -11 -23 0q-49 41 -89 41q-23 0 -35 -11t-12 -28q0 -31 47 -48l69 -27q111 -45 110 -142q-1 -71 -53.5 -110.5t-130.5 -39.5z" />
    <glyph glyph-name="uni0162" unicode="&#x162;" horiz-adv-x="545" 
d="M480 700q15 0 15 -15v-97q0 -15 -15 -15h-136v-558q0 -15 -15 -15h-9l-35 -31q36 -3 62.5 -25t26.5 -58q0 -42 -26.5 -68t-65.5 -33t-85 0q-9 1 -9 11v48q0 10 11 10q83 -9 83 26q0 14 -23.5 20.5t-58.5 -4.5q-12 -5 -12 7v50q0 9 5 12l37 35h-14q-15 0 -15 15v558h-137
q-15 0 -15 15v97q0 15 15 15h416z" />
    <glyph glyph-name="uni0163" unicode="&#x163;" horiz-adv-x="366" 
d="M322 383h-77v-237q0 -43 43 -43q19 0 31 1q18 2 18 -14v-73q0 -25 -72 -29l-20 -18q36 -3 62.5 -25t26.5 -58q0 -42 -26.5 -68t-65.5 -33t-85 0q-9 2 -9 11v48q0 10 11 10q83 -9 83 26q0 14 -23.5 20.5t-58.5 -4.5q-12 -5 -12 7v50q0 9 5 12l34 33q-81 29 -81 132v252
h-62q-15 0 -15 15v77q0 15 15 15h62v115q0 15 15 15h109q15 0 15 -15v-115h77q15 0 15 -15v-77q0 -15 -15 -15z" />
    <glyph glyph-name="Tcaron" unicode="&#x164;" horiz-adv-x="545" 
d="M127 911h73q11 0 18 -8l54 -66l55 66q7 8 18 8h72q9 0 11 -6t-4 -12l-91 -109q-7 -8 -17 -8h-88q-10 0 -17 8l-91 109q-6 6 -4 12t11 6zM216 0q-15 0 -15 15v558h-137q-15 0 -15 15v97q0 15 15 15h416q15 0 15 -15v-97q0 -15 -15 -15h-136v-558q0 -15 -15 -15h-113z" />
    <glyph glyph-name="tcaron" unicode="&#x165;" horiz-adv-x="497" 
d="M306 529q-21 0 -12 17l60 114q7 12 17 12h96q21 0 12 -17l-60 -114q-7 -12 -17 -12h-96zM254 -12q-65 0 -106.5 34t-41.5 109v252h-62q-15 0 -15 15v77q0 15 15 15h62v115q0 15 15 15h109q15 0 15 -15v-115h77q15 0 15 -15v-77q0 -15 -15 -15h-77v-237q0 -43 43 -43
q19 0 31 1q18 2 18 -14v-73q0 -29 -83 -29z" />
    <glyph glyph-name="Tbar" unicode="&#x166;" horiz-adv-x="545" 
d="M480 700q15 0 15 -15v-97q0 -15 -15 -15h-136v-83h80q15 0 15 -15v-77q0 -15 -15 -15h-80v-368q0 -15 -15 -15h-113q-15 0 -15 15v368h-80q-15 0 -15 15v77q0 15 15 15h80v83h-137q-15 0 -15 15v97q0 15 15 15h416z" />
    <glyph glyph-name="tbar" unicode="&#x167;" horiz-adv-x="366" 
d="M322 383h-77v-51h77q15 0 15 -15v-82q0 -15 -15 -15h-77v-74q0 -43 43 -43q19 0 31 1q18 2 18 -14v-73q0 -29 -83 -29q-65 0 -106.5 34t-41.5 109v89h-62q-15 0 -15 15v82q0 15 15 15h62v51h-62q-15 0 -15 15v77q0 15 15 15h62v115q0 15 15 15h109q15 0 15 -15v-115h77
q15 0 15 -15v-77q0 -15 -15 -15z" />
    <glyph glyph-name="Utilde" unicode="&#x168;" horiz-adv-x="657" 
d="M406 783q-27 0 -51.5 11t-40 24.5t-35 24.5t-37.5 11q-34 0 -46 -28q-3 -8 -11 -8h-31q-10 0 -10 13q4 50 33 75.5t74 25.5q43 0 91.5 -35t72.5 -35q34 0 46 28q3 8 11 8h31q10 0 10 -10q-3 -51 -32.5 -78t-74.5 -27zM329 -13q-120 0 -192.5 72.5t-72.5 206.5v419
q0 15 15 15h113q15 0 15 -15v-416q0 -69 32 -105.5t90 -36.5q57 0 89 37t32 105v416q0 15 15 15h113q15 0 15 -15v-419q0 -134 -72.5 -206.5t-191.5 -72.5z" />
    <glyph glyph-name="utilde" unicode="&#x169;" 
d="M370 573q-27 0 -51.5 11t-40 24.5t-35 24.5t-37.5 11q-34 0 -46 -28q-3 -8 -11 -8h-31q-10 0 -10 13q4 50 33 75.5t74 25.5q43 0 91.5 -35t72.5 -35q34 0 46 28q3 8 11 8h31q10 0 10 -10q-3 -51 -32.5 -78t-74.5 -27zM236 -12q-79 0 -128 54t-49 148v285q0 15 15 15h108
q15 0 15 -15v-254q0 -106 91 -106q44 0 70 27.5t26 78.5v254q0 15 15 15h107q16 0 16 -15v-460q0 -15 -16 -15h-103q-15 0 -15 16l-4 58q-48 -86 -148 -86z" />
    <glyph glyph-name="Umacron" unicode="&#x16a;" horiz-adv-x="657" 
d="M177 803q-15 0 -15 15v77q0 15 15 15h303q16 0 16 -15v-77q0 -15 -16 -15h-303zM329 -13q-120 0 -192.5 72.5t-72.5 206.5v419q0 15 15 15h113q15 0 15 -15v-416q0 -69 32 -105.5t90 -36.5q57 0 89 37t32 105v416q0 15 15 15h113q15 0 15 -15v-419q0 -134 -72.5 -206.5
t-191.5 -72.5z" />
    <glyph glyph-name="umacron" unicode="&#x16b;" 
d="M141 593q-15 0 -15 15v77q0 15 15 15h303q16 0 16 -15v-77q0 -15 -16 -15h-303zM236 -12q-79 0 -128 54t-49 148v285q0 15 15 15h108q15 0 15 -15v-254q0 -106 91 -106q44 0 70 27.5t26 78.5v254q0 15 15 15h107q16 0 16 -15v-460q0 -15 -16 -15h-103q-15 0 -15 16l-4 58
q-48 -86 -148 -86z" />
    <glyph glyph-name="Ubreve" unicode="&#x16c;" horiz-adv-x="657" 
d="M329 766q-68 0 -109.5 37t-47.5 92q-2 15 14 15h54q13 0 16 -14q5 -21 24 -36t49 -15t48.5 15t24.5 36q3 14 16 14h54q16 0 14 -15q-6 -55 -47.5 -92t-109.5 -37zM329 -13q-120 0 -192.5 72.5t-72.5 206.5v419q0 15 15 15h113q15 0 15 -15v-416q0 -69 32 -105.5t90 -36.5
q57 0 89 37t32 105v416q0 15 15 15h113q15 0 15 -15v-419q0 -134 -72.5 -206.5t-191.5 -72.5z" />
    <glyph glyph-name="ubreve" unicode="&#x16d;" 
d="M292 556q-68 0 -109.5 37t-47.5 92q-1 15 14 15h54q13 0 16 -14q5 -21 24 -36t49 -15t48.5 15t24.5 36q3 14 16 14h54q15 0 14 -15q-6 -55 -47.5 -92t-109.5 -37zM236 -12q-79 0 -128 54t-49 148v285q0 15 15 15h108q15 0 15 -15v-254q0 -106 91 -106q44 0 70 27.5
t26 78.5v254q0 15 15 15h107q16 0 16 -15v-460q0 -15 -16 -15h-103q-15 0 -15 16l-4 58q-48 -86 -148 -86z" />
    <glyph glyph-name="Uring" unicode="&#x16e;" horiz-adv-x="657" 
d="M329 749q-46 0 -74.5 28.5t-28.5 71.5q0 42 29 72t74 30t74 -30t29 -72q0 -43 -28.5 -71.5t-74.5 -28.5zM329 826q10 0 17 7t7 17t-7 17t-17 7t-17 -7t-7 -17t7 -17t17 -7zM329 -13q-120 0 -192.5 72.5t-72.5 206.5v419q0 15 15 15h113q15 0 15 -15v-416q0 -69 32 -105.5
t90 -36.5q57 0 89 37t32 105v416q0 15 15 15h113q15 0 15 -15v-419q0 -134 -72.5 -206.5t-191.5 -72.5z" />
    <glyph glyph-name="uring" unicode="&#x16f;" 
d="M292 539q-46 0 -74.5 28.5t-28.5 71.5q0 42 29 72t74 30t74 -30t29 -72q0 -43 -28.5 -71.5t-74.5 -28.5zM292 616q10 0 17 7t7 17t-7 17t-17 7t-17 -7t-7 -17t7 -17t17 -7zM236 -12q-79 0 -128 54t-49 148v285q0 15 15 15h108q15 0 15 -15v-254q0 -106 91 -106
q44 0 70 27.5t26 78.5v254q0 15 15 15h107q16 0 16 -15v-460q0 -15 -16 -15h-103q-15 0 -15 16l-4 58q-48 -86 -148 -86z" />
    <glyph glyph-name="Uhungarumlaut" unicode="&#x170;" horiz-adv-x="657" 
d="M204 767q-21 0 -12 17l59 114q7 12 17 12h97q21 0 12 -17l-60 -114q-7 -12 -17 -12h-96zM392 767q-9 0 -13 4.5t1 12.5l59 114q7 12 17 12h96q21 0 12 -17l-60 -114q-7 -12 -17 -12h-95zM329 -13q-120 0 -192.5 72.5t-72.5 206.5v419q0 15 15 15h113q15 0 15 -15v-416
q0 -69 32 -105.5t90 -36.5q57 0 89 37t32 105v416q0 15 15 15h113q15 0 15 -15v-419q0 -134 -72.5 -206.5t-191.5 -72.5z" />
    <glyph glyph-name="uhungarumlaut" unicode="&#x171;" 
d="M168 557q-21 0 -12 17l59 114q7 12 17 12h97q21 0 12 -17l-60 -114q-7 -12 -17 -12h-96zM356 557q-9 0 -13 4.5t1 12.5l59 114q7 12 17 12h96q21 0 12 -17l-60 -114q-7 -12 -17 -12h-95zM236 -12q-79 0 -128 54t-49 148v285q0 15 15 15h108q15 0 15 -15v-254
q0 -106 91 -106q44 0 70 27.5t26 78.5v254q0 15 15 15h107q16 0 16 -15v-460q0 -15 -16 -15h-103q-15 0 -15 16l-4 58q-48 -86 -148 -86z" />
    <glyph glyph-name="Uogonek" unicode="&#x172;" horiz-adv-x="657" 
d="M578 700q15 0 15 -15v-419q0 -104 -44.5 -171t-122.5 -93q-79 -30 -79 -76q0 -22 15.5 -33.5t48.5 -4.5v-86q-22 -10 -52 -10t-58 9t-47.5 34t-19.5 61q0 55 46 94q-100 15 -158 85.5t-58 190.5v419q0 15 15 15h113q15 0 15 -15v-416q0 -69 32 -105.5t90 -36.5
q57 0 89 37t32 105v416q0 15 15 15h113z" />
    <glyph glyph-name="uogonek" unicode="&#x173;" 
d="M506 490q16 0 16 -15v-460q0 -15 -16 -15q-41 0 -65.5 -23t-24.5 -51q0 -22 16 -33.5t49 -4.5v-86q-22 -10 -52 -10t-58 9t-47.5 34t-19.5 61q0 77 84 124l-4 54q-48 -86 -148 -86q-79 0 -128 54t-49 148v285q0 15 15 15h108q15 0 15 -15v-254q0 -106 91 -106
q44 0 70 27.5t26 78.5v254q0 15 15 15h107z" />
    <glyph glyph-name="Wcircumflex" unicode="&#x174;" horiz-adv-x="1081" 
d="M395 775q-9 0 -11 6t4 12l91 109q7 8 17 8h88q10 0 17 -8l91 -109q4 -4 4.5 -8t-2.5 -7t-9 -3h-72q-11 0 -18 8l-55 66l-54 -66q-7 -8 -18 -8h-73zM254 0q-16 0 -19 12l-200 671q-5 17 12 17h117q16 0 17 -12l138 -494l150 494q4 12 17 12h109q13 0 17 -12l150 -494
l138 494q3 12 17 12h117q17 0 12 -17l-200 -671q-3 -12 -19 -12h-119q-16 0 -19 12l-148 508l-149 -508q-3 -12 -19 -12h-119z" />
    <glyph glyph-name="wcircumflex" unicode="&#x175;" horiz-adv-x="881" 
d="M295 565q-9 0 -11 6t4 12l91 109q7 8 17 8h88q10 0 17 -8l91 -109q4 -4 4.5 -8t-2.5 -7t-9 -3h-72q-11 0 -18 8l-55 66l-54 -66q-7 -8 -18 -8h-73zM202 0q-14 0 -18 12l-154 461q-6 17 12 17h105q13 0 18 -12l98 -318l107 318q4 12 18 12h105q13 0 18 -12l106 -318
l98 318q5 12 19 12h104q18 0 12 -17l-153 -461q-5 -12 -18 -12h-111q-14 0 -18 12l-110 318l-109 -318q-5 -12 -18 -12h-111z" />
    <glyph glyph-name="Ycircumflex" unicode="&#x176;" horiz-adv-x="627" 
d="M168 775q-9 0 -11 6t4 12l91 109q7 8 17 8h88q10 0 17 -8l91 -109q4 -4 4.5 -8t-2.5 -7t-9 -3h-72q-11 0 -18 8l-55 66l-54 -66q-7 -8 -18 -8h-73zM257 0q-15 0 -15 15v310l-205 357q-10 18 10 18h118q12 0 18 -10l131 -235l130 235q6 10 18 10h118q20 0 10 -18
l-205 -359v-308q0 -15 -15 -15h-113z" />
    <glyph glyph-name="ycircumflex" unicode="&#x177;" horiz-adv-x="573" 
d="M140 565q-9 0 -11 6t4 12l91 109q7 8 17 8h88q10 0 17 -8l91 -109q4 -4 4.5 -8t-2.5 -7t-9 -3h-72q-11 0 -18 8l-55 66l-54 -66q-7 -8 -18 -8h-73zM160 -190q-20 0 -12 17l71 172l-189 474q-6 17 12 17h110q14 0 18 -12l117 -318l116 318q4 12 18 12h110q18 0 12 -17
l-259 -651q-4 -12 -18 -12h-106z" />
    <glyph glyph-name="Ydieresis" unicode="&#x178;" horiz-adv-x="627" 
d="M204 776q-28 0 -48.5 20t-20.5 50q0 29 20.5 49t48.5 20q29 0 49 -20t20 -49q0 -30 -20 -50t-49 -20zM424 776q-29 0 -49 20t-20 50q0 29 20 49t49 20t49 -20t20 -49q0 -30 -20 -50t-49 -20zM257 0q-15 0 -15 15v310l-205 357q-10 18 10 18h118q12 0 18 -10l131 -235
l130 235q6 10 18 10h118q20 0 10 -18l-205 -359v-308q0 -15 -15 -15h-113z" />
    <glyph glyph-name="Zacute" unicode="&#x179;" horiz-adv-x="555" 
d="M230 767q-21 0 -12 17l59 114q7 12 17 12h97q21 0 12 -17l-60 -114q-7 -12 -17 -12h-96zM59 0q-15 0 -15 15v102q0 9 6 18l300 438h-281q-15 0 -15 15v97q0 15 15 15h411q15 0 15 -15v-102q0 -9 -6 -18l-300 -438h301q15 0 15 -15v-97q0 -15 -15 -15h-431z" />
    <glyph glyph-name="zacute" unicode="&#x17a;" horiz-adv-x="470" 
d="M190 557q-21 0 -12 17l59 114q7 12 17 12h97q21 0 12 -17l-60 -114q-7 -12 -17 -12h-96zM54 0q-15 0 -15 15v86q0 12 7 19l230 258h-219q-15 0 -15 15v82q0 15 15 15h357q15 0 15 -15v-86q0 -12 -7 -19l-229 -258h222q15 0 15 -15v-82q0 -15 -15 -15h-361z" />
    <glyph glyph-name="Zdotaccent" unicode="&#x17b;" horiz-adv-x="555" 
d="M274 787q-32 0 -54 22.5t-22 54.5t22 54t54 22q33 0 55 -22t22 -54t-22 -54.5t-55 -22.5zM59 0q-15 0 -15 15v102q0 9 6 18l300 438h-281q-15 0 -15 15v97q0 15 15 15h411q15 0 15 -15v-102q0 -9 -6 -18l-300 -438h301q15 0 15 -15v-97q0 -15 -15 -15h-431z" />
    <glyph glyph-name="zdotaccent" unicode="&#x17c;" horiz-adv-x="470" 
d="M234 577q-32 0 -54 22.5t-22 54.5t22 54t54 22q33 0 55 -22t22 -54t-22 -54.5t-55 -22.5zM54 0q-15 0 -15 15v86q0 12 7 19l230 258h-219q-15 0 -15 15v82q0 15 15 15h357q15 0 15 -15v-86q0 -12 -7 -19l-229 -258h222q15 0 15 -15v-82q0 -15 -15 -15h-361z" />
    <glyph glyph-name="Zcaron" unicode="&#x17d;" horiz-adv-x="555" 
d="M130 911h73q11 0 18 -8l54 -66l55 66q7 8 18 8h72q9 0 11 -6t-4 -12l-91 -109q-7 -8 -17 -8h-88q-10 0 -17 8l-91 109q-6 6 -4 12t11 6zM59 0q-15 0 -15 15v102q0 9 6 18l300 438h-281q-15 0 -15 15v97q0 15 15 15h411q15 0 15 -15v-102q0 -9 -6 -18l-300 -438h301
q15 0 15 -15v-97q0 -15 -15 -15h-431z" />
    <glyph glyph-name="zcaron" unicode="&#x17e;" horiz-adv-x="470" 
d="M90 701h73q11 0 18 -8l54 -66l55 66q7 8 18 8h72q9 0 11 -6t-4 -12l-91 -109q-7 -8 -17 -8h-88q-10 0 -17 8l-91 109q-6 6 -4 12t11 6zM54 0q-15 0 -15 15v86q0 12 7 19l230 258h-219q-15 0 -15 15v82q0 15 15 15h357q15 0 15 -15v-86q0 -12 -7 -19l-229 -258h222
q15 0 15 -15v-82q0 -15 -15 -15h-361z" />
    <glyph glyph-name="florin" unicode="&#x192;" horiz-adv-x="389" 
d="M79 -190q-45 0 -75 15q-9 5 -9 15v91q0 9 13 7q27 -5 40 -5q34 0 47 15.5t13 45.5v384h-58q-15 0 -15 15v82q0 15 15 15h58v76q0 165 168 165q44 0 75 -15q9 -4 9 -15v-91q0 -9 -13 -7q-27 5 -41 5q-34 0 -46.5 -15.5t-12.5 -45.5v-57h98q15 0 15 -15v-82q0 -15 -15 -15
h-98v-403q0 -165 -168 -165z" />
    <glyph glyph-name="uni01CD" unicode="&#x1cd;" horiz-adv-x="697" 
d="M287 784l-91 109q-6 6 -4 12t11 6h73q11 0 18 -8l54 -66l55 66q7 8 18 8h72q9 0 11 -6t-4 -12l-91 -109q-7 -8 -17 -8h-88q-10 0 -17 8zM662 17q3 -7 -1 -12t-12 -5h-118q-13 0 -17 12l-34 103h-264l-34 -103q-4 -12 -17 -12h-118q-19 0 -12 17l234 671q5 12 19 12h121
q15 0 19 -12zM257 242h182l-91 278z" />
    <glyph glyph-name="uni01CE" unicode="&#x1ce;" horiz-adv-x="617" 
d="M160 701h73q11 0 18 -8l54 -66l55 66q7 8 18 8h72q9 0 11 -6t-4 -12l-91 -109q-7 -8 -17 -8h-88q-10 0 -17 8l-91 109q-6 6 -4 12t11 6zM267 -12q-103 0 -168 73t-65 184q0 110 65.5 183.5t167.5 73.5q108 0 160 -81l2 54q0 15 15 15h98q15 0 15 -15v-460q0 -15 -16 -15
h-97q-15 0 -15 15l-2 54q-55 -81 -160 -81zM296 114q55 0 89.5 36t34.5 95t-34.5 95t-89.5 36t-91 -36.5t-36 -94.5q0 -59 36 -95t91 -36z" />
    <glyph glyph-name="uni01CF" unicode="&#x1cf;" horiz-adv-x="282" 
d="M-4 911h73q11 0 18 -8l54 -66l55 66q7 8 18 8h72q9 0 11 -6t-4 -12l-91 -109q-7 -8 -17 -8h-88q-10 0 -17 8l-91 109q-6 6 -4 12t11 6zM84 0q-15 0 -15 15v670q0 15 15 15h113q15 0 15 -15v-670q0 -15 -15 -15h-113z" />
    <glyph glyph-name="uni01D0" unicode="&#x1d0;" horiz-adv-x="249" 
d="M-20 701h73q11 0 18 -8l54 -66l55 66q7 8 18 8h72q9 0 11 -6t-4 -12l-91 -109q-7 -8 -17 -8h-88q-10 0 -17 8l-91 109q-6 6 -4 12t11 6zM70 0q-15 0 -15 15v460q0 15 15 15h109q15 0 15 -15v-460q0 -15 -15 -15h-109z" />
    <glyph glyph-name="uni01D1" unicode="&#x1d1;" horiz-adv-x="819" 
d="M264 911h73q11 0 18 -8l54 -66l55 66q7 8 18 8h72q9 0 11 -6t-4 -12l-91 -109q-7 -8 -17 -8h-88q-10 0 -17 8l-91 109q-6 6 -4 12t11 6zM409 -13q-150 0 -255 104.5t-105 255.5q0 152 105 256.5t255 104.5t255 -104.5t105 -256.5q0 -151 -105 -255.5t-255 -104.5z
M409 127q92 0 153.5 63t61.5 157q0 95 -61.5 158t-153.5 63t-153.5 -63.5t-61.5 -157.5t61.5 -157t153.5 -63z" />
    <glyph glyph-name="uni01D2" unicode="&#x1d2;" 
d="M145 701h73q11 0 18 -8l54 -66l55 66q7 8 18 8h72q9 0 11 -6t-4 -12l-91 -109q-7 -8 -17 -8h-88q-10 0 -17 8l-91 109q-6 6 -4 12t11 6zM291 -12q-110 0 -183.5 74t-73.5 183t73.5 183t183.5 74t183 -74t73 -183t-73 -183t-183 -74zM291 115q53 0 88 35.5t35 94.5
t-35 94.5t-88 35.5q-54 0 -89 -35.5t-35 -94.5t35 -94.5t89 -35.5z" />
    <glyph glyph-name="uni01D3" unicode="&#x1d3;" horiz-adv-x="657" 
d="M183 911h73q11 0 18 -8l54 -66l55 66q7 8 18 8h72q9 0 11 -6t-4 -12l-91 -109q-7 -8 -17 -8h-88q-10 0 -17 8l-91 109q-6 6 -4 12t11 6zM329 -13q-120 0 -192.5 72.5t-72.5 206.5v419q0 15 15 15h113q15 0 15 -15v-416q0 -69 32 -105.5t90 -36.5q57 0 89 37t32 105v416
q0 15 15 15h113q15 0 15 -15v-419q0 -134 -72.5 -206.5t-191.5 -72.5z" />
    <glyph glyph-name="uni01D4" unicode="&#x1d4;" 
d="M147 701h73q11 0 18 -8l54 -66l55 66q7 8 18 8h72q9 0 11 -6t-4 -12l-91 -109q-7 -8 -17 -8h-88q-10 0 -17 8l-91 109q-6 6 -4 12t11 6zM236 -12q-79 0 -128 54t-49 148v285q0 15 15 15h108q15 0 15 -15v-254q0 -106 91 -106q44 0 70 27.5t26 78.5v254q0 15 15 15h107
q16 0 16 -15v-460q0 -15 -16 -15h-103q-15 0 -15 16l-4 58q-48 -86 -148 -86z" />
    <glyph glyph-name="uni01EA" unicode="&#x1ea;" horiz-adv-x="819" 
d="M510 1q-77 -27 -77 -75q0 -22 15.5 -33.5t48.5 -4.5v-86q-22 -10 -52 -10t-58 9t-47.5 34t-19.5 61q0 53 44 94q-135 17 -225 117.5t-90 239.5q0 152 105 256.5t255 104.5t255 -104.5t105 -256.5q0 -123 -72.5 -218t-186.5 -128zM194 347q0 -94 61.5 -157t153.5 -63
t153.5 63t61.5 157q0 95 -61.5 158t-153.5 63t-153.5 -63.5t-61.5 -157.5z" />
    <glyph glyph-name="uni01EB" unicode="&#x1eb;" 
d="M368 -1q-68 -24 -68 -73q0 -22 16 -33.5t49 -4.5v-86q-23 -10 -52.5 -10t-57.5 9t-47.5 34t-19.5 61q0 58 48 97q-90 19 -146 88.5t-56 163.5q0 109 73.5 183t183.5 74t183 -74t73 -183q0 -88 -49 -155t-130 -91zM167 245q0 -59 35 -94.5t89 -35.5q53 0 88 35.5t35 94.5
t-35 94.5t-88 35.5q-54 0 -89 -35.5t-35 -94.5z" />
    <glyph glyph-name="uni0218" unicode="&#x218;" horiz-adv-x="555" 
d="M276 -12q-76 0 -134.5 31t-92.5 78q-8 11 2 22l58 67q11 13 23 2q67 -69 141 -69q45 0 71.5 19t26.5 56q0 32 -19.5 49t-64.5 37l-85 40q-140 64 -140 191q0 92 61.5 144.5t154.5 52.5q119 0 205 -92q10 -10 1 -23l-57 -69q-10 -13 -22 -4q-65 57 -122 57
q-38 0 -60.5 -18t-22.5 -49q0 -29 18 -45t64 -37l72 -33q34 -16 57 -30.5t48.5 -38.5t38 -57t12.5 -75q0 -100 -68.5 -153t-165.5 -53zM195 -310v32q49 -1 80 42q21 30 8 41q-3 3 -8 3q-33 0 -57.5 24t-24.5 58t24.5 58t59.5 24q39 0 66.5 -29t27.5 -83q0 -79 -57 -126
t-119 -44z" />
    <glyph glyph-name="uni0219" unicode="&#x219;" horiz-adv-x="449" 
d="M226 -12q-114 0 -183 81q-9 11 2 29l35 49q10 15 25 4q63 -48 113 -48q55 0 55 41q0 17 -11.5 28t-39.5 23l-62 25q-107 42 -107 134q0 68 50 108t121 40q101 0 164 -75q8 -10 -1 -21l-44 -53q-9 -11 -23 0q-49 41 -89 41q-23 0 -35 -11t-12 -28q0 -31 47 -48l69 -27
q111 -45 110 -142q-1 -71 -53.5 -110.5t-130.5 -39.5zM142 -310v32q49 -1 80 42q21 30 8 41q-3 3 -8 3q-33 0 -57.5 24t-24.5 58t24.5 58t59.5 24q39 0 66.5 -29t27.5 -83q0 -79 -57 -126t-119 -44z" />
    <glyph glyph-name="uni021A" unicode="&#x21a;" horiz-adv-x="545" 
d="M216 0q-15 0 -15 15v558h-137q-15 0 -15 15v97q0 15 15 15h416q15 0 15 -15v-97q0 -15 -15 -15h-136v-558q0 -15 -15 -15h-113zM188 -308v32q49 -1 80 42q21 30 8 41q-3 3 -8 3q-33 0 -57.5 24t-24.5 58t24.5 58t59.5 24q39 0 66.5 -29t27.5 -83q0 -79 -57 -126t-119 -44
z" />
    <glyph glyph-name="uni021B" unicode="&#x21b;" horiz-adv-x="366" 
d="M254 -12q-65 0 -106.5 34t-41.5 109v252h-62q-15 0 -15 15v77q0 15 15 15h62v115q0 15 15 15h109q15 0 15 -15v-115h77q15 0 15 -15v-77q0 -15 -15 -15h-77v-237q0 -43 43 -43q19 0 31 1q18 2 18 -14v-73q0 -29 -83 -29zM148 -307v32q49 -1 80 42q21 30 8 41q-3 3 -8 3
q-33 0 -57.5 24t-24.5 58t24.5 58t59.5 24q39 0 66.5 -29t27.5 -83q0 -79 -57 -126t-119 -44z" />
    <glyph glyph-name="uni0237" unicode="&#x237;" horiz-adv-x="259" 
d="M2 -198q-10 0 -12 8l-34 110q-4 11 7 11q44 3 74 28.5t30 76.5v439q0 15 15 15h108q15 0 15 -15v-465q0 -100 -54.5 -152.5t-148.5 -55.5z" />
    <glyph glyph-name="circumflex" unicode="&#x2c6;" horiz-adv-x="343" 
d="M26 565q-9 0 -11 6t4 12l91 109q7 8 17 8h88q10 0 17 -8l91 -109q4 -4 4.5 -8t-2.5 -7t-9 -3h-72q-11 0 -18 8l-55 66l-54 -66q-7 -8 -18 -8h-73z" />
    <glyph glyph-name="caron" unicode="&#x2c7;" horiz-adv-x="343" 
d="M26 701h73q11 0 18 -8l54 -66l55 66q7 8 18 8h72q9 0 11 -6t-4 -12l-91 -109q-7 -8 -17 -8h-88q-10 0 -17 8l-91 109q-6 6 -4 12t11 6z" />
    <glyph glyph-name="breve" unicode="&#x2d8;" horiz-adv-x="344" 
d="M172 556q-68 0 -109.5 37t-47.5 92q-1 15 14 15h54q13 0 16 -14q5 -21 24 -36t49 -15t48.5 15t24.5 36q3 14 16 14h54q15 0 14 -15q-6 -55 -47.5 -92t-109.5 -37z" />
    <glyph glyph-name="dotaccent" unicode="&#x2d9;" horiz-adv-x="183" 
d="M91 577q-32 0 -54 22.5t-22 54.5t22 54t54 22q33 0 55 -22t22 -54t-22 -54.5t-55 -22.5z" />
    <glyph glyph-name="ring" unicode="&#x2da;" horiz-adv-x="236" 
d="M118 539q-46 0 -74.5 28.5t-28.5 71.5q0 42 29 72t74 30t74 -30t29 -72q0 -43 -28.5 -71.5t-74.5 -28.5zM118 616q10 0 17 7t7 17t-7 17t-17 7t-17 -7t-7 -17t7 -17t17 -7z" />
    <glyph glyph-name="ogonek" unicode="&#x2db;" horiz-adv-x="222" 
d="M187 -198q-22 -10 -52 -10t-58 9t-47.5 34t-19.5 61q0 38 22 70t55 50t66 28t59 10v-54q-41 0 -65.5 -23t-24.5 -51q0 -22 16 -33.5t49 -4.5v-86z" />
    <glyph glyph-name="tilde" unicode="&#x2dc;" horiz-adv-x="399" 
d="M277 573q-27 0 -51.5 11t-40 24.5t-35 24.5t-37.5 11q-34 0 -46 -28q-3 -8 -11 -8h-31q-10 0 -10 13q4 50 33 75.5t74 25.5q43 0 91.5 -35t72.5 -35q34 0 46 28q3 8 11 8h31q10 0 10 -10q-3 -51 -32.5 -78t-74.5 -27z" />
    <glyph glyph-name="hungarumlaut" unicode="&#x2dd;" horiz-adv-x="406" 
d="M29 557q-21 0 -12 17l59 114q7 12 17 12h97q21 0 12 -17l-60 -114q-7 -12 -18 -12h-95zM217 557q-9 0 -13 4.5t1 12.5l59 114q7 12 17 12h96q21 0 12 -17l-60 -114q-7 -12 -17 -12h-95z" />
    <glyph glyph-name="uni0326" unicode="&#x326;" horiz-adv-x="0" 
d="M-175 -310v32q49 -1 80 42q21 30 8 41q-3 3 -8 3q-33 0 -57.5 24t-24.5 58t24.5 58t59.5 24q39 0 67 -29t28 -83q0 -79 -57.5 -126t-119.5 -44z" />
    <glyph glyph-name="uni0394" unicode="&#x394;" horiz-adv-x="697" 
d="M47 0q-19 0 -12 17l234 671q5 12 19 12h121q15 0 19 -12l234 -671q3 -7 -1 -12t-12 -5h-602zM215 112h267l-134 408z" />
    <glyph glyph-name="uni03A9" unicode="&#x3a9;" horiz-adv-x="813" 
d="M64 0q-15 0 -15 15v81q0 15 15 15h102v16q-61 43 -89 107.5t-28 133.5q0 144 103.5 242t253.5 98t254 -98.5t104 -241.5q0 -69 -28 -133.5t-89 -107.5v-16h102q15 0 15 -15v-81q0 -15 -15 -15h-230q-15 0 -15 15v156q54 28 85.5 78.5t31.5 113.5q0 90 -62.5 148.5
t-152.5 58.5t-152 -58.5t-62 -148.5q0 -63 31.5 -113.5t85.5 -78.5v-156q0 -15 -15 -15h-230z" />
    <glyph glyph-name="uni03BC" unicode="&#x3bc;" 
d="M74 -190q-15 0 -15 15v650q0 15 15 15h108q15 0 15 -15v-254q0 -106 91 -106q44 0 70 27.5t26 78.5v254q0 15 15 15h107q16 0 16 -15v-460q0 -15 -16 -15h-103q-15 0 -15 16l-4 58q-31 -86 -114 -86q-50 0 -73 28v-191q0 -15 -15 -15h-108z" />
    <glyph glyph-name="pi" unicode="&#x3c0;" horiz-adv-x="703" 
d="M585 -7q-61 0 -101 34t-40 109v239h-147v-360q0 -15 -15 -15h-108q-15 0 -15 15v360h-78q-15 0 -15 15v85q0 15 15 15h564q15 0 15 -15v-85q0 -15 -15 -15h-63v-215q0 -45 39 -45q29 0 35 1q18 3 18 -14v-80q0 -29 -89 -29z" />
    <glyph glyph-name="uni0401" unicode="&#x401;" horiz-adv-x="515" 
d="M163 776q-28 0 -48.5 20t-20.5 50q0 29 20.5 49t48.5 20q29 0 49 -20t20 -49q0 -30 -20 -50t-49 -20zM383 776q-29 0 -49 20t-20 50q0 29 20 49t49 20t49 -20t20 -49q0 -30 -20 -50t-49 -20zM84 0q-15 0 -15 15v670q0 15 15 15h356q15 0 15 -15v-97q0 -15 -15 -15h-228
v-155h215q15 0 15 -15v-97q0 -15 -15 -15h-215v-164h228q15 0 15 -15v-97q0 -15 -15 -15h-356z" />
    <glyph glyph-name="uni0403" unicode="&#x403;" horiz-adv-x="500" 
d="M210 767q-21 0 -12 17l59 114q7 12 17 12h97q21 0 12 -17l-60 -114q-7 -12 -17 -12h-96zM84 0q-15 0 -15 15v670q0 15 15 15h367q15 0 15 -15v-97q0 -15 -15 -15h-239v-558q0 -15 -15 -15h-113z" />
    <glyph glyph-name="uni0404" unicode="&#x404;" horiz-adv-x="704" 
d="M585 184l70 -75q10 -10 0 -20q-100 -102 -245 -102q-151 0 -256 103.5t-105 256.5t105 257t256 104q144 0 245 -101q10 -10 0 -21l-70 -75q-9 -11 -21 -1q-70 58 -154 58q-75 0 -131 -42.5t-76 -112.5h223q15 0 15 -15v-96q0 -15 -15 -15h-225q19 -72 75.5 -116
t133.5 -44q84 0 154 58q12 10 21 -1z" />
    <glyph glyph-name="uni0406" unicode="&#x406;" horiz-adv-x="282" 
d="M84 0q-15 0 -15 15v670q0 15 15 15h113q15 0 15 -15v-670q0 -15 -15 -15h-113z" />
    <glyph glyph-name="uni0407" unicode="&#x407;" horiz-adv-x="282" 
d="M31 776q-28 0 -48.5 20t-20.5 50q0 29 20.5 49t48.5 20q29 0 49 -20t20 -49q0 -30 -20 -50t-49 -20zM251 776q-29 0 -49 20t-20 50q0 29 20 49t49 20t49 -20t20 -49q0 -30 -20 -50t-49 -20zM84 0q-15 0 -15 15v670q0 15 15 15h113q15 0 15 -15v-670q0 -15 -15 -15h-113z
" />
    <glyph glyph-name="uni040C" unicode="&#x40c;" horiz-adv-x="668" 
d="M286 767q-21 0 -12 17l59 114q7 12 17 12h97q21 0 12 -17l-60 -114q-7 -12 -17 -12h-96zM84 0q-15 0 -15 15v670q0 15 15 15h113q15 0 15 -15v-309l232 316q7 8 18 8h137q9 0 11.5 -5.5t-3.5 -12.5l-232 -294l260 -370q5 -8 2.5 -13t-11.5 -5h-131q-12 0 -18 9l-189 267
l-76 -95v-166q0 -15 -15 -15h-113z" />
    <glyph glyph-name="uni040E" unicode="&#x40e;" horiz-adv-x="687" 
d="M343 766q-68 0 -109.5 37t-47.5 92q-2 15 14 15h54q13 0 16 -14q5 -21 24 -36t49 -15t48.5 15t24.5 36q3 14 16 14h54q16 0 14 -15q-6 -55 -47.5 -92t-109.5 -37zM122 0q-20 0 -10 18l157 272l-232 392q-5 8 -2 13t12 5h119q13 0 19 -10l159 -273l158 273q6 10 18 10h119
q9 0 12 -5t-1 -13l-391 -672q-6 -10 -18 -10h-119z" />
    <glyph glyph-name="uni0410" unicode="&#x410;" horiz-adv-x="697" 
d="M662 17q3 -7 -1 -12t-12 -5h-118q-13 0 -17 12l-34 103h-264l-34 -103q-4 -12 -17 -12h-118q-19 0 -12 17l234 671q5 12 19 12h121q15 0 19 -12zM257 242h182l-91 278z" />
    <glyph glyph-name="uni0411" unicode="&#x411;" horiz-adv-x="575" 
d="M295 455q121 0 183.5 -61.5t62.5 -166.5q0 -104 -62.5 -165.5t-183.5 -61.5h-211q-15 0 -15 15v670q0 15 15 15h370q15 0 15 -15v-97q0 -15 -15 -15h-242v-118h83zM290 127q114 0 114 100q0 101 -114 101h-78v-201h78z" />
    <glyph glyph-name="uni0412" unicode="&#x412;" horiz-adv-x="592" 
d="M84 0q-15 0 -15 15v670q0 15 15 15h236q92 0 142.5 -50.5t50.5 -125.5q0 -53 -26 -91t-66 -56q59 -15 98 -61t39 -118q0 -91 -62.5 -144.5t-183.5 -53.5h-228zM210 422h82q86 0 86 79q0 73 -86 73h-82v-152zM210 126h92q111 0 111 93q0 92 -111 92h-92v-185z" />
    <glyph glyph-name="uni0413" unicode="&#x413;" horiz-adv-x="500" 
d="M84 0q-15 0 -15 15v670q0 15 15 15h367q15 0 15 -15v-97q0 -15 -15 -15h-239v-558q0 -15 -15 -15h-113z" />
    <glyph glyph-name="uni0414" unicode="&#x414;" horiz-adv-x="763" 
d="M728 127q15 0 15 -15v-166q0 -15 -15 -15h-113q-15 0 -15 15v54h-422v-54q0 -15 -15 -15h-113q-15 0 -15 15v166q0 15 15 15h31q70 10 70 104v454q0 15 15 15h486q16 0 16 -15v-558h60zM294 205q0 -42 -11 -78h241v447h-230v-369z" />
    <glyph glyph-name="uni0415" unicode="&#x415;" horiz-adv-x="515" 
d="M84 0q-15 0 -15 15v670q0 15 15 15h356q15 0 15 -15v-97q0 -15 -15 -15h-228v-155h215q15 0 15 -15v-97q0 -15 -15 -15h-215v-164h228q15 0 15 -15v-97q0 -15 -15 -15h-356z" />
    <glyph glyph-name="uni0416" unicode="&#x416;" horiz-adv-x="1053" 
d="M1021 18q5 -8 2.5 -13t-11.5 -5h-131q-12 0 -18 9l-189 267l-76 -95v-166q0 -15 -15 -15h-113q-15 0 -15 15v167l-75 94l-189 -267q-6 -9 -18 -9h-132q-9 0 -11.5 5t2.5 13l261 370l-233 294q-6 7 -3.5 12.5t11.5 5.5h138q11 0 18 -8l231 -315v308q0 15 15 15h113
q15 0 15 -15v-309l232 316q7 8 18 8h137q9 0 11.5 -5.5t-3.5 -12.5l-232 -294z" />
    <glyph glyph-name="uni0417" unicode="&#x417;" horiz-adv-x="519" 
d="M249 -13q-72 0 -126 29t-85 77q-7 13 3 22l66 60q11 11 22 -2q48 -59 111 -59q48 0 76 28t28 69q0 39 -27 67.5t-78 28.5h-27q-16 0 -16 16v81q0 15 16 15h26q43 0 65 24t22 57q0 36 -25 58.5t-63 22.5q-62 0 -95 -56q-8 -14 -22 -2l-62 61q-12 10 -3 21q29 46 80.5 74.5
t116.5 28.5q87 0 147 -50.5t60 -133.5q0 -55 -28 -94t-70 -58q53 -21 88 -65.5t35 -111.5q0 -92 -67 -150t-168 -58z" />
    <glyph glyph-name="uni0418" unicode="&#x418;" horiz-adv-x="697" 
d="M613 700q15 0 15 -15v-670q0 -15 -15 -15h-113q-15 0 -15 15v456l-250 -461q-6 -10 -18 -10h-133q-15 0 -15 15v670q0 15 15 15h113q15 0 15 -15v-456l250 461q6 10 18 10h133z" />
    <glyph glyph-name="uni0419" unicode="&#x419;" horiz-adv-x="697" 
d="M348 765q-67 0 -109.5 37t-47.5 92q-1 15 14 15h54q13 0 16 -14q6 -21 25 -36t48 -15q30 0 49 15t25 36q3 14 16 14h53q15 0 14 -15q-6 -55 -47.5 -92t-109.5 -37zM613 700q15 0 15 -15v-670q0 -15 -15 -15h-113q-15 0 -15 15v456l-250 -461q-6 -10 -18 -10h-133
q-15 0 -15 15v670q0 15 15 15h113q15 0 15 -15v-456l250 461q6 10 18 10h133z" />
    <glyph glyph-name="uni041A" unicode="&#x41a;" horiz-adv-x="668" 
d="M84 0q-15 0 -15 15v670q0 15 15 15h113q15 0 15 -15v-309l232 316q7 8 18 8h137q9 0 11.5 -5.5t-3.5 -12.5l-232 -294l260 -370q5 -8 2.5 -13t-11.5 -5h-131q-12 0 -18 9l-189 267l-76 -95v-166q0 -15 -15 -15h-113z" />
    <glyph glyph-name="uni041B" unicode="&#x41b;" horiz-adv-x="706" 
d="M54 -5q-29 0 -29 18v100q0 12 11 12q38 0 61 25.5t23 78.5v456q0 15 15 15h486q16 0 16 -15v-670q0 -15 -16 -15h-113q-15 0 -15 15v558h-230v-369q0 -101 -58 -155t-151 -54z" />
    <glyph glyph-name="uni041C" unicode="&#x41c;" horiz-adv-x="882" 
d="M84 0q-15 0 -15 15v670q0 15 15 15h131q13 0 17 -10l209 -525l209 525q4 10 17 10h131q15 0 15 -15v-670q0 -15 -15 -15h-113q-15 0 -15 15v417l-13 -43l-148 -377q-5 -12 -18 -12h-100q-13 0 -18 12l-148 377l-13 43v-417q0 -15 -15 -15h-113z" />
    <glyph glyph-name="uni041D" unicode="&#x41d;" horiz-adv-x="681" 
d="M84 0q-15 0 -15 15v670q0 15 15 15h113q15 0 15 -15v-278h257v278q0 15 15 15h113q15 0 15 -15v-670q0 -15 -15 -15h-113q-15 0 -15 15v266h-257v-266q0 -15 -15 -15h-113z" />
    <glyph glyph-name="uni041E" unicode="&#x41e;" horiz-adv-x="819" 
d="M409 -13q-150 0 -255 104.5t-105 255.5q0 152 105 256.5t255 104.5t255 -104.5t105 -256.5q0 -151 -105 -255.5t-255 -104.5zM409 127q92 0 153.5 63t61.5 157q0 95 -61.5 158t-153.5 63t-153.5 -63.5t-61.5 -157.5t61.5 -157t153.5 -63z" />
    <glyph glyph-name="uni041F" unicode="&#x41f;" horiz-adv-x="666" 
d="M84 0q-15 0 -15 15v670q0 15 15 15h498q15 0 15 -15v-670q0 -15 -15 -15h-113q-15 0 -15 15v558h-242v-558q0 -15 -15 -15h-113z" />
    <glyph glyph-name="uni0420" unicode="&#x420;" horiz-adv-x="580" 
d="M84 0q-15 0 -15 15v670q0 15 15 15h211q121 0 183.5 -61.5t62.5 -165.5q0 -105 -62.5 -166.5t-183.5 -61.5h-83v-230q0 -15 -15 -15h-113zM212 372h78q114 0 114 101q0 100 -114 100h-78v-201z" />
    <glyph glyph-name="uni0421" unicode="&#x421;" horiz-adv-x="704" 
d="M410 -13q-151 0 -256 103.5t-105 256.5t105 257t256 104q144 0 245 -101q10 -10 0 -21l-70 -75q-9 -11 -21 -1q-70 58 -154 58q-92 0 -154 -63t-62 -158t61.5 -157.5t154.5 -62.5q84 0 154 58q12 10 21 -1l70 -75q10 -10 0 -20q-100 -102 -245 -102z" />
    <glyph glyph-name="uni0422" unicode="&#x422;" horiz-adv-x="545" 
d="M216 0q-15 0 -15 15v558h-137q-15 0 -15 15v97q0 15 15 15h416q15 0 15 -15v-97q0 -15 -15 -15h-136v-558q0 -15 -15 -15h-113z" />
    <glyph glyph-name="uni0423" unicode="&#x423;" horiz-adv-x="687" 
d="M122 0q-20 0 -10 18l157 272l-232 392q-5 8 -2 13t12 5h119q13 0 19 -10l159 -273l158 273q6 10 18 10h119q9 0 12 -5t-1 -13l-391 -672q-6 -10 -18 -10h-119z" />
    <glyph glyph-name="uni0424" unicode="&#x424;" horiz-adv-x="903" 
d="M544 640q149 0 231.5 -85.5t82.5 -204.5t-82.5 -204.5t-231.5 -85.5h-26v-45q0 -15 -15 -15h-113q-15 0 -15 15v45h-26q-149 0 -232 85.5t-83 204.5t83 204.5t232 85.5h26v45q0 15 15 15h113q15 0 15 -15v-45h26zM349 187h26v326h-26q-85 0 -127.5 -45t-42.5 -118
t42.5 -118t127.5 -45zM544 187q85 0 127 45t42 118t-42 118t-127 45h-26v-326h26z" />
    <glyph glyph-name="uni0425" unicode="&#x425;" horiz-adv-x="651" 
d="M57 0q-20 0 -10 18l201 340l-191 324q-10 18 10 18h121q13 0 19 -10l119 -201l119 201q4 10 18 10h121q20 0 10 -18l-191 -324l201 -340q10 -18 -10 -18h-123q-12 0 -18 10l-127 217l-128 -217q-6 -10 -18 -10h-123z" />
    <glyph glyph-name="uni0426" unicode="&#x426;" horiz-adv-x="708" 
d="M673 127q15 0 15 -15v-166q0 -15 -15 -15h-113q-15 0 -15 15v54h-461q-15 0 -15 15v670q0 15 15 15h113q15 0 15 -15v-558h242v558q0 15 15 15h113q15 0 15 -15v-558h76z" />
    <glyph glyph-name="uni0427" unicode="&#x427;" horiz-adv-x="637" 
d="M439 0q-15 0 -15 15v266q-68 -94 -183 -94q-91 0 -148.5 61.5t-57.5 163.5v273q0 15 15 15h113q15 0 15 -15v-231q0 -63 34 -95t86 -32q53 0 89.5 32t36.5 95v231q0 15 15 15h113q15 0 15 -15v-670q0 -15 -15 -15h-113z" />
    <glyph glyph-name="uni0428" unicode="&#x428;" horiz-adv-x="918" 
d="M834 700q15 0 15 -15v-670q0 -15 -15 -15h-750q-15 0 -15 15v670q0 15 15 15h113q15 0 15 -15v-558h175v558q0 15 16 15h113q15 0 15 -15v-558h175v558q0 15 15 15h113z" />
    <glyph glyph-name="uni0429" unicode="&#x429;" horiz-adv-x="961" 
d="M926 127q15 0 15 -15v-166q0 -15 -15 -15h-113q-15 0 -15 15v54h-714q-15 0 -15 15v670q0 15 15 15h113q15 0 15 -15v-558h175v558q0 15 16 15h113q15 0 15 -15v-558h175v558q0 15 15 15h113q15 0 15 -15v-558h77z" />
    <glyph glyph-name="uni042A" unicode="&#x42a;" horiz-adv-x="635" 
d="M355 455q121 0 183.5 -61.5t62.5 -166.5q0 -104 -62.5 -165.5t-183.5 -61.5h-211q-15 0 -15 15v558h-99q-16 0 -16 15v97q0 15 16 15h227q15 0 15 -15v-230h83zM350 127q114 0 114 100q0 101 -114 101h-78v-201h78z" />
    <glyph glyph-name="uni042B" unicode="&#x42b;" horiz-adv-x="823" 
d="M84 0q-15 0 -15 15v670q0 15 15 15h113q15 0 15 -15v-230h83q121 0 183.5 -61.5t62.5 -166.5q0 -104 -62.5 -165.5t-183.5 -61.5h-211zM626 0q-15 0 -15 15v670q0 15 15 15h113q15 0 15 -15v-670q0 -15 -15 -15h-113zM212 127h78q114 0 114 100q0 101 -114 101h-78v-201z
" />
    <glyph glyph-name="uni042C" unicode="&#x42c;" horiz-adv-x="580" 
d="M84 0q-15 0 -15 15v670q0 15 15 15h113q15 0 15 -15v-230h83q121 0 183.5 -61.5t62.5 -166.5q0 -104 -62.5 -165.5t-183.5 -61.5h-211zM212 127h78q114 0 114 100q0 101 -114 101h-78v-201z" />
    <glyph glyph-name="uni042D" unicode="&#x42d;" horiz-adv-x="704" 
d="M300 708q150 0 255 -104t105 -257t-105 -256.5t-255 -103.5q-146 0 -246 102q-10 10 0 20l70 75q9 11 21 1q70 -58 154 -58q77 0 133.5 44t75.5 116h-225q-15 0 -15 15v96q0 15 15 15h223q-20 70 -76 112.5t-131 42.5q-84 0 -154 -58q-12 -10 -21 1l-70 75q-10 11 0 21
q101 101 246 101z" />
    <glyph glyph-name="uni042E" unicode="&#x42e;" horiz-adv-x="1036" 
d="M627 708q150 0 255 -104.5t105 -256.5q0 -151 -105 -255.5t-255 -104.5q-134 0 -234 85t-121 215h-60v-272q0 -15 -15 -15h-113q-15 0 -15 15v670q0 15 15 15h113q15 0 15 -15v-272h61q23 128 122.5 211.5t231.5 83.5zM627 127q92 0 153.5 63t61.5 157t-61.5 157.5
t-153.5 63.5t-153.5 -63.5t-61.5 -157.5t61.5 -157t153.5 -63z" />
    <glyph glyph-name="uni042F" unicode="&#x42f;" horiz-adv-x="611" 
d="M527 700q15 0 15 -15v-670q0 -15 -15 -15h-113q-15 0 -15 15v230h-51l-148 -235q-6 -10 -18 -10h-120q-21 0 -10 18l157 243q-139 49 -139 212q0 104 62.5 165.5t183.5 61.5h211zM399 372v201h-78q-114 0 -114 -100q0 -101 114 -101h78z" />
    <glyph glyph-name="uni0430" unicode="&#x430;" horiz-adv-x="617" 
d="M267 -12q-103 0 -168 73t-65 184q0 110 65.5 183.5t167.5 73.5q108 0 160 -81l2 54q0 15 15 15h98q15 0 15 -15v-460q0 -15 -16 -15h-97q-15 0 -15 15l-2 54q-55 -81 -160 -81zM296 114q55 0 89.5 36t34.5 95t-34.5 95t-89.5 36t-91 -36.5t-36 -94.5q0 -59 36 -95t91 -36
z" />
    <glyph glyph-name="uni0431" unicode="&#x431;" horiz-adv-x="617" 
d="M350 -12q-105 0 -160 81l-2 -54q0 -15 -15 -15h-98q-16 0 -16 15v502q0 183 168 183h134q28 0 39 4t12 16h112v-20q0 -68 -30.5 -94t-101.5 -26h-128q-36 0 -51 -18t-15 -54l1 -74q52 68 151 68q102 0 167 -73.5t65 -183.5q0 -111 -65 -184t-167 -73zM321 114
q55 0 90.5 36t35.5 95q0 58 -35.5 94.5t-90.5 36.5q-56 0 -90.5 -36t-34.5 -95t34.5 -95t90.5 -36z" />
    <glyph glyph-name="uni0432" unicode="&#x432;" horiz-adv-x="546" 
d="M411 260q49 -11 75 -42t26 -78q0 -69 -55 -104.5t-147 -35.5h-236q-15 0 -15 15v460q0 15 15 15h241q71 0 118 -34.5t47 -94.5q0 -74 -69 -101zM356 337q0 41 -48 41h-110v-83h110q48 0 48 42zM322 112q58 0 58 48q0 47 -58 47h-124v-95h124z" />
    <glyph glyph-name="uni0433" unicode="&#x433;" horiz-adv-x="441" 
d="M74 0q-15 0 -15 15v460q0 15 15 15h317q15 0 15 -15v-82q0 -15 -15 -15h-194v-363q0 -15 -15 -15h-108z" />
    <glyph glyph-name="uni0434" unicode="&#x434;" horiz-adv-x="688" 
d="M653 112q15 0 15 -15v-140q0 -16 -15 -16h-108q-15 0 -15 16v43h-357v-43q0 -16 -15 -16h-108q-15 0 -15 16v145q0 11 10 11q79 0 79 106v256q0 15 15 15h428q15 0 15 -15v-363h71zM262 378v-164q0 -62 -30 -102h211v266h-181z" />
    <glyph glyph-name="uni0435" unicode="&#x435;" horiz-adv-x="555" 
d="M303 -12q-119 0 -194 73.5t-75 185.5q0 110 70 182.5t182 72.5q108 0 171.5 -68.5t63.5 -165.5q0 -38 -11.5 -56.5t-42.5 -18.5h-298q23 -96 145 -96q62 0 114 30q10 6 17 -4l37 -51q8 -11 -5 -22q-62 -62 -174 -62zM167 290h231q-6 48 -36 73t-75 25q-47 0 -79 -25
t-41 -73z" />
    <glyph glyph-name="uni0436" unicode="&#x436;" horiz-adv-x="909" 
d="M875 18q6 -8 3.5 -13t-12.5 -5h-128q-11 0 -18 8l-149 180l-47 -49v-124q0 -15 -15 -15h-109q-15 0 -15 15v123l-48 50l-149 -180q-7 -8 -18 -8h-127q-10 0 -12.5 5t3.5 13l216 261l-183 193q-7 8 -4.5 13t12.5 5h129q12 0 19 -8l162 -175v168q0 15 15 15h109
q15 0 15 -15v-167l161 174q7 8 19 8h130q10 0 12.5 -5t-4.5 -13l-184 -193z" />
    <glyph glyph-name="uni0437" unicode="&#x437;" horiz-adv-x="409" 
d="M189 -8q-97 0 -149 65q-11 14 2 30l37 44q11 15 26 3q37 -30 78 -30q28 0 48.5 13t20.5 39q0 23 -23 39t-71 16q-22 0 -22 21v47q0 23 22 23q76 0 76 43q0 19 -15.5 29.5t-39.5 10.5q-25 0 -63 -21q-23 -13 -33 0l-30 41q-12 18 -1 30q23 27 62 44t84 17q66 0 114 -36
t48 -96t-65 -102q80 -39 80 -121q0 -70 -53 -109.5t-133 -39.5z" />
    <glyph glyph-name="uni0438" unicode="&#x438;" horiz-adv-x="607" 
d="M533 490q15 0 15 -15v-460q0 -15 -15 -15h-109q-15 0 -15 15v293l-190 -298q-7 -10 -19 -10h-126q-15 0 -15 15v460q0 15 15 15h109q15 0 15 -15v-293l190 298q7 10 19 10h126z" />
    <glyph glyph-name="uni0439" unicode="&#x439;" horiz-adv-x="607" 
d="M316 556q-68 0 -109.5 37t-47.5 92q-1 15 14 15h54q13 0 16 -14q5 -21 24 -36t49 -15t48.5 15t24.5 36q3 14 16 14h54q15 0 14 -15q-6 -55 -47.5 -92t-109.5 -37zM533 490q15 0 15 -15v-460q0 -15 -15 -15h-109q-15 0 -15 15v293l-190 -298q-7 -10 -19 -10h-126
q-15 0 -15 15v460q0 15 15 15h109q15 0 15 -15v-293l190 298q7 10 19 10h126z" />
    <glyph glyph-name="uni043A" unicode="&#x43a;" horiz-adv-x="583" 
d="M549 18q6 -8 3.5 -13t-12.5 -5h-128q-11 0 -18 8l-149 180l-47 -49v-124q0 -15 -15 -15h-109q-15 0 -15 15v460q0 15 15 15h109q15 0 15 -15v-167l161 174q7 8 19 8h130q10 0 12.5 -5t-4.5 -13l-184 -193z" />
    <glyph glyph-name="uni043B" unicode="&#x43b;" horiz-adv-x="561" 
d="M-31 -5q-14 0 -14 9v98q0 11 10 11q79 0 79 106v256q0 15 15 15h428q15 0 15 -15v-460q0 -15 -15 -15h-109q-15 0 -15 15v363h-181v-195q0 -94 -57 -141t-156 -47z" />
    <glyph glyph-name="uni043C" unicode="&#x43c;" horiz-adv-x="757" 
d="M683 490q15 0 15 -15v-460q0 -15 -15 -15h-109q-15 0 -15 15v229l-107 -233q-5 -11 -17 -11h-114q-12 0 -17 11l-106 232v-228q0 -15 -15 -15h-109q-15 0 -15 15v460q0 15 15 15h130q12 0 17 -11l158 -336l156 336q5 11 17 11h131z" />
    <glyph glyph-name="uni043D" unicode="&#x43d;" horiz-adv-x="601" 
d="M526 490q16 0 16 -15v-460q0 -15 -16 -15h-108q-16 0 -16 15v162h-204v-162q0 -15 -15 -15h-109q-15 0 -15 15v460q0 15 15 15h109q15 0 15 -15v-185h204v185q0 15 16 15h108z" />
    <glyph glyph-name="uni043E" unicode="&#x43e;" 
d="M291 -12q-110 0 -183.5 74t-73.5 183t73.5 183t183.5 74t183 -74t73 -183t-73 -183t-183 -74zM291 115q53 0 88 35.5t35 94.5t-35 94.5t-88 35.5q-54 0 -89 -35.5t-35 -94.5t35 -94.5t89 -35.5z" />
    <glyph glyph-name="uni043F" unicode="&#x43f;" horiz-adv-x="606" 
d="M531 490q15 0 15 -15v-460q0 -15 -15 -15h-109q-15 0 -15 15v359h-209v-359q0 -15 -15 -15h-109q-15 0 -15 15v460q0 15 15 15h457z" />
    <glyph glyph-name="uni0440" unicode="&#x440;" horiz-adv-x="617" 
d="M74 -190q-15 0 -15 15v650q0 15 15 15h99q15 0 15 -15l2 -54q52 81 160 81q102 0 167 -73.5t65 -183.5q0 -111 -65 -184t-167 -73q-98 0 -152 70v-233q0 -15 -15 -15h-109zM321 114q55 0 90.5 36t35.5 95q0 58 -35.5 94.5t-90.5 36.5q-56 0 -90.5 -36t-34.5 -95t34.5 -95
t90.5 -36z" />
    <glyph glyph-name="uni0441" unicode="&#x441;" horiz-adv-x="519" 
d="M293 -12q-111 0 -185 74t-74 185q0 109 73 182t183 73q122 0 190 -88q9 -10 -2 -21l-60 -59q-13 -13 -26 0q-41 41 -96 41q-58 0 -93.5 -36.5t-35.5 -91.5q0 -56 36.5 -94t95.5 -38q53 0 94 41q13 13 26 0l60 -59q11 -11 2 -21q-68 -88 -188 -88z" />
    <glyph glyph-name="uni0442" unicode="&#x442;" horiz-adv-x="472" 
d="M182 0q-15 0 -15 15v359h-112q-15 0 -15 15v86q0 15 15 15h362q15 0 15 -15v-86q0 -15 -15 -15h-112v-359q0 -15 -15 -15h-108z" />
    <glyph glyph-name="uni0443" unicode="&#x443;" horiz-adv-x="573" 
d="M160 -190q-20 0 -12 17l71 172l-189 474q-6 17 12 17h110q14 0 18 -12l117 -318l116 318q4 12 18 12h110q18 0 12 -17l-259 -651q-4 -12 -18 -12h-106z" />
    <glyph glyph-name="uni0444" unicode="&#x444;" horiz-adv-x="933" 
d="M413 -190q-15 0 -15 15v221q-59 -57 -139 -57q-95 0 -160 74.5t-65 182.5t65 182.5t160 74.5q80 0 139 -59v221q0 15 15 15h108q15 0 15 -15v-221q59 59 138 59q95 0 160 -74.5t65 -182.5t-65 -182.5t-160 -74.5q-79 0 -138 57v-221q0 -15 -15 -15h-108zM284 115
q51 0 82.5 38t31.5 92q0 56 -31.5 94t-82.5 38q-50 0 -83.5 -37.5t-33.5 -94.5q0 -56 33.5 -93t83.5 -37zM649 115q50 0 83.5 37t33.5 93q0 57 -33.5 94.5t-83.5 37.5q-51 0 -82 -38t-31 -94q0 -54 31 -92t82 -38z" />
    <glyph glyph-name="uni0445" unicode="&#x445;" horiz-adv-x="526" 
d="M42 0q-9 0 -12 5t2 13l148 233l-142 221q-5 8 -2 13t12 5h118q12 0 18 -10l79 -131l78 131q6 10 18 10h118q9 0 12 -5t-2 -13l-141 -221l147 -233q5 -8 2 -13t-12 -5h-118q-12 0 -18 10l-84 143l-85 -143q-6 -10 -18 -10h-118z" />
    <glyph glyph-name="uni0446" unicode="&#x446;" horiz-adv-x="632" 
d="M597 112q15 0 15 -15v-140q0 -16 -15 -16h-105q-15 0 -15 16v43h-403q-15 0 -15 15v460q0 15 15 15h109q15 0 15 -15v-359h209v359q0 15 15 15h109q15 0 15 -15v-363h51z" />
    <glyph glyph-name="uni0447" unicode="&#x447;" horiz-adv-x="582" 
d="M507 490q16 0 16 -15v-460q0 -15 -16 -15h-108q-16 0 -16 15v135q-52 -62 -152 -62q-88 0 -142.5 54.5t-54.5 167.5v165q0 15 15 15h108q15 0 15 -15v-153q0 -49 25.5 -79.5t76.5 -30.5t80 31t29 79v153q0 15 16 15h108z" />
    <glyph glyph-name="uni0448" unicode="&#x448;" horiz-adv-x="783" 
d="M709 490q15 0 15 -15v-460q0 -15 -15 -15h-635q-15 0 -15 15v460q0 15 15 15h109q15 0 15 -15v-359h124v359q0 15 15 15h109q15 0 15 -15v-359h124v359q0 15 15 15h109z" />
    <glyph glyph-name="uni0449" unicode="&#x449;" horiz-adv-x="809" 
d="M774 112q15 0 15 -15v-140q0 -16 -15 -16h-105q-15 0 -15 16v43h-580q-15 0 -15 15v460q0 15 15 15h109q15 0 15 -15v-359h124v359q0 15 15 15h109q15 0 15 -15v-359h124v359q0 15 15 15h109q15 0 15 -15v-363h50z" />
    <glyph glyph-name="uni044A" unicode="&#x44a;" 
d="M357 345q189 0 189 -172q0 -173 -189 -173h-262q-15 0 -15 15v363h-56q-15 0 -15 15v82q0 15 15 15h179q16 0 16 -15v-130h138zM336 108q78 0 78 65q0 64 -78 64h-117v-129h117z" />
    <glyph glyph-name="uni044B" unicode="&#x44b;" horiz-adv-x="798" 
d="M74 0q-15 0 -15 15v460q0 15 15 15h109q15 0 15 -15v-130h138q190 0 190 -172q0 -173 -190 -173h-262zM615 0q-15 0 -15 15v460q0 15 15 15h109q15 0 15 -15v-460q0 -15 -15 -15h-109zM198 108h118q78 0 78 65q0 64 -78 64h-118v-129z" />
    <glyph glyph-name="uni044C" unicode="&#x44c;" horiz-adv-x="560" 
d="M74 0q-15 0 -15 15v460q0 15 15 15h109q15 0 15 -15v-130h138q190 0 190 -172q0 -173 -190 -173h-262zM198 108h118q78 0 78 65q0 64 -78 64h-118v-129z" />
    <glyph glyph-name="uni044D" unicode="&#x44d;" horiz-adv-x="519" 
d="M228 502q111 0 184 -73t73 -182q0 -111 -74 -185t-186 -74q-119 0 -187 88q-9 11 1 21l61 59q13 13 26 0q41 -41 94 -41q44 0 75.5 21.5t46.5 57.5h-145q-15 0 -15 15v70q0 15 15 15h147q-13 37 -45 59t-77 22q-54 0 -95 -41q-13 -13 -26 0l-61 59q-10 10 -1 21
q68 88 189 88z" />
    <glyph glyph-name="uni044E" unicode="&#x44e;" horiz-adv-x="801" 
d="M511 502q110 0 183 -74t73 -183t-73 -183t-183 -74q-95 0 -164 56t-87 144h-62v-174q0 -15 -15 -15h-109q-15 0 -15 15v460q0 15 15 15h109q15 0 15 -15v-174h61q18 89 87 145.5t165 56.5zM511 115q53 0 88 35.5t35 94.5t-35 94.5t-88 35.5q-54 0 -89 -35.5t-35 -94.5
t35 -94.5t89 -35.5z" />
    <glyph glyph-name="uni044F" unicode="&#x44f;" horiz-adv-x="564" 
d="M490 490q15 0 15 -15v-460q0 -15 -15 -15h-109q-15 0 -15 15v130h-76l-114 -137q-7 -8 -18 -8h-112q-10 0 -12 5t4 13l115 136q-115 30 -115 163q0 173 190 173h262zM366 253v129h-117q-79 0 -79 -65q0 -64 79 -64h117z" />
    <glyph glyph-name="uni0451" unicode="&#x451;" horiz-adv-x="555" 
d="M167 566q-28 0 -48.5 20t-20.5 50q0 29 20.5 49t48.5 20q29 0 49 -20t20 -49q0 -30 -20 -50t-49 -20zM387 566q-29 0 -49 20t-20 50q0 29 20 49t49 20t49 -20t20 -49q0 -30 -20 -50t-49 -20zM303 -12q-119 0 -194 73.5t-75 185.5q0 110 70 182.5t182 72.5
q108 0 171.5 -68.5t63.5 -165.5q0 -38 -11.5 -56.5t-42.5 -18.5h-298q23 -96 145 -96q62 0 114 30q10 6 17 -4l37 -51q8 -11 -5 -22q-62 -62 -174 -62zM167 290h231q-6 48 -36 73t-75 25q-47 0 -79 -25t-41 -73z" />
    <glyph glyph-name="uni0453" unicode="&#x453;" horiz-adv-x="441" 
d="M179 557q-21 0 -12 17l59 114q7 12 17 12h97q21 0 12 -17l-60 -114q-7 -12 -17 -12h-96zM74 0q-15 0 -15 15v460q0 15 15 15h317q15 0 15 -15v-82q0 -15 -15 -15h-194v-363q0 -15 -15 -15h-108z" />
    <glyph glyph-name="uni0454" unicode="&#x454;" horiz-adv-x="519" 
d="M479 97q11 -11 2 -21q-68 -88 -188 -88q-111 0 -185 74t-74 185q0 109 73 182t183 73q122 0 190 -88q9 -10 -2 -21l-60 -59q-13 -13 -26 0q-41 41 -96 41q-44 0 -76 -22t-45 -59h146q16 0 16 -15v-70q0 -15 -16 -15h-144q15 -36 46.5 -57.5t75.5 -21.5q53 0 94 41
q13 13 26 0z" />
    <glyph glyph-name="uni0456" unicode="&#x456;" horiz-adv-x="260" 
d="M130 577q-33 0 -55 22.5t-22 54.5t22 54t55 22t54.5 -22t21.5 -54q0 -33 -21.5 -55t-54.5 -22zM75 0q-15 0 -15 15v460q0 15 15 15h109q15 0 15 -15v-460q0 -15 -15 -15h-109z" />
    <glyph glyph-name="uni0457" unicode="&#x457;" horiz-adv-x="249" 
d="M15 566q-28 0 -48.5 20t-20.5 50q0 29 20.5 49t48.5 20q29 0 49 -20t20 -49q0 -30 -20 -50t-49 -20zM235 566q-29 0 -49 20t-20 50q0 29 20 49t49 20t49 -20t20 -49q0 -30 -20 -50t-49 -20zM70 0q-15 0 -15 15v460q0 15 15 15h109q15 0 15 -15v-460q0 -15 -15 -15h-109z
" />
    <glyph glyph-name="uni045C" unicode="&#x45c;" horiz-adv-x="583" 
d="M255 557q-21 0 -12 17l59 114q7 12 17 12h97q21 0 12 -17l-60 -114q-7 -12 -17 -12h-96zM549 18q6 -8 3.5 -13t-12.5 -5h-128q-11 0 -18 8l-149 180l-47 -49v-124q0 -15 -15 -15h-109q-15 0 -15 15v460q0 15 15 15h109q15 0 15 -15v-167l161 174q7 8 19 8h130
q10 0 12.5 -5t-4.5 -13l-184 -193z" />
    <glyph glyph-name="uni045E" unicode="&#x45e;" horiz-adv-x="573" 
d="M291 556q-68 0 -109.5 37t-47.5 92q-2 15 14 15h54q13 0 16 -14q5 -21 24 -36t49 -15t48.5 15t24.5 36q3 14 16 14h54q16 0 14 -15q-6 -55 -47.5 -92t-109.5 -37zM160 -190q-20 0 -12 17l71 172l-189 474q-6 17 12 17h110q14 0 18 -12l117 -318l116 318q4 12 18 12h110
q18 0 12 -17l-259 -651q-4 -12 -18 -12h-106z" />
    <glyph glyph-name="uni0490" unicode="&#x490;" horiz-adv-x="503" 
d="M469 736v-141h-3v-7q0 -15 -15 -15h-239v-558q0 -15 -15 -15h-113q-15 0 -15 15v670q0 15 15 15h259v36q0 15 15 15h96q15 0 15 -15z" />
    <glyph glyph-name="uni0491" unicode="&#x491;" horiz-adv-x="441" 
d="M391 552q15 0 15 -15v-144q0 -15 -15 -15h-194v-363q0 -15 -15 -15h-108q-15 0 -15 15v460q0 15 15 15h194v47q0 15 15 15h108z" />
    <glyph glyph-name="Wgrave" unicode="&#x1e80;" horiz-adv-x="1081" 
d="M585 767h-96q-10 0 -17 12l-60 114q-9 17 12 17h97q10 0 17 -12l59 -114q9 -17 -12 -17zM254 0q-16 0 -19 12l-200 671q-5 17 12 17h117q16 0 17 -12l138 -494l150 494q4 12 17 12h109q13 0 17 -12l150 -494l138 494q3 12 17 12h117q17 0 12 -17l-200 -671
q-3 -12 -19 -12h-119q-16 0 -19 12l-148 508l-149 -508q-3 -12 -19 -12h-119z" />
    <glyph glyph-name="wgrave" unicode="&#x1e81;" horiz-adv-x="881" 
d="M486 557h-96q-10 0 -17 12l-60 114q-9 17 12 17h96q10 0 18 -12l59 -114q9 -17 -12 -17zM202 0q-14 0 -18 12l-154 461q-6 17 12 17h105q13 0 18 -12l98 -318l107 318q4 12 18 12h105q13 0 18 -12l106 -318l98 318q5 12 19 12h104q18 0 12 -17l-153 -461q-5 -12 -18 -12
h-111q-14 0 -18 12l-110 318l-109 -318q-5 -12 -18 -12h-111z" />
    <glyph glyph-name="Wacute" unicode="&#x1e82;" horiz-adv-x="1081" 
d="M496 767q-21 0 -12 17l59 114q7 12 17 12h97q21 0 12 -17l-60 -114q-7 -12 -17 -12h-96zM254 0q-16 0 -19 12l-200 671q-5 17 12 17h117q16 0 17 -12l138 -494l150 494q4 12 17 12h109q13 0 17 -12l150 -494l138 494q3 12 17 12h117q17 0 12 -17l-200 -671
q-3 -12 -19 -12h-119q-16 0 -19 12l-148 508l-149 -508q-3 -12 -19 -12h-119z" />
    <glyph glyph-name="wacute" unicode="&#x1e83;" horiz-adv-x="881" 
d="M396 557q-21 0 -12 17l59 114q7 12 17 12h97q21 0 12 -17l-60 -114q-7 -12 -17 -12h-96zM202 0q-14 0 -18 12l-154 461q-6 17 12 17h105q13 0 18 -12l98 -318l107 318q4 12 18 12h105q13 0 18 -12l106 -318l98 318q5 12 19 12h104q18 0 12 -17l-153 -461q-5 -12 -18 -12
h-111q-14 0 -18 12l-110 318l-109 -318q-5 -12 -18 -12h-111z" />
    <glyph glyph-name="Wdieresis" unicode="&#x1e84;" horiz-adv-x="1081" 
d="M430 776q-28 0 -48.5 20t-20.5 50q0 29 20.5 49t48.5 20q29 0 49 -20t20 -49q0 -30 -20 -50t-49 -20zM650 776q-29 0 -49 20t-20 50q0 29 20 49t49 20t49 -20t20 -49q0 -30 -20 -50t-49 -20zM254 0q-16 0 -19 12l-200 671q-5 17 12 17h117q16 0 17 -12l138 -494l150 494
q4 12 17 12h109q13 0 17 -12l150 -494l138 494q3 12 17 12h117q17 0 12 -17l-200 -671q-3 -12 -19 -12h-119q-16 0 -19 12l-148 508l-149 -508q-3 -12 -19 -12h-119z" />
    <glyph glyph-name="wdieresis" unicode="&#x1e85;" horiz-adv-x="881" 
d="M330 566q-28 0 -48.5 20t-20.5 50q0 29 20.5 49t48.5 20q29 0 49 -20t20 -49q0 -30 -20 -50t-49 -20zM550 566q-29 0 -49 20t-20 50q0 29 20 49t49 20t49 -20t20 -49q0 -30 -20 -50t-49 -20zM202 0q-14 0 -18 12l-154 461q-6 17 12 17h105q13 0 18 -12l98 -318l107 318
q4 12 18 12h105q13 0 18 -12l106 -318l98 318q5 12 19 12h104q18 0 12 -17l-153 -461q-5 -12 -18 -12h-111q-14 0 -18 12l-110 318l-109 -318q-5 -12 -18 -12h-111z" />
    <glyph glyph-name="uni1E9E" unicode="&#x1e9e;" horiz-adv-x="672" 
d="M443 -12q-115 0 -185 84q-10 13 1 29l40 53q11 15 24 4q66 -49 110 -49q28 0 45 14.5t17 40.5q0 20 -12 33.5t-41 28.5l-63 37q-53 30 -79 64t-26 86q0 56 34.5 94.5t88.5 52.5q-32 22 -72 22q-52 0 -82.5 -27.5t-30.5 -82.5v-457q0 -15 -15 -15h-113q-15 0 -15 15v478
q0 102 69 154.5t177 52.5q131 0 201 -70v-170h-45q-29 0 -45.5 -13.5t-16.5 -33.5t11 -31.5t35 -23.5l69 -38q114 -62 114 -164q0 -78 -56.5 -123t-138.5 -45z" />
    <glyph glyph-name="Ygrave" unicode="&#x1ef2;" horiz-adv-x="627" 
d="M359 767h-96q-10 0 -17 12l-60 114q-9 17 12 17h97q10 0 17 -12l59 -114q9 -17 -12 -17zM257 0q-15 0 -15 15v310l-205 357q-10 18 10 18h118q12 0 18 -10l131 -235l130 235q6 10 18 10h118q20 0 10 -18l-205 -359v-308q0 -15 -15 -15h-113z" />
    <glyph glyph-name="ygrave" unicode="&#x1ef3;" horiz-adv-x="573" 
d="M331 557h-96q-10 0 -17 12l-60 114q-9 17 12 17h97q10 0 17 -12l59 -114q9 -17 -12 -17zM160 -190q-20 0 -12 17l71 172l-189 474q-6 17 12 17h110q14 0 18 -12l117 -318l116 318q4 12 18 12h110q18 0 12 -17l-259 -651q-4 -12 -18 -12h-106z" />
    <glyph glyph-name="endash" unicode="&#x2013;" horiz-adv-x="610" 
d="M65 221q-15 0 -15 15v82q0 15 15 15h480q15 0 15 -15v-82q0 -15 -15 -15h-480z" />
    <glyph glyph-name="emdash" unicode="&#x2014;" horiz-adv-x="670" 
d="M65 221q-15 0 -15 15v82q0 15 15 15h540q15 0 15 -15v-82q0 -15 -15 -15h-540z" />
    <glyph glyph-name="quoteleft" unicode="&#x2018;" horiz-adv-x="237" 
d="M205 715v-32q-49 1 -79 -41q-21 -29 -10 -41q3 -3 9 -3q34 0 58 -24.5t24 -58.5t-24.5 -58t-59.5 -24q-38 0 -65.5 29t-27.5 83q0 79 56.5 126t118.5 44z" />
    <glyph glyph-name="quoteright" unicode="&#x2019;" horiz-adv-x="237" 
d="M32 436v32q49 -1 79 41q21 29 10 41q-3 3 -9 3q-34 0 -58 24.5t-24 58.5t24.5 58t59.5 24q38 0 65.5 -29t27.5 -83q0 -79 -56.5 -126t-118.5 -44z" />
    <glyph glyph-name="quotesinglbase" unicode="&#x201a;" horiz-adv-x="257" 
d="M42 -129v32q49 -1 79 41q21 29 10 41q-3 3 -9 3q-34 0 -58 24.5t-24 58.5t24.5 58t59.5 24q38 0 65.5 -29t27.5 -83q0 -79 -56.5 -126t-118.5 -44z" />
    <glyph glyph-name="quotedblleft" unicode="&#x201c;" horiz-adv-x="450" 
d="M205 715v-32q-49 1 -79 -41q-21 -29 -10 -41q3 -3 9 -3q34 0 58 -24.5t24 -58.5t-24.5 -58t-59.5 -24q-38 0 -65.5 29t-27.5 83q0 79 56.5 126t118.5 44zM418 715v-32q-49 1 -79 -41q-21 -29 -10 -41q3 -3 9 -3q33 0 57.5 -24.5t24.5 -58.5t-24.5 -58t-59.5 -24
q-38 0 -65.5 29t-27.5 83q0 79 56.5 126t118.5 44z" />
    <glyph glyph-name="quotedblright" unicode="&#x201d;" horiz-adv-x="450" 
d="M32 436v32q49 -1 79 41q21 29 10 41q-3 3 -9 3q-34 0 -58 24.5t-24 58.5t24.5 58t59.5 24q38 0 65.5 -29t27.5 -83q0 -79 -56.5 -126t-118.5 -44zM245 436v32q49 -1 79 41q21 29 10 41q-3 3 -9 3q-34 0 -58.5 24.5t-24.5 58.5t25 58t60 24q38 0 65.5 -29t27.5 -83
q0 -79 -56.5 -126t-118.5 -44z" />
    <glyph glyph-name="quotedblbase" unicode="&#x201e;" horiz-adv-x="470" 
d="M42 -129v32q49 -1 79 41q21 29 10 41q-3 3 -9 3q-34 0 -58 24.5t-24 58.5t24.5 58t59.5 24q38 0 65.5 -29t27.5 -83q0 -79 -56.5 -126t-118.5 -44zM255 -129v32q49 -1 79 41q21 29 10 41q-3 3 -9 3q-34 0 -58.5 24.5t-24.5 58.5t25 58t60 24q38 0 65.5 -29t27.5 -83
q0 -79 -56.5 -126t-118.5 -44z" />
    <glyph glyph-name="dagger" unicode="&#x2020;" horiz-adv-x="484" 
d="M206 346q-15 0 -15 15v111h-111q-15 0 -15 15v72q0 15 15 15h111v111q0 15 15 15h72q15 0 15 -15v-111h111q15 0 15 -15v-72q0 -15 -15 -15h-111v-111q0 -15 -15 -15h-72z" />
    <glyph glyph-name="daggerdbl" unicode="&#x2021;" horiz-adv-x="484" 
d="M206 346q-15 0 -15 15v111h-111q-15 0 -15 15v72q0 15 15 15h111v111q0 15 15 15h72q15 0 15 -15v-111h111q15 0 15 -15v-72q0 -15 -15 -15h-111v-111q0 -15 -15 -15h-72zM206 -70q-15 0 -15 15v111h-111q-15 0 -15 15v72q0 15 15 15h111v111q0 15 15 15h72q15 0 15 -15
v-111h111q15 0 15 -15v-72q0 -15 -15 -15h-111v-111q0 -15 -15 -15h-72z" />
    <glyph glyph-name="bullet" unicode="&#x2022;" horiz-adv-x="333" 
d="M167 173q-42 0 -72 30t-30 72t30 72t72 30q41 0 71 -30t30 -72t-30 -72t-71 -30z" />
    <glyph glyph-name="ellipsis" unicode="&#x2026;" horiz-adv-x="701" 
d="M122 -13q-34 0 -58 24t-24 58q0 35 24 59.5t58 24.5t58.5 -24.5t24.5 -59.5q0 -34 -24.5 -58t-58.5 -24zM351 -13q-34 0 -58.5 24t-24.5 58q0 35 24.5 59.5t58.5 24.5t58 -24.5t24 -59.5q0 -34 -24 -58t-58 -24zM579 -13q-34 0 -58 24t-24 58q0 35 24 59.5t58 24.5
t58 -24.5t24 -59.5q0 -34 -24 -58t-58 -24z" />
    <glyph glyph-name="perthousand" unicode="&#x2030;" horiz-adv-x="1051" 
d="M187 433q-58 0 -97.5 39t-39.5 97t39.5 97t97.5 39t97.5 -39t39.5 -97t-39.5 -97t-97.5 -39zM174 8l-52 35q-13 9 -5 21l417 624q8 13 20 4l52 -35q13 -9 5 -21l-417 -624q-8 -13 -20 -4zM187 522q20 0 33 13.5t13 33.5t-13 33.5t-33 13.5t-33 -13.5t-13 -33.5t13 -33.5
t33 -13.5zM541 -5q-58 0 -97.5 39t-39.5 97t39.5 97t97.5 39t97.5 -39t39.5 -97t-39.5 -97t-97.5 -39zM864 -5q-58 0 -97.5 39t-39.5 97t39.5 97t97.5 39t97.5 -39t39.5 -97t-39.5 -97t-97.5 -39zM541 84q20 0 33 13.5t13 33.5t-13 33.5t-33 13.5t-33 -13.5t-13 -33.5
t13 -33.5t33 -13.5zM864 84q20 0 33 13.5t13 33.5t-13 33.5t-33 13.5t-33.5 -13.5t-13.5 -33.5t13.5 -33.5t33.5 -13.5z" />
    <glyph glyph-name="guilsinglleft" unicode="&#x2039;" horiz-adv-x="246" 
d="M183 121l-130 93q-8 7 -8 17v84q0 10 8 17l130 93q6 5 12 3.5t6 -10.5v-73q0 -13 -8 -18l-84 -54l84 -55q8 -5 8 -18v-72q0 -9 -6 -10.5t-12 3.5z" />
    <glyph glyph-name="guilsinglright" unicode="&#x203a;" horiz-adv-x="246" 
d="M63 121q-6 -5 -12 -3.5t-6 10.5v72q0 13 8 18l84 55l-84 54q-8 5 -8 18v73q0 9 6 10.5t12 -3.5l130 -93q8 -7 8 -17v-84q0 -10 -8 -17z" />
    <glyph glyph-name="fraction" unicode="&#x2044;" horiz-adv-x="203" 
d="M-140 0l401 700h82l-402 -700h-81z" />
    <glyph glyph-name="Euro" unicode="&#x20ac;" horiz-adv-x="739" 
d="M620 184l70 -75q10 -10 0 -20q-100 -102 -245 -102q-124 0 -219.5 72t-127.5 187h-43q-15 0 -15 15v49q0 15 15 15h30q-1 7 -1 22v15h-29q-15 0 -15 15v49q0 15 15 15h41q30 118 126.5 192.5t222.5 74.5q144 0 245 -101q10 -10 0 -21l-70 -75q-9 -11 -21 -1
q-70 58 -154 58q-67 0 -119.5 -34.5t-77.5 -92.5h141q15 0 15 -15v-49q0 -15 -15 -15h-160v-15q0 -15 1 -22h159q15 0 15 -15v-49q0 -15 -15 -15h-138q27 -55 78.5 -87t115.5 -32q84 0 154 58q12 10 21 -1z" />
    <glyph glyph-name="trademark" unicode="&#x2122;" horiz-adv-x="550" 
d="M133 520q-5 0 -5 5v135h-58q-5 0 -5 5v30q0 5 5 5h163q5 0 5 -5v-30q0 -5 -5 -5h-58v-135q0 -5 -5 -5h-37zM275 520q-5 0 -5 5v170q0 5 5 5h42q5 0 6 -3l54 -118l56 118q1 3 6 3h41q5 0 5 -5v-170q0 -5 -5 -5h-37q-5 0 -5 5v96l-42 -98q-2 -3 -6 -3h-25q-5 0 -6 3l-41 98
v-96q0 -5 -5 -5h-38z" />
    <glyph glyph-name="oneeighth" unicode="&#x215b;" horiz-adv-x="821" 
d="M71 323v304h-41v73h116v-377h-75zM126 0l401 700h82l-402 -700h-81zM646 -4q-57 0 -97 29.5t-40 82.5q0 71 67 99q-48 24 -48 76q0 41 30.5 69.5t87.5 28.5t86.5 -28.5t29.5 -69.5q0 -53 -47 -76q66 -28 66 -99q0 -53 -40 -82.5t-95 -29.5zM646 238q20 0 32.5 13t12.5 30
q0 16 -12 28t-33 12q-22 0 -33.5 -12t-11.5 -28q0 -18 12 -30.5t33 -12.5zM646 60q26 0 42.5 15t16.5 40q0 24 -16.5 40t-42.5 16q-27 0 -44 -16t-17 -40q0 -25 17 -40t44 -15z" />
    <glyph glyph-name="threeeighths" unicode="&#x215c;" horiz-adv-x="903" 
d="M181 325q-72 0 -106.5 34.5t-34.5 96.5h75q0 -65 68 -65q30 0 49 14t19 39q0 28 -23 38.5t-73 10.5v57q46 0 63.5 13t17.5 38q0 19 -15 31t-43 12q-59 0 -59 -61h-75q-1 62 35 94.5t101 32.5q60 0 96.5 -27.5t36.5 -72.5q0 -55 -55 -78q70 -25 70 -92q0 -54 -40 -84.5
t-107 -30.5zM208 0l401 700h82l-402 -700h-81zM728 -4q-57 0 -97 29.5t-40 82.5q0 71 67 99q-48 24 -48 76q0 41 30.5 69.5t87.5 28.5t86.5 -28.5t29.5 -69.5q0 -53 -47 -76q66 -28 66 -99q0 -53 -40 -82.5t-95 -29.5zM728 238q20 0 32.5 13t12.5 30q0 16 -12 28t-33 12
q-22 0 -33.5 -12t-11.5 -28q0 -18 12 -30.5t33 -12.5zM728 60q26 0 42.5 15t16.5 40q0 24 -16.5 40t-42.5 16q-27 0 -44 -16t-17 -40q0 -25 17 -40t44 -15z" />
    <glyph glyph-name="fiveeighths" unicode="&#x215d;" horiz-adv-x="918" 
d="M175 317q-54 0 -90 26.5t-45 62.5l66 30q6 -23 24.5 -38t44.5 -15q31 0 50 18t19 47q0 30 -19 48.5t-51 18.5q-41 0 -59 -34l-65 17l26 202h214v-73h-156l-6 -61q22 15 58 15q59 0 98 -36.5t39 -94.5q0 -60 -42 -96.5t-106 -36.5zM223 0l401 700h82l-402 -700h-81z
M743 -4q-57 0 -97 29.5t-40 82.5q0 71 67 99q-48 24 -48 76q0 41 30.5 69.5t87.5 28.5t86.5 -28.5t29.5 -69.5q0 -53 -47 -76q66 -28 66 -99q0 -53 -40 -82.5t-95 -29.5zM743 238q20 0 32.5 13t12.5 30q0 16 -12 28t-33 12q-22 0 -33.5 -12t-11.5 -28q0 -18 12 -30.5
t33 -12.5zM743 60q26 0 42.5 15t16.5 40q0 24 -16.5 40t-42.5 16q-27 0 -44 -16t-17 -40q0 -25 17 -40t44 -15z" />
    <glyph glyph-name="seveneighths" unicode="&#x215e;" horiz-adv-x="891" 
d="M64 323l129 304h-153v73h261l-154 -377h-83zM196 0l401 700h82l-402 -700h-81zM716 -4q-57 0 -97 29.5t-40 82.5q0 71 67 99q-48 24 -48 76q0 41 30.5 69.5t87.5 28.5t86.5 -28.5t29.5 -69.5q0 -53 -47 -76q66 -28 66 -99q0 -53 -40 -82.5t-95 -29.5zM716 238
q20 0 32.5 13t12.5 30q0 16 -12 28t-33 12q-22 0 -33.5 -12t-11.5 -28q0 -18 12 -30.5t33 -12.5zM716 60q26 0 42.5 15t16.5 40q0 24 -16.5 40t-42.5 16q-27 0 -44 -16t-17 -40q0 -25 17 -40t44 -15z" />
    <glyph glyph-name="partialdiff" unicode="&#x2202;" horiz-adv-x="564" 
d="M282 -13q-104 0 -176 69t-72 171q0 99 64.5 169t143.5 70q5 0 12 -0.5t9 -0.5l-141 165q-9 10 3 21l74 65q11 9 21 -3l224 -280q86 -107 86 -205q0 -102 -72 -171.5t-176 -69.5zM282 114q49 0 81.5 33.5t32.5 84.5q0 50 -32.5 84t-81.5 34t-81.5 -34t-32.5 -84
q0 -51 32 -84.5t82 -33.5z" />
    <glyph glyph-name="product" unicode="&#x220f;" horiz-adv-x="722" 
d="M70 -190q-15 0 -15 15v860q0 15 15 15h583q15 0 15 -15v-860q0 -15 -15 -15h-98q-15 0 -15 15v748h-358v-748q0 -15 -15 -15h-97z" />
    <glyph glyph-name="summation" unicode="&#x2211;" horiz-adv-x="682" 
d="M70 -190q-15 0 -15 15v103q0 11 6 18l269 309l-269 309q-6 7 -6 18v103q0 15 15 15h542q15 0 15 -15v-98q0 -15 -15 -15h-395l268 -306q9 -11 0 -22l-268 -306h395q15 0 15 -15v-98q0 -15 -15 -15h-542z" />
    <glyph glyph-name="minus" unicode="&#x2212;" horiz-adv-x="504" 
d="M80 234q-15 0 -15 15v72q0 15 15 15h344q15 0 15 -15v-72q0 -15 -15 -15h-344z" />
    <glyph glyph-name="radical" unicode="&#x221a;" horiz-adv-x="675" 
d="M271 -190q-14 0 -17 12l-105 383h-100q-15 0 -15 15v95q0 15 15 15h174q14 0 17 -13l91 -359l191 729q3 13 16 13h89q18 0 13 -17l-229 -860q-3 -13 -16 -13h-124z" />
    <glyph glyph-name="infinity" unicode="&#x221e;" horiz-adv-x="838" 
d="M229 93q-75 0 -127.5 47t-52.5 122q0 73 52.5 119.5t127.5 46.5q102 0 190 -95q88 95 191 95q74 0 126.5 -46.5t52.5 -119.5q0 -75 -52.5 -122t-126.5 -47q-103 0 -191 95q-88 -95 -190 -95zM237 183q67 0 124 78q-58 77 -124 77q-39 0 -62 -22t-23 -55t23 -55.5
t62 -22.5zM601 183q39 0 62 22.5t23 55.5t-23 55t-62 22q-66 0 -124 -77q57 -78 124 -78z" />
    <glyph glyph-name="integral" unicode="&#x222b;" horiz-adv-x="424" 
d="M114 -190q-45 0 -76 15q-9 5 -9 15v91q0 9 13 7q27 -5 41 -5q34 0 46.5 15.5t12.5 45.5v572q0 165 168 165q45 0 75 -15q9 -4 9 -15v-91q0 -9 -13 -7q-27 5 -40 5q-34 0 -47 -15.5t-13 -45.5v-572q0 -165 -167 -165z" />
    <glyph glyph-name="approxequal" unicode="&#x2248;" horiz-adv-x="525" 
d="M351 272q-30 0 -58 12t-45.5 26.5t-39 26.5t-40.5 12q-39 0 -51 -31q-5 -9 -12 -9h-34q-11 0 -11 11q0 55 32.5 85t82.5 30q38 0 71 -19.5t60.5 -38.5t51.5 -19q18 0 32 9t19 21q5 9 12 9h33q11 0 11 -10q1 -56 -31.5 -85.5t-82.5 -29.5zM351 112q-30 0 -58 12
t-45.5 26.5t-39 26.5t-40.5 12q-39 0 -51 -31q-5 -9 -12 -9h-34q-11 0 -11 11q0 55 32.5 85t82.5 30q38 0 71 -19.5t60.5 -38.5t51.5 -19q18 0 32 9t19 21q5 9 12 9h33q11 0 11 -10q1 -56 -31.5 -85.5t-82.5 -29.5z" />
    <glyph glyph-name="notequal" unicode="&#x2260;" horiz-adv-x="504" 
d="M424 315h-116l-22 -60h138q15 0 15 -15v-72q0 -15 -15 -15h-176l-52 -141q-4 -12 -18 -12h-52q-18 0 -12 17l50 136h-84q-15 0 -15 15v72q0 15 15 15h122l22 60h-144q-15 0 -15 15v72q0 15 15 15h181l49 132q4 12 18 12h52q18 0 12 -17l-47 -127h79q15 0 15 -15v-72
q0 -15 -15 -15z" />
    <glyph glyph-name="lessequal" unicode="&#x2264;" horiz-adv-x="481" 
d="M405 172l-335 163q-10 7 -10 15v65q0 9 10 16l335 162q16 9 16 -8v-82q0 -10 -10 -13l-237 -107l237 -107q10 -5 10 -14v-82q0 -15 -16 -8zM75 0q-15 0 -15 15v56q0 15 15 15h331q15 0 15 -15v-56q0 -15 -15 -15h-331z" />
    <glyph glyph-name="greaterequal" unicode="&#x2265;" horiz-adv-x="492" 
d="M82 172q-7 -3 -12 -1t-5 9v82q0 9 10 14l237 107l-237 107q-10 3 -10 13v82q0 17 17 8l334 -162q10 -6 10 -16v-65q0 -9 -10 -15zM412 0h-332q-15 0 -15 15v56q0 15 15 15h332q15 0 15 -15v-56q0 -15 -15 -15z" />
    <glyph glyph-name="lozenge" unicode="&#x25ca;" horiz-adv-x="606" 
d="M227 0q-13 0 -17 11l-146 329q-4 10 0 20l146 329q4 11 17 11h152q13 0 17 -11l146 -329q4 -10 0 -20l-146 -329q-4 -11 -17 -11h-152zM303 83l118 267l-118 267l-118 -267z" />
    <glyph glyph-name="uni2713" unicode="&#x2713;" horiz-adv-x="805" 
d="M275 91l-242 242q-11 11 0 21l81 81q10 11 21 0l151 -152l384 383q10 10 21 0l80 -80q11 -10 0 -21l-475 -474q-10 -11 -21 0z" />
    <glyph glyph-name="uniFEFF" unicode="&#xfeff;" horiz-adv-x="195" 
 />
    <glyph glyph-name="i.loclTRK" horiz-adv-x="249" 
d="M125 577q-32 0 -54 22.5t-22 54.5t22 54t54 22q33 0 55 -22t22 -54t-22 -54.5t-55 -22.5zM70 0q-15 0 -15 15v460q0 15 15 15h109q15 0 15 -15v-460q0 -15 -15 -15h-109z" />
    <glyph glyph-name="a.ss01" horiz-adv-x="555" 
d="M183 -13q-71 0 -112.5 38.5t-41.5 107.5q0 68 41.5 103t126.5 44l145 16v30q0 35 -19.5 51t-62.5 16q-78 0 -82 -54q-2 -10 -14 -10h-96q-16 0 -15 15q5 158 212 158q112 0 164 -44t52 -141v-173q0 -32 17 -41q13 -7 13 -19v-70q0 -7 -3 -11t-11.5 -6t-13.5 -2h-21
q-89 0 -113 65q-65 -73 -166 -73zM231 97q68 0 111 47v62l-127 -16q-49 -7 -49 -45q0 -48 65 -48z" />
    <glyph glyph-name="aacute.ss01" horiz-adv-x="555" 
d="M227 557q-21 0 -12 17l59 114q7 12 17 12h97q21 0 12 -17l-60 -114q-7 -12 -17 -12h-96zM183 -13q-71 0 -112.5 38.5t-41.5 107.5q0 68 41.5 103t126.5 44l145 16v30q0 35 -19.5 51t-62.5 16q-78 0 -82 -54q-2 -10 -14 -10h-96q-16 0 -15 15q5 158 212 158q112 0 164 -44
t52 -141v-173q0 -32 17 -41q13 -7 13 -19v-70q0 -7 -3 -11t-11.5 -6t-13.5 -2h-21q-89 0 -113 65q-65 -73 -166 -73zM231 97q68 0 111 47v62l-127 -16q-49 -7 -49 -45q0 -48 65 -48z" />
    <glyph glyph-name="abreve.ss01" horiz-adv-x="555" 
d="M271 556q-68 0 -109.5 37t-47.5 92q-2 15 14 15h54q13 0 16 -14q5 -21 24 -36t49 -15t48.5 15t24.5 36q3 14 16 14h54q16 0 14 -15q-6 -55 -47.5 -92t-109.5 -37zM183 -13q-71 0 -112.5 38.5t-41.5 107.5q0 68 41.5 103t126.5 44l145 16v30q0 35 -19.5 51t-62.5 16
q-78 0 -82 -54q-2 -10 -14 -10h-96q-16 0 -15 15q5 158 212 158q112 0 164 -44t52 -141v-173q0 -32 17 -41q13 -7 13 -19v-70q0 -7 -3 -11t-11.5 -6t-13.5 -2h-21q-89 0 -113 65q-65 -73 -166 -73zM231 97q68 0 111 47v62l-127 -16q-49 -7 -49 -45q0 -48 65 -48z" />
    <glyph glyph-name="uni01CE.ss01" horiz-adv-x="555" 
d="M126 701h73q11 0 18 -8l54 -66l55 66q7 8 18 8h72q9 0 11 -6t-4 -12l-91 -109q-7 -8 -17 -8h-88q-10 0 -17 8l-91 109q-6 6 -4 12t11 6zM183 -13q-71 0 -112.5 38.5t-41.5 107.5q0 68 41.5 103t126.5 44l145 16v30q0 35 -19.5 51t-62.5 16q-78 0 -82 -54q-2 -10 -14 -10
h-96q-16 0 -15 15q5 158 212 158q112 0 164 -44t52 -141v-173q0 -32 17 -41q13 -7 13 -19v-70q0 -7 -3 -11t-11.5 -6t-13.5 -2h-21q-89 0 -113 65q-65 -73 -166 -73zM231 97q68 0 111 47v62l-127 -16q-49 -7 -49 -45q0 -48 65 -48z" />
    <glyph glyph-name="acircumflex.ss01" horiz-adv-x="555" 
d="M126 565q-9 0 -11 6t4 12l91 109q7 8 17 8h88q10 0 17 -8l91 -109q4 -4 4.5 -8t-2.5 -7t-9 -3h-72q-11 0 -18 8l-55 66l-54 -66q-7 -8 -18 -8h-73zM183 -13q-71 0 -112.5 38.5t-41.5 107.5q0 68 41.5 103t126.5 44l145 16v30q0 35 -19.5 51t-62.5 16q-78 0 -82 -54
q-2 -10 -14 -10h-96q-16 0 -15 15q5 158 212 158q112 0 164 -44t52 -141v-173q0 -32 17 -41q13 -7 13 -19v-70q0 -7 -3 -11t-11.5 -6t-13.5 -2h-21q-89 0 -113 65q-65 -73 -166 -73zM231 97q68 0 111 47v62l-127 -16q-49 -7 -49 -45q0 -48 65 -48z" />
    <glyph glyph-name="adieresis.ss01" horiz-adv-x="555" 
d="M161 566q-28 0 -48.5 20t-20.5 50q0 29 20.5 49t48.5 20q29 0 49 -20t20 -49q0 -30 -20 -50t-49 -20zM381 566q-29 0 -49 20t-20 50q0 29 20 49t49 20t49 -20t20 -49q0 -30 -20 -50t-49 -20zM183 -13q-71 0 -112.5 38.5t-41.5 107.5q0 68 41.5 103t126.5 44l145 16v30
q0 35 -19.5 51t-62.5 16q-78 0 -82 -54q-2 -10 -14 -10h-96q-16 0 -15 15q5 158 212 158q112 0 164 -44t52 -141v-173q0 -32 17 -41q13 -7 13 -19v-70q0 -7 -3 -11t-11.5 -6t-13.5 -2h-21q-89 0 -113 65q-65 -73 -166 -73zM231 97q68 0 111 47v62l-127 -16q-49 -7 -49 -45
q0 -48 65 -48z" />
    <glyph glyph-name="agrave.ss01" horiz-adv-x="555" 
d="M317 557h-96q-10 0 -17 12l-60 114q-9 17 12 17h97q10 0 17 -12l59 -114q9 -17 -12 -17zM183 -13q-71 0 -112.5 38.5t-41.5 107.5q0 68 41.5 103t126.5 44l145 16v30q0 35 -19.5 51t-62.5 16q-78 0 -82 -54q-2 -10 -14 -10h-96q-16 0 -15 15q5 158 212 158q112 0 164 -44
t52 -141v-173q0 -32 17 -41q13 -7 13 -19v-70q0 -7 -3 -11t-11.5 -6t-13.5 -2h-21q-89 0 -113 65q-65 -73 -166 -73zM231 97q68 0 111 47v62l-127 -16q-49 -7 -49 -45q0 -48 65 -48z" />
    <glyph glyph-name="amacron.ss01" horiz-adv-x="555" 
d="M119 593q-15 0 -15 15v77q0 15 15 15h303q16 0 16 -15v-77q0 -15 -16 -15h-303zM183 -13q-71 0 -112.5 38.5t-41.5 107.5q0 68 41.5 103t126.5 44l145 16v30q0 35 -19.5 51t-62.5 16q-78 0 -82 -54q-2 -10 -14 -10h-96q-16 0 -15 15q5 158 212 158q112 0 164 -44t52 -141
v-173q0 -32 17 -41q13 -7 13 -19v-70q0 -7 -3 -11t-11.5 -6t-13.5 -2h-21q-89 0 -113 65q-65 -73 -166 -73zM231 97q68 0 111 47v62l-127 -16q-49 -7 -49 -45q0 -48 65 -48z" />
    <glyph glyph-name="aogonek.ss01" horiz-adv-x="555" 
d="M498 103q13 -7 13 -19v-70q0 -19 -36 -19q-33 0 -54.5 -19.5t-21.5 -46.5q0 -22 16 -35t49 -6v-86q-22 -10 -52 -10t-58 9.5t-47.5 34t-19.5 60.5q0 80 89 125q-18 15 -27 39q-65 -73 -166 -73q-71 0 -112.5 38.5t-41.5 107.5q0 68 41.5 103t126.5 44l145 16v30
q0 35 -19.5 51t-62.5 16q-78 0 -82 -54q-2 -10 -14 -10h-96q-16 0 -15 15q5 158 212 158q112 0 164 -44t52 -141v-173q0 -32 17 -41zM342 144v62l-127 -16q-49 -7 -49 -45q0 -48 65 -48q68 0 111 47z" />
    <glyph glyph-name="aring.ss01" horiz-adv-x="555" 
d="M271 539q-46 0 -74.5 28.5t-28.5 71.5q0 42 29 72t74 30t74 -30t29 -72q0 -43 -28.5 -71.5t-74.5 -28.5zM271 616q10 0 17 7t7 17t-7 17t-17 7t-17 -7t-7 -17t7 -17t17 -7zM183 -13q-71 0 -112.5 38.5t-41.5 107.5q0 68 41.5 103t126.5 44l145 16v30q0 35 -19.5 51
t-62.5 16q-78 0 -82 -54q-2 -10 -14 -10h-96q-16 0 -15 15q5 158 212 158q112 0 164 -44t52 -141v-173q0 -32 17 -41q13 -7 13 -19v-70q0 -7 -3 -11t-11.5 -6t-13.5 -2h-21q-89 0 -113 65q-65 -73 -166 -73zM231 97q68 0 111 47v62l-127 -16q-49 -7 -49 -45q0 -48 65 -48z
" />
    <glyph glyph-name="atilde.ss01" horiz-adv-x="555" 
d="M349 573q-27 0 -51.5 11t-40 24.5t-35 24.5t-37.5 11q-34 0 -46 -28q-3 -8 -11 -8h-31q-10 0 -10 13q4 50 33 75.5t74 25.5q43 0 91.5 -35t72.5 -35q34 0 46 28q3 8 11 8h31q10 0 10 -10q-3 -51 -32.5 -78t-74.5 -27zM183 -13q-71 0 -112.5 38.5t-41.5 107.5
q0 68 41.5 103t126.5 44l145 16v30q0 35 -19.5 51t-62.5 16q-78 0 -82 -54q-2 -10 -14 -10h-96q-16 0 -15 15q5 158 212 158q112 0 164 -44t52 -141v-173q0 -32 17 -41q13 -7 13 -19v-70q0 -7 -3 -11t-11.5 -6t-13.5 -2h-21q-89 0 -113 65q-65 -73 -166 -73zM231 97
q68 0 111 47v62l-127 -16q-49 -7 -49 -45q0 -48 65 -48z" />
    <glyph glyph-name="t.ss02" horiz-adv-x="387" 
d="M139 0q-15 0 -15 15v363h-80q-15 0 -15 15v82q0 15 15 15h80v135q0 15 15 15h108q15 0 15 -15v-135h80q15 0 15 -15v-82q0 -15 -15 -15h-80v-363q0 -15 -15 -15h-108z" />
    <glyph glyph-name="zero.tf" horiz-adv-x="730" 
d="M368 -13q-119 0 -200 91.5t-81 268.5q0 91 23 162t63 113.5t89.5 64t105.5 21.5q120 0 200.5 -91.5t80.5 -269.5t-80.5 -269t-200.5 -91zM368 115q74 0 110.5 63t36.5 169t-36.5 169.5t-110.5 63.5t-110.5 -63.5t-36.5 -169.5t36.5 -169t110.5 -63z" />
    <glyph glyph-name="one.tf" horiz-adv-x="730" 
d="M387 0q-15 0 -15 15v568h-115q-15 0 -15 15v87q0 15 15 15h238q15 0 15 -15v-670q0 -15 -15 -15h-108z" />
    <glyph glyph-name="two.tf" horiz-adv-x="730" 
d="M171 0q-15 0 -15 15v86q0 11 7 19l210 220q1 1 10 10.5t11 11.5t10.5 11.5t11 14t9.5 14t10 15.5t8 15.5t7 17t3.5 17.5t1.5 19q0 42 -28.5 68.5t-74.5 26.5q-65 0 -115 -68q-10 -12 -22 0l-62 61q-10 10 -2 22q77 112 212 112q100 0 163 -59.5t63 -150.5
q0 -43 -17 -83.5t-33 -61.5t-37 -44l-6 -6l-175 -186h253q15 0 15 -15v-87q0 -15 -15 -15h-403z" />
    <glyph glyph-name="three.tf" horiz-adv-x="730" 
d="M341 -13q-71 0 -125.5 29.5t-85.5 76.5q-7 13 3 22l67 60q10 10 21 -2q48 -59 112 -59q48 0 76 28t28 69q0 39 -27.5 67.5t-78.5 28.5h-26q-16 0 -16 16v81q0 15 16 15h25q43 0 65 24t22 57q0 36 -24.5 58.5t-62.5 22.5q-62 0 -95 -56q-8 -14 -22 -2l-63 61q-11 9 -3 21
q29 46 80.5 74.5t116.5 28.5q87 0 147 -50.5t60 -133.5q0 -56 -27.5 -94.5t-69.5 -57.5q53 -21 88 -65.5t35 -111.5q0 -92 -67.5 -150t-168.5 -58z" />
    <glyph glyph-name="four.tf" horiz-adv-x="730" 
d="M421 0q-15 0 -15 15v120h-281q-15 0 -15 15v89q0 10 5 19l285 432q6 10 18 10h111q15 0 15 -15v-436h61q15 0 15 -15v-84q0 -15 -15 -15h-61v-120q0 -15 -15 -15h-108zM244 249h162v246z" />
    <glyph glyph-name="five.tf" horiz-adv-x="730" 
d="M338 -13q-74 0 -128 31.5t-80 74.5q-7 14 6 24l72 54q13 10 24 -4q39 -53 104 -53q54 0 87.5 34.5t33.5 84.5q0 51 -33.5 84t-85.5 33q-53 0 -89 -38q-11 -12 -25 -7l-75 30q-13 6 -10 18l75 334q3 13 16 13h300q16 0 16 -15v-87q0 -15 -16 -15h-213l-31 -133
q48 16 85 16q95 0 157 -67.5t62 -168.5q0 -109 -72.5 -176t-179.5 -67z" />
    <glyph glyph-name="six.tf" horiz-adv-x="730" 
d="M365 -13q-104 0 -176 69.5t-72 171.5q0 96 86 205l225 280q10 12 21 3l73 -65q13 -10 4 -21l-141 -165q1 0 8 0.5t13 0.5q79 0 143 -70t64 -169q0 -102 -71.5 -171t-176.5 -69zM365 114q50 0 82 33.5t32 84.5q0 50 -32.5 84t-81.5 34t-81.5 -34t-32.5 -84
q0 -51 32.5 -84.5t81.5 -33.5z" />
    <glyph glyph-name="seven.tf" horiz-adv-x="730" 
d="M200 0q-18 0 -11 18l231 565h-275q-15 0 -15 15v87q0 15 15 15h431q8 0 11 -5.5t0 -13.5l-263 -666q-5 -15 -19 -15h-105z" />
    <glyph glyph-name="eight.tf" horiz-adv-x="730" 
d="M367 -13q-99 0 -171.5 60t-72.5 160q0 65 32.5 114.5t85.5 74.5q-72 52 -72 137q0 74 55 124.5t143 50.5q89 0 143.5 -50.5t54.5 -124.5q0 -85 -72 -137q53 -25 85.5 -74.5t32.5 -114.5q0 -99 -72.5 -159.5t-171.5 -60.5zM367 445q33 0 54.5 22.5t21.5 54.5
q0 33 -21.5 55t-54.5 22t-54.5 -22t-21.5 -55q0 -32 21.5 -54.5t54.5 -22.5zM367 113q46 0 76 27.5t30 73.5q0 48 -31.5 76.5t-74.5 28.5t-74.5 -28.5t-31.5 -76.5q0 -46 30 -73.5t76 -27.5z" />
    <glyph glyph-name="nine.tf" horiz-adv-x="730" 
d="M303 -21l-74 65q-12 11 -3 21l141 165q-1 0 -8.5 -0.5t-12.5 -0.5q-79 0 -143.5 70.5t-64.5 168.5q0 102 72 171t176 69q105 0 176.5 -69t71.5 -171q0 -98 -85 -206l-225 -280q-10 -12 -21 -3zM386 345q49 0 81.5 34t32.5 84q0 51 -32.5 84.5t-81.5 33.5q-50 0 -82 -33.5
t-32 -84.5q0 -50 32.5 -84t81.5 -34z" />
    <glyph glyph-name="zero.dnom" horiz-adv-x="399" 
d="M198 -2q-72 0 -115 50t-43 131v19q0 82 43 132.5t115 50.5q73 0 117 -50.5t44 -132.5v-19q0 -81 -44 -131t-117 -50zM198 65q39 0 61.5 31t22.5 83v19q0 51 -22.5 82.5t-61.5 31.5q-37 0 -59.5 -31.5t-22.5 -82.5v-19q0 -51 22.5 -82.5t59.5 -31.5z" />
    <glyph glyph-name="one.dnom" horiz-adv-x="206" 
d="M71 0v304h-41v73h116v-377h-75z" />
    <glyph glyph-name="two.dnom" horiz-adv-x="343" 
d="M43 0v71l98 88q7 6 21.5 19t19.5 17.5t15 14t13 14t7.5 12.5t6 14.5t1.5 14.5q0 22 -15.5 35.5t-40.5 13.5q-23 0 -38 -14t-15 -38v-20h-76v21q0 54 34 86t95 32q62 0 98 -31.5t36 -77.5q0 -29 -16 -56t-33 -43t-65 -58l-49 -44h158v-71h-255z" />
    <glyph glyph-name="three.dnom" horiz-adv-x="368" 
d="M181 -4q-72 0 -106.5 34.5t-34.5 96.5h75q0 -65 68 -65q30 0 49 14t19 39q0 28 -23 38.5t-73 10.5v57q46 0 63.5 13t17.5 38q0 19 -15 31t-43 12q-59 0 -59 -62h-75q-1 63 35 95.5t101 32.5q60 0 96.5 -27.5t36.5 -72.5q0 -55 -55 -78q70 -25 70 -92q0 -54 -40 -84.5
t-107 -30.5z" />
    <glyph glyph-name="four.dnom" horiz-adv-x="383" 
d="M229 0v78h-199l199 299h75v-226h39v-73h-39v-78h-75zM153 151h76v120z" />
    <glyph glyph-name="five.dnom" horiz-adv-x="363" 
d="M175 -4q-54 0 -90 26.5t-45 62.5l66 30q6 -23 24.5 -38t44.5 -15q31 0 50 18t19 47q0 30 -19 48.5t-51 18.5q-41 0 -59 -34l-65 17l26 202h214v-73h-156l-6 -61q22 15 58 15q59 0 98 -36.5t39 -94.5q0 -60 -42 -96.5t-106 -36.5z" />
    <glyph glyph-name="six.dnom" horiz-adv-x="345" 
d="M173 -4q-57 0 -95 35t-38 88q0 12 2 23.5t3.5 20t7 19.5t8.5 16.5t11.5 17t11 15.5t13.5 17t13 16l91 115h82l-108 -141q5 2 12 2q44 0 81 -35t37 -86q0 -53 -38 -88t-94 -35zM173 61q25 0 42 16.5t17 41.5q0 24 -17 40t-42 16q-26 0 -42.5 -15.5t-16.5 -40.5t17.5 -41.5
t41.5 -16.5z" />
    <glyph glyph-name="seven.dnom" horiz-adv-x="336" 
d="M64 0l129 304h-153v73h261l-154 -377h-83z" />
    <glyph glyph-name="eight.dnom" horiz-adv-x="352" 
d="M177 -4q-57 0 -97 29.5t-40 82.5q0 71 67 99q-48 24 -48 76q0 41 30.5 69.5t87.5 28.5t86.5 -28.5t29.5 -69.5q0 -53 -47 -76q66 -28 66 -99q0 -53 -40 -82.5t-95 -29.5zM177 238q20 0 32.5 13t12.5 30q0 16 -12 28t-33 12q-22 0 -33.5 -12t-11.5 -28q0 -18 12 -30.5
t33 -12.5zM177 60q26 0 42.5 15t16.5 40q0 24 -16.5 40t-42.5 16q-27 0 -44 -16t-17 -40q0 -25 17 -40t44 -15z" />
    <glyph glyph-name="nine.dnom" horiz-adv-x="345" 
d="M61 0l108 140q-5 -1 -10 -1q-45 0 -82 34.5t-37 86.5q0 53 37.5 88t93.5 35q57 0 95.5 -35t38.5 -88q0 -30 -12 -59t-22.5 -42.5t-36.5 -44.5l-91 -114h-82zM171 203q26 0 43.5 16.5t17.5 40.5q0 26 -17.5 42t-43.5 16q-24 0 -40.5 -16t-16.5 -42q0 -24 16.5 -40.5
t40.5 -16.5z" />
    <glyph glyph-name="zero.numr" horiz-adv-x="399" 
d="M198 327q-72 0 -115 50t-43 131v19q0 82 43 132.5t115 50.5q73 0 117 -50.5t44 -132.5v-19q0 -81 -44 -131t-117 -50zM198 394q39 0 61.5 31t22.5 83v19q0 51 -22.5 82.5t-61.5 31.5q-37 0 -59.5 -31.5t-22.5 -82.5v-19q0 -51 22.5 -82.5t59.5 -31.5z" />
    <glyph glyph-name="one.numr" horiz-adv-x="206" 
d="M71 323v304h-41v73h116v-377h-75z" />
    <glyph glyph-name="two.numr" horiz-adv-x="343" 
d="M43 329v71l98 88q7 6 21.5 19t19.5 17.5t15 14t13 14t7.5 12.5t6 14.5t1.5 14.5q0 22 -15.5 35.5t-40.5 13.5q-23 0 -38 -14t-15 -38v-20h-76v21q0 54 34 86t95 32q62 0 98 -31.5t36 -77.5q0 -29 -16 -56t-33 -43t-65 -58l-49 -44h158v-71h-255z" />
    <glyph glyph-name="three.numr" horiz-adv-x="368" 
d="M181 325q-72 0 -106.5 34.5t-34.5 96.5h75q0 -65 68 -65q30 0 49 14t19 39q0 28 -23 38.5t-73 10.5v57q46 0 63.5 13t17.5 38q0 19 -15 31t-43 12q-59 0 -59 -61h-75q-1 62 35 94.5t101 32.5q60 0 96.5 -27.5t36.5 -72.5q0 -55 -55 -78q70 -25 70 -92q0 -54 -40 -84.5
t-107 -30.5z" />
    <glyph glyph-name="four.numr" horiz-adv-x="383" 
d="M229 323v78h-199l199 299h75v-226h39v-73h-39v-78h-75zM153 474h76v120z" />
    <glyph glyph-name="five.numr" horiz-adv-x="363" 
d="M175 317q-54 0 -90 26.5t-45 62.5l66 30q6 -23 24.5 -38t44.5 -15q31 0 50 18t19 47q0 30 -19 48.5t-51 18.5q-41 0 -59 -34l-65 17l26 202h214v-73h-156l-6 -61q22 15 58 15q59 0 98 -36.5t39 -94.5q0 -60 -42 -96.5t-106 -36.5z" />
    <glyph glyph-name="six.numr" horiz-adv-x="345" 
d="M173 317q-57 0 -95 35t-38 88q0 12 2 23.5t3.5 20t7 19.5t8.5 16.5t11.5 17t11 15.5t13.5 17t13 16l91 115h82l-108 -141q5 2 12 2q44 0 81 -35t37 -86q0 -53 -38 -88t-94 -35zM173 382q25 0 42 16.5t17 41.5q0 24 -17 40t-42 16q-26 0 -42.5 -15.5t-16.5 -40.5
t17.5 -41.5t41.5 -16.5z" />
    <glyph glyph-name="seven.numr" horiz-adv-x="336" 
d="M64 323l129 304h-153v73h261l-154 -377h-83z" />
    <glyph glyph-name="eight.numr" horiz-adv-x="352" 
d="M177 325q-57 0 -97 29.5t-40 82.5q0 71 67 99q-48 24 -48 76q0 41 30.5 69.5t87.5 28.5t86.5 -28.5t29.5 -69.5q0 -52 -47 -76q66 -28 66 -99q0 -53 -40 -82.5t-95 -29.5zM177 567q20 0 32.5 13t12.5 30q0 16 -12 28t-33 12q-22 0 -33.5 -12t-11.5 -28q0 -18 12 -30.5
t33 -12.5zM177 389q26 0 42.5 15t16.5 40q0 24 -16.5 40t-42.5 16q-27 0 -44 -16t-17 -40q0 -25 17 -40t44 -15z" />
    <glyph glyph-name="nine.numr" horiz-adv-x="345" 
d="M61 327l108 140q-5 -1 -10 -1q-45 0 -82 34.5t-37 86.5q0 53 37.5 88t93.5 35q57 0 95.5 -35t38.5 -88q0 -30 -12 -59t-22.5 -42.5t-36.5 -44.5l-91 -114h-82zM171 530q26 0 43.5 16.5t17.5 40.5q0 26 -17.5 42t-43.5 16q-24 0 -40.5 -16t-16.5 -42q0 -24 16.5 -40.5
t40.5 -16.5z" />
    <glyph glyph-name="Aacutecy" horiz-adv-x="698" 
d="M305 768q-9 0 -13 4.5t0 12.5l60 114q7 12 17 12h96q21 0 12 -17l-60 -114q-7 -12 -17 -12h-95zM662 17q3 -7 -1 -12t-12 -5h-118q-13 0 -17 12l-34 103h-264l-34 -103q-4 -12 -17 -12h-118q-19 0 -12 17l234 671q5 12 19 12h121q15 0 19 -12zM257 242h182l-91 278z" />
    <glyph glyph-name="Ieacutecy" horiz-adv-x="516" 
d="M229 768q-21 0 -12 17l59 114q7 12 17 12h97q21 0 12 -17l-60 -114q-7 -12 -17 -12h-96zM84 0q-15 0 -15 15v670q0 15 15 15h356q15 0 15 -15v-97q0 -15 -15 -15h-228v-155h215q15 0 15 -15v-97q0 -15 -15 -15h-215v-164h228q15 0 15 -15v-97q0 -15 -15 -15h-356z" />
    <glyph glyph-name="Iiacutecy" horiz-adv-x="698" 
d="M305 768q-21 0 -12 17l59 114q7 12 17 12h97q21 0 12 -17l-60 -114q-7 -12 -17 -12h-96zM613 700q15 0 15 -15v-670q0 -15 -15 -15h-113q-15 0 -15 15v456l-250 -461q-6 -10 -18 -10h-133q-15 0 -15 15v670q0 15 15 15h113q15 0 15 -15v-456l250 461q6 10 18 10h133z" />
    <glyph glyph-name="Oacutecy" horiz-adv-x="820" 
d="M366 768q-9 0 -13 4.5t0 12.5l60 114q7 12 17 12h96q21 0 12 -17l-60 -114q-7 -12 -17 -12h-95zM409 -13q-150 0 -255 104.5t-105 255.5q0 152 105 256.5t255 104.5t255 -104.5t105 -256.5q0 -151 -105 -255.5t-255 -104.5zM409 127q92 0 153.5 63t61.5 157
q0 95 -61.5 158t-153.5 63t-153.5 -63.5t-61.5 -157.5t61.5 -157t153.5 -63z" />
    <glyph glyph-name="Uacutecy" horiz-adv-x="687" 
d="M298 768q-21 0 -12 17l60 114q7 12 17 12h96q21 0 12 -17l-60 -114q-7 -12 -17 -12h-96zM122 0q-20 0 -10 18l157 272l-232 392q-5 8 -2 13t12 5h119q13 0 19 -10l159 -273l158 273q6 10 18 10h119q9 0 12 -5t-1 -13l-391 -672q-6 -10 -18 -10h-119z" />
    <glyph glyph-name="Yeruacutecy" horiz-adv-x="822" 
d="M393 768q-21 0 -12 17l59 114q7 12 17 12h96q9 0 13 -4.5t-1 -12.5l-60 -114q-7 -12 -17 -12h-95zM84 0q-15 0 -15 15v670q0 15 15 15h113q15 0 15 -15v-230h83q121 0 183.5 -61.5t62.5 -166.5q0 -104 -62.5 -165.5t-183.5 -61.5h-211zM626 0q-15 0 -15 15v670
q0 15 15 15h113q15 0 15 -15v-670q0 -15 -15 -15h-113zM212 127h78q114 0 114 100q0 101 -114 101h-78v-201z" />
    <glyph glyph-name="Ereversedacutecy" horiz-adv-x="706" 
d="M314 768q-21 0 -12 17l59 114q7 12 17 12h96q9 0 13 -4.5t0 -12.5l-61 -114q-7 -12 -17 -12h-95zM300 708q150 0 255 -104t105 -257t-105 -256.5t-255 -103.5q-146 0 -246 102q-10 10 0 20l70 75q9 11 21 1q70 -58 154 -58q77 0 133.5 44t75.5 116h-225q-15 0 -15 15v96
q0 15 15 15h223q-20 70 -76 112.5t-131 42.5q-84 0 -154 -58q-12 -10 -21 1l-70 75q-10 11 0 21q101 101 246 101z" />
    <glyph glyph-name="Iuacutecy" horiz-adv-x="1038" 
d="M469 768q-21 0 -12 17l59 114q7 12 17 12h97q21 0 12 -17l-60 -114q-7 -12 -17 -12h-96zM627 708q150 0 255 -104.5t105 -256.5q0 -151 -105 -255.5t-255 -104.5q-134 0 -234 85t-121 215h-60v-272q0 -15 -15 -15h-113q-15 0 -15 15v670q0 15 15 15h113q15 0 15 -15v-272
h61q23 128 122.5 211.5t231.5 83.5zM627 127q92 0 153.5 63t61.5 157t-61.5 157.5t-153.5 63.5t-153.5 -63.5t-61.5 -157.5t61.5 -157t153.5 -63z" />
    <glyph glyph-name="Iaacutecy" horiz-adv-x="602" 
d="M267 768q-21 0 -12 17l59 114q7 12 17 12h97q21 0 12 -17l-60 -114q-7 -12 -17 -12h-96zM527 700q15 0 15 -15v-670q0 -15 -15 -15h-113q-15 0 -15 15v230h-51l-148 -235q-6 -10 -18 -10h-120q-21 0 -10 18l157 243q-139 49 -139 212q0 104 62.5 165.5t183.5 61.5h211z
M399 372v201h-78q-114 0 -114 -100q0 -101 114 -101h78z" />
    <glyph glyph-name="aacutecy" horiz-adv-x="618" 
d="M261 557q-21 0 -12 17l59 114q7 12 17 12h97q21 0 12 -17l-61 -114q-7 -12 -17 -12h-95zM267 -12q-103 0 -168 73t-65 184q0 110 65.5 183.5t167.5 73.5q108 0 160 -81l2 54q0 15 15 15h98q15 0 15 -15v-460q0 -15 -16 -15h-97q-15 0 -15 15l-2 54q-55 -81 -160 -81z
M296 114q55 0 89.5 36t34.5 95t-34.5 95t-89.5 36t-91 -36.5t-36 -94.5q0 -59 36 -95t91 -36z" />
    <glyph glyph-name="ieacutecy" horiz-adv-x="556" 
d="M233 557q-21 0 -12 17l59 114q7 12 17 12h96q21 0 12 -17l-60 -114q-7 -12 -17 -12h-95zM303 -12q-119 0 -194 73.5t-75 185.5q0 110 70 182.5t182 72.5q108 0 171.5 -68.5t63.5 -165.5q0 -38 -11.5 -56.5t-42.5 -18.5h-298q23 -96 145 -96q62 0 114 30q10 6 17 -4
l37 -51q8 -11 -5 -22q-62 -62 -174 -62zM167 290h231q-6 48 -36 73t-75 25q-47 0 -79 -25t-41 -73z" />
    <glyph glyph-name="iiacutecy" horiz-adv-x="608" 
d="M272 557q-21 0 -12 17l59 114q7 12 17 12h97q21 0 12 -17l-60 -114q-7 -12 -17 -12h-96zM533 490q15 0 15 -15v-460q0 -15 -15 -15h-109q-15 0 -15 15v293l-190 -298q-7 -10 -19 -10h-126q-15 0 -15 15v460q0 15 15 15h109q15 0 15 -15v-293l190 298q7 10 19 10h126z" />
    <glyph glyph-name="oacutecy" horiz-adv-x="582" 
d="M246 557q-21 0 -12 17l59 114q8 12 18 12h96q21 0 12 -17l-60 -114q-7 -12 -17 -12h-96zM291 -12q-110 0 -183.5 74t-73.5 183t73.5 183t183.5 74t183 -74t73 -183t-73 -183t-183 -74zM291 115q53 0 88 35.5t35 94.5t-35 94.5t-88 35.5q-54 0 -89 -35.5t-35 -94.5
t35 -94.5t89 -35.5z" />
    <glyph glyph-name="uacutecy" horiz-adv-x="574" 
d="M247 557q-21 0 -12 17l59 114q7 12 17 12h96q9 0 13 -4.5t-1 -12.5l-60 -114q-7 -12 -17 -12h-95zM160 -190q-20 0 -12 17l71 172l-189 474q-6 17 12 17h110q14 0 18 -12l117 -318l116 318q4 12 18 12h110q18 0 12 -17l-259 -651q-4 -12 -18 -12h-106z" />
    <glyph glyph-name="yeruacutecy" horiz-adv-x="798" 
d="M355 557q-21 0 -12 17l59 114q7 12 17 12h97q21 0 12 -17l-60 -114q-7 -12 -17 -12h-96zM74 0q-15 0 -15 15v460q0 15 15 15h109q15 0 15 -15v-130h138q190 0 190 -172q0 -173 -190 -173h-262zM615 0q-15 0 -15 15v460q0 15 15 15h109q15 0 15 -15v-460q0 -15 -15 -15
h-109zM198 108h118q78 0 78 65q0 64 -78 64h-118v-129z" />
    <glyph glyph-name="ereversedacutecy" horiz-adv-x="520" 
d="M210 557q-21 0 -12 17l59 114q7 12 17 12h97q21 0 12 -17l-60 -114q-7 -12 -17 -12h-96zM228 502q111 0 184 -73t73 -182q0 -111 -74 -185t-186 -74q-119 0 -187 88q-9 11 1 21l61 59q13 13 26 0q41 -41 94 -41q44 0 75.5 21.5t46.5 57.5h-145q-15 0 -15 15v70
q0 15 15 15h147q-13 37 -45 59t-77 22q-54 0 -95 -41q-13 -13 -26 0l-61 59q-10 10 -1 21q68 88 189 88z" />
    <glyph glyph-name="iuacutecy" horiz-adv-x="803" 
d="M357 557q-21 0 -12 17l59 114q7 12 17 12h96q21 0 12 -17l-60 -114q-7 -12 -17 -12h-95zM511 502q110 0 183 -74t73 -183t-73 -183t-183 -74q-95 0 -164 56t-87 144h-62v-174q0 -15 -15 -15h-109q-15 0 -15 15v460q0 15 15 15h109q15 0 15 -15v-174h61q18 89 87 145.5
t165 56.5zM511 115q53 0 88 35.5t35 94.5t-35 94.5t-88 35.5q-54 0 -89 -35.5t-35 -94.5t35 -94.5t89 -35.5z" />
    <glyph glyph-name="iaacutecy" horiz-adv-x="565" 
d="M222 557q-21 0 -12 17l59 114q8 12 18 12h96q21 0 12 -17l-60 -114q-7 -12 -17 -12h-96zM490 490q15 0 15 -15v-460q0 -15 -15 -15h-109q-15 0 -15 15v130h-76l-114 -137q-7 -8 -18 -8h-112q-10 0 -12 5t4 13l115 136q-115 30 -115 163q0 173 190 173h262zM366 253v129
h-117q-79 0 -79 -65q0 -64 79 -64h117z" />
    </font>
</defs>
</svg>
